<svg id="レイヤー_1" data-name="レイヤー 1" xmlns="http://www.w3.org/2000/svg" viewBox="0 0 376 200"><defs><style>.cls-1{fill:#8dbfff;}.cls-10,.cls-11,.cls-2,.cls-3,.cls-6,.cls-7,.cls-8,.cls-9{fill:none;stroke-miterlimit:10;}.cls-10,.cls-11,.cls-2,.cls-6,.cls-7,.cls-8,.cls-9{stroke:#0000a0;}.cls-3{stroke:#000;}.cls-4{fill:red;}.cls-5{fill:#0040a7;}.cls-10,.cls-11,.cls-6,.cls-7,.cls-8,.cls-9{stroke-width:0.75px;}.cls-7{stroke-dasharray:1.915 1.915;}.cls-8{stroke-dasharray:2.113 2.113;}.cls-9{stroke-dasharray:1.92 1.92;}.cls-10{stroke-dasharray:1.92 1.92;}.cls-11{stroke-dasharray:2.145 2.145;}</style></defs><path class="cls-1" d="M363.274,114.358V93.339H336.309v21.019H309.344V93.339H282.378v21.019H255.413V93.339H228.448v21.019H195.163c-.562-.069-2.252-.728-4.744-5.71-4.9-9.788-4.294-9.493-8.288-7.039C176.943,104.8,174.5,92.7,169.8,100s-2.019,10.895-6.261,14.358H147.552V93.339H120.587v21.019H93.622V93.339H66.656v21.019H39.691V93.339H12.726v21.019H0V200H376V114.358Z"/><path class="cls-2" d="M376,114.358H363.274V93.339H336.309v21.019H309.344V93.339H282.378v21.019H255.413V93.339H228.448v21.019H195.163c-.562-.069-2.252-.728-4.744-5.71-4.9-9.788-4.294-9.493-8.288-7.039C176.943,104.8,174.5,92.7,169.8,100s-2.019,10.895-6.261,14.358H147.552V93.339H120.587v21.019H93.622V93.339H66.656v21.019H39.691V93.339H12.726v21.019H0"/><line class="cls-3" x1="95.391" y1="11.24" x2="144.648" y2="60.497"/><polygon points="141.193 61.15 150.913 66.761 145.301 57.041 141.193 61.15"/><line class="cls-3" x1="208.196" y1="83.653" x2="274.344" y2="17.504"/><polygon points="274.997 20.96 280.609 11.24 270.889 16.851 274.997 20.96"/><line class="cls-3" x1="236.464" y1="80.213" x2="286.798" y2="55.666"/><polygon points="286.291 59.146 294.761 51.783 283.744 53.923 286.291 59.146"/><line class="cls-3" x1="205.037" y1="65.998" x2="223.298" y2="25.427"/><polygon points="225.134 28.426 226.935 17.348 219.836 26.041 225.134 28.426"/><path d="M71.432,26.128A10.317,10.317,0,0,0,76.458,35.6a4.261,4.261,0,0,0-.636.672,10.387,10.387,0,0,1-4.833-6.812,10.7,10.7,0,0,1-4.87,6.824,5.426,5.426,0,0,0-.707-.636c2.674-1.391,4.173-3.825,4.917-7.231l.468.071c-.084-.575-.132-1.1-.156-1.57H67.667v-.792Z"/><path d="M82.965,30.613c-.168.312-.36.612-.552.9V35.35c0,.456-.12.7-.42.828a5.782,5.782,0,0,1-1.7.132,2.746,2.746,0,0,0-.264-.72c.648.012,1.224.012,1.415,0,.168-.011.228-.059.228-.24V32.5A13.6,13.6,0,0,1,77.8,35.638a5.093,5.093,0,0,0-.551-.588,11.974,11.974,0,0,0,3.49-2.578c-1.151.18-2.279.336-3.178.468l-.108-.731c.3-.036.635-.073,1.007-.12v-5.35h1.188a11.059,11.059,0,0,0,.443-1.355l.888.144c-.168.42-.348.852-.528,1.211h1.967v3.694Zm-3.79-3.226v1.079h2.494V27.387Zm2.494,1.691H79.175V30.17h2.494Zm-2.494,2.927c.7-.1,1.451-.193,2.206-.3.1-.132.192-.264.288-.4v-.516H79.175Zm9.2-2.915h-1.32v6.165c0,.527-.156.767-.491.9a6.077,6.077,0,0,1-1.919.144,4.292,4.292,0,0,0-.3-.755c.756.023,1.439.023,1.631.011s.3-.072.3-.288V29.09H82.881v-.744h3.394v-2.9h.779v2.9h1.32Zm-3.683,4.33a10.312,10.312,0,0,0-1.2-2.771l.684-.264a10.077,10.077,0,0,1,1.247,2.735Z"/><path d="M91.535,30.59a11.822,11.822,0,0,0-2.1-1.3l.443-.587a12.473,12.473,0,0,1,2.111,1.222Zm.767,1.7c-.54,1.258-1.259,2.757-1.871,3.861l-.7-.48a36.689,36.689,0,0,0,1.955-3.862Zm-.18-4.822a11.074,11.074,0,0,0-2.051-1.391l.468-.564a10.95,10.95,0,0,1,2.051,1.32Zm7.34,2.806a8.645,8.645,0,0,1-2.075,3.79,7.894,7.894,0,0,0,3.083,1.571,2.948,2.948,0,0,0-.516.684,8.549,8.549,0,0,1-3.119-1.7,9.477,9.477,0,0,1-3.022,1.727,2.793,2.793,0,0,0-.516-.66,9.038,9.038,0,0,0,2.987-1.631,9.1,9.1,0,0,1-1.943-3.25h-.4a9.636,9.636,0,0,1-1.559,5.517,2.165,2.165,0,0,0-.659-.407c1.319-1.668,1.462-4.031,1.462-5.757V27.147H96.1V25.384h.78v1.763H99.63l.144-.036.564.168a16.368,16.368,0,0,1-1.02,2.387l-.683-.228a13.064,13.064,0,0,0,.647-1.548h-2.4v2.184h1.943l.143-.025ZM93.957,27.89v2.184H96.1V27.89Zm1.127,2.915a7.881,7.881,0,0,0,1.74,2.746,6.94,6.94,0,0,0,1.655-2.746Z"/><path class="cls-4" d="M290.2,28.586a13.912,13.912,0,0,1-1.295,4.642,5.74,5.74,0,0,0,2.183,2.17,4.276,4.276,0,0,0-.78.96,6.334,6.334,0,0,1-2.039-2.1,7.329,7.329,0,0,1-2.422,2.123,4.594,4.594,0,0,0-.636-.959.769.769,0,0,1-.42.755,3.916,3.916,0,0,1-1.523.168,2.991,2.991,0,0,0-.312-.923c.456.023.911.011,1.031.011s.18-.048.18-.179v-.828h-2.351v1.919h-1.031V30.529h4.426V35.41a6.257,6.257,0,0,0,2.482-2.242,14.8,14.8,0,0,1-.935-2.879,8.233,8.233,0,0,1-.7,1.3,6.485,6.485,0,0,0-.744-.96,5.482,5.482,0,0,0,.445-.78H280V28.91h1.319V27.663h-1.139v-.936h1.139V25.468h1.019v1.259h1.319V25.468h1.033v1.259h1.151v.936h-1.151V28.91h1.138v.815a15.382,15.382,0,0,0,1.1-4.377l1.092.156c-.109.7-.216,1.379-.373,2.039h3.346v1.043Zm-8.384,2.807v.683h2.351v-.683Zm2.351,2.2v-.7h-2.351v.7Zm-1.835-4.678h1.319V27.663h-1.319Zm5.025-.288a15.75,15.75,0,0,0,.936,3.37,13.833,13.833,0,0,0,.8-3.406h-1.727Z"/><path class="cls-4" d="M295.7,28.658h2.531v1.008H295.7v1.8h2.1V36.01H296.71v-.36H293.6v.456h-1.043V31.465h2.062v-1.8h-2.65V28.658h2.65V27.027c-.731.108-1.463.18-2.158.252a4.178,4.178,0,0,0-.313-.888,25.6,25.6,0,0,0,5.037-.959l.84.864a17.219,17.219,0,0,1-2.327.551Zm1.008,3.8H293.6v2.207h3.106Zm4.773,2.722c.4,0,.468-.443.528-2.218a2.97,2.97,0,0,0,1,.491c-.109,2.027-.361,2.759-1.428,2.759h-1.463c-1.1,0-1.4-.372-1.4-1.751V25.516h1.1v8.959c0,.612.06.707.456.707Z"/><path class="cls-4" d="M306.071,30.733a12.936,12.936,0,0,0-2.123-1.259l.624-.828a14.853,14.853,0,0,1,2.147,1.163Zm.96,1.667c-.528,1.247-1.212,2.687-1.823,3.814l-.983-.672a35.848,35.848,0,0,0,1.955-3.814Zm-.347-4.81a14.151,14.151,0,0,0-2.064-1.331l.636-.8a14.525,14.525,0,0,1,2.087,1.235Zm7.495,2.627a9.076,9.076,0,0,1-1.931,3.79,7.694,7.694,0,0,0,2.807,1.391,3.728,3.728,0,0,0-.72.96,8.428,8.428,0,0,1-2.866-1.583,8.581,8.581,0,0,1-2.723,1.607,4.4,4.4,0,0,0-.708-.936,8.169,8.169,0,0,0,2.675-1.427,9.7,9.7,0,0,1-1.8-3.082h-.12a10.028,10.028,0,0,1-1.487,5.409,3.706,3.706,0,0,0-.948-.552c1.26-1.667,1.379-4.042,1.379-5.769V27h2.819V25.348h1.091V27h2.328l.191-.036.8.2a16.409,16.409,0,0,1-1,2.459l-.949-.276c.157-.348.336-.828.5-1.307h-1.883v1.906h1.62l.215-.048Zm-5.373-2.17v1.906h1.751V28.047Zm1.164,2.89a7.762,7.762,0,0,0,1.487,2.339,7.062,7.062,0,0,0,1.367-2.339Z"/><path class="cls-4" d="M320.83,27.159a27.634,27.634,0,0,0,3.526-.348v1.115a37.039,37.039,0,0,1-3.946.312,9.578,9.578,0,0,1-.924,1.583,3.526,3.526,0,0,1,1.535-.359,1.579,1.579,0,0,1,1.608,1.019c.744-.348,1.355-.6,1.919-.864.408-.179.756-.335,1.14-.527l.491,1.1c-.348.108-.864.3-1.223.444-.612.24-1.392.552-2.231.935.012.684.024,1.643.036,2.219h-1.14c.025-.42.036-1.1.049-1.691-1.032.564-1.68,1.115-1.68,1.823,0,.816.781.983,1.991.983a20.4,20.4,0,0,0,3.334-.311l-.036,1.211a30.519,30.519,0,0,1-3.334.216c-1.787,0-3.177-.42-3.177-1.907S320.206,31.7,321.6,31a.967.967,0,0,0-.984-.6,3.062,3.062,0,0,0-1.991.863,13.054,13.054,0,0,0-1.091,1.284l-1.032-.767a12.066,12.066,0,0,0,2.711-3.5h-.348c-.5,0-1.331-.024-2-.072V27.075a15.507,15.507,0,0,0,2.063.132c.228,0,.468,0,.708-.012a5.973,5.973,0,0,0,.275-1.427l1.248.095C321.082,26.2,320.986,26.643,320.83,27.159Z"/><path class="cls-4" d="M332.758,28.215h-4.785v-.888h4.785Zm-.491,7.483H329.5v.5h-.983v-4.03h3.754Zm-3.731-6.74H332.3v.863h-3.767Zm0,1.6H332.3v.875h-3.767Zm3.778-3.934h-3.706v-.875h3.706ZM329.5,33.071V34.8h1.775V33.071Zm9.618-2.59h-2.59v5.865H335.4V30.481h-2.674v-1.1H335.4V25.384h1.128v3.994h2.59Z"/><path class="cls-4" d="M350.839,34.379H348.2v1.967h-1.151V34.379h-2.975c-.311.755-1.127,1.475-3.01,1.991a4.121,4.121,0,0,0-.708-.828,4.162,4.162,0,0,0,2.423-1.163h-2.591v-.9h2.939v-.911h-1.535V28.082h1.26a6.941,6.941,0,0,0-.529-1h-.468a7.821,7.821,0,0,1-1.055,1.235,6.279,6.279,0,0,0-.9-.624,6.555,6.555,0,0,0,1.8-2.41l1.031.276c-.1.215-.2.407-.312.623h2.9v.876a5.459,5.459,0,0,0,1.092-1.775l1.079.24a6.309,6.309,0,0,1-.3.659h3.575v.9h-2.039a6.752,6.752,0,0,1,.48.66l-.732.335h1.151v4.486H348.2v.911h2.639Zm-8.12-5.025h5.733V28.79h-5.733Zm0,1.247h5.733v-.588h-5.733Zm0,1.271h5.733v-.6h-5.733Zm.744-4.785a6.613,6.613,0,0,1,.395.719l-.755.276h2.5a6.309,6.309,0,0,0-.864-.468,2.885,2.885,0,0,0,.564-.527Zm3.586,6.392v-.911h-2.795v.911Zm-.408-6.392a5.87,5.87,0,0,1-.839,1h2.4a6.576,6.576,0,0,0-.72-1Z"/><path class="cls-5" d="M99.132,129.114c.851,2.7,2.435,4.917,4.749,5.889a4.026,4.026,0,0,0-.588.744c-2.338-1.1-3.909-3.323-4.833-6.129a8.5,8.5,0,0,1-4.833,6.14,3.135,3.135,0,0,0-.6-.659,7.887,7.887,0,0,0,4.7-5.985H93.243V128.3h4.63a24.642,24.642,0,0,0,.191-3.441h.84a26.554,26.554,0,0,1-.2,3.441h5v.816Z"/><path class="cls-5" d="M110.2,125.456l.912-.132a11.594,11.594,0,0,0,.3,1.452,13.115,13.115,0,0,0,2.47-.54l.132.779a15.622,15.622,0,0,1-2.4.492c.1.312.2.612.287.875.084.24.181.492.289.756a17.864,17.864,0,0,0,2.41-.527l.132.8a16.559,16.559,0,0,1-2.219.432,10.019,10.019,0,0,0,.888,1.571,2.762,2.762,0,0,0,.432.492l-.468.66a21.589,21.589,0,0,0-2.567-.373l.06-.647c.672.06,1.476.156,1.859.2a14.03,14.03,0,0,1-.984-1.811,32.118,32.118,0,0,1-5.289.024l-.047-.8a27.385,27.385,0,0,0,5.025.06c-.084-.228-.18-.444-.252-.659-.132-.348-.24-.672-.336-.984a27.382,27.382,0,0,1-4.149-.084l-.049-.792a21.875,21.875,0,0,0,3.982.144c-.036-.132-.072-.263-.108-.383A8.953,8.953,0,0,0,110.2,125.456Zm-2.65,7.616c0,1.007.888,1.523,2.818,1.523a13.335,13.335,0,0,0,2.831-.252l-.024.852a16.377,16.377,0,0,1-2.783.216c-2.35,0-3.634-.7-3.646-2.207a3.37,3.37,0,0,1,.456-1.679l.84.18A2.316,2.316,0,0,0,107.546,133.072Z"/><path class="cls-5" d="M124.043,126.631c-.827.744-2.578,2.124-3.478,2.879-.731.636-.755.828.048,1.487,1.116.912,3.215,2.614,4.5,3.91l-.756.683q-.36-.395-.791-.827c-.864-.887-2.7-2.446-3.814-3.37s-.983-1.427.072-2.327c.911-.755,2.758-2.206,3.562-3.034a5.186,5.186,0,0,0,.648-.768l.8.708C124.6,126.164,124.235,126.476,124.043,126.631Z"/><path class="cls-5" d="M131.858,127.675a6.989,6.989,0,0,1-2.255,2.374,4.135,4.135,0,0,0-.552-.467,5.9,5.9,0,0,0,2.063-2.123Zm6.057,3.778a7.077,7.077,0,0,1-2.6,2.507,14.61,14.61,0,0,0,4.6,1.091,3.242,3.242,0,0,0-.479.744,13.8,13.8,0,0,1-4.941-1.4,17.985,17.985,0,0,1-5.026,1.4,2.088,2.088,0,0,0-.4-.708,17.542,17.542,0,0,0,4.666-1.151,6.961,6.961,0,0,1-1.727-1.619,11.709,11.709,0,0,1-2.135,1.2,2.425,2.425,0,0,0-.516-.588,8.521,8.521,0,0,0,3.814-2.722l.864.168a9.226,9.226,0,0,1-.648.755h3.838l.168-.036Zm-4.786-4.641h-3.874v-.744h4.786v-1.224h.8v1.224h4.833v.744h-3.261v2.71c0,.42-.073.624-.4.755a6.332,6.332,0,0,1-1.667.108,3.967,3.967,0,0,0-.216-.695c.611.012,1.151.012,1.307.012s.2-.048.2-.192v-2.7h-1.763v.071a4.151,4.151,0,0,1-2.1,3.958,2.772,2.772,0,0,0-.576-.54,3.568,3.568,0,0,0,1.919-3.43Zm-.576,5.085a6.148,6.148,0,0,0,1.968,1.667,6.379,6.379,0,0,0,2.194-1.775h-4.029Zm5.146-4.486a14.279,14.279,0,0,1,2.182,2.327l-.659.419a14.428,14.428,0,0,0-2.135-2.386Z"/><path class="cls-5" d="M146.161,130.254v5.5h-.78v-5.5H143.33a8.114,8.114,0,0,1-1.775,5.577,3.144,3.144,0,0,0-.588-.54,7.346,7.346,0,0,0,1.619-5.037H141v-.744h1.6v-3.178h-1.416v-.744h6.129v.744h-1.151v3.178h1.307v.744Zm-.78-.744v-3.178h-2.039v3.178Zm6.632,2.339a10.754,10.754,0,0,1-4.593,3.922,2.882,2.882,0,0,0-.564-.648,9.516,9.516,0,0,0,4.414-3.562Zm-.647-6.5a12.085,12.085,0,0,1-3.43,2.807,3.155,3.155,0,0,0-.576-.552,10.445,10.445,0,0,0,3.262-2.555Zm.36,3.274a13.137,13.137,0,0,1-3.683,3.023,4.165,4.165,0,0,0-.563-.564,11.57,11.57,0,0,0,3.514-2.759Z"/><path class="cls-5" d="M156.361,126.679c-.059,1.368-.143,4.234-.143,6.081,0,1.331.839,1.811,2.014,1.811a5.044,5.044,0,0,0,4.342-2.482l.6.719a5.957,5.957,0,0,1-4.966,2.627c-1.679,0-2.866-.684-2.866-2.627,0-1.811.132-4.821.132-6.129a5.459,5.459,0,0,0-.1-1.139h1.091A9.8,9.8,0,0,0,156.361,126.679Z"/><path class="cls-5" d="M169.489,126.368c-.06.287-.12.611-.192.971a18.3,18.3,0,0,0,2.363-.432v.84a21.048,21.048,0,0,1-2.531.408c-.12.527-.252,1.091-.4,1.619a35.685,35.685,0,0,1-1.858,5.481l-.948-.324a25.233,25.233,0,0,0,2-5.361c.108-.408.228-.876.336-1.343-.42.036-.816.048-1.176.048-.515,0-.935-.012-1.379-.048l-.024-.828a10.484,10.484,0,0,0,1.427.084c.408,0,.852-.024,1.32-.06.095-.456.168-.852.2-1.1a5.379,5.379,0,0,0,.036-.958l1.02.083C169.621,125.7,169.537,126.14,169.489,126.368ZM170.9,133.1c0,.576.324,1.151,2.1,1.151a11.335,11.335,0,0,0,2.327-.24l-.037.876a17.784,17.784,0,0,1-2.3.168c-1.859,0-2.89-.564-2.89-1.751a7.713,7.713,0,0,1,.179-1.379l.8.084A4.3,4.3,0,0,0,170.9,133.1Zm2.171-4.09a19.116,19.116,0,0,1,2.075.1l-.024.816a17.759,17.759,0,0,0-2.015-.132,19.43,19.43,0,0,0-2.207.12v-.8C171.528,129.042,172.319,129.006,173.075,129.006Z"/><path class="cls-5" d="M182.88,129.258c0,1.127.708,4.4,4.941,5.745a6.516,6.516,0,0,0-.539.744,7.142,7.142,0,0,1-4.845-5.026,7.258,7.258,0,0,1-4.846,5.026,4.655,4.655,0,0,0-.551-.684c4.221-1.4,4.953-4.618,4.953-5.8V127.7h-2.351a11.641,11.641,0,0,1-1.895,2.974,4.533,4.533,0,0,0-.756-.5,12.446,12.446,0,0,0,2.807-5.434l.863.181a20.376,20.376,0,0,1-.671,1.99h6.9l.156-.036.635.228a18.366,18.366,0,0,1-1.631,3.718l-.719-.335a13.443,13.443,0,0,0,1.235-2.783H182.88Z"/><path class="cls-5" d="M192.816,125.636c-.359.972-.8,2.183-1.211,3.142a3.735,3.735,0,0,1,1.1,2.591,1.6,1.6,0,0,1-.456,1.343,1.433,1.433,0,0,1-.611.216,6.081,6.081,0,0,1-.816.012,1.753,1.753,0,0,0-.2-.707,5.279,5.279,0,0,0,.732.011.787.787,0,0,0,.4-.108,1.1,1.1,0,0,0,.239-.839,3.477,3.477,0,0,0-1.115-2.435c.359-.887.743-1.966,1.008-2.782H190.19v9.678h-.719v-10.4h2.711l.12-.037Zm6.7,3.538v6.561h-.744v-.528h-2.794v.54h-.708v-6.573h1.679a3.493,3.493,0,0,0-.407-.276,10.174,10.174,0,0,0,1.319-2.267H195.18a11.739,11.739,0,0,1-1.656,2.483h.624v6.633h-.719v-6.525l-.109.108a5.639,5.639,0,0,0-.659-.444,10.164,10.164,0,0,0,2.458-4.053l.756.179c-.107.312-.24.624-.372.936h2.675l.132-.036.54.288a12.074,12.074,0,0,1-1.631,2.974Zm-3.538.684v1.955h2.794v-1.955Zm2.794,4.653V132.5h-2.794v2.015Z"/><path class="cls-5" d="M205.549,126.823a28.086,28.086,0,0,0,3.7-.371v.791a35.123,35.123,0,0,1-3.993.336,10.248,10.248,0,0,1-1.163,1.979,3.483,3.483,0,0,1,1.726-.492,1.506,1.506,0,0,1,1.595,1.128c.864-.42,1.644-.72,2.291-1.02.336-.156.611-.276.924-.443l.347.8c-.288.084-.683.24-1,.36-.7.276-1.595.635-2.531,1.079.013.7.024,1.739.036,2.339h-.827c.024-.48.036-1.307.036-1.955-1.151.611-1.979,1.271-1.979,2.1,0,.983.983,1.127,2.23,1.127a21.456,21.456,0,0,0,3.263-.287l-.036.863a28.17,28.17,0,0,1-3.262.2c-1.68,0-3.047-.348-3.047-1.787,0-1.4,1.4-2.279,2.819-3.01a1.014,1.014,0,0,0-1.127-.8,3.245,3.245,0,0,0-2.1.875,15.649,15.649,0,0,0-1.092,1.248l-.731-.54a12.184,12.184,0,0,0,2.782-3.742h-.575c-.516,0-1.3-.024-1.968-.06v-.815a17.707,17.707,0,0,0,2.016.132c.263,0,.539,0,.827-.013a5.928,5.928,0,0,0,.311-1.523l.876.072A10.823,10.823,0,0,1,205.549,126.823Z"/><path class="cls-5" d="M218.735,124.82A13.527,13.527,0,0,0,224,128.035a5.039,5.039,0,0,0-.48.683,17.2,17.2,0,0,1-2.71-1.343v.636h-4.63v-.672h4.582a11.681,11.681,0,0,1-2.363-1.847,14.417,14.417,0,0,1-5,3.31,3.53,3.53,0,0,0-.455-.623,12.7,12.7,0,0,0,5.037-3.359Zm3.263,4.4c-.372.756-.876,1.619-1.344,2.375h1.524v4.161h-.8v-.467h-5.793v.467h-.791V131.6h4.989l-.036-.012c.348-.552.743-1.247,1.056-1.811h-6.225v-.708h6.68l.144-.048Zm-.624,3.082h-5.793v2.279h5.793Z"/><path class="cls-5" d="M228.781,126.452v.647a15.586,15.586,0,0,0,2.338-.444v.828a19.723,19.723,0,0,1-2.338.372V129.7a1.828,1.828,0,0,1,.3,1.055,3.165,3.165,0,0,1-.636,2.039c-.012.264-.024.576-.024.792,0,.695.18.947,1.979.947a10.01,10.01,0,0,0,2.075-.2,1.241,1.241,0,0,0,1.019-1.355,10.066,10.066,0,0,0-.072-1.343l.912.3c0,.455.012.767,0,1.271a1.76,1.76,0,0,1-1.523,1.895,12.914,12.914,0,0,1-2.459.24c-2.338,0-2.722-.516-2.722-1.416,0-.215,0-.431.012-.647a1.649,1.649,0,0,1-.432.048c-.636,0-1.5-.48-1.5-1.859a2.141,2.141,0,0,1,1.919-2.327,1.762,1.762,0,0,1,.371.036V127.9c-.168.012-.323.012-.468.012a14.1,14.1,0,0,1-1.906-.12l-.036-.791a11.027,11.027,0,0,0,1.883.167c.168,0,.347,0,.527-.012,0-.288-.012-.539-.012-.707a5.169,5.169,0,0,0-.072-1.068h.936A8.124,8.124,0,0,0,228.781,126.452Zm-.48,4.353c0-.6-.287-.971-.72-.971-.611,0-1.139.659-1.139,1.607,0,.695.408,1.091.864,1.091C228.049,132.532,228.3,131.621,228.3,130.805Zm7.148-2-.588.612a13.617,13.617,0,0,0-2.326-2.243l.551-.551A13.533,13.533,0,0,1,235.449,128.8Z"/><path class="cls-5" d="M247.413,125.336v10.411h-.84v-.636H238.3v.636h-.8V125.336Zm-.84,9.019V126.14H238.3v8.215Zm-1.858-6.26v4.293h-4.582V128.1Zm-.792.707h-3.034v2.867h3.034Z"/><path class="cls-5" d="M251.546,131.225V134.8c0,.468-.108.684-.4.815a4.527,4.527,0,0,1-1.558.133,3.287,3.287,0,0,0-.252-.72c.563.012,1.056.012,1.211.012s.216-.06.216-.228v-3.346c-.612.18-1.188.36-1.679.516l-.24-.78c.528-.132,1.2-.324,1.919-.54v-2.638h-1.739v-.744h1.739v-2.435h.78v2.435h1.415v.744h-1.415v2.41l1.427-.431.108.743Zm8.394-1.583h-2.074v6.093h-.78v-6.093H254.6c-.012,1.835-.24,4.294-1.823,6.045a2.184,2.184,0,0,0-.588-.564c1.463-1.607,1.62-3.814,1.62-5.577v-3.79l.767.156a28.748,28.748,0,0,0,4.27-.911l.588.635a29.255,29.255,0,0,1-4.834.948v2.29h5.336Z"/><path class="cls-5" d="M271.029,126.332a8.7,8.7,0,0,1-1.955,3.142,8.582,8.582,0,0,0,3.034,1.643,3.411,3.411,0,0,0-.491.66c-.216-.072-.42-.156-.624-.24v4.186h-.755v-.5h-3.49v.552H266v-4.126c-.323.144-.659.288-1,.407a2.054,2.054,0,0,0-.456-.647,9.741,9.741,0,0,0,3.454-1.943,8.631,8.631,0,0,1-1.307-1.775,10.248,10.248,0,0,1-1.235,1.331,5.921,5.921,0,0,0-.636-.528c.132-.108.264-.215.4-.335h-1.512v.611c.349.384,1.3,1.548,1.523,1.835l-.491.624c-.192-.348-.647-1.019-1.032-1.547v6.057h-.768v-5.853a13.047,13.047,0,0,1-1.667,3.6,5.075,5.075,0,0,0-.431-.7,13.412,13.412,0,0,0,2.015-4.629h-1.739v-.732h1.822v-2.59h.768v2.59H265.3v.66a8.994,8.994,0,0,0,2.146-3.263l.768.205c-.156.371-.324.743-.516,1.1h2.7l.144-.036Zm-.324,5.073a9.4,9.4,0,0,1-2.158-1.427,10.9,10.9,0,0,1-2.075,1.427Zm-.467,3.106V132.1h-3.49v2.41Zm-3.094-7.448a7.536,7.536,0,0,0,1.391,1.907,7.992,7.992,0,0,0,1.486-2.134h-2.734Z"/><path class="cls-5" d="M283.856,130.973H278.88v3.73c0,.564-.145.8-.576.936a9.922,9.922,0,0,1-2.351.143,3.286,3.286,0,0,0-.336-.815c.984.036,1.871.036,2.123.024s.336-.072.336-.3v-3.718h-5v-.779h5v-1.931h.491a15.06,15.06,0,0,0,2.663-1.8H274.3v-.78h7.76l.192-.036.588.444a17.884,17.884,0,0,1-3.958,2.842v1.26h4.976Z"/><path class="cls-5" d="M70.479,165.563c2.807-2.446,4.054-4.222,4.054-5.744a1.6,1.6,0,0,0-1.667-1.812A2.565,2.565,0,0,0,71,159.051l-.576-.552a3.337,3.337,0,0,1,2.555-1.283,2.367,2.367,0,0,1,2.518,2.566c0,1.776-1.391,3.586-3.538,5.6.468-.047,1-.071,1.44-.071h2.518v.839H70.479Z"/><path class="cls-5" d="M83.377,158.139l.948.192c-.072.252-.144.564-.2.816a24.133,24.133,0,0,1-1.1,3.778,17.24,17.24,0,0,1-1.764,3.274l-.9-.384a15.682,15.682,0,0,0,1.835-3.25A17.861,17.861,0,0,0,83.377,158.139Zm2.987.168.851-.3c.468.864,1.235,2.483,1.751,3.778.492,1.2,1.128,3.023,1.451,4.09l-.947.3a35.073,35.073,0,0,0-1.367-4.1A34.4,34.4,0,0,0,86.364,158.307Zm3.322-1.8a1.326,1.326,0,1,1,0,2.651,1.326,1.326,0,1,1,0-2.651Zm0,2.135a.814.814,0,0,0,.815-.8.816.816,0,1,0-1.631,0A.807.807,0,0,0,89.686,158.643Z"/><path class="cls-5" d="M97.38,157.636q-.126.234-.288.5h3.394a1.983,1.983,0,0,0,.732-.108l.72.432a3.8,3.8,0,0,0-.264.6,12.063,12.063,0,0,1-1.9,3.79c.515.372.983.732,1.379,1.055l-.636.732c-.359-.324-.815-.7-1.319-1.079a11.3,11.3,0,0,1-4.618,3.082l-.755-.672a10.526,10.526,0,0,0,4.677-2.938c-.875-.636-1.811-1.272-2.6-1.763l.575-.588c.816.468,1.728,1.068,2.591,1.667a10.384,10.384,0,0,0,1.691-3.442H96.588a12.885,12.885,0,0,1-3.178,3.19l-.707-.551a10.993,10.993,0,0,0,3.85-4.222,4.465,4.465,0,0,0,.36-.888l.971.312C97.692,157.048,97.5,157.42,97.38,157.636Z"/><path class="cls-5" d="M106.394,161.078h6.6a12.582,12.582,0,0,0,1.271-.06v1.043c-.24-.012-.719-.048-1.259-.048h-6.608c-.66,0-1.26.024-1.62.048v-1.043C105.123,161.054,105.71,161.078,106.394,161.078Z"/><path class="cls-5" d="M122.1,163.68a11.113,11.113,0,0,0,3.945-4.377l.517.912a12.066,12.066,0,0,1-3.958,4.233,13.243,13.243,0,0,1-4.774,1.895l-.552-.876A12.25,12.25,0,0,0,122.1,163.68Zm-.84-3.79-.659.672a24.948,24.948,0,0,0-2.987-2.494l.612-.648A25.307,25.307,0,0,1,121.26,159.89Z"/><path class="cls-5" d="M133.884,166.487l-.492-.792a9.477,9.477,0,0,0,1.02-.144,3.7,3.7,0,0,0,3.106-3.634,3.431,3.431,0,0,0-3.334-3.538,23.529,23.529,0,0,1-.72,3.5c-.732,2.471-1.679,3.694-2.746,3.694-1.02,0-2.087-1.175-2.087-3.154a5.067,5.067,0,0,1,5.193-4.821,4.309,4.309,0,0,1,4.557,4.353C138.381,164.472,136.7,166.127,133.884,166.487Zm-3.131-1.883c.564,0,1.248-.8,1.872-2.914a18.279,18.279,0,0,0,.671-3.3,4.273,4.273,0,0,0-3.838,3.97C129.458,163.92,130.19,164.6,130.753,164.6Z"/><path class="cls-5" d="M143.965,163.285a18.012,18.012,0,0,0-1.128-1.5v5.242h-.779v-5.421a13.112,13.112,0,0,1-1.775,3.214,3.8,3.8,0,0,0-.42-.708,12.728,12.728,0,0,0,2.123-3.91h-1.811v-.755h1.883v-1.9c-.576.108-1.151.192-1.679.264a2.873,2.873,0,0,0-.252-.612,17.894,17.894,0,0,0,3.682-.887l.552.611a11.641,11.641,0,0,1-1.524.456v2.063h1.332v-.192h2.962v-.684h-2.326v-.54h2.326v-.659h-2.6v-.552h2.6v-.684h.78v.684h2.77v.552h-2.77v.659h2.458v.54h-2.458v.684h3.082v.564h-6.776v.383h-1.38v.8c.372.36,1.368,1.379,1.608,1.643ZM147,165.647a9.241,9.241,0,0,1-2.83,1.451,3.7,3.7,0,0,0-.528-.527,7.845,7.845,0,0,0,2.674-1.319Zm-2.027-.5v-4.678H150.3v4.678Zm.732-3.311h3.826v-.8H145.7Zm0,1.368h3.826v-.828H145.7Zm0,1.391h3.826v-.852H145.7Zm3.07.684c.816.455,1.739,1.007,2.3,1.391l-.7.4a23.415,23.415,0,0,0-2.147-1.38Z"/><path class="cls-5" d="M156.289,156.628a12.175,12.175,0,0,1-3.742,4.894,4.744,4.744,0,0,0-.672-.612,10.151,10.151,0,0,0,3.586-4.522Zm4.929,4.03s0,.288-.012.408c-.18,3.706-.36,5.073-.768,5.517a1.149,1.149,0,0,1-.9.4,18.559,18.559,0,0,1-1.907-.036,1.777,1.777,0,0,0-.264-.78c.8.072,1.571.084,1.847.084.252,0,.384-.024.5-.156.312-.3.491-1.523.648-4.653h-3.215c-.323,2.386-1.091,4.569-4.137,5.66a4.343,4.343,0,0,0-.5-.683c2.842-.935,3.514-2.9,3.79-4.977H153.77v-.78Zm-1.655-4.294a12.209,12.209,0,0,0,3.61,4.342,4.122,4.122,0,0,0-.66.708,15.54,15.54,0,0,1-3.706-4.738Z"/><path class="cls-5" d="M168.792,158.979c-.036.672-.1,1.367-.191,2.051h4.809s-.013.264-.024.4c-.24,3.443-.48,4.762-.948,5.23a1.261,1.261,0,0,1-.971.384c-.407.024-1.2,0-2-.049a1.986,1.986,0,0,0-.276-.767c.864.084,1.715.084,2,.084s.432-.012.564-.132c.372-.336.6-1.511.815-4.4h-4.09a6.81,6.81,0,0,1-3.813,5.313,2.792,2.792,0,0,0-.564-.636c3.334-1.511,3.694-4.677,3.838-7.472h-3.73v-.767h4.869V156.1h.8v2.111h4.966v.767Z"/><path class="cls-5" d="M180.1,163.333a17.822,17.822,0,0,0-1.175-1.535v5.229h-.756v-5.494a12.745,12.745,0,0,1-1.823,3.287,3.8,3.8,0,0,0-.407-.708,12.623,12.623,0,0,0,2.11-3.874h-1.883V159.5h2v-1.919c-.611.119-1.235.228-1.812.324a3.388,3.388,0,0,0-.25-.624,18.633,18.633,0,0,0,3.813-.959l.563.611a12.071,12.071,0,0,1-1.558.48V159.5h1.558v.743h-1.558v.792c.359.311,1.415,1.391,1.654,1.679Zm6.932,2.674v.72h-6.944v-.72h3.19v-1.655H180.9v-.7h2.375v-1.511h-2.65v-.707h6.141v.707h-2.7v1.511h2.448v.7h-2.448v1.655Zm-.683-5.673H181.08V156.64h5.266Zm-.781-3h-3.741v2.3h3.741Z"/><path class="cls-5" d="M195.275,159.171c.3,4.149,1.284,7.088,2.531,7.088.336,0,.479-.66.563-2.279a2.254,2.254,0,0,0,.7.432c-.144,2.063-.444,2.675-1.319,2.675-1.932,0-2.963-3.443-3.286-7.916h-6.237v-.78h6.188c-.048-.719-.059-1.463-.071-2.206h.839c0,.755.012,1.5.049,2.206h3.609v.78Zm-3.646,6.044c.851-.179,1.751-.371,2.615-.563l.071.708c-2.039.479-4.257.995-5.78,1.331l-.252-.768c.671-.132,1.571-.324,2.555-.527v-3.6h-2.195v-.768h5.277v.768h-2.291Zm6.117-7.016a9.915,9.915,0,0,0-1.739-1.523l.54-.443a10.9,10.9,0,0,1,1.763,1.462Z"/><path class="cls-5" d="M205.884,166.487l-.491-.792a9.434,9.434,0,0,0,1.018-.144,3.7,3.7,0,0,0,3.107-3.634,3.431,3.431,0,0,0-3.334-3.538,23.657,23.657,0,0,1-.72,3.5c-.732,2.471-1.679,3.694-2.746,3.694-1.02,0-2.087-1.175-2.087-3.154a5.067,5.067,0,0,1,5.193-4.821,4.31,4.31,0,0,1,4.558,4.353C210.382,164.472,208.7,166.127,205.884,166.487Zm-3.13-1.883c.563,0,1.247-.8,1.871-2.914a18.279,18.279,0,0,0,.671-3.3,4.273,4.273,0,0,0-3.838,3.97C201.458,163.92,202.189,164.6,202.754,164.6Z"/><path class="cls-5" d="M213.387,163.033a10.307,10.307,0,0,1-.865,3.034,3.081,3.081,0,0,0-.635-.3,8.653,8.653,0,0,0,.8-2.866Zm1.4-.972v5.026h-.719V162.1l-1.991.108-.059-.731.767-.025c.276-.335.564-.719.852-1.127a10.654,10.654,0,0,0-1.6-1.739l.408-.515c.119.107.252.215.371.323a14.971,14.971,0,0,0,1.1-2.255l.708.276a22,22,0,0,1-1.367,2.411,8.356,8.356,0,0,1,.779.888,25.388,25.388,0,0,0,1.331-2.231l.684.312a36.7,36.7,0,0,1-2.519,3.633l2.051-.084a12.4,12.4,0,0,0-.623-1.115l.6-.252a10.108,10.108,0,0,1,1.211,2.423l-.635.3a7.465,7.465,0,0,0-.252-.708Zm1.1.792a9.96,9.96,0,0,1,.816,2.315l-.648.215a10.314,10.314,0,0,0-.768-2.326Zm7.184,3.118v.732H216.1v-.732h1.3V156.82h4.737v9.151Zm-4.917-8.431v2.3h3.178v-2.3Zm3.178,3.022H218.16v2.3h3.178Zm-3.178,5.409h3.178V163.6H218.16Z"/><path class="cls-5" d="M227.113,157.444c.624,0,2.243-.084,2.746-.132a2.358,2.358,0,0,0,.552-.108l.54.432a3.379,3.379,0,0,0-.3.384c-.336.539-.887,1.8-1.391,2.938a10.169,10.169,0,0,1,3.406,1c.048-.336.084-.659.108-.983a7.77,7.77,0,0,0,.012-1.068l.863.1a17.78,17.78,0,0,1-.252,2.339,15,15,0,0,1,1.476.948l-.395.911a11.723,11.723,0,0,0-1.3-.971A5.639,5.639,0,0,1,230,166.847l-.695-.588a5.171,5.171,0,0,0,3.166-3.466,8.913,8.913,0,0,0-3.55-1.1,24.922,24.922,0,0,1-1.535,3.178,1.632,1.632,0,0,1-1.44.791,1.481,1.481,0,0,1-1.512-1.583c0-1.763,1.632-3.106,3.97-3.154.445-.983.924-2.063,1.3-2.831-.479.024-2.015.1-2.566.121-.265.011-.588.047-.876.071l-.036-.875C226.525,157.432,226.861,157.444,227.113,157.444Zm-1.139,7.376a.888.888,0,0,0,.744-.432,14.958,14.958,0,0,0,1.355-2.711c-1.823.121-2.854,1.2-2.854,2.291A.772.772,0,0,0,225.974,164.82Z"/><path class="cls-5" d="M241.848,156.16a14.545,14.545,0,0,0,5.289,4.318,4.09,4.09,0,0,0-.516.684,16.62,16.62,0,0,1-5.121-4.21,15.345,15.345,0,0,1-5,4.294,3.894,3.894,0,0,0-.5-.636,13.657,13.657,0,0,0,5.062-4.45Zm-3.922,6.141h7.244v4.749h-.8v-.491h-5.66v.491h-.78Zm6.621-2.267v.72h-6.022v-.72Zm-5.841,2.987v2.818h5.66v-2.818Z"/><path class="cls-5" d="M251.041,156.664l1.02.036c-.06.288-.156.972-.252,1.835.036-.012.072-.012.1-.024l.324.372c-.144.216-.348.552-.528.84-.024.275-.048.575-.06.863a6.084,6.084,0,0,1,3.874-1.571,3,3,0,0,1,3.118,3c.013,2.411-1.8,3.634-4.341,4.126l-.4-.8c2.015-.288,3.9-1.248,3.885-3.347a2.258,2.258,0,0,0-2.386-2.194,5.6,5.6,0,0,0-3.814,1.763c-.036.527-.048,1.031-.048,1.475,0,1.115,0,1.8.048,2.854.012.2.036.48.06.7h-.935c.012-.156.035-.48.035-.672.013-1.163.013-1.727.025-3.01,0-.168.011-.408.023-.7-.587.888-1.427,2.087-2.038,2.939l-.54-.732c.672-.84,2.075-2.759,2.662-3.694.036-.408.061-.828.084-1.223-.527.06-1.606.2-2.362.324l-.1-.9c.252.012.468,0,.743-.012.384-.024,1.14-.108,1.764-.2.048-.588.071-1.043.071-1.175A5.2,5.2,0,0,0,251.041,156.664Z"/><path class="cls-5" d="M268.3,157.768c-.013.563-.013,1.2-.024,1.751.515-.048.983-.072,1.4-.1.311-.024.624-.036.888-.06v.852c-.168-.013-.6,0-.9,0-.372.011-.864.035-1.416.071a18.255,18.255,0,0,1-.167,2.519c-.108.515-.36.672-.9.672a11.028,11.028,0,0,1-1.547-.168l.024-.744a6.309,6.309,0,0,0,1.211.156c.312,0,.432-.048.48-.324.06-.408.108-1.283.132-2.063-1.259.1-2.722.24-3.946.36-.012,1.259-.012,2.542,0,3,.048,1.319.048,1.8,2.171,1.8a24.442,24.442,0,0,0,3.574-.263l-.036.887a33.608,33.608,0,0,1-3.49.2c-2.723,0-2.963-.636-3.023-2.507-.011-.515-.011-1.811-.011-3.034-.564.06-1.044.12-1.367.156-.372.048-.84.12-1.176.168l-.084-.887a10.347,10.347,0,0,0,1.2-.073c.313-.024.815-.072,1.428-.132.011-.851.011-1.547.011-1.739a6.531,6.531,0,0,0-.059-.959h.923c-.024.252-.036.575-.036.924,0,.419-.012,1.031-.012,1.7,1.187-.12,2.627-.252,3.946-.36V157.8a6.414,6.414,0,0,0-.06-.876h.912C268.318,157.132,268.3,157.516,268.3,157.768Z"/><path class="cls-5" d="M273.542,158.259c.744-.084,3.059-.323,5.266-.5,1.319-.108,2.41-.18,3.2-.2l.011.851a9.339,9.339,0,0,0-2.35.192,4.311,4.311,0,0,0-2.8,3.874c0,2.411,2.243,3.166,4.187,3.238l-.313.864c-2.171-.072-4.726-1.224-4.726-3.91a4.9,4.9,0,0,1,2.328-4.114c-1.32.144-4.474.444-5.757.708l-.109-.936C272.942,158.307,273.314,158.283,273.542,158.259Zm7.736,3.347-.564.263a10.812,10.812,0,0,0-.984-1.7l.552-.24A15.011,15.011,0,0,1,281.278,161.606Zm1.355-.516-.564.276a11.743,11.743,0,0,0-1.019-1.679l.54-.264A14.879,14.879,0,0,1,282.633,161.09Z"/><path class="cls-5" d="M288.744,158.775h-4.7v-.647h4.7Zm-.479,7.58H285.3v.576H284.6v-4.018h3.67Zm-3.659-6.632H288.3v.647h-3.695Zm0,1.595H288.3v.647h-3.695ZM288.3,157.2h-3.634v-.648H288.3Zm-3,6.381v2.122h2.242v-2.122Zm9.81-2.579h-2.722v6.044h-.8v-6.044h-2.843v-.78h2.843V156.16h.8v4.066h2.722Z"/><path class="cls-5" d="M306.85,165.024h-2.771v2.015h-.8v-2.015h-3.322c-.3.743-1.092,1.475-3.011,2.05a2.964,2.964,0,0,0-.5-.6,4.13,4.13,0,0,0,2.616-1.451h-2.819v-.672h3.082c.012-.12.024-.252.024-.348v-.755H297.7v-4.414h1.343a7.258,7.258,0,0,0-.623-1.127h-.684a8.638,8.638,0,0,1-1.08,1.307,4.326,4.326,0,0,0-.647-.444,6.6,6.6,0,0,0,1.751-2.482l.744.191c-.108.264-.24.516-.372.768h3.25v.66h-2.135a5.131,5.131,0,0,1,.492.875l-.66.252h2.351a5.3,5.3,0,0,0-.659-.384,5.666,5.666,0,0,0,1.655-2.362l.755.167a6.609,6.609,0,0,1-.348.792h3.91v.66h-2.387a5.934,5.934,0,0,1,.612.839l-.623.288h1.222v4.414h-1.486v1.1h2.771Zm-8.361-4.906h6.261v-.731h-6.261Zm0,1.272h6.261v-.732h-6.261Zm0,1.307h6.261v-.768h-6.261Zm4.786,1.655v-1.1h-3.13v.779a3.148,3.148,0,0,1-.012.324Zm-.839-6.644a6.554,6.554,0,0,1-.959,1.127h2.805a5.913,5.913,0,0,0-.815-1.127Z"/><line class="cls-6" x1="274.651" y1="114.358" x2="273.651" y2="114.358"/><line class="cls-7" x1="271.735" y1="114.358" x2="257.371" y2="114.358"/><polyline class="cls-6" points="256.413 114.358 255.413 114.358 255.413 113.358"/><line class="cls-8" x1="255.413" y1="111.245" x2="255.413" y2="95.396"/><polyline class="cls-6" points="255.413 94.339 255.413 93.339 254.413 93.339"/><line class="cls-9" x1="252.493" y1="93.339" x2="230.408" y2="93.339"/><polyline class="cls-6" points="229.448 93.339 228.448 93.339 228.448 94.339"/><line class="cls-8" x1="228.448" y1="96.452" x2="228.448" y2="112.301"/><polyline class="cls-6" points="228.448 113.358 228.448 114.358 227.448 114.358"/><line class="cls-9" x1="225.527" y1="114.358" x2="203.443" y2="114.358"/><polyline class="cls-6" points="202.483 114.358 201.483 114.358 201.483 113.358"/><line class="cls-8" x1="201.483" y1="111.245" x2="201.483" y2="95.396"/><polyline class="cls-6" points="201.483 94.339 201.483 93.339 200.483 93.339"/><line class="cls-10" x1="198.562" y1="93.339" x2="176.478" y2="93.339"/><polyline class="cls-6" points="175.517 93.339 174.517 93.339 174.517 94.339"/><line class="cls-8" x1="174.517" y1="96.452" x2="174.517" y2="112.301"/><polyline class="cls-6" points="174.517 113.358 174.517 114.358 173.517 114.358"/><line class="cls-9" x1="171.597" y1="114.358" x2="149.512" y2="114.358"/><polyline class="cls-6" points="148.552 114.358 147.552 114.358 147.552 113.358"/><line class="cls-8" x1="147.552" y1="111.245" x2="147.552" y2="95.396"/><polyline class="cls-6" points="147.552 94.339 147.552 93.339 146.552 93.339"/><line class="cls-9" x1="144.632" y1="93.339" x2="122.547" y2="93.339"/><polyline class="cls-6" points="121.587 93.339 120.587 93.339 120.587 94.339"/><line class="cls-8" x1="120.587" y1="96.452" x2="120.587" y2="112.301"/><polyline class="cls-6" points="120.587 113.358 120.587 114.358 119.587 114.358"/><line class="cls-11" x1="117.442" y1="114.358" x2="109.933" y2="114.358"/><line class="cls-6" x1="108.861" y1="114.358" x2="107.861" y2="114.358"/><path class="cls-5" d="M33.489,74.613V85.024h-.84v-.636H24.374v.636h-.8V74.613Zm-.84,9.019V75.417H24.374v8.215Zm-1.858-6.26v4.293H26.209V77.372ZM30,78.079H26.964v2.866H30Z"/><path class="cls-5" d="M37.621,80.5v3.574c0,.468-.108.683-.4.815a4.567,4.567,0,0,1-1.56.133,3.246,3.246,0,0,0-.251-.72c.563.012,1.055.012,1.21.012s.217-.06.217-.228V80.742c-.612.18-1.188.36-1.679.515l-.24-.779c.527-.132,1.2-.324,1.919-.54V77.3H35.1v-.743h1.739V74.121h.779v2.435h1.416V77.3H37.621V79.71l1.427-.432.108.744Zm8.4-1.583H43.942v6.092h-.78V78.919H40.68c-.013,1.835-.241,4.294-1.824,6.045a2.18,2.18,0,0,0-.587-.564c1.463-1.607,1.619-3.814,1.619-5.577v-3.79l.767.156a28.581,28.581,0,0,0,4.27-.912l.588.636a29.367,29.367,0,0,1-4.833.948v2.29h5.337Z"/><path class="cls-5" d="M57.105,75.609a8.714,8.714,0,0,1-1.955,3.142,8.578,8.578,0,0,0,3.035,1.643,3.358,3.358,0,0,0-.492.659c-.216-.071-.42-.155-.624-.239V85h-.756v-.5h-3.49v.552H52.08V80.922c-.324.144-.66.288-1,.407a2.054,2.054,0,0,0-.456-.647,9.745,9.745,0,0,0,3.455-1.943,8.638,8.638,0,0,1-1.308-1.775A10.308,10.308,0,0,1,51.54,78.3a5.713,5.713,0,0,0-.636-.528c.133-.108.264-.216.4-.335H49.789v.611c.348.384,1.3,1.547,1.523,1.835l-.492.624c-.192-.348-.647-1.019-1.031-1.547v6.056h-.768V79.159a13.055,13.055,0,0,1-1.667,3.6,5.227,5.227,0,0,0-.431-.695,13.439,13.439,0,0,0,2.015-4.629H47.2V76.7h1.822V74.11h.768V76.7h1.583v.66A9.009,9.009,0,0,0,53.519,74.1l.768.2c-.156.372-.324.744-.516,1.1h2.7l.144-.036Zm-.324,5.073a9.4,9.4,0,0,1-2.158-1.427,10.878,10.878,0,0,1-2.076,1.427Zm-.468,3.106v-2.41h-3.49v2.41ZM53.219,76.34a7.578,7.578,0,0,0,1.391,1.907A8.011,8.011,0,0,0,56.1,76.112H53.363Z"/><path class="cls-5" d="M69.933,80.25H64.956v3.73c0,.564-.144.8-.577.936a9.907,9.907,0,0,1-2.35.143,3.364,3.364,0,0,0-.336-.815c.984.036,1.871.036,2.123.024s.336-.072.336-.3V80.25h-5v-.78h5V77.54h.492a15,15,0,0,0,2.662-1.8H60.374v-.779h7.76l.192-.036.587.444a17.877,17.877,0,0,1-3.957,2.842V79.47h4.977Z"/></svg>