<svg id="レイヤー_1" data-name="レイヤー 1" xmlns="http://www.w3.org/2000/svg" viewBox="0 0 376 200"><defs><style>.cls-1{fill:#b7b7b7;}.cls-2,.cls-3{fill:none;stroke-miterlimit:10;}.cls-2{stroke:#121212;}.cls-3{stroke:#000;}.cls-4{fill:#333;}.cls-5{fill:red;}</style></defs><polygon class="cls-1" points="3.148 112.035 7.968 104.341 18.376 121.05 22.816 113.123 34.028 129.305 38.047 121.163 50.09 136.734 53.687 128.397 66.513 143.338 69.677 134.825 83.248 149.087 85.971 140.427 100.257 153.972 102.534 145.18 117.494 157.981 119.339 149.082 134.905 161.138 136.283 152.165 152.459 163.385 153.377 154.352 170.107 164.738 170.563 155.665 187.798 165.179 187.798 156.099 205.489 164.737 205.026 155.668 223.135 163.393 222.227 154.352 240.692 161.183 239.316 152.209 258.112 158.061 256.279 149.17 275.353 154.058 273.065 145.269 292.361 149.174 289.627 140.517 309.097 143.425 305.924 134.919 325.52 136.829 321.93 128.481 341.595 129.433 337.58 121.293 357.266 121.212 352.839 113.285 372.501 112.203 367.673 104.509 376 103.622 376 200 0 200 0 106.355 3.148 112.035"/><polyline class="cls-2" points="0 106.355 3.148 112.035 7.968 104.341 18.376 121.05 22.816 113.123 34.028 129.305 38.047 121.163 50.09 136.734 53.687 128.397 66.513 143.338 69.677 134.825 83.248 149.087 85.971 140.427 100.257 153.972 102.534 145.18 117.494 157.981 119.339 149.082 134.905 161.138 136.283 152.165 152.459 163.385 153.377 154.352 170.107 164.738 170.563 155.665 187.798 165.179 187.798 156.099 205.489 164.737 205.026 155.668 223.135 163.393 222.227 154.352 240.692 161.183 239.316 152.209 258.112 158.061 256.279 149.17 275.353 154.058 273.065 145.269 292.361 149.174 289.627 140.517 309.097 143.425 305.924 134.919 325.52 136.829 321.93 128.481 341.595 129.433 337.58 121.293 357.266 121.212 352.839 113.285 372.501 112.203 367.673 104.509 376 103.622"/><line class="cls-3" x1="94.709" y1="22.681" x2="143.966" y2="71.938"/><polygon points="140.51 72.591 150.23 78.202 144.619 68.482 140.51 72.591"/><line class="cls-3" x1="207.514" y1="95.094" x2="273.662" y2="28.945"/><polygon points="274.315 32.401 279.926 22.681 270.206 28.292 274.315 32.401"/><line class="cls-3" x1="235.782" y1="91.654" x2="286.115" y2="67.107"/><polygon points="285.608 70.587 294.078 63.224 283.061 65.364 285.608 70.587"/><line class="cls-3" x1="204.354" y1="77.439" x2="222.616" y2="36.868"/><polygon points="224.452 39.867 226.252 28.789 219.153 37.482 224.452 39.867"/><path class="cls-4" d="M70.75,37.569a10.316,10.316,0,0,0,5.025,9.474,4.218,4.218,0,0,0-.636.672A10.394,10.394,0,0,1,70.306,40.9a10.7,10.7,0,0,1-4.869,6.824,5.3,5.3,0,0,0-.708-.636C67.4,45.7,68.9,43.266,69.646,39.859l.468.072c-.084-.576-.132-1.1-.156-1.571H66.984v-.791Z"/><path class="cls-4" d="M82.282,42.054c-.168.312-.36.612-.552.9v3.837c0,.457-.12.7-.419.828a5.79,5.79,0,0,1-1.7.132,2.743,2.743,0,0,0-.263-.72c.647.012,1.223.012,1.415,0,.168-.012.228-.059.228-.24V43.937a13.637,13.637,0,0,1-3.874,3.143,4.946,4.946,0,0,0-.552-.588,12,12,0,0,0,3.49-2.579c-1.151.18-2.279.336-3.178.468l-.108-.732c.3-.036.636-.072,1.007-.12V38.18H78.96a10.944,10.944,0,0,0,.443-1.355l.888.144c-.168.42-.348.851-.528,1.211H81.73v3.694Zm-3.79-3.226v1.079h2.495V38.828Zm2.495,1.691H78.492V41.61h2.495Zm-2.495,2.926c.7-.095,1.451-.192,2.207-.3l.288-.4v-.516H78.492Zm9.2-2.914H86.372V46.7c0,.527-.156.767-.492.9a6.073,6.073,0,0,1-1.919.144,4.3,4.3,0,0,0-.3-.756c.756.024,1.44.024,1.631.013s.3-.073.3-.289V40.531H82.2v-.743h3.394v-2.9h.78v2.9h1.319Zm-3.682,4.33a10.357,10.357,0,0,0-1.2-2.771l.683-.264a10.069,10.069,0,0,1,1.248,2.735Z"/><path class="cls-4" d="M90.852,42.03a11.823,11.823,0,0,0-2.1-1.3l.444-.588a12.552,12.552,0,0,1,2.111,1.224Zm.768,1.7c-.54,1.26-1.26,2.759-1.871,3.862l-.7-.48a36.882,36.882,0,0,0,1.955-3.862Zm-.181-4.821a11.065,11.065,0,0,0-2.05-1.392l.467-.563a11.05,11.05,0,0,1,2.051,1.319Zm7.34,2.806a8.632,8.632,0,0,1-2.074,3.79,7.905,7.905,0,0,0,3.082,1.572,2.9,2.9,0,0,0-.516.683,8.551,8.551,0,0,1-3.118-1.7,9.469,9.469,0,0,1-3.022,1.727,2.819,2.819,0,0,0-.516-.66A9.034,9.034,0,0,0,95.6,45.5a9.114,9.114,0,0,1-1.943-3.25h-.395A9.643,9.643,0,0,1,91.7,47.763a2.192,2.192,0,0,0-.66-.408c1.319-1.667,1.463-4.029,1.463-5.756V38.588h2.914V36.825h.78v1.763h2.746l.144-.036.564.168a16.483,16.483,0,0,1-1.019,2.387l-.684-.228a13.179,13.179,0,0,0,.648-1.547H96.2v2.183h1.943l.144-.024Zm-5.5-2.386v2.183h2.147V39.332ZM94.4,42.246a7.883,7.883,0,0,0,1.739,2.747A6.951,6.951,0,0,0,97.8,42.246Z"/><path class="cls-5" d="M289.82,37.245V47.8h-1.2v-.648h-7.664V47.8h-1.151V37.245Zm-1.2,8.863V38.384h-7.664v7.724Zm-1.487-6.081v4.4h-4.726v-4.4Zm-1.115.984h-2.555v2.446h2.555Z"/><path class="cls-5" d="M294.072,43.313V46.54c0,.575-.12.875-.479,1.055a4.222,4.222,0,0,1-1.679.18,3.817,3.817,0,0,0-.312-1.02c.5.025,1,.025,1.151.013s.228-.048.228-.228V43.625l-1.523.432-.276-1.091c.5-.108,1.128-.264,1.8-.444V40.147h-1.619V39.116h1.619V36.789h1.091v2.327h1.283v1.031h-1.283v2.075c.432-.12.876-.24,1.308-.372l.143,1.044Zm8.24-1.463h-1.859v5.937h-1.1V41.85h-2.076c-.023,1.811-.287,4.246-1.846,5.889a2.535,2.535,0,0,0-.816-.78c1.4-1.546,1.547-3.706,1.547-5.409V37.688l1.031.157a23.407,23.407,0,0,0,3.9-.96l.839.887a25.378,25.378,0,0,1-4.654,1.008v2h5.038Z"/><path class="cls-5" d="M305.389,42.174a13.05,13.05,0,0,0-2.123-1.259l.624-.828a14.838,14.838,0,0,1,2.146,1.163Zm.96,1.667c-.529,1.247-1.212,2.687-1.824,3.814l-.983-.672a35.848,35.848,0,0,0,1.955-3.814ZM306,39.032a13.972,13.972,0,0,0-2.063-1.331l.635-.8a14.618,14.618,0,0,1,2.087,1.235Zm7.5,2.626a9.047,9.047,0,0,1-1.931,3.79,7.694,7.694,0,0,0,2.807,1.391,3.728,3.728,0,0,0-.72.96,8.438,8.438,0,0,1-2.866-1.583,8.57,8.57,0,0,1-2.723,1.607,4.37,4.37,0,0,0-.708-.935,8.18,8.18,0,0,0,2.675-1.428,9.715,9.715,0,0,1-1.8-3.082h-.12a10.02,10.02,0,0,1-1.487,5.409,3.746,3.746,0,0,0-.947-.552c1.26-1.667,1.379-4.042,1.379-5.769V38.444h2.818V36.789h1.092v1.655h2.327l.191-.036.8.2a16.409,16.409,0,0,1-1,2.459l-.948-.276c.156-.348.336-.828.5-1.307h-1.883v1.906h1.619l.216-.047Zm-5.373-2.17v1.906h1.751V39.488Zm1.164,2.89a7.762,7.762,0,0,0,1.487,2.339,7.054,7.054,0,0,0,1.368-2.339Z"/><path class="cls-5" d="M320.147,38.6a27.668,27.668,0,0,0,3.527-.348v1.116a37.081,37.081,0,0,1-3.946.312,9.661,9.661,0,0,1-.924,1.583,3.52,3.52,0,0,1,1.535-.36,1.577,1.577,0,0,1,1.607,1.019c.744-.347,1.356-.6,1.919-.863.408-.18.756-.336,1.14-.528l.491,1.1c-.348.108-.863.3-1.223.444-.612.24-1.391.552-2.231.936.013.683.024,1.643.036,2.218h-1.14c.025-.42.037-1.1.049-1.691-1.032.564-1.679,1.116-1.679,1.823,0,.816.78.984,1.991.984a20.41,20.41,0,0,0,3.334-.312l-.036,1.212a30.8,30.8,0,0,1-3.334.215c-1.787,0-3.178-.42-3.178-1.907s1.438-2.411,2.83-3.118a.965.965,0,0,0-.983-.6,3.059,3.059,0,0,0-1.992.864,13.034,13.034,0,0,0-1.09,1.283l-1.033-.767a12.049,12.049,0,0,0,2.711-3.5h-.347c-.5,0-1.331-.024-2-.071V38.516a15.482,15.482,0,0,0,2.062.132c.229,0,.468,0,.708-.012a5.968,5.968,0,0,0,.276-1.427l1.248.1C320.4,37.641,320.3,38.084,320.147,38.6Z"/><path class="cls-5" d="M332.075,39.656H327.29v-.888h4.785Zm-.491,7.483h-2.771v.5h-.983v-4.03h3.754Zm-3.73-6.74h3.766v.864h-3.766Zm0,1.595h3.766v.876h-3.766Zm3.778-3.933h-3.706v-.876h3.706Zm-2.819,6.452V46.24h1.775V44.513Zm9.619-2.591h-2.59v5.865h-1.128V41.922h-2.675v-1.1h2.675V36.825h1.128v3.994h2.59Z"/><path class="cls-5" d="M350.156,45.82h-2.638v1.967h-1.152V45.82h-2.974c-.312.756-1.127,1.475-3.01,1.991a4.121,4.121,0,0,0-.708-.828A4.163,4.163,0,0,0,342.1,45.82h-2.591v-.9h2.938v-.911h-1.535V39.523h1.26a6.828,6.828,0,0,0-.528-1h-.468a7.834,7.834,0,0,1-1.056,1.236,6.134,6.134,0,0,0-.9-.624,6.58,6.58,0,0,0,1.8-2.411l1.031.276c-.1.216-.2.408-.313.623h2.9V38.5a5.463,5.463,0,0,0,1.091-1.775l1.08.24a6.423,6.423,0,0,1-.3.659h3.574v.9h-2.039a6.752,6.752,0,0,1,.48.66l-.732.335h1.151v4.486h-1.426v.911h2.638Zm-8.12-5.025h5.734v-.564h-5.734Zm0,1.247h5.734v-.587h-5.734Zm0,1.271h5.734v-.6h-5.734Zm.744-4.785a6.387,6.387,0,0,1,.4.72l-.756.275h2.5a6.239,6.239,0,0,0-.863-.467,2.945,2.945,0,0,0,.563-.528Zm3.586,6.392v-.911h-2.795v.911Zm-.408-6.392a5.831,5.831,0,0,1-.839,1h2.4a6.719,6.719,0,0,0-.72-1Z"/><path class="cls-4" d="M35.421,56.5l.648.348a7.472,7.472,0,0,0,0,10.7l-.648.348a7.992,7.992,0,0,1,0-11.394Z"/><path class="cls-4" d="M38.126,62.869c.576-.588,1.643-1.943,2.375-2.819.636-.743,1.163-.875,1.967-.12.72.684,1.763,1.775,2.458,2.519.816.851,2,2.158,2.927,3.142l-.732.78c-.863-1.044-1.931-2.267-2.71-3.143-.7-.779-1.811-1.979-2.339-2.482-.468-.456-.7-.42-1.115.1-.6.719-1.631,2.051-2.183,2.722-.24.288-.492.648-.672.888l-.8-.816C37.6,63.384,37.814,63.18,38.126,62.869Zm7.88-2.315-.636.288a13,13,0,0,0-1.115-1.919l.623-.264A17.975,17.975,0,0,1,46.006,60.554Zm1.571-.636-.624.312A15.476,15.476,0,0,0,45.8,58.335l.6-.288A16.786,16.786,0,0,1,47.577,59.918Z"/><path class="cls-4" d="M54.492,58.335c-.1.192-.2.384-.324.588h3.394a2.031,2.031,0,0,0,.744-.108l.719.432a3.748,3.748,0,0,0-.264.6A11.662,11.662,0,0,1,56.639,64a10.6,10.6,0,0,1-4.774,3.25l-.767-.707a9.679,9.679,0,0,0,4.785-3.011,10.224,10.224,0,0,0,1.955-3.838H53.664a11.616,11.616,0,0,1-3.046,2.963l-.744-.552a9.9,9.9,0,0,0,3.778-4.078,4.831,4.831,0,0,0,.348-.9l.983.324C54.8,57.735,54.612,58.119,54.492,58.335Z"/><path class="cls-4" d="M64.717,58.719a8.582,8.582,0,0,0-.084-1.212h1.055a10.649,10.649,0,0,0-.084,1.212v2a39.1,39.1,0,0,1,5.146,1.99l-.373.9A32.178,32.178,0,0,0,65.6,61.657c.012,1.847.012,3.73.012,4.054,0,.384.024,1,.06,1.379H64.645a9.981,9.981,0,0,0,.072-1.379Z"/><path class="cls-4" d="M75.565,63.5a21.085,21.085,0,0,0,.36-4.845,4.168,4.168,0,0,0-.072-.828h.983c-.011.156-.059.492-.059.828a25.325,25.325,0,0,1-.372,5.085,6.584,6.584,0,0,1-2.123,3.262l-.8-.539A5.7,5.7,0,0,0,75.565,63.5Zm3.466,2.363v-7.22a6.77,6.77,0,0,0-.059-.864h.983a7.687,7.687,0,0,0-.048.864v7.04a9.391,9.391,0,0,0,3.6-3.022l.5.719a11.938,11.938,0,0,1-4.09,3.334,1.848,1.848,0,0,0-.4.264l-.564-.48A3.219,3.219,0,0,0,79.031,65.867Z"/><path class="cls-4" d="M90.2,59.27H86.33v1.715h-.707v-2.3H90.2v-.792H86.282v-.635h8.683v.635H90.972v.792h4.677v2.3h-.744V59.27H90.972v2.783H90.2ZM94.582,66.9c.647,0,.755-.215.827-1.451a2.227,2.227,0,0,0,.695.276c-.119,1.451-.383,1.811-1.475,1.811H91.811c-1.271,0-1.631-.2-1.631-1.14v-.419h-2.8v.635H86.63V62.473h8.059v3.5H90.923v.432c0,.407.157.491.924.491Zm-7.82-5.709h2.794v.528H86.762Zm2.794-.7H86.99v-.528h2.566Zm-2.171,2.578v.876h2.8v-.876Zm2.8,2.3V64.5h-2.8v.876Zm3.718-2.3H90.923v.876H93.9Zm0,2.3V64.5H90.923v.876Zm.36-5.409v.528H91.643v-.528Zm-2.615,1.223h2.9v.528h-2.9Z"/><path class="cls-4" d="M98.75,66.263V67.2h-.684v-3.97a8.713,8.713,0,0,1-.551,1.044,7.984,7.984,0,0,0-.48-.672,13.918,13.918,0,0,0,1.559-5.325H97.2v-.719h3.958v.719H99.337a27.5,27.5,0,0,1-.551,2.83h2.11v5.158Zm1.463-4.45H98.75v3.742h1.463Zm7.4,5.757c-.036-.216-.1-.468-.168-.732-1.007.144-2,.312-2.819.432L104.6,67.2l-.624.264q-.036-.288-.108-.648c-1.116.168-2.219.324-3.094.444l-.156-.719c.192-.013.4-.037.611-.061.4-.635.84-1.427,1.26-2.254a10.44,10.44,0,0,0-1.523-1.979l.384-.564c.084.084.179.18.263.276a16.308,16.308,0,0,0,.936-2.363l.731.2c-.36.864-.827,1.919-1.223,2.651a10.106,10.106,0,0,1,.779,1.055c.36-.732.684-1.463.924-2.1l.672.252A50.382,50.382,0,0,1,102,66.383c.54-.06,1.115-.133,1.7-.217a13.474,13.474,0,0,0-.492-1.486l.588-.228a13.861,13.861,0,0,1,.7,2.1h.06c.395-.611.839-1.4,1.271-2.23a10.038,10.038,0,0,0-1.475-1.979l.383-.54c.084.084.157.168.241.252a17.35,17.35,0,0,0,.935-2.447l.732.2c-.372.888-.828,1.979-1.236,2.735a11.577,11.577,0,0,1,.78,1.043c.359-.743.695-1.487.947-2.135l.672.24a45.344,45.344,0,0,1-2.471,4.749l1.907-.251a13.766,13.766,0,0,0-.623-1.535l.6-.252a11.3,11.3,0,0,1,1.032,2.878Zm-4.761-8.791A7.185,7.185,0,0,0,102,57.052l.647-.24a6.731,6.731,0,0,1,.936,1.859l-.264.108h2.339l-.144-.048a13.766,13.766,0,0,0,.84-1.943l.791.24c-.276.587-.611,1.259-.9,1.751H108.1v.7h-7.04v-.7Z"/><path class="cls-4" d="M116.255,61.861A8.481,8.481,0,0,0,120.1,64a3.7,3.7,0,0,0-.539.684,8.827,8.827,0,0,1-4.222-2.819h-1.355a9.684,9.684,0,0,1-4.234,2.866,3.029,3.029,0,0,0-.527-.659,9.106,9.106,0,0,0,3.814-2.207h-2.483V57.123H118.7v4.738ZM112.417,63.5h.8v.708c0,1.151-.276,2.578-2.578,3.514a3.376,3.376,0,0,0-.552-.624c2.123-.815,2.327-2,2.327-2.914ZM111.35,59.15H114.2V57.807H111.35Zm0,2.027H114.2V59.8H111.35Zm6.524-3.37h-2.867V59.15h2.867Zm0,1.991h-2.867v1.379h2.867Zm-1.643,3.694h.815v4.15h-.815Z"/><path class="cls-4" d="M121.826,67.894l-.647-.348a7.472,7.472,0,0,0,0-10.7l.647-.348a7.992,7.992,0,0,1,0,11.394Z"/><path class="cls-4" d="M66.31,176.405v9.571h-.779v-.9h-7.9v.947h-.755v-9.618h3.7v4.125h1.991v-4.125Zm-.779,7.915v-7.148H63.324v4.114H59.8v-4.114H57.627v7.148Z"/><path class="cls-4" d="M73.92,176.9c-.143.528-.323,1.1-.491,1.583h4.857v7.772h-.8v-.635H69.675v.635H68.9v-7.772h3.717A15.982,15.982,0,0,0,73,176.9H68.355v-.755H78.874v.755Zm-4.245,7.976h1.8v-5.649h-1.8Zm5.193-5.649H72.206v1.4h2.662Zm0,2.063H72.206v1.439h2.662Zm-2.662,3.586h2.662v-1.487H72.206Zm5.277-5.649H75.6v5.649h1.883Z"/><path class="cls-4" d="M84.805,184.884c-1.571.348-3.226.7-4.45.971l-.167-.743c.563-.1,1.259-.228,2.027-.384V181H80.308V180.3h1.907v-1.344H80.943v-.551c-.168.179-.347.347-.539.515a2.806,2.806,0,0,0-.5-.491,8.612,8.612,0,0,0,2.279-3.107h.731a15.3,15.3,0,0,1,2.051,2.123l-.54.6a12.8,12.8,0,0,0-1.775-2,10.893,10.893,0,0,1-1.583,2.231h3.214v.683H82.922V180.3h1.751V181H82.922v3.586c.6-.12,1.224-.24,1.835-.372Zm-3.646-3.2a10.418,10.418,0,0,1,.492,2.278l-.6.168a9.765,9.765,0,0,0-.455-2.314Zm2.231,2.087a20.976,20.976,0,0,0,.516-2.195l.636.156c-.192.744-.42,1.619-.612,2.183Zm6.512,1.775a2.5,2.5,0,0,0,.36-.025.347.347,0,0,0,.18-.287,8.042,8.042,0,0,0,.06-1.031,2.088,2.088,0,0,0,.648.335,5.432,5.432,0,0,1-.132,1.164.657.657,0,0,1-.408.407,2.506,2.506,0,0,1-.635.072h-.732a1.429,1.429,0,0,1-.732-.18c-.192-.144-.263-.335-.263-.959v-1.991h-1.1c-.192,1.7-.828,2.675-2.891,3.226a2.4,2.4,0,0,0-.431-.623c1.871-.42,2.4-1.212,2.578-2.6H85.225V179.6h5.253v3.454H89v2.087c0,.216.012.324.1.372a.87.87,0,0,0,.3.036Zm-3.478-8.732H84.9v-.647h2.5v-.852h.779v.852h2.639v.647H89.4l.395.1c-.215.455-.443.959-.647,1.331h1.907v.659h-6.5v-.659h1.776a7.135,7.135,0,0,0-.444-1.307Zm-.515,4.222h3.849v-.875H85.909Zm0,1.451h3.849v-.911H85.909Zm2.566-4.329a10.185,10.185,0,0,0,.552-1.344H86.544a6.707,6.707,0,0,1,.492,1.32l-.42.108h2.171Z"/><path class="cls-4" d="M94.515,177.1a27.557,27.557,0,0,0-.6,4.641,15.889,15.889,0,0,0,.12,1.835c.2-.564.5-1.344.707-1.847l.468.348a25.169,25.169,0,0,0-.852,2.65,3.052,3.052,0,0,0-.059.528c.012.132.035.288.048.408l-.768.06a15.174,15.174,0,0,1-.444-3.851,34.12,34.12,0,0,1,.552-4.821,6.039,6.039,0,0,0,.072-.791l.959.084C94.658,176.549,94.563,176.884,94.515,177.1Zm2.77,6.152c0,.552.372,1.127,2.087,1.127a12.385,12.385,0,0,0,2.962-.323l.024.9a15.071,15.071,0,0,1-2.974.252c-2,0-2.89-.648-2.89-1.763a6.922,6.922,0,0,1,.191-1.38l.78.073A4.263,4.263,0,0,0,97.285,183.253Zm4.69-5.961v.864a27.639,27.639,0,0,1-4.882,0l-.012-.864A19.639,19.639,0,0,0,101.975,177.292Z"/><path class="cls-4" d="M113,176.621c-1.535,2.758-5.1,4.461-8.18,5.145a3.381,3.381,0,0,0-.384-.708,15.134,15.134,0,0,0,4.594-1.667,13.364,13.364,0,0,0-2.2-1.415,14.951,14.951,0,0,1-1.763.839,2.538,2.538,0,0,0-.539-.588,10.654,10.654,0,0,0,4.557-2.926l.9.192a9.334,9.334,0,0,1-.84.852h3.2l.144-.036Zm1.8,4.113c-1.511,3.467-5.289,4.977-9.139,5.541a2.421,2.421,0,0,0-.348-.731,15.661,15.661,0,0,0,5.361-1.571,12.3,12.3,0,0,0-2.386-1.68,16.464,16.464,0,0,1-2.063.876,2.347,2.347,0,0,0-.492-.6,11.591,11.591,0,0,0,5.289-3.19l.888.2a10.6,10.6,0,0,1-.9.9h3.118l.156-.035Zm-6.489-3.706c-.251.192-.515.372-.791.552a12.235,12.235,0,0,1,2.195,1.391,7.908,7.908,0,0,0,2.122-1.943Zm1.824,4.15c-.348.252-.72.492-1.128.732a12.76,12.76,0,0,1,2.375,1.643,6.922,6.922,0,0,0,2.3-2.375Z"/><path class="cls-4" d="M126.322,178.264a13.948,13.948,0,0,1-1.511,4.869,5.9,5.9,0,0,0,2.363,2.423,3.111,3.111,0,0,0-.576.683,6.608,6.608,0,0,1-2.279-2.35,7.787,7.787,0,0,1-2.83,2.374,4.594,4.594,0,0,0-.372-.576l-.228.241a11.29,11.29,0,0,0-1.439-.96,6.622,6.622,0,0,1-2.927,1.271,1.847,1.847,0,0,0-.371-.671,6.15,6.15,0,0,0,2.6-.972c-.42-.216-.839-.408-1.271-.587l-.2.347-.683-.264c.276-.467.6-1.079.923-1.715h-1.391v-.671h1.727c.18-.372.36-.732.5-1.056l.336.072v-1.786a7.724,7.724,0,0,1-2.171,1.858,2.381,2.381,0,0,0-.443-.6,6.406,6.406,0,0,0,2.375-1.979h-2.267v-.672h2.506v-2.231h.744v2.231H121.9v.672h-2.458v.095c.516.3,1.823,1.14,2.147,1.38l-.444.576c-.312-.288-1.115-.9-1.7-1.32v1.835h-.456l.12.024q-.2.432-.432.9h3.287v.671h-1.08a4.711,4.711,0,0,1-.9,2.063,10.014,10.014,0,0,1,1.439.912A6.738,6.738,0,0,0,123.9,183.1a15.628,15.628,0,0,1-1.127-3.5,8.747,8.747,0,0,1-.936,1.631,4.7,4.7,0,0,0-.647-.528,12.186,12.186,0,0,0,1.979-5.385l.8.12a18.3,18.3,0,0,1-.468,2.087h3.55v.744Zm-8.9-.816a5.913,5.913,0,0,0-.767-1.571l.611-.264a5.81,5.81,0,0,1,.792,1.559Zm.911,4.929c-.179.36-.359.708-.539,1.032.5.2,1.019.432,1.5.672a3.949,3.949,0,0,0,.8-1.7Zm3.251-6.5c-.348.539-.744,1.163-1.067,1.559l-.54-.264a10.669,10.669,0,0,0,.911-1.607Zm1.679,2.458a16.836,16.836,0,0,0,1.1,3.934,13.281,13.281,0,0,0,1.128-4h-2.207Z"/><path class="cls-4" d="M133.957,185.676l-.492-.792a9.492,9.492,0,0,0,1.019-.144,3.7,3.7,0,0,0,3.107-3.634,3.432,3.432,0,0,0-3.335-3.538,23.426,23.426,0,0,1-.719,3.5c-.732,2.471-1.679,3.694-2.746,3.694-1.02,0-2.087-1.175-2.087-3.154a5.066,5.066,0,0,1,5.192-4.821,4.309,4.309,0,0,1,4.558,4.353C138.454,183.661,136.775,185.316,133.957,185.676Zm-3.131-1.884c.564,0,1.248-.8,1.871-2.914a18.252,18.252,0,0,0,.672-3.3,4.273,4.273,0,0,0-3.838,3.97C129.531,183.109,130.263,183.792,130.826,183.792Z"/><path class="cls-4" d="M146.892,176.98c-.264.456-.563.9-.875,1.355v7.892h-.852V179.4a15.667,15.667,0,0,1-4.426,3.586,7.257,7.257,0,0,0-.551-.683,14.253,14.253,0,0,0,5.7-5.326h-5.409v-.8H150.73v.8Zm.024,2.063a26.775,26.775,0,0,1,4.126,3.155l-.624.6a26.969,26.969,0,0,0-4.089-3.238Z"/><path class="cls-4" d="M156.362,184.452c-.313-.455-1.08-1.4-1.644-2.051a6.064,6.064,0,0,1-2.062,3.706,2.728,2.728,0,0,0-.54-.575,5.958,5.958,0,0,0,2.039-4.7h-1.979v-.744h2.015v-2.039h-1.763v-.72h1.763v-1.883h.755v1.883h1.7v.72h-1.7v2.039h1.943v.744H154.91c-.012.251-.035.5-.06.767.492.5,1.751,1.907,2.051,2.267Zm5.732.876c.288,0,.336-.192.361-1.607a2.345,2.345,0,0,0,.683.3c-.072,1.62-.264,2.016-.96,2.016H161.17c-.767,0-.947-.228-.947-1.032V182.39h-1.139a4.019,4.019,0,0,1-2.867,3.825,2.389,2.389,0,0,0-.455-.588,3.409,3.409,0,0,0,2.578-3.237h-1.007v-6.6h5.085v6.6h-1.451V185c0,.276.035.324.312.324Zm-4.017-7.544h3.574v-1.259h-3.574Zm0,1.931h3.574v-1.259h-3.574Zm0,1.955h3.574v-1.3h-3.574Z"/><path class="cls-4" d="M166.443,183.876a7.5,7.5,0,0,1-1.7,2.375,4.807,4.807,0,0,0-.66-.48,6.232,6.232,0,0,0,1.583-2.1Zm2.95-8.095v7.5H164.8v-7.5Zm-3.838,2.279h3.07V176.5h-3.07Zm0,2.243h3.07v-1.572h-3.07Zm0,2.254h3.07v-1.595h-3.07Zm2.878,1.128a10.333,10.333,0,0,1,1.38,2.026l-.731.372a9.488,9.488,0,0,0-1.344-2.11Zm3.118-6.933v6.573h-.779v-6.573Zm2.963-1.2v9.607c0,.564-.168.816-.515.947a7.942,7.942,0,0,1-2.124.144,3.73,3.73,0,0,0-.3-.791c.863.024,1.607.012,1.835.012s.311-.084.311-.312v-9.607Z"/><path class="cls-4" d="M180.481,177.748a11.267,11.267,0,0,0,1.932-.456l.023.8a15.622,15.622,0,0,1-2.206.432,21.556,21.556,0,0,1-2.615,5.073l-.827-.432a16.761,16.761,0,0,0,2.578-4.546c-.371.037-.755.048-1.127.048-.445,0-.947-.011-1.392-.035l-.059-.8a13.316,13.316,0,0,0,1.451.072,13.908,13.908,0,0,0,1.39-.06,8.808,8.808,0,0,0,.4-2.087l.947.084C180.853,176.285,180.685,177.04,180.481,177.748Zm3.3,3.046c.012.468.059,1.284.095,2.039a8.232,8.232,0,0,1,2.5,1.487l-.468.732a8.454,8.454,0,0,0-2-1.4c.012.227.012.419.012.576,0,.935-.612,1.69-2.051,1.69-1.3,0-2.351-.5-2.351-1.679,0-1.091,1.055-1.751,2.351-1.751a5.909,5.909,0,0,1,1.235.132c-.048-.995-.108-2.206-.132-3.07h.839A11.342,11.342,0,0,0,183.78,180.794Zm-2.028,4.354c1.032,0,1.38-.54,1.38-1.188,0-.168,0-.371-.012-.6a4.426,4.426,0,0,0-1.284-.192c-.911,0-1.535.432-1.535,1.007S180.769,185.148,181.752,185.148Zm1.788-6.98.431-.648a15.936,15.936,0,0,1,2.771,1.583l-.48.7A14.7,14.7,0,0,0,183.54,178.168Z"/><path class="cls-4" d="M190.179,180.471a8.338,8.338,0,0,0-2.052-1.272l.445-.588a9.168,9.168,0,0,1,2.063,1.2Zm.851,1.7a43.4,43.4,0,0,1-1.883,3.91l-.695-.491a36.479,36.479,0,0,0,1.955-3.886Zm-.263-4.8a8.907,8.907,0,0,0-2.027-1.355l.444-.576a8.485,8.485,0,0,1,2.05,1.3Zm8.323,6.933h-1.007v1.079c0,.407-.084.611-.408.732a6.6,6.6,0,0,1-1.763.095,3.594,3.594,0,0,0-.264-.635c.648.023,1.284.023,1.452.012s.239-.048.239-.2v-1.079h-4.545v1.9h-.731v-1.9h-1.14v-.66h1.14V180.59h2.554v-.719h-3.551v-.66h2.148v-.863h-1.392v-.6h1.392v-.839H191.5V176.3h1.716v-.984h.755v.984h2.111v-.984h.756v.984h1.822v.612h-1.822v.839h1.57v.6h-1.57v.863h2.158v.66h-3.622v.719h2.711v3.059h1.007Zm-6.3-3.119v.912h1.823v-.912Zm0,2.459h1.823V182.7h-1.823Zm1.175-5.9h2.111v-.839h-2.111Zm0,1.463h2.111v-.863h-2.111Zm1.4,1.979v.912h1.967v-.912Zm1.967,2.459V182.7h-1.967v.948Z"/><path class="cls-4" d="M203.7,182.233a17.06,17.06,0,0,0-.983-1.762v5.744h-.732v-5.793a13.542,13.542,0,0,1-1.535,3.527,4.975,4.975,0,0,0-.42-.684,13.641,13.641,0,0,0,1.86-4.594h-1.62v-.743h1.715v-2.615h.732v2.615h1.4v.743h-1.4v.876c.336.432,1.235,1.763,1.427,2.087Zm7.485,2.039h-.781v1.1c0,.395-.084.6-.4.719a5.645,5.645,0,0,1-1.608.12,3.934,3.934,0,0,0-.227-.671c.6.024,1.128.024,1.283.012s.2-.037.2-.18v-1.1H205.43v1.943h-.72v-1.943h-.84v-.635h.84v-3.023h2.423v-.755h-3.047v-.624h1.691v-.863H204.6v-.6h1.175v-.839h-1.4v-.612h1.4v-1.008h.732v1.008h2.039v-1.008h.756v1.008h1.51v.612H209.3v.839h1.331v.6H209.3v.863h1.751v.624h-3.191v.755h2.542v3.023h.781Zm-5.757-3.046v.888h1.7v-.888Zm0,2.411h1.7V182.7h-1.7Zm1.079-5.865h2.039v-.839h-2.039Zm0,1.463h2.039v-.863h-2.039Zm1.355,1.991v.888h1.8v-.888Zm1.8,2.411V182.7h-1.8v.936Z"/><path class="cls-4" d="M214.719,183.865a3.54,3.54,0,0,0,3.07,1.379c1.272.06,3.946.024,5.325-.072a2.876,2.876,0,0,0-.263.8c-1.284.06-3.766.084-5.05.035a4.28,4.28,0,0,1-3.442-1.439c-.576.516-1.187,1.044-1.835,1.559l-.431-.791a20.217,20.217,0,0,0,1.858-1.439v-3.119h-1.715v-.755h2.483ZM214.443,178a8.2,8.2,0,0,0-2.063-1.907l.588-.48a8.742,8.742,0,0,1,2.1,1.859Zm2.4-.456a7.539,7.539,0,0,1-.947,1.308,3.155,3.155,0,0,0-.684-.384,7.681,7.681,0,0,0,1.763-2.975l.743.168c-.144.408-.312.8-.491,1.188H218.7v-1.524h.792v1.524h2.914v.7h-2.914v1.631h3.443v.7h-7.664v-.7H218.7v-1.631Zm-.48,6.668v-3.358h5.673v3.358Zm.78-.659h4.089v-2.027h-4.089Z"/><path class="cls-4" d="M228.733,177.9a.864.864,0,1,1,.865.851A.839.839,0,0,1,228.733,177.9Zm0,5.888a.864.864,0,1,1,.865.864A.846.846,0,0,1,228.733,183.792Z"/><path class="cls-4" d="M238.179,180.471a8.35,8.35,0,0,0-2.051-1.272l.444-.588a9.168,9.168,0,0,1,2.063,1.2Zm.851,1.7a43.4,43.4,0,0,1-1.883,3.91l-.695-.491a36.479,36.479,0,0,0,1.955-3.886Zm-.263-4.8a8.907,8.907,0,0,0-2.027-1.355l.444-.576a8.485,8.485,0,0,1,2.05,1.3Zm8.323,6.933h-1.007v1.079c0,.407-.084.611-.408.732a6.6,6.6,0,0,1-1.763.095,3.594,3.594,0,0,0-.264-.635c.648.023,1.284.023,1.452.012s.239-.048.239-.2v-1.079h-4.545v1.9h-.731v-1.9h-1.14v-.66h1.14V180.59h2.554v-.719h-3.551v-.66h2.148v-.863h-1.392v-.6h1.392v-.839H239.5V176.3h1.716v-.984h.755v.984h2.111v-.984h.756v.984h1.822v.612h-1.822v.839h1.57v.6h-1.57v.863h2.158v.66h-3.622v.719h2.711v3.059h1.007Zm-6.3-3.119v.912h1.823v-.912Zm0,2.459h1.823V182.7h-1.823Zm1.175-5.9h2.111v-.839h-2.111Zm0,1.463h2.111v-.863h-2.111Zm1.4,1.979v.912h1.967v-.912Zm1.967,2.459V182.7h-1.967v.948Z"/><path class="cls-4" d="M254.5,178.671a10.936,10.936,0,0,0,4.69,4.954,3.325,3.325,0,0,0-.6.695,11.914,11.914,0,0,1-4.594-5.013v3.862h2.351v.791h-2.351v2.279h-.815V183.96h-2.387v-.791h2.387v-3.838a12.685,12.685,0,0,1-4.582,5.013,3.29,3.29,0,0,0-.564-.647,11.623,11.623,0,0,0,4.642-5.026h-4.246v-.791h4.75v-2.543h.815v2.543h4.8v.791Z"/><path class="cls-4" d="M270.322,178.264a13.969,13.969,0,0,1-1.51,4.869,5.894,5.894,0,0,0,2.362,2.423,3.106,3.106,0,0,0-.575.683,6.611,6.611,0,0,1-2.28-2.35,7.787,7.787,0,0,1-2.83,2.374,4.483,4.483,0,0,0-.372-.576l-.227.241a11.308,11.308,0,0,0-1.44-.96,6.618,6.618,0,0,1-2.926,1.271,1.835,1.835,0,0,0-.372-.671,6.16,6.16,0,0,0,2.6-.972c-.42-.216-.84-.408-1.272-.587l-.2.347-.683-.264c.276-.467.6-1.079.924-1.715h-1.392v-.671h1.727c.18-.372.36-.732.5-1.056l.336.072v-1.786a7.738,7.738,0,0,1-2.171,1.858,2.409,2.409,0,0,0-.444-.6,6.406,6.406,0,0,0,2.375-1.979h-2.267v-.672H262.7v-2.231h.743v2.231H265.9v.672h-2.459v.095c.516.3,1.824,1.14,2.147,1.38l-.443.576c-.312-.288-1.116-.9-1.7-1.32v1.835h-.456l.121.024q-.2.432-.432.9h3.286v.671h-1.079a4.711,4.711,0,0,1-.9,2.063,10.055,10.055,0,0,1,1.438.912A6.741,6.741,0,0,0,267.9,183.1a15.628,15.628,0,0,1-1.128-3.5,8.745,8.745,0,0,1-.935,1.631,4.767,4.767,0,0,0-.648-.528,12.174,12.174,0,0,0,1.979-5.385l.8.12a18.088,18.088,0,0,1-.468,2.087h3.551v.744Zm-8.9-.816a5.919,5.919,0,0,0-.768-1.571l.612-.264a5.869,5.869,0,0,1,.792,1.559Zm.911,4.929c-.18.36-.359.708-.54,1.032.5.2,1.019.432,1.5.672a3.948,3.948,0,0,0,.8-1.7Zm3.25-6.5c-.348.539-.743,1.163-1.067,1.559l-.539-.264a10.669,10.669,0,0,0,.911-1.607Zm1.68,2.458a16.739,16.739,0,0,0,1.1,3.934,13.252,13.252,0,0,0,1.127-4h-2.207Z"/><path class="cls-4" d="M275.668,184.524h1.967V177.8h-1.547v-.636a5.04,5.04,0,0,0,1.774-.6h.744v7.963h1.788v.816h-4.726Z"/><path class="cls-4" d="M281.788,180.914c0-3.046,1.044-4.509,2.7-4.509s2.675,1.475,2.675,4.509c0,3.07-1.031,4.582-2.675,4.582S281.788,183.984,281.788,180.914Zm4.426,0c0-2.566-.695-3.718-1.728-3.718s-1.751,1.152-1.751,3.718c0,2.615.708,3.79,1.751,3.79S286.214,183.529,286.214,180.914Z"/><path class="cls-4" d="M288.376,180.914c0-3.046,1.044-4.509,2.7-4.509s2.675,1.475,2.675,4.509c0,3.07-1.031,4.582-2.675,4.582S288.376,183.984,288.376,180.914Zm4.426,0c0-2.566-.7-3.718-1.728-3.718s-1.751,1.152-1.751,3.718c0,2.615.708,3.79,1.751,3.79S292.8,183.529,292.8,180.914Z"/><path class="cls-4" d="M294.964,180.914c0-3.046,1.044-4.509,2.7-4.509s2.675,1.475,2.675,4.509c0,3.07-1.031,4.582-2.675,4.582S294.964,183.984,294.964,180.914Zm4.426,0c0-2.566-.7-3.718-1.728-3.718s-1.751,1.152-1.751,3.718c0,2.615.708,3.79,1.751,3.79S299.39,183.529,299.39,180.914Z"/><path class="cls-4" d="M301.552,180.914c0-3.046,1.044-4.509,2.7-4.509s2.675,1.475,2.675,4.509c0,3.07-1.031,4.582-2.675,4.582S301.552,183.984,301.552,180.914Zm4.426,0c0-2.566-.7-3.718-1.728-3.718s-1.751,1.152-1.751,3.718c0,2.615.708,3.79,1.751,3.79S305.978,183.529,305.978,180.914Z"/><path class="cls-4" d="M317.437,178.671a10.934,10.934,0,0,0,4.689,4.954,3.385,3.385,0,0,0-.6.695,11.912,11.912,0,0,1-4.593-5.013v3.862h2.35v.791h-2.35v2.279h-.816V183.96H313.73v-.791h2.387v-3.838a12.685,12.685,0,0,1-4.582,5.013,3.319,3.319,0,0,0-.563-.647,11.615,11.615,0,0,0,4.641-5.026h-4.246v-.791h4.75v-2.543h.816v2.543h4.8v.791Z"/></svg>