<svg id="レイヤー_1" data-name="レイヤー 1" xmlns="http://www.w3.org/2000/svg" viewBox="0 0 376 200"><defs><style>.cls-1{fill:#8dbfff;}.cls-2{fill:#0040a7;}.cls-3,.cls-5{fill:none;stroke-miterlimit:10;}.cls-3{stroke:#0000a0;}.cls-4{fill:red;}.cls-5{stroke:#383838;}.cls-6{fill:#383838;}</style></defs><polygon class="cls-1" points="69.939 31.13 69.939 38.956 65.718 38.956 65.718 31.13 60.437 31.13 60.437 42.087 45.913 42.087 45.913 31.13 41.627 31.13 41.627 38.956 33.039 38.956 33.039 31.13 12.757 31.13 12.757 57.217 87.656 57.217 87.656 31.13 69.939 31.13"/><polygon class="cls-1" points="160.234 31.13 160.234 35.696 156.013 35.696 156.013 31.13 147.63 31.13 147.63 34 139.31 34 139.31 31.13 134.065 31.13 134.065 35.696 123.334 35.696 123.334 31.13 104.334 31.13 104.334 57.217 179.234 57.217 179.234 31.13 160.234 31.13"/><polygon class="cls-1" points="254.539 31.13 254.539 37.652 245.457 37.652 245.457 31.13 237.37 31.13 237.37 34 231.531 34 231.531 31.13 221.065 31.13 221.065 37.652 217.639 37.652 217.639 31.13 196.766 31.13 196.766 57.217 271.666 57.217 271.666 31.13 254.539 31.13"/><polygon class="cls-1" points="344.244 31.13 344.244 34 329.978 34 329.978 31.13 327.074 31.13 327.074 37.652 321.236 37.652 321.236 31.13 315.891 31.13 315.891 34 307.343 34 307.343 31.13 288.344 31.13 288.344 57.217 363.243 57.217 363.243 31.13 344.244 31.13"/><polygon class="cls-1" points="363.677 132.779 363.677 139.301 354.595 139.301 354.595 132.779 346.508 132.779 346.508 135.649 340.67 135.649 340.67 132.779 330.204 132.779 330.204 139.301 326.777 139.301 326.777 132.779 324.458 132.779 324.458 140.605 320.237 140.605 320.237 132.779 314.957 132.779 314.957 143.735 300.432 143.735 300.432 132.779 296.146 132.779 296.146 140.605 287.558 140.605 287.558 132.779 277.417 132.779 277.417 135.649 263.152 135.649 263.152 132.779 260.248 132.779 260.248 139.301 254.409 139.301 254.409 132.779 249.065 132.779 249.065 135.649 240.517 135.649 240.517 132.779 236.469 132.779 236.469 137.344 232.248 137.344 232.248 132.779 223.865 132.779 223.865 135.649 215.545 135.649 215.545 132.779 210.3 132.779 210.3 137.344 199.569 137.344 199.569 132.779 188.996 132.779 188.996 158.866 373.692 158.866 373.692 132.779 363.677 132.779"/><polygon class="cls-1" points="172.517 132.779 172.517 135.649 158.252 135.649 158.252 132.779 155.348 132.779 155.348 139.301 149.509 139.301 149.509 132.779 144.165 132.779 144.165 135.649 135.617 135.649 135.617 132.779 132.522 132.779 132.522 139.301 123.44 139.301 123.44 132.779 115.353 132.779 115.353 135.649 109.515 135.649 109.515 132.779 99.049 132.779 99.049 139.301 95.622 139.301 95.622 132.779 87.829 132.779 87.829 137.344 83.608 137.344 83.608 132.779 75.225 132.779 75.225 135.649 66.904 135.649 66.904 132.779 61.66 132.779 61.66 137.344 50.929 137.344 50.929 132.779 47.433 132.779 47.433 140.605 43.212 140.605 43.212 132.779 37.931 132.779 37.931 143.735 23.406 143.735 23.406 132.779 19.12 132.779 19.12 140.605 10.532 140.605 10.532 132.779 3.007 132.779 3.007 158.866 178.08 158.866 178.08 132.779 172.517 132.779"/><path class="cls-2" d="M49.621,18.024h1.091L53.723,26.8H52.667l-.875-2.77H48.518l-.9,2.77h-1Zm-.851,5.229h2.77l-.456-1.426c-.336-1-.612-1.944-.912-2.975h-.047c-.288,1.043-.576,1.978-.9,2.975Z"/><path class="cls-2" d="M138.363,18.024h2.543c1.787,0,3,.624,3,2.147a1.921,1.921,0,0,1-1.307,1.907v.048a2.04,2.04,0,0,1,1.823,2.111c0,1.715-1.355,2.566-3.322,2.566h-2.735ZM140.7,21.79c1.583,0,2.219-.576,2.219-1.5,0-1.08-.732-1.475-2.159-1.475h-1.4V21.79Zm.24,4.222c1.559,0,2.507-.564,2.507-1.811,0-1.127-.912-1.643-2.507-1.643h-1.583v3.454Z"/><path class="cls-2" d="M230.438,22.413c0-2.818,1.63-4.544,3.849-4.544a3.224,3.224,0,0,1,2.387,1.067l-.552.647a2.392,2.392,0,0,0-1.823-.839c-1.715,0-2.842,1.391-2.842,3.646s1.079,3.693,2.807,3.693a2.652,2.652,0,0,0,2.074-1.006l.552.623a3.338,3.338,0,0,1-2.675,1.259C232.045,26.959,230.438,25.256,230.438,22.413Z"/><path class="cls-2" d="M322.53,18.024h2.159c2.7,0,4.1,1.6,4.1,4.353s-1.4,4.426-4.065,4.426h-2.2Zm2.075,7.964c2.135,0,3.166-1.368,3.166-3.611s-1.031-3.537-3.166-3.537h-1.079v7.148Z"/><polyline class="cls-3" points="87.656 31.13 69.939 31.13 69.939 38.956 65.718 38.956 65.718 31.13 60.437 31.13 60.437 42.087 45.913 42.087 45.913 31.13 41.627 31.13 41.627 38.956 33.039 38.956 33.039 31.13 12.757 31.13"/><polyline class="cls-3" points="179.234 31.13 160.234 31.13 160.234 35.696 156.013 35.696 156.013 31.13 147.63 31.13 147.63 34 139.31 34 139.31 31.13 134.065 31.13 134.065 35.696 123.334 35.696 123.334 31.13 104.334 31.13"/><polyline class="cls-3" points="271.666 31.13 254.539 31.13 254.539 37.652 245.457 37.652 245.457 31.13 237.37 31.13 237.37 34 231.531 34 231.531 31.13 221.065 31.13 221.065 37.652 217.639 37.652 217.639 31.13 196.766 31.13"/><polyline class="cls-3" points="363.243 31.13 344.244 31.13 344.244 34 329.978 34 329.978 31.13 327.074 31.13 327.074 37.652 321.236 37.652 321.236 31.13 315.891 31.13 315.891 34 307.343 34 307.343 31.13 288.344 31.13"/><polyline class="cls-3" points="373.692 132.779 363.677 132.779 363.677 139.301 354.595 139.301 354.595 132.779 346.508 132.779 346.508 135.649 340.67 135.649 340.67 132.779 330.204 132.779 330.204 139.301 326.777 139.301 326.777 132.779 324.458 132.779 324.458 140.605 320.237 140.605 320.237 132.779 314.957 132.779 314.957 143.735 300.432 143.735 300.432 132.779 296.146 132.779 296.146 140.605 287.558 140.605 287.558 132.779 277.417 132.779 277.417 135.649 263.152 135.649 263.152 132.779 260.248 132.779 260.248 139.301 254.409 139.301 254.409 132.779 249.065 132.779 249.065 135.649 240.517 135.649 240.517 132.779 236.469 132.779 236.469 137.344 232.248 137.344 232.248 132.779 223.865 132.779 223.865 135.649 215.545 135.649 215.545 132.779 210.3 132.779 210.3 137.344 199.569 137.344 199.569 132.779 188.996 132.779"/><polyline class="cls-3" points="178.08 132.779 172.517 132.779 172.517 135.649 158.252 135.649 158.252 132.779 155.348 132.779 155.348 139.301 149.509 139.301 149.509 132.779 144.165 132.779 144.165 135.649 135.617 135.649 135.617 132.779 132.522 132.779 132.522 139.301 123.44 139.301 123.44 132.779 115.353 132.779 115.353 135.649 109.515 135.649 109.515 132.779 99.049 132.779 99.049 139.301 95.622 139.301 95.622 132.779 87.829 132.779 87.829 137.344 83.608 137.344 83.608 132.779 75.225 132.779 75.225 135.649 66.904 135.649 66.904 132.779 61.66 132.779 61.66 137.344 50.929 137.344 50.929 132.779 47.433 132.779 47.433 140.605 43.212 140.605 43.212 132.779 37.931 132.779 37.931 143.735 23.406 143.735 23.406 132.779 19.12 132.779 19.12 140.605 10.532 140.605 10.532 132.779 3.007 132.779"/><path class="cls-2" d="M73,164.426h1.091l3.011,8.779H76.044l-.876-2.77H71.9l-.9,2.77H70Zm-.852,5.229h2.771l-.456-1.427c-.336-1-.612-1.943-.912-2.974H73.5c-.287,1.043-.575,1.979-.9,2.974Z"/><path class="cls-2" d="M80.042,169.163H77.607v-.743h2.435v-2.627h.8v2.627H83.28v.743H80.845V171.8h-.8Z"/><path class="cls-2" d="M84.962,164.426h2.543c1.787,0,3,.624,3,2.147A1.92,1.92,0,0,1,89.2,168.48v.048a2.041,2.041,0,0,1,1.823,2.111c0,1.715-1.355,2.566-3.322,2.566H84.962Zm2.339,3.766c1.583,0,2.219-.575,2.219-1.5,0-1.079-.731-1.475-2.159-1.475h-1.4v2.974Zm.24,4.222c1.559,0,2.507-.564,2.507-1.811,0-1.128-.912-1.643-2.507-1.643H85.958v3.454Z"/><path class="cls-2" d="M94.454,169.163H92.019v-.743h2.435v-2.627h.8v2.627h2.434v.743H95.257V171.8h-.8Z"/><path class="cls-2" d="M98.858,168.816c0-2.819,1.632-4.546,3.85-4.546a3.223,3.223,0,0,1,2.387,1.068l-.552.647a2.394,2.394,0,0,0-1.823-.839c-1.715,0-2.842,1.391-2.842,3.646s1.08,3.694,2.807,3.694a2.651,2.651,0,0,0,2.074-1.008l.552.624a3.333,3.333,0,0,1-2.675,1.259C100.466,173.361,98.858,171.658,98.858,168.816Z"/><path class="cls-2" d="M108.649,169.163h-2.435v-.743h2.435v-2.627h.8v2.627h2.434v.743h-2.434V171.8h-.8Z"/><path class="cls-2" d="M113.57,164.426h2.159c2.7,0,4.1,1.595,4.1,4.354s-1.4,4.425-4.066,4.425h-2.2Zm2.075,7.964c2.135,0,3.166-1.367,3.166-3.61s-1.031-3.538-3.166-3.538h-1.08v7.148Z"/><path class="cls-2" d="M256.313,164.426h2.543c1.787,0,3,.624,3,2.147a1.92,1.92,0,0,1-1.307,1.907v.048a2.041,2.041,0,0,1,1.823,2.111c0,1.715-1.355,2.566-3.322,2.566h-2.735Zm2.339,3.766c1.583,0,2.219-.575,2.219-1.5,0-1.079-.731-1.475-2.159-1.475h-1.4v2.974Zm.24,4.222c1.559,0,2.506-.564,2.506-1.811,0-1.128-.911-1.643-2.506-1.643h-1.583v3.454Z"/><path class="cls-2" d="M265.805,169.163h-2.436v-.743h2.436v-2.627h.8v2.627h2.435v.743h-2.435V171.8h-.8Z"/><path class="cls-2" d="M270.725,164.426h2.159c2.7,0,4.1,1.595,4.1,4.354s-1.4,4.425-4.065,4.425h-2.195Zm2.075,7.964c2.135,0,3.166-1.367,3.166-3.61s-1.031-3.538-3.166-3.538h-1.079v7.148Z"/><path class="cls-2" d="M280.588,169.163h-2.435v-.743h2.435v-2.627h.8v2.627h2.434v.743h-2.434V171.8h-.8Z"/><path class="cls-2" d="M287.344,164.426h1.092l3.009,8.779H290.39l-.875-2.77H286.24l-.9,2.77h-1Zm-.852,5.229h2.771l-.456-1.427c-.336-1-.612-1.943-.911-2.974h-.048c-.288,1.043-.577,1.979-.9,2.974Z"/><path class="cls-2" d="M294.388,169.163h-2.435v-.743h2.435v-2.627h.8v2.627h2.435v.743h-2.435V171.8h-.8Z"/><path class="cls-2" d="M298.793,168.816c0-2.819,1.631-4.546,3.85-4.546a3.222,3.222,0,0,1,2.386,1.068l-.551.647a2.4,2.4,0,0,0-1.824-.839c-1.715,0-2.841,1.391-2.841,3.646s1.079,3.694,2.806,3.694a2.65,2.65,0,0,0,2.074-1.008l.552.624a3.332,3.332,0,0,1-2.675,1.259C300.4,173.361,298.793,171.658,298.793,168.816Z"/><path d="M92.914,4.783a13.345,13.345,0,0,1-2.183,5.2,4.616,4.616,0,0,0-.744-.432,11.15,11.15,0,0,0,2.051-4.93Zm3.094-2.951v9.595c0,.611-.168.863-.564,1.007a9.913,9.913,0,0,1-2.255.145,3.782,3.782,0,0,0-.335-.829c.887.025,1.75.025,1.979.013.251-.013.347-.084.347-.336V1.832Zm2.783,2.71a18.889,18.889,0,0,1,2.386,5.289l-.827.348a20.215,20.215,0,0,0-2.3-5.349Z"/><path d="M105.394,3.655l.947.192c-.072.252-.144.564-.2.815a24.14,24.14,0,0,1-1.1,3.779,17.253,17.253,0,0,1-1.763,3.273l-.9-.384a15.631,15.631,0,0,0,1.835-3.25A17.9,17.9,0,0,0,105.394,3.655Zm2.986.168.851-.3c.468.864,1.235,2.483,1.751,3.778.492,1.2,1.128,3.023,1.452,4.09l-.948.3a34.887,34.887,0,0,0-1.367-4.1A34.133,34.133,0,0,0,108.38,3.823Zm3.322-1.8a1.325,1.325,0,1,1,0,2.65,1.325,1.325,0,1,1,0-2.65Zm0,2.135a.814.814,0,0,0,.816-.8.816.816,0,0,0-1.632,0A.807.807,0,0,0,111.7,4.159Z"/><path d="M119.4,3.152c-.083.155-.18.323-.288.5H122.5a1.983,1.983,0,0,0,.732-.108l.72.432a3.8,3.8,0,0,0-.264.6,12.052,12.052,0,0,1-1.895,3.79c.516.372.983.731,1.379,1.055l-.635.732c-.36-.325-.816-.7-1.32-1.079a11.289,11.289,0,0,1-4.617,3.082l-.756-.672a10.527,10.527,0,0,0,4.677-2.939c-.875-.636-1.811-1.271-2.6-1.762L118.5,6.2c.816.467,1.727,1.067,2.59,1.667a10.388,10.388,0,0,0,1.691-3.443H118.6a12.888,12.888,0,0,1-3.178,3.191l-.707-.552a10.971,10.971,0,0,0,3.85-4.222,4.43,4.43,0,0,0,.36-.887l.971.312C119.708,2.564,119.516,2.936,119.4,3.152Z"/><path d="M128.41,6.593h6.6c.612,0,1.02-.036,1.271-.059V7.577c-.239-.012-.719-.048-1.259-.048H128.41c-.66,0-1.26.024-1.619.048V6.534C127.139,6.57,127.726,6.593,128.41,6.593Z"/><path d="M144.116,9.2a11.13,11.13,0,0,0,3.946-4.377l.516.911a12.049,12.049,0,0,1-3.958,4.233,13.243,13.243,0,0,1-4.774,1.9l-.552-.876A12.266,12.266,0,0,0,144.116,9.2Zm-.84-3.79-.659.672a25.045,25.045,0,0,0-2.987-2.495l.612-.647A25.115,25.115,0,0,1,143.276,5.406Z"/><path d="M154.617,3c-.072.336-.192,1.1-.324,1.788.587-.048,1.115-.084,1.415-.084,1.032,0,1.907.383,1.907,1.978a11.629,11.629,0,0,1-.7,4.33,1.666,1.666,0,0,1-1.714.984,7,7,0,0,1-1.4-.18l-.144-.9a5.371,5.371,0,0,0,1.475.25,1.018,1.018,0,0,0,1.068-.634,10.293,10.293,0,0,0,.588-3.742c0-1.128-.528-1.332-1.3-1.332-.3,0-.815.036-1.367.084A23.832,23.832,0,0,1,151.583,12l-.864-.347a18.741,18.741,0,0,0,2.531-6.033c-.66.072-1.272.132-1.6.167-.263.037-.743.1-1.043.133l-.1-.935c.372.023.672.011,1.043,0,.4-.013,1.128-.073,1.871-.132a12.683,12.683,0,0,0,.324-2.627l1,.1C154.7,2.528,154.653,2.768,154.617,3ZM161.069,7.9l-.816.395a14.374,14.374,0,0,0-2.158-4.3l.78-.36A20.291,20.291,0,0,1,161.069,7.9Z"/><path d="M164.734,7.925A5.75,5.75,0,0,1,168.7,6.4c1.787,0,3.01,1.067,3.01,2.47,0,2.123-1.931,3.539-6.285,3.178l-.263-.875c3.825.455,5.66-.672,5.66-2.339,0-.983-.923-1.691-2.17-1.691a4.785,4.785,0,0,0-3.79,1.643,1.994,1.994,0,0,0-.336.588l-.8-.2a43.209,43.209,0,0,0,.612-4.834l.9.12C165.069,5.3,164.866,7.133,164.734,7.925Zm5.445-4.689-.2.815c-1.127-.156-3.718-.672-4.63-.924l.216-.815A33.791,33.791,0,0,0,170.179,3.236Z"/><path d="M179.9,12l-.492-.791a9.477,9.477,0,0,0,1.02-.144,3.7,3.7,0,0,0,3.106-3.634A3.431,3.431,0,0,0,180.2,3.9a23.529,23.529,0,0,1-.72,3.5c-.731,2.471-1.679,3.694-2.746,3.694-1.02,0-2.087-1.176-2.087-3.154a5.067,5.067,0,0,1,5.193-4.821A4.308,4.308,0,0,1,184.4,7.469C184.4,9.988,182.718,11.643,179.9,12Zm-3.13-1.882c.563,0,1.247-.8,1.871-2.915a18.338,18.338,0,0,0,.672-3.3,4.271,4.271,0,0,0-3.838,3.969C175.475,9.436,176.206,10.12,176.77,10.12Z"/><path d="M191.9,5.982h-5.816v-.7H187.5V3.8h-1.224V3.116H187.5V1.748h.743V3.116h1.618V1.748h.744V3.116h1.248V3.8H190.6V5.287H191.9Zm-.731,5.732c0,.4-.084.588-.372.72a4.858,4.858,0,0,1-1.486.12,2.878,2.878,0,0,0-.241-.672c.54.025,1.02.013,1.163.013s.192-.061.192-.192V10.528H187.69v2.051h-.743V6.822h4.221ZM187.69,7.457v.912h2.734V7.457ZM190.424,9.9V8.993H187.69V9.9Zm-2.182-4.617h1.618V3.8h-1.618Zm7.963-.672a14.364,14.364,0,0,1-1.439,4.893,6.06,6.06,0,0,0,2.327,2.4,2.852,2.852,0,0,0-.564.683,6.411,6.411,0,0,1-2.207-2.35,7.672,7.672,0,0,1-2.614,2.362,2.8,2.8,0,0,0-.468-.684A6.678,6.678,0,0,0,193.9,9.46a16.481,16.481,0,0,1-1.1-3.5,8.348,8.348,0,0,1-.8,1.572,6.556,6.556,0,0,0-.563-.636,13.842,13.842,0,0,0,1.691-5.241l.779.108a20.247,20.247,0,0,1-.443,2.11h3.55v.745Zm-2.986.12a17.131,17.131,0,0,0,1.127,3.933,14.236,14.236,0,0,0,1.08-4.053h-2.171Z"/><path d="M201.621,4.987h2.687v.731h-2.687V7.805h2.171v4.474h-.78V11.8h-3.55v.552h-.756V7.805h2.135V5.718H198.07V4.987h2.771v-1.9c-.779.12-1.583.229-2.339.3a3.33,3.33,0,0,0-.228-.636,25.038,25.038,0,0,0,5.134-.995l.623.6a14.685,14.685,0,0,1-2.41.6Zm1.391,3.538h-3.55v2.554h3.55Zm4.7,3.13c.456,0,.516-.444.576-2.243a2.406,2.406,0,0,0,.72.36c-.084,1.955-.277,2.614-1.247,2.614h-1.619c-.972,0-1.248-.3-1.248-1.451V1.772h.78v9.187c0,.587.1.7.539.7Z"/><path d="M212.157,6.845a11.775,11.775,0,0,0-2.1-1.295l.443-.588a12.581,12.581,0,0,1,2.111,1.224Zm.768,1.7c-.539,1.26-1.259,2.759-1.871,3.863l-.7-.481a36.763,36.763,0,0,0,1.955-3.861Zm-.18-4.821a11.075,11.075,0,0,0-2.051-1.392l.468-.563a11.016,11.016,0,0,1,2.051,1.319Zm7.34,2.807a8.664,8.664,0,0,1-2.074,3.79,7.923,7.923,0,0,0,3.082,1.571,2.907,2.907,0,0,0-.516.684,8.559,8.559,0,0,1-3.118-1.7,9.48,9.48,0,0,1-3.022,1.727,2.835,2.835,0,0,0-.516-.659,9.046,9.046,0,0,0,2.986-1.632,9.1,9.1,0,0,1-1.943-3.25h-.4a9.631,9.631,0,0,1-1.559,5.518,2.19,2.19,0,0,0-.659-.409c1.319-1.667,1.463-4.029,1.463-5.757V3.4h2.914V1.64h.78V3.4h2.746l.144-.035.564.168a16.4,16.4,0,0,1-1.02,2.386l-.683-.228a13.115,13.115,0,0,0,.647-1.547h-2.4V6.329h1.942l.145-.023Zm-5.5-2.387V6.329h2.147V4.147Zm1.128,2.914a7.9,7.9,0,0,0,1.738,2.747A6.941,6.941,0,0,0,219.1,7.061Z"/><path d="M226.641,3.631a28.084,28.084,0,0,0,3.705-.372v.792a35.373,35.373,0,0,1-3.993.336,10.261,10.261,0,0,1-1.164,1.979,3.491,3.491,0,0,1,1.727-.493A1.507,1.507,0,0,1,228.511,7c.864-.42,1.643-.719,2.291-1.019.336-.156.611-.277.924-.444l.347.8c-.288.084-.683.24-1,.361-.7.275-1.6.635-2.531,1.079.013.7.024,1.739.036,2.339h-.827c.023-.48.036-1.308.036-1.956-1.151.612-1.979,1.272-1.979,2.1,0,.983.983,1.128,2.23,1.128a21.336,21.336,0,0,0,3.263-.288l-.036.863a28.17,28.17,0,0,1-3.262.2c-1.68,0-3.047-.347-3.047-1.787,0-1.4,1.4-2.278,2.818-3.01a1.012,1.012,0,0,0-1.127-.8,3.244,3.244,0,0,0-2.1.875,15.474,15.474,0,0,0-1.092,1.248l-.732-.54a12.186,12.186,0,0,0,2.783-3.742h-.575c-.516,0-1.3-.024-1.968-.06V3.536a17.676,17.676,0,0,0,2.015.131c.264,0,.539,0,.828-.012a5.928,5.928,0,0,0,.311-1.523L227,2.2A10.862,10.862,0,0,1,226.641,3.631Z"/><path d="M237.2,1.9a19.648,19.648,0,0,1-.972,2.327v8.348h-.767V5.634a13.714,13.714,0,0,1-1.224,1.691,4.336,4.336,0,0,0-.443-.791,13.61,13.61,0,0,0,2.662-4.822Zm7.388.492V12.458h-.756v-.612H238.4v.708h-.744V2.4Zm-.756,8.743V3.091H238.4v8.048Zm-2.362-5.625V6.881h1.415v3.191h-3.43V6.881h1.355V5.514h-1.883V4.878h1.883V3.511h.66V4.878h1.93v.636Zm.779,1.979h-2.171V9.472h2.171Z"/><path d="M251.492,7.4s0,.252-.013.36c-.131,3-.251,4.089-.575,4.449a1.009,1.009,0,0,1-.756.325,13.129,13.129,0,0,1-1.475-.025,1.532,1.532,0,0,0-.228-.7c.612.048,1.2.048,1.415.048s.3,0,.409-.12c.227-.241.347-1.176.456-3.622h-2.087a6.99,6.99,0,0,1-2.087,4.485,1.832,1.832,0,0,0-.552-.539c1.631-1.308,1.942-3.815,2.063-6.009h-1.32V2.192h4.678V6.054h-2.579c-.036.443-.06.9-.108,1.343Zm-4.018-2.063h3.178V2.912h-3.178Zm5.217-2.255h.78V9.652h-.78Zm3.742-1.2v9.607c0,.563-.168.815-.516.947a7.915,7.915,0,0,1-2.122.145,3.818,3.818,0,0,0-.3-.792c.864.024,1.608.011,1.836.011s.312-.084.312-.311V1.88Z"/><path d="M260.457,3.427a27.79,27.79,0,0,0-.6,4.642,15.672,15.672,0,0,0,.121,1.835c.2-.564.5-1.344.708-1.847l.467.348a25.137,25.137,0,0,0-.851,2.65,2.974,2.974,0,0,0-.061.527c.013.132.036.288.048.409l-.768.059a15.209,15.209,0,0,1-.443-3.849,34.119,34.119,0,0,1,.552-4.822,6.054,6.054,0,0,0,.072-.792l.959.084C260.6,2.875,260.505,3.211,260.457,3.427Zm2.771,6.152c0,.552.372,1.128,2.086,1.128a12.337,12.337,0,0,0,2.963-.324l.024.9a15.071,15.071,0,0,1-2.974.252c-2,0-2.89-.648-2.89-1.763a6.922,6.922,0,0,1,.191-1.38l.78.072A4.276,4.276,0,0,0,263.228,9.579Zm4.689-5.959v.863a27.821,27.821,0,0,1-4.881,0l-.012-.863A19.727,19.727,0,0,0,267.917,3.62Z"/><path d="M274.76,4.29h-4.7V3.643h4.7Zm-.48,7.58h-2.962v.577h-.708V8.428h3.67Zm-3.658-6.631h3.694v.647h-3.694Zm0,1.594h3.694v.648h-3.694Zm3.694-4.114h-3.633V2.072h3.633Zm-3,6.381v2.123h2.243V9.1Zm9.811-2.578h-2.723v6.044h-.8V6.522H274.76v-.78H277.6V1.676h.8V5.742h2.723Z"/><path d="M292.865,10.539H290.1v2.015h-.8V10.539h-3.322c-.3.744-1.092,1.475-3.011,2.051a2.937,2.937,0,0,0-.5-.6,4.122,4.122,0,0,0,2.615-1.452h-2.818V9.868h3.082c.012-.121.023-.252.023-.348V8.764h-1.642V4.351h1.343a7.264,7.264,0,0,0-.623-1.128h-.684a8.76,8.76,0,0,1-1.08,1.308,4.337,4.337,0,0,0-.648-.444A6.615,6.615,0,0,0,283.773,1.6l.745.192c-.109.264-.241.516-.372.768h3.25v.659h-2.135a5.245,5.245,0,0,1,.492.876l-.66.252h2.35a5.227,5.227,0,0,0-.659-.384A5.66,5.66,0,0,0,288.439,1.6l.755.168a6.446,6.446,0,0,1-.347.792h3.91v.659H290.37a5.981,5.981,0,0,1,.611.84l-.623.288h1.223V8.764H290.1v1.1h2.77Zm-8.36-4.9h6.261V4.9h-6.261Zm0,1.272h6.261V6.173h-6.261Zm0,1.306h6.261V7.445h-6.261Zm4.786,1.656v-1.1H286.16v.779a3.166,3.166,0,0,1-.012.325Zm-.84-6.645a6.525,6.525,0,0,1-.959,1.128H290.3a5.852,5.852,0,0,0-.816-1.128Z"/><path class="cls-4" d="M65.6,189.578c-.156-.372-.5-1.02-.816-1.583v5.457H63.756v-5.074a11.2,11.2,0,0,1-1.284,2.879,5.646,5.646,0,0,0-.527-.96,12.8,12.8,0,0,0,1.715-4.281H62.2v-1.032h1.56v-2.53h1.031v2.53H66.07v1.032H64.787v.659c.324.432,1.212,1.775,1.4,2.087Zm3.19,1.679c-.9.528-1.883,1.079-2.675,1.511l-.5-.936c.743-.336,1.823-.911,2.89-1.487Zm2.29-.9a5.013,5.013,0,0,0,2.124,1.679,4.291,4.291,0,0,0-.7.9,5.973,5.973,0,0,1-2.423-2.483v1.835c0,.54-.108.828-.456,1.008a4.2,4.2,0,0,1-1.631.179,4.067,4.067,0,0,0-.3-1.007c.467.024.959.024,1.115.012s.192-.048.192-.192v-4.306H66.07v-.935h2.939V186.3H66.658v-.852h2.351v-.672H66.322v-.9H67.7a8.65,8.65,0,0,0-.54-1.1l.875-.3a6.075,6.075,0,0,1,.7,1.356l-.132.048h1.763a10.282,10.282,0,0,0,.624-1.451l1.115.3c-.24.408-.48.816-.7,1.152h1.4v.9H70.088v.672h2.447v.852H70.088v.743h2.9v.935h-2.9v.5a8.09,8.09,0,0,0,.612,1.307,10.733,10.733,0,0,0,1.331-1.475l.852.6a15.164,15.164,0,0,1-1.619,1.571Zm-3.909-1.991a9.094,9.094,0,0,1,1.211,1.5l-.816.563a9.8,9.8,0,0,0-1.163-1.559Z"/><path class="cls-4" d="M83.767,185.787a19.39,19.39,0,0,1-2.53,4.69,9.883,9.883,0,0,1,1.583,1.248l-.792,1.067a16.747,16.747,0,0,0-4.546-3.059l.708-.935a21.515,21.515,0,0,1,2.015,1.044,16.473,16.473,0,0,0,1.895-3.335H78.322a13.9,13.9,0,0,1-2.578,3.646,7.3,7.3,0,0,0-1.068-.647,14.944,14.944,0,0,0,3.742-6.5l1.248.288c-.228.672-.492,1.379-.8,2.075H82.7l.216-.048Z"/><path class="cls-4" d="M90.622,184.7a11.345,11.345,0,0,0,1.763-.408l.036,1.1a16.091,16.091,0,0,1-2.147.432,21.463,21.463,0,0,1-2.6,5.1l-1.151-.588a18.015,18.015,0,0,0,2.518-4.378c-.3.013-.588.024-.875.024-.456,0-.96-.011-1.44-.035l-.084-1.116c.468.048,1.044.072,1.524.072.395,0,.815-.012,1.235-.048a9.774,9.774,0,0,0,.348-2.051l1.319.132C90.97,183.353,90.8,184.025,90.622,184.7Zm3.262,3.359c.012.395.048,1.091.084,1.774a7.814,7.814,0,0,1,2.483,1.512l-.636,1.019a9.282,9.282,0,0,0-1.8-1.343v.335c0,1.02-.612,1.848-2.2,1.848-1.391,0-2.518-.6-2.518-1.848,0-1.127,1.019-1.919,2.507-1.919a7.015,7.015,0,0,1,1.019.084c-.036-.947-.1-2.074-.12-2.866h1.175C93.86,187.155,93.872,187.575,93.884,188.055Zm-2.218,4.053c.911,0,1.211-.5,1.211-1.151,0-.108,0-.252-.012-.408a4.176,4.176,0,0,0-1.115-.156c-.792,0-1.332.36-1.332.852C90.418,191.761,90.85,192.108,91.666,192.108Zm1.667-6.68.611-.924a21.227,21.227,0,0,1,2.879,1.608l-.684,1A15.271,15.271,0,0,0,93.333,185.428Z"/><path class="cls-4" d="M104.433,186.927a8.463,8.463,0,0,0,4.593,5.469,4.424,4.424,0,0,0-.827,1.043,9.183,9.183,0,0,1-4.63-5.528,8.292,8.292,0,0,1-4.629,5.528,3.908,3.908,0,0,0-.852-.935,7.461,7.461,0,0,0,4.5-5.577H98.329v-1.151h4.461a30.059,30.059,0,0,0,.144-3.31h1.211a30.481,30.481,0,0,1-.167,3.31h4.833v1.151Z"/><path class="cls-4" d="M114.154,191.677a21.477,21.477,0,0,0-1.4-1.884,5.926,5.926,0,0,1-1.991,3.515,3.964,3.964,0,0,0-.767-.792,5.654,5.654,0,0,0,1.943-4.39h-1.824v-1.019h1.86v-1.751H110.34v-1h1.632v-1.786h1.043v1.786h1.607v1h-1.607v1.751h1.811v1.019h-1.847c-.012.168-.036.348-.048.516.492.48,1.7,1.859,1.991,2.219Zm5.769.587c.216,0,.264-.168.3-1.511a2.534,2.534,0,0,0,.911.42c-.084,1.655-.347,2.074-1.115,2.074h-.888c-.923,0-1.115-.323-1.115-1.307v-2.326h-.863a4.028,4.028,0,0,1-2.843,3.838,2.947,2.947,0,0,0-.623-.828,3.139,3.139,0,0,0,2.41-3.01h-.863V182.9H120.4v6.717h-1.355v2.314c0,.3.035.336.264.336Zm-3.646-7.412h3.058v-.947h-3.058Zm0,1.883h3.058v-.983h-3.058Zm0,1.871h3.058v-.971h-3.058Z"/><path class="cls-4" d="M125.375,189.266c-.144-.4-.456-1.032-.744-1.607v5.8h-1.055v-4.809a11.6,11.6,0,0,1-1.08,2.507,7.382,7.382,0,0,0-.563-1.1,12.615,12.615,0,0,0,1.643-4.174v-.132h-1.4V184.72h1.4v-2.266h1.055v2.266h1.163v1.032h-1.163v.468c.324.455,1.223,1.882,1.428,2.242Zm5.049,1.631a4.125,4.125,0,0,0,2.722,1.631,3.492,3.492,0,0,0-.683.935,4.66,4.66,0,0,1-3.07-2.434c-.48,1.151-1.464,1.943-3.478,2.446a3.4,3.4,0,0,0-.564-.9c1.631-.336,2.459-.888,2.9-1.679h-2.53v-.936h2.866a6.162,6.162,0,0,0,.144-.863H126.37V185.32h5.889V189.1h-2.435c-.036.312-.072.587-.12.863h3.143v.936Zm-2.879-6.609h-1.583v-.923h1.583v-.9H128.6v.9h1.631v-.9h1.08v.9h1.522v.923h-1.522v.816h-1.08v-.816H128.6v.816h-1.056Zm-.131,2.531h3.766v-.683h-3.766Zm0,1.475h3.766v-.707h-3.766Z"/><path class="cls-4" d="M137.6,189.662c-.156-.384-.5-1.044-.816-1.607v5.4h-1.031v-5.074a11.2,11.2,0,0,1-1.284,2.879,5.646,5.646,0,0,0-.527-.96,12.8,12.8,0,0,0,1.715-4.281H134.2v-1.032h1.56v-2.53h1.031v2.53h1.283v1.032h-1.283v.707c.336.444,1.223,1.8,1.415,2.123Zm7.555,1.882h-.707v.792c0,.5-.108.756-.456.924a5.362,5.362,0,0,1-1.655.144,4.174,4.174,0,0,0-.3-.9c.5.024,1.02.024,1.175.012s.192-.048.192-.192v-.78h-3.754v1.86h-1.019v-1.86h-.768v-.839h.768v-3h2.351v-.587H138.07v-.828h1.572v-.671h-1.056v-.78h1.056v-.659h-1.308v-.8h1.308v-.923h1.043v.923h1.643v-.923h1.044v.923H144.8v.8h-1.427v.659h1.247v.78h-1.247v.671h1.667v.828h-3.047v.587h2.459v3h.707Zm-5.5-3.034v.684h1.332v-.684Zm0,2.2h1.332v-.744h-1.332Zm1.032-5.865h1.643v-.659h-1.643Zm0,1.451h1.643v-.671h-1.643Zm1.307,2.219v.684h1.415v-.684Zm1.415,2.2v-.744h-1.415v.744Z"/><path class="cls-4" d="M148.8,190.9a3.26,3.26,0,0,0,2.83,1.259c1.332.048,3.994.012,5.494-.084a5.135,5.135,0,0,0-.373,1.14c-1.354.059-3.765.084-5.132.024a4.107,4.107,0,0,1-3.311-1.38c-.563.492-1.139.972-1.763,1.488l-.575-1.152a18.368,18.368,0,0,0,1.739-1.235v-2.818h-1.536v-1.032H148.8Zm-.551-5.6a9.028,9.028,0,0,0-2-1.895l.827-.672a9.463,9.463,0,0,1,2.051,1.835Zm2.626-.456a8.2,8.2,0,0,1-.852,1.152,6.016,6.016,0,0,0-.947-.54,6.992,6.992,0,0,0,1.715-2.854l1.043.227a10.022,10.022,0,0,1-.432,1.056h1.152v-1.427h1.1v1.427H156.4v.959h-2.747v1.3h3.251v.947h-7.652v-.947h3.3v-1.3Zm-.6,6.465V187.9h5.841v3.407Zm1.092-.912h3.586V188.8h-3.586Z"/><path class="cls-4" d="M162.754,183.941c-.072.371-.18.947-.288,1.511.492-.048.924-.072,1.2-.072,1.164,0,2.039.468,2.039,2.147a11.624,11.624,0,0,1-.683,4.353,1.765,1.765,0,0,1-1.847,1.044,6.738,6.738,0,0,1-1.427-.168l-.192-1.247a6.279,6.279,0,0,0,1.463.239.939.939,0,0,0,.983-.575,9.745,9.745,0,0,0,.54-3.514c0-1.032-.468-1.212-1.224-1.212-.252,0-.647.025-1.1.072a25,25,0,0,1-2.483,6.453l-1.235-.492a19.025,19.025,0,0,0,2.5-5.841c-.552.06-1.044.12-1.319.156-.3.036-.852.108-1.188.168l-.12-1.295c.408.024.756.012,1.164,0,.384-.012,1.031-.06,1.715-.12a13.394,13.394,0,0,0,.276-2.579l1.4.144C162.862,183.365,162.8,183.677,162.754,183.941Zm6.452,4.749-1.186.552a14.322,14.322,0,0,0-2.076-4.438l1.116-.479A20.8,20.8,0,0,1,169.206,188.69Z"/><path class="cls-4" d="M172.967,188.414a5.776,5.776,0,0,1,3.742-1.331c1.955,0,3.178,1.187,3.178,2.615,0,2.158-1.823,3.717-6.512,3.322l-.36-1.235c3.706.467,5.577-.528,5.577-2.111,0-.888-.827-1.524-1.979-1.524a4.5,4.5,0,0,0-3.538,1.524,2.422,2.422,0,0,0-.408.635l-1.1-.264a44.669,44.669,0,0,0,.613-4.929l1.27.168C173.278,186.039,173.075,187.683,172.967,188.414Zm5.3-4.485-.276,1.163c-1.176-.156-3.813-.707-4.737-.948l.3-1.139A35.126,35.126,0,0,0,178.268,183.929Z"/><path class="cls-4" d="M188.014,192.972l-.708-1.127a7.69,7.69,0,0,0,1.067-.168,3.45,3.45,0,0,0,2.9-3.407,3.188,3.188,0,0,0-2.9-3.346,23.84,23.84,0,0,1-.72,3.37c-.719,2.447-1.715,3.8-2.9,3.8s-2.278-1.319-2.278-3.322a5.2,5.2,0,0,1,5.36-4.989,4.44,4.44,0,0,1,4.7,4.522C192.535,190.825,190.928,192.552,188.014,192.972Zm-3.227-2.3c.54,0,1.1-.779,1.655-2.627a19.057,19.057,0,0,0,.66-3.094,4.009,4.009,0,0,0-3.418,3.706C183.684,190.034,184.271,190.669,184.787,190.669Z"/><path class="cls-4" d="M204.259,185.692a13.875,13.875,0,0,1-1.295,4.641,5.747,5.747,0,0,0,2.182,2.171,4.293,4.293,0,0,0-.779.959,6.322,6.322,0,0,1-2.039-2.1,7.324,7.324,0,0,1-2.423,2.123,4.58,4.58,0,0,0-.635-.96.768.768,0,0,1-.42.756,3.938,3.938,0,0,1-1.523.168,3,3,0,0,0-.312-.924c.456.024.912.012,1.031.012s.181-.048.181-.18v-.827h-2.351v1.919h-1.032v-5.817h4.426v4.881a6.266,6.266,0,0,0,2.482-2.243,14.787,14.787,0,0,1-.936-2.878,8.138,8.138,0,0,1-.695,1.295,6.607,6.607,0,0,0-.743-.959,5.473,5.473,0,0,0,.443-.78h-5.768v-.935h1.319v-1.248h-1.14v-.935h1.14v-1.259h1.02v1.259h1.319v-1.259h1.031v1.259h1.152v.935h-1.152v1.248h1.139v.815a15.35,15.35,0,0,0,1.1-4.377l1.092.155c-.108.7-.216,1.38-.372,2.039h3.347v1.044Zm-8.383,2.806v.684h2.351V188.5Zm2.351,2.2V190h-2.351v.7Zm-1.835-4.677h1.319v-1.248h-1.319Zm5.024-.288a15.809,15.809,0,0,0,.936,3.37,13.79,13.79,0,0,0,.8-3.406h-1.726Z"/><path class="cls-4" d="M209.759,185.764h2.53v1.007h-2.53v1.8h2.1v4.546h-1.091v-.36H207.66v.456h-1.044V188.57h2.063v-1.8h-2.651v-1.007h2.651v-1.631c-.732.108-1.463.179-2.158.252a4.1,4.1,0,0,0-.313-.888,25.615,25.615,0,0,0,5.038-.96l.839.864a17.046,17.046,0,0,1-2.326.552Zm1.007,3.8H207.66v2.206h3.106Zm4.773,2.722c.4,0,.468-.443.528-2.219a2.972,2.972,0,0,0,1,.492c-.109,2.027-.36,2.759-1.427,2.759h-1.464c-1.1,0-1.4-.372-1.4-1.751v-8.948h1.1v8.959c0,.612.061.708.456.708Z"/><path class="cls-4" d="M220.127,187.839a13.036,13.036,0,0,0-2.122-1.26l.623-.827a14.661,14.661,0,0,1,2.147,1.163Zm.96,1.667c-.527,1.247-1.211,2.686-1.823,3.814l-.984-.672a35.669,35.669,0,0,0,1.955-3.814Zm-.348-4.81a14.029,14.029,0,0,0-2.063-1.331l.636-.8A14.511,14.511,0,0,1,221.4,183.8Zm7.5,2.627a9.07,9.07,0,0,1-1.931,3.79,7.721,7.721,0,0,0,2.806,1.391,3.719,3.719,0,0,0-.719.959,8.4,8.4,0,0,1-2.867-1.583,8.55,8.55,0,0,1-2.722,1.608,4.5,4.5,0,0,0-.707-.936,8.2,8.2,0,0,0,2.674-1.427,9.683,9.683,0,0,1-1.8-3.083h-.12a10.024,10.024,0,0,1-1.488,5.41,3.654,3.654,0,0,0-.947-.552c1.26-1.667,1.38-4.042,1.38-5.769v-3.022h2.818v-1.655H225.7v1.655h2.327l.192-.036.8.2a16.331,16.331,0,0,1-1,2.458l-.947-.276c.155-.347.335-.827.5-1.307H225.7v1.907h1.619l.216-.048Zm-5.373-2.171v1.907h1.751v-1.907Zm1.163,2.89a7.772,7.772,0,0,0,1.488,2.339,7.052,7.052,0,0,0,1.367-2.339Z"/><path class="cls-4" d="M234.886,184.265a27.634,27.634,0,0,0,3.526-.348v1.115a37.039,37.039,0,0,1-3.946.312,9.575,9.575,0,0,1-.923,1.583,3.517,3.517,0,0,1,1.535-.36,1.579,1.579,0,0,1,1.607,1.02c.744-.348,1.355-.6,1.919-.864.408-.18.755-.335,1.139-.527l.492,1.1c-.348.108-.864.3-1.223.444-.612.239-1.392.551-2.231.935.012.684.024,1.643.035,2.219h-1.138c.023-.42.036-1.1.048-1.691-1.032.563-1.68,1.115-1.68,1.823,0,.816.78.983,1.991.983a20.507,20.507,0,0,0,3.334-.311l-.035,1.211a30.538,30.538,0,0,1-3.335.216c-1.787,0-3.178-.42-3.178-1.907s1.44-2.411,2.83-3.119a.965.965,0,0,0-.983-.6,3.06,3.06,0,0,0-1.991.863,12.919,12.919,0,0,0-1.091,1.284l-1.031-.768a12.058,12.058,0,0,0,2.71-3.5h-.348c-.5,0-1.331-.024-2-.072v-1.127a15.49,15.49,0,0,0,2.063.131c.228,0,.467,0,.708-.011a6.025,6.025,0,0,0,.276-1.428l1.247.1C235.138,183.305,235.042,183.749,234.886,184.265Z"/><path class="cls-4" d="M244.511,185.644a8.325,8.325,0,0,1-1.763,2.734,10.08,10.08,0,0,0-.863-.672,6.135,6.135,0,0,0,1.583-2.326Zm2.315,1.955a13.183,13.183,0,0,1-.8,2.1,12.177,12.177,0,0,1,1.368,1.427l-.72.911a11.128,11.128,0,0,0-1.211-1.379,8.914,8.914,0,0,1-2.783,2.782,5.8,5.8,0,0,0-.768-.887,7.271,7.271,0,0,0,2.747-2.651c-.492-.455-1.019-.887-1.511-1.271l.648-.767c.443.323.911.695,1.379,1.091a10.871,10.871,0,0,0,.563-1.583Zm1.127-2.567H242.16v-1.007h2.4V182.5h1.09v1.524h2.3ZM247.126,188a9.61,9.61,0,0,0-1.392-2.291l.876-.432a8.578,8.578,0,0,1,1.439,2.219Zm5.625-2.855s0,.384-.013.528c-.107,4.953-.2,6.656-.587,7.172a1.039,1.039,0,0,1-.864.5,8.856,8.856,0,0,1-1.522.024,2.914,2.914,0,0,0-.313-1.044c.588.048,1.1.06,1.332.06a.432.432,0,0,0,.432-.2c.263-.324.384-1.847.479-5.973h-1.5c-.156,3.071-.672,5.662-2.531,7.292a3.406,3.406,0,0,0-.815-.791c1.7-1.44,2.171-3.742,2.291-6.5h-1.308V185.14h1.344c.023-.815.023-1.667.023-2.542h1.068c0,.875-.012,1.714-.036,2.542Z"/><path class="cls-4" d="M256.931,188.5c-.78.372-1.583.744-2.243,1.044l-.54-.912c.756-.252,1.9-.707,3-1.163l.2.84-.2.095.756-.036c.264-.251.552-.539.84-.839a16.729,16.729,0,0,0-1.691-1.26l.54-.623c.107.06.2.12.323.192.252-.348.516-.756.72-1.1H254.6v-1.019h4.33v-1.259h1.151v1.259h4.45v1.019h-5.05l.252.1c-.372.492-.8,1.02-1.163,1.439.276.192.552.4.78.576a17.839,17.839,0,0,0,1.175-1.487l.887.408c-.707.827-1.57,1.775-2.386,2.554l1.691-.084c-.18-.276-.384-.551-.575-.791l.8-.348c.2.252.432.528.635.816l.684-.552a16.575,16.575,0,0,1,2.638,1.583l-.827.7a13.876,13.876,0,0,0-2.4-1.572,6.058,6.058,0,0,1,.683,1.188l-.851.42a5.186,5.186,0,0,0-.313-.648c-1.486.12-2.962.228-4.113.312Zm3.154,1.655h4.8v1.032h-4.8v2.29h-1.151v-2.29h-4.7v-1.032h4.7v-.863h1.151Zm-4.81-5.025a9.848,9.848,0,0,1,1.884,1.26l-.78.671a11.552,11.552,0,0,0-1.835-1.331Zm6.465,1.367a11.8,11.8,0,0,0,1.739-1.511l1,.492a14.052,14.052,0,0,1-1.919,1.463Z"/><path class="cls-4" d="M276.7,184.312s0,.384-.013.528c-.168,5.409-.311,7.268-.791,7.868a1.331,1.331,0,0,1-1.044.563,12.561,12.561,0,0,1-1.81,0,2.614,2.614,0,0,0-.36-1.079c.767.06,1.463.072,1.763.072a.536.536,0,0,0,.5-.2c.385-.4.54-2.207.7-6.728h-2.831a12.057,12.057,0,0,1-1.09,2.015,5.887,5.887,0,0,0-.876-.624v5.5H267.6v.912h-1.02v-8.768h1.344a14.189,14.189,0,0,0,.42-1.942l1.211.2c-.2.6-.432,1.235-.624,1.738h1.919v2.267a11.443,11.443,0,0,0,1.787-4.209l1.08.252c-.145.551-.3,1.1-.492,1.63Zm-9.1,1.032v2.279h2.23v-2.279Zm2.23,5.9v-2.651H267.6v2.651Zm3.994-.936a19.514,19.514,0,0,0-1.751-2.77l.876-.492a21.56,21.56,0,0,1,1.811,2.675Z"/><path class="cls-4" d="M280.631,184.336a28.886,28.886,0,0,0-.588,4.522,11.809,11.809,0,0,0,.072,1.283c.2-.491.445-1.079.636-1.523l.6.48c-.312.911-.732,2.195-.852,2.794a2.4,2.4,0,0,0-.06.552c0,.12.012.3.024.444l-1.091.072a15.237,15.237,0,0,1-.444-3.874,34.758,34.758,0,0,1,.515-4.785,8.5,8.5,0,0,0,.109-1l1.331.12A8.589,8.589,0,0,0,280.631,184.336Zm2.867,6.009c0,.54.419.984,1.87.984a12.857,12.857,0,0,0,2.986-.324l.025,1.283a16.448,16.448,0,0,1-3.034.24c-2.039,0-2.975-.708-2.975-1.871a6.064,6.064,0,0,1,.2-1.475l1.079.1A4.2,4.2,0,0,0,283.5,190.345Zm4.509-6.057v1.224a30.559,30.559,0,0,1-5.026,0l-.011-1.224A22.087,22.087,0,0,0,288.007,184.288Z"/><path class="cls-4" d="M294.813,185.32h-4.785v-.887h4.785Zm-.491,7.484h-2.77v.5h-.984v-4.03h3.754Zm-3.73-6.741h3.766v.864h-3.766Zm0,1.6h3.766v.875h-3.766Zm3.778-3.934h-3.706v-.875h3.706Zm-2.818,6.452V191.9h1.775v-1.727Zm9.619-2.59H298.58v5.865h-1.128v-5.865h-2.674v-1.1h2.674V182.49h1.128v3.993h2.591Z"/><path class="cls-4" d="M312.9,191.485h-2.639v1.967H309.1v-1.967H306.13c-.312.755-1.127,1.475-3.01,1.99a4.144,4.144,0,0,0-.708-.827,4.175,4.175,0,0,0,2.423-1.163h-2.591v-.9h2.939v-.911h-1.536v-4.486h1.26a6.727,6.727,0,0,0-.528-.995h-.468a7.866,7.866,0,0,1-1.055,1.235,6.324,6.324,0,0,0-.9-.624,6.589,6.589,0,0,0,1.8-2.411l1.031.276c-.1.216-.2.408-.311.624h2.9v.876a5.467,5.467,0,0,0,1.091-1.776l1.08.241a6.861,6.861,0,0,1-.3.659h3.573v.9h-2.038a6.925,6.925,0,0,1,.48.659l-.732.336h1.152v4.486h-1.428v.911H312.9Zm-8.12-5.026h5.733V185.9h-5.733Zm0,1.247h5.733v-.587h-5.733Zm0,1.272h5.733v-.6h-5.733Zm.744-4.785a6.432,6.432,0,0,1,.395.719l-.755.276h2.494a6.2,6.2,0,0,0-.863-.468,2.915,2.915,0,0,0,.564-.527Zm3.585,6.392v-.911h-2.793v.911Zm-.407-6.392a5.783,5.783,0,0,1-.84.995h2.4a6.411,6.411,0,0,0-.72-.995Z"/><line class="cls-5" x1="47.267" y1="62.956" x2="75.159" y2="112.604"/><polygon class="cls-6" points="72.356 112.36 78.63 118.783 76.409 110.083 72.356 112.36"/><line class="cls-5" x1="135.364" y1="62.956" x2="100.822" y2="112.951"/><polygon class="cls-6" points="99.811 110.326 96.793 118.783 103.635 112.968 99.811 110.326"/><line class="cls-5" x1="227.438" y1="62.956" x2="121.757" y2="115.621"/><polygon class="cls-6" points="122.139 112.834 115.413 118.783 124.212 116.995 122.139 112.834"/><line class="cls-5" x1="312.63" y1="62.956" x2="142.124" y2="116.654"/><polygon class="cls-6" points="142.938 113.961 135.364 118.783 144.334 118.394 142.938 113.961"/><line class="cls-5" x1="325.63" y1="62.956" x2="297.738" y2="112.604"/><polygon class="cls-6" points="296.488 110.083 294.267 118.783 300.541 112.36 296.488 110.083"/><line class="cls-5" x1="237.533" y1="62.956" x2="272.075" y2="112.951"/><polygon class="cls-6" points="269.262 112.968 276.104 118.783 273.086 110.326 269.262 112.968"/><line class="cls-5" x1="145.459" y1="62.956" x2="251.14" y2="115.621"/><polygon class="cls-6" points="248.685 116.995 257.484 118.783 250.758 112.834 248.685 116.995"/><line class="cls-5" x1="60.267" y1="62.956" x2="230.773" y2="116.654"/><polygon class="cls-6" points="228.563 118.394 237.533 118.783 229.959 113.961 228.563 118.394"/></svg>