<svg id="レイヤー_1" data-name="レイヤー 1" xmlns="http://www.w3.org/2000/svg" viewBox="0 0 378 200"><defs><style>.cls-1{fill:#8dbfff;}.cls-2,.cls-5,.cls-6{fill:none;stroke-miterlimit:10;}.cls-2{stroke:#0000a0;}.cls-3{fill:red;}.cls-4{fill:#0040a7;}.cls-5,.cls-6{stroke:#000;}.cls-6{stroke-width:0.75px;}.cls-7{isolation:isolate;}.cls-8{fill:#585858;}</style></defs><path class="cls-1" d="M362.761,95.347v21.019H337.309V95.347H310.344v21.019H283.378V95.347H256.413v21.019H229.448V95.347H202.483c-2.357,6.721-7.011,12.567-9.374,10.509-1.991-1.733-4.109-5.012-8.87-3.447-2.9.953-6.343-4.3-8.722-7.062H148.552v21.019H121.587V95.347H94.622v21.019H67.657V95.347H40.691v21.019H13.726V95.347H1v43.7H377v-43.7Z"/><path class="cls-2" d="M377,95.347H362.761v21.019H337.309V95.347H310.344v21.019H283.378V95.347H256.413v21.019H229.448V95.347H202.483c-2.357,6.721-7.011,12.567-9.374,10.509-1.991-1.733-4.109-5.012-8.87-3.447-2.9.953-6.343-4.3-8.722-7.062H148.552v21.019H121.587V95.347H94.622v21.019H67.657V95.347H40.691v21.019H13.726V95.347H1"/><path class="cls-3" d="M18.265,155.117v-7.158h5.307v1.211H19.71v1.587H23.3v1.206H19.71v1.948h4v1.206Z"/><path class="cls-3" d="M24.441,153.637l1.377-.21a1.008,1.008,0,0,0,.357.608,1.2,1.2,0,0,0,.752.208,1.362,1.362,0,0,0,.8-.195.439.439,0,0,0,.18-.367.362.362,0,0,0-.1-.258,1.1,1.1,0,0,0-.459-.181,7.391,7.391,0,0,1-2.105-.669,1.336,1.336,0,0,1-.615-1.167,1.438,1.438,0,0,1,.532-1.133,2.485,2.485,0,0,1,1.65-.459,2.879,2.879,0,0,1,1.582.347,1.767,1.767,0,0,1,.713,1.025l-1.294.239a.8.8,0,0,0-.315-.463,1.144,1.144,0,0,0-.661-.162,1.487,1.487,0,0,0-.776.152.324.324,0,0,0-.157.278.3.3,0,0,0,.137.249,5.108,5.108,0,0,0,1.282.386,3.819,3.819,0,0,1,1.53.61,1.268,1.268,0,0,1,.43,1.021,1.565,1.565,0,0,1-.6,1.225,2.633,2.633,0,0,1-1.762.513,2.884,2.884,0,0,1-1.677-.43A1.978,1.978,0,0,1,24.441,153.637Z"/><path class="cls-3" d="M32.864,149.931v1.094h-.937v2.09a5.177,5.177,0,0,0,.027.74.3.3,0,0,0,.122.173.388.388,0,0,0,.232.068,1.785,1.785,0,0,0,.551-.131l.118,1.064a2.725,2.725,0,0,1-1.084.205,1.716,1.716,0,0,1-.669-.124.969.969,0,0,1-.437-.323,1.259,1.259,0,0,1-.193-.534,6.552,6.552,0,0,1-.044-.967v-2.261h-.63v-1.094h.63V148.9l1.377-.8v1.831Z"/><path class="cls-3" d="M33.816,149.228v-1.269h1.372v1.269Zm0,5.889v-5.186h1.372v5.186Z"/><path class="cls-3" d="M36.492,149.931h1.265v.708a2.034,2.034,0,0,1,1.616-.825,1.747,1.747,0,0,1,.864.205,1.576,1.576,0,0,1,.6.62,2.4,2.4,0,0,1,.737-.62,1.821,1.821,0,0,1,.845-.205,1.879,1.879,0,0,1,.967.232,1.432,1.432,0,0,1,.591.681,2.967,2.967,0,0,1,.141,1.074v3.316H42.747v-2.964a2.2,2.2,0,0,0-.142-1,.649.649,0,0,0-.585-.293.936.936,0,0,0-.542.176.973.973,0,0,0-.367.515A3.737,3.737,0,0,0,41,152.627v2.49H39.627v-2.842a3.932,3.932,0,0,0-.073-.976.629.629,0,0,0-.227-.328.725.725,0,0,0-.418-.107,1,1,0,0,0-.571.171.932.932,0,0,0-.364.493,3.671,3.671,0,0,0-.11,1.069v2.52H36.492Z"/><path class="cls-3" d="M46.512,151.513l-1.245-.224a1.938,1.938,0,0,1,.722-1.114,2.654,2.654,0,0,1,1.524-.361,3.279,3.279,0,0,1,1.367.217,1.366,1.366,0,0,1,.632.552,2.833,2.833,0,0,1,.183,1.228l-.014,1.6a5.552,5.552,0,0,0,.066,1.008,2.98,2.98,0,0,0,.246.7H48.636q-.054-.136-.132-.405c-.023-.082-.039-.136-.049-.162a2.451,2.451,0,0,1-.752.513,2.153,2.153,0,0,1-.854.171,1.772,1.772,0,0,1-1.263-.434,1.447,1.447,0,0,1-.461-1.1,1.477,1.477,0,0,1,.21-.784,1.375,1.375,0,0,1,.588-.527,4.615,4.615,0,0,1,1.092-.32,7.56,7.56,0,0,0,1.333-.337V151.6a.71.71,0,0,0-.2-.564,1.172,1.172,0,0,0-.737-.168.98.98,0,0,0-.571.144A1,1,0,0,0,46.512,151.513Zm1.836,1.114q-.264.087-.835.21a2.505,2.505,0,0,0-.747.239.57.57,0,0,0-.269.483.674.674,0,0,0,.215.5.75.75,0,0,0,.547.21,1.188,1.188,0,0,0,.708-.244.856.856,0,0,0,.327-.454,2.694,2.694,0,0,0,.054-.669Z"/><path class="cls-3" d="M53.426,149.931v1.094h-.938v2.09a5.177,5.177,0,0,0,.027.74.3.3,0,0,0,.122.173.393.393,0,0,0,.232.068,1.8,1.8,0,0,0,.552-.131l.117,1.064a2.721,2.721,0,0,1-1.084.205,1.723,1.723,0,0,1-.669-.124.975.975,0,0,1-.437-.323,1.272,1.272,0,0,1-.193-.534,6.7,6.7,0,0,1-.044-.967v-2.261h-.63v-1.094h.63V148.9l1.377-.8v1.831Z"/><path class="cls-3" d="M54.378,149.228v-1.269H55.75v1.269Zm0,5.889v-5.186H55.75v5.186Z"/><path class="cls-3" d="M56.839,152.451a2.8,2.8,0,0,1,.337-1.323,2.312,2.312,0,0,1,.954-.977,2.831,2.831,0,0,1,1.38-.337,2.589,2.589,0,0,1,1.928.764,2.639,2.639,0,0,1,.752,1.931,2.668,2.668,0,0,1-.759,1.951,2.565,2.565,0,0,1-1.911.774,3.006,3.006,0,0,1-1.36-.322,2.211,2.211,0,0,1-.984-.945A3.142,3.142,0,0,1,56.839,152.451Zm1.406.073a1.721,1.721,0,0,0,.366,1.182,1.2,1.2,0,0,0,1.8,0,1.747,1.747,0,0,0,.363-1.192,1.715,1.715,0,0,0-.363-1.172,1.2,1.2,0,0,0-1.8,0A1.721,1.721,0,0,0,58.245,152.524Z"/><path class="cls-3" d="M67.981,155.117H66.609V152.47a4.069,4.069,0,0,0-.088-1.086.753.753,0,0,0-.285-.383.812.812,0,0,0-.476-.137,1.1,1.1,0,0,0-.64.195.986.986,0,0,0-.388.518,4.472,4.472,0,0,0-.105,1.191v2.349H63.255v-5.186h1.274v.762a2.124,2.124,0,0,1,2.539-.715,1.386,1.386,0,0,1,.569.417,1.525,1.525,0,0,1,.269.576,4.329,4.329,0,0,1,.075.923Z"/><path class="cls-3" d="M71.834,152.451a2.8,2.8,0,0,1,.337-1.323,2.318,2.318,0,0,1,.954-.977,2.831,2.831,0,0,1,1.38-.337,2.592,2.592,0,0,1,1.929.764,2.87,2.87,0,0,1-.008,3.882,2.565,2.565,0,0,1-1.911.774,3.009,3.009,0,0,1-1.36-.322,2.216,2.216,0,0,1-.984-.945A3.142,3.142,0,0,1,71.834,152.451Zm1.406.073a1.721,1.721,0,0,0,.366,1.182,1.2,1.2,0,0,0,1.805,0,1.747,1.747,0,0,0,.363-1.192,1.715,1.715,0,0,0-.363-1.172,1.2,1.2,0,0,0-1.805,0A1.721,1.721,0,0,0,73.24,152.524Z"/><path class="cls-3" d="M77.659,149.931h.762v-.39a2.6,2.6,0,0,1,.139-.977,1.105,1.105,0,0,1,.513-.525,1.969,1.969,0,0,1,.945-.2,3.823,3.823,0,0,1,1.147.175l-.186.957a2.712,2.712,0,0,0-.629-.078.567.567,0,0,0-.428.139.809.809,0,0,0-.129.535v.366h1.025v1.079H79.793v4.107H78.421V151.01h-.762Z"/><path class="cls-3" d="M86.746,149.931v1.094h-.937v2.09a5.257,5.257,0,0,0,.026.74.3.3,0,0,0,.123.173.387.387,0,0,0,.231.068,1.8,1.8,0,0,0,.552-.131l.117,1.064a2.718,2.718,0,0,1-1.084.205,1.723,1.723,0,0,1-.669-.124.98.98,0,0,1-.437-.323,1.272,1.272,0,0,1-.192-.534,6.552,6.552,0,0,1-.044-.967v-2.261H83.8v-1.094h.63V148.9l1.377-.8v1.831Z"/><path class="cls-3" d="M89.065,147.959v2.632a2.055,2.055,0,0,1,2.442-.6,1.4,1.4,0,0,1,.574.449,1.629,1.629,0,0,1,.263.606,5.34,5.34,0,0,1,.071,1.03v3.042H91.043v-2.739a4.071,4.071,0,0,0-.078-1.036.683.683,0,0,0-.276-.349.89.89,0,0,0-.5-.129,1.132,1.132,0,0,0-.61.166.958.958,0,0,0-.393.5,2.994,2.994,0,0,0-.125.989v2.6H87.693v-7.158Z"/><path class="cls-3" d="M96.81,153.466l1.367.23a2.241,2.241,0,0,1-.833,1.145,2.444,2.444,0,0,1-1.423.393,2.318,2.318,0,0,1-2-.884,2.968,2.968,0,0,1-.513-1.787,2.865,2.865,0,0,1,.674-2.019,2.217,2.217,0,0,1,1.7-.73,2.3,2.3,0,0,1,1.826.764,3.381,3.381,0,0,1,.64,2.342H94.813a1.382,1.382,0,0,0,.332.949,1.039,1.039,0,0,0,.791.34.844.844,0,0,0,.542-.176A1.088,1.088,0,0,0,96.81,153.466Zm.078-1.386a1.325,1.325,0,0,0-.308-.906.943.943,0,0,0-.713-.31.953.953,0,0,0-.742.327,1.263,1.263,0,0,0-.288.889Z"/><path class="cls-3" d="M106.668,151.465l-1.353.244a.977.977,0,0,0-.31-.611.939.939,0,0,0-.627-.205,1.026,1.026,0,0,0-.818.354,1.811,1.811,0,0,0-.305,1.184,2.1,2.1,0,0,0,.31,1.3,1.016,1.016,0,0,0,.832.381.925.925,0,0,0,.64-.222,1.341,1.341,0,0,0,.352-.764l1.347.229a2.387,2.387,0,0,1-.805,1.4,2.494,2.494,0,0,1-1.6.474,2.373,2.373,0,0,1-1.814-.718,3.274,3.274,0,0,1,0-3.987,2.412,2.412,0,0,1,1.836-.715,2.505,2.505,0,0,1,1.507.408A2.264,2.264,0,0,1,106.668,151.465Z"/><path class="cls-3" d="M109.021,155.117h-1.372v-5.186h1.275v.738a2.228,2.228,0,0,1,.588-.689,1.082,1.082,0,0,1,.593-.166,1.748,1.748,0,0,1,.9.259l-.425,1.2a1.2,1.2,0,0,0-.645-.224.76.76,0,0,0-.488.158,1.092,1.092,0,0,0-.315.574,8.179,8.179,0,0,0-.115,1.738Z"/><path class="cls-3" d="M111.282,152.451a2.809,2.809,0,0,1,.337-1.323,2.315,2.315,0,0,1,.955-.977,2.824,2.824,0,0,1,1.379-.337,2.592,2.592,0,0,1,1.929.764,2.643,2.643,0,0,1,.752,1.931,2.672,2.672,0,0,1-.759,1.951,2.569,2.569,0,0,1-1.912.774,3.009,3.009,0,0,1-1.36-.322,2.216,2.216,0,0,1-.984-.945A3.154,3.154,0,0,1,111.282,152.451Zm1.406.073a1.721,1.721,0,0,0,.367,1.182,1.2,1.2,0,0,0,1.8,0,1.742,1.742,0,0,0,.364-1.192,1.71,1.71,0,0,0-.364-1.172,1.2,1.2,0,0,0-1.8,0A1.721,1.721,0,0,0,112.688,152.524Z"/><path class="cls-3" d="M117.225,153.637l1.377-.21a1,1,0,0,0,.356.608,1.2,1.2,0,0,0,.752.208,1.362,1.362,0,0,0,.8-.195.439.439,0,0,0,.18-.367.358.358,0,0,0-.1-.258,1.1,1.1,0,0,0-.459-.181,7.391,7.391,0,0,1-2.105-.669,1.336,1.336,0,0,1-.615-1.167,1.438,1.438,0,0,1,.532-1.133,2.488,2.488,0,0,1,1.651-.459,2.879,2.879,0,0,1,1.582.347,1.776,1.776,0,0,1,.713,1.025l-1.294.239a.8.8,0,0,0-.316-.463,1.144,1.144,0,0,0-.661-.162,1.487,1.487,0,0,0-.776.152.324.324,0,0,0-.157.278.3.3,0,0,0,.137.249,5.11,5.11,0,0,0,1.281.386,3.83,3.83,0,0,1,1.532.61,1.271,1.271,0,0,1,.429,1.021,1.564,1.564,0,0,1-.595,1.225,2.638,2.638,0,0,1-1.763.513,2.887,2.887,0,0,1-1.677-.43A1.976,1.976,0,0,1,117.225,153.637Z"/><path class="cls-3" d="M122.786,153.637l1.377-.21a1.008,1.008,0,0,0,.357.608,1.2,1.2,0,0,0,.751.208,1.357,1.357,0,0,0,.8-.195.44.44,0,0,0,.181-.367.355.355,0,0,0-.1-.258,1.085,1.085,0,0,0-.459-.181,7.392,7.392,0,0,1-2.1-.669,1.336,1.336,0,0,1-.615-1.167,1.438,1.438,0,0,1,.532-1.133,2.483,2.483,0,0,1,1.65-.459,2.879,2.879,0,0,1,1.582.347,1.772,1.772,0,0,1,.713,1.025l-1.294.239a.8.8,0,0,0-.315-.463,1.146,1.146,0,0,0-.661-.162,1.489,1.489,0,0,0-.777.152.325.325,0,0,0-.156.278.3.3,0,0,0,.137.249,5.094,5.094,0,0,0,1.281.386,3.831,3.831,0,0,1,1.531.61,1.271,1.271,0,0,1,.43,1.021,1.562,1.562,0,0,1-.6,1.225,2.635,2.635,0,0,1-1.763.513,2.883,2.883,0,0,1-1.676-.43A1.978,1.978,0,0,1,122.786,153.637Z"/><path class="cls-3" d="M128.675,153.208v-1.372h2.695v1.372Z"/><path class="cls-3" d="M131.678,153.637l1.377-.21a1,1,0,0,0,.356.608,1.2,1.2,0,0,0,.752.208,1.359,1.359,0,0,0,.8-.195.44.44,0,0,0,.181-.367.359.359,0,0,0-.1-.258,1.091,1.091,0,0,0-.459-.181,7.391,7.391,0,0,1-2.1-.669,1.336,1.336,0,0,1-.615-1.167,1.441,1.441,0,0,1,.532-1.133,2.488,2.488,0,0,1,1.651-.459,2.879,2.879,0,0,1,1.582.347,1.772,1.772,0,0,1,.713,1.025l-1.294.239a.8.8,0,0,0-.316-.463,1.144,1.144,0,0,0-.661-.162,1.487,1.487,0,0,0-.776.152.323.323,0,0,0-.156.278.3.3,0,0,0,.136.249,5.108,5.108,0,0,0,1.282.386,3.831,3.831,0,0,1,1.531.61,1.271,1.271,0,0,1,.429,1.021,1.564,1.564,0,0,1-.595,1.225,2.638,2.638,0,0,1-1.763.513,2.887,2.887,0,0,1-1.677-.43A1.976,1.976,0,0,1,131.678,153.637Z"/><path class="cls-3" d="M140.726,153.466l1.367.23a2.245,2.245,0,0,1-.832,1.145,2.451,2.451,0,0,1-1.424.393,2.319,2.319,0,0,1-2-.884,2.968,2.968,0,0,1-.513-1.787,2.865,2.865,0,0,1,.674-2.019,2.219,2.219,0,0,1,1.7-.73,2.3,2.3,0,0,1,1.826.764,3.376,3.376,0,0,1,.64,2.342h-3.437a1.382,1.382,0,0,0,.332.949,1.039,1.039,0,0,0,.791.34.844.844,0,0,0,.542-.176A1.1,1.1,0,0,0,140.726,153.466Zm.078-1.386a1.325,1.325,0,0,0-.308-.906.99.99,0,0,0-1.455.017,1.268,1.268,0,0,0-.288.889Z"/><path class="cls-3" d="M147.806,151.465l-1.353.244a.982.982,0,0,0-.31-.611.941.941,0,0,0-.627-.205,1.028,1.028,0,0,0-.819.354,1.818,1.818,0,0,0-.3,1.184,2.1,2.1,0,0,0,.31,1.3,1.016,1.016,0,0,0,.832.381.925.925,0,0,0,.64-.222,1.334,1.334,0,0,0,.351-.764l1.348.229a2.383,2.383,0,0,1-.806,1.4,2.491,2.491,0,0,1-1.6.474,2.37,2.37,0,0,1-1.814-.718,3.27,3.27,0,0,1,0-3.987,2.41,2.41,0,0,1,1.836-.715,2.5,2.5,0,0,1,1.506.408A2.26,2.26,0,0,1,147.806,151.465Z"/><path class="cls-3" d="M151.224,149.931v1.094h-.938v2.09a5.177,5.177,0,0,0,.027.74.3.3,0,0,0,.122.173.393.393,0,0,0,.232.068,1.8,1.8,0,0,0,.552-.131l.117,1.064a2.725,2.725,0,0,1-1.084.205,1.719,1.719,0,0,1-.669-.124.98.98,0,0,1-.437-.323,1.286,1.286,0,0,1-.193-.534,6.7,6.7,0,0,1-.044-.967v-2.261h-.63v-1.094h.63V148.9l1.377-.8v1.831Z"/><path class="cls-3" d="M152.176,149.228v-1.269h1.372v1.269Zm0,5.889v-5.186h1.372v5.186Z"/><path class="cls-3" d="M154.637,152.451a2.8,2.8,0,0,1,.337-1.323,2.312,2.312,0,0,1,.954-.977,2.831,2.831,0,0,1,1.38-.337,2.589,2.589,0,0,1,1.928.764,2.643,2.643,0,0,1,.752,1.931,2.672,2.672,0,0,1-.759,1.951,2.566,2.566,0,0,1-1.912.774,3.012,3.012,0,0,1-1.36-.322,2.209,2.209,0,0,1-.983-.945A3.142,3.142,0,0,1,154.637,152.451Zm1.406.073a1.721,1.721,0,0,0,.366,1.182,1.2,1.2,0,0,0,1.8,0,1.742,1.742,0,0,0,.364-1.192,1.71,1.71,0,0,0-.364-1.172,1.2,1.2,0,0,0-1.8,0A1.721,1.721,0,0,0,156.043,152.524Z"/><path class="cls-3" d="M165.779,155.117h-1.372V152.47a4.069,4.069,0,0,0-.088-1.086.758.758,0,0,0-.285-.383.814.814,0,0,0-.476-.137,1.1,1.1,0,0,0-.64.195.986.986,0,0,0-.388.518,4.472,4.472,0,0,0-.1,1.191v2.349h-1.372v-5.186h1.274v.762a2.124,2.124,0,0,1,2.539-.715,1.386,1.386,0,0,1,.569.417,1.541,1.541,0,0,1,.269.576,4.329,4.329,0,0,1,.075.923Z"/><path class="cls-3" d="M168.2,151.513l-1.245-.224a1.939,1.939,0,0,1,.723-1.114,2.65,2.65,0,0,1,1.523-.361,3.276,3.276,0,0,1,1.367.217,1.369,1.369,0,0,1,.633.552,2.848,2.848,0,0,1,.183,1.228l-.015,1.6a5.441,5.441,0,0,0,.067,1.008,2.935,2.935,0,0,0,.246.7H170.32q-.054-.136-.132-.405c-.022-.082-.039-.136-.048-.162a2.475,2.475,0,0,1-.752.513,2.154,2.154,0,0,1-.855.171,1.768,1.768,0,0,1-1.262-.434,1.444,1.444,0,0,1-.461-1.1,1.477,1.477,0,0,1,.21-.784,1.366,1.366,0,0,1,.587-.527,4.615,4.615,0,0,1,1.092-.32,7.511,7.511,0,0,0,1.333-.337V151.6a.713.713,0,0,0-.2-.564,1.172,1.172,0,0,0-.737-.168.983.983,0,0,0-.572.144A1.011,1.011,0,0,0,168.2,151.513Zm1.836,1.114q-.264.087-.835.21a2.505,2.505,0,0,0-.747.239.572.572,0,0,0-.268.483.673.673,0,0,0,.214.5.752.752,0,0,0,.547.21,1.186,1.186,0,0,0,.708-.244.858.858,0,0,0,.328-.454,2.709,2.709,0,0,0,.053-.669Z"/><path class="cls-3" d="M172.732,155.117v-7.158H174.1v7.158Z"/><path class="cls-3" d="M177.806,153.637l1.377-.21a1,1,0,0,0,.356.608,1.2,1.2,0,0,0,.752.208,1.359,1.359,0,0,0,.8-.195.439.439,0,0,0,.18-.367.358.358,0,0,0-.1-.258,1.1,1.1,0,0,0-.459-.181,7.391,7.391,0,0,1-2.105-.669,1.336,1.336,0,0,1-.615-1.167,1.441,1.441,0,0,1,.532-1.133,2.488,2.488,0,0,1,1.651-.459,2.879,2.879,0,0,1,1.582.347,1.776,1.776,0,0,1,.713,1.025l-1.294.239a.8.8,0,0,0-.316-.463,1.144,1.144,0,0,0-.661-.162,1.487,1.487,0,0,0-.776.152.323.323,0,0,0-.156.278.3.3,0,0,0,.136.249,5.11,5.11,0,0,0,1.281.386,3.83,3.83,0,0,1,1.532.61,1.271,1.271,0,0,1,.429,1.021,1.564,1.564,0,0,1-.595,1.225,2.638,2.638,0,0,1-1.763.513,2.887,2.887,0,0,1-1.677-.43A1.976,1.976,0,0,1,177.806,153.637Z"/><path class="cls-3" d="M185.218,147.959v2.632a2.054,2.054,0,0,1,2.441-.6,1.39,1.39,0,0,1,.573.449,1.615,1.615,0,0,1,.264.606,5.34,5.34,0,0,1,.071,1.03v3.042H187.2v-2.739a4.071,4.071,0,0,0-.078-1.036.686.686,0,0,0-.275-.349.9.9,0,0,0-.5-.129,1.136,1.136,0,0,0-.611.166.968.968,0,0,0-.393.5,3.025,3.025,0,0,0-.124.989v2.6h-1.372v-7.158Z"/><path class="cls-3" d="M190.984,151.513l-1.245-.224a1.939,1.939,0,0,1,.723-1.114,2.652,2.652,0,0,1,1.523-.361,3.284,3.284,0,0,1,1.368.217,1.371,1.371,0,0,1,.632.552,2.848,2.848,0,0,1,.183,1.228l-.015,1.6a5.441,5.441,0,0,0,.067,1.008,2.935,2.935,0,0,0,.246.7h-1.358c-.036-.091-.08-.226-.131-.405-.023-.082-.039-.136-.049-.162a2.475,2.475,0,0,1-.752.513,2.154,2.154,0,0,1-.855.171,1.764,1.764,0,0,1-1.261-.434,1.441,1.441,0,0,1-.462-1.1,1.477,1.477,0,0,1,.21-.784,1.369,1.369,0,0,1,.588-.527,4.59,4.59,0,0,1,1.091-.32,7.511,7.511,0,0,0,1.333-.337V151.6a.713.713,0,0,0-.195-.564,1.172,1.172,0,0,0-.737-.168.985.985,0,0,0-.572.144A1.011,1.011,0,0,0,190.984,151.513Zm1.836,1.114c-.175.058-.454.128-.835.21a2.505,2.505,0,0,0-.747.239.574.574,0,0,0-.268.483.67.67,0,0,0,.215.5.748.748,0,0,0,.546.21,1.184,1.184,0,0,0,.708-.244.858.858,0,0,0,.328-.454,2.709,2.709,0,0,0,.053-.669Z"/><path class="cls-3" d="M195.481,149.931h1.28v.762a1.914,1.914,0,0,1,.674-.635,1.863,1.863,0,0,1,.942-.244,1.977,1.977,0,0,1,1.533.708,2.866,2.866,0,0,1,.63,1.973,2.953,2.953,0,0,1-.635,2.019,1.976,1.976,0,0,1-1.538.72,1.75,1.75,0,0,1-.779-.171,2.6,2.6,0,0,1-.734-.586v2.613h-1.373Zm1.358,2.5a1.994,1.994,0,0,0,.347,1.292,1.059,1.059,0,0,0,.844.417.992.992,0,0,0,.8-.383,1.971,1.971,0,0,0,.318-1.257,1.873,1.873,0,0,0-.328-1.211,1.009,1.009,0,0,0-.81-.4,1.056,1.056,0,0,0-.835.388A1.725,1.725,0,0,0,196.839,152.436Z"/><path class="cls-3" d="M204.632,153.466l1.367.23a2.245,2.245,0,0,1-.832,1.145,2.449,2.449,0,0,1-1.424.393,2.319,2.319,0,0,1-2-.884,2.968,2.968,0,0,1-.512-1.787,2.865,2.865,0,0,1,.673-2.019,2.22,2.22,0,0,1,1.7-.73,2.306,2.306,0,0,1,1.827.764,3.381,3.381,0,0,1,.639,2.342h-3.437a1.387,1.387,0,0,0,.332.949,1.04,1.04,0,0,0,.791.34.842.842,0,0,0,.542-.176A1.088,1.088,0,0,0,204.632,153.466Zm.078-1.386a1.32,1.32,0,0,0-.308-.906.941.941,0,0,0-.713-.31.954.954,0,0,0-.742.327,1.268,1.268,0,0,0-.288.889Z"/><path class="cls-3" d="M209.651,152.451a2.809,2.809,0,0,1,.337-1.323,2.318,2.318,0,0,1,.954-.977,2.831,2.831,0,0,1,1.38-.337,2.592,2.592,0,0,1,1.929.764,2.87,2.87,0,0,1-.008,3.882,2.563,2.563,0,0,1-1.911.774,3.006,3.006,0,0,1-1.36-.322,2.216,2.216,0,0,1-.984-.945A3.154,3.154,0,0,1,209.651,152.451Zm1.407.073a1.721,1.721,0,0,0,.366,1.182,1.2,1.2,0,0,0,1.8,0,1.742,1.742,0,0,0,.364-1.192,1.71,1.71,0,0,0-.364-1.172,1.2,1.2,0,0,0-1.8,0A1.721,1.721,0,0,0,211.058,152.524Z"/><path class="cls-3" d="M215.477,149.931h.761v-.39a2.615,2.615,0,0,1,.139-.977,1.108,1.108,0,0,1,.514-.525,1.962,1.962,0,0,1,.944-.2,3.818,3.818,0,0,1,1.147.175l-.185.957a2.713,2.713,0,0,0-.63-.078.565.565,0,0,0-.427.139.8.8,0,0,0-.13.535v.366h1.026v1.079H217.61v4.107h-1.372V151.01h-.761Z"/><path class="cls-3" d="M224.563,149.931v1.094h-.937v2.09a5.177,5.177,0,0,0,.027.74.3.3,0,0,0,.121.173.4.4,0,0,0,.233.068,1.8,1.8,0,0,0,.552-.131l.117,1.064a2.728,2.728,0,0,1-1.084.205,1.719,1.719,0,0,1-.669-.124.99.99,0,0,1-.438-.323,1.3,1.3,0,0,1-.192-.534,6.7,6.7,0,0,1-.044-.967v-2.261h-.63v-1.094h.63V148.9l1.377-.8v1.831Z"/><path class="cls-3" d="M226.883,147.959v2.632a2.054,2.054,0,0,1,2.441-.6,1.383,1.383,0,0,1,.573.449,1.615,1.615,0,0,1,.264.606,5.34,5.34,0,0,1,.071,1.03v3.042H228.86v-2.739a4.071,4.071,0,0,0-.078-1.036.686.686,0,0,0-.275-.349.9.9,0,0,0-.5-.129,1.136,1.136,0,0,0-.611.166.968.968,0,0,0-.393.5,3.025,3.025,0,0,0-.124.989v2.6h-1.372v-7.158Z"/><path class="cls-3" d="M234.627,153.466l1.367.23a2.245,2.245,0,0,1-.832,1.145,2.449,2.449,0,0,1-1.424.393,2.319,2.319,0,0,1-2-.884,2.975,2.975,0,0,1-.512-1.787,2.865,2.865,0,0,1,.673-2.019,2.221,2.221,0,0,1,1.705-.73,2.3,2.3,0,0,1,1.826.764,3.381,3.381,0,0,1,.639,2.342H232.63a1.387,1.387,0,0,0,.332.949,1.042,1.042,0,0,0,.791.34.842.842,0,0,0,.542-.176A1.088,1.088,0,0,0,234.627,153.466Zm.078-1.386a1.32,1.32,0,0,0-.308-.906.94.94,0,0,0-.712-.31.955.955,0,0,0-.743.327,1.268,1.268,0,0,0-.288.889Z"/><path class="cls-3" d="M244.72,155.117h-1.275v-.762a2.052,2.052,0,0,1-.75.662,1.915,1.915,0,0,1-.871.217,1.979,1.979,0,0,1-1.531-.72,2.933,2.933,0,0,1-.637-2.009,2.9,2.9,0,0,1,.62-2,2.023,2.023,0,0,1,1.568-.686,1.942,1.942,0,0,1,1.5.723v-2.578h1.372Zm-3.662-2.7a2.377,2.377,0,0,0,.229,1.2,1.037,1.037,0,0,0,.928.537,1.011,1.011,0,0,0,.806-.4,1.86,1.86,0,0,0,.332-1.2,2.034,2.034,0,0,0-.323-1.287,1.02,1.02,0,0,0-.825-.393,1.031,1.031,0,0,0-.818.388A1.76,1.76,0,0,0,241.058,152.412Z"/><path class="cls-3" d="M249.075,153.466l1.367.23a2.24,2.24,0,0,1-.832,1.145,2.448,2.448,0,0,1-1.423.393,2.317,2.317,0,0,1-2-.884,2.968,2.968,0,0,1-.513-1.787,2.861,2.861,0,0,1,.674-2.019,2.217,2.217,0,0,1,1.7-.73,2.3,2.3,0,0,1,1.826.764,3.386,3.386,0,0,1,.64,2.342h-3.438a1.387,1.387,0,0,0,.332.949,1.042,1.042,0,0,0,.791.34.84.84,0,0,0,.542-.176A1.082,1.082,0,0,0,249.075,153.466Zm.078-1.386a1.32,1.32,0,0,0-.307-.906.99.99,0,0,0-1.455.017,1.263,1.263,0,0,0-.288.889Z"/><path class="cls-3" d="M251.033,149.931h.762v-.39a2.615,2.615,0,0,1,.139-.977,1.1,1.1,0,0,1,.513-.525,1.966,1.966,0,0,1,.945-.2,3.823,3.823,0,0,1,1.147.175l-.185.957a2.713,2.713,0,0,0-.63-.078.563.563,0,0,0-.427.139.8.8,0,0,0-.13.535v.366h1.025v1.079h-1.025v4.107H251.8V151.01h-.762Z"/><path class="cls-3" d="M257.967,153.466l1.367.23a2.245,2.245,0,0,1-.832,1.145,2.451,2.451,0,0,1-1.424.393,2.319,2.319,0,0,1-2-.884,2.968,2.968,0,0,1-.513-1.787,2.865,2.865,0,0,1,.674-2.019,2.22,2.22,0,0,1,1.7-.73,2.306,2.306,0,0,1,1.827.764,3.381,3.381,0,0,1,.639,2.342H255.97a1.382,1.382,0,0,0,.332.949,1.04,1.04,0,0,0,.791.34.842.842,0,0,0,.542-.176A1.088,1.088,0,0,0,257.967,153.466Zm.078-1.386a1.32,1.32,0,0,0-.308-.906.941.941,0,0,0-.713-.31.954.954,0,0,0-.742.327,1.268,1.268,0,0,0-.288.889Z"/><path class="cls-3" d="M265.047,151.465l-1.353.244a.982.982,0,0,0-.31-.611.937.937,0,0,0-.627-.205,1.029,1.029,0,0,0-.819.354,1.818,1.818,0,0,0-.3,1.184,2.1,2.1,0,0,0,.31,1.3,1.016,1.016,0,0,0,.832.381.925.925,0,0,0,.64-.222,1.341,1.341,0,0,0,.352-.764l1.347.229a2.382,2.382,0,0,1-.805,1.4,2.5,2.5,0,0,1-1.6.474,2.372,2.372,0,0,1-1.814-.718,3.274,3.274,0,0,1,0-3.987,2.412,2.412,0,0,1,1.836-.715,2.5,2.5,0,0,1,1.506.408A2.26,2.26,0,0,1,265.047,151.465Z"/><path class="cls-3" d="M268.465,149.931v1.094h-.938v2.09a4.943,4.943,0,0,0,.028.74.3.3,0,0,0,.121.173.393.393,0,0,0,.232.068,1.8,1.8,0,0,0,.552-.131l.117,1.064a2.725,2.725,0,0,1-1.084.205,1.719,1.719,0,0,1-.669-.124.98.98,0,0,1-.437-.323,1.286,1.286,0,0,1-.193-.534,6.7,6.7,0,0,1-.044-.967v-2.261h-.629v-1.094h.629V148.9l1.377-.8v1.831Z"/><path class="cls-3" d="M272.137,155.117v-7.158h1.372v2.578a1.942,1.942,0,0,1,1.5-.723,2.021,2.021,0,0,1,1.567.686,2.843,2.843,0,0,1,.62,1.97,2.994,2.994,0,0,1-.633,2.046,1.969,1.969,0,0,1-1.535.718,1.905,1.905,0,0,1-.877-.222,2.1,2.1,0,0,1-.744-.657v.762Zm1.362-2.7a2.206,2.206,0,0,0,.254,1.191,1.085,1.085,0,0,0,.947.547.969.969,0,0,0,.774-.388,1.906,1.906,0,0,0,.32-1.223,2.024,2.024,0,0,0-.322-1.282,1.022,1.022,0,0,0-.826-.393,1.034,1.034,0,0,0-.82.383A1.762,1.762,0,0,0,273.5,152.412Z"/><path class="cls-3" d="M277.654,149.931h1.46l1.24,3.682,1.211-3.682h1.421l-1.831,4.991-.327.9a3.632,3.632,0,0,1-.344.693,1.47,1.47,0,0,1-.377.388,1.6,1.6,0,0,1-.521.232,2.686,2.686,0,0,1-.7.083,3.6,3.6,0,0,1-.777-.083l-.122-1.074a2.99,2.99,0,0,0,.581.064.86.86,0,0,0,.708-.281,1.93,1.93,0,0,0,.352-.715Z"/><path class="cls-3" d="M286.644,149.228v-1.269h1.372v1.269Zm0,5.889v-5.186h1.372v5.186Z"/><path class="cls-3" d="M291.8,149.931v1.094h-.938v2.09a4.943,4.943,0,0,0,.028.74.3.3,0,0,0,.121.173.393.393,0,0,0,.232.068,1.8,1.8,0,0,0,.552-.131l.117,1.064a2.725,2.725,0,0,1-1.084.205,1.719,1.719,0,0,1-.669-.124.98.98,0,0,1-.437-.323,1.286,1.286,0,0,1-.193-.534,6.7,6.7,0,0,1-.044-.967v-2.261h-.63v-1.094h.63V148.9l1.377-.8v1.831Z"/><path class="cls-3" d="M295.755,153.466l1.367.23a2.245,2.245,0,0,1-.832,1.145,2.449,2.449,0,0,1-1.424.393,2.319,2.319,0,0,1-2-.884,2.968,2.968,0,0,1-.512-1.787,2.865,2.865,0,0,1,.673-2.019,2.22,2.22,0,0,1,1.7-.73,2.306,2.306,0,0,1,1.827.764,3.381,3.381,0,0,1,.639,2.342h-3.437a1.387,1.387,0,0,0,.332.949,1.04,1.04,0,0,0,.791.34.842.842,0,0,0,.542-.176A1.088,1.088,0,0,0,295.755,153.466Zm.078-1.386a1.32,1.32,0,0,0-.308-.906.94.94,0,0,0-.712-.31.955.955,0,0,0-.743.327,1.268,1.268,0,0,0-.288.889Z"/><path class="cls-3" d="M299.627,155.117h-1.372v-5.186h1.274v.738a2.228,2.228,0,0,1,.588-.689,1.083,1.083,0,0,1,.594-.166,1.748,1.748,0,0,1,.9.259l-.425,1.2a1.2,1.2,0,0,0-.644-.224.758.758,0,0,0-.488.158,1.078,1.078,0,0,0-.315.574,8.11,8.11,0,0,0-.115,1.738Z"/><path class="cls-3" d="M303.23,151.513l-1.245-.224a1.939,1.939,0,0,1,.723-1.114,2.652,2.652,0,0,1,1.523-.361,3.284,3.284,0,0,1,1.368.217,1.371,1.371,0,0,1,.632.552,2.833,2.833,0,0,1,.183,1.228l-.015,1.6a5.441,5.441,0,0,0,.067,1.008,2.935,2.935,0,0,0,.246.7h-1.358c-.036-.091-.08-.226-.131-.405-.023-.082-.039-.136-.049-.162a2.475,2.475,0,0,1-.752.513,2.154,2.154,0,0,1-.855.171,1.764,1.764,0,0,1-1.261-.434,1.441,1.441,0,0,1-.462-1.1,1.477,1.477,0,0,1,.21-.784,1.369,1.369,0,0,1,.588-.527,4.605,4.605,0,0,1,1.091-.32,7.511,7.511,0,0,0,1.333-.337V151.6a.713.713,0,0,0-.195-.564,1.172,1.172,0,0,0-.737-.168.98.98,0,0,0-.571.144A1,1,0,0,0,303.23,151.513Zm1.836,1.114c-.175.058-.454.128-.835.21a2.527,2.527,0,0,0-.747.239.574.574,0,0,0-.268.483.67.67,0,0,0,.215.5.749.749,0,0,0,.547.21,1.188,1.188,0,0,0,.708-.244.856.856,0,0,0,.327-.454,2.709,2.709,0,0,0,.053-.669Z"/><path class="cls-3" d="M310.145,149.931v1.094h-.938v2.09a5.177,5.177,0,0,0,.027.74.3.3,0,0,0,.121.173.4.4,0,0,0,.233.068,1.8,1.8,0,0,0,.552-.131l.117,1.064a2.725,2.725,0,0,1-1.084.205,1.719,1.719,0,0,1-.669-.124.99.99,0,0,1-.438-.323,1.3,1.3,0,0,1-.192-.534,6.7,6.7,0,0,1-.044-.967v-2.261h-.63v-1.094h.63V148.9l1.377-.8v1.831Z"/><path class="cls-3" d="M311.1,149.228v-1.269h1.372v1.269Zm0,5.889v-5.186h1.372v5.186Z"/><path class="cls-3" d="M315.3,155.117l-2.09-5.186h1.44l.977,2.647.283.884c.075-.225.122-.373.142-.445.046-.146.094-.293.146-.439l.987-2.647H318.6l-2.061,5.186Z"/><path class="cls-3" d="M322.439,153.466l1.368.23a2.245,2.245,0,0,1-.832,1.145,2.451,2.451,0,0,1-1.424.393,2.317,2.317,0,0,1-2-.884,2.968,2.968,0,0,1-.513-1.787,2.865,2.865,0,0,1,.674-2.019,2.219,2.219,0,0,1,1.7-.73,2.3,2.3,0,0,1,1.826.764,3.381,3.381,0,0,1,.64,2.342h-3.438a1.391,1.391,0,0,0,.332.949,1.042,1.042,0,0,0,.791.34.84.84,0,0,0,.542-.176A1.082,1.082,0,0,0,322.439,153.466Zm.079-1.386a1.325,1.325,0,0,0-.308-.906.99.99,0,0,0-1.455.017,1.268,1.268,0,0,0-.288.889Z"/><path class="cls-3" d="M327.737,149.931h1.28v.762a1.92,1.92,0,0,1,.673-.635,1.869,1.869,0,0,1,.943-.244,1.977,1.977,0,0,1,1.533.708,2.866,2.866,0,0,1,.63,1.973,2.953,2.953,0,0,1-.635,2.019,1.976,1.976,0,0,1-1.538.72,1.75,1.75,0,0,1-.779-.171,2.616,2.616,0,0,1-.735-.586v2.613h-1.372Zm1.358,2.5a2,2,0,0,0,.346,1.292,1.063,1.063,0,0,0,.845.417.993.993,0,0,0,.8-.383,1.972,1.972,0,0,0,.317-1.257,1.873,1.873,0,0,0-.327-1.211,1.011,1.011,0,0,0-.81-.4,1.055,1.055,0,0,0-.835.388A1.725,1.725,0,0,0,329.1,152.436Z"/><path class="cls-3" d="M335.2,155.117h-1.372v-5.186H335.1v.738a2.228,2.228,0,0,1,.587-.689,1.085,1.085,0,0,1,.594-.166,1.748,1.748,0,0,1,.9.259l-.425,1.2a1.206,1.206,0,0,0-.645-.224.76.76,0,0,0-.488.158,1.085,1.085,0,0,0-.315.574,8.11,8.11,0,0,0-.115,1.738Z"/><path class="cls-3" d="M337.459,152.451a2.8,2.8,0,0,1,.337-1.323,2.318,2.318,0,0,1,.954-.977,2.831,2.831,0,0,1,1.38-.337,2.592,2.592,0,0,1,1.929.764,2.87,2.87,0,0,1-.008,3.882,2.565,2.565,0,0,1-1.911.774,3.013,3.013,0,0,1-1.361-.322,2.219,2.219,0,0,1-.983-.945A3.142,3.142,0,0,1,337.459,152.451Zm1.406.073a1.721,1.721,0,0,0,.366,1.182,1.2,1.2,0,0,0,1.8,0,1.742,1.742,0,0,0,.364-1.192,1.71,1.71,0,0,0-.364-1.172,1.2,1.2,0,0,0-1.8,0A1.721,1.721,0,0,0,338.865,152.524Z"/><path class="cls-3" d="M348.406,151.465l-1.352.244a.983.983,0,0,0-.311-.611.937.937,0,0,0-.627-.205,1.026,1.026,0,0,0-.818.354,1.817,1.817,0,0,0-.305,1.184,2.1,2.1,0,0,0,.311,1.3,1.015,1.015,0,0,0,.832.381.924.924,0,0,0,.639-.222,1.334,1.334,0,0,0,.352-.764l1.348.229a2.388,2.388,0,0,1-.806,1.4,2.5,2.5,0,0,1-1.6.474,2.368,2.368,0,0,1-1.813-.718,3.27,3.27,0,0,1,0-3.987,2.409,2.409,0,0,1,1.836-.715,2.5,2.5,0,0,1,1.506.408A2.259,2.259,0,0,1,348.406,151.465Z"/><path class="cls-3" d="M352.449,153.466l1.367.23a2.24,2.24,0,0,1-.832,1.145,2.448,2.448,0,0,1-1.423.393,2.317,2.317,0,0,1-2-.884,2.968,2.968,0,0,1-.513-1.787,2.865,2.865,0,0,1,.674-2.019,2.217,2.217,0,0,1,1.7-.73,2.3,2.3,0,0,1,1.826.764,3.386,3.386,0,0,1,.64,2.342h-3.438a1.387,1.387,0,0,0,.332.949,1.042,1.042,0,0,0,.791.34.84.84,0,0,0,.542-.176A1.082,1.082,0,0,0,352.449,153.466Zm.078-1.386a1.32,1.32,0,0,0-.307-.906.99.99,0,0,0-1.455.017,1.263,1.263,0,0,0-.288.889Z"/><path class="cls-3" d="M354.524,153.637l1.377-.21a1.008,1.008,0,0,0,.357.608,1.2,1.2,0,0,0,.752.208,1.362,1.362,0,0,0,.8-.195.439.439,0,0,0,.18-.367.358.358,0,0,0-.1-.258,1.1,1.1,0,0,0-.459-.181,7.391,7.391,0,0,1-2.105-.669,1.336,1.336,0,0,1-.615-1.167,1.441,1.441,0,0,1,.532-1.133,2.485,2.485,0,0,1,1.65-.459,2.877,2.877,0,0,1,1.582.347,1.767,1.767,0,0,1,.713,1.025l-1.294.239a.8.8,0,0,0-.315-.463,1.144,1.144,0,0,0-.661-.162,1.487,1.487,0,0,0-.776.152.324.324,0,0,0-.157.278.3.3,0,0,0,.137.249,5.11,5.11,0,0,0,1.281.386,3.824,3.824,0,0,1,1.531.61,1.268,1.268,0,0,1,.43,1.021,1.562,1.562,0,0,1-.6,1.225,2.633,2.633,0,0,1-1.762.513,2.887,2.887,0,0,1-1.677-.43A1.978,1.978,0,0,1,354.524,153.637Z"/><path class="cls-3" d="M360.086,153.637l1.377-.21a1.007,1.007,0,0,0,.356.608,1.2,1.2,0,0,0,.752.208,1.359,1.359,0,0,0,.8-.195.44.44,0,0,0,.181-.367.355.355,0,0,0-.1-.258,1.091,1.091,0,0,0-.459-.181,7.392,7.392,0,0,1-2.1-.669,1.335,1.335,0,0,1-.616-1.167,1.439,1.439,0,0,1,.533-1.133,2.483,2.483,0,0,1,1.65-.459,2.879,2.879,0,0,1,1.582.347,1.772,1.772,0,0,1,.713,1.025l-1.294.239a.8.8,0,0,0-.315-.463,1.148,1.148,0,0,0-.662-.162,1.487,1.487,0,0,0-.776.152.325.325,0,0,0-.156.278.3.3,0,0,0,.137.249,5.094,5.094,0,0,0,1.281.386,3.831,3.831,0,0,1,1.531.61,1.271,1.271,0,0,1,.43,1.021,1.565,1.565,0,0,1-.6,1.225,2.635,2.635,0,0,1-1.763.513,2.883,2.883,0,0,1-1.676-.43A1.973,1.973,0,0,1,360.086,153.637Z"/><path d="M180.055,179.069l-1.9-7.158h.972l1.089,4.692q.175.736.3,1.465c.182-.766.289-1.206.322-1.323l1.362-4.834h1.143l1.025,3.623a19.221,19.221,0,0,1,.557,2.534q.137-.679.356-1.558l1.123-4.6h.952l-1.963,7.158h-.913l-1.508-5.454q-.19-.684-.225-.84-.112.492-.21.84l-1.519,5.454Z"/><path d="M188.131,179.069v-7.158h.879v2.568a1.965,1.965,0,0,1,1.553-.713,2.085,2.085,0,0,1,1,.227,1.324,1.324,0,0,1,.608.628,2.89,2.89,0,0,1,.183,1.162v3.286h-.878v-3.286a1.355,1.355,0,0,0-.287-.96,1.061,1.061,0,0,0-.807-.3,1.439,1.439,0,0,0-.736.2,1.153,1.153,0,0,0-.49.55,2.536,2.536,0,0,0-.146.957v2.837Z"/><path d="M197.242,177.4l.908.112a2.217,2.217,0,0,1-.8,1.236,2.7,2.7,0,0,1-3.289-.262,2.738,2.738,0,0,1-.666-1.965,2.863,2.863,0,0,1,.674-2.031,2.279,2.279,0,0,1,1.748-.723,2.218,2.218,0,0,1,1.7.708,2.815,2.815,0,0,1,.659,1.992c0,.052,0,.13,0,.235h-3.867a1.986,1.986,0,0,0,.483,1.308,1.436,1.436,0,0,0,1.084.455,1.347,1.347,0,0,0,.825-.254A1.694,1.694,0,0,0,197.242,177.4Zm-2.886-1.421h2.9a1.757,1.757,0,0,0-.332-.981,1.347,1.347,0,0,0-1.089-.508,1.4,1.4,0,0,0-1.018.405A1.606,1.606,0,0,0,194.356,175.978Z"/><path d="M201.173,178.283l.127.776a3.272,3.272,0,0,1-.664.078,1.5,1.5,0,0,1-.742-.151.853.853,0,0,1-.372-.4,3.138,3.138,0,0,1-.107-1.038v-2.983h-.644v-.684h.644V172.6l.874-.527v1.811h.884v.684h-.884V177.6a1.58,1.58,0,0,0,.046.484.378.378,0,0,0,.151.171.592.592,0,0,0,.3.063A3,3,0,0,0,201.173,178.283Z"/><path d="M202.032,179.069v-7.158h.879v2.568a1.965,1.965,0,0,1,1.553-.713,2.086,2.086,0,0,1,1,.227,1.327,1.327,0,0,1,.607.628,2.887,2.887,0,0,1,.184,1.162v3.286h-.879v-3.286a1.36,1.36,0,0,0-.286-.96,1.064,1.064,0,0,0-.808-.3,1.432,1.432,0,0,0-.735.2,1.143,1.143,0,0,0-.49.55,2.514,2.514,0,0,0-.147.957v2.837Z"/><path d="M211.144,177.4l.908.112a2.222,2.222,0,0,1-.8,1.236,2.4,2.4,0,0,1-1.485.439,2.369,2.369,0,0,1-1.8-.7,2.734,2.734,0,0,1-.666-1.965,2.859,2.859,0,0,1,.674-2.031,2.279,2.279,0,0,1,1.748-.723,2.218,2.218,0,0,1,1.7.708,2.815,2.815,0,0,1,.659,1.992c0,.052,0,.13,0,.235h-3.867a1.986,1.986,0,0,0,.483,1.308,1.437,1.437,0,0,0,1.084.455,1.35,1.35,0,0,0,.826-.254A1.7,1.7,0,0,0,211.144,177.4Zm-2.886-1.421h2.895a1.757,1.757,0,0,0-.332-.981,1.346,1.346,0,0,0-1.089-.508,1.4,1.4,0,0,0-1.018.405A1.6,1.6,0,0,0,208.258,175.978Z"/><path d="M213.146,179.069v-5.186h.791v.787a2.123,2.123,0,0,1,.558-.728.979.979,0,0,1,.565-.176,1.71,1.71,0,0,1,.9.284l-.3.815a1.257,1.257,0,0,0-.644-.19.836.836,0,0,0-.518.172.941.941,0,0,0-.327.482,3.408,3.408,0,0,0-.147,1.025v2.715Z"/><path d="M222.813,177.4l.909.112a2.222,2.222,0,0,1-.8,1.236,2.4,2.4,0,0,1-1.485.439,2.369,2.369,0,0,1-1.8-.7,2.734,2.734,0,0,1-.666-1.965,2.859,2.859,0,0,1,.674-2.031,2.279,2.279,0,0,1,1.748-.723,2.218,2.218,0,0,1,1.7.708,2.815,2.815,0,0,1,.659,1.992c0,.052,0,.13,0,.235h-3.867a1.986,1.986,0,0,0,.483,1.308,1.437,1.437,0,0,0,1.084.455,1.345,1.345,0,0,0,.825-.254A1.687,1.687,0,0,0,222.813,177.4Zm-2.885-1.421h2.9a1.757,1.757,0,0,0-.332-.981,1.346,1.346,0,0,0-1.089-.508,1.4,1.4,0,0,0-1.018.405A1.6,1.6,0,0,0,219.928,175.978Z"/><path d="M224.474,177.521l.869-.137a1.215,1.215,0,0,0,.407.8,1.422,1.422,0,0,0,.936.279,1.364,1.364,0,0,0,.9-.248.737.737,0,0,0,.293-.578.532.532,0,0,0-.259-.468,3.759,3.759,0,0,0-.9-.3,8.186,8.186,0,0,1-1.341-.423,1.288,1.288,0,0,1-.566-.493,1.312,1.312,0,0,1-.193-.7,1.344,1.344,0,0,1,.158-.642,1.435,1.435,0,0,1,.433-.49,1.789,1.789,0,0,1,.559-.257,2.657,2.657,0,0,1,.759-.105,3.008,3.008,0,0,1,1.072.176,1.451,1.451,0,0,1,.681.476,1.857,1.857,0,0,1,.3.8l-.859.118a.937.937,0,0,0-.34-.625,1.232,1.232,0,0,0-.793-.225,1.426,1.426,0,0,0-.864.2.58.58,0,0,0-.259.469.487.487,0,0,0,.107.308.793.793,0,0,0,.337.234q.132.048.776.225a10.729,10.729,0,0,1,1.3.407,1.315,1.315,0,0,1,.579.462,1.285,1.285,0,0,1,.21.752,1.474,1.474,0,0,1-.257.827,1.645,1.645,0,0,1-.739.6,2.686,2.686,0,0,1-1.094.213,2.441,2.441,0,0,1-1.541-.42A1.954,1.954,0,0,1,224.474,177.521Z"/><path d="M231.744,178.283l.127.776a3.272,3.272,0,0,1-.664.078,1.5,1.5,0,0,1-.742-.151.845.845,0,0,1-.371-.4,3.1,3.1,0,0,1-.108-1.038v-2.983h-.644v-.684h.644V172.6l.874-.527v1.811h.884v.684h-.884V177.6a1.58,1.58,0,0,0,.046.484.38.38,0,0,0,.152.171.588.588,0,0,0,.3.063A3,3,0,0,0,231.744,178.283Z"/><path d="M232.608,172.922v-1.011h.879v1.011Zm0,6.147v-5.186h.879v5.186Z"/><path d="M234.825,179.069v-5.186h.786v.728a1.84,1.84,0,0,1,.65-.613,1.816,1.816,0,0,1,.923-.232,1.691,1.691,0,0,1,.944.24,1.272,1.272,0,0,1,.52.669,1.863,1.863,0,0,1,1.6-.909,1.585,1.585,0,0,1,1.187.427,1.83,1.83,0,0,1,.415,1.316v3.56h-.874V175.8a2.4,2.4,0,0,0-.086-.759.731.731,0,0,0-.31-.373.964.964,0,0,0-.527-.142,1.228,1.228,0,0,0-.909.363,1.6,1.6,0,0,0-.361,1.165v3.013h-.879V175.7a1.483,1.483,0,0,0-.215-.879.815.815,0,0,0-.7-.293,1.269,1.269,0,0,0-.686.2,1.1,1.1,0,0,0-.456.572,3.193,3.193,0,0,0-.142,1.084v2.69Z"/><path d="M246.539,178.429a3.276,3.276,0,0,1-.94.586,2.713,2.713,0,0,1-.969.171,1.883,1.883,0,0,1-1.314-.418,1.377,1.377,0,0,1-.459-1.066,1.425,1.425,0,0,1,.173-.7,1.449,1.449,0,0,1,.454-.5,2.124,2.124,0,0,1,.633-.288,6.123,6.123,0,0,1,.781-.132,8.1,8.1,0,0,0,1.568-.3c0-.121,0-.2,0-.229a.969.969,0,0,0-.249-.757,1.466,1.466,0,0,0-1-.3,1.552,1.552,0,0,0-.916.217,1.325,1.325,0,0,0-.437.769l-.859-.117a2.123,2.123,0,0,1,.386-.892,1.69,1.69,0,0,1,.776-.522,3.46,3.46,0,0,1,1.177-.183,3.1,3.1,0,0,1,1.079.157,1.426,1.426,0,0,1,.61.392,1.4,1.4,0,0,1,.274.6,5.007,5.007,0,0,1,.043.81V176.9a12.532,12.532,0,0,0,.056,1.55,1.941,1.941,0,0,0,.223.623h-.918A1.823,1.823,0,0,1,246.539,178.429Zm-.073-1.963a6.519,6.519,0,0,1-1.436.333,3.266,3.266,0,0,0-.766.175.757.757,0,0,0-.347.285.778.778,0,0,0,.144,1,1.141,1.141,0,0,0,.779.235,1.8,1.8,0,0,0,.9-.223,1.361,1.361,0,0,0,.581-.607,2.138,2.138,0,0,0,.142-.879Z"/><path d="M250.636,178.283l.127.776a3.272,3.272,0,0,1-.664.078,1.5,1.5,0,0,1-.743-.151.855.855,0,0,1-.371-.4,3.138,3.138,0,0,1-.107-1.038v-2.983h-.645v-.684h.645V172.6l.874-.527v1.811h.884v.684h-.884V177.6a1.58,1.58,0,0,0,.046.484.378.378,0,0,0,.151.171.592.592,0,0,0,.3.063A3,3,0,0,0,250.636,178.283Z"/><path d="M251.5,172.922v-1.011h.879v1.011Zm0,6.147v-5.186h.879v5.186Z"/><path d="M253.39,176.476a2.671,2.671,0,0,1,.8-2.134,2.414,2.414,0,0,1,1.631-.576,2.331,2.331,0,0,1,1.748.7,2.671,2.671,0,0,1,.679,1.937,3.429,3.429,0,0,1-.3,1.574,2.123,2.123,0,0,1-.874.892,2.549,2.549,0,0,1-1.252.317,2.332,2.332,0,0,1-1.76-.7A2.79,2.79,0,0,1,253.39,176.476Zm.9,0a2.2,2.2,0,0,0,.435,1.491,1.445,1.445,0,0,0,2.182,0,2.269,2.269,0,0,0,.435-1.519,2.14,2.14,0,0,0-.438-1.458,1.448,1.448,0,0,0-2.179,0A2.2,2.2,0,0,0,254.293,176.476Z"/><path d="M259.278,179.069v-5.186h.791v.738a1.862,1.862,0,0,1,1.651-.855,2.168,2.168,0,0,1,.861.168,1.358,1.358,0,0,1,.589.443,1.685,1.685,0,0,1,.273.649,4.972,4.972,0,0,1,.049.855v3.188h-.879v-3.154a2.383,2.383,0,0,0-.1-.8.853.853,0,0,0-.365-.425,1.157,1.157,0,0,0-.612-.158,1.425,1.425,0,0,0-.97.356,1.764,1.764,0,0,0-.407,1.353v2.832Z"/><path d="M267.623,172.922v-1.011h.879v1.011Zm0,6.147v-5.186h.879v5.186Z"/><path d="M269.488,177.521l.869-.137a1.216,1.216,0,0,0,.408.8,1.419,1.419,0,0,0,.935.279,1.367,1.367,0,0,0,.9-.248.737.737,0,0,0,.293-.578.532.532,0,0,0-.259-.468,3.755,3.755,0,0,0-.9-.3,8.2,8.2,0,0,1-1.34-.423,1.3,1.3,0,0,1-.567-.493,1.311,1.311,0,0,1-.192-.7,1.344,1.344,0,0,1,.158-.642,1.425,1.425,0,0,1,.433-.49,1.783,1.783,0,0,1,.558-.257,2.664,2.664,0,0,1,.76-.105,3,3,0,0,1,1.071.176,1.454,1.454,0,0,1,.682.476,1.869,1.869,0,0,1,.3.8l-.86.118a.933.933,0,0,0-.34-.625,1.23,1.23,0,0,0-.793-.225,1.43,1.43,0,0,0-.864.2.58.58,0,0,0-.259.469.488.488,0,0,0,.108.308.786.786,0,0,0,.337.234c.088.032.346.107.776.225a10.79,10.79,0,0,1,1.3.407,1.32,1.32,0,0,1,.579.462,1.285,1.285,0,0,1,.21.752,1.474,1.474,0,0,1-.257.827,1.65,1.65,0,0,1-.739.6,2.689,2.689,0,0,1-1.094.213,2.439,2.439,0,0,1-1.541-.42A1.96,1.96,0,0,1,269.488,177.521Z"/><path d="M277.618,181.056v-7.173h.8v.674a1.951,1.951,0,0,1,.64-.593,1.752,1.752,0,0,1,.864-.2,2.051,2.051,0,0,1,1.172.342,2.1,2.1,0,0,1,.766.964,3.513,3.513,0,0,1,.259,1.365,3.459,3.459,0,0,1-.286,1.433,2.174,2.174,0,0,1-1.975,1.316,1.667,1.667,0,0,1-.789-.185,1.808,1.808,0,0,1-.573-.469v2.524Zm.8-4.55a2.256,2.256,0,0,0,.405,1.479,1.249,1.249,0,0,0,.982.479,1.272,1.272,0,0,0,1-.5,2.355,2.355,0,0,0,.417-1.535,2.287,2.287,0,0,0-.408-1.484,1.226,1.226,0,0,0-.974-.493,1.27,1.27,0,0,0-.994.524A2.359,2.359,0,0,0,278.414,176.506Z"/><path d="M282.853,176.476a2.671,2.671,0,0,1,.8-2.134,2.416,2.416,0,0,1,1.631-.576,2.329,2.329,0,0,1,1.748.7,2.671,2.671,0,0,1,.679,1.937,3.443,3.443,0,0,1-.3,1.574,2.131,2.131,0,0,1-.875.892,2.549,2.549,0,0,1-1.252.317,2.334,2.334,0,0,1-1.76-.7A2.79,2.79,0,0,1,282.853,176.476Zm.9,0a2.2,2.2,0,0,0,.434,1.491,1.446,1.446,0,0,0,2.183,0,2.263,2.263,0,0,0,.435-1.519,2.14,2.14,0,0,0-.438-1.458,1.45,1.45,0,0,0-2.18,0A2.2,2.2,0,0,0,283.756,176.476Z"/><path d="M288.39,177.521l.869-.137a1.215,1.215,0,0,0,.407.8,1.422,1.422,0,0,0,.936.279,1.364,1.364,0,0,0,.9-.248.737.737,0,0,0,.293-.578.53.53,0,0,0-.259-.468,3.741,3.741,0,0,0-.9-.3,8.219,8.219,0,0,1-1.341-.423,1.294,1.294,0,0,1-.566-.493,1.312,1.312,0,0,1-.193-.7,1.334,1.334,0,0,1,.159-.642,1.422,1.422,0,0,1,.432-.49,1.789,1.789,0,0,1,.559-.257,2.657,2.657,0,0,1,.759-.105,3.013,3.013,0,0,1,1.073.176,1.453,1.453,0,0,1,.68.476,1.857,1.857,0,0,1,.3.8l-.859.118a.94.94,0,0,0-.339-.625,1.237,1.237,0,0,0-.794-.225,1.43,1.43,0,0,0-.864.2.58.58,0,0,0-.259.469.493.493,0,0,0,.107.308.793.793,0,0,0,.337.234q.132.048.776.225a10.761,10.761,0,0,1,1.3.407,1.312,1.312,0,0,1,.578.462,1.285,1.285,0,0,1,.21.752,1.466,1.466,0,0,1-.257.827,1.64,1.64,0,0,1-.739.6,2.683,2.683,0,0,1-1.094.213,2.436,2.436,0,0,1-1.54-.42A1.951,1.951,0,0,1,288.39,177.521Z"/><path d="M293.39,177.521l.869-.137a1.215,1.215,0,0,0,.407.8,1.422,1.422,0,0,0,.936.279,1.364,1.364,0,0,0,.9-.248.737.737,0,0,0,.293-.578.53.53,0,0,0-.259-.468,3.741,3.741,0,0,0-.9-.3,8.219,8.219,0,0,1-1.341-.423,1.294,1.294,0,0,1-.566-.493,1.312,1.312,0,0,1-.193-.7,1.334,1.334,0,0,1,.159-.642,1.422,1.422,0,0,1,.432-.49,1.789,1.789,0,0,1,.559-.257,2.657,2.657,0,0,1,.759-.105,3.013,3.013,0,0,1,1.073.176,1.453,1.453,0,0,1,.68.476,1.857,1.857,0,0,1,.3.8l-.859.118a.94.94,0,0,0-.339-.625,1.237,1.237,0,0,0-.794-.225,1.43,1.43,0,0,0-.864.2.58.58,0,0,0-.259.469.493.493,0,0,0,.107.308.793.793,0,0,0,.337.234q.132.048.776.225a10.761,10.761,0,0,1,1.3.407,1.312,1.312,0,0,1,.578.462,1.285,1.285,0,0,1,.21.752,1.466,1.466,0,0,1-.257.827,1.64,1.64,0,0,1-.739.6,2.683,2.683,0,0,1-1.094.213,2.436,2.436,0,0,1-1.54-.42A1.951,1.951,0,0,1,293.39,177.521Z"/><path d="M298.746,172.922v-1.011h.879v1.011Zm0,6.147v-5.186h.879v5.186Z"/><path d="M301.773,179.069h-.815v-7.158h.879v2.554a1.739,1.739,0,0,1,1.421-.7,2.179,2.179,0,0,1,.905.193,1.843,1.843,0,0,1,.7.542,2.615,2.615,0,0,1,.433.842,3.478,3.478,0,0,1,.156,1.055,2.967,2.967,0,0,1-.659,2.061,2.066,2.066,0,0,1-1.582.727,1.655,1.655,0,0,1-1.441-.766Zm-.009-2.632a2.7,2.7,0,0,0,.254,1.348,1.256,1.256,0,0,0,2.119.178,2.273,2.273,0,0,0,.42-1.492,2.306,2.306,0,0,0-.4-1.5,1.223,1.223,0,0,0-.973-.483,1.266,1.266,0,0,0-1,.5A2.192,2.192,0,0,0,301.764,176.437Z"/><path d="M306.505,179.069v-7.158h.879v7.158Z"/><path d="M312.3,177.4l.908.112a2.212,2.212,0,0,1-.8,1.236,2.391,2.391,0,0,1-1.484.439,2.366,2.366,0,0,1-1.8-.7,2.734,2.734,0,0,1-.667-1.965,2.863,2.863,0,0,1,.674-2.031,2.28,2.28,0,0,1,1.748-.723,2.216,2.216,0,0,1,1.7.708,2.81,2.81,0,0,1,.659,1.992c0,.052,0,.13,0,.235h-3.868a1.992,1.992,0,0,0,.484,1.308,1.439,1.439,0,0,0,1.084.455,1.347,1.347,0,0,0,.825-.254A1.7,1.7,0,0,0,312.3,177.4Zm-2.886-1.421h2.9a1.757,1.757,0,0,0-.332-.981,1.347,1.347,0,0,0-1.089-.508,1.4,1.4,0,0,0-1.019.405A1.606,1.606,0,0,0,309.41,175.978Z"/><path d="M320.45,179.069v-.654a1.615,1.615,0,0,1-1.45.771,2.032,2.032,0,0,1-1.14-.342,2.243,2.243,0,0,1-.806-.955,3.3,3.3,0,0,1-.285-1.408,3.683,3.683,0,0,1,.258-1.409,2.049,2.049,0,0,1,.777-.969,2.076,2.076,0,0,1,1.157-.337,1.732,1.732,0,0,1,1.431.713v-2.568h.874v7.158Zm-2.778-2.588a2.251,2.251,0,0,0,.42,1.489,1.266,1.266,0,0,0,.991.494,1.244,1.244,0,0,0,.979-.472,2.169,2.169,0,0,0,.4-1.438,2.439,2.439,0,0,0-.41-1.562,1.263,1.263,0,0,0-1.011-.5,1.217,1.217,0,0,0-.979.478A2.362,2.362,0,0,0,317.672,176.481Z"/><path d="M322.32,176.476a2.672,2.672,0,0,1,.8-2.134,2.413,2.413,0,0,1,1.631-.576,2.329,2.329,0,0,1,1.748.7,2.671,2.671,0,0,1,.679,1.937,3.443,3.443,0,0,1-.3,1.574,2.131,2.131,0,0,1-.875.892,2.549,2.549,0,0,1-1.252.317,2.331,2.331,0,0,1-1.76-.7A2.79,2.79,0,0,1,322.32,176.476Zm.9,0a2.2,2.2,0,0,0,.434,1.491,1.446,1.446,0,0,0,2.183,0,2.263,2.263,0,0,0,.434-1.519,2.14,2.14,0,0,0-.437-1.458,1.45,1.45,0,0,0-2.18,0A2.2,2.2,0,0,0,323.224,176.476Z"/><path d="M331.759,177.4l.908.112a2.217,2.217,0,0,1-.8,1.236,2.393,2.393,0,0,1-1.484.439,2.366,2.366,0,0,1-1.8-.7,2.734,2.734,0,0,1-.667-1.965,2.863,2.863,0,0,1,.674-2.031,2.28,2.28,0,0,1,1.748-.723,2.216,2.216,0,0,1,1.7.708,2.81,2.81,0,0,1,.659,1.992c0,.052,0,.13-.005.235h-3.867a1.987,1.987,0,0,0,.484,1.308,1.439,1.439,0,0,0,1.084.455,1.347,1.347,0,0,0,.825-.254A1.7,1.7,0,0,0,331.759,177.4Zm-2.886-1.421h2.9a1.765,1.765,0,0,0-.332-.981,1.347,1.347,0,0,0-1.089-.508,1.4,1.4,0,0,0-1.019.405A1.606,1.606,0,0,0,328.873,175.978Z"/><path d="M333.419,177.521l.869-.137a1.219,1.219,0,0,0,.407.8,1.422,1.422,0,0,0,.936.279,1.364,1.364,0,0,0,.9-.248.734.734,0,0,0,.293-.578.53.53,0,0,0-.259-.468,3.724,3.724,0,0,0-.9-.3,8.253,8.253,0,0,1-1.341-.423,1.28,1.28,0,0,1-.759-1.189,1.323,1.323,0,0,1,.16-.642,1.419,1.419,0,0,1,.431-.49,1.789,1.789,0,0,1,.559-.257,2.659,2.659,0,0,1,.76-.105,3.012,3.012,0,0,1,1.072.176,1.456,1.456,0,0,1,.681.476,1.856,1.856,0,0,1,.3.8l-.859.118a.936.936,0,0,0-.339-.625,1.235,1.235,0,0,0-.794-.225,1.435,1.435,0,0,0-.864.2.58.58,0,0,0-.259.469.493.493,0,0,0,.107.308.8.8,0,0,0,.337.234q.132.048.777.225a10.883,10.883,0,0,1,1.3.407,1.317,1.317,0,0,1,.578.462,1.292,1.292,0,0,1,.21.752,1.466,1.466,0,0,1-.257.827,1.642,1.642,0,0,1-.74.6,2.681,2.681,0,0,1-1.093.213,2.432,2.432,0,0,1-1.54-.42A1.952,1.952,0,0,1,333.419,177.521Z"/><path d="M341.549,179.069v-5.186h.791v.738a1.862,1.862,0,0,1,1.65-.855,2.178,2.178,0,0,1,.863.168,1.352,1.352,0,0,1,.587.443,1.686,1.686,0,0,1,.274.649,5.079,5.079,0,0,1,.049.855v3.188h-.879v-3.154a2.353,2.353,0,0,0-.1-.8.847.847,0,0,0-.364-.425,1.162,1.162,0,0,0-.612-.158,1.425,1.425,0,0,0-.97.356,1.76,1.76,0,0,0-.407,1.353v2.832Z"/><path d="M346.783,176.476a2.672,2.672,0,0,1,.8-2.134,2.413,2.413,0,0,1,1.631-.576,2.329,2.329,0,0,1,1.748.7,2.671,2.671,0,0,1,.679,1.937,3.443,3.443,0,0,1-.3,1.574,2.131,2.131,0,0,1-.875.892,2.549,2.549,0,0,1-1.252.317,2.331,2.331,0,0,1-1.76-.7A2.79,2.79,0,0,1,346.783,176.476Zm.9,0a2.2,2.2,0,0,0,.434,1.491,1.446,1.446,0,0,0,2.183,0,2.263,2.263,0,0,0,.434-1.519,2.14,2.14,0,0,0-.437-1.458,1.45,1.45,0,0,0-2.18,0A2.2,2.2,0,0,0,347.687,176.476Z"/><path d="M354.591,178.283l.127.776a3.264,3.264,0,0,1-.664.078,1.5,1.5,0,0,1-.742-.151.853.853,0,0,1-.372-.4,3.167,3.167,0,0,1-.107-1.038v-2.983h-.645v-.684h.645V172.6l.874-.527v1.811h.884v.684h-.884V177.6a1.58,1.58,0,0,0,.046.484.374.374,0,0,0,.152.171.588.588,0,0,0,.3.063A2.981,2.981,0,0,0,354.591,178.283Z"/><path d="M182.057,192.069v-.654a1.616,1.616,0,0,1-1.451.771,2.034,2.034,0,0,1-1.14-.342,2.241,2.241,0,0,1-.805-.955,3.288,3.288,0,0,1-.286-1.408,3.683,3.683,0,0,1,.259-1.409,2.041,2.041,0,0,1,.776-.969,2.081,2.081,0,0,1,1.157-.337,1.732,1.732,0,0,1,1.431.713v-2.568h.874v7.158Zm-2.779-2.588a2.251,2.251,0,0,0,.42,1.489,1.267,1.267,0,0,0,.991.494,1.242,1.242,0,0,0,.979-.472,2.169,2.169,0,0,0,.4-1.438,2.433,2.433,0,0,0-.41-1.562,1.261,1.261,0,0,0-1.011-.5,1.219,1.219,0,0,0-.979.478A2.362,2.362,0,0,0,179.278,189.481Z"/><path d="M187.8,190.4l.908.112a2.217,2.217,0,0,1-.8,1.236,2.7,2.7,0,0,1-3.289-.262,2.738,2.738,0,0,1-.666-1.965,2.863,2.863,0,0,1,.674-2.031,2.28,2.28,0,0,1,1.748-.723,2.216,2.216,0,0,1,1.7.708,2.815,2.815,0,0,1,.659,1.992c0,.052,0,.13-.005.235h-3.867a1.992,1.992,0,0,0,.484,1.308,1.436,1.436,0,0,0,1.084.455,1.347,1.347,0,0,0,.825-.254A1.694,1.694,0,0,0,187.8,190.4Zm-2.886-1.421h2.895a1.75,1.75,0,0,0-.332-.981,1.344,1.344,0,0,0-1.088-.508,1.394,1.394,0,0,0-1.018.405A1.6,1.6,0,0,0,184.918,188.978Z"/><path d="M189.815,194.056v-7.173h.8v.674a1.97,1.97,0,0,1,.64-.593,1.752,1.752,0,0,1,.864-.2,2.049,2.049,0,0,1,1.172.342,2.1,2.1,0,0,1,.767.964,3.549,3.549,0,0,1,.258,1.365,3.459,3.459,0,0,1-.286,1.433,2.174,2.174,0,0,1-1.974,1.316,1.664,1.664,0,0,1-.789-.185,1.812,1.812,0,0,1-.574-.469v2.524Zm.8-4.55a2.25,2.25,0,0,0,.406,1.479,1.243,1.243,0,0,0,.981.479,1.266,1.266,0,0,0,1-.5,2.349,2.349,0,0,0,.418-1.535,2.287,2.287,0,0,0-.408-1.484,1.228,1.228,0,0,0-.974-.493,1.267,1.267,0,0,0-.994.524A2.353,2.353,0,0,0,190.611,189.506Z"/><path d="M198.927,190.4l.908.112a2.222,2.222,0,0,1-.8,1.236,2.4,2.4,0,0,1-1.484.439,2.37,2.37,0,0,1-1.805-.7,2.738,2.738,0,0,1-.666-1.965,2.863,2.863,0,0,1,.674-2.031,2.279,2.279,0,0,1,1.748-.723,2.216,2.216,0,0,1,1.7.708,2.81,2.81,0,0,1,.659,1.992c0,.052,0,.13,0,.235h-3.867a1.987,1.987,0,0,0,.484,1.308,1.436,1.436,0,0,0,1.084.455,1.349,1.349,0,0,0,.825-.254A1.7,1.7,0,0,0,198.927,190.4Zm-2.886-1.421h2.9A1.765,1.765,0,0,0,198.6,188a1.346,1.346,0,0,0-1.088-.508,1.4,1.4,0,0,0-1.019.405A1.606,1.606,0,0,0,196.041,188.978Z"/><path d="M200.938,192.069v-5.186h.791v.738a1.862,1.862,0,0,1,1.651-.855,2.168,2.168,0,0,1,.861.168,1.358,1.358,0,0,1,.589.443,1.7,1.7,0,0,1,.274.649,5.11,5.11,0,0,1,.048.855v3.188h-.879v-3.154a2.383,2.383,0,0,0-.1-.8.851.851,0,0,0-.364-.425,1.163,1.163,0,0,0-.613-.158,1.42,1.42,0,0,0-.969.356,1.759,1.759,0,0,0-.408,1.353v2.832Z"/><path d="M209.864,192.069v-.654a1.615,1.615,0,0,1-1.45.771,2.035,2.035,0,0,1-1.141-.342,2.241,2.241,0,0,1-.805-.955,3.288,3.288,0,0,1-.285-1.408,3.7,3.7,0,0,1,.258-1.409,2.037,2.037,0,0,1,.777-.969,2.078,2.078,0,0,1,1.157-.337,1.726,1.726,0,0,1,.835.2,1.744,1.744,0,0,1,.6.515v-2.568h.874v7.158Zm-2.778-2.588a2.251,2.251,0,0,0,.42,1.489,1.264,1.264,0,0,0,.991.494,1.245,1.245,0,0,0,.979-.472,2.174,2.174,0,0,0,.4-1.438,2.439,2.439,0,0,0-.41-1.562,1.263,1.263,0,0,0-1.011-.5,1.217,1.217,0,0,0-.979.478A2.362,2.362,0,0,0,207.086,189.481Z"/><path d="M214.513,189.476a2.671,2.671,0,0,1,.8-2.134,2.414,2.414,0,0,1,1.631-.576,2.331,2.331,0,0,1,1.748.7,2.667,2.667,0,0,1,.679,1.937,3.416,3.416,0,0,1-.3,1.574,2.123,2.123,0,0,1-.874.892,2.549,2.549,0,0,1-1.252.317,2.332,2.332,0,0,1-1.76-.7A2.79,2.79,0,0,1,214.513,189.476Zm.9,0a2.2,2.2,0,0,0,.435,1.491,1.445,1.445,0,0,0,2.182,0,2.269,2.269,0,0,0,.435-1.519,2.14,2.14,0,0,0-.438-1.458,1.448,1.448,0,0,0-2.179,0A2.2,2.2,0,0,0,215.416,189.476Z"/><path d="M220.4,192.069v-5.186h.791v.738a1.862,1.862,0,0,1,1.651-.855,2.168,2.168,0,0,1,.861.168,1.358,1.358,0,0,1,.589.443,1.685,1.685,0,0,1,.273.649,4.972,4.972,0,0,1,.049.855v3.188h-.879v-3.154a2.383,2.383,0,0,0-.1-.8.856.856,0,0,0-.364-.425,1.163,1.163,0,0,0-.613-.158,1.42,1.42,0,0,0-.969.356,1.759,1.759,0,0,0-.408,1.353v2.832Z"/><path d="M230.66,191.283l.127.776a3.272,3.272,0,0,1-.664.078,1.5,1.5,0,0,1-.742-.151.845.845,0,0,1-.371-.4,3.13,3.13,0,0,1-.108-1.038v-2.983h-.644v-.684h.644V185.6l.874-.527v1.811h.884v.684h-.884V190.6a1.58,1.58,0,0,0,.046.484.38.38,0,0,0,.152.171.588.588,0,0,0,.3.063A3,3,0,0,0,230.66,191.283Z"/><path d="M231.52,192.069v-7.158h.878v2.568a1.966,1.966,0,0,1,1.553-.713,2.086,2.086,0,0,1,1,.227,1.329,1.329,0,0,1,.608.628,2.89,2.89,0,0,1,.183,1.162v3.286h-.879v-3.286a1.355,1.355,0,0,0-.286-.96,1.061,1.061,0,0,0-.807-.3,1.439,1.439,0,0,0-.736.2,1.153,1.153,0,0,0-.49.55,2.514,2.514,0,0,0-.147.957v2.837Z"/><path d="M240.631,190.4l.908.112a2.217,2.217,0,0,1-.8,1.236,2.4,2.4,0,0,1-1.484.439,2.37,2.37,0,0,1-1.8-.7,2.738,2.738,0,0,1-.666-1.965,2.863,2.863,0,0,1,.674-2.031,2.279,2.279,0,0,1,1.748-.723,2.216,2.216,0,0,1,1.7.708,2.81,2.81,0,0,1,.659,1.992c0,.052,0,.13-.005.235H237.7a1.992,1.992,0,0,0,.484,1.308,1.436,1.436,0,0,0,1.084.455,1.349,1.349,0,0,0,.825-.254A1.7,1.7,0,0,0,240.631,190.4Zm-2.886-1.421h2.9a1.765,1.765,0,0,0-.332-.981,1.349,1.349,0,0,0-1.089-.508,1.4,1.4,0,0,0-1.019.405A1.606,1.606,0,0,0,237.745,188.978Z"/><path d="M248.785,192.069v-.654a1.615,1.615,0,0,1-1.45.771,2.035,2.035,0,0,1-1.141-.342,2.241,2.241,0,0,1-.8-.955,3.288,3.288,0,0,1-.285-1.408,3.683,3.683,0,0,1,.258-1.409,2.037,2.037,0,0,1,.777-.969,2.076,2.076,0,0,1,1.157-.337,1.732,1.732,0,0,1,1.431.713v-2.568h.874v7.158Zm-2.778-2.588a2.246,2.246,0,0,0,.42,1.489,1.264,1.264,0,0,0,.991.494,1.242,1.242,0,0,0,.978-.472,2.169,2.169,0,0,0,.4-1.438,2.439,2.439,0,0,0-.41-1.562,1.263,1.263,0,0,0-1.011-.5,1.22,1.22,0,0,0-.98.478A2.369,2.369,0,0,0,246.007,189.481Z"/><path d="M250.987,185.922v-1.011h.879v1.011Zm0,6.147v-5.186h.879v5.186Z"/><path d="M253.414,192.069v-4.5h-.776v-.684h.776v-.551a2.383,2.383,0,0,1,.093-.777,1.116,1.116,0,0,1,.446-.554,1.61,1.61,0,0,1,.9-.212,4.275,4.275,0,0,1,.82.088l-.132.766a2.914,2.914,0,0,0-.517-.049.769.769,0,0,0-.567.171.925.925,0,0,0-.166.64v.478H255.3v.684h-1.011v4.5Z"/><path d="M256.192,192.069v-4.5h-.776v-.684h.776v-.551a2.411,2.411,0,0,1,.093-.777,1.122,1.122,0,0,1,.446-.554,1.61,1.61,0,0,1,.9-.212,4.275,4.275,0,0,1,.82.088l-.132.766a2.906,2.906,0,0,0-.517-.049.77.77,0,0,0-.567.171.925.925,0,0,0-.166.64v.478h1.011v.684h-1.011v4.5Z"/><path d="M258.751,192.069v-5.186h.791v.787a2.123,2.123,0,0,1,.559-.728.976.976,0,0,1,.564-.176,1.7,1.7,0,0,1,.9.284l-.3.815a1.258,1.258,0,0,0-.645-.19.836.836,0,0,0-.517.172.943.943,0,0,0-.328.482,3.44,3.44,0,0,0-.146,1.025v2.715Z"/><path d="M265.475,191.429a3.28,3.28,0,0,1-.941.586,2.713,2.713,0,0,1-.969.171,1.88,1.88,0,0,1-1.313-.418,1.374,1.374,0,0,1-.459-1.066,1.443,1.443,0,0,1,.627-1.2,2.1,2.1,0,0,1,.633-.288,6.091,6.091,0,0,1,.781-.132,8.088,8.088,0,0,0,1.567-.3c0-.121,0-.2,0-.229a.969.969,0,0,0-.249-.757,1.462,1.462,0,0,0-1-.3,1.554,1.554,0,0,0-.916.217,1.324,1.324,0,0,0-.436.769l-.86-.117a2.123,2.123,0,0,1,.386-.892,1.7,1.7,0,0,1,.776-.522,3.464,3.464,0,0,1,1.177-.183,3.093,3.093,0,0,1,1.079.157,1.424,1.424,0,0,1,.611.392,1.4,1.4,0,0,1,.273.6,4.973,4.973,0,0,1,.044.81V189.9a12.532,12.532,0,0,0,.056,1.55,1.963,1.963,0,0,0,.222.623h-.918A1.845,1.845,0,0,1,265.475,191.429Zm-.074-1.963a6.493,6.493,0,0,1-1.435.333,3.277,3.277,0,0,0-.767.175.759.759,0,0,0-.346.285.776.776,0,0,0,.143,1,1.144,1.144,0,0,0,.779.235,1.809,1.809,0,0,0,.9-.223,1.366,1.366,0,0,0,.581-.607,2.141,2.141,0,0,0,.141-.879Z"/><path d="M271.036,190.17l.864.112a2.236,2.236,0,0,1-.725,1.4,2.111,2.111,0,0,1-1.433.506,2.228,2.228,0,0,1-1.712-.7,2.829,2.829,0,0,1-.646-1.994,3.617,3.617,0,0,1,.278-1.47,1.944,1.944,0,0,1,.847-.945,2.516,2.516,0,0,1,1.238-.315,2.157,2.157,0,0,1,1.382.427,1.966,1.966,0,0,1,.688,1.214l-.854.132a1.416,1.416,0,0,0-.433-.786,1.115,1.115,0,0,0-.749-.264,1.362,1.362,0,0,0-1.079.476,2.256,2.256,0,0,0-.415,1.506,2.331,2.331,0,0,0,.4,1.519,1.3,1.3,0,0,0,1.044.474,1.238,1.238,0,0,0,.865-.318A1.582,1.582,0,0,0,271.036,190.17Z"/><path d="M274.571,191.283l.127.776a3.272,3.272,0,0,1-.664.078,1.5,1.5,0,0,1-.742-.151.845.845,0,0,1-.371-.4,3.13,3.13,0,0,1-.108-1.038v-2.983h-.644v-.684h.644V185.6l.875-.527v1.811h.883v.684h-.883V190.6a1.591,1.591,0,0,0,.045.484.38.38,0,0,0,.152.171.589.589,0,0,0,.3.063A3,3,0,0,0,274.571,191.283Z"/><path d="M275.436,185.922v-1.011h.878v1.011Zm0,6.147v-5.186h.878v5.186Z"/><path d="M277.325,189.476a2.672,2.672,0,0,1,.8-2.134,2.413,2.413,0,0,1,1.631-.576,2.329,2.329,0,0,1,1.748.7,2.671,2.671,0,0,1,.679,1.937,3.443,3.443,0,0,1-.3,1.574,2.131,2.131,0,0,1-.875.892,2.549,2.549,0,0,1-1.252.317,2.335,2.335,0,0,1-1.761-.7A2.794,2.794,0,0,1,277.325,189.476Zm.9,0a2.2,2.2,0,0,0,.434,1.491,1.446,1.446,0,0,0,2.183,0,2.263,2.263,0,0,0,.434-1.519,2.14,2.14,0,0,0-.437-1.458,1.45,1.45,0,0,0-2.18,0A2.2,2.2,0,0,0,278.229,189.476Z"/><path d="M283.214,192.069v-5.186h.791v.738a1.862,1.862,0,0,1,1.65-.855,2.178,2.178,0,0,1,.863.168,1.352,1.352,0,0,1,.587.443,1.686,1.686,0,0,1,.274.649,5.079,5.079,0,0,1,.049.855v3.188h-.879v-3.154a2.353,2.353,0,0,0-.1-.8.847.847,0,0,0-.364-.425,1.162,1.162,0,0,0-.612-.158,1.425,1.425,0,0,0-.97.356,1.764,1.764,0,0,0-.407,1.353v2.832Z"/><path d="M291.534,192.069v-7.158h.879v7.158Z"/><path d="M293.78,185.922v-1.011h.879v1.011Zm0,6.147v-5.186h.879v5.186Z"/><path d="M296,192.069v-5.186h.786v.728a1.848,1.848,0,0,1,.65-.613,1.82,1.82,0,0,1,.922-.232,1.7,1.7,0,0,1,.946.24,1.27,1.27,0,0,1,.519.669,1.863,1.863,0,0,1,1.6-.909,1.578,1.578,0,0,1,1.186.427,1.826,1.826,0,0,1,.415,1.316v3.56h-.874V188.8a2.409,2.409,0,0,0-.085-.759.731.731,0,0,0-.31-.373.962.962,0,0,0-.527-.142,1.232,1.232,0,0,0-.909.363,1.6,1.6,0,0,0-.361,1.165v3.013h-.879V188.7a1.476,1.476,0,0,0-.215-.879.815.815,0,0,0-.7-.293,1.265,1.265,0,0,0-.685.2,1.1,1.1,0,0,0-.457.572,3.193,3.193,0,0,0-.142,1.084v2.69Z"/><path d="M304.332,185.922v-1.011h.879v1.011Zm0,6.147v-5.186h.879v5.186Z"/><path d="M308.468,191.283l.127.776a3.264,3.264,0,0,1-.664.078,1.5,1.5,0,0,1-.743-.151.855.855,0,0,1-.371-.4,3.167,3.167,0,0,1-.107-1.038v-2.983h-.645v-.684h.645V185.6l.874-.527v1.811h.884v.684h-.884V190.6a1.58,1.58,0,0,0,.046.484.374.374,0,0,0,.152.171.588.588,0,0,0,.3.063A2.981,2.981,0,0,0,308.468,191.283Z"/><path d="M23.336,179.069l2.749-7.158h1.02l2.93,7.158H28.956l-.835-2.168H25.128l-.786,2.168ZM25.4,176.13h2.427l-.747-1.983q-.342-.9-.508-1.484a9.121,9.121,0,0,1-.385,1.367Z"/><path d="M30.68,179.069v-5.186h.791v.738a1.862,1.862,0,0,1,1.65-.855,2.169,2.169,0,0,1,.862.168,1.355,1.355,0,0,1,.588.443,1.686,1.686,0,0,1,.274.649,5.079,5.079,0,0,1,.049.855v3.188h-.879v-3.154a2.379,2.379,0,0,0-.1-.8.847.847,0,0,0-.364-.425,1.162,1.162,0,0,0-.612-.158,1.423,1.423,0,0,0-.97.356,1.76,1.76,0,0,0-.407,1.353v2.832Z"/><path d="M39.625,178.429a3.276,3.276,0,0,1-.94.586,2.713,2.713,0,0,1-.969.171,1.883,1.883,0,0,1-1.314-.418,1.377,1.377,0,0,1-.459-1.066,1.415,1.415,0,0,1,.174-.7,1.43,1.43,0,0,1,.454-.5,2.107,2.107,0,0,1,.632-.288,6.123,6.123,0,0,1,.781-.132,8.085,8.085,0,0,0,1.568-.3c0-.121.005-.2.005-.229a.969.969,0,0,0-.249-.757,1.464,1.464,0,0,0-1-.3,1.552,1.552,0,0,0-.916.217,1.325,1.325,0,0,0-.437.769l-.859-.117a2.135,2.135,0,0,1,.385-.892,1.7,1.7,0,0,1,.777-.522,3.464,3.464,0,0,1,1.177-.183,3.1,3.1,0,0,1,1.079.157,1.414,1.414,0,0,1,.61.392,1.387,1.387,0,0,1,.273.6,4.858,4.858,0,0,1,.044.81V176.9a12.244,12.244,0,0,0,.057,1.55,1.939,1.939,0,0,0,.222.623H39.8A1.845,1.845,0,0,1,39.625,178.429Zm-.073-1.963a6.5,6.5,0,0,1-1.436.333,3.279,3.279,0,0,0-.766.175.762.762,0,0,0-.347.285.778.778,0,0,0,.144,1,1.141,1.141,0,0,0,.779.235,1.8,1.8,0,0,0,.9-.223,1.356,1.356,0,0,0,.581-.607,2.138,2.138,0,0,0,.142-.879Z"/><path d="M41.783,179.069v-7.158h.879v7.158Z"/><path d="M43.985,181.066l-.1-.825a1.963,1.963,0,0,0,.5.078.963.963,0,0,0,.468-.1.785.785,0,0,0,.288-.273,4.315,4.315,0,0,0,.269-.654c.016-.049.042-.121.078-.215l-1.968-5.2h.948l1.079,3q.21.571.376,1.2a11.73,11.73,0,0,1,.361-1.182l1.108-3.023h.879l-1.972,5.274a10.552,10.552,0,0,1-.493,1.177,1.735,1.735,0,0,1-.538.636,1.258,1.258,0,0,1-.722.2A1.782,1.782,0,0,1,43.985,181.066Z"/><path d="M48.673,177.521l.869-.137a1.216,1.216,0,0,0,.408.8,1.417,1.417,0,0,0,.935.279,1.362,1.362,0,0,0,.9-.248.734.734,0,0,0,.293-.578.53.53,0,0,0-.259-.468,3.741,3.741,0,0,0-.9-.3,8.165,8.165,0,0,1-1.34-.423,1.3,1.3,0,0,1-.567-.493,1.312,1.312,0,0,1-.193-.7,1.334,1.334,0,0,1,.159-.642,1.432,1.432,0,0,1,.432-.49,1.789,1.789,0,0,1,.559-.257,2.659,2.659,0,0,1,.76-.105,3,3,0,0,1,1.071.176,1.446,1.446,0,0,1,.681.476,1.844,1.844,0,0,1,.3.8l-.859.118a.937.937,0,0,0-.34-.625,1.232,1.232,0,0,0-.793-.225,1.43,1.43,0,0,0-.864.2.58.58,0,0,0-.259.469.493.493,0,0,0,.107.308.8.8,0,0,0,.337.234q.132.048.777.225a10.851,10.851,0,0,1,1.3.407,1.32,1.32,0,0,1,.579.462,1.285,1.285,0,0,1,.209.752,1.473,1.473,0,0,1-.256.827,1.648,1.648,0,0,1-.74.6,2.685,2.685,0,0,1-1.093.213,2.437,2.437,0,0,1-1.541-.42A1.955,1.955,0,0,1,48.673,177.521Z"/><path d="M54.029,172.922v-1.011h.879v1.011Zm0,6.147v-5.186h.879v5.186Z"/><path d="M55.9,177.521l.869-.137a1.215,1.215,0,0,0,.407.8,1.421,1.421,0,0,0,.935.279,1.365,1.365,0,0,0,.9-.248.737.737,0,0,0,.293-.578.532.532,0,0,0-.259-.468,3.759,3.759,0,0,0-.9-.3,8.186,8.186,0,0,1-1.341-.423,1.288,1.288,0,0,1-.566-.493,1.3,1.3,0,0,1-.193-.7,1.334,1.334,0,0,1,.159-.642,1.432,1.432,0,0,1,.432-.49,1.789,1.789,0,0,1,.559-.257,2.657,2.657,0,0,1,.759-.105,3.008,3.008,0,0,1,1.072.176,1.446,1.446,0,0,1,.681.476,1.844,1.844,0,0,1,.3.8l-.86.118a.936.936,0,0,0-.339-.625,1.234,1.234,0,0,0-.793-.225,1.436,1.436,0,0,0-.865.2.582.582,0,0,0-.258.469.487.487,0,0,0,.107.308.8.8,0,0,0,.337.234q.132.048.776.225a10.822,10.822,0,0,1,1.3.407,1.317,1.317,0,0,1,.578.462,1.285,1.285,0,0,1,.21.752,1.473,1.473,0,0,1-.256.827,1.653,1.653,0,0,1-.74.6,2.686,2.686,0,0,1-1.094.213,2.436,2.436,0,0,1-1.54-.42A1.951,1.951,0,0,1,55.9,177.521Z"/><path d="M63.7,176.476a2.672,2.672,0,0,1,.8-2.134,2.414,2.414,0,0,1,1.631-.576,2.331,2.331,0,0,1,1.748.7,2.667,2.667,0,0,1,.679,1.937,3.416,3.416,0,0,1-.3,1.574,2.123,2.123,0,0,1-.874.892,2.546,2.546,0,0,1-1.252.317,2.331,2.331,0,0,1-1.76-.7A2.79,2.79,0,0,1,63.7,176.476Zm.9,0a2.21,2.21,0,0,0,.434,1.491,1.446,1.446,0,0,0,2.183,0,2.269,2.269,0,0,0,.434-1.519,2.14,2.14,0,0,0-.437-1.458,1.45,1.45,0,0,0-2.18,0A2.2,2.2,0,0,0,64.6,176.476Z"/><path d="M69.8,179.069v-4.5H69.02v-.684H69.8v-.551a2.411,2.411,0,0,1,.093-.777,1.116,1.116,0,0,1,.446-.554,1.609,1.609,0,0,1,.9-.212,4.276,4.276,0,0,1,.821.088l-.132.766a2.908,2.908,0,0,0-.518-.049.769.769,0,0,0-.566.171.925.925,0,0,0-.166.64v.478h1.011v.684H70.67v4.5Z"/><path d="M77.062,178.283l.126.776a3.256,3.256,0,0,1-.664.078,1.505,1.505,0,0,1-.742-.151.85.85,0,0,1-.371-.4,3.138,3.138,0,0,1-.107-1.038v-2.983h-.645v-.684H75.3V172.6l.874-.527v1.811h.884v.684h-.884V177.6a1.547,1.547,0,0,0,.046.484.378.378,0,0,0,.151.171.589.589,0,0,0,.3.063A3.01,3.01,0,0,0,77.062,178.283Z"/><path d="M77.921,179.069v-7.158H78.8v2.568a1.965,1.965,0,0,1,1.553-.713,2.089,2.089,0,0,1,1,.227,1.327,1.327,0,0,1,.607.628,2.887,2.887,0,0,1,.184,1.162v3.286h-.879v-3.286a1.36,1.36,0,0,0-.286-.96,1.062,1.062,0,0,0-.808-.3,1.438,1.438,0,0,0-.735.2,1.155,1.155,0,0,0-.491.55,2.536,2.536,0,0,0-.146.957v2.837Z"/><path d="M87.032,177.4l.908.112a2.216,2.216,0,0,1-.8,1.236,2.4,2.4,0,0,1-1.485.439,2.369,2.369,0,0,1-1.8-.7,2.739,2.739,0,0,1-.667-1.965,2.863,2.863,0,0,1,.674-2.031,2.282,2.282,0,0,1,1.748-.723,2.218,2.218,0,0,1,1.7.708,2.815,2.815,0,0,1,.659,1.992c0,.052,0,.13,0,.235H84.1a1.992,1.992,0,0,0,.483,1.308,1.439,1.439,0,0,0,1.084.455,1.347,1.347,0,0,0,.825-.254A1.687,1.687,0,0,0,87.032,177.4Zm-2.886-1.421h2.9A1.757,1.757,0,0,0,86.71,175a1.346,1.346,0,0,0-1.089-.508,1.4,1.4,0,0,0-1.018.405A1.606,1.606,0,0,0,84.146,175.978Z"/><path d="M95.372,177.4l.908.112a2.212,2.212,0,0,1-.8,1.236,2.7,2.7,0,0,1-3.288-.262,2.734,2.734,0,0,1-.667-1.965,2.863,2.863,0,0,1,.674-2.031,2.28,2.28,0,0,1,1.748-.723,2.215,2.215,0,0,1,1.7.708,2.811,2.811,0,0,1,.66,1.992c0,.052,0,.13,0,.235H92.438a1.986,1.986,0,0,0,.483,1.308,1.437,1.437,0,0,0,1.084.455,1.347,1.347,0,0,0,.825-.254A1.687,1.687,0,0,0,95.372,177.4Zm-2.886-1.421h2.9A1.757,1.757,0,0,0,95.05,175a1.346,1.346,0,0,0-1.089-.508,1.4,1.4,0,0,0-1.018.405A1.606,1.606,0,0,0,92.486,175.978Z"/><path d="M97.032,177.521l.869-.137a1.216,1.216,0,0,0,.408.8,1.419,1.419,0,0,0,.935.279,1.367,1.367,0,0,0,.9-.248.737.737,0,0,0,.293-.578.532.532,0,0,0-.259-.468,3.755,3.755,0,0,0-.9-.3,8.2,8.2,0,0,1-1.34-.423,1.288,1.288,0,0,1-.566-.493,1.3,1.3,0,0,1-.193-.7,1.333,1.333,0,0,1,.158-.642,1.425,1.425,0,0,1,.433-.49,1.779,1.779,0,0,1,.559-.257,2.652,2.652,0,0,1,.759-.105,3.008,3.008,0,0,1,1.072.176,1.456,1.456,0,0,1,.681.476,1.869,1.869,0,0,1,.3.8l-.86.118a.936.936,0,0,0-.339-.625,1.235,1.235,0,0,0-.794-.225,1.433,1.433,0,0,0-.864.2.583.583,0,0,0-.259.469.488.488,0,0,0,.108.308.8.8,0,0,0,.337.234c.088.032.346.107.776.225a10.729,10.729,0,0,1,1.3.407,1.315,1.315,0,0,1,.579.462,1.285,1.285,0,0,1,.21.752,1.481,1.481,0,0,1-.256.827,1.653,1.653,0,0,1-.74.6,2.686,2.686,0,0,1-1.094.213,2.439,2.439,0,0,1-1.541-.42A1.955,1.955,0,0,1,97.032,177.521Z"/><path d="M104.3,178.283l.127.776a3.272,3.272,0,0,1-.664.078,1.507,1.507,0,0,1-.743-.151.855.855,0,0,1-.371-.4,3.167,3.167,0,0,1-.107-1.038v-2.983H101.9v-.684h.645V172.6l.874-.527v1.811h.884v.684h-.884V177.6a1.58,1.58,0,0,0,.046.484.374.374,0,0,0,.152.171.588.588,0,0,0,.3.063A3,3,0,0,0,104.3,178.283Z"/><path d="M105.167,172.922v-1.011h.879v1.011Zm0,6.147v-5.186h.879v5.186Z"/><path d="M107.384,179.069v-5.186h.786v.728a1.854,1.854,0,0,1,.649-.613,1.821,1.821,0,0,1,.923-.232,1.7,1.7,0,0,1,.945.24,1.272,1.272,0,0,1,.52.669,1.861,1.861,0,0,1,1.6-.909,1.581,1.581,0,0,1,1.186.427,1.826,1.826,0,0,1,.415,1.316v3.56h-.874V175.8a2.409,2.409,0,0,0-.085-.759.726.726,0,0,0-.31-.373.965.965,0,0,0-.528-.142,1.229,1.229,0,0,0-.908.363,1.6,1.6,0,0,0-.361,1.165v3.013h-.879V175.7a1.483,1.483,0,0,0-.215-.879.813.813,0,0,0-.7-.293,1.269,1.269,0,0,0-.686.2,1.111,1.111,0,0,0-.457.572,3.222,3.222,0,0,0-.141,1.084v2.69Z"/><path d="M119.1,178.429a3.276,3.276,0,0,1-.94.586,2.719,2.719,0,0,1-.97.171,1.882,1.882,0,0,1-1.313-.418,1.377,1.377,0,0,1-.459-1.066,1.443,1.443,0,0,1,.627-1.2,2.1,2.1,0,0,1,.633-.288,6.123,6.123,0,0,1,.781-.132,8.056,8.056,0,0,0,1.567-.3c0-.121,0-.2,0-.229a.969.969,0,0,0-.249-.757,1.462,1.462,0,0,0-1-.3,1.55,1.55,0,0,0-.915.217,1.325,1.325,0,0,0-.437.769l-.86-.117a2.149,2.149,0,0,1,.386-.892,1.7,1.7,0,0,1,.776-.522,3.468,3.468,0,0,1,1.177-.183,3.093,3.093,0,0,1,1.079.157,1.424,1.424,0,0,1,.611.392,1.387,1.387,0,0,1,.273.6,4.973,4.973,0,0,1,.044.81V176.9a12.532,12.532,0,0,0,.056,1.55,1.988,1.988,0,0,0,.222.623h-.918A1.867,1.867,0,0,1,119.1,178.429Zm-.074-1.963a6.479,6.479,0,0,1-1.435.333,3.29,3.29,0,0,0-.767.175.759.759,0,0,0-.346.285.778.778,0,0,0,.144,1,1.14,1.14,0,0,0,.778.235,1.806,1.806,0,0,0,.9-.223,1.366,1.366,0,0,0,.581-.607,2.141,2.141,0,0,0,.141-.879Z"/><path d="M123.194,178.283l.127.776a3.256,3.256,0,0,1-.664.078,1.5,1.5,0,0,1-.742-.151.85.85,0,0,1-.371-.4,3.138,3.138,0,0,1-.107-1.038v-2.983h-.645v-.684h.645V172.6l.874-.527v1.811h.883v.684h-.883V177.6a1.547,1.547,0,0,0,.046.484.372.372,0,0,0,.151.171.589.589,0,0,0,.3.063A2.982,2.982,0,0,0,123.194,178.283Z"/><path d="M127.6,177.4l.908.112a2.217,2.217,0,0,1-.8,1.236,2.394,2.394,0,0,1-1.485.439,2.365,2.365,0,0,1-1.8-.7,2.734,2.734,0,0,1-.667-1.965,2.859,2.859,0,0,1,.674-2.031,2.28,2.28,0,0,1,1.748-.723,2.218,2.218,0,0,1,1.7.708,2.815,2.815,0,0,1,.659,1.992c0,.052,0,.13,0,.235h-3.867a1.986,1.986,0,0,0,.483,1.308,1.44,1.44,0,0,0,1.084.455,1.348,1.348,0,0,0,.826-.254A1.7,1.7,0,0,0,127.6,177.4Zm-2.886-1.421h2.895a1.75,1.75,0,0,0-.332-.981,1.345,1.345,0,0,0-1.089-.508,1.4,1.4,0,0,0-1.018.405A1.6,1.6,0,0,0,124.718,175.978Z"/><path d="M132.979,179.069v-.654a1.615,1.615,0,0,1-1.45.771,2.026,2.026,0,0,1-1.139-.342,2.239,2.239,0,0,1-.807-.955,3.318,3.318,0,0,1-.285-1.408,3.683,3.683,0,0,1,.259-1.409,2.041,2.041,0,0,1,.776-.969,2.078,2.078,0,0,1,1.157-.337,1.732,1.732,0,0,1,1.431.713v-2.568h.874v7.158Zm-2.778-2.588a2.251,2.251,0,0,0,.42,1.489,1.266,1.266,0,0,0,.991.494,1.244,1.244,0,0,0,.979-.472,2.169,2.169,0,0,0,.4-1.438,2.439,2.439,0,0,0-.41-1.562,1.261,1.261,0,0,0-1.011-.5,1.215,1.215,0,0,0-.978.478A2.356,2.356,0,0,0,130.2,176.481Z"/><path d="M25.929,191.283l.127.776a3.272,3.272,0,0,1-.664.078,1.507,1.507,0,0,1-.743-.151.855.855,0,0,1-.371-.4,3.167,3.167,0,0,1-.107-1.038v-2.983h-.645v-.684h.645V185.6l.874-.527v1.811h.884v.684h-.884V190.6a1.58,1.58,0,0,0,.046.484.374.374,0,0,0,.152.171.588.588,0,0,0,.3.063A3,3,0,0,0,25.929,191.283Z"/><path d="M26.788,192.069v-7.158h.879v2.568a1.965,1.965,0,0,1,1.553-.713,2.086,2.086,0,0,1,1,.227,1.329,1.329,0,0,1,.608.628,2.89,2.89,0,0,1,.183,1.162v3.286h-.879v-3.286a1.355,1.355,0,0,0-.286-.96,1.062,1.062,0,0,0-.808-.3,1.438,1.438,0,0,0-.735.2,1.155,1.155,0,0,0-.491.55,2.536,2.536,0,0,0-.146.957v2.837Z"/><path d="M35.9,190.4l.909.112a2.217,2.217,0,0,1-.8,1.236,2.394,2.394,0,0,1-1.485.439,2.369,2.369,0,0,1-1.8-.7,2.738,2.738,0,0,1-.666-1.965,2.863,2.863,0,0,1,.673-2.031,2.282,2.282,0,0,1,1.749-.723,2.218,2.218,0,0,1,1.7.708,2.815,2.815,0,0,1,.659,1.992c0,.052,0,.13-.005.235H32.965a2,2,0,0,0,.483,1.308,1.439,1.439,0,0,0,1.084.455,1.347,1.347,0,0,0,.825-.254A1.687,1.687,0,0,0,35.9,190.4Zm-2.885-1.421h2.895a1.757,1.757,0,0,0-.332-.981,1.346,1.346,0,0,0-1.089-.508,1.4,1.4,0,0,0-1.018.405A1.6,1.6,0,0,0,33.014,188.978Z"/><path d="M37.584,189.476a2.672,2.672,0,0,1,.8-2.134,2.414,2.414,0,0,1,1.631-.576,2.331,2.331,0,0,1,1.748.7,2.671,2.671,0,0,1,.678,1.937,3.43,3.43,0,0,1-.3,1.574,2.129,2.129,0,0,1-.874.892,2.549,2.549,0,0,1-1.252.317,2.335,2.335,0,0,1-1.761-.7A2.794,2.794,0,0,1,37.584,189.476Zm.9,0a2.2,2.2,0,0,0,.435,1.491,1.445,1.445,0,0,0,2.182,0,2.263,2.263,0,0,0,.435-1.519,2.14,2.14,0,0,0-.437-1.458,1.45,1.45,0,0,0-2.18,0A2.2,2.2,0,0,0,38.487,189.476Z"/><path d="M43.463,192.069v-5.186h.791v.787a2.135,2.135,0,0,1,.559-.728.978.978,0,0,1,.564-.176,1.7,1.7,0,0,1,.9.284l-.3.815a1.258,1.258,0,0,0-.645-.19.841.841,0,0,0-.518.172.953.953,0,0,0-.327.482,3.44,3.44,0,0,0-.146,1.025v2.715Z"/><path d="M50.353,190.4l.908.112a2.217,2.217,0,0,1-.8,1.236,2.7,2.7,0,0,1-3.289-.262,2.738,2.738,0,0,1-.666-1.965,2.859,2.859,0,0,1,.674-2.031,2.279,2.279,0,0,1,1.748-.723,2.218,2.218,0,0,1,1.7.708,2.815,2.815,0,0,1,.659,1.992c0,.052,0,.13-.005.235H47.418a2,2,0,0,0,.483,1.308,1.439,1.439,0,0,0,1.084.455,1.348,1.348,0,0,0,.826-.254A1.694,1.694,0,0,0,50.353,190.4Zm-2.886-1.421h2.9A1.757,1.757,0,0,0,50.03,188a1.346,1.346,0,0,0-1.089-.508,1.4,1.4,0,0,0-1.018.405A1.6,1.6,0,0,0,47.467,188.978Z"/><path d="M54.283,191.283l.127.776a3.264,3.264,0,0,1-.664.078,1.5,1.5,0,0,1-.742-.151.85.85,0,0,1-.371-.4,3.13,3.13,0,0,1-.108-1.038v-2.983h-.644v-.684h.644V185.6l.874-.527v1.811h.884v.684H53.4V190.6a1.537,1.537,0,0,0,.047.484.372.372,0,0,0,.151.171.588.588,0,0,0,.3.063A2.981,2.981,0,0,0,54.283,191.283Z"/><path d="M55.147,185.922v-1.011h.879v1.011Zm0,6.147v-5.186h.879v5.186Z"/><path d="M60.748,190.17l.864.112a2.236,2.236,0,0,1-.725,1.4,2.111,2.111,0,0,1-1.433.506,2.226,2.226,0,0,1-1.711-.7A2.825,2.825,0,0,1,57.1,189.5a3.6,3.6,0,0,1,.278-1.47,1.944,1.944,0,0,1,.847-.945,2.516,2.516,0,0,1,1.238-.315,2.157,2.157,0,0,1,1.382.427,1.962,1.962,0,0,1,.688,1.214l-.854.132a1.421,1.421,0,0,0-.432-.786,1.119,1.119,0,0,0-.75-.264,1.362,1.362,0,0,0-1.079.476A2.256,2.256,0,0,0,58,189.471a2.337,2.337,0,0,0,.4,1.519,1.308,1.308,0,0,0,1.045.474,1.235,1.235,0,0,0,.865-.318A1.577,1.577,0,0,0,60.748,190.17Z"/><path d="M65.748,191.429a3.276,3.276,0,0,1-.94.586,2.713,2.713,0,0,1-.969.171,1.885,1.885,0,0,1-1.314-.418,1.377,1.377,0,0,1-.459-1.066,1.415,1.415,0,0,1,.174-.7,1.43,1.43,0,0,1,.454-.5,2.107,2.107,0,0,1,.632-.288,6.156,6.156,0,0,1,.781-.132,8.085,8.085,0,0,0,1.568-.3c0-.121.005-.2.005-.229a.969.969,0,0,0-.249-.757,1.464,1.464,0,0,0-1-.3,1.552,1.552,0,0,0-.916.217,1.325,1.325,0,0,0-.437.769l-.859-.117a2.123,2.123,0,0,1,.386-.892,1.7,1.7,0,0,1,.776-.522,3.464,3.464,0,0,1,1.177-.183,3.093,3.093,0,0,1,1.079.157,1.229,1.229,0,0,1,.884.991,5.007,5.007,0,0,1,.043.81V189.9a12.244,12.244,0,0,0,.057,1.55,1.939,1.939,0,0,0,.222.623h-.918A1.867,1.867,0,0,1,65.748,191.429Zm-.073-1.963a6.5,6.5,0,0,1-1.436.333,3.279,3.279,0,0,0-.766.175.767.767,0,0,0-.347.285.778.778,0,0,0,.144,1,1.141,1.141,0,0,0,.779.235,1.8,1.8,0,0,0,.9-.223,1.356,1.356,0,0,0,.581-.607,2.138,2.138,0,0,0,.142-.879Z"/><path d="M67.906,192.069v-7.158h.879v7.158Z"/><path d="M72.906,192.069v-7.158h.879v7.158Z"/><path d="M75.152,185.922v-1.011h.879v1.011Zm0,6.147v-5.186h.879v5.186Z"/><path d="M77.369,192.069v-5.186h.786v.728a1.857,1.857,0,0,1,.65-.613,1.818,1.818,0,0,1,.923-.232,1.689,1.689,0,0,1,.944.24,1.272,1.272,0,0,1,.52.669,1.863,1.863,0,0,1,1.6-.909,1.58,1.58,0,0,1,1.186.427,1.826,1.826,0,0,1,.416,1.316v3.56h-.875V188.8a2.409,2.409,0,0,0-.085-.759.726.726,0,0,0-.31-.373.964.964,0,0,0-.527-.142,1.23,1.23,0,0,0-.909.363,1.608,1.608,0,0,0-.361,1.165v3.013H80.45V188.7a1.483,1.483,0,0,0-.215-.879.813.813,0,0,0-.7-.293,1.271,1.271,0,0,0-.686.2,1.1,1.1,0,0,0-.456.572,3.193,3.193,0,0,0-.142,1.084v2.69Z"/><path d="M85.7,185.922v-1.011h.879v1.011Zm0,6.147v-5.186h.879v5.186Z"/><path d="M89.84,191.283l.127.776a3.272,3.272,0,0,1-.664.078,1.5,1.5,0,0,1-.742-.151.853.853,0,0,1-.372-.4,3.167,3.167,0,0,1-.107-1.038v-2.983h-.644v-.684h.644V185.6l.874-.527v1.811h.884v.684h-.884V190.6a1.58,1.58,0,0,0,.046.484.374.374,0,0,0,.152.171.588.588,0,0,0,.3.063A3,3,0,0,0,89.84,191.283Z"/><path class="cls-4" d="M148.172,132.888V125.73h.948v7.158Z"/><path class="cls-4" d="M150.677,132.888V127.7h.791v.737a1.863,1.863,0,0,1,1.651-.854,2.168,2.168,0,0,1,.861.168,1.357,1.357,0,0,1,.589.442,1.7,1.7,0,0,1,.273.649,4.988,4.988,0,0,1,.049.855v3.188h-.879v-3.154a2.377,2.377,0,0,0-.1-.8.852.852,0,0,0-.364-.425,1.157,1.157,0,0,0-.613-.159,1.423,1.423,0,0,0-.969.357,1.757,1.757,0,0,0-.408,1.352v2.832Z"/><path class="cls-4" d="M159.623,130.989l.864.112a2.239,2.239,0,0,1-.725,1.4,2.113,2.113,0,0,1-1.433.506,2.226,2.226,0,0,1-1.712-.7,2.826,2.826,0,0,1-.647-2,3.6,3.6,0,0,1,.279-1.47,1.932,1.932,0,0,1,.847-.944,2.512,2.512,0,0,1,1.237-.315,2.151,2.151,0,0,1,1.382.427,1.96,1.96,0,0,1,.689,1.213l-.855.132a1.416,1.416,0,0,0-.432-.786,1.115,1.115,0,0,0-.749-.264,1.364,1.364,0,0,0-1.079.476,2.261,2.261,0,0,0-.415,1.507,2.336,2.336,0,0,0,.4,1.518,1.3,1.3,0,0,0,1.045.474,1.233,1.233,0,0,0,.864-.317A1.58,1.58,0,0,0,159.623,130.989Z"/><path class="cls-4" d="M160.912,130.3a2.674,2.674,0,0,1,.8-2.134,2.414,2.414,0,0,1,1.631-.576,2.325,2.325,0,0,1,1.748.7,2.666,2.666,0,0,1,.679,1.936,3.431,3.431,0,0,1-.3,1.575,2.127,2.127,0,0,1-.874.891,2.543,2.543,0,0,1-1.253.318,2.33,2.33,0,0,1-1.76-.7A2.786,2.786,0,0,1,160.912,130.3Zm.9,0a2.2,2.2,0,0,0,.435,1.491,1.446,1.446,0,0,0,2.182,0,2.261,2.261,0,0,0,.435-1.519,2.143,2.143,0,0,0-.437-1.457,1.449,1.449,0,0,0-2.18,0A2.2,2.2,0,0,0,161.815,130.3Z"/><path class="cls-4" d="M166.8,132.888V127.7h.786v.727a1.845,1.845,0,0,1,.65-.612,1.818,1.818,0,0,1,.923-.232,1.7,1.7,0,0,1,.945.239,1.29,1.29,0,0,1,.52.669,1.859,1.859,0,0,1,1.6-.908,1.58,1.58,0,0,1,1.187.427,1.83,1.83,0,0,1,.415,1.316v3.559h-.874v-3.266a2.4,2.4,0,0,0-.086-.76.734.734,0,0,0-.31-.373.973.973,0,0,0-.527-.142,1.223,1.223,0,0,0-.908.364,1.6,1.6,0,0,0-.362,1.165v3.012h-.879v-3.369a1.488,1.488,0,0,0-.214-.879.817.817,0,0,0-.7-.293,1.272,1.272,0,0,0-.686.2,1.1,1.1,0,0,0-.456.571,3.222,3.222,0,0,0-.142,1.084v2.69Z"/><path class="cls-4" d="M175.13,134.876V127.7h.8v.674a1.974,1.974,0,0,1,.64-.594,1.768,1.768,0,0,1,.864-.2,2.046,2.046,0,0,1,1.172.341,2.108,2.108,0,0,1,.767.965,3.531,3.531,0,0,1,.258,1.365,3.475,3.475,0,0,1-.285,1.433,2.164,2.164,0,0,1-.83.976,2.135,2.135,0,0,1-1.145.34,1.653,1.653,0,0,1-.789-.186,1.8,1.8,0,0,1-.574-.469v2.525Zm.8-4.551a2.254,2.254,0,0,0,.406,1.479,1.242,1.242,0,0,0,.981.479,1.267,1.267,0,0,0,1-.5,2.345,2.345,0,0,0,.418-1.535,2.292,2.292,0,0,0-.408-1.485,1.23,1.23,0,0,0-.974-.493,1.267,1.267,0,0,0-.994.525A2.348,2.348,0,0,0,175.926,130.325Z"/><path class="cls-4" d="M180.672,132.888V125.73h.879v7.158Z"/><path class="cls-4" d="M186.463,131.218l.909.113a2.215,2.215,0,0,1-.8,1.235,2.4,2.4,0,0,1-1.485.44,2.372,2.372,0,0,1-1.8-.7,2.738,2.738,0,0,1-.666-1.965,2.867,2.867,0,0,1,.673-2.032,2.281,2.281,0,0,1,1.748-.722,2.215,2.215,0,0,1,1.7.708,2.815,2.815,0,0,1,.659,1.992c0,.052,0,.13-.005.234h-3.867a2,2,0,0,0,.483,1.309,1.438,1.438,0,0,0,1.084.454,1.347,1.347,0,0,0,.825-.254A1.677,1.677,0,0,0,186.463,131.218Zm-2.885-1.42h2.9a1.761,1.761,0,0,0-.332-.982,1.349,1.349,0,0,0-1.089-.508,1.4,1.4,0,0,0-1.018.406A1.6,1.6,0,0,0,183.578,129.8Z"/><path class="cls-4" d="M190.4,132.1l.126.777a3.264,3.264,0,0,1-.664.078,1.5,1.5,0,0,1-.742-.152.841.841,0,0,1-.371-.4,3.126,3.126,0,0,1-.108-1.037v-2.984h-.644V127.7h.644v-1.284l.875-.528V127.7h.884v.683h-.884v3.033a1.535,1.535,0,0,0,.046.483.373.373,0,0,0,.151.171.589.589,0,0,0,.3.063A2.85,2.85,0,0,0,190.4,132.1Z"/><path class="cls-4" d="M194.8,131.218l.908.113a2.22,2.22,0,0,1-.8,1.235,2.7,2.7,0,0,1-3.289-.261,2.738,2.738,0,0,1-.666-1.965,2.868,2.868,0,0,1,.674-2.032,2.278,2.278,0,0,1,1.748-.722,2.213,2.213,0,0,1,1.7.708,2.815,2.815,0,0,1,.659,1.992c0,.052,0,.13-.005.234h-3.867a1.99,1.99,0,0,0,.484,1.309,1.435,1.435,0,0,0,1.084.454,1.349,1.349,0,0,0,.825-.254A1.691,1.691,0,0,0,194.8,131.218Zm-2.886-1.42h2.895a1.761,1.761,0,0,0-.332-.982,1.348,1.348,0,0,0-1.088-.508,1.4,1.4,0,0,0-1.019.406A1.606,1.606,0,0,0,191.918,129.8Z"/><path class="cls-4" d="M199.433,133.318l.854.127a.809.809,0,0,0,.3.576,1.462,1.462,0,0,0,.894.244,1.57,1.57,0,0,0,.942-.244,1.2,1.2,0,0,0,.449-.683,5.679,5.679,0,0,0,.064-1.128,1.812,1.812,0,0,1-1.436.678,1.956,1.956,0,0,1-1.655-.771,2.968,2.968,0,0,1-.586-1.851,3.443,3.443,0,0,1,.268-1.369,2.149,2.149,0,0,1,.779-.97,2.1,2.1,0,0,1,1.2-.341,1.861,1.861,0,0,1,1.514.742V127.7h.81v4.482a4.244,4.244,0,0,1-.247,1.717,1.806,1.806,0,0,1-.781.8,2.712,2.712,0,0,1-1.316.293,2.476,2.476,0,0,1-1.5-.418A1.41,1.41,0,0,1,199.433,133.318Zm.727-3.115a2.25,2.25,0,0,0,.405,1.489,1.286,1.286,0,0,0,1.016.469,1.3,1.3,0,0,0,1.016-.466,2.183,2.183,0,0,0,.41-1.463,2.122,2.122,0,0,0-.423-1.435,1.3,1.3,0,0,0-1.018-.484,1.271,1.271,0,0,0-1,.476A2.119,2.119,0,0,0,200.16,130.2Z"/><path class="cls-4" d="M205.146,132.888V127.7h.791v.786a2.143,2.143,0,0,1,.558-.728.978.978,0,0,1,.565-.175,1.717,1.717,0,0,1,.9.283l-.3.815a1.257,1.257,0,0,0-.644-.19.831.831,0,0,0-.518.173.934.934,0,0,0-.327.481,3.414,3.414,0,0,0-.147,1.026v2.714Z"/><path class="cls-4" d="M208.158,130.3a2.672,2.672,0,0,1,.8-2.134,2.411,2.411,0,0,1,1.631-.576,2.327,2.327,0,0,1,1.748.7,2.67,2.67,0,0,1,.679,1.936,3.43,3.43,0,0,1-.3,1.575,2.121,2.121,0,0,1-.874.891,2.539,2.539,0,0,1-1.252.318,2.33,2.33,0,0,1-1.761-.7A2.79,2.79,0,0,1,208.158,130.3Zm.9,0a2.2,2.2,0,0,0,.434,1.491,1.447,1.447,0,0,0,2.183,0,2.267,2.267,0,0,0,.434-1.519,2.137,2.137,0,0,0-.437-1.457,1.449,1.449,0,0,0-2.18,0A2.2,2.2,0,0,0,209.062,130.3Z"/><path class="cls-4" d="M213.72,130.3a2.668,2.668,0,0,1,.8-2.134,2.41,2.41,0,0,1,1.63-.576,2.327,2.327,0,0,1,1.748.7,2.666,2.666,0,0,1,.679,1.936,3.417,3.417,0,0,1-.3,1.575,2.121,2.121,0,0,1-.874.891,2.536,2.536,0,0,1-1.252.318,2.33,2.33,0,0,1-1.76-.7A2.786,2.786,0,0,1,213.72,130.3Zm.9,0a2.2,2.2,0,0,0,.435,1.491,1.446,1.446,0,0,0,2.182,0,2.267,2.267,0,0,0,.435-1.519,2.138,2.138,0,0,0-.438-1.457,1.447,1.447,0,0,0-2.179,0A2.2,2.2,0,0,0,214.623,130.3Z"/><path class="cls-4" d="M221.049,132.888l-1.973-5.185H220l1.113,3.1q.18.5.332,1.045.117-.409.327-.986l1.153-3.164h.9l-1.963,5.185Z"/><path class="cls-4" d="M228.158,131.218l.908.113a2.218,2.218,0,0,1-.8,1.235,2.7,2.7,0,0,1-3.29-.261,2.738,2.738,0,0,1-.666-1.965,2.868,2.868,0,0,1,.674-2.032,2.279,2.279,0,0,1,1.748-.722,2.215,2.215,0,0,1,1.7.708,2.815,2.815,0,0,1,.659,1.992c0,.052,0,.13,0,.234h-3.867a1.989,1.989,0,0,0,.483,1.309,1.435,1.435,0,0,0,1.084.454,1.347,1.347,0,0,0,.825-.254A1.684,1.684,0,0,0,228.158,131.218Zm-2.886-1.42h2.9a1.761,1.761,0,0,0-.332-.982,1.35,1.35,0,0,0-1.089-.508,1.4,1.4,0,0,0-1.018.406A1.606,1.606,0,0,0,225.272,129.8Z"/><line class="cls-5" x1="189" y1="20.956" x2="189" y2="72.619"/><polygon points="186.095 70.637 189 81.478 191.905 70.637 186.095 70.637"/><line class="cls-6" x1="213.309" y1="75.974" x2="244.314" y2="32.121"/><polygon points="245.235 34.592 248.15 26.696 241.677 32.077 245.235 34.592"/><line class="cls-6" x1="165.248" y1="75.974" x2="134.243" y2="32.121"/><polygon points="136.88 32.077 130.407 26.696 133.322 34.592 136.88 32.077"/><g class="cls-7"><path d="M154.155,15.6V8.445h.948V15.6Z"/><path d="M156.65,15.6V10.418h.791V11.2a2.158,2.158,0,0,1,.559-.728.978.978,0,0,1,.564-.176,1.705,1.705,0,0,1,.9.284l-.3.815a1.257,1.257,0,0,0-.644-.19.835.835,0,0,0-.518.173.94.94,0,0,0-.327.481,3.408,3.408,0,0,0-.147,1.025V15.6Z"/><path d="M159.98,15.6V10.418h.791V11.2a2.145,2.145,0,0,1,.56-.728.973.973,0,0,1,.564-.176,1.7,1.7,0,0,1,.9.284l-.3.815a1.257,1.257,0,0,0-.644-.19.835.835,0,0,0-.518.173.94.94,0,0,0-.327.481,3.408,3.408,0,0,0-.147,1.025V15.6Z"/><path d="M166.7,14.964a3.321,3.321,0,0,1-.94.586,2.735,2.735,0,0,1-.969.17,1.885,1.885,0,0,1-1.314-.418,1.376,1.376,0,0,1-.459-1.066,1.415,1.415,0,0,1,.174-.7,1.439,1.439,0,0,1,.454-.5,2.107,2.107,0,0,1,.632-.288,6.156,6.156,0,0,1,.781-.132,8.085,8.085,0,0,0,1.568-.3c0-.121,0-.2,0-.229a.969.969,0,0,0-.249-.757,1.469,1.469,0,0,0-1-.3,1.552,1.552,0,0,0-.916.217,1.325,1.325,0,0,0-.437.769l-.859-.117a2.113,2.113,0,0,1,.386-.891,1.694,1.694,0,0,1,.776-.523,3.464,3.464,0,0,1,1.177-.183,3.093,3.093,0,0,1,1.079.157,1.414,1.414,0,0,1,.61.392,1.393,1.393,0,0,1,.274.6,4.973,4.973,0,0,1,.044.81V13.43a12.322,12.322,0,0,0,.056,1.55,1.939,1.939,0,0,0,.222.623h-.918A1.861,1.861,0,0,1,166.7,14.964ZM166.631,13a6.515,6.515,0,0,1-1.436.332,3.279,3.279,0,0,0-.766.175.769.769,0,0,0-.347.286.778.778,0,0,0,.144,1,1.146,1.146,0,0,0,.779.234,1.8,1.8,0,0,0,.9-.223,1.356,1.356,0,0,0,.581-.607,2.132,2.132,0,0,0,.142-.879Z"/><path d="M172.246,15.6v-.654a1.613,1.613,0,0,1-1.45.771,2.036,2.036,0,0,1-1.14-.341,2.255,2.255,0,0,1-.806-.955,3.307,3.307,0,0,1-.286-1.409,3.7,3.7,0,0,1,.259-1.409,2.043,2.043,0,0,1,.777-.969,2.081,2.081,0,0,1,1.157-.337,1.732,1.732,0,0,1,1.431.713V8.445h.874V15.6Zm-2.778-2.588a2.256,2.256,0,0,0,.42,1.49,1.266,1.266,0,0,0,.991.493,1.242,1.242,0,0,0,.979-.472,2.171,2.171,0,0,0,.4-1.437,2.442,2.442,0,0,0-.41-1.563,1.263,1.263,0,0,0-1.011-.5,1.215,1.215,0,0,0-.979.479A2.357,2.357,0,0,0,169.468,13.015Z"/><path d="M174.448,9.456V8.445h.879V9.456Zm0,6.147V10.418h.879V15.6Z"/><path d="M180.049,14.964a3.321,3.321,0,0,1-.94.586,2.735,2.735,0,0,1-.969.17,1.883,1.883,0,0,1-1.314-.418,1.376,1.376,0,0,1-.459-1.066,1.415,1.415,0,0,1,.174-.7,1.43,1.43,0,0,1,.454-.5,2.107,2.107,0,0,1,.632-.288,6.123,6.123,0,0,1,.781-.132,8.085,8.085,0,0,0,1.568-.3c0-.121,0-.2,0-.229a.969.969,0,0,0-.249-.757,1.467,1.467,0,0,0-1-.3,1.55,1.55,0,0,0-.915.217,1.325,1.325,0,0,0-.437.769l-.859-.117a2.125,2.125,0,0,1,.385-.891,1.692,1.692,0,0,1,.777-.523,3.462,3.462,0,0,1,1.176-.183,3.1,3.1,0,0,1,1.08.157,1.42,1.42,0,0,1,.61.392,1.392,1.392,0,0,1,.273.6,4.858,4.858,0,0,1,.044.81V13.43a12.532,12.532,0,0,0,.056,1.55,1.965,1.965,0,0,0,.223.623h-.918A1.839,1.839,0,0,1,180.049,14.964ZM179.976,13a6.515,6.515,0,0,1-1.436.332,3.29,3.29,0,0,0-.767.175.766.766,0,0,0-.346.286.778.778,0,0,0,.144,1,1.146,1.146,0,0,0,.779.234,1.8,1.8,0,0,0,.9-.223,1.361,1.361,0,0,0,.581-.607,2.132,2.132,0,0,0,.142-.879Z"/><path d="M184.146,14.817l.126.776a3.263,3.263,0,0,1-.664.079,1.5,1.5,0,0,1-.742-.152.846.846,0,0,1-.371-.4,3.135,3.135,0,0,1-.107-1.037V11.1h-.645v-.683h.645V9.133l.874-.527v1.812h.884V11.1h-.884v3.032a1.543,1.543,0,0,0,.046.484.378.378,0,0,0,.151.171.589.589,0,0,0,.3.063A2.837,2.837,0,0,0,184.146,14.817Z"/><path d="M188.555,13.933l.908.113a2.218,2.218,0,0,1-.8,1.235,2.7,2.7,0,0,1-3.289-.262,2.738,2.738,0,0,1-.666-1.965,2.865,2.865,0,0,1,.674-2.031,2.279,2.279,0,0,1,1.748-.723,2.216,2.216,0,0,1,1.7.708A2.816,2.816,0,0,1,189.492,13c0,.051,0,.13,0,.234H185.62a2,2,0,0,0,.484,1.309,1.439,1.439,0,0,0,1.084.454,1.347,1.347,0,0,0,.825-.254A1.694,1.694,0,0,0,188.555,13.933Zm-2.886-1.421h2.895a1.75,1.75,0,0,0-.332-.981,1.344,1.344,0,0,0-1.088-.508,1.4,1.4,0,0,0-1.019.405A1.606,1.606,0,0,0,185.669,12.512Z"/><path d="M193.931,15.6v-.654a1.613,1.613,0,0,1-1.451.771,2.038,2.038,0,0,1-1.139-.341,2.255,2.255,0,0,1-.806-.955,3.307,3.307,0,0,1-.286-1.409,3.7,3.7,0,0,1,.259-1.409,2.047,2.047,0,0,1,.776-.969,2.085,2.085,0,0,1,1.157-.337,1.732,1.732,0,0,1,1.431.713V8.445h.874V15.6Zm-2.779-2.588a2.262,2.262,0,0,0,.42,1.49,1.271,1.271,0,0,0,.991.493,1.242,1.242,0,0,0,.98-.472,2.166,2.166,0,0,0,.4-1.437,2.436,2.436,0,0,0-.41-1.563,1.261,1.261,0,0,0-1.011-.5,1.214,1.214,0,0,0-.978.479A2.351,2.351,0,0,0,191.152,13.015Z"/><path d="M198.887,15.6V8.445h.879V15.6Z"/><path d="M201.133,9.456V8.445h.879V9.456Zm0,6.147V10.418h.879V15.6Z"/><path d="M203.188,16.033l.855.127a.818.818,0,0,0,.3.576,1.47,1.47,0,0,0,.893.244,1.574,1.574,0,0,0,.943-.244,1.2,1.2,0,0,0,.449-.684,5.53,5.53,0,0,0,.063-1.127,1.806,1.806,0,0,1-1.435.678,1.959,1.959,0,0,1-1.655-.771,2.972,2.972,0,0,1-.586-1.851,3.466,3.466,0,0,1,.268-1.37,2.153,2.153,0,0,1,.78-.969,2.1,2.1,0,0,1,1.2-.342,1.856,1.856,0,0,1,1.513.743v-.625h.811V14.9a4.26,4.26,0,0,1-.246,1.716,1.813,1.813,0,0,1-.781.8,2.714,2.714,0,0,1-1.317.293,2.485,2.485,0,0,1-1.5-.418A1.415,1.415,0,0,1,203.188,16.033Zm.728-3.115a2.259,2.259,0,0,0,.405,1.489,1.337,1.337,0,0,0,2.032,0,2.178,2.178,0,0,0,.41-1.462,2.132,2.132,0,0,0-.422-1.436,1.308,1.308,0,0,0-1.019-.483,1.268,1.268,0,0,0-1,.476A2.117,2.117,0,0,0,203.916,12.918Z"/><path d="M208.911,15.6V8.445h.879v2.568a1.965,1.965,0,0,1,1.553-.713,2.1,2.1,0,0,1,1,.227,1.329,1.329,0,0,1,.608.628,2.893,2.893,0,0,1,.183,1.162V15.6h-.879V12.317a1.362,1.362,0,0,0-.285-.96,1.065,1.065,0,0,0-.809-.3,1.432,1.432,0,0,0-.734.2,1.145,1.145,0,0,0-.491.55,2.514,2.514,0,0,0-.147.957V15.6Z"/><path d="M216.392,14.817l.127.776a3.28,3.28,0,0,1-.665.079,1.5,1.5,0,0,1-.742-.152.851.851,0,0,1-.371-.4,3.163,3.163,0,0,1-.107-1.037V11.1h-.645v-.683h.645V9.133l.874-.527v1.812h.884V11.1h-.884v3.032a1.5,1.5,0,0,0,.047.484.367.367,0,0,0,.151.171.585.585,0,0,0,.3.063A2.824,2.824,0,0,0,216.392,14.817Z"/></g><g class="cls-7"><path d="M252.047,20.957V13.8h1.426l1.694,5.068c.156.472.271.825.342,1.059q.123-.39.381-1.147L257.6,13.8h1.274v7.158h-.913V14.966l-2.08,5.991h-.855l-2.07-6.094v6.094Z"/><path d="M263.844,19.287l.908.112a2.209,2.209,0,0,1-.8,1.235,2.694,2.694,0,0,1-3.288-.261A2.739,2.739,0,0,1,260,18.408a2.865,2.865,0,0,1,.674-2.031,2.28,2.28,0,0,1,1.748-.723,2.216,2.216,0,0,1,1.7.708,2.81,2.81,0,0,1,.659,1.992c0,.052,0,.131,0,.235h-3.867a2,2,0,0,0,.484,1.308,1.438,1.438,0,0,0,1.084.454,1.341,1.341,0,0,0,.825-.254A1.679,1.679,0,0,0,263.844,19.287Zm-2.886-1.421h2.9a1.764,1.764,0,0,0-.333-.982,1.345,1.345,0,0,0-1.088-.507,1.394,1.394,0,0,0-1.018.405A1.6,1.6,0,0,0,260.958,17.866Z"/><path d="M269.239,20.317a3.259,3.259,0,0,1-.939.586,2.719,2.719,0,0,1-.97.171,1.882,1.882,0,0,1-1.313-.418,1.376,1.376,0,0,1-.459-1.066,1.415,1.415,0,0,1,.173-.7,1.436,1.436,0,0,1,.455-.506,2.114,2.114,0,0,1,.631-.288,6.569,6.569,0,0,1,.782-.132,8,8,0,0,0,1.567-.3c0-.121,0-.2,0-.23a.972.972,0,0,0-.249-.757,1.474,1.474,0,0,0-1-.3,1.548,1.548,0,0,0-.915.217,1.331,1.331,0,0,0-.438.769l-.859-.117a2.126,2.126,0,0,1,.386-.891,1.687,1.687,0,0,1,.776-.523,3.472,3.472,0,0,1,1.177-.183,3.115,3.115,0,0,1,1.079.156,1.424,1.424,0,0,1,.61.393,1.378,1.378,0,0,1,.274.6,4.987,4.987,0,0,1,.044.811v1.172a12.322,12.322,0,0,0,.056,1.55,1.972,1.972,0,0,0,.222.623h-.918A1.89,1.89,0,0,1,269.239,20.317Zm-.073-1.963a6.374,6.374,0,0,1-1.436.332,3.32,3.32,0,0,0-.766.176.763.763,0,0,0-.347.286.775.775,0,0,0,.145,1,1.141,1.141,0,0,0,.778.234,1.809,1.809,0,0,0,.9-.222,1.358,1.358,0,0,0,.581-.608,2.109,2.109,0,0,0,.142-.879Z"/><path d="M271.065,19.409l.87-.137a1.209,1.209,0,0,0,.408.8,1.42,1.42,0,0,0,.934.278,1.377,1.377,0,0,0,.9-.246.741.741,0,0,0,.293-.579.533.533,0,0,0-.259-.469,3.838,3.838,0,0,0-.9-.3,8.09,8.09,0,0,1-1.34-.422,1.279,1.279,0,0,1-.76-1.189,1.334,1.334,0,0,1,.159-.642,1.435,1.435,0,0,1,.432-.491,1.8,1.8,0,0,1,.559-.256,2.662,2.662,0,0,1,.759-.105,3,3,0,0,1,1.072.176,1.453,1.453,0,0,1,.681.476,1.849,1.849,0,0,1,.3.8l-.86.117a.944.944,0,0,0-.338-.625,1.244,1.244,0,0,0-.794-.224,1.443,1.443,0,0,0-.865.2.582.582,0,0,0-.258.469.488.488,0,0,0,.107.307.789.789,0,0,0,.337.235q.132.048.776.224a10.775,10.775,0,0,1,1.3.408,1.329,1.329,0,0,1,.578.461,1.282,1.282,0,0,1,.21.752,1.476,1.476,0,0,1-.256.828,1.662,1.662,0,0,1-.74.6,2.7,2.7,0,0,1-1.094.212,2.434,2.434,0,0,1-1.54-.42A1.956,1.956,0,0,1,271.065,19.409Z"/><path d="M279.815,20.957V20.2a1.9,1.9,0,0,1-1.645.879,2.1,2.1,0,0,1-.857-.176,1.409,1.409,0,0,1-.59-.442,1.657,1.657,0,0,1-.272-.652,4.518,4.518,0,0,1-.054-.82V15.771h.879v2.876a5.2,5.2,0,0,0,.054.928.92.92,0,0,0,.352.544,1.087,1.087,0,0,0,.664.2,1.439,1.439,0,0,0,.742-.2,1.129,1.129,0,0,0,.491-.551,2.772,2.772,0,0,0,.144-1.013V15.771h.879v5.186Z"/><path d="M281.969,20.957V15.771h.791v.786a2.15,2.15,0,0,1,.559-.727.978.978,0,0,1,.564-.176,1.709,1.709,0,0,1,.9.283l-.3.816a1.253,1.253,0,0,0-.644-.191.838.838,0,0,0-.518.174.945.945,0,0,0-.327.48,3.42,3.42,0,0,0-.146,1.026v2.715Z"/><path d="M288.858,19.287l.909.112a2.215,2.215,0,0,1-.8,1.235,2.392,2.392,0,0,1-1.485.44,2.368,2.368,0,0,1-1.8-.7,2.734,2.734,0,0,1-.667-1.965,2.865,2.865,0,0,1,.673-2.031,2.284,2.284,0,0,1,1.749-.723,2.218,2.218,0,0,1,1.7.708,2.815,2.815,0,0,1,.659,1.992c0,.052,0,.131,0,.235h-3.867a2,2,0,0,0,.483,1.308,1.44,1.44,0,0,0,1.084.454,1.338,1.338,0,0,0,.825-.254A1.665,1.665,0,0,0,288.858,19.287Zm-2.885-1.421h2.895a1.756,1.756,0,0,0-.332-.982,1.345,1.345,0,0,0-1.089-.507,1.394,1.394,0,0,0-1.017.405A1.6,1.6,0,0,0,285.973,17.866Z"/><path d="M290.87,20.957V15.771h.786V16.5a1.857,1.857,0,0,1,.65-.613,1.821,1.821,0,0,1,.923-.232,1.711,1.711,0,0,1,.945.239,1.282,1.282,0,0,1,.519.669,1.865,1.865,0,0,1,1.6-.908,1.578,1.578,0,0,1,1.186.427A1.821,1.821,0,0,1,297.9,17.4v3.56h-.874V17.69a2.446,2.446,0,0,0-.084-.759.743.743,0,0,0-.311-.374.968.968,0,0,0-.527-.141,1.232,1.232,0,0,0-.909.363,1.608,1.608,0,0,0-.361,1.165v3.013h-.879V17.588a1.476,1.476,0,0,0-.215-.879.81.81,0,0,0-.7-.293,1.276,1.276,0,0,0-.685.2,1.108,1.108,0,0,0-.457.571,3.226,3.226,0,0,0-.142,1.084v2.691Z"/><path d="M302.75,19.287l.908.112a2.2,2.2,0,0,1-.8,1.235,2.694,2.694,0,0,1-3.288-.261,2.739,2.739,0,0,1-.667-1.965,2.865,2.865,0,0,1,.674-2.031,2.28,2.28,0,0,1,1.748-.723,2.216,2.216,0,0,1,1.7.708,2.811,2.811,0,0,1,.66,1.992c0,.052,0,.131,0,.235h-3.868A2,2,0,0,0,300.3,19.9a1.438,1.438,0,0,0,1.084.454,1.341,1.341,0,0,0,.825-.254A1.672,1.672,0,0,0,302.75,19.287Zm-2.886-1.421h2.9a1.764,1.764,0,0,0-.332-.982,1.348,1.348,0,0,0-1.089-.507,1.4,1.4,0,0,0-1.018.405A1.606,1.606,0,0,0,299.864,17.866Z"/><path d="M304.762,20.957V15.771h.791v.737a1.865,1.865,0,0,1,1.65-.854,2.169,2.169,0,0,1,.862.168,1.361,1.361,0,0,1,.588.442,1.682,1.682,0,0,1,.274.65,4.974,4.974,0,0,1,.049.854v3.189H308.1V17.8a2.351,2.351,0,0,0-.1-.8.845.845,0,0,0-.363-.425,1.159,1.159,0,0,0-.613-.158,1.42,1.42,0,0,0-.969.356,1.756,1.756,0,0,0-.408,1.353v2.832Z"/><path d="M312.242,20.171l.127.776a3.264,3.264,0,0,1-.664.078,1.505,1.505,0,0,1-.742-.151.85.85,0,0,1-.371-.4,3.162,3.162,0,0,1-.108-1.038V16.455h-.644v-.684h.644V14.487l.874-.527v1.811h.884v.684h-.884v3.032a1.52,1.52,0,0,0,.047.483.359.359,0,0,0,.152.171.573.573,0,0,0,.3.064A2.812,2.812,0,0,0,312.242,20.171Z"/><path d="M315.553,18.364a2.674,2.674,0,0,1,.8-2.134,2.414,2.414,0,0,1,1.63-.576,2.323,2.323,0,0,1,1.748.7,2.658,2.658,0,0,1,.679,1.936,3.417,3.417,0,0,1-.3,1.574,2.129,2.129,0,0,1-.874.892,2.55,2.55,0,0,1-1.253.317,2.33,2.33,0,0,1-1.759-.7A2.786,2.786,0,0,1,315.553,18.364Zm.9,0a2.215,2.215,0,0,0,.435,1.492,1.447,1.447,0,0,0,2.182,0,2.258,2.258,0,0,0,.435-1.518,2.147,2.147,0,0,0-.437-1.458,1.45,1.45,0,0,0-2.18,0A2.2,2.2,0,0,0,316.456,18.364Z"/><path d="M321.651,20.957v-4.5h-.776v-.684h.776v-.552a2.437,2.437,0,0,1,.093-.776,1.124,1.124,0,0,1,.447-.554,1.606,1.606,0,0,1,.9-.213,4.339,4.339,0,0,1,.82.088l-.132.767a2.889,2.889,0,0,0-.517-.049.773.773,0,0,0-.567.171.93.93,0,0,0-.166.64v.478h1.011v.684h-1.011v4.5Z"/><path d="M251.612,31.409l.869-.137a1.215,1.215,0,0,0,.409.8,1.42,1.42,0,0,0,.934.278,1.377,1.377,0,0,0,.9-.246.741.741,0,0,0,.293-.579.533.533,0,0,0-.259-.469,3.834,3.834,0,0,0-.9-.3,8.1,8.1,0,0,1-1.339-.422,1.279,1.279,0,0,1-.76-1.189,1.334,1.334,0,0,1,.159-.642,1.425,1.425,0,0,1,.432-.491,1.8,1.8,0,0,1,.559-.256,2.657,2.657,0,0,1,.759-.105,3,3,0,0,1,1.072.176,1.458,1.458,0,0,1,.681.476,1.862,1.862,0,0,1,.3.8l-.86.117a.94.94,0,0,0-.339-.625,1.241,1.241,0,0,0-.794-.224,1.442,1.442,0,0,0-.864.2.583.583,0,0,0-.259.469.489.489,0,0,0,.108.307.783.783,0,0,0,.337.235c.088.032.346.107.776.224a10.775,10.775,0,0,1,1.3.408,1.329,1.329,0,0,1,.578.461,1.282,1.282,0,0,1,.21.752,1.476,1.476,0,0,1-.256.828,1.662,1.662,0,0,1-.74.6,2.7,2.7,0,0,1-1.094.212,2.434,2.434,0,0,1-1.54-.42A1.956,1.956,0,0,1,251.612,31.409Z"/><path d="M260.348,31.057l.864.113a2.242,2.242,0,0,1-.725,1.4,2.117,2.117,0,0,1-1.433.5,2.224,2.224,0,0,1-1.711-.7,2.821,2.821,0,0,1-.648-2,3.6,3.6,0,0,1,.279-1.469,1.934,1.934,0,0,1,.847-.945,2.513,2.513,0,0,1,1.238-.315,2.152,2.152,0,0,1,1.381.427,1.958,1.958,0,0,1,.689,1.214l-.855.131a1.421,1.421,0,0,0-.431-.786,1.123,1.123,0,0,0-.75-.263,1.362,1.362,0,0,0-1.079.476,2.256,2.256,0,0,0-.415,1.506,2.337,2.337,0,0,0,.4,1.519,1.3,1.3,0,0,0,1.045.473,1.23,1.23,0,0,0,.864-.317A1.572,1.572,0,0,0,260.348,31.057Z"/><path d="M265.348,32.317a3.276,3.276,0,0,1-.94.586,2.719,2.719,0,0,1-.97.171,1.884,1.884,0,0,1-1.313-.418,1.376,1.376,0,0,1-.459-1.066,1.451,1.451,0,0,1,.628-1.2,2.109,2.109,0,0,1,.632-.288,6.544,6.544,0,0,1,.781-.132,8,8,0,0,0,1.567-.3c0-.121,0-.2,0-.23a.972.972,0,0,0-.249-.757,1.471,1.471,0,0,0-1-.3,1.55,1.55,0,0,0-.915.217,1.325,1.325,0,0,0-.437.769l-.86-.117a2.138,2.138,0,0,1,.386-.891,1.7,1.7,0,0,1,.776-.523,3.472,3.472,0,0,1,1.177-.183,3.111,3.111,0,0,1,1.079.156,1.421,1.421,0,0,1,.611.393,1.377,1.377,0,0,1,.273.6,4.987,4.987,0,0,1,.044.811v1.172a12.244,12.244,0,0,0,.057,1.55,1.969,1.969,0,0,0,.221.623h-.918A1.89,1.89,0,0,1,265.348,32.317Zm-.074-1.963a6.362,6.362,0,0,1-1.435.332,3.345,3.345,0,0,0-.767.176.765.765,0,0,0-.346.286.777.777,0,0,0,.144,1,1.145,1.145,0,0,0,.778.234,1.816,1.816,0,0,0,.9-.222,1.363,1.363,0,0,0,.581-.608,2.111,2.111,0,0,0,.141-.879Z"/><path d="M269.444,32.171l.127.776a3.256,3.256,0,0,1-.664.078,1.505,1.505,0,0,1-.742-.151.85.85,0,0,1-.371-.4,3.171,3.171,0,0,1-.107-1.038V28.455h-.645v-.684h.645V26.487l.874-.527v1.811h.883v.684h-.883v3.032a1.531,1.531,0,0,0,.046.483.359.359,0,0,0,.152.171.574.574,0,0,0,.3.064A2.812,2.812,0,0,0,269.444,32.171Z"/><path d="M272.223,32.171l.127.776a3.264,3.264,0,0,1-.664.078,1.507,1.507,0,0,1-.743-.151.861.861,0,0,1-.371-.4,3.171,3.171,0,0,1-.107-1.038V28.455h-.645v-.684h.645V26.487l.874-.527v1.811h.884v.684h-.884v3.032a1.49,1.49,0,0,0,.047.483.357.357,0,0,0,.151.171.574.574,0,0,0,.3.064A2.824,2.824,0,0,0,272.223,32.171Z"/><path d="M276.632,31.287l.908.112a2.209,2.209,0,0,1-.8,1.235,2.694,2.694,0,0,1-3.288-.261,2.739,2.739,0,0,1-.667-1.965,2.865,2.865,0,0,1,.674-2.031,2.28,2.28,0,0,1,1.748-.723,2.216,2.216,0,0,1,1.7.708,2.81,2.81,0,0,1,.659,1.992c0,.052,0,.131,0,.235H273.7a2,2,0,0,0,.484,1.308,1.438,1.438,0,0,0,1.084.454,1.341,1.341,0,0,0,.825-.254A1.679,1.679,0,0,0,276.632,31.287Zm-2.886-1.421h2.9a1.764,1.764,0,0,0-.332-.982,1.348,1.348,0,0,0-1.089-.507,1.4,1.4,0,0,0-1.018.405A1.6,1.6,0,0,0,273.746,29.866Z"/><path d="M278.634,32.957V27.771h.791v.786a2.15,2.15,0,0,1,.559-.727.978.978,0,0,1,.564-.176,1.707,1.707,0,0,1,.9.283l-.3.816a1.253,1.253,0,0,0-.644-.191.84.84,0,0,0-.518.174.945.945,0,0,0-.327.48,3.452,3.452,0,0,0-.146,1.026v2.715Z"/><path d="M285.523,31.287l.909.112a2.215,2.215,0,0,1-.8,1.235,2.392,2.392,0,0,1-1.485.44,2.368,2.368,0,0,1-1.8-.7,2.734,2.734,0,0,1-.667-1.965,2.865,2.865,0,0,1,.673-2.031,2.284,2.284,0,0,1,1.749-.723,2.218,2.218,0,0,1,1.7.708,2.815,2.815,0,0,1,.659,1.992c0,.052,0,.131,0,.235h-3.867a2,2,0,0,0,.483,1.308,1.44,1.44,0,0,0,1.084.454,1.336,1.336,0,0,0,.825-.254A1.665,1.665,0,0,0,285.523,31.287Zm-2.885-1.421h2.9a1.756,1.756,0,0,0-.332-.982,1.345,1.345,0,0,0-1.089-.507,1.394,1.394,0,0,0-1.017.405A1.6,1.6,0,0,0,282.638,29.866Z"/><path d="M290.9,32.957V32.3a1.61,1.61,0,0,1-1.45.772,2.028,2.028,0,0,1-1.139-.342,2.245,2.245,0,0,1-.806-.954,3.292,3.292,0,0,1-.286-1.409,3.7,3.7,0,0,1,.259-1.409,2.041,2.041,0,0,1,.776-.969,2.075,2.075,0,0,1,1.157-.337,1.726,1.726,0,0,1,.835.2,1.745,1.745,0,0,1,.6.515V25.8h.874v7.158Zm-2.778-2.588a2.257,2.257,0,0,0,.42,1.489,1.265,1.265,0,0,0,.991.493,1.244,1.244,0,0,0,.98-.471,2.175,2.175,0,0,0,.4-1.438,2.441,2.441,0,0,0-.41-1.562,1.262,1.262,0,0,0-1.011-.5,1.215,1.215,0,0,0-.978.478A2.356,2.356,0,0,0,288.121,30.369Z"/><path d="M295.855,32.957V25.8h.879v7.158Z"/><path d="M298.1,26.809V25.8h.878v1.01Zm0,6.148V27.771h.878v5.186Z"/><path d="M300.157,33.386l.855.127a.817.817,0,0,0,.3.577,1.468,1.468,0,0,0,.893.244,1.576,1.576,0,0,0,.943-.244,1.2,1.2,0,0,0,.449-.684,5.535,5.535,0,0,0,.063-1.128,1.805,1.805,0,0,1-1.435.679,1.96,1.96,0,0,1-1.656-.772,2.973,2.973,0,0,1-.586-1.85,3.445,3.445,0,0,1,.269-1.37,2.151,2.151,0,0,1,.779-.969,2.1,2.1,0,0,1,1.2-.342,1.858,1.858,0,0,1,1.513.742v-.625h.811v4.483a4.26,4.26,0,0,1-.246,1.716,1.8,1.8,0,0,1-.782.8,2.7,2.7,0,0,1-1.316.293,2.485,2.485,0,0,1-1.5-.417A1.416,1.416,0,0,1,300.157,33.386Zm.728-3.115a2.255,2.255,0,0,0,.405,1.489,1.337,1.337,0,0,0,2.031,0,2.174,2.174,0,0,0,.41-1.463,2.129,2.129,0,0,0-.421-1.435,1.311,1.311,0,0,0-1.019-.483,1.265,1.265,0,0,0-1,.476A2.109,2.109,0,0,0,300.885,30.271Z"/><path d="M305.88,32.957V25.8h.879v2.568a1.965,1.965,0,0,1,1.553-.713,2.1,2.1,0,0,1,1,.227,1.331,1.331,0,0,1,.608.627,2.9,2.9,0,0,1,.183,1.163v3.286h-.879V29.671a1.355,1.355,0,0,0-.286-.96,1.062,1.062,0,0,0-.808-.3,1.428,1.428,0,0,0-.735.2,1.155,1.155,0,0,0-.491.55,2.536,2.536,0,0,0-.146.957v2.837Z"/><path d="M313.36,32.171l.127.776a3.256,3.256,0,0,1-.664.078,1.505,1.505,0,0,1-.742-.151.85.85,0,0,1-.371-.4,3.171,3.171,0,0,1-.107-1.038V28.455h-.645v-.684h.645V26.487l.874-.527v1.811h.883v.684h-.883v3.032a1.531,1.531,0,0,0,.046.483.359.359,0,0,0,.152.171.574.574,0,0,0,.3.064A2.812,2.812,0,0,0,313.36,32.171Z"/></g><polygon class="cls-8" points="162.499 183.297 155.499 176.271 155.499 190.322 162.499 183.297"/></svg>