<svg id="レイヤー_1" data-name="レイヤー 1" xmlns="http://www.w3.org/2000/svg" viewBox="0 0 378 200"><defs><style>.cls-1{fill:#8dbfff;}.cls-2{fill:#0040a7;}.cls-3,.cls-5{fill:none;stroke-miterlimit:10;}.cls-3{stroke:#0000a0;}.cls-4{fill:red;}.cls-5{stroke:#383838;}.cls-6{fill:#383838;}</style></defs><polygon class="cls-1" points="70.939 31.13 70.939 38.956 66.718 38.956 66.718 31.13 61.437 31.13 61.437 42.087 46.913 42.087 46.913 31.13 42.627 31.13 42.627 38.956 34.039 38.956 34.039 31.13 13.757 31.13 13.757 57.217 88.656 57.217 88.656 31.13 70.939 31.13"/><polygon class="cls-1" points="161.234 31.13 161.234 35.696 157.013 35.696 157.013 31.13 148.63 31.13 148.63 34 140.31 34 140.31 31.13 135.065 31.13 135.065 35.696 124.334 35.696 124.334 31.13 105.334 31.13 105.334 57.217 180.234 57.217 180.234 31.13 161.234 31.13"/><polygon class="cls-1" points="255.539 31.13 255.539 37.652 246.457 37.652 246.457 31.13 238.37 31.13 238.37 34 232.531 34 232.531 31.13 222.065 31.13 222.065 37.652 218.639 37.652 218.639 31.13 197.766 31.13 197.766 57.217 272.666 57.217 272.666 31.13 255.539 31.13"/><polygon class="cls-1" points="345.244 31.13 345.244 34 330.978 34 330.978 31.13 328.074 31.13 328.074 37.652 322.236 37.652 322.236 31.13 316.891 31.13 316.891 34 308.343 34 308.343 31.13 289.344 31.13 289.344 57.217 364.243 57.217 364.243 31.13 345.244 31.13"/><polygon class="cls-1" points="364.677 132.779 364.677 139.301 355.595 139.301 355.595 132.779 347.508 132.779 347.508 135.649 341.67 135.649 341.67 132.779 331.204 132.779 331.204 139.301 327.777 139.301 327.777 132.779 325.458 132.779 325.458 140.605 321.237 140.605 321.237 132.779 315.957 132.779 315.957 143.735 301.432 143.735 301.432 132.779 297.146 132.779 297.146 140.605 288.558 140.605 288.558 132.779 278.417 132.779 278.417 135.649 264.152 135.649 264.152 132.779 261.248 132.779 261.248 139.301 255.409 139.301 255.409 132.779 250.065 132.779 250.065 135.649 241.517 135.649 241.517 132.779 237.469 132.779 237.469 137.344 233.248 137.344 233.248 132.779 224.865 132.779 224.865 135.649 216.545 135.649 216.545 132.779 211.3 132.779 211.3 137.344 200.569 137.344 200.569 132.779 189.996 132.779 189.996 158.866 374.692 158.866 374.692 132.779 364.677 132.779"/><polygon class="cls-1" points="173.517 132.779 173.517 135.649 159.252 135.649 159.252 132.779 156.348 132.779 156.348 139.301 150.509 139.301 150.509 132.779 145.165 132.779 145.165 135.649 136.617 135.649 136.617 132.779 133.522 132.779 133.522 139.301 124.44 139.301 124.44 132.779 116.353 132.779 116.353 135.649 110.515 135.649 110.515 132.779 100.049 132.779 100.049 139.301 96.622 139.301 96.622 132.779 88.829 132.779 88.829 137.344 84.608 137.344 84.608 132.779 76.225 132.779 76.225 135.649 67.904 135.649 67.904 132.779 62.66 132.779 62.66 137.344 51.929 137.344 51.929 132.779 48.433 132.779 48.433 140.605 44.212 140.605 44.212 132.779 38.931 132.779 38.931 143.735 24.406 143.735 24.406 132.779 20.12 132.779 20.12 140.605 11.532 140.605 11.532 132.779 4.007 132.779 4.007 158.866 179.08 158.866 179.08 132.779 173.517 132.779"/><path class="cls-2" d="M47.545,26.8l3.3-8.59h1.224l3.516,8.59h-1.3l-1-2.6H49.7l-.943,2.6Zm2.478-3.527h2.913l-.9-2.379q-.41-1.084-.609-1.781a11.072,11.072,0,0,1-.463,1.64Z"/><path class="cls-2" d="M139.019,26.8v-8.59h3.223a3.987,3.987,0,0,1,1.579.261,2.026,2.026,0,0,1,.931.8,2.111,2.111,0,0,1,.337,1.134,1.951,1.951,0,0,1-.3,1.037,2.136,2.136,0,0,1-.9.785,2.239,2.239,0,0,1,1.2.779,2.083,2.083,0,0,1,.419,1.3,2.51,2.51,0,0,1-.255,1.122,2.164,2.164,0,0,1-.629.8,2.645,2.645,0,0,1-.941.425,5.76,5.76,0,0,1-1.386.143Zm1.137-4.98h1.857a4.159,4.159,0,0,0,1.084-.1,1.2,1.2,0,0,0,.653-.428,1.228,1.228,0,0,0,.22-.75,1.38,1.38,0,0,0-.205-.753,1.041,1.041,0,0,0-.586-.445,4.894,4.894,0,0,0-1.306-.12h-1.717Zm0,3.966h2.138a4.848,4.848,0,0,0,.774-.041,1.842,1.842,0,0,0,.656-.234,1.252,1.252,0,0,0,.434-.477,1.5,1.5,0,0,0,.17-.724,1.428,1.428,0,0,0-.246-.835,1.306,1.306,0,0,0-.683-.5,4.221,4.221,0,0,0-1.257-.144h-1.986Z"/><path class="cls-2" d="M237.784,23.791l1.137.288a3.825,3.825,0,0,1-1.286,2.135,3.546,3.546,0,0,1-2.271.736,4.082,4.082,0,0,1-2.259-.566,3.533,3.533,0,0,1-1.324-1.638,5.851,5.851,0,0,1-.454-2.3,5.059,5.059,0,0,1,.513-2.341,3.516,3.516,0,0,1,1.459-1.518,4.27,4.27,0,0,1,2.083-.518,3.525,3.525,0,0,1,2.168.656,3.407,3.407,0,0,1,1.224,1.846l-1.119.263a2.651,2.651,0,0,0-.867-1.365,2.312,2.312,0,0,0-1.43-.428,2.779,2.779,0,0,0-1.655.475,2.5,2.5,0,0,0-.934,1.274,5.127,5.127,0,0,0-.27,1.65,5.241,5.241,0,0,0,.319,1.913,2.379,2.379,0,0,0,.994,1.222,2.788,2.788,0,0,0,1.459.4,2.448,2.448,0,0,0,1.617-.551A2.818,2.818,0,0,0,237.784,23.791Z"/><path class="cls-2" d="M323.233,26.8v-8.59h2.959a7.19,7.19,0,0,1,1.53.123,2.912,2.912,0,0,1,1.259.616A3.488,3.488,0,0,1,330,20.419a5.756,5.756,0,0,1,.337,2.042,5.978,5.978,0,0,1-.229,1.735,4.2,4.2,0,0,1-.585,1.251,3.122,3.122,0,0,1-.783.779,3.206,3.206,0,0,1-1.025.431,5.884,5.884,0,0,1-1.38.146Zm1.137-1.014H326.2a4.43,4.43,0,0,0,1.333-.158,1.914,1.914,0,0,0,.771-.445,2.727,2.727,0,0,0,.63-1.087,5.327,5.327,0,0,0,.225-1.655,4,4,0,0,0-.442-2.072,2.23,2.23,0,0,0-1.075-.969,4.451,4.451,0,0,0-1.471-.176H324.37Z"/><polyline class="cls-3" points="88.656 31.13 70.939 31.13 70.939 38.956 66.718 38.956 66.718 31.13 61.437 31.13 61.437 42.087 46.913 42.087 46.913 31.13 42.627 31.13 42.627 38.956 34.039 38.956 34.039 31.13 13.757 31.13"/><polyline class="cls-3" points="180.234 31.13 161.234 31.13 161.234 35.696 157.013 35.696 157.013 31.13 148.63 31.13 148.63 34 140.31 34 140.31 31.13 135.065 31.13 135.065 35.696 124.334 35.696 124.334 31.13 105.334 31.13"/><polyline class="cls-3" points="272.666 31.13 255.539 31.13 255.539 37.652 246.457 37.652 246.457 31.13 238.37 31.13 238.37 34 232.531 34 232.531 31.13 222.065 31.13 222.065 37.652 218.639 37.652 218.639 31.13 197.766 31.13"/><polyline class="cls-3" points="364.243 31.13 345.244 31.13 345.244 34 330.978 34 330.978 31.13 328.074 31.13 328.074 37.652 322.236 37.652 322.236 31.13 316.891 31.13 316.891 34 308.343 34 308.343 31.13 289.344 31.13"/><polyline class="cls-3" points="374.692 132.779 364.677 132.779 364.677 139.301 355.595 139.301 355.595 132.779 347.508 132.779 347.508 135.649 341.67 135.649 341.67 132.779 331.204 132.779 331.204 139.301 327.777 139.301 327.777 132.779 325.458 132.779 325.458 140.605 321.237 140.605 321.237 132.779 315.957 132.779 315.957 143.735 301.432 143.735 301.432 132.779 297.146 132.779 297.146 140.605 288.558 140.605 288.558 132.779 278.417 132.779 278.417 135.649 264.152 135.649 264.152 132.779 261.248 132.779 261.248 139.301 255.409 139.301 255.409 132.779 250.065 132.779 250.065 135.649 241.517 135.649 241.517 132.779 237.469 132.779 237.469 137.344 233.248 137.344 233.248 132.779 224.865 132.779 224.865 135.649 216.545 135.649 216.545 132.779 211.3 132.779 211.3 137.344 200.569 137.344 200.569 132.779 189.996 132.779"/><polyline class="cls-3" points="179.08 132.779 173.517 132.779 173.517 135.649 159.252 135.649 159.252 132.779 156.348 132.779 156.348 139.301 150.509 139.301 150.509 132.779 145.165 132.779 145.165 135.649 136.617 135.649 136.617 132.779 133.522 132.779 133.522 139.301 124.44 139.301 124.44 132.779 116.353 132.779 116.353 135.649 110.515 135.649 110.515 132.779 100.049 132.779 100.049 139.301 96.622 139.301 96.622 132.779 88.829 132.779 88.829 137.344 84.608 137.344 84.608 132.779 76.225 132.779 76.225 135.649 67.904 135.649 67.904 132.779 62.66 132.779 62.66 137.344 51.929 137.344 51.929 132.779 48.433 132.779 48.433 140.605 44.212 140.605 44.212 132.779 38.931 132.779 38.931 143.735 24.406 143.735 24.406 132.779 20.12 132.779 20.12 140.605 11.532 140.605 11.532 132.779 4.007 132.779"/><path class="cls-2" d="M70.922,173.205l3.3-8.589h1.224l3.516,8.589h-1.3l-1-2.6H73.072l-.943,2.6Zm2.478-3.527h2.913l-.9-2.379q-.409-1.083-.609-1.781a11.05,11.05,0,0,1-.463,1.641Z"/><path class="cls-2" d="M81.949,171.817v-2.356H79.611v-.984h2.338v-2.338h1v2.338h2.338v.984H82.945v2.356Z"/><path class="cls-2" d="M86.83,173.205v-8.589h3.223a4.007,4.007,0,0,1,1.579.26,2.032,2.032,0,0,1,.931.8,2.111,2.111,0,0,1,.337,1.134,1.948,1.948,0,0,1-.3,1.037,2.136,2.136,0,0,1-.9.785,2.239,2.239,0,0,1,1.2.779,2.085,2.085,0,0,1,.419,1.3,2.516,2.516,0,0,1-.254,1.122,2.168,2.168,0,0,1-.63.8,2.628,2.628,0,0,1-.941.425,5.709,5.709,0,0,1-1.386.143Zm1.137-4.98h1.857a4.115,4.115,0,0,0,1.084-.1,1.209,1.209,0,0,0,.654-.427,1.238,1.238,0,0,0,.219-.75,1.378,1.378,0,0,0-.205-.753,1.039,1.039,0,0,0-.586-.446,4.894,4.894,0,0,0-1.306-.12H87.967Zm0,3.967h2.138a4.973,4.973,0,0,0,.774-.041,1.842,1.842,0,0,0,.656-.235,1.245,1.245,0,0,0,.434-.477,1.5,1.5,0,0,0,.17-.724,1.43,1.43,0,0,0-.246-.835,1.3,1.3,0,0,0-.683-.5,4.26,4.26,0,0,0-1.257-.143H87.967Z"/><path class="cls-2" d="M96.961,171.817v-2.356H94.623v-.984h2.338v-2.338h1v2.338H100.3v.984H97.957v2.356Z"/><path class="cls-2" d="M108.018,170.194l1.136.287a3.831,3.831,0,0,1-1.286,2.136,3.544,3.544,0,0,1-2.27.735,4.088,4.088,0,0,1-2.259-.565,3.527,3.527,0,0,1-1.324-1.638,5.842,5.842,0,0,1-.454-2.3,5.061,5.061,0,0,1,.512-2.341,3.508,3.508,0,0,1,1.459-1.517,4.26,4.26,0,0,1,2.083-.519,3.523,3.523,0,0,1,2.168.656,3.414,3.414,0,0,1,1.225,1.846l-1.119.264a2.658,2.658,0,0,0-.868-1.365,2.3,2.3,0,0,0-1.429-.428,2.778,2.778,0,0,0-1.655.474,2.51,2.51,0,0,0-.935,1.275,5.121,5.121,0,0,0-.27,1.649,5.237,5.237,0,0,0,.32,1.913,2.382,2.382,0,0,0,.993,1.222,2.779,2.779,0,0,0,1.459.4,2.443,2.443,0,0,0,1.617-.55A2.825,2.825,0,0,0,108.018,170.194Z"/><path class="cls-2" d="M112.635,171.817v-2.356H110.3v-.984h2.338v-2.338h1v2.338h2.338v.984h-2.338v2.356Z"/><path class="cls-2" d="M117.563,173.205v-8.589h2.958a7.19,7.19,0,0,1,1.53.123,2.908,2.908,0,0,1,1.26.615,3.489,3.489,0,0,1,1.016,1.468,5.749,5.749,0,0,1,.337,2.042,6.012,6.012,0,0,1-.228,1.734,4.229,4.229,0,0,1-.586,1.251,3.106,3.106,0,0,1-.783.779,3.183,3.183,0,0,1-1.025.431,5.832,5.832,0,0,1-1.38.146Zm1.136-1.013h1.834a4.463,4.463,0,0,0,1.333-.158,1.915,1.915,0,0,0,.771-.446,2.72,2.72,0,0,0,.63-1.087,5.322,5.322,0,0,0,.225-1.655,4,4,0,0,0-.442-2.071,2.228,2.228,0,0,0-1.075-.97,4.451,4.451,0,0,0-1.471-.176H118.7Z"/><path class="cls-2" d="M256.969,173.205v-8.589h3.222a4.009,4.009,0,0,1,1.58.26,2.032,2.032,0,0,1,.931.8,2.111,2.111,0,0,1,.337,1.134,1.949,1.949,0,0,1-.3,1.037,2.133,2.133,0,0,1-.9.785,2.242,2.242,0,0,1,1.2.779,2.091,2.091,0,0,1,.419,1.3,2.5,2.5,0,0,1-.255,1.122,2.168,2.168,0,0,1-.63.8,2.623,2.623,0,0,1-.94.425,5.709,5.709,0,0,1-1.386.143Zm1.136-4.98h1.858a4.115,4.115,0,0,0,1.084-.1,1.2,1.2,0,0,0,.653-.427,1.232,1.232,0,0,0,.22-.75,1.378,1.378,0,0,0-.205-.753,1.039,1.039,0,0,0-.586-.446,4.9,4.9,0,0,0-1.307-.12h-1.717Zm0,3.967h2.139a4.982,4.982,0,0,0,.774-.041,1.849,1.849,0,0,0,.656-.235,1.235,1.235,0,0,0,.433-.477,1.487,1.487,0,0,0,.17-.724,1.43,1.43,0,0,0-.246-.835,1.3,1.3,0,0,0-.682-.5,4.26,4.26,0,0,0-1.257-.143h-1.987Z"/><path class="cls-2" d="M267.1,171.817v-2.356h-2.338v-.984H267.1v-2.338h1v2.338h2.338v.984H268.1v2.356Z"/><path class="cls-2" d="M272.027,173.205v-8.589h2.959a7.19,7.19,0,0,1,1.53.123,2.9,2.9,0,0,1,1.259.615,3.491,3.491,0,0,1,1.017,1.468,5.749,5.749,0,0,1,.337,2.042,5.976,5.976,0,0,1-.229,1.734,4.18,4.18,0,0,1-.586,1.251,3.1,3.1,0,0,1-.782.779,3.183,3.183,0,0,1-1.025.431,5.844,5.844,0,0,1-1.38.146Zm1.137-1.013H275a4.467,4.467,0,0,0,1.333-.158,1.915,1.915,0,0,0,.771-.446,2.707,2.707,0,0,0,.629-1.087,5.29,5.29,0,0,0,.226-1.655,4,4,0,0,0-.442-2.071,2.225,2.225,0,0,0-1.076-.97,4.44,4.44,0,0,0-1.47-.176h-1.805Z"/><path class="cls-2" d="M282.773,171.817v-2.356h-2.337v-.984h2.337v-2.338h1v2.338h2.337v.984H283.77v2.356Z"/><path class="cls-2" d="M286.758,173.205l3.3-8.589h1.224l3.516,8.589h-1.3l-1-2.6h-3.592l-.943,2.6Zm2.478-3.527h2.912l-.9-2.379q-.41-1.083-.609-1.781a11.05,11.05,0,0,1-.463,1.641Z"/><path class="cls-2" d="M297.785,171.817v-2.356h-2.338v-.984h2.338v-2.338h1v2.338h2.338v.984h-2.338v2.356Z"/><path class="cls-2" d="M308.842,170.194l1.137.287a3.832,3.832,0,0,1-1.287,2.136,3.544,3.544,0,0,1-2.27.735,4.088,4.088,0,0,1-2.259-.565,3.533,3.533,0,0,1-1.324-1.638,5.842,5.842,0,0,1-.454-2.3,5.074,5.074,0,0,1,.512-2.341,3.514,3.514,0,0,1,1.459-1.517,4.263,4.263,0,0,1,2.083-.519,3.523,3.523,0,0,1,2.168.656,3.408,3.408,0,0,1,1.225,1.846l-1.119.264a2.651,2.651,0,0,0-.867-1.365,2.307,2.307,0,0,0-1.43-.428,2.778,2.778,0,0,0-1.655.474,2.51,2.51,0,0,0-.935,1.275,5.12,5.12,0,0,0-.269,1.649,5.237,5.237,0,0,0,.319,1.913,2.382,2.382,0,0,0,.993,1.222,2.781,2.781,0,0,0,1.459.4,2.443,2.443,0,0,0,1.617-.55A2.82,2.82,0,0,0,308.842,170.194Z"/><path d="M48.128,11.666V4.508h.948v7.158Z"/><path d="M50.633,11.666V6.481h.791v.737a1.866,1.866,0,0,1,1.651-.854,2.159,2.159,0,0,1,.862.169,1.352,1.352,0,0,1,.588.441,1.7,1.7,0,0,1,.273.649,5,5,0,0,1,.049.855v3.188h-.879V8.512a2.381,2.381,0,0,0-.1-.8.846.846,0,0,0-.364-.424,1.146,1.146,0,0,0-.613-.16,1.428,1.428,0,0,0-.969.357,1.757,1.757,0,0,0-.408,1.352v2.832Z"/><path d="M59.559,11.666v-.654a1.612,1.612,0,0,1-1.45.772,2.029,2.029,0,0,1-1.14-.342,2.252,2.252,0,0,1-.806-.954,3.307,3.307,0,0,1-.286-1.409,3.7,3.7,0,0,1,.259-1.409,2.034,2.034,0,0,1,.777-.969,2.073,2.073,0,0,1,1.157-.337,1.728,1.728,0,0,1,1.43.713V4.508h.875v7.158ZM56.781,9.079a2.25,2.25,0,0,0,.42,1.489,1.263,1.263,0,0,0,.991.493,1.244,1.244,0,0,0,.979-.471,2.176,2.176,0,0,0,.4-1.438,2.444,2.444,0,0,0-.41-1.563,1.263,1.263,0,0,0-1.011-.5,1.218,1.218,0,0,0-.979.479A2.362,2.362,0,0,0,56.781,9.079Z"/><path d="M61.761,5.519V4.508h.879V5.519Zm0,6.147V6.481h.879v5.185Z"/><path d="M65.418,11.666,63.446,6.481h.928l1.113,3.105q.18.5.332,1.045.117-.409.327-.986L67.3,6.481h.9l-1.963,5.185Z"/><path d="M68.983,5.519V4.508h.879V5.519Zm0,6.147V6.481h.879v5.185Z"/><path d="M74.564,11.666v-.654a1.612,1.612,0,0,1-1.45.772,2.029,2.029,0,0,1-1.14-.342,2.245,2.245,0,0,1-.806-.954,3.307,3.307,0,0,1-.286-1.409,3.7,3.7,0,0,1,.259-1.409,2.032,2.032,0,0,1,.776-.969,2.076,2.076,0,0,1,1.158-.337,1.728,1.728,0,0,1,1.43.713V4.508h.874v7.158ZM71.786,9.079a2.25,2.25,0,0,0,.42,1.489,1.263,1.263,0,0,0,.991.493,1.244,1.244,0,0,0,.979-.471,2.176,2.176,0,0,0,.4-1.438,2.438,2.438,0,0,0-.411-1.563,1.26,1.26,0,0,0-1.01-.5,1.218,1.218,0,0,0-.979.479A2.362,2.362,0,0,0,71.786,9.079Z"/><path d="M80.16,11.666v-.761a1.9,1.9,0,0,1-1.646.879,2.1,2.1,0,0,1-.857-.176,1.419,1.419,0,0,1-.591-.442,1.671,1.671,0,0,1-.271-.652,4.54,4.54,0,0,1-.053-.82V6.481h.879V9.357a5.233,5.233,0,0,0,.053.928.913.913,0,0,0,.352.544,1.087,1.087,0,0,0,.664.2,1.455,1.455,0,0,0,.742-.2,1.135,1.135,0,0,0,.491-.552,2.774,2.774,0,0,0,.144-1.014V6.481h.879v5.185Z"/><path d="M85.707,11.027a3.276,3.276,0,0,1-.94.586,2.719,2.719,0,0,1-.97.171,1.887,1.887,0,0,1-1.313-.417,1.38,1.38,0,0,1-.459-1.068,1.422,1.422,0,0,1,.173-.7,1.443,1.443,0,0,1,.454-.506,2.126,2.126,0,0,1,.633-.288,6.507,6.507,0,0,1,.781-.132,7.921,7.921,0,0,0,1.567-.3c0-.12.005-.2.005-.229a.972.972,0,0,0-.249-.757,1.472,1.472,0,0,0-1-.3,1.54,1.54,0,0,0-.915.218,1.325,1.325,0,0,0-.437.769l-.86-.118a2.121,2.121,0,0,1,.386-.89,1.687,1.687,0,0,1,.776-.523,3.468,3.468,0,0,1,1.177-.183,3.119,3.119,0,0,1,1.079.156,1.425,1.425,0,0,1,.611.393,1.388,1.388,0,0,1,.273.6,5,5,0,0,1,.044.811V9.494a12.532,12.532,0,0,0,.056,1.55,1.958,1.958,0,0,0,.222.622h-.918A1.833,1.833,0,0,1,85.707,11.027Zm-.074-1.963A6.39,6.39,0,0,1,84.2,9.4a3.372,3.372,0,0,0-.767.176.763.763,0,0,0-.347.286.775.775,0,0,0,.145,1,1.145,1.145,0,0,0,.778.234,1.816,1.816,0,0,0,.9-.222,1.369,1.369,0,0,0,.581-.608,2.128,2.128,0,0,0,.141-.879Z"/><path d="M87.865,11.666V4.508h.879v7.158Z"/><path d="M96.268,9.767l.864.112a2.242,2.242,0,0,1-.725,1.4,2.11,2.11,0,0,1-1.433.505,2.226,2.226,0,0,1-1.711-.7,2.826,2.826,0,0,1-.647-1.995,3.607,3.607,0,0,1,.278-1.47,1.946,1.946,0,0,1,.847-.944,2.516,2.516,0,0,1,1.238-.315,2.151,2.151,0,0,1,1.382.427A1.962,1.962,0,0,1,97.049,8l-.854.132a1.428,1.428,0,0,0-.432-.786,1.119,1.119,0,0,0-.75-.264,1.363,1.363,0,0,0-1.079.477,2.256,2.256,0,0,0-.415,1.506,2.332,2.332,0,0,0,.4,1.518,1.3,1.3,0,0,0,1.045.474,1.234,1.234,0,0,0,.865-.317A1.577,1.577,0,0,0,96.268,9.767Z"/><path d="M101.268,11.027a3.276,3.276,0,0,1-.94.586,2.713,2.713,0,0,1-.969.171,1.889,1.889,0,0,1-1.314-.417,1.38,1.38,0,0,1-.459-1.068,1.411,1.411,0,0,1,.174-.7,1.433,1.433,0,0,1,.454-.506,2.132,2.132,0,0,1,.632-.288,6.544,6.544,0,0,1,.781-.132,7.935,7.935,0,0,0,1.568-.3c0-.12.005-.2.005-.229a.972.972,0,0,0-.249-.757,1.474,1.474,0,0,0-1-.3,1.544,1.544,0,0,0-.916.218,1.325,1.325,0,0,0-.437.769l-.859-.118a2.109,2.109,0,0,1,.386-.89,1.687,1.687,0,0,1,.776-.523,3.464,3.464,0,0,1,1.177-.183,3.119,3.119,0,0,1,1.079.156,1.415,1.415,0,0,1,.61.393,1.4,1.4,0,0,1,.274.6,5.03,5.03,0,0,1,.043.811V9.494a12.244,12.244,0,0,0,.057,1.55,1.934,1.934,0,0,0,.222.622h-.918A1.855,1.855,0,0,1,101.268,11.027ZM101.2,9.064a6.4,6.4,0,0,1-1.436.332,3.374,3.374,0,0,0-.766.176.763.763,0,0,0-.347.286.743.743,0,0,0-.122.417.751.751,0,0,0,.266.586,1.146,1.146,0,0,0,.779.234,1.815,1.815,0,0,0,.9-.222,1.358,1.358,0,0,0,.581-.608,2.126,2.126,0,0,0,.142-.879Z"/><path d="M103.426,11.666V4.508h.879v7.158Z"/><path d="M109.051,9.767l.865.112a2.243,2.243,0,0,1-.726,1.4,2.11,2.11,0,0,1-1.433.505,2.226,2.226,0,0,1-1.711-.7,2.826,2.826,0,0,1-.647-1.995,3.623,3.623,0,0,1,.278-1.47,1.946,1.946,0,0,1,.847-.944,2.516,2.516,0,0,1,1.238-.315,2.151,2.151,0,0,1,1.382.427A1.968,1.968,0,0,1,109.833,8l-.855.132a1.428,1.428,0,0,0-.432-.786,1.119,1.119,0,0,0-.75-.264,1.364,1.364,0,0,0-1.079.477,2.256,2.256,0,0,0-.415,1.506,2.332,2.332,0,0,0,.4,1.518,1.3,1.3,0,0,0,1.045.474,1.233,1.233,0,0,0,.864-.317A1.577,1.577,0,0,0,109.051,9.767Z"/><path d="M114.066,11.666v-.761a1.9,1.9,0,0,1-1.646.879,2.1,2.1,0,0,1-.857-.176,1.409,1.409,0,0,1-.59-.442,1.642,1.642,0,0,1-.271-.652,4.427,4.427,0,0,1-.054-.82V6.481h.879V9.357a5.105,5.105,0,0,0,.054.928.911.911,0,0,0,.351.544,1.089,1.089,0,0,0,.664.2,1.455,1.455,0,0,0,.742-.2,1.135,1.135,0,0,0,.491-.552,2.774,2.774,0,0,0,.144-1.014V6.481h.879v5.185Z"/><path d="M116.209,11.666V4.508h.879v7.158Z"/><path d="M121.834,11.027a3.259,3.259,0,0,1-.939.586,2.719,2.719,0,0,1-.97.171,1.885,1.885,0,0,1-1.313-.417,1.38,1.38,0,0,1-.459-1.068,1.411,1.411,0,0,1,.173-.7,1.443,1.443,0,0,1,.454-.506,2.126,2.126,0,0,1,.633-.288,6.507,6.507,0,0,1,.781-.132,7.921,7.921,0,0,0,1.567-.3c0-.12.005-.2.005-.229a.972.972,0,0,0-.249-.757,1.474,1.474,0,0,0-1-.3,1.54,1.54,0,0,0-.915.218,1.325,1.325,0,0,0-.437.769l-.86-.118a2.121,2.121,0,0,1,.386-.89,1.687,1.687,0,0,1,.776-.523,3.468,3.468,0,0,1,1.177-.183,3.119,3.119,0,0,1,1.079.156,1.425,1.425,0,0,1,.611.393,1.388,1.388,0,0,1,.273.6,5,5,0,0,1,.044.811V9.494a12.322,12.322,0,0,0,.056,1.55,1.958,1.958,0,0,0,.222.622h-.918A1.855,1.855,0,0,1,121.834,11.027Zm-.073-1.963a6.39,6.39,0,0,1-1.435.332,3.372,3.372,0,0,0-.767.176.763.763,0,0,0-.347.286.777.777,0,0,0,.144,1,1.147,1.147,0,0,0,.779.234,1.816,1.816,0,0,0,.9-.222,1.369,1.369,0,0,0,.581-.608,2.128,2.128,0,0,0,.141-.879Z"/><path d="M125.931,10.88l.127.777a3.264,3.264,0,0,1-.664.078,1.491,1.491,0,0,1-.742-.152.844.844,0,0,1-.371-.4,3.138,3.138,0,0,1-.108-1.038V7.164h-.644V6.481h.644V5.2l.874-.528V6.481h.884v.683h-.884V10.2a1.516,1.516,0,0,0,.047.483.363.363,0,0,0,.151.171.578.578,0,0,0,.3.063A2.672,2.672,0,0,0,125.931,10.88Z"/><path d="M126.8,5.519V4.508h.879V5.519Zm0,6.147V6.481h.879v5.185Z"/><path d="M128.685,9.074a2.674,2.674,0,0,1,.8-2.134,2.414,2.414,0,0,1,1.631-.576,2.324,2.324,0,0,1,1.748.7A2.666,2.666,0,0,1,133.543,9a3.439,3.439,0,0,1-.3,1.576,2.13,2.13,0,0,1-.874.89,2.539,2.539,0,0,1-1.252.318,2.332,2.332,0,0,1-1.761-.7A2.788,2.788,0,0,1,128.685,9.074Zm.9,0a2.209,2.209,0,0,0,.435,1.492,1.448,1.448,0,0,0,2.183,0,2.265,2.265,0,0,0,.434-1.519,2.139,2.139,0,0,0-.437-1.457,1.449,1.449,0,0,0-2.18,0A2.2,2.2,0,0,0,129.588,9.074Z"/><path d="M134.574,11.666V6.481h.791v.737a1.865,1.865,0,0,1,1.65-.854,2.152,2.152,0,0,1,.862.169,1.352,1.352,0,0,1,.588.441,1.69,1.69,0,0,1,.274.649,5.113,5.113,0,0,1,.049.855v3.188h-.879V8.512a2.351,2.351,0,0,0-.1-.8.836.836,0,0,0-.364-.424,1.145,1.145,0,0,0-.612-.16,1.429,1.429,0,0,0-.97.357,1.757,1.757,0,0,0-.407,1.352v2.832Z"/><path d="M142.586,9.074a2.678,2.678,0,0,1,.8-2.134,2.414,2.414,0,0,1,1.631-.576,2.324,2.324,0,0,1,1.748.7A2.662,2.662,0,0,1,147.445,9a3.439,3.439,0,0,1-.3,1.576,2.136,2.136,0,0,1-.874.89,2.543,2.543,0,0,1-1.253.318,2.33,2.33,0,0,1-1.76-.7A2.784,2.784,0,0,1,142.586,9.074Zm.9,0a2.215,2.215,0,0,0,.434,1.492,1.448,1.448,0,0,0,2.183,0,2.265,2.265,0,0,0,.435-1.519,2.139,2.139,0,0,0-.438-1.457,1.449,1.449,0,0,0-2.18,0A2.205,2.205,0,0,0,143.49,9.074Z"/><path d="M148.685,11.666v-4.5h-.776V6.481h.776V5.929a2.412,2.412,0,0,1,.093-.776,1.126,1.126,0,0,1,.446-.554,1.612,1.612,0,0,1,.9-.213,4.275,4.275,0,0,1,.82.088l-.132.767a2.906,2.906,0,0,0-.517-.049.77.77,0,0,0-.567.171.929.929,0,0,0-.166.639v.479h1.011v.683h-1.011v4.5Z"/><path d="M153.68,10.119l.869-.137a1.218,1.218,0,0,0,.408.8,1.425,1.425,0,0,0,.935.278,1.38,1.38,0,0,0,.9-.246.739.739,0,0,0,.292-.579.532.532,0,0,0-.258-.469,3.834,3.834,0,0,0-.9-.3,8.278,8.278,0,0,1-1.341-.422,1.277,1.277,0,0,1-.758-1.189,1.32,1.32,0,0,1,.159-.642,1.422,1.422,0,0,1,.431-.491,1.8,1.8,0,0,1,.559-.256,2.659,2.659,0,0,1,.76-.105,3.008,3.008,0,0,1,1.072.175,1.471,1.471,0,0,1,.681.477,1.874,1.874,0,0,1,.3.8l-.86.117a.94.94,0,0,0-.339-.625,1.247,1.247,0,0,0-.794-.225,1.441,1.441,0,0,0-.864.2.581.581,0,0,0-.259.468.482.482,0,0,0,.108.308.754.754,0,0,0,.337.234q.13.049.776.225a10.775,10.775,0,0,1,1.3.408,1.329,1.329,0,0,1,.578.461,1.289,1.289,0,0,1,.21.752,1.469,1.469,0,0,1-.257.828,1.653,1.653,0,0,1-.739.6,2.706,2.706,0,0,1-1.094.212,2.432,2.432,0,0,1-1.54-.42A1.952,1.952,0,0,1,153.68,10.119Z"/><path d="M162.416,9.767l.864.112a2.243,2.243,0,0,1-.726,1.4,2.108,2.108,0,0,1-1.432.505,2.226,2.226,0,0,1-1.712-.7,2.826,2.826,0,0,1-.647-1.995,3.606,3.606,0,0,1,.279-1.47,1.939,1.939,0,0,1,.846-.944,2.516,2.516,0,0,1,1.238-.315,2.149,2.149,0,0,1,1.382.427A1.958,1.958,0,0,1,163.2,8l-.855.132a1.416,1.416,0,0,0-.432-.786,1.115,1.115,0,0,0-.749-.264,1.361,1.361,0,0,0-1.079.477,2.256,2.256,0,0,0-.415,1.506,2.332,2.332,0,0,0,.4,1.518,1.3,1.3,0,0,0,1.045.474,1.233,1.233,0,0,0,.864-.317A1.572,1.572,0,0,0,162.416,9.767Z"/><path d="M167.416,11.027a3.276,3.276,0,0,1-.94.586,2.722,2.722,0,0,1-.97.171,1.887,1.887,0,0,1-1.313-.417,1.38,1.38,0,0,1-.459-1.068,1.411,1.411,0,0,1,.174-.7,1.431,1.431,0,0,1,.453-.506,2.126,2.126,0,0,1,.633-.288,6.507,6.507,0,0,1,.781-.132,7.906,7.906,0,0,0,1.567-.3c0-.12,0-.2,0-.229a.972.972,0,0,0-.249-.757,1.472,1.472,0,0,0-1-.3,1.546,1.546,0,0,0-.916.218,1.33,1.33,0,0,0-.436.769l-.86-.118a2.121,2.121,0,0,1,.386-.89,1.681,1.681,0,0,1,.776-.523,3.468,3.468,0,0,1,1.177-.183,3.115,3.115,0,0,1,1.079.156,1.419,1.419,0,0,1,.611.393,1.4,1.4,0,0,1,.273.6,5,5,0,0,1,.044.811V9.494a12.532,12.532,0,0,0,.056,1.55,1.982,1.982,0,0,0,.222.622h-.918A1.855,1.855,0,0,1,167.416,11.027Zm-.074-1.963a6.4,6.4,0,0,1-1.435.332,3.372,3.372,0,0,0-.767.176.768.768,0,0,0-.347.286.777.777,0,0,0,.144,1,1.149,1.149,0,0,0,.779.234,1.816,1.816,0,0,0,.9-.222,1.369,1.369,0,0,0,.581-.608,2.128,2.128,0,0,0,.141-.879Z"/><path d="M171.512,10.88l.127.777a3.264,3.264,0,0,1-.664.078,1.491,1.491,0,0,1-.742-.152.839.839,0,0,1-.371-.4,3.166,3.166,0,0,1-.108-1.038V7.164h-.644V6.481h.644V5.2l.874-.528V6.481h.884v.683h-.884V10.2a1.558,1.558,0,0,0,.046.483.367.367,0,0,0,.153.171.574.574,0,0,0,.3.063A2.661,2.661,0,0,0,171.512,10.88Z"/><path d="M174.291,10.88l.126.777a3.256,3.256,0,0,1-.664.078,1.491,1.491,0,0,1-.742-.152.839.839,0,0,1-.371-.4,3.175,3.175,0,0,1-.107-1.038V7.164h-.645V6.481h.645V5.2l.874-.528V6.481h.884v.683h-.884V10.2a1.526,1.526,0,0,0,.046.483.365.365,0,0,0,.152.171.575.575,0,0,0,.3.063A2.684,2.684,0,0,0,174.291,10.88Z"/><path d="M178.7,10l.908.113a2.215,2.215,0,0,1-.8,1.235,2.393,2.393,0,0,1-1.484.44,2.369,2.369,0,0,1-1.8-.7,2.734,2.734,0,0,1-.667-1.965,2.869,2.869,0,0,1,.674-2.032,2.283,2.283,0,0,1,1.748-.722,2.216,2.216,0,0,1,1.7.708,2.815,2.815,0,0,1,.659,1.992c0,.053,0,.131,0,.234h-3.867a1.982,1.982,0,0,0,.484,1.309,1.438,1.438,0,0,0,1.084.454,1.341,1.341,0,0,0,.825-.254A1.691,1.691,0,0,0,178.7,10Zm-2.886-1.42h2.9a1.756,1.756,0,0,0-.332-.982,1.347,1.347,0,0,0-1.088-.508,1.4,1.4,0,0,0-1.019.406A1.606,1.606,0,0,0,175.814,8.576Z"/><path d="M180.7,11.666V6.481h.791v.786a2.154,2.154,0,0,1,.559-.728.975.975,0,0,1,.564-.175,1.712,1.712,0,0,1,.9.283l-.3.815a1.255,1.255,0,0,0-.644-.19.83.83,0,0,0-.518.174.933.933,0,0,0-.327.48,3.415,3.415,0,0,0-.146,1.026v2.714Z"/><path d="M187.591,10l.909.113a2.22,2.22,0,0,1-.8,1.235,2.394,2.394,0,0,1-1.485.44,2.367,2.367,0,0,1-1.8-.7,2.73,2.73,0,0,1-.667-1.965,2.869,2.869,0,0,1,.673-2.032,2.286,2.286,0,0,1,1.748-.722,2.218,2.218,0,0,1,1.7.708,2.815,2.815,0,0,1,.659,1.992c0,.053,0,.131,0,.234h-3.867a1.987,1.987,0,0,0,.483,1.309,1.44,1.44,0,0,0,1.084.454,1.338,1.338,0,0,0,.825-.254A1.677,1.677,0,0,0,187.591,10Zm-2.885-1.42h2.9a1.756,1.756,0,0,0-.332-.982,1.349,1.349,0,0,0-1.089-.508,1.4,1.4,0,0,0-1.018.406A1.6,1.6,0,0,0,184.706,8.576Z"/><path d="M192.967,11.666v-.654a1.613,1.613,0,0,1-1.45.772,2.032,2.032,0,0,1-1.14-.342,2.254,2.254,0,0,1-.807-.954,3.322,3.322,0,0,1-.284-1.409,3.7,3.7,0,0,1,.258-1.409,2.044,2.044,0,0,1,.776-.969,2.074,2.074,0,0,1,1.158-.337,1.731,1.731,0,0,1,.835.2,1.752,1.752,0,0,1,.595.515V4.508h.874v7.158Zm-2.779-2.587a2.25,2.25,0,0,0,.42,1.489,1.268,1.268,0,0,0,.992.493,1.241,1.241,0,0,0,.978-.471,2.165,2.165,0,0,0,.4-1.438,2.438,2.438,0,0,0-.41-1.563,1.26,1.26,0,0,0-1.01-.5,1.218,1.218,0,0,0-.979.479A2.356,2.356,0,0,0,190.188,9.079Z"/><path d="M198.9,11.666l-1.586-5.185h.908l.825,2.993.308,1.113q.018-.081.268-1.069l.825-3.037h.9l.776,3.008.259.991.3-1,.888-3h.855l-1.621,5.185h-.913l-.826-3.105-.2-.884-1.05,3.989Z"/><path d="M208.548,11.027a3.263,3.263,0,0,1-.94.586,2.717,2.717,0,0,1-.969.171,1.888,1.888,0,0,1-1.314-.417,1.383,1.383,0,0,1-.459-1.068,1.411,1.411,0,0,1,.174-.7,1.44,1.44,0,0,1,.453-.506,2.149,2.149,0,0,1,.633-.288,6.544,6.544,0,0,1,.781-.132,7.919,7.919,0,0,0,1.568-.3c0-.12,0-.2,0-.229a.972.972,0,0,0-.249-.757,1.472,1.472,0,0,0-1-.3,1.548,1.548,0,0,0-.916.218,1.335,1.335,0,0,0-.436.769l-.859-.118a2.133,2.133,0,0,1,.385-.89,1.685,1.685,0,0,1,.777-.523,3.462,3.462,0,0,1,1.176-.183,3.125,3.125,0,0,1,1.08.156,1.421,1.421,0,0,1,.61.393,1.377,1.377,0,0,1,.273.6,4.88,4.88,0,0,1,.044.811V9.494a12.532,12.532,0,0,0,.056,1.55,1.96,1.96,0,0,0,.223.622h-.918A1.855,1.855,0,0,1,208.548,11.027Zm-.073-1.963a6.415,6.415,0,0,1-1.436.332,3.386,3.386,0,0,0-.767.176.76.76,0,0,0-.346.286.778.778,0,0,0,.143,1,1.15,1.15,0,0,0,.78.234,1.812,1.812,0,0,0,.9-.222,1.363,1.363,0,0,0,.581-.608,2.109,2.109,0,0,0,.142-.879Z"/><path d="M212.166,11.666l-1.973-5.185h.928l1.113,3.105c.12.336.232.684.332,1.045q.119-.409.328-.986l1.152-3.164h.9l-1.963,5.185Z"/><path d="M219.275,10l.909.113a2.22,2.22,0,0,1-.8,1.235,2.394,2.394,0,0,1-1.485.44,2.369,2.369,0,0,1-1.8-.7,2.73,2.73,0,0,1-.667-1.965,2.869,2.869,0,0,1,.673-2.032,2.286,2.286,0,0,1,1.748-.722,2.218,2.218,0,0,1,1.7.708,2.815,2.815,0,0,1,.659,1.992c0,.053,0,.131,0,.234h-3.867a1.987,1.987,0,0,0,.483,1.309,1.44,1.44,0,0,0,1.084.454,1.338,1.338,0,0,0,.825-.254A1.677,1.677,0,0,0,219.275,10Zm-2.885-1.42h2.9a1.756,1.756,0,0,0-.332-.982,1.348,1.348,0,0,0-1.089-.508,1.4,1.4,0,0,0-1.018.406A1.6,1.6,0,0,0,216.39,8.576Z"/><path d="M220.936,10.119l.869-.137a1.217,1.217,0,0,0,.407.8,1.426,1.426,0,0,0,.935.278,1.377,1.377,0,0,0,.9-.246.741.741,0,0,0,.293-.579.533.533,0,0,0-.259-.469,3.838,3.838,0,0,0-.9-.3,8.244,8.244,0,0,1-1.341-.422,1.275,1.275,0,0,1-.759-1.189,1.331,1.331,0,0,1,.159-.642,1.425,1.425,0,0,1,.432-.491,1.794,1.794,0,0,1,.558-.256,2.669,2.669,0,0,1,.76-.105,3.008,3.008,0,0,1,1.072.175,1.466,1.466,0,0,1,.681.477,1.862,1.862,0,0,1,.3.8l-.859.117a.949.949,0,0,0-.339-.625,1.251,1.251,0,0,0-.794-.225,1.442,1.442,0,0,0-.865.2.583.583,0,0,0-.258.468.487.487,0,0,0,.107.308.76.76,0,0,0,.337.234q.132.049.776.225a10.775,10.775,0,0,1,1.3.408,1.324,1.324,0,0,1,.578.461,1.289,1.289,0,0,1,.21.752,1.469,1.469,0,0,1-.257.828,1.653,1.653,0,0,1-.739.6,2.7,2.7,0,0,1-1.094.212,2.436,2.436,0,0,1-1.54-.42A1.951,1.951,0,0,1,220.936,10.119Z"/><path d="M229.275,11.666v-4.5H228.5V6.481h.776V5.929a2.441,2.441,0,0,1,.093-.776,1.132,1.132,0,0,1,.446-.554,1.612,1.612,0,0,1,.9-.213,4.275,4.275,0,0,1,.82.088l-.132.767a2.9,2.9,0,0,0-.517-.049.772.772,0,0,0-.567.171.929.929,0,0,0-.166.639v.479h1.011v.683h-1.011v4.5Z"/><path d="M231.834,11.666V6.481h.791v.786a2.154,2.154,0,0,1,.56-.728.969.969,0,0,1,.563-.175,1.709,1.709,0,0,1,.9.283l-.3.815a1.258,1.258,0,0,0-.645-.19.827.827,0,0,0-.517.174.935.935,0,0,0-.328.48,3.447,3.447,0,0,0-.146,1.026v2.714Z"/><path d="M234.847,9.074a2.674,2.674,0,0,1,.8-2.134,2.416,2.416,0,0,1,1.631-.576,2.323,2.323,0,0,1,1.748.7A2.662,2.662,0,0,1,239.705,9a3.452,3.452,0,0,1-.3,1.576,2.132,2.132,0,0,1-.875.89,2.539,2.539,0,0,1-1.252.318,2.327,2.327,0,0,1-1.759-.7A2.78,2.78,0,0,1,234.847,9.074Zm.9,0a2.209,2.209,0,0,0,.435,1.492,1.447,1.447,0,0,0,2.182,0,2.26,2.26,0,0,0,.435-1.519,2.139,2.139,0,0,0-.438-1.457,1.447,1.447,0,0,0-2.179,0A2.2,2.2,0,0,0,235.75,9.074Z"/><path d="M240.735,11.666V6.481h.786v.727a1.845,1.845,0,0,1,.65-.612,1.821,1.821,0,0,1,.923-.232,1.711,1.711,0,0,1,.945.239,1.289,1.289,0,0,1,.52.669,1.86,1.86,0,0,1,1.6-.908,1.578,1.578,0,0,1,1.187.427,1.83,1.83,0,0,1,.415,1.316v3.559h-.874V8.4a2.431,2.431,0,0,0-.085-.759.743.743,0,0,0-.311-.374.968.968,0,0,0-.527-.142,1.223,1.223,0,0,0-.908.365,1.6,1.6,0,0,0-.362,1.164v3.012h-.879V8.3a1.488,1.488,0,0,0-.214-.879.817.817,0,0,0-.7-.293,1.275,1.275,0,0,0-.685.2,1.112,1.112,0,0,0-.457.571,3.2,3.2,0,0,0-.142,1.084v2.69Z"/><path d="M251.492,10.119l.869-.137a1.218,1.218,0,0,0,.408.8,1.425,1.425,0,0,0,.935.278,1.38,1.38,0,0,0,.9-.246.741.741,0,0,0,.293-.579.533.533,0,0,0-.259-.469,3.834,3.834,0,0,0-.9-.3,8.278,8.278,0,0,1-1.341-.422,1.277,1.277,0,0,1-.758-1.189,1.32,1.32,0,0,1,.159-.642,1.422,1.422,0,0,1,.431-.491,1.8,1.8,0,0,1,.559-.256,2.659,2.659,0,0,1,.76-.105,3.008,3.008,0,0,1,1.072.175,1.471,1.471,0,0,1,.681.477,1.874,1.874,0,0,1,.3.8l-.86.117a.94.94,0,0,0-.339-.625,1.247,1.247,0,0,0-.794-.225,1.441,1.441,0,0,0-.864.2.581.581,0,0,0-.259.468.482.482,0,0,0,.108.308.754.754,0,0,0,.337.234c.088.033.346.108.776.225a10.775,10.775,0,0,1,1.3.408,1.329,1.329,0,0,1,.578.461,1.289,1.289,0,0,1,.21.752,1.469,1.469,0,0,1-.257.828,1.653,1.653,0,0,1-.739.6,2.706,2.706,0,0,1-1.094.212,2.432,2.432,0,0,1-1.54-.42A1.952,1.952,0,0,1,251.492,10.119Z"/><path d="M256.844,11.666V6.481h.786v.727a1.842,1.842,0,0,1,.649-.612,1.824,1.824,0,0,1,.923-.232,1.711,1.711,0,0,1,.945.239,1.284,1.284,0,0,1,.52.669,1.86,1.86,0,0,1,1.6-.908,1.576,1.576,0,0,1,1.186.427,1.83,1.83,0,0,1,.415,1.316v3.559H263V8.4a2.4,2.4,0,0,0-.085-.759.741.741,0,0,0-.31-.374.974.974,0,0,0-.528-.142,1.223,1.223,0,0,0-.908.365,1.6,1.6,0,0,0-.361,1.164v3.012h-.879V8.3a1.48,1.48,0,0,0-.215-.879.816.816,0,0,0-.7-.293,1.278,1.278,0,0,0-.686.2,1.112,1.112,0,0,0-.457.571,3.23,3.23,0,0,0-.141,1.084v2.69Z"/><path d="M268.558,11.027a3.276,3.276,0,0,1-.94.586,2.722,2.722,0,0,1-.97.171,1.887,1.887,0,0,1-1.313-.417,1.38,1.38,0,0,1-.459-1.068,1.411,1.411,0,0,1,.174-.7A1.431,1.431,0,0,1,265.5,9.1a2.126,2.126,0,0,1,.633-.288,6.507,6.507,0,0,1,.781-.132,7.906,7.906,0,0,0,1.567-.3c0-.12,0-.2,0-.229a.972.972,0,0,0-.249-.757,1.472,1.472,0,0,0-1-.3,1.548,1.548,0,0,0-.916.218,1.33,1.33,0,0,0-.436.769l-.86-.118a2.121,2.121,0,0,1,.386-.89,1.687,1.687,0,0,1,.776-.523,3.468,3.468,0,0,1,1.177-.183,3.115,3.115,0,0,1,1.079.156,1.419,1.419,0,0,1,.611.393,1.388,1.388,0,0,1,.273.6,5,5,0,0,1,.044.811V9.494a12.532,12.532,0,0,0,.056,1.55,1.982,1.982,0,0,0,.222.622h-.918A1.877,1.877,0,0,1,268.558,11.027Zm-.074-1.963a6.39,6.39,0,0,1-1.435.332,3.386,3.386,0,0,0-.767.176.76.76,0,0,0-.346.286.774.774,0,0,0,.143,1,1.149,1.149,0,0,0,.779.234,1.816,1.816,0,0,0,.9-.222,1.369,1.369,0,0,0,.581-.608,2.111,2.111,0,0,0,.141-.879Z"/><path d="M270.716,11.666V4.508h.879v7.158Z"/><path d="M272.938,11.666V4.508h.878v7.158Z"/><path d="M277.957,13.654V6.481h.8v.674a1.968,1.968,0,0,1,.639-.593,1.758,1.758,0,0,1,.865-.2,2.058,2.058,0,0,1,1.172.341,2.111,2.111,0,0,1,.766.965,3.513,3.513,0,0,1,.259,1.365,3.456,3.456,0,0,1-.286,1.433,2.17,2.17,0,0,1-1.975,1.316,1.656,1.656,0,0,1-.789-.186,1.769,1.769,0,0,1-.573-.469v2.525Zm.8-4.551a2.252,2.252,0,0,0,.405,1.479,1.243,1.243,0,0,0,.982.479,1.276,1.276,0,0,0,1-.495,2.362,2.362,0,0,0,.417-1.536,2.294,2.294,0,0,0-.408-1.485,1.229,1.229,0,0,0-.974-.493,1.266,1.266,0,0,0-.994.526A2.345,2.345,0,0,0,278.753,9.1Z"/><path d="M286.9,11.027a3.259,3.259,0,0,1-.939.586,2.722,2.722,0,0,1-.97.171,1.885,1.885,0,0,1-1.313-.417,1.38,1.38,0,0,1-.459-1.068,1.4,1.4,0,0,1,.174-.7,1.431,1.431,0,0,1,.453-.506,2.132,2.132,0,0,1,.632-.288,6.532,6.532,0,0,1,.782-.132,7.906,7.906,0,0,0,1.567-.3c0-.12,0-.2,0-.229a.972.972,0,0,0-.249-.757,1.476,1.476,0,0,0-1-.3,1.546,1.546,0,0,0-.916.218,1.336,1.336,0,0,0-.437.769l-.859-.118a2.121,2.121,0,0,1,.386-.89,1.681,1.681,0,0,1,.776-.523,3.468,3.468,0,0,1,1.177-.183,3.119,3.119,0,0,1,1.079.156,1.415,1.415,0,0,1,.61.393,1.389,1.389,0,0,1,.274.6,5,5,0,0,1,.044.811V9.494a12.614,12.614,0,0,0,.055,1.55,2.01,2.01,0,0,0,.223.622h-.918A1.877,1.877,0,0,1,286.9,11.027Zm-.073-1.963a6.4,6.4,0,0,1-1.435.332,3.358,3.358,0,0,0-.767.176.763.763,0,0,0-.347.286.777.777,0,0,0,.144,1,1.147,1.147,0,0,0,.779.234,1.809,1.809,0,0,0,.9-.222,1.371,1.371,0,0,0,.582-.608,2.128,2.128,0,0,0,.141-.879Z"/><path d="M291,10.88l.127.777a3.264,3.264,0,0,1-.664.078,1.491,1.491,0,0,1-.742-.152.839.839,0,0,1-.371-.4,3.138,3.138,0,0,1-.108-1.038V7.164H288.6V6.481h.644V5.2l.874-.528V6.481H291v.683h-.884V10.2a1.558,1.558,0,0,0,.046.483.365.365,0,0,0,.152.171.578.578,0,0,0,.3.063A2.661,2.661,0,0,0,291,10.88Z"/><path d="M293.777,10.88l.127.777a3.256,3.256,0,0,1-.664.078,1.491,1.491,0,0,1-.742-.152.839.839,0,0,1-.371-.4,3.175,3.175,0,0,1-.107-1.038V7.164h-.645V6.481h.645V5.2l.874-.528V6.481h.883v.683h-.883V10.2a1.569,1.569,0,0,0,.045.483.367.367,0,0,0,.153.171.575.575,0,0,0,.3.063A2.661,2.661,0,0,0,293.777,10.88Z"/><path d="M298.187,10l.908.113a2.215,2.215,0,0,1-.8,1.235,2.394,2.394,0,0,1-1.485.44,2.369,2.369,0,0,1-1.8-.7,2.73,2.73,0,0,1-.667-1.965,2.865,2.865,0,0,1,.674-2.032,2.283,2.283,0,0,1,1.748-.722,2.218,2.218,0,0,1,1.7.708,2.815,2.815,0,0,1,.659,1.992c0,.053,0,.131,0,.234h-3.867a1.987,1.987,0,0,0,.483,1.309,1.44,1.44,0,0,0,1.084.454,1.341,1.341,0,0,0,.826-.254A1.691,1.691,0,0,0,298.187,10ZM295.3,8.576h2.9a1.756,1.756,0,0,0-.332-.982,1.348,1.348,0,0,0-1.089-.508,1.4,1.4,0,0,0-1.018.406A1.6,1.6,0,0,0,295.3,8.576Z"/><path d="M300.188,11.666V6.481h.791v.786a2.166,2.166,0,0,1,.56-.728.973.973,0,0,1,.564-.175,1.714,1.714,0,0,1,.9.283l-.3.815a1.257,1.257,0,0,0-.644-.19.828.828,0,0,0-.518.174.933.933,0,0,0-.327.48,3.414,3.414,0,0,0-.147,1.026v2.714Z"/><path d="M303.528,11.666V6.481h.791v.737a1.866,1.866,0,0,1,1.651-.854,2.159,2.159,0,0,1,.862.169,1.352,1.352,0,0,1,.588.441,1.689,1.689,0,0,1,.273.649,5,5,0,0,1,.049.855v3.188h-.879V8.512a2.381,2.381,0,0,0-.1-.8.843.843,0,0,0-.365-.424,1.14,1.14,0,0,0-.612-.16,1.432,1.432,0,0,0-.97.357,1.761,1.761,0,0,0-.407,1.352v2.832Z"/><path d="M308.738,10.119l.869-.137a1.218,1.218,0,0,0,.408.8,1.425,1.425,0,0,0,.935.278,1.378,1.378,0,0,0,.9-.246.741.741,0,0,0,.293-.579.533.533,0,0,0-.259-.469,3.834,3.834,0,0,0-.9-.3,8.257,8.257,0,0,1-1.34-.422,1.275,1.275,0,0,1-.759-1.189,1.331,1.331,0,0,1,.159-.642,1.415,1.415,0,0,1,.432-.491,1.783,1.783,0,0,1,.558-.256,2.664,2.664,0,0,1,.76-.105,3.008,3.008,0,0,1,1.072.175,1.471,1.471,0,0,1,.681.477,1.874,1.874,0,0,1,.3.8l-.86.117a.94.94,0,0,0-.339-.625,1.247,1.247,0,0,0-.794-.225,1.441,1.441,0,0,0-.864.2.581.581,0,0,0-.259.468.488.488,0,0,0,.108.308.754.754,0,0,0,.337.234c.088.033.346.108.776.225a10.775,10.775,0,0,1,1.3.408,1.329,1.329,0,0,1,.578.461,1.289,1.289,0,0,1,.21.752,1.469,1.469,0,0,1-.257.828,1.653,1.653,0,0,1-.739.6,2.7,2.7,0,0,1-1.094.212,2.434,2.434,0,0,1-1.54-.42A1.956,1.956,0,0,1,308.738,10.119Z"/><path class="cls-4" d="M12.751,192.516v-7.158h5.308v1.211H14.2v1.587H17.79v1.206H14.2v1.948h4v1.206Z"/><path class="cls-4" d="M18.811,187.33h.761v-.39a2.615,2.615,0,0,1,.139-.977,1.105,1.105,0,0,1,.513-.525,1.969,1.969,0,0,1,.945-.2,3.788,3.788,0,0,1,1.147.176l-.185.957a2.664,2.664,0,0,0-.63-.079.559.559,0,0,0-.427.14.8.8,0,0,0-.13.534v.366H21.97v1.08H20.944v4.106H19.572V188.41h-.761Z"/><path class="cls-4" d="M22.141,187.33H22.9v-.39a2.591,2.591,0,0,1,.14-.977,1.1,1.1,0,0,1,.512-.525,1.969,1.969,0,0,1,.945-.2,3.788,3.788,0,0,1,1.147.176l-.185.957a2.664,2.664,0,0,0-.63-.079.559.559,0,0,0-.427.14.8.8,0,0,0-.13.534v.366H25.3v1.08H24.274v4.106H22.9V188.41h-.761Z"/><path class="cls-4" d="M26.071,186.627v-1.269h1.372v1.269Zm0,5.889V187.33h1.372v5.186Z"/><path class="cls-4" d="M33.371,188.864l-1.352.244a.983.983,0,0,0-.311-.611.939.939,0,0,0-.627-.205,1.029,1.029,0,0,0-.818.354,1.817,1.817,0,0,0-.305,1.184,2.1,2.1,0,0,0,.31,1.3,1.018,1.018,0,0,0,.833.381.924.924,0,0,0,.639-.222,1.341,1.341,0,0,0,.352-.764l1.347.229a2.393,2.393,0,0,1-.8,1.4,2.5,2.5,0,0,1-1.6.473,2.373,2.373,0,0,1-1.814-.718,3.27,3.27,0,0,1,0-3.986,2.409,2.409,0,0,1,1.836-.716,2.5,2.5,0,0,1,1.506.408A2.264,2.264,0,0,1,33.371,188.864Z"/><path class="cls-4" d="M34.411,186.627v-1.269h1.372v1.269Zm0,5.889V187.33h1.372v5.186Z"/><path class="cls-4" d="M40.192,190.866l1.368.229a2.243,2.243,0,0,1-.833,1.145,2.444,2.444,0,0,1-1.423.393,2.318,2.318,0,0,1-2-.884,2.966,2.966,0,0,1-.513-1.787,2.865,2.865,0,0,1,.674-2.019,2.217,2.217,0,0,1,1.7-.73,2.3,2.3,0,0,1,1.826.764,3.386,3.386,0,0,1,.64,2.342H38.2a1.391,1.391,0,0,0,.332.949,1.037,1.037,0,0,0,.791.34.84.84,0,0,0,.542-.176A1.076,1.076,0,0,0,40.192,190.866Zm.079-1.387a1.325,1.325,0,0,0-.308-.906.99.99,0,0,0-1.455.017,1.263,1.263,0,0,0-.288.889Z"/><path class="cls-4" d="M47.468,192.516H46.1V189.87a4.118,4.118,0,0,0-.088-1.087.764.764,0,0,0-.286-.383.81.81,0,0,0-.476-.137,1.1,1.1,0,0,0-.64.195.986.986,0,0,0-.388.518,4.472,4.472,0,0,0-.105,1.191v2.349H42.741V187.33h1.275v.762a2.124,2.124,0,0,1,2.539-.715,1.4,1.4,0,0,1,.569.417,1.523,1.523,0,0,1,.268.576,4.317,4.317,0,0,1,.076.923Z"/><path class="cls-4" d="M51.237,187.33v1.094H50.3v2.09a5.177,5.177,0,0,0,.027.74.3.3,0,0,0,.122.173.382.382,0,0,0,.232.068,1.756,1.756,0,0,0,.551-.131l.118,1.064a2.725,2.725,0,0,1-1.084.205,1.716,1.716,0,0,1-.669-.124.969.969,0,0,1-.437-.323,1.254,1.254,0,0,1-.193-.534,6.7,6.7,0,0,1-.044-.967v-2.261h-.63V187.33h.63V186.3l1.377-.8v1.831Z"/><path class="cls-4" d="M59.489,188.864l-1.352.244a.987.987,0,0,0-.31-.611.94.94,0,0,0-.628-.205,1.029,1.029,0,0,0-.818.354,1.817,1.817,0,0,0-.3,1.184,2.1,2.1,0,0,0,.31,1.3,1.02,1.02,0,0,0,.833.381.924.924,0,0,0,.639-.222,1.334,1.334,0,0,0,.352-.764l1.348.229a2.4,2.4,0,0,1-.806,1.4,2.5,2.5,0,0,1-1.6.473,2.373,2.373,0,0,1-1.814-.718,3.27,3.27,0,0,1,0-3.986,2.409,2.409,0,0,1,1.836-.716,2.5,2.5,0,0,1,1.506.408A2.253,2.253,0,0,1,59.489,188.864Z"/><path class="cls-4" d="M61.555,188.912l-1.245-.224a1.932,1.932,0,0,1,.722-1.113,2.645,2.645,0,0,1,1.524-.362,3.28,3.28,0,0,1,1.367.218,1.364,1.364,0,0,1,.632.551,2.833,2.833,0,0,1,.183,1.228l-.014,1.6a5.552,5.552,0,0,0,.066,1.008,2.92,2.92,0,0,0,.246.7H63.679q-.054-.136-.132-.405c-.023-.082-.039-.136-.049-.161a2.447,2.447,0,0,1-.752.512,2.153,2.153,0,0,1-.854.171,1.772,1.772,0,0,1-1.263-.434,1.447,1.447,0,0,1-.461-1.1,1.477,1.477,0,0,1,.21-.784,1.375,1.375,0,0,1,.588-.527,4.615,4.615,0,0,1,1.092-.32,7.47,7.47,0,0,0,1.333-.337V189a.706.706,0,0,0-.2-.563,1.164,1.164,0,0,0-.737-.169.98.98,0,0,0-.571.144A1,1,0,0,0,61.555,188.912Zm1.836,1.114q-.264.087-.835.21a2.505,2.505,0,0,0-.747.239.57.57,0,0,0-.269.483.674.674,0,0,0,.215.5.746.746,0,0,0,.547.21,1.188,1.188,0,0,0,.708-.244.856.856,0,0,0,.327-.454,2.694,2.694,0,0,0,.054-.669Z"/><path class="cls-4" d="M66.091,192.516v-7.158h1.372v7.158Z"/><path class="cls-4" d="M73.391,188.864l-1.353.244a.982.982,0,0,0-.31-.611.939.939,0,0,0-.627-.205,1.028,1.028,0,0,0-.818.354,1.811,1.811,0,0,0-.305,1.184,2.1,2.1,0,0,0,.31,1.3,1.016,1.016,0,0,0,.832.381.927.927,0,0,0,.64-.222,1.334,1.334,0,0,0,.351-.764l1.348.229a2.394,2.394,0,0,1-.806,1.4,2.5,2.5,0,0,1-1.6.473,2.37,2.37,0,0,1-1.814-.718,3.268,3.268,0,0,1,0-3.986,2.412,2.412,0,0,1,1.836-.716,2.5,2.5,0,0,1,1.506.408A2.26,2.26,0,0,1,73.391,188.864Z"/><path class="cls-4" d="M77.844,192.516v-.776a2.008,2.008,0,0,1-.745.654,2.078,2.078,0,0,1-.974.239,1.9,1.9,0,0,1-.937-.229,1.351,1.351,0,0,1-.6-.645,2.869,2.869,0,0,1-.186-1.147V187.33h1.372v2.383a6.648,6.648,0,0,0,.076,1.341.731.731,0,0,0,.276.39.848.848,0,0,0,.508.144,1.079,1.079,0,0,0,.63-.193.986.986,0,0,0,.381-.478,5.588,5.588,0,0,0,.1-1.4V187.33h1.372v5.186Z"/><path class="cls-4" d="M80.539,192.516v-7.158h1.372v7.158Z"/><path class="cls-4" d="M84.343,188.912l-1.245-.224a1.937,1.937,0,0,1,.722-1.113,2.645,2.645,0,0,1,1.524-.362,3.276,3.276,0,0,1,1.367.218,1.364,1.364,0,0,1,.632.551,2.833,2.833,0,0,1,.183,1.228l-.014,1.6a5.552,5.552,0,0,0,.066,1.008,2.964,2.964,0,0,0,.246.7H86.467q-.054-.136-.132-.405c-.023-.082-.039-.136-.049-.161a2.447,2.447,0,0,1-.752.512,2.153,2.153,0,0,1-.854.171,1.772,1.772,0,0,1-1.263-.434,1.447,1.447,0,0,1-.461-1.1,1.477,1.477,0,0,1,.21-.784,1.375,1.375,0,0,1,.588-.527,4.615,4.615,0,0,1,1.092-.32,7.47,7.47,0,0,0,1.333-.337V189a.706.706,0,0,0-.2-.563,1.164,1.164,0,0,0-.737-.169.982.982,0,0,0-.571.144A1,1,0,0,0,84.343,188.912Zm1.836,1.114q-.264.087-.835.21a2.505,2.505,0,0,0-.747.239.57.57,0,0,0-.269.483.674.674,0,0,0,.215.5.746.746,0,0,0,.547.21,1.188,1.188,0,0,0,.708-.244.856.856,0,0,0,.327-.454,2.694,2.694,0,0,0,.054-.669Z"/><path class="cls-4" d="M91.257,187.33v1.094h-.938v2.09a5.177,5.177,0,0,0,.027.74.3.3,0,0,0,.122.173.386.386,0,0,0,.232.068,1.767,1.767,0,0,0,.552-.131l.117,1.064a2.721,2.721,0,0,1-1.084.205,1.723,1.723,0,0,1-.669-.124.975.975,0,0,1-.437-.323,1.267,1.267,0,0,1-.193-.534,6.7,6.7,0,0,1-.044-.967v-2.261h-.629V187.33h.629V186.3l1.377-.8v1.831Z"/><path class="cls-4" d="M92.209,186.627v-1.269h1.372v1.269Zm0,5.889V187.33h1.372v5.186Z"/><path class="cls-4" d="M94.67,189.85a2.8,2.8,0,0,1,.337-1.323,2.312,2.312,0,0,1,.954-.977,2.842,2.842,0,0,1,1.38-.337,2.593,2.593,0,0,1,1.929.764,2.873,2.873,0,0,1-.008,3.882,2.565,2.565,0,0,1-1.911.774,3.006,3.006,0,0,1-1.36-.322,2.211,2.211,0,0,1-.984-.945A3.142,3.142,0,0,1,94.67,189.85Zm1.406.073a1.721,1.721,0,0,0,.366,1.182,1.2,1.2,0,0,0,1.805,0,1.747,1.747,0,0,0,.363-1.192,1.71,1.71,0,0,0-.363-1.171,1.2,1.2,0,0,0-1.805,0A1.717,1.717,0,0,0,96.076,189.923Z"/><path class="cls-4" d="M105.813,192.516H104.44V189.87a4.134,4.134,0,0,0-.087-1.087.764.764,0,0,0-.286-.383.812.812,0,0,0-.476-.137,1.1,1.1,0,0,0-.64.195.986.986,0,0,0-.388.518,4.472,4.472,0,0,0-.105,1.191v2.349h-1.372V187.33h1.274v.762a2.124,2.124,0,0,1,2.539-.715,1.386,1.386,0,0,1,.569.417,1.51,1.51,0,0,1,.269.576,4.317,4.317,0,0,1,.076.923Z"/><path class="cls-4" d="M109.665,189.85a2.8,2.8,0,0,1,.337-1.323,2.315,2.315,0,0,1,.955-.977,2.835,2.835,0,0,1,1.379-.337,2.59,2.59,0,0,1,1.929.764,2.87,2.87,0,0,1-.008,3.882,2.566,2.566,0,0,1-1.911.774,3.009,3.009,0,0,1-1.36-.322,2.216,2.216,0,0,1-.984-.945A3.142,3.142,0,0,1,109.665,189.85Zm1.406.073a1.716,1.716,0,0,0,.367,1.182,1.2,1.2,0,0,0,1.8,0,1.747,1.747,0,0,0,.363-1.192,1.71,1.71,0,0,0-.363-1.171,1.2,1.2,0,0,0-1.8,0A1.712,1.712,0,0,0,111.071,189.923Z"/><path class="cls-4" d="M115.49,187.33h.762v-.39a2.615,2.615,0,0,1,.139-.977,1.1,1.1,0,0,1,.513-.525,1.966,1.966,0,0,1,.945-.2,3.792,3.792,0,0,1,1.147.176l-.185.957a2.664,2.664,0,0,0-.63-.079.559.559,0,0,0-.427.14.8.8,0,0,0-.13.534v.366h1.025v1.08h-1.025v4.106h-1.372V188.41h-.762Z"/><path class="cls-4" d="M121.716,191.037l1.377-.21a1.007,1.007,0,0,0,.356.607,1.2,1.2,0,0,0,.752.208,1.359,1.359,0,0,0,.8-.195.44.44,0,0,0,.181-.367.359.359,0,0,0-.1-.258,1.091,1.091,0,0,0-.459-.181,7.4,7.4,0,0,1-2.105-.669,1.336,1.336,0,0,1-.615-1.167,1.441,1.441,0,0,1,.532-1.133,2.488,2.488,0,0,1,1.651-.459,2.879,2.879,0,0,1,1.582.347,1.772,1.772,0,0,1,.713,1.025l-1.294.24a.8.8,0,0,0-.316-.464,1.145,1.145,0,0,0-.661-.161,1.489,1.489,0,0,0-.776.151.324.324,0,0,0-.156.278.3.3,0,0,0,.136.249,5.108,5.108,0,0,0,1.282.386,3.831,3.831,0,0,1,1.531.61,1.273,1.273,0,0,1,.43,1.021,1.565,1.565,0,0,1-.6,1.225,2.638,2.638,0,0,1-1.763.513,2.9,2.9,0,0,1-1.677-.429A1.982,1.982,0,0,1,121.716,191.037Z"/><path class="cls-4" d="M132.282,188.864l-1.352.244a.983.983,0,0,0-.311-.611.937.937,0,0,0-.627-.205,1.029,1.029,0,0,0-.818.354,1.817,1.817,0,0,0-.305,1.184,2.1,2.1,0,0,0,.311,1.3,1.015,1.015,0,0,0,.832.381.924.924,0,0,0,.639-.222,1.334,1.334,0,0,0,.352-.764l1.348.229a2.394,2.394,0,0,1-.806,1.4,2.5,2.5,0,0,1-1.6.473,2.368,2.368,0,0,1-1.813-.718,3.268,3.268,0,0,1,0-3.986,2.409,2.409,0,0,1,1.836-.716,2.5,2.5,0,0,1,1.506.408A2.259,2.259,0,0,1,132.282,188.864Z"/><path class="cls-4" d="M134.348,188.912l-1.245-.224a1.927,1.927,0,0,1,.722-1.113,2.645,2.645,0,0,1,1.524-.362,3.28,3.28,0,0,1,1.367.218,1.367,1.367,0,0,1,.633.551,2.852,2.852,0,0,1,.182,1.228l-.014,1.6a5.461,5.461,0,0,0,.066,1.008,2.92,2.92,0,0,0,.246.7h-1.357q-.054-.136-.132-.405c-.023-.082-.039-.136-.049-.161a2.447,2.447,0,0,1-.752.512,2.153,2.153,0,0,1-.854.171,1.765,1.765,0,0,1-1.262-.434,1.441,1.441,0,0,1-.462-1.1,1.477,1.477,0,0,1,.21-.784,1.375,1.375,0,0,1,.588-.527,4.6,4.6,0,0,1,1.092-.32,7.446,7.446,0,0,0,1.333-.337V189a.71.71,0,0,0-.2-.563,1.164,1.164,0,0,0-.737-.169.98.98,0,0,0-.571.144A1,1,0,0,0,134.348,188.912Zm1.836,1.114c-.176.058-.455.128-.835.21a2.505,2.505,0,0,0-.747.239.573.573,0,0,0-.269.483.67.67,0,0,0,.215.5.745.745,0,0,0,.547.21,1.188,1.188,0,0,0,.708-.244.856.856,0,0,0,.327-.454,2.694,2.694,0,0,0,.054-.669Z"/><path class="cls-4" d="M141.262,187.33v1.094h-.938v2.09a4.943,4.943,0,0,0,.028.74.3.3,0,0,0,.121.173.386.386,0,0,0,.232.068,1.767,1.767,0,0,0,.552-.131l.117,1.064a2.725,2.725,0,0,1-1.084.205,1.719,1.719,0,0,1-.669-.124.98.98,0,0,1-.437-.323,1.281,1.281,0,0,1-.193-.534,6.7,6.7,0,0,1-.044-.967v-2.261h-.63V187.33h.63V186.3l1.377-.8v1.831Z"/><path class="cls-4" d="M144.592,187.33v1.094h-.938v2.09a4.943,4.943,0,0,0,.028.74.3.3,0,0,0,.121.173.386.386,0,0,0,.232.068,1.767,1.767,0,0,0,.552-.131l.117,1.064a2.725,2.725,0,0,1-1.084.205,1.719,1.719,0,0,1-.669-.124.98.98,0,0,1-.437-.323,1.281,1.281,0,0,1-.193-.534,6.7,6.7,0,0,1-.044-.967v-2.261h-.63V187.33h.63V186.3l1.377-.8v1.831Z"/><path class="cls-4" d="M148.547,190.866l1.367.229a2.241,2.241,0,0,1-.832,1.145,2.449,2.449,0,0,1-1.424.393,2.319,2.319,0,0,1-2-.884,2.966,2.966,0,0,1-.512-1.787,2.865,2.865,0,0,1,.673-2.019,2.22,2.22,0,0,1,1.7-.73,2.306,2.306,0,0,1,1.827.764,3.381,3.381,0,0,1,.639,2.342H146.55a1.387,1.387,0,0,0,.332.949,1.037,1.037,0,0,0,.791.34.842.842,0,0,0,.542-.176A1.089,1.089,0,0,0,148.547,190.866Zm.078-1.387a1.32,1.32,0,0,0-.308-.906.945.945,0,0,0-.713-.31.954.954,0,0,0-.742.327,1.268,1.268,0,0,0-.288.889Z"/><path class="cls-4" d="M152.419,192.516h-1.372V187.33h1.274v.738a2.228,2.228,0,0,1,.588-.689,1.083,1.083,0,0,1,.594-.166,1.748,1.748,0,0,1,.9.259l-.425,1.2a1.2,1.2,0,0,0-.644-.224.758.758,0,0,0-.488.158,1.078,1.078,0,0,0-.315.574,8.11,8.11,0,0,0-.115,1.738Z"/><path class="cls-4" d="M158,190.866l1.367.229a2.241,2.241,0,0,1-.832,1.145,2.449,2.449,0,0,1-1.424.393,2.319,2.319,0,0,1-2-.884,2.973,2.973,0,0,1-.512-1.787,2.861,2.861,0,0,1,.674-2.019,2.217,2.217,0,0,1,1.7-.73,2.3,2.3,0,0,1,1.826.764,3.381,3.381,0,0,1,.639,2.342H156a1.387,1.387,0,0,0,.332.949,1.038,1.038,0,0,0,.791.34.842.842,0,0,0,.542-.176A1.089,1.089,0,0,0,158,190.866Zm.078-1.387a1.325,1.325,0,0,0-.307-.906.991.991,0,0,0-1.456.017,1.268,1.268,0,0,0-.288.889Z"/><path class="cls-4" d="M165.314,192.516H164.04v-.762a2.052,2.052,0,0,1-.75.662,1.915,1.915,0,0,1-.871.217,1.976,1.976,0,0,1-1.531-.72,2.933,2.933,0,0,1-.637-2.009,2.9,2.9,0,0,1,.62-2,2.022,2.022,0,0,1,1.567-.686,1.939,1.939,0,0,1,1.5.723v-2.578h1.372Zm-3.662-2.7a2.373,2.373,0,0,0,.23,1.2,1.037,1.037,0,0,0,.928.537,1.008,1.008,0,0,0,.805-.4,1.854,1.854,0,0,0,.332-1.2,2.035,2.035,0,0,0-.322-1.287,1.02,1.02,0,0,0-.825-.393,1.035,1.035,0,0,0-.819.388A1.766,1.766,0,0,0,161.652,189.811Z"/><path class="cls-4" d="M170.412,192.516l-1.641-5.186H170.1l.972,3.4.894-3.4h1.323l.864,3.4.991-3.4H176.5l-1.665,5.186h-1.318l-.894-3.335-.879,3.335Z"/><path class="cls-4" d="M178.249,188.912,177,188.688a1.933,1.933,0,0,1,.723-1.113,2.64,2.64,0,0,1,1.523-.362,3.28,3.28,0,0,1,1.367.218,1.367,1.367,0,0,1,.633.551,2.848,2.848,0,0,1,.183,1.228l-.015,1.6a5.461,5.461,0,0,0,.066,1.008,2.92,2.92,0,0,0,.246.7h-1.357q-.054-.136-.132-.405c-.022-.082-.039-.136-.049-.161a2.447,2.447,0,0,1-.752.512,2.146,2.146,0,0,1-.854.171,1.768,1.768,0,0,1-1.262-.434,1.444,1.444,0,0,1-.462-1.1,1.486,1.486,0,0,1,.21-.784,1.375,1.375,0,0,1,.588-.527,4.6,4.6,0,0,1,1.092-.32,7.422,7.422,0,0,0,1.333-.337V189a.709.709,0,0,0-.2-.563,1.166,1.166,0,0,0-.738-.169.982.982,0,0,0-.571.144A1,1,0,0,0,178.249,188.912Zm1.836,1.114q-.264.087-.835.21a2.505,2.505,0,0,0-.747.239.573.573,0,0,0-.269.483.674.674,0,0,0,.215.5.746.746,0,0,0,.547.21,1.188,1.188,0,0,0,.708-.244.856.856,0,0,0,.327-.454,2.694,2.694,0,0,0,.054-.669Z"/><path class="cls-4" d="M184.211,192.516l-2.09-5.186h1.441l.976,2.647.283.884c.075-.225.122-.373.142-.445.046-.146.095-.293.146-.439l.987-2.647h1.411l-2.061,5.186Z"/><path class="cls-4" d="M191.35,190.866l1.367.229a2.241,2.241,0,0,1-.832,1.145,2.451,2.451,0,0,1-1.424.393,2.319,2.319,0,0,1-2-.884,2.966,2.966,0,0,1-.513-1.787,2.865,2.865,0,0,1,.674-2.019,2.219,2.219,0,0,1,1.7-.73,2.3,2.3,0,0,1,1.826.764,3.376,3.376,0,0,1,.64,2.342h-3.437a1.382,1.382,0,0,0,.332.949,1.035,1.035,0,0,0,.791.34.844.844,0,0,0,.542-.176A1.1,1.1,0,0,0,191.35,190.866Zm.078-1.387a1.325,1.325,0,0,0-.308-.906.99.99,0,0,0-1.455.017,1.268,1.268,0,0,0-.288.889Z"/><path class="cls-4" d="M193.425,191.037l1.377-.21a1,1,0,0,0,.356.607,1.2,1.2,0,0,0,.752.208,1.359,1.359,0,0,0,.8-.195.44.44,0,0,0,.181-.367.359.359,0,0,0-.1-.258,1.091,1.091,0,0,0-.459-.181,7.4,7.4,0,0,1-2.105-.669,1.336,1.336,0,0,1-.615-1.167,1.441,1.441,0,0,1,.532-1.133,2.488,2.488,0,0,1,1.651-.459,2.879,2.879,0,0,1,1.582.347,1.772,1.772,0,0,1,.713,1.025l-1.294.24a.8.8,0,0,0-.316-.464,1.145,1.145,0,0,0-.661-.161,1.489,1.489,0,0,0-.776.151.324.324,0,0,0-.156.278.3.3,0,0,0,.136.249,5.108,5.108,0,0,0,1.282.386,3.831,3.831,0,0,1,1.531.61,1.273,1.273,0,0,1,.43,1.021,1.565,1.565,0,0,1-.6,1.225,2.638,2.638,0,0,1-1.763.513,2.9,2.9,0,0,1-1.677-.429A1.982,1.982,0,0,1,193.425,191.037Z"/><path class="cls-4" d="M201.647,187.33h.762v-.39a2.615,2.615,0,0,1,.139-.977,1.108,1.108,0,0,1,.514-.525,1.962,1.962,0,0,1,.944-.2,3.792,3.792,0,0,1,1.147.176l-.185.957a2.664,2.664,0,0,0-.63-.079.561.561,0,0,0-.427.14.8.8,0,0,0-.13.534v.366h1.026v1.08h-1.026v4.106h-1.372V188.41h-.762Z"/><path class="cls-4" d="M206.892,192.516H205.52V187.33h1.274v.738a2.228,2.228,0,0,1,.588-.689,1.083,1.083,0,0,1,.594-.166,1.748,1.748,0,0,1,.9.259l-.425,1.2a1.2,1.2,0,0,0-.644-.224.761.761,0,0,0-.489.158,1.085,1.085,0,0,0-.314.574,8.11,8.11,0,0,0-.115,1.738Z"/><path class="cls-4" d="M209.152,189.85a2.809,2.809,0,0,1,.337-1.323,2.318,2.318,0,0,1,.954-.977,2.842,2.842,0,0,1,1.38-.337,2.592,2.592,0,0,1,1.929.764,2.87,2.87,0,0,1-.008,3.882,2.563,2.563,0,0,1-1.911.774,3.006,3.006,0,0,1-1.36-.322,2.216,2.216,0,0,1-.984-.945A3.154,3.154,0,0,1,209.152,189.85Zm1.407.073a1.721,1.721,0,0,0,.366,1.182,1.2,1.2,0,0,0,1.8,0,1.742,1.742,0,0,0,.364-1.192,1.706,1.706,0,0,0-.364-1.171,1.2,1.2,0,0,0-1.8,0A1.717,1.717,0,0,0,210.559,189.923Z"/><path class="cls-4" d="M215.476,187.33h1.264v.708a2.034,2.034,0,0,1,1.616-.825,1.751,1.751,0,0,1,.865.205,1.58,1.58,0,0,1,.6.62,2.409,2.409,0,0,1,.738-.62,1.814,1.814,0,0,1,.844-.205,1.879,1.879,0,0,1,.967.232,1.422,1.422,0,0,1,.591.681,2.946,2.946,0,0,1,.142,1.075v3.315H221.73v-2.964a2.2,2.2,0,0,0-.141-1,.65.65,0,0,0-.586-.293.936.936,0,0,0-.542.176.977.977,0,0,0-.366.515,3.694,3.694,0,0,0-.113,1.072v2.49H218.61v-2.842a3.932,3.932,0,0,0-.073-.976.623.623,0,0,0-.227-.328.721.721,0,0,0-.417-.107,1,1,0,0,0-.572.171.931.931,0,0,0-.363.493,3.636,3.636,0,0,0-.11,1.069v2.52h-1.372Z"/><path class="cls-4" d="M228.674,192.516l-2.09-5.186h1.44l.977,2.647.283.884c.075-.225.122-.373.142-.445.046-.146.095-.293.146-.439l.987-2.647h1.411l-2.061,5.186Z"/><path class="cls-4" d="M233.835,188.912l-1.245-.224a1.928,1.928,0,0,1,.723-1.113,2.64,2.64,0,0,1,1.523-.362,3.28,3.28,0,0,1,1.367.218,1.367,1.367,0,0,1,.633.551,2.848,2.848,0,0,1,.183,1.228l-.015,1.6a5.461,5.461,0,0,0,.066,1.008,2.92,2.92,0,0,0,.246.7h-1.357q-.054-.136-.132-.405c-.022-.082-.039-.136-.049-.161a2.447,2.447,0,0,1-.752.512,2.146,2.146,0,0,1-.854.171,1.768,1.768,0,0,1-1.262-.434,1.444,1.444,0,0,1-.462-1.1,1.486,1.486,0,0,1,.21-.784,1.375,1.375,0,0,1,.588-.527,4.6,4.6,0,0,1,1.092-.32,7.446,7.446,0,0,0,1.333-.337V189a.713.713,0,0,0-.195-.563,1.166,1.166,0,0,0-.738-.169.982.982,0,0,0-.571.144A1,1,0,0,0,233.835,188.912Zm1.836,1.114q-.264.087-.835.21a2.505,2.505,0,0,0-.747.239.573.573,0,0,0-.269.483.674.674,0,0,0,.215.5.746.746,0,0,0,.547.21,1.188,1.188,0,0,0,.708-.244.856.856,0,0,0,.327-.454,2.694,2.694,0,0,0,.054-.669Z"/><path class="cls-4" d="M239.685,192.516h-1.372V187.33h1.274v.738a2.228,2.228,0,0,1,.588-.689,1.083,1.083,0,0,1,.594-.166,1.748,1.748,0,0,1,.9.259l-.425,1.2a1.2,1.2,0,0,0-.644-.224.761.761,0,0,0-.489.158,1.078,1.078,0,0,0-.314.574,8.11,8.11,0,0,0-.115,1.738Z"/><path class="cls-4" d="M242.263,186.627v-1.269h1.372v1.269Zm0,5.889V187.33h1.372v5.186Z"/><path class="cls-4" d="M244.724,189.85a2.8,2.8,0,0,1,.337-1.323,2.312,2.312,0,0,1,.954-.977,2.842,2.842,0,0,1,1.38-.337,2.589,2.589,0,0,1,1.928.764,2.87,2.87,0,0,1-.008,3.882,2.562,2.562,0,0,1-1.911.774,3.012,3.012,0,0,1-1.36-.322,2.209,2.209,0,0,1-.983-.945A3.142,3.142,0,0,1,244.724,189.85Zm1.406.073a1.721,1.721,0,0,0,.366,1.182,1.2,1.2,0,0,0,1.8,0,1.742,1.742,0,0,0,.364-1.192,1.706,1.706,0,0,0-.364-1.171,1.2,1.2,0,0,0-1.8,0A1.717,1.717,0,0,0,246.13,189.923Z"/><path class="cls-4" d="M254.563,192.516v-.776a2.016,2.016,0,0,1-.745.654,2.081,2.081,0,0,1-.974.239,1.905,1.905,0,0,1-.938-.229,1.358,1.358,0,0,1-.6-.645,2.869,2.869,0,0,1-.186-1.147V187.33h1.372v2.383a6.648,6.648,0,0,0,.076,1.341.726.726,0,0,0,.276.39.848.848,0,0,0,.508.144,1.074,1.074,0,0,0,.629-.193.975.975,0,0,0,.381-.478,5.518,5.518,0,0,0,.1-1.4V187.33h1.372v5.186Z"/><path class="cls-4" d="M256.774,191.037l1.377-.21a1.008,1.008,0,0,0,.357.607,1.2,1.2,0,0,0,.752.208,1.362,1.362,0,0,0,.8-.195.439.439,0,0,0,.18-.367.358.358,0,0,0-.1-.258,1.1,1.1,0,0,0-.459-.181,7.391,7.391,0,0,1-2.105-.669,1.336,1.336,0,0,1-.615-1.167,1.441,1.441,0,0,1,.532-1.133,2.485,2.485,0,0,1,1.65-.459,2.877,2.877,0,0,1,1.582.347,1.767,1.767,0,0,1,.713,1.025l-1.294.24a.8.8,0,0,0-.315-.464,1.145,1.145,0,0,0-.661-.161,1.489,1.489,0,0,0-.776.151.325.325,0,0,0-.157.278.3.3,0,0,0,.137.249,5.11,5.11,0,0,0,1.281.386,3.824,3.824,0,0,1,1.531.61,1.27,1.27,0,0,1,.43,1.021,1.562,1.562,0,0,1-.6,1.225,2.633,2.633,0,0,1-1.762.513,2.894,2.894,0,0,1-1.677-.429A1.984,1.984,0,0,1,256.774,191.037Z"/><path class="cls-4" d="M265.6,192.516v-7.158h1.372v7.158Z"/><path class="cls-4" d="M269.4,188.912l-1.245-.224a1.933,1.933,0,0,1,.723-1.113,2.644,2.644,0,0,1,1.523-.362,3.282,3.282,0,0,1,1.368.218,1.369,1.369,0,0,1,.632.551,2.848,2.848,0,0,1,.183,1.228l-.015,1.6a5.441,5.441,0,0,0,.067,1.008,2.92,2.92,0,0,0,.246.7h-1.358c-.036-.091-.08-.226-.131-.405-.023-.082-.04-.136-.049-.161a2.471,2.471,0,0,1-.752.512,2.154,2.154,0,0,1-.855.171,1.764,1.764,0,0,1-1.261-.434,1.441,1.441,0,0,1-.462-1.1,1.477,1.477,0,0,1,.21-.784,1.369,1.369,0,0,1,.588-.527,4.59,4.59,0,0,1,1.091-.32,7.422,7.422,0,0,0,1.333-.337V189a.709.709,0,0,0-.2-.563,1.164,1.164,0,0,0-.737-.169.985.985,0,0,0-.572.144A1.011,1.011,0,0,0,269.4,188.912Zm1.836,1.114c-.175.058-.454.128-.835.21a2.505,2.505,0,0,0-.747.239.574.574,0,0,0-.268.483.67.67,0,0,0,.215.5.744.744,0,0,0,.546.21,1.184,1.184,0,0,0,.708-.244.858.858,0,0,0,.328-.454,2.709,2.709,0,0,0,.053-.669Z"/><path class="cls-4" d="M275.251,192.516h-1.372V187.33h1.274v.738a2.228,2.228,0,0,1,.588-.689,1.083,1.083,0,0,1,.594-.166,1.748,1.748,0,0,1,.9.259l-.425,1.2a1.2,1.2,0,0,0-.644-.224.758.758,0,0,0-.488.158,1.078,1.078,0,0,0-.315.574,8.11,8.11,0,0,0-.115,1.738Z"/><path class="cls-4" d="M277.7,192.858l1.568.19a.532.532,0,0,0,.18.376,1.027,1.027,0,0,0,.615.147,1.6,1.6,0,0,0,.806-.161.668.668,0,0,0,.274-.347,2.1,2.1,0,0,0,.063-.63v-.757a1.857,1.857,0,0,1-1.553.84,1.91,1.91,0,0,1-1.655-.884,3,3,0,0,1-.479-1.738,2.86,2.86,0,0,1,.627-1.992,2.028,2.028,0,0,1,1.561-.689,1.9,1.9,0,0,1,1.587.845v-.728h1.284v4.654a4.67,4.67,0,0,1-.151,1.372,1.7,1.7,0,0,1-.425.713,1.9,1.9,0,0,1-.731.405,3.819,3.819,0,0,1-1.154.146,2.99,2.99,0,0,1-1.87-.451,1.417,1.417,0,0,1-.552-1.145C277.7,192.978,277.7,192.923,277.7,192.858Zm1.226-3.042a1.863,1.863,0,0,0,.32,1.208.987.987,0,0,0,.788.384,1.093,1.093,0,0,0,.85-.393,1.717,1.717,0,0,0,.346-1.165,1.811,1.811,0,0,0-.332-1.2,1.052,1.052,0,0,0-.839-.391,1.012,1.012,0,0,0-.813.383A1.8,1.8,0,0,0,278.928,189.816Z"/><path class="cls-4" d="M286.94,190.866l1.368.229a2.247,2.247,0,0,1-.832,1.145,2.451,2.451,0,0,1-1.424.393,2.317,2.317,0,0,1-2-.884,2.966,2.966,0,0,1-.513-1.787,2.865,2.865,0,0,1,.674-2.019,2.219,2.219,0,0,1,1.7-.73,2.3,2.3,0,0,1,1.826.764,3.381,3.381,0,0,1,.64,2.342h-3.438a1.387,1.387,0,0,0,.332.949,1.038,1.038,0,0,0,.791.34.84.84,0,0,0,.542-.176A1.083,1.083,0,0,0,286.94,190.866Zm.079-1.387a1.325,1.325,0,0,0-.308-.906.99.99,0,0,0-1.455.017,1.268,1.268,0,0,0-.288.889Z"/><path class="cls-4" d="M289.343,190.607v-1.372h2.695v1.372Z"/><path class="cls-4" d="M292.346,191.037l1.377-.21a1,1,0,0,0,.356.607,1.2,1.2,0,0,0,.752.208,1.359,1.359,0,0,0,.8-.195.44.44,0,0,0,.181-.367.359.359,0,0,0-.1-.258,1.1,1.1,0,0,0-.459-.181,7.391,7.391,0,0,1-2.1-.669,1.336,1.336,0,0,1-.615-1.167,1.441,1.441,0,0,1,.532-1.133,2.488,2.488,0,0,1,1.651-.459,2.879,2.879,0,0,1,1.582.347,1.772,1.772,0,0,1,.713,1.025l-1.294.24a.8.8,0,0,0-.316-.464,1.145,1.145,0,0,0-.661-.161,1.489,1.489,0,0,0-.776.151.324.324,0,0,0-.156.278.3.3,0,0,0,.136.249,5.108,5.108,0,0,0,1.282.386,3.831,3.831,0,0,1,1.531.61,1.272,1.272,0,0,1,.429,1.021,1.564,1.564,0,0,1-.6,1.225,2.638,2.638,0,0,1-1.763.513,2.894,2.894,0,0,1-1.677-.429A1.982,1.982,0,0,1,292.346,191.037Z"/><path class="cls-4" d="M302.912,188.864l-1.352.244a.983.983,0,0,0-.311-.611.937.937,0,0,0-.627-.205,1.029,1.029,0,0,0-.818.354,1.817,1.817,0,0,0-.3,1.184,2.1,2.1,0,0,0,.311,1.3,1.015,1.015,0,0,0,.832.381.924.924,0,0,0,.639-.222,1.341,1.341,0,0,0,.352-.764l1.347.229a2.387,2.387,0,0,1-.805,1.4,2.5,2.5,0,0,1-1.6.473,2.368,2.368,0,0,1-1.813-.718,3.268,3.268,0,0,1,0-3.986,2.409,2.409,0,0,1,1.836-.716,2.5,2.5,0,0,1,1.5.408A2.26,2.26,0,0,1,302.912,188.864Z"/><path class="cls-4" d="M304.978,188.912l-1.246-.224a1.933,1.933,0,0,1,.723-1.113,2.645,2.645,0,0,1,1.524-.362,3.28,3.28,0,0,1,1.367.218,1.372,1.372,0,0,1,.633.551,2.852,2.852,0,0,1,.182,1.228l-.015,1.6a5.441,5.441,0,0,0,.067,1.008,2.92,2.92,0,0,0,.246.7H307.1a4.232,4.232,0,0,1-.132-.405c-.023-.082-.039-.136-.049-.161a2.447,2.447,0,0,1-.752.512,2.154,2.154,0,0,1-.855.171,1.764,1.764,0,0,1-1.261-.434,1.441,1.441,0,0,1-.462-1.1,1.477,1.477,0,0,1,.21-.784,1.369,1.369,0,0,1,.588-.527,4.605,4.605,0,0,1,1.091-.32,7.422,7.422,0,0,0,1.333-.337V189a.709.709,0,0,0-.195-.563,1.164,1.164,0,0,0-.737-.169.98.98,0,0,0-.571.144A1,1,0,0,0,304.978,188.912Zm1.835,1.114c-.175.058-.454.128-.834.21a2.526,2.526,0,0,0-.748.239.574.574,0,0,0-.268.483.67.67,0,0,0,.215.5.745.745,0,0,0,.547.21,1.188,1.188,0,0,0,.708-.244.856.856,0,0,0,.327-.454,2.709,2.709,0,0,0,.053-.669Z"/><path class="cls-4" d="M309.514,192.516v-7.158h1.372v7.158Z"/><path class="cls-4" d="M315.3,190.866l1.367.229a2.241,2.241,0,0,1-.832,1.145,2.449,2.449,0,0,1-1.424.393,2.319,2.319,0,0,1-2-.884,2.973,2.973,0,0,1-.512-1.787,2.865,2.865,0,0,1,.673-2.019,2.221,2.221,0,0,1,1.7-.73,2.3,2.3,0,0,1,1.826.764,3.381,3.381,0,0,1,.639,2.342H313.3a1.387,1.387,0,0,0,.332.949,1.037,1.037,0,0,0,.791.34.842.842,0,0,0,.542-.176A1.089,1.089,0,0,0,315.3,190.866Zm.078-1.387a1.32,1.32,0,0,0-.308-.906.944.944,0,0,0-.712-.31.955.955,0,0,0-.743.327,1.268,1.268,0,0,0-.288.889Z"/><path class="cls-4" d="M320.148,191.037l1.377-.21a1.008,1.008,0,0,0,.357.607,1.2,1.2,0,0,0,.752.208,1.362,1.362,0,0,0,.8-.195.439.439,0,0,0,.18-.367.358.358,0,0,0-.1-.258,1.1,1.1,0,0,0-.459-.181,7.391,7.391,0,0,1-2.105-.669,1.336,1.336,0,0,1-.615-1.167,1.441,1.441,0,0,1,.532-1.133,2.485,2.485,0,0,1,1.65-.459,2.883,2.883,0,0,1,1.583.347,1.77,1.77,0,0,1,.712,1.025l-1.294.24a.8.8,0,0,0-.315-.464,1.145,1.145,0,0,0-.661-.161,1.489,1.489,0,0,0-.776.151.325.325,0,0,0-.157.278.3.3,0,0,0,.137.249,5.11,5.11,0,0,0,1.281.386,3.837,3.837,0,0,1,1.532.61,1.272,1.272,0,0,1,.429,1.021,1.562,1.562,0,0,1-.6,1.225,2.633,2.633,0,0,1-1.762.513,2.894,2.894,0,0,1-1.677-.429A1.984,1.984,0,0,1,320.148,191.037Z"/><path class="cls-4" d="M328.571,187.33v1.094h-.937v2.09a5.177,5.177,0,0,0,.027.74.3.3,0,0,0,.121.173.391.391,0,0,0,.233.068,1.762,1.762,0,0,0,.551-.131l.118,1.064a2.728,2.728,0,0,1-1.084.205,1.719,1.719,0,0,1-.669-.124.984.984,0,0,1-.438-.323,1.281,1.281,0,0,1-.192-.534,6.552,6.552,0,0,1-.044-.967v-2.261h-.63V187.33h.63V186.3l1.377-.8v1.831Z"/><path class="cls-4" d="M330.837,192.516h-1.372V187.33h1.274v.738a2.228,2.228,0,0,1,.588-.689,1.083,1.083,0,0,1,.594-.166,1.748,1.748,0,0,1,.9.259l-.425,1.2a1.2,1.2,0,0,0-.644-.224.758.758,0,0,0-.488.158,1.078,1.078,0,0,0-.315.574,8.11,8.11,0,0,0-.115,1.738Z"/><path class="cls-4" d="M336.828,192.516v-.776a2,2,0,0,1-.744.654,2.088,2.088,0,0,1-.975.239,1.9,1.9,0,0,1-.937-.229,1.36,1.36,0,0,1-.6-.645,2.871,2.871,0,0,1-.185-1.147V187.33h1.372v2.383a6.568,6.568,0,0,0,.076,1.341.729.729,0,0,0,.275.39.85.85,0,0,0,.508.144,1.075,1.075,0,0,0,.63-.193.975.975,0,0,0,.381-.478,5.588,5.588,0,0,0,.1-1.4V187.33H338.1v5.186Z"/><path class="cls-4" d="M344.045,188.864l-1.353.244a.982.982,0,0,0-.31-.611.937.937,0,0,0-.627-.205,1.029,1.029,0,0,0-.818.354,1.811,1.811,0,0,0-.305,1.184,2.1,2.1,0,0,0,.31,1.3,1.016,1.016,0,0,0,.832.381.925.925,0,0,0,.64-.222,1.341,1.341,0,0,0,.352-.764l1.347.229a2.387,2.387,0,0,1-.805,1.4,2.5,2.5,0,0,1-1.6.473,2.372,2.372,0,0,1-1.814-.718,3.272,3.272,0,0,1,0-3.986,2.412,2.412,0,0,1,1.836-.716,2.5,2.5,0,0,1,1.506.408A2.26,2.26,0,0,1,344.045,188.864Z"/><path class="cls-4" d="M347.463,187.33v1.094h-.938v2.09a4.943,4.943,0,0,0,.028.74.3.3,0,0,0,.121.173.386.386,0,0,0,.232.068,1.767,1.767,0,0,0,.552-.131l.117,1.064a2.721,2.721,0,0,1-1.084.205,1.723,1.723,0,0,1-.669-.124.986.986,0,0,1-.437-.323,1.3,1.3,0,0,1-.193-.534,6.7,6.7,0,0,1-.044-.967v-2.261h-.629V187.33h.629V186.3l1.377-.8v1.831Z"/><path class="cls-4" d="M351.828,192.516v-.776a2,2,0,0,1-.744.654,2.088,2.088,0,0,1-.975.239,1.9,1.9,0,0,1-.937-.229,1.36,1.36,0,0,1-.6-.645,2.871,2.871,0,0,1-.185-1.147V187.33h1.372v2.383a6.568,6.568,0,0,0,.076,1.341.729.729,0,0,0,.275.39.85.85,0,0,0,.508.144,1.075,1.075,0,0,0,.63-.193.975.975,0,0,0,.381-.478,5.588,5.588,0,0,0,.1-1.4V187.33H353.1v5.186Z"/><path class="cls-4" d="M355.837,192.516h-1.372V187.33h1.274v.738a2.228,2.228,0,0,1,.588-.689,1.083,1.083,0,0,1,.594-.166,1.748,1.748,0,0,1,.9.259l-.425,1.2a1.2,1.2,0,0,0-.644-.224.758.758,0,0,0-.488.158,1.078,1.078,0,0,0-.315.574,8.11,8.11,0,0,0-.115,1.738Z"/><path class="cls-4" d="M361.418,190.866l1.367.229a2.241,2.241,0,0,1-.832,1.145,2.449,2.449,0,0,1-1.424.393,2.319,2.319,0,0,1-2-.884,2.973,2.973,0,0,1-.512-1.787,2.865,2.865,0,0,1,.673-2.019,2.221,2.221,0,0,1,1.7-.73,2.3,2.3,0,0,1,1.826.764,3.381,3.381,0,0,1,.639,2.342h-3.437a1.387,1.387,0,0,0,.332.949,1.038,1.038,0,0,0,.791.34.842.842,0,0,0,.542-.176A1.089,1.089,0,0,0,361.418,190.866Zm.078-1.387a1.32,1.32,0,0,0-.308-.906.944.944,0,0,0-.712-.31.955.955,0,0,0-.743.327,1.268,1.268,0,0,0-.288.889Z"/><path class="cls-4" d="M363.493,191.037l1.377-.21a1.008,1.008,0,0,0,.357.607,1.2,1.2,0,0,0,.752.208,1.356,1.356,0,0,0,.8-.195.44.44,0,0,0,.181-.367.355.355,0,0,0-.1-.258,1.085,1.085,0,0,0-.459-.181,7.392,7.392,0,0,1-2.1-.669,1.336,1.336,0,0,1-.615-1.167,1.438,1.438,0,0,1,.532-1.133,2.483,2.483,0,0,1,1.65-.459,2.877,2.877,0,0,1,1.582.347,1.772,1.772,0,0,1,.713,1.025l-1.294.24a.8.8,0,0,0-.315-.464,1.147,1.147,0,0,0-.661-.161,1.493,1.493,0,0,0-.777.151.326.326,0,0,0-.156.278.3.3,0,0,0,.137.249,5.11,5.11,0,0,0,1.281.386,3.831,3.831,0,0,1,1.531.61,1.273,1.273,0,0,1,.43,1.021,1.562,1.562,0,0,1-.6,1.225,2.633,2.633,0,0,1-1.762.513,2.892,2.892,0,0,1-1.677-.429A1.984,1.984,0,0,1,363.493,191.037Z"/><line class="cls-5" x1="48.267" y1="62.956" x2="76.159" y2="112.604"/><polygon class="cls-6" points="73.356 112.36 79.63 118.783 77.409 110.083 73.356 112.36"/><line class="cls-5" x1="136.364" y1="62.956" x2="101.822" y2="112.951"/><polygon class="cls-6" points="100.811 110.326 97.793 118.783 104.635 112.968 100.811 110.326"/><line class="cls-5" x1="228.438" y1="62.956" x2="122.757" y2="115.621"/><polygon class="cls-6" points="123.139 112.834 116.413 118.783 125.212 116.995 123.139 112.834"/><line class="cls-5" x1="313.63" y1="62.956" x2="143.124" y2="116.654"/><polygon class="cls-6" points="143.938 113.961 136.364 118.783 145.334 118.394 143.938 113.961"/><line class="cls-5" x1="326.63" y1="62.956" x2="298.738" y2="112.604"/><polygon class="cls-6" points="297.488 110.083 295.267 118.783 301.541 112.36 297.488 110.083"/><line class="cls-5" x1="238.533" y1="62.956" x2="273.075" y2="112.951"/><polygon class="cls-6" points="270.262 112.968 277.104 118.783 274.086 110.326 270.262 112.968"/><line class="cls-5" x1="146.459" y1="62.956" x2="252.14" y2="115.621"/><polygon class="cls-6" points="249.685 116.995 258.484 118.783 251.758 112.834 249.685 116.995"/><line class="cls-5" x1="61.267" y1="62.956" x2="231.773" y2="116.654"/><polygon class="cls-6" points="229.563 118.394 238.533 118.783 230.959 113.961 229.563 118.394"/></svg>