<svg id="レイヤー_1" data-name="レイヤー 1" xmlns="http://www.w3.org/2000/svg" viewBox="0 0 376 200"><defs><style>.cls-1{fill:#8dbfff;}.cls-2,.cls-5,.cls-7{fill:none;stroke-miterlimit:10;}.cls-2{stroke:#000;}.cls-3{fill:red;}.cls-4{fill:#0040a7;}.cls-5{stroke:#0040a7;stroke-width:0.5px;}.cls-6{fill:#2166a7;}.cls-7{stroke:#0000a0;}</style></defs><polygon class="cls-1" points="344.412 114.358 344.412 120.348 339.859 120.348 339.859 114.358 333.239 114.358 333.239 120.348 325.644 120.348 325.644 114.358 317.893 114.358 317.893 120.348 311.822 120.348 311.822 114.358 304.87 114.358 304.87 120.348 297.521 120.348 297.521 114.358 293.007 114.358 293.007 120.348 280.785 120.348 280.785 114.358 274.235 114.358 274.235 120.348 266.887 120.348 266.887 114.358 257.861 114.358 257.861 120.348 251.79 120.348 251.79 114.358 248.24 114.358 248.24 120.348 240.891 120.348 240.891 114.358 227.783 114.358 227.783 120.348 219.076 120.348 219.076 114.358 216.337 114.358 216.337 120.348 207.337 120.348 207.337 114.358 192.956 114.358 192.956 120.348 183.956 120.348 183.956 114.358 176.717 114.358 176.717 120.348 161.75 120.348 161.75 114.358 150.891 114.358 150.891 120.348 145.315 120.348 145.315 114.358 137.929 114.358 137.929 120.348 125.456 120.348 125.456 114.358 118.413 114.358 118.413 120.348 110.978 120.348 110.978 114.358 104.913 114.358 104.913 120.348 95.913 120.348 95.913 114.358 91.609 114.358 91.609 120.348 76.641 120.348 76.641 114.358 68.62 114.358 68.62 120.348 59.62 120.348 59.62 114.358 48.565 114.358 48.565 120.348 41.13 120.348 41.13 114.358 33.109 114.358 33.109 120.348 24.109 120.348 24.109 114.358 0 114.358 0 200 376 200 376 114.358 344.412 114.358"/><line class="cls-2" x1="95.391" y1="11.24" x2="144.648" y2="60.497"/><polygon points="141.193 61.15 150.913 66.761 145.301 57.041 141.193 61.15"/><line class="cls-2" x1="208.196" y1="83.653" x2="274.344" y2="17.504"/><polygon points="274.997 20.96 280.609 11.24 270.889 16.851 274.997 20.96"/><line class="cls-2" x1="236.464" y1="80.213" x2="286.798" y2="55.666"/><polygon points="286.291 59.146 294.761 51.783 283.744 53.923 286.291 59.146"/><line class="cls-2" x1="205.037" y1="65.998" x2="223.298" y2="25.427"/><polygon points="225.134 28.426 226.935 17.348 219.836 26.041 225.134 28.426"/><path d="M71.432,26.128A10.317,10.317,0,0,0,76.458,35.6a4.218,4.218,0,0,0-.636.672,10.389,10.389,0,0,1-4.833-6.812,10.7,10.7,0,0,1-4.87,6.824,5.286,5.286,0,0,0-.707-.636c2.674-1.391,4.173-3.826,4.917-7.232l.468.072c-.084-.576-.132-1.1-.156-1.571H67.667v-.791Z"/><path d="M82.965,30.613c-.168.312-.36.612-.552.9V35.35c0,.456-.12.7-.42.828a5.782,5.782,0,0,1-1.7.132,2.746,2.746,0,0,0-.264-.72c.648.012,1.224.012,1.415,0,.168-.012.228-.059.228-.24V32.5A13.617,13.617,0,0,1,77.8,35.638a4.928,4.928,0,0,0-.551-.587,12.013,12.013,0,0,0,3.49-2.579c-1.151.18-2.279.336-3.178.468l-.108-.732c.3-.036.635-.072,1.007-.12V26.739h1.188a11.115,11.115,0,0,0,.443-1.355l.888.144c-.168.419-.348.851-.528,1.211h1.967v3.694Zm-3.79-3.226v1.079h2.494V27.387Zm2.494,1.691H79.175v1.091h2.494ZM79.175,32c.7-.1,1.451-.192,2.206-.3.1-.132.192-.263.288-.395v-.516H79.175Zm9.2-2.914h-1.32v6.165c0,.527-.156.767-.491.9a6.077,6.077,0,0,1-1.919.144,4.3,4.3,0,0,0-.3-.756c.756.024,1.439.024,1.631.012s.3-.072.3-.288V29.09H82.881v-.744h3.394v-2.9h.779v2.9h1.32Zm-3.683,4.33a10.312,10.312,0,0,0-1.2-2.771l.684-.264a10.064,10.064,0,0,1,1.247,2.735Z"/><path d="M91.535,30.589a11.823,11.823,0,0,0-2.1-1.295l.443-.588a12.541,12.541,0,0,1,2.111,1.223Zm.767,1.7c-.54,1.26-1.259,2.759-1.871,3.862l-.7-.48a36.689,36.689,0,0,0,1.955-3.862Zm-.18-4.821a11.075,11.075,0,0,0-2.051-1.392l.468-.563a11,11,0,0,1,2.051,1.319Zm7.34,2.806a8.645,8.645,0,0,1-2.075,3.79,7.908,7.908,0,0,0,3.083,1.571,2.927,2.927,0,0,0-.516.684,8.564,8.564,0,0,1-3.119-1.7,9.477,9.477,0,0,1-3.022,1.727,2.793,2.793,0,0,0-.516-.66,9.038,9.038,0,0,0,2.987-1.631,9.1,9.1,0,0,1-1.943-3.25h-.4a9.636,9.636,0,0,1-1.559,5.517,2.187,2.187,0,0,0-.659-.408c1.319-1.667,1.462-4.029,1.462-5.757v-3.01H96.1V25.384h.78v1.763H99.63l.144-.036.564.168a16.368,16.368,0,0,1-1.02,2.387l-.683-.228a13.135,13.135,0,0,0,.647-1.548h-2.4v2.183h1.943l.143-.023ZM93.957,27.89v2.183H96.1V27.89Zm1.127,2.915a7.894,7.894,0,0,0,1.74,2.747,6.958,6.958,0,0,0,1.655-2.747Z"/><path class="cls-3" d="M290.2,28.586a13.912,13.912,0,0,1-1.295,4.642,5.74,5.74,0,0,0,2.183,2.17,4.276,4.276,0,0,0-.78.96,6.325,6.325,0,0,1-2.039-2.1,7.329,7.329,0,0,1-2.422,2.123,4.594,4.594,0,0,0-.636-.959.769.769,0,0,1-.42.755,3.916,3.916,0,0,1-1.523.168,2.991,2.991,0,0,0-.312-.923c.456.024.911.011,1.031.011s.18-.048.18-.179v-.828h-2.351v1.919h-1.031V30.529h4.426V35.41a6.257,6.257,0,0,0,2.482-2.242,14.8,14.8,0,0,1-.935-2.879,8.233,8.233,0,0,1-.7,1.3,6.485,6.485,0,0,0-.744-.96,5.482,5.482,0,0,0,.445-.78H280V28.91h1.319V27.663h-1.139v-.936h1.139V25.468h1.019v1.259h1.319V25.468h1.033v1.259h1.151v.936h-1.151V28.91h1.138v.815a15.382,15.382,0,0,0,1.1-4.377l1.092.156c-.109.7-.216,1.379-.373,2.039h3.346v1.043Zm-8.384,2.807v.683h2.351v-.683Zm2.351,2.2v-.7h-2.351v.7Zm-1.835-4.678h1.319V27.663h-1.319Zm5.025-.288a15.75,15.75,0,0,0,.936,3.37,13.833,13.833,0,0,0,.8-3.406h-1.727Z"/><path class="cls-3" d="M295.7,28.658h2.531v1.008H295.7v1.8h2.1V36.01H296.71v-.36H293.6v.456h-1.043V31.465h2.062v-1.8h-2.65V28.658h2.65V27.027c-.731.108-1.463.18-2.158.252a4.178,4.178,0,0,0-.313-.888,25.6,25.6,0,0,0,5.037-.959l.84.864a17.219,17.219,0,0,1-2.327.551Zm1.008,3.8H293.6v2.207h3.106Zm4.773,2.722c.4,0,.468-.443.528-2.218a2.951,2.951,0,0,0,1,.491c-.109,2.027-.361,2.759-1.428,2.759h-1.463c-1.1,0-1.4-.372-1.4-1.751V25.516h1.1v8.959c0,.612.06.707.456.707Z"/><path class="cls-3" d="M306.071,30.733a13.007,13.007,0,0,0-2.123-1.259l.624-.828a14.853,14.853,0,0,1,2.147,1.163Zm.96,1.667c-.528,1.247-1.212,2.687-1.823,3.814l-.983-.672a35.848,35.848,0,0,0,1.955-3.814Zm-.347-4.809a13.987,13.987,0,0,0-2.064-1.331l.636-.8a14.618,14.618,0,0,1,2.087,1.235Zm7.495,2.626a9.076,9.076,0,0,1-1.931,3.79,7.694,7.694,0,0,0,2.807,1.391,3.728,3.728,0,0,0-.72.96,8.428,8.428,0,0,1-2.866-1.583,8.581,8.581,0,0,1-2.723,1.607,4.37,4.37,0,0,0-.708-.935,8.19,8.19,0,0,0,2.675-1.428,9.7,9.7,0,0,1-1.8-3.082h-.12a10.028,10.028,0,0,1-1.487,5.409,3.706,3.706,0,0,0-.948-.552c1.26-1.667,1.379-4.042,1.379-5.769V27h2.819V25.348h1.091V27h2.328l.191-.036.8.2a16.409,16.409,0,0,1-1,2.459l-.949-.276c.157-.348.336-.828.5-1.307h-1.883v1.906h1.62l.215-.047Zm-5.373-2.17v1.906h1.751V28.047Zm1.164,2.89a7.762,7.762,0,0,0,1.487,2.339,7.062,7.062,0,0,0,1.367-2.339Z"/><path class="cls-3" d="M320.83,27.159a27.634,27.634,0,0,0,3.526-.348v1.116a37.569,37.569,0,0,1-3.946.312,9.661,9.661,0,0,1-.924,1.583,3.513,3.513,0,0,1,1.535-.36,1.579,1.579,0,0,1,1.608,1.019c.744-.347,1.355-.6,1.919-.864.408-.179.756-.335,1.14-.527l.491,1.1c-.348.108-.864.3-1.223.444-.612.24-1.392.552-2.231.935.012.684.024,1.644.036,2.219h-1.14c.025-.42.036-1.1.049-1.691-1.032.564-1.68,1.116-1.68,1.823,0,.816.781.983,1.991.983a20.4,20.4,0,0,0,3.334-.311l-.036,1.211a30.519,30.519,0,0,1-3.334.216c-1.787,0-3.177-.42-3.177-1.907S320.206,31.7,321.6,31a.967.967,0,0,0-.984-.6,3.062,3.062,0,0,0-1.991.863,13.054,13.054,0,0,0-1.091,1.284l-1.032-.767a12.066,12.066,0,0,0,2.711-3.5h-.348c-.5,0-1.331-.024-2-.072V27.075a15.507,15.507,0,0,0,2.063.132c.228,0,.468,0,.708-.012a5.973,5.973,0,0,0,.275-1.427l1.248.1C321.082,26.2,320.986,26.643,320.83,27.159Z"/><path class="cls-3" d="M332.758,28.215h-4.785v-.888h4.785Zm-.491,7.483H329.5v.5h-.983v-4.03h3.754Zm-3.731-6.74H332.3v.864h-3.767Zm0,1.6H332.3v.875h-3.767Zm3.778-3.934h-3.706v-.875h3.706ZM329.5,33.072V34.8h1.775V33.072Zm9.618-2.591h-2.59v5.865H335.4V30.481h-2.674v-1.1H335.4V25.384h1.128v3.994h2.59Z"/><path class="cls-3" d="M350.839,34.379H348.2v1.967h-1.151V34.379h-2.975c-.311.756-1.127,1.475-3.01,1.991a4.121,4.121,0,0,0-.708-.828,4.162,4.162,0,0,0,2.423-1.163h-2.591v-.9h2.939v-.911h-1.535V28.082h1.26a6.941,6.941,0,0,0-.529-1h-.468a7.776,7.776,0,0,1-1.055,1.235,6.36,6.36,0,0,0-.9-.624,6.555,6.555,0,0,0,1.8-2.41l1.031.276c-.1.216-.2.407-.312.623h2.9v.876a5.449,5.449,0,0,0,1.092-1.775l1.079.24a6.309,6.309,0,0,1-.3.659h3.575v.9h-2.039a6.752,6.752,0,0,1,.48.66l-.732.335h1.151v4.486H348.2v.911h2.639Zm-8.12-5.025h5.733V28.79h-5.733Zm0,1.247h5.733v-.588h-5.733Zm0,1.271h5.733v-.6h-5.733Zm.744-4.785a6.613,6.613,0,0,1,.395.719l-.755.276h2.5a6.309,6.309,0,0,0-.864-.468,2.885,2.885,0,0,0,.564-.527Zm3.586,6.392v-.911h-2.795v.911Zm-.408-6.392a5.87,5.87,0,0,1-.839,1h2.4a6.576,6.576,0,0,0-.72-1Z"/><path class="cls-4" d="M26.581,97.669h1.967V90.941H27v-.636a5.039,5.039,0,0,0,1.775-.6h.744v7.964h1.787v.816H26.581Z"/><path class="cls-4" d="M42.1,97.9c2.806-2.447,4.053-4.222,4.053-5.745a1.6,1.6,0,0,0-1.667-1.811,2.563,2.563,0,0,0-1.87,1.044l-.576-.552a3.334,3.334,0,0,1,2.554-1.283,2.368,2.368,0,0,1,2.519,2.566c0,1.775-1.391,3.586-3.538,5.6.468-.048.995-.072,1.439-.072H47.53v.84H42.1Z"/><path class="cls-4" d="M60.8,97.441l.5-.636a2.956,2.956,0,0,0,2.219,1.02,1.683,1.683,0,0,0,1.835-1.715c0-1.079-.744-1.811-2.783-1.811v-.768c1.835,0,2.471-.755,2.471-1.739a1.409,1.409,0,0,0-1.535-1.451,2.669,2.669,0,0,0-1.847.876l-.54-.636a3.514,3.514,0,0,1,2.423-1.031,2.206,2.206,0,0,1,2.5,2.17,2.174,2.174,0,0,1-1.572,2.135V93.9a2.274,2.274,0,0,1,1.871,2.243A2.518,2.518,0,0,1,63.58,98.64,3.6,3.6,0,0,1,60.8,97.441Z"/><path class="cls-4" d="M84.178,96.038H80.329V95.4l3.73-5.7H85.1v5.554h1.2v.779H85.1v2.447h-.924Zm0-.779V92.4c0-.432.036-1.127.072-1.559h-.06c-.215.419-.456.852-.695,1.271l-2.123,3.143Z"/><path class="cls-4" d="M97.7,97.477l.492-.648a2.9,2.9,0,0,0,2.2,1,1.984,1.984,0,0,0,1.93-2.159,1.844,1.844,0,0,0-1.883-2.074,2.446,2.446,0,0,0-1.487.527l-.539-.336.276-4.078h4.2v.84H99.551l-.24,2.663a2.639,2.639,0,0,1,1.367-.372,2.5,2.5,0,0,1,2.627,2.806,2.831,2.831,0,0,1-2.83,3A3.676,3.676,0,0,1,97.7,97.477Z"/><path class="cls-4" d="M115.554,94.13a.744.744,0,1,1,.744.768A.752.752,0,0,1,115.554,94.13Zm4.462,0a.745.745,0,1,1,1.487,0,.744.744,0,1,1-1.487,0Zm4.473,0a.738.738,0,1,1,.732.768A.743.743,0,0,1,124.489,94.13Z"/><path class="cls-4" d="M262.647,94.13a.744.744,0,1,1,.744.768A.752.752,0,0,1,262.647,94.13Zm4.461,0a.753.753,0,0,1,.745-.791.78.78,0,1,1-.745.791Zm4.474,0a.739.739,0,1,1,.732.768A.743.743,0,0,1,271.582,94.13Z"/><path class="cls-4" d="M323.019,97.669h1.966V90.941h-1.547v-.636a5.038,5.038,0,0,0,1.776-.6h.743v7.964h1.787v.816h-4.725Z"/><path class="cls-4" d="M329.139,94.059c0-3.046,1.044-4.509,2.7-4.509s2.674,1.475,2.674,4.509c0,3.07-1.032,4.581-2.674,4.581S329.139,97.129,329.139,94.059Zm4.425,0c0-2.567-.695-3.718-1.726-3.718s-1.751,1.151-1.751,3.718c0,2.615.707,3.79,1.751,3.79S333.564,96.674,333.564,94.059Z"/><path class="cls-4" d="M335.727,94.059c0-3.046,1.044-4.509,2.7-4.509s2.674,1.475,2.674,4.509c0,3.07-1.032,4.581-2.674,4.581S335.727,97.129,335.727,94.059Zm4.425,0c0-2.567-.695-3.718-1.726-3.718s-1.751,1.151-1.751,3.718c0,2.615.707,3.79,1.751,3.79S340.152,96.674,340.152,94.059Z"/><path class="cls-4" d="M342.314,94.059c0-3.046,1.044-4.509,2.7-4.509s2.674,1.475,2.674,4.509c0,3.07-1.032,4.581-2.674,4.581S342.314,97.129,342.314,94.059Zm4.426,0c0-2.567-.695-3.718-1.726-3.718s-1.751,1.151-1.751,3.718c0,2.615.707,3.79,1.751,3.79S346.74,96.674,346.74,94.059Z"/><path class="cls-4" d="M348.9,94.059c0-3.046,1.044-4.509,2.7-4.509s2.673,1.475,2.673,4.509c0,3.07-1.031,4.581-2.673,4.581S348.9,97.129,348.9,94.059Zm4.426,0c0-2.567-.695-3.718-1.726-3.718s-1.751,1.151-1.751,3.718c0,2.615.707,3.79,1.751,3.79S353.328,96.674,353.328,94.059Z"/><path class="cls-4" d="M355.49,94.059c0-3.046,1.044-4.509,2.7-4.509s2.674,1.475,2.674,4.509c0,3.07-1.031,4.581-2.674,4.581S355.49,97.129,355.49,94.059Zm4.426,0c0-2.567-.695-3.718-1.727-3.718s-1.751,1.151-1.751,3.718c0,2.615.708,3.79,1.751,3.79S359.916,96.674,359.916,94.059Z"/><path class="cls-4" d="M281.522,97.765l.552-.624a1.958,1.958,0,0,0,1.488.684c1.151,0,2.17-.972,2.254-3.8a2.766,2.766,0,0,1-2.063,1.115c-1.463,0-2.4-.947-2.4-2.758a2.611,2.611,0,0,1,2.471-2.83c1.691,0,2.914,1.391,2.914,4.137,0,3.6-1.523,4.953-3.154,4.953A2.735,2.735,0,0,1,281.522,97.765Zm2.387-3.358A2.4,2.4,0,0,0,285.8,93.2c-.108-1.848-.791-2.879-1.979-2.879-.876,0-1.535.839-1.535,2.063S282.817,94.407,283.909,94.407Z"/><path class="cls-4" d="M288.11,97.765l.552-.624a1.957,1.957,0,0,0,1.487.684c1.152,0,2.171-.972,2.255-3.8a2.768,2.768,0,0,1-2.063,1.115c-1.463,0-2.4-.947-2.4-2.758a2.611,2.611,0,0,1,2.471-2.83c1.691,0,2.914,1.391,2.914,4.137,0,3.6-1.523,4.953-3.154,4.953A2.735,2.735,0,0,1,288.11,97.765Zm2.387-3.358a2.4,2.4,0,0,0,1.895-1.211c-.108-1.848-.791-2.879-1.979-2.879-.876,0-1.535.839-1.535,2.063S289.4,94.407,290.5,94.407Z"/><path class="cls-4" d="M294.7,97.765l.552-.624a1.957,1.957,0,0,0,1.487.684c1.152,0,2.171-.972,2.255-3.8a2.769,2.769,0,0,1-2.063,1.115c-1.463,0-2.4-.947-2.4-2.758A2.611,2.611,0,0,1,297,89.55c1.69,0,2.914,1.391,2.914,4.137,0,3.6-1.523,4.953-3.154,4.953A2.735,2.735,0,0,1,294.7,97.765Zm2.387-3.358a2.4,2.4,0,0,0,1.894-1.211c-.107-1.848-.791-2.879-1.978-2.879-.876,0-1.535.839-1.535,2.063S295.993,94.407,297.085,94.407Z"/><path class="cls-4" d="M301.286,97.765l.552-.624a1.957,1.957,0,0,0,1.487.684c1.152,0,2.171-.972,2.255-3.8a2.769,2.769,0,0,1-2.063,1.115c-1.463,0-2.4-.947-2.4-2.758a2.611,2.611,0,0,1,2.471-2.83c1.69,0,2.914,1.391,2.914,4.137,0,3.6-1.524,4.953-3.154,4.953A2.735,2.735,0,0,1,301.286,97.765Zm2.387-3.358a2.4,2.4,0,0,0,1.894-1.211c-.107-1.848-.791-2.879-1.978-2.879-.876,0-1.535.839-1.535,2.063S302.581,94.407,303.673,94.407Z"/><path class="cls-4" d="M307.874,97.765l.552-.624a1.957,1.957,0,0,0,1.487.684c1.151,0,2.171-.972,2.255-3.8a2.77,2.77,0,0,1-2.064,1.115c-1.462,0-2.4-.947-2.4-2.758a2.611,2.611,0,0,1,2.471-2.83c1.69,0,2.914,1.391,2.914,4.137,0,3.6-1.524,4.953-3.154,4.953A2.735,2.735,0,0,1,307.874,97.765Zm2.387-3.358a2.4,2.4,0,0,0,1.894-1.211c-.107-1.848-.791-2.879-1.978-2.879-.876,0-1.535.839-1.535,2.063S309.169,94.407,310.261,94.407Z"/><path class="cls-4" d="M101.854,130.083c-1.535,2.758-5.1,4.461-8.179,5.144a3.4,3.4,0,0,0-.384-.707,15.144,15.144,0,0,0,4.594-1.667,13.319,13.319,0,0,0-2.2-1.415,15.027,15.027,0,0,1-1.763.839,2.562,2.562,0,0,0-.54-.588,10.674,10.674,0,0,0,4.558-2.926l.9.192a9.2,9.2,0,0,1-.84.851h3.2l.144-.036Zm1.8,4.113c-1.511,3.467-5.289,4.978-9.138,5.541a2.422,2.422,0,0,0-.348-.731,15.662,15.662,0,0,0,5.361-1.572,12.3,12.3,0,0,0-2.387-1.678,16.486,16.486,0,0,1-2.063.875,2.347,2.347,0,0,0-.492-.6,11.588,11.588,0,0,0,5.289-3.19l.888.2a10.885,10.885,0,0,1-.9.9h3.118l.156-.035Zm-6.488-3.706c-.252.192-.516.372-.791.552a12.224,12.224,0,0,1,2.194,1.391,7.881,7.881,0,0,0,2.123-1.943Zm1.823,4.15c-.348.252-.719.492-1.127.732a12.845,12.845,0,0,1,2.374,1.642,6.9,6.9,0,0,0,2.3-2.374Z"/><path class="cls-4" d="M115.174,131.725a13.968,13.968,0,0,1-1.511,4.87,5.891,5.891,0,0,0,2.362,2.422,3.084,3.084,0,0,0-.575.684,6.6,6.6,0,0,1-2.279-2.351,7.783,7.783,0,0,1-2.831,2.375,4.463,4.463,0,0,0-.371-.576l-.228.24a11.661,11.661,0,0,0-1.439-.959,6.627,6.627,0,0,1-2.927,1.271,1.85,1.85,0,0,0-.372-.671,6.155,6.155,0,0,0,2.6-.972c-.42-.215-.839-.408-1.272-.588l-.2.348-.684-.264c.276-.467.6-1.079.924-1.714h-1.392v-.672h1.728c.179-.372.359-.732.5-1.056l.336.072V132.4a7.729,7.729,0,0,1-2.171,1.86,2.415,2.415,0,0,0-.444-.6,6.409,6.409,0,0,0,2.375-1.98H105.04v-.671h2.506v-2.231h.744v2.231h2.458v.671H108.29v.1c.515.3,1.823,1.14,2.147,1.38l-.444.575c-.312-.287-1.116-.9-1.7-1.319v1.835h-.456l.12.024q-.2.432-.432.9h3.286v.672h-1.079a4.707,4.707,0,0,1-.9,2.062,10.029,10.029,0,0,1,1.44.912,6.738,6.738,0,0,0,2.482-2.255,15.527,15.527,0,0,1-1.127-3.5,8.8,8.8,0,0,1-.936,1.631,4.757,4.757,0,0,0-.647-.528,12.186,12.186,0,0,0,1.979-5.385l.8.12a18.3,18.3,0,0,1-.468,2.087h3.55v.743Zm-8.9-.815a5.888,5.888,0,0,0-.768-1.571l.612-.264a5.794,5.794,0,0,1,.791,1.56Zm.911,4.93c-.18.359-.36.707-.54,1.031.5.2,1.02.431,1.5.672a3.961,3.961,0,0,0,.8-1.7Zm3.251-6.5c-.349.54-.744,1.164-1.068,1.559l-.54-.263a10.648,10.648,0,0,0,.912-1.608Zm1.678,2.459a16.792,16.792,0,0,0,1.1,3.933,13.28,13.28,0,0,0,1.127-4.006H112.14Z"/><path class="cls-4" d="M122.808,139.137l-.492-.791a9.477,9.477,0,0,0,1.02-.144,3.7,3.7,0,0,0,3.106-3.634,3.431,3.431,0,0,0-3.334-3.538,23.529,23.529,0,0,1-.72,3.5c-.731,2.471-1.679,3.694-2.746,3.694-1.019,0-2.087-1.175-2.087-3.154a5.067,5.067,0,0,1,5.193-4.821,4.309,4.309,0,0,1,4.558,4.353C127.306,137.123,125.626,138.778,122.808,139.137Zm-3.13-1.882c.564,0,1.247-.8,1.871-2.914a18.28,18.28,0,0,0,.672-3.3,4.272,4.272,0,0,0-3.838,3.969C118.383,136.571,119.114,137.255,119.678,137.255Z"/><path class="cls-4" d="M135.744,130.442c-.264.456-.564.9-.876,1.356v7.891h-.851v-6.824a15.7,15.7,0,0,1-4.426,3.586,7.534,7.534,0,0,0-.551-.684,14.235,14.235,0,0,0,5.7-5.325h-5.409v-.8h10.255v.8Zm.024,2.064a26.76,26.76,0,0,1,4.126,3.154l-.624.6a26.92,26.92,0,0,0-4.09-3.239Z"/><path class="cls-4" d="M145.213,137.914c-.312-.455-1.079-1.4-1.643-2.051a6.073,6.073,0,0,1-2.063,3.706,2.7,2.7,0,0,0-.54-.575,5.958,5.958,0,0,0,2.039-4.7h-1.979v-.744h2.015V131.51h-1.763v-.72h1.763v-1.883h.756v1.883h1.7v.72h-1.7v2.039h1.943v.744h-1.979c-.012.251-.036.5-.06.767.492.5,1.751,1.907,2.051,2.267Zm5.733.876c.288,0,.336-.193.36-1.608a2.321,2.321,0,0,0,.683.3c-.072,1.619-.263,2.016-.959,2.016h-1.008c-.767,0-.947-.229-.947-1.032v-2.615h-1.139a4.021,4.021,0,0,1-2.867,3.826,2.347,2.347,0,0,0-.456-.587,3.412,3.412,0,0,0,2.579-3.239h-1.007v-6.6h5.085v6.6h-1.452v2.615c0,.276.036.324.312.324Zm-4.018-7.544H150.5v-1.259h-3.574Zm0,1.931H150.5v-1.259h-3.574Zm0,1.955H150.5v-1.3h-3.574Z"/><path class="cls-4" d="M155.294,137.339a7.5,7.5,0,0,1-1.7,2.375,4.692,4.692,0,0,0-.66-.481,6.222,6.222,0,0,0,1.584-2.1Zm2.951-8.1v7.5h-4.594v-7.5Zm-3.838,2.279h3.07v-1.559h-3.07Zm0,2.242h3.07v-1.571h-3.07Zm0,2.255h3.07v-1.594h-3.07Zm2.878,1.127a10.3,10.3,0,0,1,1.379,2.028l-.731.372a9.438,9.438,0,0,0-1.344-2.112Zm3.118-6.931v6.572h-.779v-6.572Zm2.963-1.2v9.607c0,.563-.168.815-.516.947a7.924,7.924,0,0,1-2.123.145,3.777,3.777,0,0,0-.3-.792c.864.024,1.607.011,1.835.011s.312-.084.312-.311v-9.607Z"/><path class="cls-4" d="M169.333,131.21a11.347,11.347,0,0,0,1.931-.455l.024.8a15.633,15.633,0,0,1-2.207.433,21.474,21.474,0,0,1-2.615,5.072l-.827-.431a16.762,16.762,0,0,0,2.579-4.545c-.372.036-.756.048-1.128.048-.444,0-.947-.012-1.391-.037l-.06-.8a13.342,13.342,0,0,0,1.451.072,13.643,13.643,0,0,0,1.391-.061,8.7,8.7,0,0,0,.4-2.086l.948.084C169.705,129.747,169.537,130.5,169.333,131.21Zm3.3,3.047c.012.467.06,1.283.1,2.038a8.259,8.259,0,0,1,2.5,1.487l-.468.732a8.434,8.434,0,0,0-2-1.4c.012.228.012.419.012.575,0,.936-.612,1.692-2.051,1.692-1.295,0-2.351-.5-2.351-1.68,0-1.091,1.056-1.751,2.351-1.751a5.911,5.911,0,0,1,1.236.132c-.049-1-.109-2.206-.133-3.07h.84A11.131,11.131,0,0,0,172.631,134.257ZM170.6,138.61c1.032,0,1.379-.54,1.379-1.187,0-.168,0-.372-.011-.6a4.426,4.426,0,0,0-1.284-.192c-.911,0-1.535.431-1.535,1.007S169.621,138.61,170.6,138.61Zm1.787-6.98.432-.648a16,16,0,0,1,2.771,1.583l-.48.695A14.8,14.8,0,0,0,172.391,131.63Z"/><path class="cls-4" d="M179.03,133.932a8.4,8.4,0,0,0-2.051-1.271l.444-.588a9.168,9.168,0,0,1,2.063,1.2Zm.852,1.7c-.54,1.272-1.259,2.8-1.883,3.911l-.7-.493a36.36,36.36,0,0,0,1.955-3.885Zm-.264-4.8a8.876,8.876,0,0,0-2.027-1.356l.444-.576a8.465,8.465,0,0,1,2.05,1.3Zm8.323,6.931h-1.007v1.079c0,.409-.084.613-.408.733a6.611,6.611,0,0,1-1.763.095,3.564,3.564,0,0,0-.264-.635c.648.023,1.284.023,1.452.011s.239-.047.239-.2V137.77h-4.545v1.9h-.732v-1.9h-1.139v-.659h1.139v-3.059h2.555v-.719h-3.55v-.659h2.146v-.865h-1.391v-.6h1.391v-.839H180.35v-.612h1.714v-.984h.756v.984h2.111v-.984h.756v.984h1.823v.612h-1.823v.839h1.571v.6h-1.571v.865h2.158v.659h-3.622v.719h2.711v3.059h1.007Zm-6.3-3.118v.911h1.823v-.911Zm0,2.459h1.823v-.948h-1.823Zm1.175-5.9h2.111v-.839H182.82Zm0,1.464h2.111v-.865H182.82Zm1.4,1.978v.911h1.967v-.911Zm1.967,2.459v-.948h-1.967v.948Z"/><path class="cls-4" d="M192.554,135.7a17.2,17.2,0,0,0-.984-1.763v5.745h-.731v-5.792a13.583,13.583,0,0,1-1.535,3.526,5.075,5.075,0,0,0-.42-.684,13.614,13.614,0,0,0,1.858-4.593h-1.618v-.745h1.715v-2.614h.731v2.614h1.4v.745h-1.4v.875c.336.432,1.236,1.763,1.428,2.086Zm7.484,2.039h-.78v1.1c0,.4-.084.6-.4.719a5.632,5.632,0,0,1-1.607.12,3.941,3.941,0,0,0-.228-.671c.6.024,1.128.024,1.284.011s.2-.036.2-.179v-1.1h-4.234v1.943h-.719v-1.943h-.84V137.1h.84v-3.022h2.422v-.755h-3.046V132.7h1.691v-.863h-1.176v-.6h1.176v-.84h-1.4v-.611h1.4v-1.008h.731v1.008H197.4v-1.008h.756v1.008h1.511v.611h-1.511v.84h1.331v.6h-1.331v.863h1.751v.624h-3.19v.755h2.542V137.1h.78Zm-5.757-3.046v.888h1.7v-.888Zm0,2.41h1.7v-.935h-1.7Zm1.079-5.864H197.4v-.84H195.36Zm0,1.463H197.4v-.863H195.36Zm1.356,1.991v.888h1.8v-.888Zm1.8,2.41v-.935h-1.8v.935Z"/><path class="cls-4" d="M203.57,137.327a3.542,3.542,0,0,0,3.071,1.379c1.271.059,3.946.024,5.325-.072a2.881,2.881,0,0,0-.264.8c-1.283.061-3.765.084-5.05.036a4.278,4.278,0,0,1-3.441-1.439c-.576.516-1.188,1.044-1.835,1.559l-.432-.791a20.049,20.049,0,0,0,1.859-1.439v-3.119h-1.715v-.755h2.482Zm-.275-5.865a8.244,8.244,0,0,0-2.064-1.908l.588-.479a8.748,8.748,0,0,1,2.1,1.859Zm2.4-.456a7.44,7.44,0,0,1-.947,1.307,3.209,3.209,0,0,0-.683-.384,7.68,7.68,0,0,0,1.762-2.974l.743.168a12.581,12.581,0,0,1-.491,1.187h1.475v-1.523h.792v1.523h2.914v.7h-2.914v1.631h3.442v.7h-7.664v-.7h3.43v-1.631Zm-.479,6.669v-3.359h5.673v3.359Zm.779-.661h4.09v-2.026h-4.09Z"/><path class="cls-4" d="M213.1,136.762l.7-.611a22.682,22.682,0,0,1,2.7,2.675l-.731.623A19.694,19.694,0,0,0,213.1,136.762Z"/><path class="cls-4" d="M227.03,133.932a8.36,8.36,0,0,0-2.051-1.271l.445-.588a9.138,9.138,0,0,1,2.062,1.2Zm.852,1.7c-.539,1.272-1.259,2.8-1.883,3.911l-.695-.493a36.548,36.548,0,0,0,1.955-3.885Zm-.264-4.8a8.89,8.89,0,0,0-2.026-1.356l.443-.576a8.492,8.492,0,0,1,2.051,1.3Zm8.323,6.931h-1.006v1.079c0,.409-.084.613-.409.733a6.6,6.6,0,0,1-1.762.095,3.564,3.564,0,0,0-.264-.635c.647.023,1.283.023,1.451.011s.239-.047.239-.2V137.77h-4.544v1.9h-.732v-1.9h-1.14v-.659h1.14v-3.059h2.555v-.719h-3.551v-.659h2.147v-.865h-1.391v-.6h1.391v-.839H228.35v-.612h1.715v-.984h.755v.984h2.112v-.984h.756v.984h1.822v.612h-1.822v.839h1.57v.6h-1.57v.865h2.158v.659h-3.622v.719h2.711v3.059h1.006Zm-6.3-3.118v.911h1.823v-.911Zm0,2.459h1.823v-.948h-1.823Zm1.174-5.9h2.112v-.839H230.82Zm0,1.464h2.112v-.865H230.82Zm1.4,1.978v.911h1.966v-.911Zm1.966,2.459v-.948h-1.966v.948Z"/><path class="cls-4" d="M243.349,132.134a10.937,10.937,0,0,0,4.689,4.953,3.385,3.385,0,0,0-.6.7,11.918,11.918,0,0,1-4.593-5.013v3.862h2.35v.792h-2.35V139.7h-.816v-2.278h-2.386v-.792h2.386v-3.838a12.685,12.685,0,0,1-4.582,5.013,3.261,3.261,0,0,0-.563-.647,11.618,11.618,0,0,0,4.641-5.025h-4.246v-.792h4.75V128.8h.816v2.542h4.8v.792Z"/><path class="cls-4" d="M259.174,131.725a13.968,13.968,0,0,1-1.511,4.87,5.9,5.9,0,0,0,2.362,2.422,3.138,3.138,0,0,0-.575.684,6.6,6.6,0,0,1-2.279-2.351,7.78,7.78,0,0,1-2.83,2.375,4.594,4.594,0,0,0-.372-.576l-.228.24a11.585,11.585,0,0,0-1.439-.959,6.628,6.628,0,0,1-2.926,1.271,1.865,1.865,0,0,0-.372-.671,6.15,6.15,0,0,0,2.6-.972c-.419-.215-.839-.408-1.271-.588l-.2.348-.684-.264c.277-.467.6-1.079.924-1.714h-1.392v-.672h1.728c.18-.372.359-.732.5-1.056l.336.072V132.4a7.743,7.743,0,0,1-2.171,1.86,2.44,2.44,0,0,0-.444-.6,6.417,6.417,0,0,0,2.375-1.98H249.04v-.671h2.507v-2.231h.743v2.231h2.459v.671H252.29v.1c.516.3,1.823,1.14,2.147,1.38l-.444.575c-.311-.287-1.115-.9-1.7-1.319v1.835h-.456l.12.024c-.132.288-.275.588-.432.9h3.287v.672h-1.08a4.706,4.706,0,0,1-.9,2.062,10.014,10.014,0,0,1,1.439.912,6.749,6.749,0,0,0,2.483-2.255,15.577,15.577,0,0,1-1.128-3.5,8.747,8.747,0,0,1-.936,1.631,4.7,4.7,0,0,0-.647-.528,12.174,12.174,0,0,0,1.979-5.385l.8.12a17.881,17.881,0,0,1-.468,2.087h3.551v.743Zm-8.9-.815a5.882,5.882,0,0,0-.767-1.571l.611-.264a5.8,5.8,0,0,1,.792,1.56Zm.912,4.93c-.18.359-.36.707-.541,1.031.5.2,1.02.431,1.5.672a3.938,3.938,0,0,0,.8-1.7Zm3.25-6.5c-.348.54-.744,1.164-1.068,1.559l-.539-.263a10.642,10.642,0,0,0,.911-1.608Zm1.679,2.459a16.744,16.744,0,0,0,1.1,3.933,13.309,13.309,0,0,0,1.127-4.006H256.14Z"/><path class="cls-4" d="M264.52,137.986h1.966v-6.728h-1.547v-.636a5.005,5.005,0,0,0,1.775-.6h.744v7.964h1.787v.816H264.52Z"/><path class="cls-4" d="M270.64,134.376c0-3.046,1.044-4.509,2.7-4.509s2.675,1.475,2.675,4.509c0,3.07-1.032,4.582-2.675,4.582S270.64,137.446,270.64,134.376Zm4.425,0c0-2.567-.695-3.718-1.727-3.718s-1.751,1.151-1.751,3.718c0,2.615.708,3.79,1.751,3.79S275.065,136.991,275.065,134.376Z"/><path class="cls-4" d="M277.228,134.376c0-3.046,1.043-4.509,2.7-4.509s2.675,1.475,2.675,4.509c0,3.07-1.032,4.582-2.675,4.582S277.228,137.446,277.228,134.376Zm4.425,0c0-2.567-.695-3.718-1.727-3.718s-1.751,1.151-1.751,3.718c0,2.615.708,3.79,1.751,3.79S281.653,136.991,281.653,134.376Z"/><path class="cls-4" d="M283.815,134.376c0-3.046,1.044-4.509,2.7-4.509s2.674,1.475,2.674,4.509c0,3.07-1.031,4.582-2.674,4.582S283.815,137.446,283.815,134.376Zm4.426,0c0-2.567-.695-3.718-1.727-3.718s-1.751,1.151-1.751,3.718c0,2.615.708,3.79,1.751,3.79S288.241,136.991,288.241,134.376Z"/><path class="cls-4" d="M290.4,134.376c0-3.046,1.044-4.509,2.7-4.509s2.674,1.475,2.674,4.509c0,3.07-1.031,4.582-2.674,4.582S290.4,137.446,290.4,134.376Zm4.426,0c0-2.567-.695-3.718-1.727-3.718s-1.751,1.151-1.751,3.718c0,2.615.708,3.79,1.751,3.79S294.829,136.991,294.829,134.376Z"/><path class="cls-4" d="M296.991,134.376c0-3.046,1.044-4.509,2.7-4.509s2.675,1.475,2.675,4.509c0,3.07-1.031,4.582-2.675,4.582S296.991,137.446,296.991,134.376Zm4.426,0c0-2.567-.695-3.718-1.728-3.718s-1.751,1.151-1.751,3.718c0,2.615.708,3.79,1.751,3.79S301.417,136.991,301.417,134.376Z"/><path class="cls-4" d="M312.876,132.134a10.942,10.942,0,0,0,4.689,4.953,3.35,3.35,0,0,0-.6.7,11.914,11.914,0,0,1-4.594-5.013v3.862h2.351v.792h-2.351V139.7h-.815v-2.278H309.17v-.792h2.387v-3.838a12.692,12.692,0,0,1-4.582,5.013,3.234,3.234,0,0,0-.564-.647,11.626,11.626,0,0,0,4.642-5.025h-4.246v-.792h4.75V128.8h.815v2.542h4.8v.792Z"/><path class="cls-4" d="M34.633,155.709a13.007,13.007,0,0,1-1.068,1.583v6.728h-.743v-5.852a14.953,14.953,0,0,1-1.427,1.355,5.891,5.891,0,0,0-.468-.7,11.74,11.74,0,0,0,3-3.37Zm-.288-2.375a11.864,11.864,0,0,1-2.819,2.819,4.247,4.247,0,0,0-.455-.564,9.84,9.84,0,0,0,2.554-2.531Zm4.5,9.595a7.134,7.134,0,0,0,1.044.072c.252,0,1.931,0,2.291-.012a2.279,2.279,0,0,0-.264.755H39.85c-1.859,0-3.154-.443-3.97-2.254a6.112,6.112,0,0,1-1.379,2.519,4.651,4.651,0,0,0-.624-.528c1.2-1.163,1.607-3.023,1.763-5.349l.78.06a20.731,20.731,0,0,1-.264,2.134,3.308,3.308,0,0,0,1.919,2.4v-6.164H35.053v-.768h1.906a15.482,15.482,0,0,0-1.211-2.4l.66-.252a13.2,13.2,0,0,1,1.259,2.375l-.587.276h2.866l-.648-.252a14.781,14.781,0,0,0,1.152-2.494l.779.275a23.581,23.581,0,0,1-1.235,2.471H41.9v.768H38.842v2.446h2.723v.744H38.842Z"/><path class="cls-4" d="M49.607,159.115a12.49,12.49,0,0,0,4.57,3.706,3.744,3.744,0,0,0-.552.66,13.386,13.386,0,0,1-4.594-3.982v4.473H48.2v-4.437a13.426,13.426,0,0,1-4.534,3.91,3.644,3.644,0,0,0-.564-.66,11.96,11.96,0,0,0,4.534-3.67H43.347v-.755H48.2v-3.071H43.922v-.767H48.2v-1.451h.827v1.451h4.4v.767h-4.4v3.071h4.894v.755Zm-3.994-3.5a8.321,8.321,0,0,1,1.164,2.267l-.744.3a9.529,9.529,0,0,0-1.1-2.3Zm4.882,2.363a14.843,14.843,0,0,0,1.235-2.423l.828.276a22.47,22.47,0,0,1-1.392,2.387Z"/><path class="cls-4" d="M59.76,155.637a.864.864,0,1,1,.864.852A.837.837,0,0,1,59.76,155.637Zm0,5.889a.864.864,0,1,1,.864.863A.845.845,0,0,1,59.76,161.526Z"/><path class="cls-4" d="M50.9,175.9a15.869,15.869,0,0,1-1.835,3.586,31.638,31.638,0,0,1,2.974,2.771l-.671.719a29.9,29.9,0,0,0-2.855-2.782,15.076,15.076,0,0,1-4.749,3.91l-.732-.66a13.583,13.583,0,0,0,4.8-3.814,39.148,39.148,0,0,0-3.407-2.446l.552-.672c1.044.672,2.471,1.679,3.394,2.411a13.68,13.68,0,0,0,1.691-3.347,8.729,8.729,0,0,0,.228-.851l.984.336A8.871,8.871,0,0,0,50.9,175.9Z"/><path class="cls-4" d="M56.889,175.364h5.685c.4,0,.708-.011.971-.036v.852c-.287-.012-.551-.024-.971-.024H59.408v2.615h4.113c.252,0,.708-.012.972-.036v.875c-.264-.024-.683-.024-.948-.024H59.408v2.507c0,.587.42.983,1.547.983a26.484,26.484,0,0,0,3.166-.168l-.06.888c-.947.072-2.062.12-3.214.12-1.739,0-2.326-.612-2.326-1.547v-2.783h-2.4c-.3,0-.768.012-1.092.036v-.9c.324.024.78.048,1.092.048h2.4v-2.615H56.889c-.408,0-.755.012-1.067.024v-.852C56.134,175.353,56.481,175.364,56.889,175.364Z"/><path class="cls-4" d="M69.261,175.664v3.994c0,.312.024.7.048.9h-.983a7.62,7.62,0,0,0,.059-.9v-3.994c0-.216-.024-.635-.048-.851h.972C69.285,175.029,69.261,175.4,69.261,175.664Zm5.577.073V177.6c0,2.939-.372,3.862-1.235,4.894a6.2,6.2,0,0,1-2.843,1.75l-.7-.731a5.459,5.459,0,0,0,2.867-1.619c.851-1.007,1-1.991,1-4.33v-1.822a7.84,7.84,0,0,0-.06-1.008h1.008Q74.838,175.143,74.838,175.737Z"/><path class="cls-4" d="M84.919,175.425c-.264.455-.564.9-.876,1.355v7.892h-.851v-6.825a15.667,15.667,0,0,1-4.426,3.586,7.257,7.257,0,0,0-.551-.683,14.258,14.258,0,0,0,5.7-5.325H78.5v-.8H88.757v.8Zm.024,2.063a26.76,26.76,0,0,1,4.126,3.154l-.624.6A26.982,26.982,0,0,0,84.355,178Z"/><path class="cls-4" d="M96.08,183.568a10.682,10.682,0,0,0,2.122.18c.36.012,2.447,0,2.926,0a3.046,3.046,0,0,0-.3.767H98.166c-2.554,0-4.389-.467-5.5-2.6a6.035,6.035,0,0,1-1.883,2.794,4.189,4.189,0,0,0-.563-.551c1.451-1.092,2.027-3.13,2.206-4.857l.84.095a13.671,13.671,0,0,1-.288,1.5,3.8,3.8,0,0,0,2.291,2.447v-4.965H91.7v-4.018H99.81v4.018H96.08v1.919h4.053v.743H96.08Zm-3.587-5.961h6.489v-2.482H92.493Z"/><path class="cls-4" d="M103.642,175.892c.743-.084,3.058-.323,5.265-.5,1.319-.107,2.41-.179,3.2-.2l.012.851a9.335,9.335,0,0,0-2.35.192,4.309,4.309,0,0,0-2.8,3.874c0,2.41,2.243,3.166,4.186,3.238l-.312.864c-2.171-.072-4.725-1.224-4.725-3.91a4.9,4.9,0,0,1,2.326-4.114c-1.319.144-4.473.444-5.757.708l-.108-.936C103.042,175.94,103.414,175.916,103.642,175.892Zm7.735,3.347-.563.263a10.965,10.965,0,0,0-.983-1.7l.551-.24A14.923,14.923,0,0,1,111.377,179.239Zm1.356-.516-.564.276a11.835,11.835,0,0,0-1.019-1.679l.539-.265A14.9,14.9,0,0,1,112.733,178.723Z"/><path class="cls-4" d="M118.844,176.408h-4.7v-.648h4.7Zm-.48,7.58H115.4v.576h-.708v-4.018h3.67Zm-3.657-6.632H118.4V178h-3.693Zm0,1.594H118.4v.648h-3.693Zm3.693-4.113h-3.634v-.648H118.4Zm-3,6.381v2.122h2.243v-2.122Zm9.81-2.579H122.49v6.044h-.8v-6.044h-2.843v-.78h2.843v-4.066h.8v4.066h2.722Z"/><path class="cls-4" d="M136.949,182.656h-2.771v2.016h-.8v-2.016h-3.322c-.3.744-1.092,1.476-3.011,2.051a3.025,3.025,0,0,0-.5-.6,4.125,4.125,0,0,0,2.614-1.452h-2.819v-.671h3.083c.012-.12.024-.252.024-.348v-.755H127.8v-4.414h1.343a7.3,7.3,0,0,0-.623-1.127h-.684a8.749,8.749,0,0,1-1.08,1.307,4.337,4.337,0,0,0-.648-.444,6.613,6.613,0,0,0,1.752-2.483l.744.192c-.109.264-.241.516-.373.768h3.25v.66h-2.134a5.052,5.052,0,0,1,.491.875l-.659.252h2.351a5.238,5.238,0,0,0-.66-.384,5.653,5.653,0,0,0,1.655-2.363l.756.168a6.609,6.609,0,0,1-.348.792h3.91v.66h-2.387a6.015,6.015,0,0,1,.612.839l-.624.288h1.224v4.414h-1.488v1.1h2.771Zm-8.36-4.905h6.261v-.731h-6.261Zm0,1.272h6.261v-.732h-6.261Zm0,1.307h6.261v-.768h-6.261Zm4.786,1.655v-1.1h-3.13v.779a2.907,2.907,0,0,1-.013.324Zm-.84-6.644a6.51,6.51,0,0,1-.959,1.127h2.806a5.891,5.891,0,0,0-.816-1.127Z"/><path class="cls-4" d="M148.589,174.333v10.374h-.816v-.575h-8.3v.575h-.78V174.333Zm-.816,9.067v-8.311h-8.3V183.4Zm-3.418-5.433a7.4,7.4,0,0,0,2.926,3.418,2.078,2.078,0,0,0-.527.588,8.386,8.386,0,0,1-2.795-3.478v4.222h-.743v-4.162A8.762,8.762,0,0,1,140.505,182a2.759,2.759,0,0,0-.5-.552,7.936,7.936,0,0,0,2.819-3.478h-2.591v-.7h2.987v-1.716h.743v1.716h3.154v.7Z"/><path class="cls-4" d="M161.116,184.048h-4.233v.648h-.732v-6.837a6.655,6.655,0,0,1-.456.732,4.3,4.3,0,0,0-.467-.4v.936h-1.979v.779h2.015v.624h-2.015v.24c0,.2-.012.42-.024.635h2.327v.66H153.1l-.048.168c.612.4,1.931,1.355,2.3,1.619l-.479.659c-.42-.383-1.4-1.175-2.074-1.667a4.29,4.29,0,0,1-2.22,1.871,3.032,3.032,0,0,0-.5-.551,3.479,3.479,0,0,0,2.242-2.1H150.19v-.66h2.28a6.472,6.472,0,0,0,.036-.648v-.227h-1.9v-.624h1.9v-.779h-1.932V176.66h4.654V177.9a13.615,13.615,0,0,0,1.751-4.126l.732.168a19.911,19.911,0,0,1-.7,2.111h1.391a16.735,16.735,0,0,0,.78-2.159l.767.192c-.239.648-.527,1.38-.791,1.967h1.822v.732H159.2v1.691h1.7v.695h-1.7v1.716h1.7v.695h-1.7v1.751h1.919Zm-9.69-8.492h-1.175V174.9h1.175v-1.139h.708V174.9h1.571v-1.139h.707V174.9h1.164v.659h-1.164v.828h-.707v-.828h-1.571v.828h-.708Zm-.216,2.987h1.319v-1.307H151.21Zm3.358-1.307H153.2v1.307h1.367Zm3.9-.456h-1.583v1.691h1.583Zm0,2.386h-1.583v1.716h1.583Zm-1.583,4.162h1.583v-1.751h-1.583Z"/><path class="cls-4" d="M202.4,156.405a10.949,10.949,0,0,0,4.69,4.953,3.354,3.354,0,0,0-.6.695,11.926,11.926,0,0,1-4.594-5.013V160.9h2.351v.792H201.9v2.278h-.815v-2.278H198.7V160.9h2.387v-3.838a12.69,12.69,0,0,1-4.581,5.013,3.323,3.323,0,0,0-.564-.647,11.618,11.618,0,0,0,4.641-5.025h-4.245v-.792h4.749v-2.542h.815v2.542h4.8v.792Z"/><path class="cls-4" d="M208.166,153.718h4.174v.744h-1.884a20.4,20.4,0,0,1-.768,2.914h2.423v5.085h-2.434v.972h-.684v-4.45a7.331,7.331,0,0,1-.659,1.032,3.682,3.682,0,0,0-.372-.8,11.735,11.735,0,0,0,1.739-4.749h-1.535ZM211.4,158.1h-1.727v3.646H211.4Zm7.556.671h-1.367v5.205h-.756v-5.205h-2.063a7.671,7.671,0,0,1-1.7,5.253,3.067,3.067,0,0,0-.624-.455,7.019,7.019,0,0,0,1.572-4.8h-1.344v-.755h1.344v-3.538H213v-.756h5.732v.756h-1.138v3.538h1.367Zm-2.123-.755v-3.538h-2.063v3.538Z"/><path class="cls-4" d="M229.8,163.133c.335,0,.4-.228.432-1.8a2.377,2.377,0,0,0,.754.336c-.084,1.787-.3,2.231-1.1,2.231H228.6c-.852,0-1.1-.228-1.1-1.14v-2.687h-2.387c-.215,1.428-1.139,2.963-4.5,3.922a3.55,3.55,0,0,0-.527-.635c3.058-.851,3.958-2.135,4.2-3.287h-3.393v-.755h3.477v-1.487h.8v1.487h3.143v3.442c0,.324.059.372.407.372Zm-5.314-8.24c-.276,2-1.044,3.119-3.754,3.695a2.021,2.021,0,0,0-.419-.636c2.47-.48,3.106-1.391,3.334-3.059h-2.387v1.368h-.779v-2.1h4.629v-1.115h.791v1.115h4.726v2.015h-.815v-1.284h-2.6v2.195c0,.288.071.324.516.324h1.594c.336,0,.409-.108.445-.911a2.411,2.411,0,0,0,.707.3c-.1,1.067-.323,1.331-1.079,1.331h-1.74c-.983,0-1.235-.2-1.235-1.032v-2.207Z"/><path class="cls-4" d="M236.64,155.637a.863.863,0,1,1,.863.852A.836.836,0,0,1,236.64,155.637Zm0,5.889a.863.863,0,1,1,.863.863A.844.844,0,0,1,236.64,161.526Z"/><path class="cls-4" d="M210.356,175.772l.948.192c-.073.252-.145.564-.2.816a24.294,24.294,0,0,1-1.1,3.778,17.179,17.179,0,0,1-1.763,3.274l-.9-.384a15.682,15.682,0,0,0,1.835-3.25A17.9,17.9,0,0,0,210.356,175.772Zm2.987.168.851-.3c.467.864,1.235,2.483,1.751,3.778.492,1.2,1.127,3.023,1.451,4.09l-.948.3a34.7,34.7,0,0,0-1.367-4.1A34.226,34.226,0,0,0,213.343,175.94Zm3.321-1.8a1.326,1.326,0,1,1,0,2.651,1.326,1.326,0,1,1,0-2.651Zm0,2.135a.814.814,0,0,0,.816-.8.816.816,0,0,0-1.631,0A.806.806,0,0,0,216.664,176.276Z"/><path class="cls-4" d="M222.9,178.615l-.84.479a31.567,31.567,0,0,0-1.991-3.441l.828-.42C221.421,175.988,222.476,177.847,222.9,178.615Zm3.082,1.307a10.31,10.31,0,0,0,1.511-3.958,5.112,5.112,0,0,0,.084-.9l1.068.144a8.171,8.171,0,0,0-.216.863,12.183,12.183,0,0,1-1.644,4.294,9.926,9.926,0,0,1-4.269,3.706l-.791-.672A9.193,9.193,0,0,0,225.978,179.922Z"/><path class="cls-4" d="M233.876,175.677h5.889c.276,0,.612,0,.864-.013-.013.264-.036.624-.036.888v6.2c0,.431.036.959.048,1.1h-.96c0-.108.012-.372.024-.672h-5.936c-.493,0-1.008.024-1.32.048v-.983a11.726,11.726,0,0,0,1.295.072h5.961v-5.793h-5.816c-.433,0-1.02.024-1.285.036v-.948C232.988,175.653,233.492,175.677,233.876,175.677Z"/><path class="cls-4" d="M249.078,181.313a11.116,11.116,0,0,0,3.946-4.377l.516.911a12.06,12.06,0,0,1-3.958,4.234,13.23,13.23,0,0,1-4.773,1.9l-.552-.876A12.239,12.239,0,0,0,249.078,181.313Zm-.839-3.79-.66.672a25.111,25.111,0,0,0-2.986-2.5l.612-.647A25.211,25.211,0,0,1,248.239,177.523Z"/><path class="cls-4" d="M258.573,182.968h1.967V176.24h-1.547V175.6a5.039,5.039,0,0,0,1.776-.6h.743v7.963H263.3v.816h-4.726Z"/><path class="cls-4" d="M277.792,179.047a8.822,8.822,0,0,0-.888-1.176c-3.261.18-6.752.312-8.947.408l-.06-.8c.528-.011,1.128-.036,1.788-.06a24.225,24.225,0,0,0,2.05-3.681l.864.3a34.534,34.534,0,0,1-1.979,3.347c1.7-.06,3.682-.144,5.625-.241a21.5,21.5,0,0,0-1.643-1.523l.612-.443a15.614,15.614,0,0,1,3.25,3.346Zm-8.467.587h7.531v5.014h-.827v-.5h-5.9v.539h-.8Zm.8.768v2.986h5.9V180.4Z"/><path class="cls-4" d="M281.108,175.892c.745-.084,3.059-.323,5.266-.5,1.319-.107,2.41-.179,3.2-.2l.012.851a9.347,9.347,0,0,0-2.351.192,4.311,4.311,0,0,0-2.794,3.874c0,2.41,2.243,3.166,4.186,3.238l-.312.864c-2.171-.072-4.725-1.224-4.725-3.91a4.9,4.9,0,0,1,2.326-4.114c-1.319.144-4.474.444-5.757.708l-.107-.936C280.509,175.94,280.881,175.916,281.108,175.892Zm7.737,3.347-.564.263a10.965,10.965,0,0,0-.983-1.7l.552-.24A15.229,15.229,0,0,1,288.845,179.239Zm1.355-.516-.564.276a11.743,11.743,0,0,0-1.019-1.679l.539-.265A14.9,14.9,0,0,1,290.2,178.723Z"/><path class="cls-4" d="M296.312,176.408h-4.7v-.648h4.7Zm-.481,7.58h-2.962v.576h-.708v-4.018h3.67Zm-3.657-6.632h3.693V178h-3.693Zm0,1.594h3.693v.648h-3.693Zm3.693-4.113h-3.634v-.648h3.634Zm-3,6.381v2.122h2.242v-2.122Zm9.811-2.579h-2.723v6.044h-.8v-6.044h-2.841v-.78h2.841v-4.066h.8v4.066h2.723Z"/><path class="cls-4" d="M314.416,182.656h-2.77v2.016h-.8v-2.016H307.52c-.3.744-1.092,1.476-3.011,2.051a2.959,2.959,0,0,0-.5-.6,4.122,4.122,0,0,0,2.614-1.452H303.8v-.671h3.082c.012-.12.023-.252.023-.348v-.755h-1.642v-4.414h1.343a7.143,7.143,0,0,0-.624-1.127H305.3a8.807,8.807,0,0,1-1.079,1.307,4.4,4.4,0,0,0-.649-.444,6.613,6.613,0,0,0,1.752-2.483l.743.192c-.108.264-.24.516-.372.768h3.25v.66h-2.134a5.2,5.2,0,0,1,.492.875l-.66.252h2.35a5.227,5.227,0,0,0-.659-.384,5.662,5.662,0,0,0,1.655-2.363l.755.168a6.609,6.609,0,0,1-.348.792h3.911v.66h-2.387a6,6,0,0,1,.611.839l-.623.288h1.223v4.414h-1.486v1.1h2.77Zm-8.359-4.905h6.259v-.731h-6.259Zm0,1.272h6.259v-.732h-6.259Zm0,1.307h6.259v-.768h-6.259Zm4.785,1.655v-1.1h-3.131v.779a3.148,3.148,0,0,1-.012.324Zm-.84-6.644a6.554,6.554,0,0,1-.959,1.127h2.806a5.935,5.935,0,0,0-.816-1.127Z"/><path class="cls-4" d="M326.416,175.425h-1.487v8.083c0,.6-.157.876-.588,1.02a10.407,10.407,0,0,1-2.447.144,5.171,5.171,0,0,0-.348-.864c.983.048,1.943.036,2.231.024.252-.012.336-.1.336-.336v-8.071h-8.3v-.8h10.6Zm-8.588,6.236v.959h-.767v-5.373h4.845v4.414Zm0-3.658v2.9h3.3V178Z"/><path class="cls-4" d="M331.771,174.6a12.191,12.191,0,0,1,1.607,2.65l-.684.312a6.724,6.724,0,0,0-.323-.719c-1.7.107-3.442.18-4.678.252l-.072-.768.9-.036a18.761,18.761,0,0,0,1.151-2.519l.8.192c-.336.744-.732,1.608-1.116,2.3.8-.036,1.7-.084,2.615-.12a14.718,14.718,0,0,0-.852-1.283Zm.78,9.139c0,.42-.084.66-.4.779a5.224,5.224,0,0,1-1.583.133,3.081,3.081,0,0,0-.276-.732c.6.024,1.1.024,1.283.012.145,0,.192-.048.192-.2v-1.5H329.1v2.447h-.743V178h4.2Zm-3.454-5.049v1.091h2.674v-1.091Zm2.674,2.89v-1.163H329.1v1.163Zm3.334-2.6c-1.1,0-1.391-.251-1.391-1.163v-4.03h.792v2.051a20.062,20.062,0,0,0,2.866-1.151l.552.588a25.339,25.339,0,0,1-3.418,1.211V177.8c0,.372.084.444.647.444h2c.48,0,.564-.192.612-1.4a2.371,2.371,0,0,0,.731.312c-.107,1.439-.348,1.822-1.27,1.822Zm2.159,4.894c.528,0,.612-.24.66-1.607a2.566,2.566,0,0,0,.72.311c-.1,1.584-.336,1.992-1.32,1.992h-2.195c-1.115,0-1.415-.228-1.415-1.164v-4.078h.78v1.943a14.043,14.043,0,0,0,3.034-1.271l.528.6a17.384,17.384,0,0,1-3.562,1.344V183.4c0,.4.108.468.695.468Z"/><line class="cls-5" x1="28.804" y1="100.321" x2="28.804" y2="109.421"/><polygon class="cls-4" points="27.788 108.727 28.804 112.522 29.821 108.727 27.788 108.727"/><line class="cls-5" x1="44.652" y1="100.321" x2="44.652" y2="109.421"/><polygon class="cls-4" points="43.635 108.727 44.652 112.522 45.669 108.727 43.635 108.727"/><line class="cls-5" x1="63.957" y1="100.321" x2="63.957" y2="109.421"/><polygon class="cls-4" points="62.94 108.727 63.957 112.522 64.973 108.727 62.94 108.727"/><line class="cls-5" x1="84.239" y1="100.321" x2="84.239" y2="109.421"/><polygon class="cls-4" points="83.222 108.727 84.239 112.522 85.256 108.727 83.222 108.727"/><line class="cls-5" x1="100.217" y1="100.321" x2="100.217" y2="109.421"/><polygon class="cls-4" points="99.201 108.727 100.217 112.522 101.234 108.727 99.201 108.727"/><line class="cls-5" x1="313.094" y1="100.321" x2="326.233" y2="110.61"/><polygon class="cls-4" points="325.06 110.983 328.674 112.522 326.314 109.382 325.06 110.983"/><line class="cls-5" x1="342.239" y1="100.321" x2="342.239" y2="109.421"/><polygon class="cls-4" points="341.222 108.727 342.239 112.522 343.256 108.727 341.222 108.727"/><path d="M36.1,45.059l.647.347a7.475,7.475,0,0,0,0,10.7l-.647.347a7.991,7.991,0,0,1,0-11.393Z"/><path d="M38.809,51.427c.575-.587,1.643-1.942,2.375-2.818.635-.744,1.163-.875,1.966-.12.72.684,1.764,1.775,2.459,2.519.816.851,2,2.158,2.926,3.142l-.731.779c-.864-1.043-1.931-2.266-2.711-3.142-.7-.779-1.811-1.979-2.339-2.483-.467-.455-.7-.419-1.115.1-.6.719-1.631,2.05-2.182,2.722-.241.288-.492.648-.672.887l-.8-.815C38.281,51.943,38.5,51.739,38.809,51.427Zm7.879-2.314-.635.288a13.174,13.174,0,0,0-1.115-1.919l.623-.264A17.707,17.707,0,0,1,46.688,49.113Zm1.572-.636-.624.312a15.607,15.607,0,0,0-1.152-1.9l.6-.288A16.786,16.786,0,0,1,48.26,48.477Z"/><path d="M55.174,46.894c-.095.192-.2.384-.323.588h3.394a2.025,2.025,0,0,0,.743-.108l.72.431a3.8,3.8,0,0,0-.264.6,11.691,11.691,0,0,1-2.123,4.15,10.6,10.6,0,0,1-4.773,3.25L51.78,55.1a9.666,9.666,0,0,0,4.785-3.01,10.228,10.228,0,0,0,1.956-3.838H54.347A11.606,11.606,0,0,1,51.3,51.212l-.743-.552a9.9,9.9,0,0,0,3.778-4.078,4.859,4.859,0,0,0,.348-.9l.983.324C55.486,46.294,55.294,46.678,55.174,46.894Z"/><path d="M65.4,47.278a8.582,8.582,0,0,0-.084-1.212h1.056a10.649,10.649,0,0,0-.084,1.212v2a38.945,38.945,0,0,1,5.145,1.99l-.372.9a32.222,32.222,0,0,0-4.773-1.955c.012,1.847.012,3.73.012,4.054,0,.384.024.995.06,1.379H65.327A9.981,9.981,0,0,0,65.4,54.27Z"/><path d="M76.248,52.063a21.089,21.089,0,0,0,.36-4.845,4.168,4.168,0,0,0-.072-.828h.983c-.012.156-.06.492-.06.828a25.325,25.325,0,0,1-.372,5.085,6.575,6.575,0,0,1-2.122,3.262l-.8-.539A5.7,5.7,0,0,0,76.248,52.063Zm3.466,2.363v-7.22a6.507,6.507,0,0,0-.06-.864h.984a7.353,7.353,0,0,0-.049.864v7.04a9.389,9.389,0,0,0,3.6-3.023l.5.72A11.925,11.925,0,0,1,80.6,55.277a1.848,1.848,0,0,0-.4.264l-.564-.48A3.3,3.3,0,0,0,79.714,54.426Z"/><path d="M90.887,47.829H87.013v1.715h-.708v-2.3h4.582V46.45H86.965v-.635h8.683v.635H91.654v.791h4.678v2.3h-.744V47.829H91.654v2.783h-.767Zm4.377,7.628c.648,0,.756-.216.828-1.451a2.218,2.218,0,0,0,.7.276c-.12,1.451-.384,1.811-1.475,1.811H92.494c-1.272,0-1.632-.2-1.632-1.14v-.42H88.068v.636h-.755V51.031h8.059v3.5H91.606v.433c0,.407.156.491.924.491Zm-7.82-5.709h2.8v.528h-2.8Zm2.8-.7H87.672v-.527h2.567Zm-2.171,2.579v.876h2.794v-.876Zm2.794,2.3v-.876H88.068v.876Zm3.719-2.3H91.606v.876h2.975Zm0,2.3v-.876H91.606v.876Zm.359-5.409v.527H92.326v-.527Zm-2.614,1.223h2.9v.528h-2.9Z"/><path d="M99.433,54.822v.935h-.684v-3.97a8.575,8.575,0,0,1-.552,1.044,7.763,7.763,0,0,0-.48-.672,13.883,13.883,0,0,0,1.559-5.325H97.885v-.72h3.958v.72H100.02a27.493,27.493,0,0,1-.552,2.83h2.111v5.158Zm1.463-4.45H99.433v3.742H100.9Zm7.4,5.757a7.132,7.132,0,0,0-.168-.732c-1.007.144-2,.312-2.818.432l-.024-.072-.623.264q-.036-.288-.108-.648c-1.116.168-2.219.324-3.095.444l-.156-.72c.192-.012.4-.036.612-.06.4-.635.839-1.427,1.259-2.255a10.353,10.353,0,0,0-1.523-1.978l.384-.564c.084.084.18.18.264.276a16.344,16.344,0,0,0,.935-2.363l.732.2c-.36.863-.828,1.919-1.223,2.651a10.291,10.291,0,0,1,.779,1.055c.36-.732.684-1.463.924-2.1l.671.252a50.138,50.138,0,0,1-2.434,4.726c.539-.06,1.115-.133,1.7-.217a13.474,13.474,0,0,0-.492-1.486l.587-.229a13.873,13.873,0,0,1,.7,2.1h.06c.4-.611.84-1.4,1.271-2.23a10,10,0,0,0-1.475-1.979l.384-.54c.084.084.156.168.24.252a17.108,17.108,0,0,0,.935-2.447l.732.2c-.372.888-.827,1.979-1.235,2.735a11.366,11.366,0,0,1,.779,1.043c.36-.743.7-1.487.948-2.135l.671.24A45.339,45.339,0,0,1,106.017,55l1.907-.251a13.58,13.58,0,0,0-.624-1.535l.6-.252a11.3,11.3,0,0,1,1.031,2.878Zm-4.761-8.791a7.218,7.218,0,0,0-.851-1.727l.647-.24a6.759,6.759,0,0,1,.936,1.859l-.264.108h2.339l-.144-.048a13.81,13.81,0,0,0,.839-1.943l.792.24c-.276.587-.612,1.259-.9,1.751h1.859v.7h-7.04v-.7Z"/><path d="M116.938,50.42a8.481,8.481,0,0,0,3.849,2.135,3.623,3.623,0,0,0-.539.684,8.818,8.818,0,0,1-4.222-2.819H114.67a9.68,9.68,0,0,1-4.233,2.866,3.034,3.034,0,0,0-.528-.659,9.094,9.094,0,0,0,3.814-2.207h-2.482V45.682h8.143V50.42ZM113.1,52.063h.8v.708c0,1.151-.276,2.578-2.579,3.514a3.334,3.334,0,0,0-.551-.624c2.123-.816,2.327-2,2.327-2.914Zm-1.068-4.354h2.855V46.366h-2.855Zm0,2.027h2.855V48.357h-2.855Zm6.525-3.37H115.69v1.343h2.867Zm0,1.991H115.69v1.379h2.867Zm-1.643,3.694h.815V56.2h-.815Z"/><path d="M122.509,56.452l-.648-.347a7.473,7.473,0,0,0,0-10.7l.648-.347a7.991,7.991,0,0,1,0,11.393Z"/><polygon class="cls-6" points="183.399 170.099 176.399 163.073 176.399 177.124 183.399 170.099"/><polyline class="cls-7" points="376 114.358 344.412 114.358 344.412 120.348 339.859 120.348 339.859 114.358 333.239 114.358 333.239 120.348 325.644 120.348 325.644 114.358 317.893 114.358 317.893 120.348 311.822 120.348 311.822 114.358 304.87 114.358 304.87 120.348 297.521 120.348 297.521 114.358 293.007 114.358 293.007 120.348 280.785 120.348 280.785 114.358 274.235 114.358 274.235 120.348 266.887 120.348 266.887 114.358 257.861 114.358 257.861 120.348 251.79 120.348 251.79 114.358 248.24 114.358 248.24 120.348 240.891 120.348 240.891 114.358 227.783 114.358 227.783 120.348 219.076 120.348 219.076 114.358 216.337 114.358 216.337 120.348 207.337 120.348 207.337 114.358 192.956 114.358 192.956 120.348 183.956 120.348 183.956 114.358 176.717 114.358 176.717 120.348 161.75 120.348 161.75 114.358 150.891 114.358 150.891 120.348 145.315 120.348 145.315 114.358 137.929 114.358 137.929 120.348 125.456 120.348 125.456 114.358 118.413 114.358 118.413 120.348 110.978 120.348 110.978 114.358 104.913 114.358 104.913 120.348 95.913 120.348 95.913 114.358 91.609 114.358 91.609 120.348 76.641 120.348 76.641 114.358 68.62 114.358 68.62 120.348 59.62 120.348 59.62 114.358 48.565 114.358 48.565 120.348 41.13 120.348 41.13 114.358 33.109 114.358 33.109 120.348 24.109 120.348 24.109 114.358 0 114.358"/></svg>