<svg id="レイヤー_1" data-name="レイヤー 1" xmlns="http://www.w3.org/2000/svg" viewBox="0 0 378 200"><defs><style>.cls-1{fill:#b7b7b7;}.cls-2,.cls-3{fill:none;stroke-miterlimit:10;}.cls-2{stroke:#121212;}.cls-3{stroke:#000;}.cls-4{fill:#333;}.cls-5{fill:red;}</style></defs><polygon class="cls-1" points="4.148 112.035 8.968 104.341 19.376 121.05 23.816 113.123 35.028 129.305 39.047 121.163 51.09 136.734 54.687 128.397 67.513 143.338 70.677 134.825 84.248 149.087 86.971 140.427 101.257 153.972 103.534 145.18 118.494 157.981 120.339 149.082 135.905 161.138 137.283 152.165 153.459 163.385 154.377 154.352 171.107 164.738 171.563 155.665 188.798 165.179 188.798 156.099 206.489 164.737 206.026 155.668 224.135 163.393 223.227 154.352 241.692 161.183 240.316 152.209 259.112 158.061 257.279 149.17 276.353 154.058 274.065 145.269 293.361 149.174 290.627 140.517 310.097 143.425 306.924 134.919 326.52 136.829 322.93 128.481 342.595 129.433 338.58 121.293 358.266 121.212 353.839 113.285 373.501 112.203 368.673 104.509 377 103.622 377 200 1 200 1 106.355 4.148 112.035"/><polyline class="cls-2" points="1 106.355 4.148 112.035 8.968 104.341 19.376 121.05 23.816 113.123 35.028 129.305 39.047 121.163 51.09 136.734 54.687 128.397 67.513 143.338 70.677 134.825 84.248 149.087 86.971 140.427 101.257 153.972 103.534 145.18 118.494 157.981 120.339 149.082 135.905 161.138 137.283 152.165 153.459 163.385 154.377 154.352 171.107 164.738 171.563 155.665 188.798 165.179 188.798 156.099 206.489 164.737 206.026 155.668 224.135 163.393 223.227 154.352 241.692 161.183 240.316 152.209 259.112 158.061 257.279 149.17 276.353 154.058 274.065 145.269 293.361 149.174 290.627 140.517 310.097 143.425 306.924 134.919 326.52 136.829 322.93 128.481 342.595 129.433 338.58 121.293 358.266 121.212 353.839 113.285 373.501 112.203 368.673 104.509 377 103.622"/><line class="cls-3" x1="95.709" y1="22.681" x2="144.966" y2="71.938"/><polygon points="141.51 72.591 151.23 78.202 145.619 68.482 141.51 72.591"/><line class="cls-3" x1="208.514" y1="95.094" x2="274.662" y2="28.945"/><polygon points="275.315 32.401 280.926 22.681 271.206 28.292 275.315 32.401"/><line class="cls-3" x1="236.782" y1="91.654" x2="287.115" y2="67.107"/><polygon points="286.608 70.587 295.078 63.224 284.061 65.364 286.608 70.587"/><line class="cls-3" x1="205.354" y1="77.439" x2="223.616" y2="36.868"/><polygon points="225.452 39.867 227.252 28.789 220.153 37.482 225.452 39.867"/><path class="cls-4" d="M33.429,74.136v-8.59h1.136v8.59Z"/><path class="cls-4" d="M36.435,74.136V67.913h.949V68.8a2.236,2.236,0,0,1,1.98-1.026,2.592,2.592,0,0,1,1.034.2,1.614,1.614,0,0,1,.706.53,2.031,2.031,0,0,1,.329.779,6.064,6.064,0,0,1,.058,1.026v3.826H40.437V70.351a2.813,2.813,0,0,0-.124-.964,1.013,1.013,0,0,0-.436-.51,1.388,1.388,0,0,0-.735-.191,1.708,1.708,0,0,0-1.163.428,2.106,2.106,0,0,0-.49,1.623v3.4Z"/><path class="cls-4" d="M47.169,71.856l1.037.135a2.687,2.687,0,0,1-.87,1.679,2.536,2.536,0,0,1-1.72.606,2.669,2.669,0,0,1-2.053-.835,3.384,3.384,0,0,1-.777-2.393,4.327,4.327,0,0,1,.334-1.764,2.332,2.332,0,0,1,1.017-1.134,3.015,3.015,0,0,1,1.485-.378,2.579,2.579,0,0,1,1.658.513,2.349,2.349,0,0,1,.826,1.456l-1.025.158a1.7,1.7,0,0,0-.518-.943,1.344,1.344,0,0,0-.9-.316,1.637,1.637,0,0,0-1.295.571,2.712,2.712,0,0,0-.5,1.808,2.8,2.8,0,0,0,.481,1.822,1.562,1.562,0,0,0,1.253.568,1.479,1.479,0,0,0,1.038-.381A1.889,1.889,0,0,0,47.169,71.856Z"/><path class="cls-4" d="M49.114,66.759V65.546h1.055v1.213Zm0,7.377V67.913h1.055v6.223Z"/><path class="cls-4" d="M55.812,74.136v-.785a1.937,1.937,0,0,1-1.741.925,2.435,2.435,0,0,1-1.368-.41,2.7,2.7,0,0,1-.967-1.145,3.971,3.971,0,0,1-.342-1.691,4.424,4.424,0,0,1,.31-1.69,2.447,2.447,0,0,1,.932-1.163,2.487,2.487,0,0,1,1.388-.405,2.079,2.079,0,0,1,1.717.856V65.546H56.79v8.59ZM52.478,71.03a2.706,2.706,0,0,0,.5,1.787,1.519,1.519,0,0,0,1.19.592,1.492,1.492,0,0,0,1.175-.565,2.609,2.609,0,0,0,.483-1.726,2.929,2.929,0,0,0-.492-1.875,1.516,1.516,0,0,0-1.213-.6,1.462,1.462,0,0,0-1.175.575A2.834,2.834,0,0,0,52.478,71.03Z"/><path class="cls-4" d="M62.708,72.132l1.09.135a2.662,2.662,0,0,1-.955,1.482,3.239,3.239,0,0,1-3.947-.313,3.288,3.288,0,0,1-.8-2.359,3.437,3.437,0,0,1,.808-2.437,2.736,2.736,0,0,1,2.1-.868,2.661,2.661,0,0,1,2.039.85,3.376,3.376,0,0,1,.791,2.391c0,.062,0,.156-.006.281h-4.64a2.389,2.389,0,0,0,.58,1.57,1.726,1.726,0,0,0,1.3.545,1.611,1.611,0,0,0,.991-.305A2.023,2.023,0,0,0,62.708,72.132Zm-3.463-1.7H62.72a2.107,2.107,0,0,0-.4-1.178,1.616,1.616,0,0,0-1.306-.609,1.676,1.676,0,0,0-1.222.486A1.925,1.925,0,0,0,59.245,70.427Z"/><path class="cls-4" d="M65.122,74.136V67.913h.949V68.8a2.237,2.237,0,0,1,1.981-1.026,2.6,2.6,0,0,1,1.034.2,1.62,1.62,0,0,1,.706.53,2.03,2.03,0,0,1,.328.779,6.034,6.034,0,0,1,.059,1.026v3.826H69.124V70.351A2.842,2.842,0,0,0,69,69.387a1.015,1.015,0,0,0-.437-.51,1.388,1.388,0,0,0-.735-.191,1.71,1.71,0,0,0-1.163.428,2.11,2.11,0,0,0-.489,1.623v3.4Z"/><path class="cls-4" d="M74.1,73.192l.152.932a3.955,3.955,0,0,1-.8.094,1.806,1.806,0,0,1-.891-.182,1.021,1.021,0,0,1-.445-.477,3.782,3.782,0,0,1-.129-1.246v-3.58h-.773v-.82h.773V66.372l1.049-.633v2.174H74.1v.82H73.038v3.639a1.837,1.837,0,0,0,.056.58.438.438,0,0,0,.181.2.7.7,0,0,0,.361.076A3.337,3.337,0,0,0,74.1,73.192Z"/><path class="cls-4" d="M79.612,74.136l-1.9-6.223H78.8l.99,3.592.369,1.336q.024-.1.322-1.283l.991-3.645h1.084l.931,3.609.311,1.19.357-1.2,1.067-3.6h1.025L84.3,74.136H83.2l-.99-3.727-.24-1.06-1.26,4.787Z"/><path class="cls-4" d="M91.19,73.368a3.9,3.9,0,0,1-1.127.7,3.261,3.261,0,0,1-1.164.2,2.262,2.262,0,0,1-1.576-.5,1.653,1.653,0,0,1-.551-1.28,1.733,1.733,0,0,1,.753-1.441,2.552,2.552,0,0,1,.759-.346,7.536,7.536,0,0,1,.938-.158,9.655,9.655,0,0,0,1.881-.364c0-.144.005-.236.005-.275a1.164,1.164,0,0,0-.3-.908,1.768,1.768,0,0,0-1.2-.358,1.858,1.858,0,0,0-1.1.261,1.6,1.6,0,0,0-.525.923l-1.031-.141a2.56,2.56,0,0,1,.463-1.069,2.035,2.035,0,0,1,.932-.627,4.166,4.166,0,0,1,1.412-.22,3.738,3.738,0,0,1,1.3.188,1.7,1.7,0,0,1,.732.472,1.651,1.651,0,0,1,.328.717,5.953,5.953,0,0,1,.053.973v1.406a14.95,14.95,0,0,0,.067,1.861,2.358,2.358,0,0,0,.267.747H91.4A2.265,2.265,0,0,1,91.19,73.368ZM91.1,71.013a7.736,7.736,0,0,1-1.723.4,4.017,4.017,0,0,0-.92.211.913.913,0,0,0-.416.343.93.93,0,0,0,.173,1.2,1.375,1.375,0,0,0,.934.281,2.179,2.179,0,0,0,1.084-.266,1.644,1.644,0,0,0,.7-.73A2.553,2.553,0,0,0,91.1,71.4Z"/><path class="cls-4" d="M95.532,74.136l-2.367-6.223h1.113l1.336,3.727q.218.6.4,1.254.139-.494.392-1.184l1.383-3.8h1.084l-2.355,6.223Z"/><path class="cls-4" d="M104.063,72.132l1.09.135a2.662,2.662,0,0,1-.955,1.482,3.237,3.237,0,0,1-3.946-.313,3.288,3.288,0,0,1-.8-2.359,3.437,3.437,0,0,1,.809-2.437,2.734,2.734,0,0,1,2.1-.868,2.661,2.661,0,0,1,2.039.85,3.372,3.372,0,0,1,.791,2.391c0,.062,0,.156,0,.281h-4.641a2.389,2.389,0,0,0,.58,1.57,1.728,1.728,0,0,0,1.3.545,1.606,1.606,0,0,0,.99-.305A2.016,2.016,0,0,0,104.063,72.132Zm-3.462-1.7h3.474a2.107,2.107,0,0,0-.4-1.178,1.618,1.618,0,0,0-1.307-.609,1.679,1.679,0,0,0-1.222.486A1.924,1.924,0,0,0,100.6,70.427Z"/><path class="cls-5" d="M277.462,36.766c0-2.927,1.883-4.642,4.126-4.642a3.619,3.619,0,0,1,2.6,1.14l-.923,1.127a2.339,2.339,0,0,0-1.643-.744c-1.344,0-2.352,1.152-2.352,3.059,0,1.931.913,3.094,2.316,3.094a2.453,2.453,0,0,0,1.835-.875l.935,1.1a3.589,3.589,0,0,1-2.831,1.307C279.285,41.335,277.462,39.728,277.462,36.766Z"/><path class="cls-5" d="M285.31,39.345c0-1.44,1.163-2.2,3.874-2.483-.037-.66-.325-1.164-1.152-1.164a3.787,3.787,0,0,0-1.846.636l-.636-1.163a5.361,5.361,0,0,1,2.806-.888c1.7,0,2.579,1.02,2.579,2.963v3.921H289.5l-.12-.719h-.048a3.154,3.154,0,0,1-2.026.887A1.908,1.908,0,0,1,285.31,39.345Zm3.874-.049V37.941c-1.644.2-2.2.66-2.2,1.26,0,.527.372.755.888.755A1.826,1.826,0,0,0,289.184,39.3Z"/><path class="cls-5" d="M292.737,39.285V31.6H294.5v7.759c0,.408.181.54.348.54a.994.994,0,0,0,.24-.024l.216,1.308a2.352,2.352,0,0,1-.911.155C293.169,41.335,292.737,40.532,292.737,39.285Z"/><path class="cls-5" d="M296.1,37.81a3.35,3.35,0,0,1,3.429-3.527,2.937,2.937,0,0,1,1.955.744l-.839,1.139a1.528,1.528,0,0,0-1.02-.443c-1.031,0-1.727.827-1.727,2.087s.708,2.086,1.667,2.086a2.087,2.087,0,0,0,1.308-.54l.707,1.164a3.386,3.386,0,0,1-2.207.815A3.213,3.213,0,0,1,296.1,37.81Z"/><path class="cls-5" d="M302.769,38.649v-4.2h1.763v3.97c0,1.032.287,1.4.936,1.4a1.619,1.619,0,0,0,1.367-.839V34.451H308.6v6.716h-1.44l-.132-.959h-.047a2.7,2.7,0,0,1-2.135,1.127C303.393,41.335,302.769,40.328,302.769,38.649Z"/><path class="cls-5" d="M310.484,39.285V31.6h1.764v7.759c0,.408.18.54.348.54a.994.994,0,0,0,.24-.024l.216,1.308a2.358,2.358,0,0,1-.912.155C310.917,41.335,310.484,40.532,310.484,39.285Z"/><path class="cls-5" d="M313.929,39.345c0-1.44,1.163-2.2,3.874-2.483-.036-.66-.324-1.164-1.152-1.164a3.787,3.787,0,0,0-1.846.636l-.636-1.163a5.362,5.362,0,0,1,2.807-.888c1.7,0,2.578,1.02,2.578,2.963v3.921h-1.44l-.12-.719h-.048a3.151,3.151,0,0,1-2.026.887A1.908,1.908,0,0,1,313.929,39.345ZM317.8,39.3V37.941c-1.644.2-2.2.66-2.2,1.26,0,.527.372.755.888.755A1.826,1.826,0,0,0,317.8,39.3Z"/><path class="cls-5" d="M321.608,38.817V35.842h-.947V34.535l1.043-.084.2-1.811h1.463v1.811h1.655v1.391h-1.655v2.975c0,.767.313,1.127.912,1.127a1.952,1.952,0,0,0,.659-.144l.288,1.283a4.315,4.315,0,0,1-1.415.252C322.22,41.335,321.608,40.316,321.608,38.817Z"/><path class="cls-5" d="M326.253,32.4a1.027,1.027,0,1,1,1.031.972A.945.945,0,0,1,326.253,32.4Zm.143,2.051h1.763v6.716H326.4Z"/><path class="cls-5" d="M329.625,37.81a3.239,3.239,0,1,1,6.452,0,3.239,3.239,0,1,1-6.452,0Zm4.653,0c0-1.26-.515-2.087-1.427-2.087s-1.427.827-1.427,2.087.515,2.086,1.427,2.086S334.278,39.081,334.278,37.81Z"/><path class="cls-5" d="M337.556,34.451H339l.132.888h.036a3.1,3.1,0,0,1,2.183-1.056c1.451,0,2.075,1.007,2.075,2.7v4.185h-1.763V37.2c0-1.044-.288-1.4-.948-1.4a1.888,1.888,0,0,0-1.391.756v4.617h-1.763Z"/><path class="cls-5" d="M347.552,37.81a3.239,3.239,0,1,1,6.452,0,3.239,3.239,0,1,1-6.452,0Zm4.653,0c0-1.26-.516-2.087-1.427-2.087s-1.427.827-1.427,2.087.515,2.086,1.427,2.086S352.205,39.081,352.205,37.81Z"/><path class="cls-5" d="M355.783,35.842h-.9V34.535l.9-.072v-.551a2.179,2.179,0,0,1,2.339-2.483,3.834,3.834,0,0,1,1.272.228l-.325,1.307a1.905,1.905,0,0,0-.708-.144c-.527,0-.815.312-.815,1.055v.576h1.26v1.391h-1.26v5.325h-1.763Z"/><path class="cls-5" d="M277.378,54.81c0-2.184,1.367-3.527,2.818-3.527a2.309,2.309,0,0,1,1.7.732l-.059-1.056V48.6h1.751v9.57h-1.428l-.132-.7h-.048a2.784,2.784,0,0,1-1.859.863C278.457,58.335,277.378,57.016,277.378,54.81Zm4.462,1.378v-2.95a1.812,1.812,0,0,0-1.26-.5c-.756,0-1.392.72-1.392,2.063,0,1.391.5,2.087,1.392,2.087A1.53,1.53,0,0,0,281.84,56.188Z"/><path class="cls-5" d="M285.346,49.4a1.026,1.026,0,1,1,1.031.972A.946.946,0,0,1,285.346,49.4Zm.143,2.051h1.764v6.716h-1.764Z"/><path class="cls-5" d="M293.623,52.842H291.2v5.325h-1.762V52.842h-.9V51.535l.9-.072V51a2.2,2.2,0,0,1,2.422-2.435,3.735,3.735,0,0,1,1.343.251l-.323,1.308a1.828,1.828,0,0,0-.816-.168c-.515,0-.864.348-.864,1.044v.455h2.423v-.539a2.175,2.175,0,0,1,2.327-2.483,3.84,3.84,0,0,1,1.283.228l-.324,1.307a1.965,1.965,0,0,0-.72-.144c-.527,0-.815.312-.815,1.055v.576h1.272v1.391h-1.272v5.325h-1.751Z"/><path class="cls-5" d="M297.777,51.451h1.44l.132,1.188h.036a2.325,2.325,0,0,1,1.906-1.356,1.9,1.9,0,0,1,.792.144l-.3,1.523a2.24,2.24,0,0,0-.708-.108c-.527,0-1.163.348-1.535,1.32v4.005h-1.763Z"/><path class="cls-5" d="M302.674,56.345c0-1.44,1.163-2.2,3.873-2.483-.035-.66-.323-1.164-1.151-1.164a3.793,3.793,0,0,0-1.847.636l-.636-1.163a5.365,5.365,0,0,1,2.807-.888c1.7,0,2.579,1.02,2.579,2.963v3.921h-1.44l-.12-.719h-.048a3.154,3.154,0,0,1-2.027.887A1.907,1.907,0,0,1,302.674,56.345Zm3.873-.049V54.941c-1.643.2-2.194.66-2.194,1.26,0,.527.372.755.887.755A1.824,1.824,0,0,0,306.547,56.3Z"/><path class="cls-5" d="M309.682,54.81a3.35,3.35,0,0,1,3.429-3.527,2.937,2.937,0,0,1,1.955.744l-.839,1.139a1.528,1.528,0,0,0-1.02-.443c-1.031,0-1.727.827-1.727,2.087s.708,2.086,1.667,2.086a2.087,2.087,0,0,0,1.308-.54l.707,1.164a3.386,3.386,0,0,1-2.207.815A3.213,3.213,0,0,1,309.682,54.81Z"/><path class="cls-5" d="M316.677,55.817V52.842h-.948V51.535l1.043-.084.2-1.811h1.462v1.811H320.1v1.391h-1.656v2.975c0,.767.313,1.127.913,1.127a1.963,1.963,0,0,0,.659-.144l.288,1.283a4.32,4.32,0,0,1-1.415.252C317.288,58.335,316.677,57.316,316.677,55.817Z"/><path class="cls-5" d="M321.045,54.81a3.292,3.292,0,0,1,3.131-3.527c1.846,0,2.805,1.356,2.805,3.2a3.268,3.268,0,0,1-.084.816H322.76a1.765,1.765,0,0,0,1.859,1.679,2.767,2.767,0,0,0,1.511-.468l.6,1.08a4.228,4.228,0,0,1-2.337.743A3.26,3.26,0,0,1,321.045,54.81Zm4.426-.685c0-.9-.408-1.475-1.272-1.475a1.512,1.512,0,0,0-1.463,1.475Z"/><path class="cls-5" d="M328.053,54.81c0-2.184,1.367-3.527,2.818-3.527a2.309,2.309,0,0,1,1.7.732l-.059-1.056V48.6h1.751v9.57h-1.428l-.132-.7h-.048a2.784,2.784,0,0,1-1.859.863C329.132,58.335,328.053,57.016,328.053,54.81Zm4.462,1.378v-2.95a1.814,1.814,0,0,0-1.26-.5c-.756,0-1.392.72-1.392,2.063,0,1.391.5,2.087,1.392,2.087A1.53,1.53,0,0,0,332.515,56.188Z"/><path class="cls-5" d="M338.265,51.451h1.763l.732,3.31c.132.66.216,1.3.336,1.967h.048c.131-.671.252-1.319.419-1.967l.816-3.31h1.559l.839,3.31c.157.66.277,1.3.42,1.967h.06c.12-.671.216-1.307.336-1.967l.731-3.31h1.632L346.3,58.167h-2.075l-.707-2.926c-.145-.636-.252-1.247-.384-1.955h-.061c-.132.708-.227,1.331-.372,1.955l-.683,2.926H340Z"/><path class="cls-5" d="M348.909,56.345c0-1.44,1.163-2.2,3.873-2.483-.035-.66-.323-1.164-1.151-1.164a3.8,3.8,0,0,0-1.847.636l-.636-1.163a5.365,5.365,0,0,1,2.807-.888c1.7,0,2.579,1.02,2.579,2.963v3.921H353.1l-.12-.719h-.048a3.159,3.159,0,0,1-2.028.887A1.907,1.907,0,0,1,348.909,56.345Zm3.873-.049V54.941c-1.642.2-2.194.66-2.194,1.26,0,.527.372.755.888.755A1.822,1.822,0,0,0,352.782,56.3Z"/><path class="cls-5" d="M355.557,51.451h1.775l.983,3.346c.18.66.36,1.355.54,2.039h.06c.18-.684.359-1.379.54-2.039l.983-3.346h1.691l-2.242,6.716h-2.039Z"/><path class="cls-5" d="M362.828,54.81a3.292,3.292,0,0,1,3.131-3.527c1.847,0,2.806,1.356,2.806,3.2a3.316,3.316,0,0,1-.084.816h-4.138A1.766,1.766,0,0,0,366.4,56.98a2.764,2.764,0,0,0,1.511-.468l.6,1.08a4.231,4.231,0,0,1-2.338.743A3.26,3.26,0,0,1,362.828,54.81Zm4.426-.685c0-.9-.408-1.475-1.272-1.475a1.511,1.511,0,0,0-1.462,1.475Z"/><path class="cls-5" d="M369.584,57.388l.8-1.1a2.917,2.917,0,0,0,1.8.731c.671,0,.971-.288.971-.707,0-.5-.695-.732-1.4-1.008-.852-.324-1.8-.84-1.8-1.967,0-1.2.972-2.051,2.507-2.051a3.721,3.721,0,0,1,2.278.828l-.792,1.067a2.5,2.5,0,0,0-1.438-.576c-.613,0-.9.264-.9.648,0,.492.623.672,1.331.936.888.335,1.871.779,1.871,2.026,0,1.176-.923,2.123-2.674,2.123A4.265,4.265,0,0,1,369.584,57.388Z"/><path class="cls-4" d="M8.678,89.7a8.768,8.768,0,0,1-1.23-2.149,6.741,6.741,0,0,1-.127-4.775,9.35,9.35,0,0,1,1.357-2.461h.63q-.591,1.015-.781,1.45a7.893,7.893,0,0,0-.469,1.406,8.17,8.17,0,0,0-.21,1.836A8.817,8.817,0,0,0,9.308,89.7Z"/><path class="cls-4" d="M13.878,85.926l.909.113a2.218,2.218,0,0,1-.8,1.235,2.394,2.394,0,0,1-1.485.439,2.372,2.372,0,0,1-1.8-.7,2.741,2.741,0,0,1-.666-1.966,2.866,2.866,0,0,1,.673-2.031,2.282,2.282,0,0,1,1.749-.723,2.218,2.218,0,0,1,1.7.708,2.819,2.819,0,0,1,.659,1.993c0,.052,0,.13-.005.234H10.944a2,2,0,0,0,.483,1.309,1.442,1.442,0,0,0,1.084.454,1.347,1.347,0,0,0,.825-.254A1.687,1.687,0,0,0,13.878,85.926Zm-2.885-1.421h2.895a1.757,1.757,0,0,0-.332-.981,1.349,1.349,0,0,0-1.089-.508,1.4,1.4,0,0,0-1.018.405A1.6,1.6,0,0,0,10.993,84.505Z"/><path class="cls-4" d="M15.871,87.6V80.438h.879V87.6Z"/><path class="cls-4" d="M21.662,85.926l.908.113a2.218,2.218,0,0,1-.8,1.235,2.391,2.391,0,0,1-1.484.439,2.374,2.374,0,0,1-1.8-.7,2.741,2.741,0,0,1-.666-1.966,2.862,2.862,0,0,1,.674-2.031,2.279,2.279,0,0,1,1.748-.723,2.218,2.218,0,0,1,1.7.708,2.819,2.819,0,0,1,.659,1.993c0,.052,0,.13,0,.234H18.727a2,2,0,0,0,.483,1.309,1.442,1.442,0,0,0,1.084.454,1.348,1.348,0,0,0,.826-.254A1.694,1.694,0,0,0,21.662,85.926Zm-2.886-1.421h2.895a1.757,1.757,0,0,0-.332-.981,1.348,1.348,0,0,0-1.089-.508,1.4,1.4,0,0,0-1.018.405A1.608,1.608,0,0,0,18.776,84.505Z"/><path class="cls-4" d="M27.057,85.7l.864.112a2.239,2.239,0,0,1-.725,1.4,2.11,2.11,0,0,1-1.433.5,2.228,2.228,0,0,1-1.711-.695,2.826,2.826,0,0,1-.647-2,3.62,3.62,0,0,1,.278-1.47,1.944,1.944,0,0,1,.847-.945,2.516,2.516,0,0,1,1.238-.315,2.152,2.152,0,0,1,1.382.428,1.956,1.956,0,0,1,.688,1.213l-.854.132a1.428,1.428,0,0,0-.432-.786,1.119,1.119,0,0,0-.75-.264,1.365,1.365,0,0,0-1.079.476A2.258,2.258,0,0,0,24.308,85a2.337,2.337,0,0,0,.4,1.519,1.305,1.305,0,0,0,1.045.474,1.23,1.23,0,0,0,.865-.318A1.574,1.574,0,0,0,27.057,85.7Z"/><path class="cls-4" d="M30.592,86.81l.127.776a3.2,3.2,0,0,1-.664.079,1.5,1.5,0,0,1-.742-.152.846.846,0,0,1-.371-.4,3.126,3.126,0,0,1-.108-1.037V83.094H28.19v-.683h.644V81.126l.874-.527v1.812h.884v.683h-.884v3.032a1.528,1.528,0,0,0,.047.484.367.367,0,0,0,.151.171.589.589,0,0,0,.3.063A2.812,2.812,0,0,0,30.592,86.81Z"/><path class="cls-4" d="M31.442,87.6V82.411h.791V83.2a2.145,2.145,0,0,1,.559-.728.978.978,0,0,1,.564-.176,1.713,1.713,0,0,1,.9.284l-.3.815a1.258,1.258,0,0,0-.645-.19.835.835,0,0,0-.518.173.946.946,0,0,0-.327.481,3.44,3.44,0,0,0-.146,1.025V87.6Z"/><path class="cls-4" d="M34.455,85a2.674,2.674,0,0,1,.8-2.133,2.41,2.41,0,0,1,1.631-.577,2.326,2.326,0,0,1,1.748.7,2.663,2.663,0,0,1,.679,1.936,3.431,3.431,0,0,1-.3,1.575,2.127,2.127,0,0,1-.874.891,2.553,2.553,0,0,1-1.253.317,2.332,2.332,0,0,1-1.76-.7A2.786,2.786,0,0,1,34.455,85Zm.9,0a2.213,2.213,0,0,0,.434,1.492,1.447,1.447,0,0,0,2.183,0,2.261,2.261,0,0,0,.435-1.519,2.143,2.143,0,0,0-.437-1.457,1.45,1.45,0,0,0-2.181,0A2.2,2.2,0,0,0,35.358,85Z"/><path class="cls-4" d="M40.343,87.6V82.411h.786v.727a1.857,1.857,0,0,1,.65-.613,1.828,1.828,0,0,1,.923-.232,1.7,1.7,0,0,1,.944.24,1.282,1.282,0,0,1,.521.669,1.86,1.86,0,0,1,1.6-.909,1.58,1.58,0,0,1,1.187.428,1.827,1.827,0,0,1,.415,1.316V87.6H46.5V84.33a2.4,2.4,0,0,0-.086-.76.73.73,0,0,0-.31-.373.964.964,0,0,0-.527-.142,1.223,1.223,0,0,0-.908.364,1.6,1.6,0,0,0-.362,1.164V87.6h-.879V84.227a1.476,1.476,0,0,0-.215-.879.813.813,0,0,0-.7-.293,1.28,1.28,0,0,0-.686.195,1.108,1.108,0,0,0-.456.572,3.222,3.222,0,0,0-.142,1.084V87.6Z"/><path class="cls-4" d="M52.057,86.957a3.271,3.271,0,0,1-.94.585,2.713,2.713,0,0,1-.969.171,1.889,1.889,0,0,1-1.314-.417,1.378,1.378,0,0,1-.459-1.067,1.415,1.415,0,0,1,.174-.7,1.439,1.439,0,0,1,.454-.5,2.132,2.132,0,0,1,.632-.288,6.145,6.145,0,0,1,.782-.132,8.088,8.088,0,0,0,1.567-.3c0-.12,0-.2,0-.229a.97.97,0,0,0-.249-.757,1.469,1.469,0,0,0-1-.3,1.552,1.552,0,0,0-.916.217,1.328,1.328,0,0,0-.437.769l-.859-.117A2.113,2.113,0,0,1,48.913,83a1.693,1.693,0,0,1,.776-.522,3.439,3.439,0,0,1,1.177-.184,3.116,3.116,0,0,1,1.079.157,1.415,1.415,0,0,1,.61.393,1.378,1.378,0,0,1,.274.6,4.981,4.981,0,0,1,.044.81v1.172a12.354,12.354,0,0,0,.056,1.551,1.942,1.942,0,0,0,.222.622h-.918A1.861,1.861,0,0,1,52.057,86.957Zm-.073-1.963a6.5,6.5,0,0,1-1.436.332,3.332,3.332,0,0,0-.766.175.769.769,0,0,0-.347.286.757.757,0,0,0-.122.418.748.748,0,0,0,.266.585,1.141,1.141,0,0,0,.779.235,1.812,1.812,0,0,0,.9-.222,1.363,1.363,0,0,0,.581-.608,2.115,2.115,0,0,0,.142-.879Z"/><path class="cls-4" d="M54.074,88.026l.854.127a.816.816,0,0,0,.3.576,1.462,1.462,0,0,0,.894.244,1.567,1.567,0,0,0,.942-.244,1.2,1.2,0,0,0,.449-.684,5.586,5.586,0,0,0,.064-1.128,1.808,1.808,0,0,1-1.436.679,1.957,1.957,0,0,1-1.655-.771,2.97,2.97,0,0,1-.586-1.851,3.431,3.431,0,0,1,.269-1.37,2.15,2.15,0,0,1,.778-.969,2.1,2.1,0,0,1,1.2-.342,1.86,1.86,0,0,1,1.514.743v-.625h.81v4.482a4.26,4.26,0,0,1-.246,1.716,1.81,1.81,0,0,1-.782.8,2.706,2.706,0,0,1-1.315.293,2.486,2.486,0,0,1-1.5-.418A1.412,1.412,0,0,1,54.074,88.026Zm.727-3.115a2.251,2.251,0,0,0,.406,1.489,1.287,1.287,0,0,0,1.015.469,1.3,1.3,0,0,0,1.016-.467,2.178,2.178,0,0,0,.41-1.462,2.132,2.132,0,0,0-.422-1.436,1.309,1.309,0,0,0-1.018-.483,1.272,1.272,0,0,0-1,.476A2.117,2.117,0,0,0,54.8,84.911Z"/><path class="cls-4" d="M59.8,87.6V82.411h.791v.737a1.865,1.865,0,0,1,1.651-.855,2.177,2.177,0,0,1,.862.169,1.353,1.353,0,0,1,.588.442,1.7,1.7,0,0,1,.273.649,4.988,4.988,0,0,1,.049.855V87.6h-.879V84.442a2.377,2.377,0,0,0-.1-.8.848.848,0,0,0-.364-.425,1.154,1.154,0,0,0-.613-.159,1.423,1.423,0,0,0-.969.357,1.755,1.755,0,0,0-.408,1.352V87.6Z"/><path class="cls-4" d="M68.908,85.926l.908.113a2.218,2.218,0,0,1-.8,1.235,2.7,2.7,0,0,1-3.289-.261,2.741,2.741,0,0,1-.666-1.966,2.867,2.867,0,0,1,.674-2.031,2.28,2.28,0,0,1,1.748-.723,2.216,2.216,0,0,1,1.7.708,2.819,2.819,0,0,1,.659,1.993c0,.052,0,.13,0,.234H65.973a2,2,0,0,0,.484,1.309,1.439,1.439,0,0,0,1.084.454,1.347,1.347,0,0,0,.825-.254A1.694,1.694,0,0,0,68.908,85.926Zm-2.886-1.421h2.895a1.75,1.75,0,0,0-.332-.981,1.347,1.347,0,0,0-1.088-.508,1.394,1.394,0,0,0-1.018.405A1.6,1.6,0,0,0,66.022,84.505Z"/><path class="cls-4" d="M72.838,86.81l.127.776a3.194,3.194,0,0,1-.664.079,1.5,1.5,0,0,1-.742-.152.846.846,0,0,1-.371-.4,3.135,3.135,0,0,1-.107-1.037V83.094h-.645v-.683h.645V81.126l.874-.527v1.812h.883v.683h-.883v3.032A1.538,1.538,0,0,0,72,86.61a.373.373,0,0,0,.151.171.589.589,0,0,0,.3.063A2.812,2.812,0,0,0,72.838,86.81Z"/><path class="cls-4" d="M73.7,81.449V80.438h.879v1.011Zm0,6.147V82.411h.879V87.6Z"/><path class="cls-4" d="M79.3,85.7l.864.112a2.234,2.234,0,0,1-.725,1.4,2.11,2.11,0,0,1-1.433.5,2.228,2.228,0,0,1-1.711-.695,2.826,2.826,0,0,1-.647-2,3.62,3.62,0,0,1,.278-1.47,1.944,1.944,0,0,1,.847-.945,2.516,2.516,0,0,1,1.238-.315,2.152,2.152,0,0,1,1.382.428,1.956,1.956,0,0,1,.688,1.213l-.854.132a1.428,1.428,0,0,0-.432-.786,1.119,1.119,0,0,0-.75-.264,1.365,1.365,0,0,0-1.079.476A2.258,2.258,0,0,0,76.554,85a2.337,2.337,0,0,0,.4,1.519A1.3,1.3,0,0,0,78,86.991a1.229,1.229,0,0,0,.864-.318A1.574,1.574,0,0,0,79.3,85.7Z"/><path class="cls-4" d="M83.908,87.6v-4.5h-.777v-.683h.777v-.552A2.425,2.425,0,0,1,84,81.082a1.128,1.128,0,0,1,.447-.554,1.617,1.617,0,0,1,.9-.212,4.276,4.276,0,0,1,.821.088l-.132.766a3,3,0,0,0-.518-.048.774.774,0,0,0-.566.17.927.927,0,0,0-.166.64v.479h1.01v.683h-1.01v4.5Z"/><path class="cls-4" d="M86.481,81.449V80.438h.879v1.011Zm0,6.147V82.411h.879V87.6Z"/><path class="cls-4" d="M92.248,85.926l.908.113a2.218,2.218,0,0,1-.8,1.235,2.7,2.7,0,0,1-3.289-.261,2.741,2.741,0,0,1-.666-1.966,2.862,2.862,0,0,1,.674-2.031,2.279,2.279,0,0,1,1.748-.723,2.218,2.218,0,0,1,1.7.708,2.819,2.819,0,0,1,.659,1.993c0,.052,0,.13,0,.234H89.313a2,2,0,0,0,.483,1.309,1.442,1.442,0,0,0,1.084.454,1.348,1.348,0,0,0,.826-.254A1.694,1.694,0,0,0,92.248,85.926Zm-2.886-1.421h2.9a1.757,1.757,0,0,0-.332-.981,1.348,1.348,0,0,0-1.089-.508,1.4,1.4,0,0,0-1.018.405A1.6,1.6,0,0,0,89.362,84.505Z"/><path class="cls-4" d="M94.24,87.6V80.438h.879V87.6Z"/><path class="cls-4" d="M99.845,87.6v-.654a1.612,1.612,0,0,1-1.45.771,2.031,2.031,0,0,1-1.14-.341,2.249,2.249,0,0,1-.806-.955,3.307,3.307,0,0,1-.285-1.409,3.694,3.694,0,0,1,.258-1.408,2.047,2.047,0,0,1,.777-.97,2.081,2.081,0,0,1,1.157-.337,1.729,1.729,0,0,1,.835.2,1.756,1.756,0,0,1,.6.515V80.438h.874V87.6Zm-2.778-2.588a2.254,2.254,0,0,0,.42,1.49,1.268,1.268,0,0,0,.991.493,1.245,1.245,0,0,0,.979-.472,2.166,2.166,0,0,0,.4-1.437,2.442,2.442,0,0,0-.41-1.563,1.263,1.263,0,0,0-1.011-.5,1.22,1.22,0,0,0-.979.478A2.362,2.362,0,0,0,97.067,85.008Z"/><path class="cls-4" d="M106.261,87.6l-1.972-5.185h.927l1.114,3.105q.18.5.332,1.045.117-.41.327-.986l1.152-3.164h.9L107.082,87.6Z"/><path class="cls-4" d="M113.371,85.926l.908.113a2.218,2.218,0,0,1-.8,1.235,2.393,2.393,0,0,1-1.484.439,2.369,2.369,0,0,1-1.8-.7,2.737,2.737,0,0,1-.667-1.966,2.862,2.862,0,0,1,.674-2.031,2.28,2.28,0,0,1,1.748-.723,2.218,2.218,0,0,1,1.7.708,2.819,2.819,0,0,1,.659,1.993c0,.052,0,.13-.005.234h-3.867a1.989,1.989,0,0,0,.483,1.309,1.443,1.443,0,0,0,1.084.454,1.348,1.348,0,0,0,.826-.254A1.7,1.7,0,0,0,113.371,85.926Zm-2.886-1.421h2.895a1.75,1.75,0,0,0-.332-.981,1.348,1.348,0,0,0-1.089-.508,1.4,1.4,0,0,0-1.018.405A1.608,1.608,0,0,0,110.485,84.505Z"/><path class="cls-4" d="M118.766,85.7l.864.112a2.239,2.239,0,0,1-.725,1.4,2.11,2.11,0,0,1-1.433.5,2.231,2.231,0,0,1-1.712-.695,2.83,2.83,0,0,1-.646-2,3.62,3.62,0,0,1,.278-1.47,1.944,1.944,0,0,1,.847-.945,2.516,2.516,0,0,1,1.238-.315,2.152,2.152,0,0,1,1.382.428,1.952,1.952,0,0,1,.688,1.213l-.854.132a1.417,1.417,0,0,0-.433-.786,1.115,1.115,0,0,0-.749-.264,1.365,1.365,0,0,0-1.079.476A2.264,2.264,0,0,0,116.017,85a2.343,2.343,0,0,0,.4,1.519,1.3,1.3,0,0,0,1.045.474,1.234,1.234,0,0,0,.865-.318A1.569,1.569,0,0,0,118.766,85.7Z"/><path class="cls-4" d="M122.3,86.81l.127.776a3.2,3.2,0,0,1-.664.079,1.5,1.5,0,0,1-.742-.152.841.841,0,0,1-.371-.4,3.155,3.155,0,0,1-.108-1.037V83.094H119.9v-.683h.644V81.126l.874-.527v1.812h.884v.683h-.884v3.032a1.57,1.57,0,0,0,.046.484.372.372,0,0,0,.153.171.585.585,0,0,0,.3.063A2.812,2.812,0,0,0,122.3,86.81Z"/><path class="cls-4" d="M122.833,85a2.671,2.671,0,0,1,.8-2.133,2.412,2.412,0,0,1,1.631-.577,2.326,2.326,0,0,1,1.748.7,2.667,2.667,0,0,1,.679,1.936,3.444,3.444,0,0,1-.3,1.575,2.129,2.129,0,0,1-.875.891,2.549,2.549,0,0,1-1.252.317,2.334,2.334,0,0,1-1.76-.7A2.787,2.787,0,0,1,122.833,85Zm.9,0a2.207,2.207,0,0,0,.434,1.492,1.447,1.447,0,0,0,2.183,0,2.261,2.261,0,0,0,.435-1.519,2.138,2.138,0,0,0-.438-1.457,1.449,1.449,0,0,0-2.18,0A2.2,2.2,0,0,0,123.737,85Z"/><path class="cls-4" d="M128.712,87.6V82.411h.791V83.2a2.145,2.145,0,0,1,.56-.728.973.973,0,0,1,.563-.176,1.717,1.717,0,0,1,.9.284l-.3.815a1.257,1.257,0,0,0-.644-.19.833.833,0,0,0-.518.173.94.94,0,0,0-.327.481,3.408,3.408,0,0,0-.147,1.025V87.6Z"/><path class="cls-4" d="M132.628,89.7H132a8.815,8.815,0,0,0,1.459-4.693,8.069,8.069,0,0,0-.209-1.821,7.722,7.722,0,0,0-.464-1.406A16.442,16.442,0,0,0,132,80.316h.629a9.326,9.326,0,0,1,1.358,2.461,6.721,6.721,0,0,1-.13,4.775A8.9,8.9,0,0,1,132.628,89.7Z"/><path class="cls-4" d="M59.6,177v-7.874h1.568l1.864,5.575q.258.779.376,1.166c.09-.287.229-.707.419-1.263l1.885-5.478h1.4V177h-1v-6.59L63.821,177h-.94L60.6,170.3V177Z"/><path class="cls-4" d="M72.409,177v-.838a2.086,2.086,0,0,1-1.81.967,2.3,2.3,0,0,1-.942-.194,1.553,1.553,0,0,1-.651-.486,1.837,1.837,0,0,1-.3-.717,4.942,4.942,0,0,1-.059-.9V171.3h.967v3.163a5.68,5.68,0,0,0,.059,1.021,1.013,1.013,0,0,0,.387.6,1.2,1.2,0,0,0,.73.217,1.589,1.589,0,0,0,.817-.223,1.238,1.238,0,0,0,.54-.606,3.067,3.067,0,0,0,.158-1.115V171.3h.967V177Z"/><path class="cls-4" d="M74.767,177v-7.874h.967V177Z"/><path class="cls-4" d="M79.343,176.138l.14.854a3.61,3.61,0,0,1-.731.086,1.662,1.662,0,0,1-.816-.166.93.93,0,0,1-.408-.438,3.458,3.458,0,0,1-.118-1.142v-3.281H76.7V171.3h.709v-1.413l.961-.58V171.3h.972v.752h-.972v3.335a1.687,1.687,0,0,0,.051.532.4.4,0,0,0,.166.188.655.655,0,0,0,.331.07A3.163,3.163,0,0,0,79.343,176.138Z"/><path class="cls-4" d="M80.294,170.241v-1.112h.967v1.112Zm0,6.762v-5.7h.967V177Z"/><path class="cls-4" d="M82.732,179.189V171.3h.881v.741a2.166,2.166,0,0,1,.7-.652,1.921,1.921,0,0,1,.951-.218,2.255,2.255,0,0,1,1.289.376,2.308,2.308,0,0,1,.843,1.06,3.872,3.872,0,0,1,.285,1.5,3.828,3.828,0,0,1-.314,1.577,2.386,2.386,0,0,1-.913,1.074,2.356,2.356,0,0,1-1.26.373,1.813,1.813,0,0,1-.867-.2,1.981,1.981,0,0,1-.632-.516v2.777Zm.876-5.006a2.48,2.48,0,0,0,.446,1.628,1.366,1.366,0,0,0,1.079.526,1.4,1.4,0,0,0,1.1-.545,2.59,2.59,0,0,0,.459-1.69,2.518,2.518,0,0,0-.448-1.632,1.35,1.35,0,0,0-1.072-.543,1.394,1.394,0,0,0-1.093.578A2.582,2.582,0,0,0,83.608,174.183Z"/><path class="cls-4" d="M88.829,177v-7.874H89.8V177Z"/><path class="cls-4" d="M95.2,175.166l1,.124a2.435,2.435,0,0,1-.876,1.358,2.964,2.964,0,0,1-3.617-.287,3.012,3.012,0,0,1-.733-2.162,3.153,3.153,0,0,1,.741-2.234,2.509,2.509,0,0,1,1.923-.8,2.441,2.441,0,0,1,1.869.779,3.094,3.094,0,0,1,.725,2.191c0,.057,0,.143-.005.258H91.971a2.191,2.191,0,0,0,.531,1.439,1.585,1.585,0,0,0,1.193.5,1.483,1.483,0,0,0,.908-.279A1.861,1.861,0,0,0,95.2,175.166ZM92.024,173.6h3.185a1.923,1.923,0,0,0-.365-1.08,1.482,1.482,0,0,0-1.2-.558,1.532,1.532,0,0,0-1.119.446A1.765,1.765,0,0,0,92.024,173.6Z"/><path class="cls-4" d="M100.473,170.241v-1.112h.967v1.112Zm0,6.762v-5.7h.967V177Z"/><path class="cls-4" d="M102.9,177v-5.7h.87v.865a2.361,2.361,0,0,1,.615-.8,1.073,1.073,0,0,1,.62-.193,1.89,1.89,0,0,1,.994.311l-.333.9a1.389,1.389,0,0,0-.709-.209.92.92,0,0,0-.569.19,1.036,1.036,0,0,0-.36.53,3.741,3.741,0,0,0-.161,1.128V177Z"/><path class="cls-4" d="M106.564,177v-5.7h.87v.865a2.361,2.361,0,0,1,.615-.8,1.073,1.073,0,0,1,.62-.193,1.89,1.89,0,0,1,.994.311l-.333.9a1.389,1.389,0,0,0-.709-.209.92.92,0,0,0-.569.19,1.036,1.036,0,0,0-.36.53,3.741,3.741,0,0,0-.161,1.128V177Z"/><path class="cls-4" d="M114.143,175.166l1,.124a2.44,2.44,0,0,1-.876,1.358,2.965,2.965,0,0,1-3.618-.287,3.016,3.016,0,0,1-.732-2.162,3.153,3.153,0,0,1,.741-2.234,2.509,2.509,0,0,1,1.923-.8,2.441,2.441,0,0,1,1.869.779,3.094,3.094,0,0,1,.725,2.191q0,.086-.006.258h-4.253a2.186,2.186,0,0,0,.531,1.439,1.585,1.585,0,0,0,1.193.5,1.478,1.478,0,0,0,.907-.279A1.855,1.855,0,0,0,114.143,175.166Zm-3.175-1.563h3.185a1.93,1.93,0,0,0-.365-1.08,1.482,1.482,0,0,0-1.2-.558,1.53,1.53,0,0,0-1.119.446A1.76,1.76,0,0,0,110.968,173.6Z"/><path class="cls-4" d="M116.178,177.476l.94.139a.9.9,0,0,0,.328.634,1.609,1.609,0,0,0,.983.269,1.725,1.725,0,0,0,1.036-.269,1.315,1.315,0,0,0,.494-.752,6.07,6.07,0,0,0,.07-1.241,1.986,1.986,0,0,1-1.579.747,2.153,2.153,0,0,1-1.821-.849,3.271,3.271,0,0,1-.644-2.035,3.787,3.787,0,0,1,.3-1.507,2.362,2.362,0,0,1,.857-1.066,2.311,2.311,0,0,1,1.319-.376,2.046,2.046,0,0,1,1.665.816V171.3h.891v4.93a4.669,4.669,0,0,1-.271,1.888,1.982,1.982,0,0,1-.86.879,2.983,2.983,0,0,1-1.447.322,2.725,2.725,0,0,1-1.649-.46A1.551,1.551,0,0,1,116.178,177.476Zm.8-3.427a2.476,2.476,0,0,0,.445,1.638,1.47,1.47,0,0,0,2.235,0,2.4,2.4,0,0,0,.451-1.608,2.337,2.337,0,0,0-.465-1.579,1.436,1.436,0,0,0-1.12-.532,1.392,1.392,0,0,0-1.095.524A2.324,2.324,0,0,0,116.979,174.049Z"/><path class="cls-4" d="M126.211,177v-.838a2.085,2.085,0,0,1-1.81.967,2.3,2.3,0,0,1-.942-.194,1.543,1.543,0,0,1-.65-.486,1.807,1.807,0,0,1-.3-.717,4.852,4.852,0,0,1-.059-.9V171.3h.966v3.163a5.555,5.555,0,0,0,.06,1.021,1.012,1.012,0,0,0,.386.6,1.2,1.2,0,0,0,.731.217,1.585,1.585,0,0,0,.816-.223,1.233,1.233,0,0,0,.54-.606,3.046,3.046,0,0,0,.158-1.115V171.3h.967V177Z"/><path class="cls-4" d="M128.569,177v-7.874h.967V177Z"/><path class="cls-4" d="M134.757,176.3a3.628,3.628,0,0,1-1.034.645,3,3,0,0,1-1.066.188,2.078,2.078,0,0,1-1.445-.459,1.517,1.517,0,0,1-.5-1.174,1.583,1.583,0,0,1,.69-1.321,2.352,2.352,0,0,1,.7-.317,6.834,6.834,0,0,1,.859-.145,8.8,8.8,0,0,0,1.724-.333c0-.133.006-.217.006-.253a1.068,1.068,0,0,0-.274-.832,1.622,1.622,0,0,0-1.1-.328,1.708,1.708,0,0,0-1.007.239,1.461,1.461,0,0,0-.481.846l-.945-.129a2.327,2.327,0,0,1,.424-.98,1.862,1.862,0,0,1,.854-.575,3.814,3.814,0,0,1,1.294-.2,3.414,3.414,0,0,1,1.187.172,1.571,1.571,0,0,1,.672.432,1.521,1.521,0,0,1,.3.658,5.339,5.339,0,0,1,.049.892v1.289a13.484,13.484,0,0,0,.062,1.705,2.139,2.139,0,0,0,.244.685h-1.01A2.066,2.066,0,0,1,134.757,176.3Zm-.081-2.159a7.091,7.091,0,0,1-1.579.365,3.6,3.6,0,0,0-.843.194.845.845,0,0,0-.223,1.418,1.259,1.259,0,0,0,.857.257,1.991,1.991,0,0,0,.993-.244,1.512,1.512,0,0,0,.64-.669,2.329,2.329,0,0,0,.155-.966Z"/><path class="cls-4" d="M137.142,177v-5.7h.87v.865a2.374,2.374,0,0,1,.614-.8,1.076,1.076,0,0,1,.621-.193,1.893,1.893,0,0,1,.994.311l-.333.9a1.392,1.392,0,0,0-.709-.209.923.923,0,0,0-.57.19,1.034,1.034,0,0,0-.359.53,3.74,3.74,0,0,0-.162,1.128V177Z"/><path class="cls-4" d="M143.694,177.476l.94.139a.9.9,0,0,0,.328.634,1.609,1.609,0,0,0,.983.269,1.722,1.722,0,0,0,1.036-.269,1.321,1.321,0,0,0,.5-.752,6.173,6.173,0,0,0,.069-1.241,1.986,1.986,0,0,1-1.579.747,2.15,2.15,0,0,1-1.82-.849,3.266,3.266,0,0,1-.645-2.035,3.8,3.8,0,0,1,.295-1.507,2.362,2.362,0,0,1,.857-1.066,2.311,2.311,0,0,1,1.319-.376,2.046,2.046,0,0,1,1.665.816V171.3h.891v4.93a4.669,4.669,0,0,1-.271,1.888,1.982,1.982,0,0,1-.86.879,2.983,2.983,0,0,1-1.447.322,2.725,2.725,0,0,1-1.649-.46A1.551,1.551,0,0,1,143.694,177.476Zm.8-3.427a2.476,2.476,0,0,0,.445,1.638,1.47,1.47,0,0,0,2.235,0,2.39,2.39,0,0,0,.451-1.608,2.337,2.337,0,0,0-.465-1.579,1.432,1.432,0,0,0-1.119-.532,1.394,1.394,0,0,0-1.1.524A2.324,2.324,0,0,0,144.5,174.049Z"/><path class="cls-4" d="M149.979,177v-5.7h.87v.865a2.374,2.374,0,0,1,.614-.8,1.076,1.076,0,0,1,.621-.193,1.893,1.893,0,0,1,.994.311l-.333.9a1.392,1.392,0,0,0-.709-.209.923.923,0,0,0-.57.19,1.042,1.042,0,0,0-.36.53,3.773,3.773,0,0,0-.161,1.128V177Z"/><path class="cls-4" d="M153.292,174.151a2.94,2.94,0,0,1,.881-2.347,2.654,2.654,0,0,1,1.794-.634,2.561,2.561,0,0,1,1.923.77,2.936,2.936,0,0,1,.747,2.13,3.767,3.767,0,0,1-.331,1.733,2.34,2.34,0,0,1-.961.98,2.8,2.8,0,0,1-1.378.349,2.564,2.564,0,0,1-1.936-.768A3.07,3.07,0,0,1,153.292,174.151Zm.994,0a2.43,2.43,0,0,0,.478,1.641,1.592,1.592,0,0,0,2.4,0,2.484,2.484,0,0,0,.478-1.67,2.356,2.356,0,0,0-.48-1.6,1.593,1.593,0,0,0-2.4,0A2.414,2.414,0,0,0,154.286,174.151Z"/><path class="cls-4" d="M159.41,174.151a2.94,2.94,0,0,1,.881-2.347,2.652,2.652,0,0,1,1.794-.634,2.563,2.563,0,0,1,1.923.77,2.939,2.939,0,0,1,.746,2.13,3.768,3.768,0,0,1-.33,1.733,2.345,2.345,0,0,1-.961.98,2.8,2.8,0,0,1-1.378.349,2.567,2.567,0,0,1-1.937-.768A3.07,3.07,0,0,1,159.41,174.151Zm.994,0a2.43,2.43,0,0,0,.478,1.641,1.592,1.592,0,0,0,2.4,0,2.484,2.484,0,0,0,.478-1.67,2.351,2.351,0,0,0-.481-1.6,1.592,1.592,0,0,0-2.4,0A2.414,2.414,0,0,0,160.4,174.151Z"/><path class="cls-4" d="M167.472,177l-2.17-5.7h1.021l1.224,3.416c.133.368.255.752.366,1.149q.129-.452.359-1.085l1.268-3.48h.994l-2.159,5.7Z"/><path class="cls-4" d="M175.292,175.166l1,.124a2.44,2.44,0,0,1-.876,1.358,2.965,2.965,0,0,1-3.618-.287,3.016,3.016,0,0,1-.733-2.162,3.153,3.153,0,0,1,.742-2.234,2.508,2.508,0,0,1,1.922-.8,2.442,2.442,0,0,1,1.87.779,3.094,3.094,0,0,1,.725,2.191q0,.086-.006.258h-4.254a2.191,2.191,0,0,0,.532,1.439,1.585,1.585,0,0,0,1.193.5,1.478,1.478,0,0,0,.907-.279A1.847,1.847,0,0,0,175.292,175.166Zm-3.174-1.563H175.3a1.93,1.93,0,0,0-.365-1.08,1.482,1.482,0,0,0-1.2-.558,1.53,1.53,0,0,0-1.119.446A1.76,1.76,0,0,0,172.118,173.6Z"/><path class="cls-4" d="M180.175,175.3l.956-.15a1.335,1.335,0,0,0,.449.881,1.56,1.56,0,0,0,1.028.306,1.5,1.5,0,0,0,.988-.272.808.808,0,0,0,.322-.636.585.585,0,0,0-.284-.515,4.173,4.173,0,0,0-.988-.328,8.989,8.989,0,0,1-1.475-.465,1.42,1.42,0,0,1-.623-.542,1.441,1.441,0,0,1-.212-.766,1.473,1.473,0,0,1,.174-.706,1.573,1.573,0,0,1,.476-.54,2.008,2.008,0,0,1,.615-.282,2.921,2.921,0,0,1,.835-.115,3.3,3.3,0,0,1,1.179.193,1.6,1.6,0,0,1,.749.524,2.05,2.05,0,0,1,.333.883l-.945.129a1.033,1.033,0,0,0-.374-.687,1.359,1.359,0,0,0-.872-.247,1.581,1.581,0,0,0-.951.22.641.641,0,0,0-.284.516.531.531,0,0,0,.118.338.846.846,0,0,0,.37.258c.1.035.382.118.854.247a12.015,12.015,0,0,1,1.431.448,1.456,1.456,0,0,1,.637.508,1.417,1.417,0,0,1,.231.827,1.621,1.621,0,0,1-.282.91,1.821,1.821,0,0,1-.814.661,2.954,2.954,0,0,1-1.2.234,2.683,2.683,0,0,1-1.695-.462A2.149,2.149,0,0,1,180.175,175.3Z"/><path class="cls-4" d="M188.172,176.138l.14.854a3.609,3.609,0,0,1-.73.086,1.664,1.664,0,0,1-.817-.166.934.934,0,0,1-.408-.438,3.458,3.458,0,0,1-.118-1.142v-3.281h-.709V171.3h.709v-1.413l.961-.58V171.3h.972v.752H187.2v3.335a1.687,1.687,0,0,0,.051.532.4.4,0,0,0,.166.188.655.655,0,0,0,.331.07A3.163,3.163,0,0,0,188.172,176.138Z"/><path class="cls-4" d="M189.107,177v-5.7h.871v.865a2.348,2.348,0,0,1,.614-.8,1.074,1.074,0,0,1,.621-.193,1.89,1.89,0,0,1,.993.311l-.333.9a1.389,1.389,0,0,0-.709-.209.922.922,0,0,0-.569.19,1.042,1.042,0,0,0-.36.53,3.773,3.773,0,0,0-.161,1.128V177Z"/><path class="cls-4" d="M196.52,177v-.838a2.089,2.089,0,0,1-1.811.967,2.305,2.305,0,0,1-.942-.194,1.553,1.553,0,0,1-.651-.486,1.852,1.852,0,0,1-.3-.717,4.964,4.964,0,0,1-.058-.9V171.3h.967v3.163a5.71,5.71,0,0,0,.058,1.021,1.022,1.022,0,0,0,.387.6,1.2,1.2,0,0,0,.73.217,1.589,1.589,0,0,0,.817-.223,1.233,1.233,0,0,0,.54-.606,3.067,3.067,0,0,0,.158-1.115V171.3h.967V177Z"/><path class="cls-4" d="M202.621,174.914l.95.123a2.463,2.463,0,0,1-.8,1.539,2.328,2.328,0,0,1-1.577.556,2.446,2.446,0,0,1-1.882-.766,3.106,3.106,0,0,1-.711-2.194,3.972,3.972,0,0,1,.3-1.616,2.127,2.127,0,0,1,.933-1.039,2.75,2.75,0,0,1,1.361-.347,2.37,2.37,0,0,1,1.52.47,2.153,2.153,0,0,1,.757,1.335l-.94.145a1.556,1.556,0,0,0-.475-.865,1.226,1.226,0,0,0-.825-.29,1.5,1.5,0,0,0-1.186.523,2.485,2.485,0,0,0-.457,1.657,2.573,2.573,0,0,0,.44,1.671,1.435,1.435,0,0,0,1.15.521,1.356,1.356,0,0,0,.951-.349A1.734,1.734,0,0,0,202.621,174.914Z"/><path class="cls-4" d="M206.51,176.138l.139.854a3.6,3.6,0,0,1-.73.086,1.66,1.66,0,0,1-.816-.166.927.927,0,0,1-.409-.438,3.458,3.458,0,0,1-.118-1.142v-3.281h-.709V171.3h.709v-1.413l.961-.58V171.3h.973v.752h-.973v3.335a1.677,1.677,0,0,0,.052.532.393.393,0,0,0,.166.188.648.648,0,0,0,.33.07A3.189,3.189,0,0,0,206.51,176.138Z"/><path class="cls-4" d="M211.193,177v-.838a2.086,2.086,0,0,1-1.81.967,2.31,2.31,0,0,1-.943-.194,1.549,1.549,0,0,1-.65-.486,1.837,1.837,0,0,1-.3-.717,4.964,4.964,0,0,1-.058-.9V171.3h.966v3.163a5.68,5.68,0,0,0,.059,1.021,1.018,1.018,0,0,0,.387.6,1.2,1.2,0,0,0,.73.217,1.589,1.589,0,0,0,.817-.223,1.238,1.238,0,0,0,.54-.606,3.067,3.067,0,0,0,.158-1.115V171.3h.967V177Z"/><path class="cls-4" d="M213.562,177v-5.7h.87v.865a2.361,2.361,0,0,1,.615-.8,1.07,1.07,0,0,1,.62-.193,1.893,1.893,0,0,1,.994.311l-.333.9a1.389,1.389,0,0,0-.709-.209.918.918,0,0,0-.569.19,1.043,1.043,0,0,0-.361.53,3.773,3.773,0,0,0-.161,1.128V177Z"/><path class="cls-4" d="M221.141,175.166l1,.124a2.445,2.445,0,0,1-.876,1.358,2.965,2.965,0,0,1-3.618-.287,3.016,3.016,0,0,1-.733-2.162,3.153,3.153,0,0,1,.741-2.234,2.51,2.51,0,0,1,1.923-.8,2.438,2.438,0,0,1,1.869.779,3.09,3.09,0,0,1,.726,2.191q0,.086-.006.258h-4.254a2.191,2.191,0,0,0,.532,1.439,1.584,1.584,0,0,0,1.193.5,1.478,1.478,0,0,0,.907-.279A1.862,1.862,0,0,0,221.141,175.166Zm-3.175-1.563h3.185a1.938,1.938,0,0,0-.365-1.08,1.482,1.482,0,0,0-1.2-.558,1.532,1.532,0,0,0-1.119.446A1.76,1.76,0,0,0,217.966,173.6Z"/><path class="cls-4" d="M222.967,175.3l.956-.15a1.339,1.339,0,0,0,.448.881,1.562,1.562,0,0,0,1.028.306,1.5,1.5,0,0,0,.989-.272.808.808,0,0,0,.322-.636.587.587,0,0,0-.284-.515,4.173,4.173,0,0,0-.988-.328,8.956,8.956,0,0,1-1.475-.465,1.414,1.414,0,0,1-.623-.542,1.432,1.432,0,0,1-.212-.766,1.473,1.473,0,0,1,.174-.706,1.58,1.58,0,0,1,.475-.54,2.026,2.026,0,0,1,.616-.282,2.921,2.921,0,0,1,.835-.115,3.291,3.291,0,0,1,1.178.193,1.6,1.6,0,0,1,.75.524,2.05,2.05,0,0,1,.333.883l-.945.129a1.033,1.033,0,0,0-.374-.687,1.359,1.359,0,0,0-.872-.247,1.581,1.581,0,0,0-.951.22.641.641,0,0,0-.284.516.531.531,0,0,0,.118.338.846.846,0,0,0,.37.258c.1.035.382.118.854.247a12.015,12.015,0,0,1,1.431.448,1.461,1.461,0,0,1,.637.508,1.417,1.417,0,0,1,.231.827,1.629,1.629,0,0,1-.282.91,1.826,1.826,0,0,1-.814.661,2.954,2.954,0,0,1-1.2.234,2.683,2.683,0,0,1-1.695-.462A2.149,2.149,0,0,1,222.967,175.3Z"/><path class="cls-4" d="M231.55,174.151a2.937,2.937,0,0,1,.881-2.347,2.65,2.65,0,0,1,1.794-.634,2.561,2.561,0,0,1,1.922.77,2.936,2.936,0,0,1,.747,2.13,3.767,3.767,0,0,1-.331,1.733,2.343,2.343,0,0,1-.96.98,2.8,2.8,0,0,1-1.378.349,2.564,2.564,0,0,1-1.937-.768A3.07,3.07,0,0,1,231.55,174.151Zm.993,0a2.43,2.43,0,0,0,.478,1.641,1.592,1.592,0,0,0,2.4,0,2.484,2.484,0,0,0,.478-1.67,2.356,2.356,0,0,0-.48-1.6,1.593,1.593,0,0,0-2.4,0A2.414,2.414,0,0,0,232.543,174.151Z"/><path class="cls-4" d="M238.027,177v-5.7h.87v.811a2.05,2.05,0,0,1,1.816-.94,2.367,2.367,0,0,1,.947.185,1.488,1.488,0,0,1,.648.486,1.853,1.853,0,0,1,.3.715,5.4,5.4,0,0,1,.054.94V177H241.7v-3.47a2.619,2.619,0,0,0-.112-.884.931.931,0,0,0-.4-.466,1.268,1.268,0,0,0-.674-.175,1.57,1.57,0,0,0-1.067.392,1.937,1.937,0,0,0-.448,1.488V177Z"/><path class="cls-4" d="M250.923,174.914l.951.123a2.469,2.469,0,0,1-.8,1.539,2.326,2.326,0,0,1-1.576.556,2.448,2.448,0,0,1-1.883-.766,3.106,3.106,0,0,1-.712-2.194,3.972,3.972,0,0,1,.307-1.616,2.13,2.13,0,0,1,.932-1.039,2.753,2.753,0,0,1,1.361-.347,2.368,2.368,0,0,1,1.52.47,2.148,2.148,0,0,1,.757,1.335l-.939.145a1.557,1.557,0,0,0-.476-.865,1.225,1.225,0,0,0-.824-.29,1.506,1.506,0,0,0-1.188.523,2.5,2.5,0,0,0-.456,1.657,2.567,2.567,0,0,0,.441,1.671,1.434,1.434,0,0,0,1.149.521,1.351,1.351,0,0,0,.95-.349A1.73,1.73,0,0,0,250.923,174.914Z"/><path class="cls-4" d="M252.341,174.151a2.94,2.94,0,0,1,.881-2.347,2.654,2.654,0,0,1,1.794-.634,2.559,2.559,0,0,1,1.922.77,2.932,2.932,0,0,1,.748,2.13,3.766,3.766,0,0,1-.332,1.733,2.337,2.337,0,0,1-.96.98,2.8,2.8,0,0,1-1.378.349,2.567,2.567,0,0,1-1.937-.768A3.07,3.07,0,0,1,252.341,174.151Zm.994,0a2.43,2.43,0,0,0,.478,1.641,1.592,1.592,0,0,0,2.4,0,2.49,2.49,0,0,0,.477-1.67,2.356,2.356,0,0,0-.48-1.6,1.592,1.592,0,0,0-2.4,0A2.414,2.414,0,0,0,253.335,174.151Z"/><path class="cls-4" d="M258.818,177v-5.7h.87v.811a2.051,2.051,0,0,1,1.816-.94,2.372,2.372,0,0,1,.948.185,1.5,1.5,0,0,1,.648.486,1.884,1.884,0,0,1,.3.715,5.5,5.5,0,0,1,.054.94V177h-.967v-3.47a2.614,2.614,0,0,0-.113-.884.929.929,0,0,0-.4-.466,1.274,1.274,0,0,0-.675-.175,1.569,1.569,0,0,0-1.066.392,1.933,1.933,0,0,0-.449,1.488V177Z"/><path class="cls-4" d="M268.658,174.914l.951.123a2.472,2.472,0,0,1-.8,1.539,2.328,2.328,0,0,1-1.577.556,2.444,2.444,0,0,1-1.882-.766,3.1,3.1,0,0,1-.712-2.194,3.972,3.972,0,0,1,.306-1.616,2.13,2.13,0,0,1,.932-1.039,2.753,2.753,0,0,1,1.361-.347,2.373,2.373,0,0,1,1.521.47,2.157,2.157,0,0,1,.757,1.335l-.94.145a1.562,1.562,0,0,0-.475-.865,1.228,1.228,0,0,0-.825-.29,1.5,1.5,0,0,0-1.187.523,2.491,2.491,0,0,0-.456,1.657,2.568,2.568,0,0,0,.44,1.671,1.434,1.434,0,0,0,1.15.521,1.352,1.352,0,0,0,.95-.349A1.724,1.724,0,0,0,268.658,174.914Z"/><path class="cls-4" d="M274.158,176.3a3.6,3.6,0,0,1-1.034.645,2.99,2.99,0,0,1-1.065.188,2.083,2.083,0,0,1-1.446-.459,1.52,1.52,0,0,1-.5-1.174,1.568,1.568,0,0,1,.191-.766,1.587,1.587,0,0,1,.5-.555,2.346,2.346,0,0,1,.7-.317,6.89,6.89,0,0,1,.86-.145,8.817,8.817,0,0,0,1.724-.333c0-.133.005-.217.005-.253a1.068,1.068,0,0,0-.273-.832,1.623,1.623,0,0,0-1.1-.328,1.712,1.712,0,0,0-1.007.239,1.455,1.455,0,0,0-.48.846l-.946-.129a2.353,2.353,0,0,1,.424-.98,1.865,1.865,0,0,1,.855-.575,3.81,3.81,0,0,1,1.294-.2,3.418,3.418,0,0,1,1.187.172,1.573,1.573,0,0,1,.671.432,1.511,1.511,0,0,1,.3.658,5.453,5.453,0,0,1,.049.892v1.289a13.771,13.771,0,0,0,.061,1.705,2.163,2.163,0,0,0,.244.685h-1.009A2.089,2.089,0,0,1,274.158,176.3Zm-.08-2.159a7.105,7.105,0,0,1-1.579.365,3.628,3.628,0,0,0-.844.194.826.826,0,0,0-.515.773.822.822,0,0,0,.293.645,1.256,1.256,0,0,0,.856.257,1.992,1.992,0,0,0,.994-.244,1.5,1.5,0,0,0,.639-.669,2.327,2.327,0,0,0,.156-.966Z"/><path class="cls-4" d="M278.139,177l-2.17-5.7h1.02l1.225,3.416c.132.368.254.752.365,1.149q.129-.452.359-1.085l1.268-3.48h.994l-2.159,5.7Z"/><path class="cls-4" d="M285.959,175.166l1,.124a2.435,2.435,0,0,1-.876,1.358,2.964,2.964,0,0,1-3.617-.287,3.017,3.017,0,0,1-.734-2.162,3.153,3.153,0,0,1,.742-2.234,2.509,2.509,0,0,1,1.923-.8,2.441,2.441,0,0,1,1.869.779,3.094,3.094,0,0,1,.725,2.191q0,.086-.006.258H282.73a2.192,2.192,0,0,0,.533,1.439,1.582,1.582,0,0,0,1.192.5,1.476,1.476,0,0,0,.907-.279A1.855,1.855,0,0,0,285.959,175.166Zm-3.175-1.563h3.186a1.93,1.93,0,0,0-.366-1.08,1.482,1.482,0,0,0-1.2-.558,1.532,1.532,0,0,0-1.119.446A1.76,1.76,0,0,0,282.784,173.6Z"/><path class="cls-4" d="M291.228,177v-5.7h.865v.8a2.021,2.021,0,0,1,.715-.674,2,2,0,0,1,1.014-.255,1.877,1.877,0,0,1,1.039.263,1.411,1.411,0,0,1,.573.736,2.047,2.047,0,0,1,1.761-1,1.74,1.74,0,0,1,1.306.47,2.009,2.009,0,0,1,.456,1.447V177H298V173.41a2.644,2.644,0,0,0-.094-.836.8.8,0,0,0-.34-.41,1.067,1.067,0,0,0-.581-.156,1.349,1.349,0,0,0-1,.4,1.767,1.767,0,0,0-.4,1.281V177h-.967V173.3a1.635,1.635,0,0,0-.236-.967.894.894,0,0,0-.774-.322,1.405,1.405,0,0,0-.754.215,1.211,1.211,0,0,0-.5.628,3.528,3.528,0,0,0-.157,1.192V177Z"/><path class="cls-4" d="M300.4,170.241v-1.112h.967v1.112Zm0,6.762v-5.7h.967V177Z"/><path class="cls-4" d="M302.824,177v-5.7h.869v.865a2.373,2.373,0,0,1,.616-.8,1.071,1.071,0,0,1,.621-.193,1.892,1.892,0,0,1,.993.311l-.333.9a1.389,1.389,0,0,0-.709-.209.918.918,0,0,0-.569.19,1.043,1.043,0,0,0-.361.53,3.773,3.773,0,0,0-.16,1.128V177Z"/><path class="cls-4" d="M306.487,177v-5.7h.869v.865a2.373,2.373,0,0,1,.616-.8,1.071,1.071,0,0,1,.621-.193,1.892,1.892,0,0,1,.993.311l-.333.9a1.389,1.389,0,0,0-.709-.209.92.92,0,0,0-.569.19,1.049,1.049,0,0,0-.361.53,3.773,3.773,0,0,0-.16,1.128V177Z"/><path class="cls-4" d="M309.8,174.151a2.94,2.94,0,0,1,.881-2.347,2.652,2.652,0,0,1,1.794-.634,2.561,2.561,0,0,1,1.922.77,2.936,2.936,0,0,1,.747,2.13,3.767,3.767,0,0,1-.331,1.733,2.337,2.337,0,0,1-.96.98,2.8,2.8,0,0,1-1.378.349,2.564,2.564,0,0,1-1.937-.768A3.07,3.07,0,0,1,309.8,174.151Zm.994,0a2.435,2.435,0,0,0,.477,1.641,1.593,1.593,0,0,0,2.4,0,2.49,2.49,0,0,0,.477-1.67,2.356,2.356,0,0,0-.48-1.6,1.593,1.593,0,0,0-2.4,0A2.42,2.42,0,0,0,310.8,174.151Z"/><path class="cls-4" d="M316.268,177v-5.7h.869v.865a2.361,2.361,0,0,1,.615-.8,1.071,1.071,0,0,1,.621-.193,1.892,1.892,0,0,1,.993.311l-.333.9a1.386,1.386,0,0,0-.709-.209.92.92,0,0,0-.569.19,1.042,1.042,0,0,0-.36.53,3.741,3.741,0,0,0-.161,1.128V177Z"/><path class="cls-4" d="M121.259,198.318a9.674,9.674,0,0,1-1.353-2.363,7.423,7.423,0,0,1-.14-5.253A10.294,10.294,0,0,1,121.259,188h.693q-.649,1.116-.859,1.595a8.806,8.806,0,0,0-.516,1.547,8.973,8.973,0,0,0-.231,2.019,9.692,9.692,0,0,0,1.606,5.162Z"/><path class="cls-4" d="M123.188,196v-7.874h1.068l4.136,6.182v-6.182h1V196h-1.069l-4.135-6.188V196Z"/><path class="cls-4" d="M134.757,196v-.838a2.088,2.088,0,0,1-1.81.967,2.306,2.306,0,0,1-.943-.194,1.549,1.549,0,0,1-.65-.486,1.822,1.822,0,0,1-.3-.717,4.942,4.942,0,0,1-.059-.9V190.3h.967v3.163a5.584,5.584,0,0,0,.059,1.021,1.013,1.013,0,0,0,.387.6,1.2,1.2,0,0,0,.73.217,1.592,1.592,0,0,0,.817-.223,1.238,1.238,0,0,0,.54-.606,3.067,3.067,0,0,0,.158-1.115V190.3h.967V196Z"/><path class="cls-4" d="M137.136,196v-5.7H138v.8a2.035,2.035,0,0,1,.714-.674,2.011,2.011,0,0,1,1.015-.255,1.881,1.881,0,0,1,1.04.263,1.409,1.409,0,0,1,.572.736,2.047,2.047,0,0,1,1.762-1,1.739,1.739,0,0,1,1.3.47,2.009,2.009,0,0,1,.456,1.447V196H143.9V192.41a2.644,2.644,0,0,0-.094-.836.813.813,0,0,0-.341-.41,1.064,1.064,0,0,0-.58-.156,1.349,1.349,0,0,0-1,.4,1.763,1.763,0,0,0-.4,1.281V196h-.967V192.3a1.628,1.628,0,0,0-.236-.967.894.894,0,0,0-.773-.322,1.409,1.409,0,0,0-.755.215,1.216,1.216,0,0,0-.5.628,3.532,3.532,0,0,0-.156,1.192V196Z"/><path class="cls-4" d="M147.191,196h-.9v-7.874h.967v2.809a1.913,1.913,0,0,1,1.563-.768,2.4,2.4,0,0,1,1,.212,2.04,2.04,0,0,1,.774.6,2.9,2.9,0,0,1,.475.927,3.807,3.807,0,0,1,.172,1.16,3.263,3.263,0,0,1-.725,2.267,2.271,2.271,0,0,1-1.741.8,1.816,1.816,0,0,1-1.584-.843Zm-.011-2.895a2.96,2.96,0,0,0,.279,1.482,1.382,1.382,0,0,0,2.332.2,2.5,2.5,0,0,0,.461-1.641,2.551,2.551,0,0,0-.442-1.648,1.35,1.35,0,0,0-1.072-.532,1.388,1.388,0,0,0-1.1.551A2.412,2.412,0,0,0,147.18,193.108Z"/><path class="cls-4" d="M156.322,194.166l1,.124a2.435,2.435,0,0,1-.876,1.358,2.964,2.964,0,0,1-3.617-.287,3.012,3.012,0,0,1-.733-2.162,3.153,3.153,0,0,1,.741-2.234,2.509,2.509,0,0,1,1.923-.8,2.44,2.44,0,0,1,1.869.779,3.094,3.094,0,0,1,.725,2.191c0,.057,0,.143,0,.258h-4.254a2.191,2.191,0,0,0,.531,1.439,1.585,1.585,0,0,0,1.193.5,1.483,1.483,0,0,0,.908-.279A1.861,1.861,0,0,0,156.322,194.166Zm-3.175-1.563h3.186a1.93,1.93,0,0,0-.366-1.08,1.482,1.482,0,0,0-1.2-.558,1.532,1.532,0,0,0-1.12.446A1.765,1.765,0,0,0,153.147,192.6Z"/><path class="cls-4" d="M158.524,196v-5.7h.87v.865a2.361,2.361,0,0,1,.615-.8,1.073,1.073,0,0,1,.62-.193,1.89,1.89,0,0,1,.994.311l-.333.9a1.389,1.389,0,0,0-.709-.209.92.92,0,0,0-.569.19,1.036,1.036,0,0,0-.36.53,3.741,3.741,0,0,0-.161,1.128V196Z"/><path class="cls-4" d="M164.894,193.151a2.94,2.94,0,0,1,.881-2.347,2.652,2.652,0,0,1,1.794-.634,2.563,2.563,0,0,1,1.923.77,2.939,2.939,0,0,1,.746,2.13,3.781,3.781,0,0,1-.33,1.733,2.345,2.345,0,0,1-.961.98,2.8,2.8,0,0,1-1.378.349,2.567,2.567,0,0,1-1.937-.768A3.07,3.07,0,0,1,164.894,193.151Zm.994,0a2.43,2.43,0,0,0,.478,1.641,1.592,1.592,0,0,0,2.4,0,2.49,2.49,0,0,0,.478-1.67,2.357,2.357,0,0,0-.481-1.6,1.592,1.592,0,0,0-2.4,0A2.414,2.414,0,0,0,165.888,193.151Z"/><path class="cls-4" d="M171.6,196v-4.952h-.854V190.3h.854v-.607a2.658,2.658,0,0,1,.1-.854,1.233,1.233,0,0,1,.491-.61,1.771,1.771,0,0,1,.986-.233,4.767,4.767,0,0,1,.9.1l-.145.844a3.228,3.228,0,0,0-.569-.054.842.842,0,0,0-.623.188,1.016,1.016,0,0,0-.183.7v.527h1.112v.752h-1.112V196Z"/><path class="cls-4" d="M177.307,196.476l.94.139a.894.894,0,0,0,.327.634,1.611,1.611,0,0,0,.983.269,1.728,1.728,0,0,0,1.037-.269,1.325,1.325,0,0,0,.494-.752,6.225,6.225,0,0,0,.07-1.241,1.989,1.989,0,0,1-1.579.747,2.152,2.152,0,0,1-1.821-.849,3.266,3.266,0,0,1-.645-2.035,3.787,3.787,0,0,1,.3-1.507,2.349,2.349,0,0,1,.857-1.066,2.308,2.308,0,0,1,1.318-.376,2.046,2.046,0,0,1,1.665.816V190.3h.892v4.93a4.666,4.666,0,0,1-.272,1.888,1.985,1.985,0,0,1-.859.879,2.988,2.988,0,0,1-1.447.322,2.723,2.723,0,0,1-1.649-.46A1.549,1.549,0,0,1,177.307,196.476Zm.8-3.427a2.471,2.471,0,0,0,.446,1.638,1.469,1.469,0,0,0,2.234,0,2.39,2.39,0,0,0,.451-1.608,2.337,2.337,0,0,0-.465-1.579,1.432,1.432,0,0,0-1.119-.532,1.394,1.394,0,0,0-1.1.524A2.324,2.324,0,0,0,178.107,193.049Z"/><path class="cls-4" d="M183.591,196v-5.7h.87v.865a2.361,2.361,0,0,1,.615-.8,1.073,1.073,0,0,1,.62-.193,1.89,1.89,0,0,1,.994.311l-.333.9a1.389,1.389,0,0,0-.709-.209.92.92,0,0,0-.569.19,1.036,1.036,0,0,0-.36.53,3.741,3.741,0,0,0-.161,1.128V196Z"/><path class="cls-4" d="M186.905,193.151a2.937,2.937,0,0,1,.881-2.347,2.65,2.65,0,0,1,1.794-.634,2.563,2.563,0,0,1,1.923.77,2.939,2.939,0,0,1,.746,2.13,3.768,3.768,0,0,1-.33,1.733,2.345,2.345,0,0,1-.961.98,2.8,2.8,0,0,1-1.378.349,2.566,2.566,0,0,1-1.937-.768A3.07,3.07,0,0,1,186.905,193.151Zm.993,0a2.435,2.435,0,0,0,.478,1.641,1.592,1.592,0,0,0,2.4,0,2.479,2.479,0,0,0,.479-1.67,2.351,2.351,0,0,0-.481-1.6,1.593,1.593,0,0,0-2.4,0A2.42,2.42,0,0,0,187.9,193.151Z"/><path class="cls-4" d="M193.022,193.151a2.94,2.94,0,0,1,.881-2.347,2.655,2.655,0,0,1,1.794-.634,2.561,2.561,0,0,1,1.923.77,2.936,2.936,0,0,1,.747,2.13,3.767,3.767,0,0,1-.331,1.733,2.34,2.34,0,0,1-.961.98,2.8,2.8,0,0,1-1.378.349,2.565,2.565,0,0,1-1.936-.768A3.07,3.07,0,0,1,193.022,193.151Zm1,0a2.435,2.435,0,0,0,.477,1.641,1.593,1.593,0,0,0,2.4,0,2.49,2.49,0,0,0,.477-1.67,2.356,2.356,0,0,0-.48-1.6,1.593,1.593,0,0,0-2.4,0A2.42,2.42,0,0,0,194.017,193.151Z"/><path class="cls-4" d="M201.085,196l-2.17-5.7h1.021l1.224,3.416c.132.368.254.752.365,1.149q.129-.452.36-1.085l1.267-3.48h.994l-2.159,5.7Z"/><path class="cls-4" d="M208.905,194.166l1,.124a2.435,2.435,0,0,1-.876,1.358,2.964,2.964,0,0,1-3.617-.287,3.016,3.016,0,0,1-.733-2.162,3.153,3.153,0,0,1,.741-2.234,2.51,2.51,0,0,1,1.923-.8,2.44,2.44,0,0,1,1.869.779,3.1,3.1,0,0,1,.726,2.191q0,.086-.006.258h-4.254a2.191,2.191,0,0,0,.532,1.439,1.582,1.582,0,0,0,1.192.5,1.479,1.479,0,0,0,.908-.279A1.854,1.854,0,0,0,208.905,194.166ZM205.73,192.6h3.186a1.938,1.938,0,0,0-.365-1.08,1.484,1.484,0,0,0-1.2-.558,1.532,1.532,0,0,0-1.12.446A1.769,1.769,0,0,0,205.73,192.6Z"/><path class="cls-4" d="M210.731,194.3l.957-.15a1.334,1.334,0,0,0,.448.881,1.562,1.562,0,0,0,1.028.306,1.5,1.5,0,0,0,.988-.272.809.809,0,0,0,.323-.636.586.586,0,0,0-.285-.515,4.137,4.137,0,0,0-.988-.328,8.936,8.936,0,0,1-1.474-.465,1.422,1.422,0,0,1-.624-.542,1.441,1.441,0,0,1-.211-.766,1.473,1.473,0,0,1,.173-.706,1.594,1.594,0,0,1,.476-.54,2.008,2.008,0,0,1,.615-.282,2.926,2.926,0,0,1,.835-.115,3.3,3.3,0,0,1,1.179.193,1.6,1.6,0,0,1,.75.524,2.063,2.063,0,0,1,.333.883l-.945.129a1.033,1.033,0,0,0-.374-.687,1.363,1.363,0,0,0-.872-.247,1.584,1.584,0,0,0-.952.22.643.643,0,0,0-.284.516.531.531,0,0,0,.118.338.846.846,0,0,0,.37.258c.1.035.382.118.855.247a12.015,12.015,0,0,1,1.431.448,1.453,1.453,0,0,1,.636.508,1.41,1.41,0,0,1,.232.827,1.629,1.629,0,0,1-.282.91,1.826,1.826,0,0,1-.814.661,2.958,2.958,0,0,1-1.2.234,2.681,2.681,0,0,1-1.695-.462A2.155,2.155,0,0,1,210.731,194.3Z"/><path class="cls-4" d="M216.887,191.4v-1.1h1.1v1.1Zm0,4.6v-1.1h1.1V196Z"/><path class="cls-4" d="M226.1,196h-.967v-6.161a5.035,5.035,0,0,1-.916.666,6.5,6.5,0,0,1-1.018.5v-.935a5.843,5.843,0,0,0,1.418-.924,3.629,3.629,0,0,0,.859-1.052h.624Z"/><path class="cls-4" d="M228.579,192.12a7.185,7.185,0,0,1,.288-2.248,2.8,2.8,0,0,1,.854-1.313,2.177,2.177,0,0,1,1.425-.462,2.335,2.335,0,0,1,1.113.255,2.119,2.119,0,0,1,.789.736,3.921,3.921,0,0,1,.489,1.171,7.786,7.786,0,0,1,.177,1.861,7.245,7.245,0,0,1-.284,2.236,2.808,2.808,0,0,1-.852,1.317,2.186,2.186,0,0,1-1.432.464,2.161,2.161,0,0,1-1.788-.816A5.191,5.191,0,0,1,228.579,192.12Zm.994,0a4.941,4.941,0,0,0,.454,2.58,1.3,1.3,0,0,0,2.24,0,7.564,7.564,0,0,0,0-5.162,1.349,1.349,0,0,0-1.131-.639,1.241,1.241,0,0,0-1.064.564A5,5,0,0,0,229.573,192.12Z"/><path class="cls-4" d="M235.218,196v-1.1h1.1V196a1.955,1.955,0,0,1-.215.98,1.406,1.406,0,0,1-.682.578l-.269-.414a.911.911,0,0,0,.451-.395,1.676,1.676,0,0,0,.162-.749Z"/><path class="cls-4" d="M237.753,192.12a7.185,7.185,0,0,1,.288-2.248,2.787,2.787,0,0,1,.854-1.313,2.175,2.175,0,0,1,1.425-.462,2.335,2.335,0,0,1,1.113.255,2.119,2.119,0,0,1,.789.736,3.921,3.921,0,0,1,.489,1.171,7.786,7.786,0,0,1,.177,1.861,7.245,7.245,0,0,1-.284,2.236,2.808,2.808,0,0,1-.852,1.317,2.188,2.188,0,0,1-1.432.464,2.161,2.161,0,0,1-1.788-.816A5.191,5.191,0,0,1,237.753,192.12Zm.994,0a4.931,4.931,0,0,0,.454,2.58,1.3,1.3,0,0,0,2.239,0,7.548,7.548,0,0,0,0-5.162,1.346,1.346,0,0,0-1.13-.639,1.241,1.241,0,0,0-1.064.564A5,5,0,0,0,238.747,192.12Z"/><path class="cls-4" d="M243.871,192.12a7.218,7.218,0,0,1,.287-2.248,2.8,2.8,0,0,1,.854-1.313,2.178,2.178,0,0,1,1.426-.462,2.331,2.331,0,0,1,1.112.255,2.122,2.122,0,0,1,.79.736,3.946,3.946,0,0,1,.488,1.171,7.778,7.778,0,0,1,.178,1.861,7.212,7.212,0,0,1-.285,2.236,2.8,2.8,0,0,1-.852,1.317,2.4,2.4,0,0,1-3.22-.352A5.2,5.2,0,0,1,243.871,192.12Zm.993,0a4.941,4.941,0,0,0,.454,2.58,1.3,1.3,0,0,0,2.24,0,7.564,7.564,0,0,0,0-5.162,1.346,1.346,0,0,0-1.13-.639,1.239,1.239,0,0,0-1.064.564A4.994,4.994,0,0,0,244.864,192.12Z"/><path class="cls-4" d="M249.988,192.12a7.185,7.185,0,0,1,.288-2.248,2.8,2.8,0,0,1,.854-1.313,2.178,2.178,0,0,1,1.426-.462,2.328,2.328,0,0,1,1.112.255,2.119,2.119,0,0,1,.789.736,3.921,3.921,0,0,1,.489,1.171,7.786,7.786,0,0,1,.177,1.861,7.245,7.245,0,0,1-.284,2.236,2.808,2.808,0,0,1-.852,1.317,2.185,2.185,0,0,1-1.431.464,2.159,2.159,0,0,1-1.788-.816A5.183,5.183,0,0,1,249.988,192.12Zm.994,0a4.928,4.928,0,0,0,.455,2.58,1.3,1.3,0,0,0,2.239,0,7.564,7.564,0,0,0,0-5.162,1.349,1.349,0,0,0-1.131-.639,1.242,1.242,0,0,0-1.064.564A5,5,0,0,0,250.982,192.12Z"/><path class="cls-4" d="M257.009,198.318h-.694a9.685,9.685,0,0,0,1.607-5.162,8.759,8.759,0,0,0-.232-2,8.469,8.469,0,0,0-.509-1.547,18.089,18.089,0,0,0-.866-1.611h.694A10.294,10.294,0,0,1,258.5,190.7a7.4,7.4,0,0,1-.143,5.253A9.9,9.9,0,0,1,257.009,198.318Z"/></svg>