<svg id="レイヤー_1" data-name="レイヤー 1" xmlns="http://www.w3.org/2000/svg" viewBox="0 0 376 200"><defs><style>.cls-1{fill:#8dbfff;}.cls-2,.cls-5,.cls-6{fill:none;stroke-miterlimit:10;}.cls-2{stroke:#0000a0;}.cls-3{fill:red;}.cls-4{fill:#0040a7;}.cls-5,.cls-6{stroke:#000;}.cls-6{stroke-width:0.75px;}.cls-7{isolation:isolate;}.cls-8{fill:#585858;}</style></defs><path class="cls-1" d="M361.761,95.347v21.019H336.309V95.347H309.344v21.019H282.378V95.347H255.413v21.019H228.448V95.347H201.483c-2.357,6.721-7.011,12.567-9.374,10.509-1.991-1.733-4.109-5.012-8.87-3.447-2.9.953-6.343-4.3-8.722-7.062H147.552v21.019H120.587V95.347H93.622v21.019H66.657V95.347H39.691v21.019H12.726V95.347H0v43.7H376v-43.7Z"/><path class="cls-2" d="M376,95.347H361.761v21.019H336.309V95.347H309.344v21.019H282.378V95.347H255.413v21.019H228.448V95.347H201.483c-2.357,6.721-7.011,12.567-9.374,10.509-1.991-1.733-4.109-5.012-8.87-3.447-2.9.953-6.343-4.3-8.722-7.062H147.552v21.019H120.587V95.347H93.622v21.019H66.657V95.347H39.691v21.019H12.726V95.347H0"/><path class="cls-3" d="M42.892,147.542H38.106v-.888h4.786Zm-.492,7.484H39.63v.5h-.984V151.5H42.4Zm-3.73-6.741h3.767v.864H38.67Zm0,1.6h3.767v.875H38.67Zm3.778-3.934H38.742v-.876h3.706ZM39.63,152.4v1.727h1.775V152.4Zm9.619-2.59H46.658v5.865H45.531v-5.865H42.856v-1.1h2.675v-3.993h1.127v3.993h2.591Z"/><path class="cls-3" d="M50.707,147.962a7.215,7.215,0,0,1,1.942,1.079l-.648.9a8.354,8.354,0,0,0-1.918-1.164Zm1.21,3.19.912.587c-.444,1.26-1.007,2.675-1.511,3.79l-1.007-.575A32.618,32.618,0,0,0,51.917,151.152ZM51.21,144.8a7.355,7.355,0,0,1,1.895,1.163l-.671.887a8.578,8.578,0,0,0-1.848-1.259Zm3.6,8.443a8.308,8.308,0,0,1-1.655,2.482,7.551,7.551,0,0,0-.876-.6,6.213,6.213,0,0,0,1.512-2.159Zm2.087-8.06v7.6H53.369v-7.6Zm-2.579,2.231h1.6v-1.259h-1.6Zm0,2.207h1.6v-1.283h-1.6Zm0,2.183h1.6v-1.284h-1.6Zm1.967,1.1a16.275,16.275,0,0,1,1.32,1.823l-.9.552a12.232,12.232,0,0,0-1.271-1.907Zm2.351-7v6.824h-.971V145.9Zm2.063-1.224v9.679c0,.624-.132.936-.5,1.115a5.155,5.155,0,0,1-1.919.205,3.854,3.854,0,0,0-.324-1.068c.672.024,1.284.024,1.476.012s.251-.06.251-.252v-9.691Z"/><path class="cls-3" d="M63.666,148.945h7.855a7.655,7.655,0,0,0,1.008-.06v1.235c-.288-.011-.7-.024-1.008-.024H68.427a7.375,7.375,0,0,1-.743,3.191,5.868,5.868,0,0,1-2.387,2.242l-1.1-.815a5,5,0,0,0,2.219-1.787,5.543,5.543,0,0,0,.72-2.831H63.666c-.36,0-.756.013-1.092.037v-1.248A10.515,10.515,0,0,0,63.666,148.945Zm1.487-3.022h4.054a10.046,10.046,0,0,0,1.2-.072v1.235c-.384-.024-.815-.048-1.2-.048H65.165c-.408,0-.852.024-1.175.048v-1.235A9.033,9.033,0,0,0,65.153,145.923Zm6.884.659-.791.336a14.4,14.4,0,0,0-.948-1.655l.768-.324A17.492,17.492,0,0,1,72.037,146.582Zm1.38-.527-.78.348a12.044,12.044,0,0,0-.984-1.656l.768-.323A15.283,15.283,0,0,1,73.417,146.055Z"/><path class="cls-3" d="M76.577,149.461H83.1c.575,0,1.043-.048,1.343-.072v1.487c-.264-.012-.816-.06-1.343-.06H76.577c-.66,0-1.379.024-1.786.06v-1.487C75.186,149.413,75.93,149.461,76.577,149.461Z"/><path class="cls-3" d="M91.6,146.355c-.048.084-.084.155-.132.239h2.89a2.8,2.8,0,0,0,.9-.131l.971.6a6.038,6.038,0,0,0-.324.744,13.74,13.74,0,0,1-1.835,3.622c.5.36.972.72,1.344,1.019l-.888,1.056c-.336-.312-.792-.684-1.283-1.08a11.416,11.416,0,0,1-4.45,2.962l-1.091-.959a10.2,10.2,0,0,0,4.533-2.758c-.827-.6-1.691-1.188-2.386-1.632l.827-.851c.72.42,1.559.96,2.363,1.511a9.812,9.812,0,0,0,1.5-3.022h-3.79a13.592,13.592,0,0,1-3.166,3.142l-1.019-.791a11,11,0,0,0,3.837-4.09,5.638,5.638,0,0,0,.456-1.079l1.367.431C91.983,145.647,91.731,146.115,91.6,146.355Z"/><path class="cls-3" d="M102.964,146.487a27.652,27.652,0,0,0,3.526-.348v1.115a37.039,37.039,0,0,1-3.946.312,9.575,9.575,0,0,1-.923,1.583,3.52,3.52,0,0,1,1.535-.36,1.578,1.578,0,0,1,1.607,1.02c.744-.348,1.355-.6,1.919-.864.408-.18.756-.335,1.139-.527l.492,1.1c-.348.108-.863.3-1.223.444-.612.239-1.391.551-2.231.935.012.684.024,1.643.036,2.219h-1.14c.025-.42.037-1.1.049-1.691-1.032.563-1.679,1.115-1.679,1.823,0,.816.779.983,1.99.983a20.529,20.529,0,0,0,3.335-.311l-.036,1.211a30.536,30.536,0,0,1-3.334.216c-1.788,0-3.179-.42-3.179-1.907s1.439-2.411,2.83-3.119a.963.963,0,0,0-.983-.6,3.062,3.062,0,0,0-1.991.863,13.054,13.054,0,0,0-1.091,1.284l-1.032-.768a12.047,12.047,0,0,0,2.711-3.5H101c-.5,0-1.331-.024-2-.072V146.4a15.49,15.49,0,0,0,2.063.131c.228,0,.468,0,.708-.011a6.025,6.025,0,0,0,.276-1.428l1.247.1C103.216,145.527,103.12,145.971,102.964,146.487Z"/><path class="cls-3" d="M114.892,146.175c-.036.264-.084.635-.144,1.091a16.018,16.018,0,0,0,2.327-.156l-.036,1.127a22.763,22.763,0,0,1-2.411.121H114.6c-.083.623-.167,1.307-.24,1.93h.168a19.145,19.145,0,0,0,2.459-.143l-.036,1.127c-.732.072-1.463.12-2.243.12h-.456c-.036.42-.06.791-.06,1.043,0,1.092.636,1.727,1.919,1.727,1.751,0,2.807-.779,2.807-1.906a3.288,3.288,0,0,0-1.272-2.4l1.332-.276a4.185,4.185,0,0,1,1.2,2.818c0,1.8-1.607,2.975-4.09,2.975-1.738,0-3.07-.756-3.07-2.747,0-.312.036-.767.084-1.307a13.082,13.082,0,0,1-2.4-.408l.059-1.151a10.139,10.139,0,0,0,2.459.479c.084-.635.168-1.307.252-1.942a15.225,15.225,0,0,1-2.5-.42l.06-1.1a11.728,11.728,0,0,0,2.555.455c.06-.431.1-.815.12-1.127a5.081,5.081,0,0,0,.012-.948l1.343.072C114.988,145.6,114.94,145.887,114.892,146.175Z"/><path class="cls-3" d="M127,148.765c1.056-.635,2.243-1.223,2.866-1.571a6.654,6.654,0,0,0,.96-.636l.659,1.092c-.311.192-.647.372-1.031.564-.791.407-2.387,1.151-3.526,1.9-1.055.695-1.727,1.451-1.727,2.326,0,.936.9,1.488,2.687,1.488a17.845,17.845,0,0,0,3.873-.433l-.011,1.368a22.9,22.9,0,0,1-3.814.288c-2.315,0-4.019-.66-4.019-2.579a3.929,3.929,0,0,1,2.04-3.118c-.552-1.007-1.152-2.363-1.715-3.646l1.187-.492A27.937,27.937,0,0,0,127,148.765Z"/><path class="cls-3" d="M136.709,146.558a28.773,28.773,0,0,0-.587,4.522,12.06,12.06,0,0,0,.071,1.283c.2-.491.444-1.079.636-1.523l.6.48c-.312.911-.732,2.195-.852,2.794a2.341,2.341,0,0,0-.059.552c0,.12.011.3.024.444l-1.092.072a15.237,15.237,0,0,1-.444-3.874,34.577,34.577,0,0,1,.516-4.785,8.723,8.723,0,0,0,.108-1l1.331.12A8.589,8.589,0,0,0,136.709,146.558Zm2.867,6.009c0,.54.419.983,1.87.983a12.872,12.872,0,0,0,2.987-.323l.024,1.283a16.448,16.448,0,0,1-3.034.24c-2.039,0-2.975-.708-2.975-1.871a6.064,6.064,0,0,1,.2-1.475l1.079.1A4.2,4.2,0,0,0,139.576,152.567Zm4.509-6.057v1.224a30.547,30.547,0,0,1-5.025,0l-.012-1.224A22.087,22.087,0,0,0,144.085,146.51Z"/><path class="cls-3" d="M146.19,152.819l.984-.864a22.19,22.19,0,0,1,2.65,2.651l-1.018.863A21.955,21.955,0,0,0,146.19,152.819Z"/><path class="cls-3" d="M167.881,148.669a9.413,9.413,0,0,1-2.506,4.474,9.666,9.666,0,0,0,3.586,1.511,4.919,4.919,0,0,0-.756,1.043,9.72,9.72,0,0,1-3.754-1.763,11.378,11.378,0,0,1-3.526,1.74,5.151,5.151,0,0,0-.659-1.02,9.708,9.708,0,0,0,3.31-1.511,10.273,10.273,0,0,1-2.195-3.658h-.636a11.839,11.839,0,0,1-1.571,6.165,5.022,5.022,0,0,0-.959-.66c1.306-1.811,1.427-4.461,1.427-6.357v-3.262h8.839v1.1h-7.724v1.931h6.117l.216-.047Zm-5.324.816a7.989,7.989,0,0,0,1.906,2.914,7.763,7.763,0,0,0,1.932-2.914Z"/><path class="cls-3" d="M180.289,151.98a5.377,5.377,0,0,1-1.835,2.074,10.8,10.8,0,0,0,2.807.684,4.556,4.556,0,0,0-.648.923,9.642,9.642,0,0,1-3.19-1.007,13.367,13.367,0,0,1-3.586,1.031,3.483,3.483,0,0,0-.481-.911,12.528,12.528,0,0,0,3.107-.744,6.057,6.057,0,0,1-1.079-1.067,8.851,8.851,0,0,1-1.211.876,7.219,7.219,0,0,0-.768-.684,7.017,7.017,0,0,0,2.531-2.195H174.76v-3.142c-.18.228-.36.443-.539.635a5.446,5.446,0,0,0-.744-.527c-.228.359-.468.731-.732,1.079v6.705H171.7v-5.457a10.2,10.2,0,0,1-1.176,1.115,8.35,8.35,0,0,0-.611-1.02,10.475,10.475,0,0,0,2.818-3.19l.888.312a8.177,8.177,0,0,0,1.595-2.807l1.092.264q-.163.45-.361.9h5.014v.911h-5.493a6.953,6.953,0,0,1-.432.7h5.193v3.526h-3.154a5.474,5.474,0,0,1-.48.732h2.843l.179-.048Zm-6.812-6.921a12.416,12.416,0,0,1-2.842,2.867,6.36,6.36,0,0,0-.6-.8,9.412,9.412,0,0,0,2.435-2.447Zm2.291,3.79H179.2v-.672h-3.429Zm0,1.391H179.2v-.683h-3.429Zm.359,2.231a5.1,5.1,0,0,0,1.332,1.1,4.9,4.9,0,0,0,1.343-1.1Z"/><path class="cls-3" d="M187.06,146.75a16.49,16.49,0,0,1-1.271,5.661c1.3,1.631,3.046,1.979,4.953,1.991.42,0,1.955,0,2.471-.012a4.037,4.037,0,0,0-.42,1.068h-2.111c-2.1,0-3.994-.4-5.409-2.075a7.273,7.273,0,0,1-2.327,2.351,4.659,4.659,0,0,0-.695-.9,5.786,5.786,0,0,0,2.326-2.459,10.375,10.375,0,0,1-.935-2.3,9.527,9.527,0,0,1-.828,1.56,6.8,6.8,0,0,0-.839-.816,14.082,14.082,0,0,0,1.823-6.128l1.1.143c-.084.624-.179,1.236-.3,1.835H186.2l.193-.035Zm-2.651.864c-.084.324-.168.647-.252.947a11.172,11.172,0,0,0,.924,2.735,14.506,14.506,0,0,0,.852-3.682Zm4.582.18a10.525,10.525,0,0,1-1.283,5.625,3.156,3.156,0,0,0-.888-.576,9.094,9.094,0,0,0,1.139-5.049V145.5h3.371v6.548c0,.384.024.432.18.432h.384c.143,0,.179-.216.2-1.091a2.91,2.91,0,0,0,.827.347c-.072,1.152-.312,1.524-.936,1.524h-.683c-.78,0-.96-.288-.96-1.224V146.45h-1.355Z"/><path class="cls-3" d="M198.1,153.239c-1.308.456-2.7.923-3.779,1.271l-.263-1.139c.431-.12.96-.264,1.535-.444v-3.046H194.3v-1.032h1.295v-2.386h-1.415v-1.032h3.813v1.032h-1.331v2.386h1.14v1.032h-1.14v2.71c.408-.132.84-.264,1.247-.408Zm7.087,1.043V155.3h-7.664v-1.019H201v-1.427h-2.6v-1.008H201v-1.235h-2.495v-5.4h6.14v5.4h-2.5v1.235h2.662v1.008h-2.662v1.427Zm-5.661-6.824H201.1v-1.295h-1.572Zm0,2.207H201.1v-1.307h-1.572Zm4.054-3.5h-1.535v1.295h1.535Zm0,2.195h-1.535v1.307h1.535Z"/><path class="cls-3" d="M207.642,146.642c.876-.084,3.01-.287,5.217-.479,1.284-.108,2.483-.18,3.31-.2v1.211a11.554,11.554,0,0,0-2.339.168,3.977,3.977,0,0,0-2.65,3.61c0,2.183,2.039,2.914,4.017,3l-.431,1.284c-2.351-.12-4.809-1.38-4.809-4.018a4.812,4.812,0,0,1,2.038-3.9c-1.211.12-4.006.408-5.349.695l-.12-1.307C206.982,146.691,207.4,146.666,207.642,146.642Zm7.784,3.514-.744.336a11.384,11.384,0,0,0-.959-1.679l.719-.312A17.051,17.051,0,0,1,215.426,150.156Zm1.367-.539-.731.348a11.284,11.284,0,0,0-1.008-1.655l.719-.324A16.985,16.985,0,0,1,216.793,149.617Z"/><path class="cls-3" d="M224.247,149.221c0,1.319.852,4.162,4.81,5.385a8.963,8.963,0,0,0-.792,1.055,7.166,7.166,0,0,1-4.654-4.569,7.344,7.344,0,0,1-4.676,4.582,5.254,5.254,0,0,0-.768-.984c3.886-1.247,4.8-4.09,4.8-5.457V147.77h-1.991a12.317,12.317,0,0,1-1.775,2.866,7.45,7.45,0,0,0-1.092-.743,11.7,11.7,0,0,0,2.687-5.338l1.248.265a18.181,18.181,0,0,1-.6,1.846H227.8l.217-.059.9.3a18.582,18.582,0,0,1-1.643,3.886l-1.008-.444a13.778,13.778,0,0,0,1.08-2.578h-3.095Z"/><path class="cls-3" d="M234.148,145.563c-.335,1.008-.755,2.255-1.139,3.19a3.637,3.637,0,0,1,1,2.5,1.663,1.663,0,0,1-.492,1.427,1.615,1.615,0,0,1-.648.24,5.685,5.685,0,0,1-.792.012,2.164,2.164,0,0,0-.263-.96,3.743,3.743,0,0,0,.612.013.643.643,0,0,0,.371-.108c.168-.12.216-.408.216-.756a3.292,3.292,0,0,0-.971-2.243c.3-.8.611-1.871.839-2.686h-1.283v9.5h-.984V145.179h2.639l.168-.036Zm6.609,3.514v6.56h-1.043v-.515h-2.207v.552H236.5v-6.6h1.619c-.18-.144-.395-.288-.54-.383a9.556,9.556,0,0,0,1.224-2h-2.267a10.757,10.757,0,0,1-1.607,2.35h.66v6.633H234.58v-6.621a6,6,0,0,0-.731-.468,9.1,9.1,0,0,0,2.386-3.922l1.056.252c-.1.288-.2.576-.324.852h2.266l.193-.06.72.408a10.784,10.784,0,0,1-1.632,2.962Zm-3.25.959v1.56h2.207v-1.56Zm2.207,4.139v-1.644h-2.207v1.644Z"/><path class="cls-3" d="M248.092,155.194l-.708-1.127a7.69,7.69,0,0,0,1.067-.168,3.452,3.452,0,0,0,2.9-3.407,3.189,3.189,0,0,0-2.9-3.346,23.84,23.84,0,0,1-.72,3.37c-.719,2.447-1.714,3.8-2.9,3.8S242.551,153,242.551,151a5.2,5.2,0,0,1,5.36-4.989,4.44,4.44,0,0,1,4.7,4.522C252.613,153.047,251.006,154.774,248.092,155.194Zm-3.227-2.3c.54,0,1.1-.779,1.656-2.627a19.164,19.164,0,0,0,.659-3.094,4.009,4.009,0,0,0-3.418,3.706C243.762,152.256,244.35,152.891,244.865,152.891Z"/><path class="cls-3" d="M265.2,149.665h-1.211v6.009h-1.067v-6.009h-1.5v.144c0,1.775-.216,4.269-1.787,5.936a2.478,2.478,0,0,0-.8-.767,4.94,4.94,0,0,0,.456-.564h-3.742v.887h-.972V145.1h.972v8.36h4.21v.119a9.43,9.43,0,0,0,.611-3.777v-4.15l.72.228a15.378,15.378,0,0,0,3.082-1.032l.9.816a18.873,18.873,0,0,1-3.645,1.067v1.907H265.2Zm-7.8.971a6.99,6.99,0,0,1-1.38,1.991,4.868,4.868,0,0,0-.443-.911,7.92,7.92,0,0,0,1.727-2.591h-1.5v-.935H257.4v-3.407h.936v3.407h1.57v.935h-1.57v.348c.359.288,1.331,1.2,1.57,1.439l-.6.768c-.192-.276-.6-.78-.971-1.2v2.711H257.4Zm-1.019-2.83a7.839,7.839,0,0,0-.481-2.063l.708-.228a7.377,7.377,0,0,1,.516,2.039ZM260,145.731c-.275.708-.623,1.559-.887,2.087l-.648-.216a15.247,15.247,0,0,0,.66-2.1Z"/><path class="cls-3" d="M272.115,146.474c-.143.444-.288.912-.407,1.32h4.677v7.9h-1.139v-.623h-7.305v.623h-1.079v-7.9h3.695c.095-.408.191-.888.263-1.32h-4.473v-1.055h10.6v1.055Zm-4.174,7.568h1.5v-5.229h-1.5Zm4.726-5.229h-2.23v1.128h2.23Zm0,2.015h-2.23v1.139h2.23Zm-2.23,3.214h2.23v-1.187h-2.23Zm4.809-5.229h-1.571v5.229h1.571Z"/><path class="cls-3" d="M283.432,150.337v5.348h-1.091v-5.348h-1.692a7.84,7.84,0,0,1-1.775,5.432,3.852,3.852,0,0,0-.827-.755,6.8,6.8,0,0,0,1.558-4.677h-1.462v-1.044h1.475v-2.867h-1.283V145.4h6.152v1.031h-1.055v2.867h1.223v1.044Zm-1.091-1.044v-2.867h-1.68v2.867Zm6.859,2.446a10.607,10.607,0,0,1-4.437,3.935,4.237,4.237,0,0,0-.791-.9,8.96,8.96,0,0,0,4.174-3.454Zm-.539-6.452a12.257,12.257,0,0,1-3.418,2.879,3.878,3.878,0,0,0-.8-.792,9.939,9.939,0,0,0,3.166-2.507Zm.264,3.274a13.051,13.051,0,0,1-3.55,3.047,4.525,4.525,0,0,0-.792-.792,10.282,10.282,0,0,0,3.322-2.686Z"/><path class="cls-3" d="M297.843,149.2c.575,2.447,1.667,4.51,3.441,5.529a4.065,4.065,0,0,0-.815.935,8.5,8.5,0,0,1-3.118-4.653,8.785,8.785,0,0,1-2.878,4.666,5.363,5.363,0,0,0-.876-.7v.683h-1.091v-4.137c-.636.588-1.284,1.187-1.848,1.667l-.611-.935c.623-.48,1.558-1.284,2.459-2.1v-1.738l-.9.575a13.638,13.638,0,0,0-1.415-2.267l.864-.515a13.677,13.677,0,0,1,1.452,2.158v-3.706H293.6v10.255a8.222,8.222,0,0,0,2.926-5.721h-2.566v-1.091h2.626c.012-.18.012-.348.012-.516v-2.878h1.1v2.878c0,.168,0,.336-.011.516h3.3V149.2Zm1.954-1.583a14.464,14.464,0,0,0-1.343-2.123l.84-.468a15.989,15.989,0,0,1,1.415,2.039Z"/><path class="cls-3" d="M306.964,146.487a27.634,27.634,0,0,0,3.526-.348v1.115a37.039,37.039,0,0,1-3.946.312,9.575,9.575,0,0,1-.923,1.583,3.52,3.52,0,0,1,1.535-.36,1.579,1.579,0,0,1,1.607,1.02c.744-.348,1.355-.6,1.919-.864.408-.18.756-.335,1.139-.527l.492,1.1c-.348.108-.864.3-1.223.444-.611.239-1.392.551-2.231.935.012.684.024,1.643.036,2.219h-1.139c.023-.42.036-1.1.048-1.691-1.032.563-1.68,1.115-1.68,1.823,0,.816.78.983,1.991.983a20.5,20.5,0,0,0,3.334-.311l-.035,1.211a30.538,30.538,0,0,1-3.335.216c-1.787,0-3.178-.42-3.178-1.907s1.44-2.411,2.83-3.119a.964.964,0,0,0-.983-.6,3.062,3.062,0,0,0-1.991.863,13.054,13.054,0,0,0-1.091,1.284l-1.031-.768a12.04,12.04,0,0,0,2.71-3.5H305c-.5,0-1.331-.024-2-.072V146.4a15.49,15.49,0,0,0,2.063.131c.228,0,.467,0,.708-.011a5.976,5.976,0,0,0,.276-1.428l1.247.1C307.216,145.527,307.12,145.971,306.964,146.487Z"/><path class="cls-3" d="M317.957,150.852c-.384.12-.78.24-1.164.36v3.166c0,.588-.12.9-.455,1.08a3.866,3.866,0,0,1-1.655.216,4.393,4.393,0,0,0-.325-1.08c.5.012,1,.012,1.152.012s.216-.06.216-.228v-2.842l-1.5.431-.241-1.091c.481-.108,1.08-.264,1.74-.444v-2.4H314.2V147h1.523v-2.314h1.067V147h1.044v1.032h-1.044v2.111l1.031-.288Zm7.159,4.21h-5.253v.6h-1.079v-6.62a8.952,8.952,0,0,1-.72.9,8.361,8.361,0,0,0-.731-.96,10.3,10.3,0,0,0,2.291-4.329l1.067.275a14.732,14.732,0,0,1-.719,1.956h1.606a15.664,15.664,0,0,0,.768-2.184l1.175.252c-.263.648-.551,1.331-.839,1.932H324.9v.995h-2.3v1.391h2.015v.96H322.6v1.415h2.015v.947H322.6v1.463h2.518Zm-3.561-7.184h-1.692v1.391h1.692Zm0,2.351h-1.692v1.415h1.692Zm-1.692,3.825h1.692v-1.463h-1.692Z"/><path class="cls-3" d="M332.188,154.318a12.5,12.5,0,0,0,1.691.108c.516,0,2.53,0,3.214-.024a3.369,3.369,0,0,0-.42,1.127h-2.855c-2.35,0-4.078-.4-5.169-2.278a6.09,6.09,0,0,1-1.691,2.494,6.08,6.08,0,0,0-.923-.767c1.319-.984,1.931-2.663,2.183-4.762l1.151.108a14.675,14.675,0,0,1-.288,1.572,3.437,3.437,0,0,0,1.955,2.111v-4.654h-2.77v-1.068h6.752v1.068h-2.83v1.763h3.429v1.043h-3.429Zm-4.474-5.589h-1.092v-2.758h4.39v-1.283H332.2v1.283h4.438v2.758H335.5v-1.7h-7.783Z"/><path d="M169.9,178.834l-1.294.408v3.538c0,.468-.109.7-.4.839a4.48,4.48,0,0,1-1.547.133,2.888,2.888,0,0,0-.24-.756c.552.024,1.044.024,1.2.012s.217-.048.217-.228v-3.286l-1.655.515-.193-.779c.5-.132,1.14-.324,1.848-.528v-2.686h-1.655v-.732h1.655v-2.435h.768v2.435h1.2v.732h-1.2v2.458l1.2-.36Zm7.172,4.294h-5.48v.624h-.768v-7.029a9.119,9.119,0,0,1-.935,1.223,4.631,4.631,0,0,0-.565-.647,10.486,10.486,0,0,0,2.411-4.474l.756.192a14.93,14.93,0,0,1-.792,2.087h1.944a19.683,19.683,0,0,0,.839-2.231l.828.2c-.264.66-.588,1.415-.888,2.027h2.446v.732H174.37v1.691h2.219v.7H174.37v1.727h2.219v.7H174.37v1.763h2.7Zm-3.429-7.292h-2.051v1.691h2.051Zm0,2.386h-2.051v1.727h2.051Zm-2.051,4.186h2.051v-1.763h-2.051Z"/><path d="M183.983,182.648a10.96,10.96,0,0,0,2.051.156c.408,0,2.483,0,3.023-.012a2.419,2.419,0,0,0-.312.8H186c-2.53,0-4.353-.431-5.445-2.542a6.571,6.571,0,0,1-1.823,2.77,4.913,4.913,0,0,0-.648-.539c1.332-1.044,1.991-2.759,2.268-4.929l.8.083a12.337,12.337,0,0,1-.3,1.595,3.736,3.736,0,0,0,2.327,2.4v-5.181h-3.046v-.743h7.015v.743h-3.166v2.087h3.622v.755h-3.622Zm-4.557-5.877h-.78v-2.518h4.522v-1.4h.815v1.4h4.57v2.518h-.8V175h-8.323Z"/><path d="M195.959,183.2l-.491-.792a9.492,9.492,0,0,0,1.019-.144,3.7,3.7,0,0,0,3.107-3.634,3.432,3.432,0,0,0-3.335-3.538,23.4,23.4,0,0,1-.72,3.5c-.731,2.471-1.679,3.694-2.746,3.694-1.02,0-2.087-1.175-2.087-3.154a5.067,5.067,0,0,1,5.193-4.821,4.309,4.309,0,0,1,4.558,4.353C200.457,181.185,198.777,182.84,195.959,183.2Zm-3.13-1.883c.564,0,1.247-.8,1.871-2.914a18.28,18.28,0,0,0,.672-3.3,4.273,4.273,0,0,0-3.838,3.97C191.534,180.633,192.266,181.317,192.829,181.317Z"/><path d="M212.925,174.505h-1.487v8.083c0,.6-.157.876-.588,1.02a10.412,10.412,0,0,1-2.447.144,5.251,5.251,0,0,0-.347-.864c.983.048,1.942.036,2.23.024.252-.012.336-.1.336-.336v-8.071h-8.3v-.8h10.6Zm-8.588,6.236v.959h-.768v-5.373h4.846v4.414Zm0-3.658v2.9h3.3v-2.9Z"/><path d="M219.191,175.92a18.112,18.112,0,0,1-4.545,2.506,3.9,3.9,0,0,0-.551-.719,14.082,14.082,0,0,0,5.744-3.418h-5.408v-.744H224.78v.744h-3.873a11.539,11.539,0,0,1-.912.959v3.718h-.8Zm-3.418,3.382h7.748v4.437h-.851v-.575h-6.093v.612h-.8Zm.8.707v2.447h6.093v-2.447Zm4.533-4.5a20.9,20.9,0,0,1,3.935,2.171l-.565.6a19.3,19.3,0,0,0-3.933-2.242Z"/><path d="M228.409,174.481a29.358,29.358,0,0,0-.6,4.869,11.923,11.923,0,0,0,.131,1.835c.193-.564.5-1.355.708-1.871l.444.36c-.276.8-.732,2.026-.852,2.6a2.2,2.2,0,0,0-.048.54c.012.12.025.288.036.408l-.755.06a15.192,15.192,0,0,1-.444-3.79,37.527,37.527,0,0,1,.552-5.049,4.865,4.865,0,0,0,.071-.8l.949.084A4.863,4.863,0,0,0,228.409,174.481Zm6.057-.12c-.024.335-.024.923-.036,1.487a17.992,17.992,0,0,0,2.111-.276v.828c-.672.108-1.38.191-2.111.239.012,1.212.095,2.459.144,3.5a7.685,7.685,0,0,1,2.387,1.548l-.468.719a9.08,9.08,0,0,0-1.884-1.427v.336a1.766,1.766,0,0,1-2.026,1.895c-1.595,0-2.446-.636-2.446-1.691,0-.96.863-1.751,2.422-1.751a6.215,6.215,0,0,1,1.187.12c-.048-.96-.12-2.195-.132-3.2-.4.012-.8.024-1.211.024-.683,0-1.3-.036-1.991-.084l-.012-.8c.684.06,1.32.1,2.027.1.4,0,.792-.012,1.187-.024v-1.512a4.759,4.759,0,0,0-.048-.731h.972C234.5,173.893,234.478,174.133,234.466,174.361Zm-2.051,8.071c1.056,0,1.367-.528,1.367-1.343,0-.132,0-.288-.011-.468a4.5,4.5,0,0,0-1.284-.192c-.935,0-1.595.408-1.595,1.02C230.892,182.084,231.516,182.432,232.415,182.432Z"/><path d="M238.25,180.825l.7-.611a22.6,22.6,0,0,1,2.7,2.674l-.732.623A19.458,19.458,0,0,0,238.25,180.825Z"/><path d="M260.564,173.341v10.411h-.838v-.636H251.45v.636h-.8V173.341Zm-.838,9.019v-8.215H251.45v8.215Zm-1.86-6.26v4.293h-4.581V176.1Zm-.792.707H254.04v2.867h3.034Z"/><path d="M264.7,179.23V182.8c0,.468-.108.683-.395.815a4.57,4.57,0,0,1-1.56.133,3.169,3.169,0,0,0-.252-.72c.564.012,1.056.012,1.211.012s.217-.06.217-.228V179.47c-.612.18-1.188.36-1.68.516l-.239-.78c.527-.132,1.2-.324,1.919-.54v-2.638h-1.739v-.744h1.739v-2.435h.779v2.435h1.415v.744H264.7v2.41l1.427-.431.108.743Zm8.395-1.583h-2.074v6.092h-.781v-6.092h-2.482c-.012,1.835-.239,4.294-1.822,6.045a2.214,2.214,0,0,0-.588-.564c1.463-1.607,1.619-3.814,1.619-5.577v-3.79l.767.156a28.748,28.748,0,0,0,4.27-.911l.588.635a29.359,29.359,0,0,1-4.834.948v2.29h5.337Z"/><path d="M278.256,173.665c-.384.984-.888,2.183-1.343,3.13a3.494,3.494,0,0,1,1.211,2.6,1.492,1.492,0,0,1-.479,1.343,1.4,1.4,0,0,1-.661.228,5.582,5.582,0,0,1-.9.012,1.619,1.619,0,0,0-.228-.732,5.336,5.336,0,0,0,.84.025.886.886,0,0,0,.432-.133.928.928,0,0,0,.275-.827,3.336,3.336,0,0,0-1.247-2.423c.407-.887.827-1.979,1.127-2.806h-1.906v9.678h-.744v-10.4H277.6l.132-.036Zm6.536,5.721a15.41,15.41,0,0,1-2,1.583,5.2,5.2,0,0,0,2.315,2.1,2.829,2.829,0,0,0-.528.66c-1.774-.9-2.9-2.771-3.489-5.11h-1.368v3.8c.756-.156,1.584-.324,2.386-.492l.061.7c-1.535.36-3.154.708-4.317.971l-.265-.767c.384-.072.852-.156,1.367-.264v-9.2h5.35v5.253h-2.507a9.246,9.246,0,0,0,.695,1.8,14.963,14.963,0,0,0,1.68-1.487Zm-5.073-5.313v1.559h3.79v-1.559Zm0,3.826h3.79v-1.583h-3.79Z"/><path d="M293.23,177.971a8.49,8.49,0,0,0,3.85,2.135,3.654,3.654,0,0,0-.54.683,8.816,8.816,0,0,1-4.221-2.818h-1.355a9.687,9.687,0,0,1-4.235,2.866,3,3,0,0,0-.527-.66,9.1,9.1,0,0,0,3.815-2.206h-2.484v-4.738h8.144v4.738Zm-3.837,1.643h.8v.707c0,1.152-.276,2.579-2.579,3.515a3.339,3.339,0,0,0-.552-.624c2.123-.816,2.328-2,2.328-2.914Zm-1.068-4.354h2.855v-1.343h-2.855Zm0,2.027h2.855v-1.379h-2.855Zm6.525-3.37h-2.867v1.343h2.867Zm0,1.991h-2.867v1.379h2.867Zm-1.644,3.694h.815v4.15h-.815Z"/><path d="M300.517,174.625a27.66,27.66,0,0,0-.6,4.641,15.875,15.875,0,0,0,.12,1.835c.2-.564.5-1.343.708-1.847l.468.348a25.169,25.169,0,0,0-.852,2.65,2.965,2.965,0,0,0-.06.528c.012.132.036.288.048.408l-.768.06a15.224,15.224,0,0,1-.443-3.85,34.289,34.289,0,0,1,.551-4.822,5.876,5.876,0,0,0,.073-.791l.959.084C300.661,174.073,300.564,174.408,300.517,174.625Zm2.77,6.152c0,.552.372,1.127,2.087,1.127a12.394,12.394,0,0,0,2.963-.323l.023.9a15.06,15.06,0,0,1-2.973.252c-2,0-2.891-.648-2.891-1.763a6.844,6.844,0,0,1,.192-1.379l.78.072A4.27,4.27,0,0,0,303.287,180.777Zm4.69-5.96v.863a27.628,27.628,0,0,1-4.881,0l-.012-.863A19.727,19.727,0,0,0,307.977,174.817Z"/><path d="M313.632,173.1a17.8,17.8,0,0,1-1.247,2.543v8.084h-.743v-6.945a13.255,13.255,0,0,1-1.356,1.62,5.028,5.028,0,0,0-.456-.768,13.543,13.543,0,0,0,3.07-4.75Zm7.389,4.462a21.158,21.158,0,0,1-2.519,1.907,6.568,6.568,0,0,0,2.806,3.514,3.417,3.417,0,0,0-.576.66c-2.134-1.26-3.238-4.006-3.837-7.352a12.1,12.1,0,0,1-1.536,1.859v4.161c.9-.192,1.871-.42,2.83-.647l.061.731c-1.728.42-3.562.864-4.894,1.175l-.24-.767c.433-.1.936-.2,1.5-.324v-3.646a12.248,12.248,0,0,1-1.559,1.139,5.452,5.452,0,0,0-.552-.647,10.907,10.907,0,0,0,3.778-3.5h-3.335v-.744h3.658v-2.1h.8v2.1h3.454v.744h-3.322a17.9,17.9,0,0,0,.731,3.034,18.646,18.646,0,0,0,2.16-1.847Z"/><path d="M324.793,179.122a5.753,5.753,0,0,1,3.97-1.523c1.787,0,3.009,1.067,3.009,2.471,0,2.123-1.93,3.538-6.284,3.178l-.263-.876c3.826.456,5.661-.672,5.661-2.339,0-.983-.924-1.691-2.171-1.691a4.783,4.783,0,0,0-3.79,1.644,1.99,1.99,0,0,0-.336.587l-.8-.2a43.191,43.191,0,0,0,.612-4.833l.9.12C325.129,176.5,324.925,178.33,324.793,179.122Zm5.444-4.689-.2.815c-1.128-.156-3.718-.672-4.63-.924l.216-.815A33.656,33.656,0,0,0,330.237,174.433Z"/><path d="M338.483,175.272a11.358,11.358,0,0,0,1.932-.455l.023.8a15.622,15.622,0,0,1-2.206.432,21.5,21.5,0,0,1-2.615,5.073l-.827-.432a16.718,16.718,0,0,0,2.578-4.545c-.371.036-.755.048-1.127.048-.444,0-.947-.012-1.391-.036l-.06-.8a13.342,13.342,0,0,0,1.451.072c.444,0,.911-.012,1.391-.06a8.755,8.755,0,0,0,.4-2.087l.948.084C338.855,173.809,338.688,174.565,338.483,175.272Zm3.3,3.047c.012.467.06,1.283.1,2.038a8.259,8.259,0,0,1,2.5,1.487l-.468.732a8.454,8.454,0,0,0-2-1.4c.012.228.012.419.012.576,0,.935-.611,1.691-2.051,1.691-1.3,0-2.35-.5-2.35-1.68,0-1.091,1.054-1.751,2.35-1.751a5.919,5.919,0,0,1,1.236.132c-.048-1-.109-2.206-.132-3.07h.839A11.629,11.629,0,0,0,341.782,178.319Zm-2.027,4.353c1.031,0,1.38-.539,1.38-1.187,0-.168,0-.372-.013-.6a4.414,4.414,0,0,0-1.283-.192c-.911,0-1.535.432-1.535,1.007S338.771,182.672,339.755,182.672Zm1.787-6.98.432-.648a15.989,15.989,0,0,1,2.77,1.583l-.479.7A14.745,14.745,0,0,0,341.542,175.692Z"/><path d="M348.109,175.644c-.012.743,0,1.883.084,2.89.2,2.051.828,3.407,1.7,3.407.612,0,1.2-1.212,1.523-2.459l.672.743c-.707,2.027-1.427,2.723-2.219,2.723-1.1,0-2.171-1.127-2.507-4.21-.107-1.031-.132-2.5-.132-3.19a5.151,5.151,0,0,0-.071-1.043l1.043.024A10.416,10.416,0,0,0,348.109,175.644Zm8.48,5.157-.852.336a12.147,12.147,0,0,0-2.075-5.973l.827-.288A12.735,12.735,0,0,1,356.589,180.8Z"/><path d="M23.6,178.834l-1.295.408v3.538c0,.468-.108.695-.4.839a4.483,4.483,0,0,1-1.547.133,2.877,2.877,0,0,0-.24-.756c.551.023,1.043.023,1.2.012s.216-.048.216-.228v-3.286l-1.655.515-.192-.779c.5-.133,1.139-.324,1.847-.528v-2.687H19.877v-.731h1.655v-2.435H22.3v2.435h1.2v.731H22.3v2.459l1.2-.36Zm7.172,4.294H25.286v.624h-.767v-7.029a9.188,9.188,0,0,1-.936,1.223,4.63,4.63,0,0,0-.564-.647,10.5,10.5,0,0,0,2.411-4.474l.756.192a14.978,14.978,0,0,1-.792,2.087h1.943a19.377,19.377,0,0,0,.839-2.231l.828.2c-.264.66-.587,1.415-.888,2.027h2.447v.732H28.068v1.691h2.219v.7H28.068v1.727h2.219v.7H28.068v1.763h2.7Zm-3.43-7.292H25.286v1.691h2.051Zm0,2.386H25.286v1.727h2.051Zm-2.051,4.186h2.051v-1.763H25.286Z"/><path d="M37.682,182.648a11.038,11.038,0,0,0,2.05.155c.409,0,2.483,0,3.023-.011a2.432,2.432,0,0,0-.312.8H39.7c-2.531,0-4.354-.431-5.446-2.543a6.582,6.582,0,0,1-1.822,2.771,4.979,4.979,0,0,0-.648-.539c1.331-1.044,1.991-2.759,2.267-4.93l.8.084a12.334,12.334,0,0,1-.3,1.595,3.74,3.74,0,0,0,2.327,2.4v-5.181H33.832v-.743h7.016v.743H37.682v2.087H41.3v.755H37.682Zm-4.557-5.877h-.78v-2.518h4.521v-1.4h.816v1.4h4.569v2.518h-.8V175H33.125Z"/><path d="M49.658,183.2l-.492-.792a9.477,9.477,0,0,0,1.02-.144,3.7,3.7,0,0,0,3.106-3.634,3.433,3.433,0,0,0-3.334-3.539,23.568,23.568,0,0,1-.72,3.5c-.732,2.471-1.679,3.694-2.746,3.694-1.02,0-2.087-1.175-2.087-3.155a5.067,5.067,0,0,1,5.193-4.821,4.309,4.309,0,0,1,4.557,4.354C54.155,181.184,52.476,182.84,49.658,183.2Zm-3.131-1.884c.564,0,1.248-.8,1.871-2.914a18.252,18.252,0,0,0,.672-3.3,4.273,4.273,0,0,0-3.838,3.97C45.232,180.633,45.964,181.316,46.527,181.316Z"/><path d="M59.655,181.268c-1.271.432-2.639.9-3.682,1.236l-.192-.8c.456-.119,1.019-.3,1.631-.5v-3.322H56.033v-.744h1.379v-2.7h-1.5v-.756h3.67v.756h-1.4v2.7h1.235v.744H58.18v3.082c.431-.144.9-.3,1.343-.444Zm7.2,1.367v.733H59.1v-.733h3.706v-1.726h-2.77v-.732h2.77V178.7H60.2v-5.3h6.08v5.3H63.613v1.475h2.842v.732H63.613v1.726Zm-5.925-6.919h1.931v-1.608H60.926Zm0,2.291h1.931v-1.631H60.926Zm4.582-3.9H63.553v1.608h1.955Zm0,2.268H63.553v1.631h1.955Z"/><path d="M71.859,175.488H67.817v-.647h4.042Zm-.336,7.58H68.992v.575h-.683v-4.017h3.214Zm-3.2-6.633h3.2v.648h-3.2Zm0,1.595h3.2v.648h-3.2Zm3.154-4.113H68.381v-.648h3.094Zm-2.483,6.368v2.123h1.847v-2.123Zm6.549-7.412a11.105,11.105,0,0,0,3.358,3.251,6.824,6.824,0,0,0-.456.695,13.033,13.033,0,0,1-3.238-3.19,11.24,11.24,0,0,1-3.2,3.3,3.282,3.282,0,0,0-.419-.648,9.633,9.633,0,0,0,3.214-3.406Zm2.686,10.1c0,.348-.06.54-.3.661a2.871,2.871,0,0,1-1.091.12,2.8,2.8,0,0,0-.228-.649,7.256,7.256,0,0,0,.78,0c.108,0,.132-.035.132-.132v-1.955H76.392V183.6h-.587v-2.579H74.7V183.6h-.587v-2.579h-1.08v2.723h-.683v-5.828h5.876Zm-4.113-2.614v-1.775h-1.08v1.775Zm3.2-4.222v.684h-4.1v-.684Zm-1.511,4.222v-1.775H74.7v1.775Zm1.715,0v-1.775H76.392v1.775Z"/><path d="M83.955,173.665c-.384.983-.888,2.182-1.344,3.13a3.491,3.491,0,0,1,1.212,2.6,1.491,1.491,0,0,1-.48,1.344,1.393,1.393,0,0,1-.659.227,5.482,5.482,0,0,1-.9.013,1.619,1.619,0,0,0-.228-.732,5.2,5.2,0,0,0,.84.024.871.871,0,0,0,.431-.132.929.929,0,0,0,.276-.828,3.339,3.339,0,0,0-1.247-2.422c.408-.887.828-1.979,1.127-2.806H81.076v9.678h-.743v-10.4H83.3l.132-.036Zm6.536,5.72a15.374,15.374,0,0,1-2,1.583,5.193,5.193,0,0,0,2.315,2.1,2.754,2.754,0,0,0-.528.659c-1.775-.9-2.9-2.77-3.49-5.109H85.418v3.8c.755-.156,1.583-.324,2.387-.492l.06.7c-1.535.36-3.155.708-4.318.971l-.264-.767c.384-.072.852-.156,1.367-.264v-9.2H90v5.253H87.493a9.207,9.207,0,0,0,.7,1.8,14.966,14.966,0,0,0,1.68-1.488Zm-5.073-5.312v1.559h3.79v-1.559Zm0,3.825h3.79v-1.583h-3.79Z"/><path d="M98.929,177.97a8.481,8.481,0,0,0,3.85,2.135,3.661,3.661,0,0,0-.54.684,8.813,8.813,0,0,1-4.221-2.819H96.662a9.682,9.682,0,0,1-4.233,2.867,3.039,3.039,0,0,0-.528-.66,9.1,9.1,0,0,0,3.814-2.207H93.232v-4.737h8.143v4.737Zm-3.838,1.644h.8v.707c0,1.151-.276,2.579-2.579,3.515a3.374,3.374,0,0,0-.551-.624c2.122-.816,2.326-2,2.326-2.914Zm-1.067-4.355h2.854v-1.342H94.024Zm0,2.028h2.854v-1.379H94.024Zm6.524-3.37H97.682v1.342h2.866Zm0,1.991H97.682v1.379h2.866ZM98.905,179.6h.816v4.151h-.816Z"/><path d="M108.4,174.828a28.237,28.237,0,0,0,3.706-.371v.791a35.1,35.1,0,0,1-3.993.336,10.164,10.164,0,0,1-1.164,1.978,3.5,3.5,0,0,1,1.727-.491,1.507,1.507,0,0,1,1.6,1.127c.863-.42,1.643-.72,2.29-1.02.336-.155.612-.275.924-.443l.348.8c-.289.084-.684.239-1,.359-.695.277-1.595.636-2.531,1.08.012.7.025,1.738.036,2.338h-.827c.024-.479.036-1.307.036-1.954-1.152.611-1.979,1.271-1.979,2.1,0,.983.983,1.127,2.231,1.127a21.334,21.334,0,0,0,3.262-.288l-.036.864a28.17,28.17,0,0,1-3.262.2c-1.68,0-3.047-.349-3.047-1.787,0-1.4,1.4-2.28,2.819-3.011a1.014,1.014,0,0,0-1.127-.8,3.246,3.246,0,0,0-2.1.876,16,16,0,0,0-1.092,1.247l-.731-.54a12.171,12.171,0,0,0,2.782-3.741H106.7c-.515,0-1.295-.024-1.966-.06v-.816a17.674,17.674,0,0,0,2.014.132c.264,0,.54,0,.828-.012a5.933,5.933,0,0,0,.312-1.523l.875.072A10.54,10.54,0,0,1,108.4,174.828Z"/><path d="M120.915,182.864c0,.407-.1.636-.4.755a5,5,0,0,1-1.619.133,2.471,2.471,0,0,0-.252-.684c.636.012,1.187.012,1.355,0s.229-.036.229-.2v-2.243h-2.963a7.284,7.284,0,0,1-.923,3.166,2.37,2.37,0,0,0-.576-.371,8.338,8.338,0,0,0,.9-4.39v-2.3c-.107.144-.215.276-.323.408a4.135,4.135,0,0,0-.6-.48,9.064,9.064,0,0,0,1.895-3.813l.732.168c-.084.3-.18.6-.276.886h1.475l.108-.035.48.312a11.462,11.462,0,0,1-.78,1.69h1.536Zm-3.059-8.323a12.21,12.21,0,0,1-.636,1.318h1.44a12.4,12.4,0,0,0,.587-1.318Zm-.516,4.5c0,.3-.012.611-.024.947h1.176V178.51H117.34Zm0-1.14h1.152v-1.4H117.34Zm1.739,0h1.152v-1.4h-1.152Zm1.152,2.087V178.51h-1.152v1.475Zm3.489-5.852a4.057,4.057,0,0,1-2.326,3.274,2.826,2.826,0,0,0-.456-.552,3.358,3.358,0,0,0,2.039-2.722H121.3v-.684h5.169s-.011.216-.024.311c-.1,2-.192,2.759-.443,3.035a.82.82,0,0,1-.636.288,11.608,11.608,0,0,1-1.26-.012,1.8,1.8,0,0,0-.18-.672c.493.048.948.048,1.128.048a.344.344,0,0,0,.336-.107,5.313,5.313,0,0,0,.323-2.207Zm3.071,7.28h-2.327v2.29H123.7v-2.29H121.13v-.7H123.7V179.17h-1.379a6.113,6.113,0,0,1-.66,1.212,3.37,3.37,0,0,0-.624-.325,6.834,6.834,0,0,0,1.116-2.711l.683.132a9.352,9.352,0,0,1-.264,1H123.7v-1.247h.767v1.247h2.123v.7h-2.123v1.546h2.327Z"/><path d="M131.811,180c-.228-.384-.744-1.152-1.176-1.74v5.481h-.767v-5.912a13.684,13.684,0,0,1-1.74,3.681,5.386,5.386,0,0,0-.431-.719,12.944,12.944,0,0,0,2.051-4.617h-1.775v-.745h1.895v-2.589h.767v2.589h1.656v.745h-1.656v1.163c.4.443,1.428,1.691,1.68,2.014Zm6.968-2.3h-1.811v6.068h-.78V177.7H133.91a10.6,10.6,0,0,1-1.656,6.021,2.136,2.136,0,0,0-.6-.529c1.344-1.787,1.475-4.2,1.475-6v-3.347l.684.205a19.633,19.633,0,0,0,3.729-1.068l.684.611a23.124,23.124,0,0,1-4.317,1.152v2.195h4.869Z"/><path class="cls-4" d="M153.532,124.529c-.264.456-.564.9-.876,1.355v7.892h-.851v-6.824a15.7,15.7,0,0,1-4.426,3.586,7.4,7.4,0,0,0-.551-.684,14.242,14.242,0,0,0,5.7-5.325h-5.409v-.8H157.37v.8Zm.024,2.063a26.823,26.823,0,0,1,4.126,3.154l-.624.6a26.858,26.858,0,0,0-4.09-3.238Z"/><path class="cls-4" d="M168.3,132.841c.468,0,.552-.216.588-1.608a3.058,3.058,0,0,0,.732.312c-.1,1.619-.324,2.027-1.26,2.027h-1.895c-1.043,0-1.331-.24-1.331-1.127V129.3h-2.195c-.264,2.2-1.007,3.73-3.754,4.5a2.451,2.451,0,0,0-.479-.66c2.554-.635,3.166-1.966,3.394-3.838h-3.143v-.755H169.5v.755h-3.573v3.131c0,.347.095.408.611.408Zm-8.251-6.213h-.8v-2.447h4.558v-1.307h.815v1.307h4.606v2.447H168.4v-1.7h-8.347Zm.923.443v-.731H167.5v.731Z"/><path class="cls-4" d="M176.536,122.85a15.653,15.653,0,0,0,5.23,4.486,4.128,4.128,0,0,0-.54.7,18.211,18.211,0,0,1-5.038-4.39,16,16,0,0,1-4.941,4.462,2.326,2.326,0,0,0-.492-.624,14.525,14.525,0,0,0,4.99-4.629Zm.072,9.87h4.738v.732H171.187v-.732h4.6v-2.05h-3.621v-.72h3.621V128h-3.1v-.719h7.16V128h-3.239v1.955h3.682v.72h-3.682Z"/><path class="cls-4" d="M187.121,125.3a11.362,11.362,0,0,0,1.932-.456l.023.8a15.609,15.609,0,0,1-2.207.432,21.462,21.462,0,0,1-2.615,5.073l-.827-.432a16.721,16.721,0,0,0,2.579-4.545c-.372.036-.756.048-1.128.048-.443,0-.947-.012-1.391-.036l-.06-.8a15.478,15.478,0,0,0,2.843.011,8.8,8.8,0,0,0,.4-2.086l.947.084C187.493,123.833,187.325,124.589,187.121,125.3Zm3.3,3.046c.012.468.059,1.283.1,2.039a8.22,8.22,0,0,1,2.494,1.487l-.468.732a8.415,8.415,0,0,0-2-1.4c.013.228.013.42.013.576,0,.936-.613,1.691-2.051,1.691-1.3,0-2.352-.5-2.352-1.679,0-1.091,1.056-1.751,2.352-1.751a5.9,5.9,0,0,1,1.235.132c-.048-1-.108-2.207-.132-3.071h.839A10.884,10.884,0,0,0,190.42,128.343Zm-2.027,4.353c1.031,0,1.378-.539,1.378-1.187,0-.168,0-.372-.011-.6a4.455,4.455,0,0,0-1.284-.192c-.911,0-1.535.432-1.535,1.008S187.409,132.7,188.393,132.7Zm1.787-6.98.431-.647a15.936,15.936,0,0,1,2.771,1.583l-.48.695A14.759,14.759,0,0,0,190.18,125.716Z"/><path class="cls-4" d="M204.818,124.361a8.692,8.692,0,0,1-1.955,3.142,8.568,8.568,0,0,0,3.034,1.644,3.334,3.334,0,0,0-.491.659c-.216-.072-.42-.156-.624-.24v4.186h-.756v-.5h-3.49v.552h-.743v-4.126c-.324.144-.659.288-1,.408a2.047,2.047,0,0,0-.456-.648,9.734,9.734,0,0,0,3.454-1.943,8.647,8.647,0,0,1-1.308-1.775,10.185,10.185,0,0,1-1.235,1.332,5.623,5.623,0,0,0-.636-.528c.133-.108.265-.216.4-.336H197.5v.612c.348.383,1.3,1.547,1.523,1.835l-.492.624a18.589,18.589,0,0,0-1.031-1.548v6.057h-.768v-5.853a13.034,13.034,0,0,1-1.667,3.6,5,5,0,0,0-.431-.695,13.407,13.407,0,0,0,2.014-4.63h-1.738v-.732h1.822v-2.59h.768v2.59h1.583v.66a9,9,0,0,0,2.147-3.262l.768.2c-.156.371-.324.744-.516,1.1h2.7l.143-.036Zm-.324,5.073a9.362,9.362,0,0,1-2.158-1.427,10.857,10.857,0,0,1-2.075,1.427Zm-.468,3.107V130.13h-3.49v2.411Zm-3.093-7.449a7.552,7.552,0,0,0,1.39,1.908,8.066,8.066,0,0,0,1.488-2.135h-2.735Z"/><path class="cls-4" d="M217.646,129h-4.977v3.73c0,.563-.145.8-.576.935a9.9,9.9,0,0,1-2.351.144,3.354,3.354,0,0,0-.336-.816c.984.036,1.871.036,2.123.024s.336-.072.336-.3V129h-5v-.78h5v-1.931h.491a15.051,15.051,0,0,0,2.664-1.8h-6.933v-.779h7.76l.192-.037.587.444a17.858,17.858,0,0,1-3.957,2.843v1.259h4.977Z"/><path class="cls-4" d="M220.818,128.019a8.391,8.391,0,0,0-2.05-1.271l.444-.588a9.16,9.16,0,0,1,2.062,1.2Zm.852,1.7c-.539,1.271-1.259,2.795-1.883,3.91l-.695-.492a36.548,36.548,0,0,0,1.955-3.885Zm-.264-4.8a8.842,8.842,0,0,0-2.027-1.355l.444-.576a8.491,8.491,0,0,1,2.051,1.3Zm8.323,6.932h-1.006v1.079c0,.408-.084.612-.409.732a6.549,6.549,0,0,1-1.762.1,3.506,3.506,0,0,0-.265-.636c.649.024,1.284.024,1.452.012s.24-.048.24-.2v-1.079h-4.545v1.9H222.7v-1.9h-1.138v-.66H222.7v-3.058h2.555v-.72h-3.55v-.659h2.147V125.9h-1.391v-.6h1.391v-.84h-1.715v-.612h1.715v-.983h.755v.983h2.112v-.983h.755v.983H229.3v.612h-1.823v.84h1.571v.6h-1.571v.864h2.159v.659h-3.622v.72h2.711V131.2h1.006Zm-6.3-3.119v.912h1.822v-.912Zm0,2.459h1.822v-.947h-1.822Zm1.174-5.9h2.112v-.84h-2.112Zm0,1.463h2.112V125.9h-2.112Zm1.4,1.978v.912h1.967v-.912Zm1.967,2.459v-.947h-1.967v.947Z"/><line class="cls-5" x1="188" y1="20.956" x2="188" y2="72.619"/><polygon points="185.095 70.637 188 81.478 190.905 70.637 185.095 70.637"/><line class="cls-6" x1="212.309" y1="75.974" x2="243.314" y2="32.121"/><polygon points="244.235 34.592 247.15 26.696 240.677 32.077 244.235 34.592"/><line class="cls-6" x1="164.248" y1="75.974" x2="133.243" y2="32.121"/><polygon points="135.88 32.077 129.407 26.696 132.322 34.592 135.88 32.077"/><g class="cls-7"><path d="M171.458,17.742a10.889,10.889,0,0,0,1.595-2.458l.743.2a12.873,12.873,0,0,1-1.583,2.6Zm1.367-2.71h-.756V7.62h3.418v6.788h-2.662Zm0-6.692v2.183h1.919V8.34Zm1.919,5.349V11.242h-1.919v2.447Zm1.007,1.847a15.267,15.267,0,0,1,.3,2.326l-.767.12a15.525,15.525,0,0,0-.264-2.374Zm3.119-7.22a3.482,3.482,0,0,1-2.759,3,2.56,2.56,0,0,0-.444-.6,2.857,2.857,0,0,0,2.411-2.4h-2.039V7.608h5.853s0,.216-.012.324c-.12,1.751-.228,2.458-.48,2.722a.979.979,0,0,1-.683.264,10.876,10.876,0,0,1-1.356-.024,1.549,1.549,0,0,0-.2-.659c.539.047,1.055.06,1.235.06a.478.478,0,0,0,.372-.108,4.163,4.163,0,0,0,.336-1.871Zm2.686,6.476h-5.169V11.53h5.169Zm-.791-2.591h-3.622V14.12h3.622Zm-2.447,3.227a12.921,12.921,0,0,1,.767,2.351l-.755.179a13.846,13.846,0,0,0-.756-2.387Zm2.387-.24a16.3,16.3,0,0,1,1.595,2.519l-.744.335A16.9,16.9,0,0,0,180,15.488Z"/><path d="M184.657,14.924v1.127h-.743v-8.2h3.861v7.076Zm0-6.356v2.386h2.375V8.568Zm2.375,5.612V11.686h-2.375V14.18Zm6.92,2.747c0,.528-.12.791-.491.923a7.886,7.886,0,0,1-2.039.144,2.989,2.989,0,0,0-.3-.779c.8.036,1.559.024,1.751.012.228-.012.312-.084.312-.3V14.193h-3.67a6.149,6.149,0,0,1-2.231,3.9,3.117,3.117,0,0,0-.588-.541c2.027-1.559,2.231-3.825,2.231-5.7V7.62h5.025Zm-.767-3.466V11.254h-3.478v.6a15.2,15.2,0,0,1-.084,1.607Zm-3.478-5.1v2.16h3.478V8.363Z"/><path d="M204.993,17.263c.48,0,.575-.3.623-2.039a1.932,1.932,0,0,0,.732.336c-.1,1.93-.312,2.447-1.3,2.447h-1.776c-1.019,0-1.306-.265-1.306-1.224V12.442h-2.3c-.229,2.65-.828,4.593-3.8,5.576a2.438,2.438,0,0,0-.5-.683c2.807-.852,3.275-2.567,3.466-4.893H195.59v-.756h4.869V7.092h.792v4.594h4.965v.756h-3.442v4.329c0,.408.1.492.576.492Zm-6.932-6.321a12.527,12.527,0,0,0-1.452-2.986l.72-.264a12.716,12.716,0,0,1,1.5,2.95Zm7.232-3.082a30.894,30.894,0,0,1-1.691,3.058l-.661-.276a19.3,19.3,0,0,0,1.536-3.082Z"/></g><g class="cls-7"><path d="M244.914,15.271H239.1v-.7h1.416V13.089h-1.224v-.684h1.224V11.038h.743v1.367h1.619V11.038h.743v1.367h1.248v.684h-1.248v1.487h1.3ZM244.183,21c0,.4-.084.588-.372.72a4.877,4.877,0,0,1-1.488.12,2.772,2.772,0,0,0-.24-.672c.54.024,1.02.012,1.164.012s.191-.06.191-.192V19.817H240.7v2.051h-.743V16.111h4.222ZM240.7,16.747v.911h2.734v-.911Zm2.734,2.446v-.911H240.7v.911Zm-2.182-4.617h1.619V13.089h-1.619Zm7.964-.672a14.4,14.4,0,0,1-1.44,4.894,6.064,6.064,0,0,0,2.327,2.4,2.861,2.861,0,0,0-.564.684,6.413,6.413,0,0,1-2.206-2.351,7.688,7.688,0,0,1-2.615,2.363,2.776,2.776,0,0,0-.468-.684,6.69,6.69,0,0,0,2.663-2.459,16.49,16.49,0,0,1-1.1-3.5,8.318,8.318,0,0,1-.8,1.572,6.571,6.571,0,0,0-.564-.636,13.848,13.848,0,0,0,1.692-5.241l.779.108a20.512,20.512,0,0,1-.444,2.11h3.55V13.9Zm-2.987.12a17.19,17.19,0,0,0,1.127,3.934,14.21,14.21,0,0,0,1.08-4.054h-2.17Z"/><path d="M254.635,14.276h2.686v.732h-2.686v2.086h2.171v4.474h-.78v-.48h-3.549v.552h-.756V17.094h2.134V15.008h-2.77v-.732h2.77V12.381c-.779.12-1.583.228-2.338.3a3.446,3.446,0,0,0-.228-.636,25.176,25.176,0,0,0,5.133-.995l.624.6a14.854,14.854,0,0,1-2.411.6Zm1.391,3.538h-3.549v2.554h3.549Zm4.7,3.13c.456,0,.515-.443.576-2.243a2.366,2.366,0,0,0,.719.36c-.084,1.955-.276,2.615-1.248,2.615h-1.619c-.97,0-1.247-.3-1.247-1.451V11.062h.779v9.187c0,.587.1.7.541.7Z"/><path d="M272.656,21.1c.48,0,.575-.3.623-2.039a1.932,1.932,0,0,0,.732.336c-.1,1.931-.312,2.447-1.3,2.447H270.94c-1.019,0-1.306-.264-1.306-1.224V16.279h-2.3c-.228,2.65-.828,4.593-3.8,5.577a2.456,2.456,0,0,0-.5-.684c2.807-.851,3.275-2.566,3.466-4.893h-3.238v-.756h4.869V10.93h.792v4.593h4.965v.756h-3.441v4.33c0,.407.1.491.575.491Zm-6.932-6.321a12.527,12.527,0,0,0-1.452-2.986l.72-.264a12.721,12.721,0,0,1,1.5,2.951Zm7.232-3.082a30.917,30.917,0,0,1-1.691,3.059l-.661-.276A19.382,19.382,0,0,0,272.14,11.4Z"/><path d="M279.511,12.921a28.1,28.1,0,0,0,3.706-.372v.792a35.356,35.356,0,0,1-3.994.335,10.248,10.248,0,0,1-1.163,1.979,3.486,3.486,0,0,1,1.726-.492,1.508,1.508,0,0,1,1.6,1.128c.863-.42,1.642-.72,2.29-1.02.336-.156.612-.276.924-.443l.347.8c-.288.084-.683.24-1,.36-.695.276-1.595.636-2.53,1.08.012.695.023,1.738.035,2.338h-.827c.024-.48.036-1.307.036-1.955-1.151.612-1.979,1.271-1.979,2.1,0,.983.983,1.127,2.231,1.127a21.454,21.454,0,0,0,3.262-.287l-.036.863a28.156,28.156,0,0,1-3.262.2c-1.68,0-3.047-.348-3.047-1.787,0-1.4,1.4-2.279,2.819-3.01a1.013,1.013,0,0,0-1.128-.8,3.245,3.245,0,0,0-2.1.876,15.642,15.642,0,0,0-1.092,1.247l-.731-.54a12.156,12.156,0,0,0,2.782-3.742h-.575c-.516,0-1.3-.024-1.967-.06v-.815a17.659,17.659,0,0,0,2.014.132c.264,0,.541,0,.828-.012A5.941,5.941,0,0,0,279,11.422l.875.071A10.712,10.712,0,0,1,279.511,12.921Z"/><path d="M290.851,13.58h-4.7v-.647h4.7Zm-.48,7.58h-2.963v.576H286.7V17.718h3.67Zm-3.658-6.632h3.694v.647h-3.694Zm0,1.6h3.694v.648h-3.694Zm3.694-4.114h-3.635v-.647h3.635Zm-3,6.381v2.122h2.243V18.39Zm9.811-2.579H294.5v6.045h-.8V15.811h-2.842v-.78h2.842V10.966h.8v4.065h2.722Z"/><path d="M298.593,14.264a7.889,7.889,0,0,1,1.979,1.115l-.444.648a8.911,8.911,0,0,0-1.979-1.187Zm1.475,3.2.636.42a41.111,41.111,0,0,1-1.6,3.814l-.707-.432A36.193,36.193,0,0,0,300.068,17.466Zm-.935-6.393a7.92,7.92,0,0,1,1.894,1.224l-.479.636a7.6,7.6,0,0,0-1.883-1.3Zm3.55,8.336a8.908,8.908,0,0,1-1.74,2.483,6.713,6.713,0,0,0-.647-.456,6.5,6.5,0,0,0,1.643-2.219Zm2.171-7.927v7.46h-3.443v-7.46Zm-2.747,2.254h2.027V12.189h-2.027Zm0,2.243h2.027V14.408h-2.027Zm0,2.255h2.027V16.651h-2.027Zm2.027.947a14.352,14.352,0,0,1,1.391,1.847l-.624.408a14.425,14.425,0,0,0-1.367-1.919Zm2.387-7v6.789h-.708V12.177Zm2.111-1.235v9.894c0,.516-.12.744-.444.876a6.1,6.1,0,0,1-1.872.144,3.365,3.365,0,0,0-.239-.756c.732.024,1.367.024,1.547.012.216-.012.288-.072.288-.276V10.942Z"/></g><polygon class="cls-8" points="156.889 178.376 149.889 171.35 149.889 185.401 156.889 178.376"/></svg>