<svg id="レイヤー_1" data-name="レイヤー 1" xmlns="http://www.w3.org/2000/svg" viewBox="0 0 378 200"><defs><style>.cls-1{fill:#8dbfff;}.cls-10,.cls-11,.cls-2,.cls-3,.cls-6,.cls-7,.cls-8,.cls-9{fill:none;stroke-miterlimit:10;}.cls-10,.cls-11,.cls-2,.cls-6,.cls-7,.cls-8,.cls-9{stroke:#0000a0;}.cls-3{stroke:#000;}.cls-4{fill:red;}.cls-5{fill:#0040a7;}.cls-10,.cls-11,.cls-6,.cls-7,.cls-8,.cls-9{stroke-width:0.75px;}.cls-7{stroke-dasharray:1.915 1.915;}.cls-8{stroke-dasharray:2.113 2.113;}.cls-9{stroke-dasharray:1.92 1.92;}.cls-10{stroke-dasharray:1.92 1.92;}.cls-11{stroke-dasharray:2.145 2.145;}</style></defs><path class="cls-1" d="M364.274,114.358V93.339H337.309v21.019H310.344V93.339H283.378v21.019H256.413V93.339H229.448v21.019H196.163c-.562-.069-2.252-.728-4.744-5.71-4.9-9.788-4.294-9.493-8.288-7.039C177.943,104.8,175.5,92.7,170.8,100s-2.019,10.895-6.261,14.358H148.552V93.339H121.587v21.019H94.622V93.339H67.656v21.019H40.691V93.339H13.726v21.019H1V200H377V114.358Z"/><path class="cls-2" d="M377,114.358H364.274V93.339H337.309v21.019H310.344V93.339H283.378v21.019H256.413V93.339H229.448v21.019H196.163c-.562-.069-2.252-.728-4.744-5.71-4.9-9.788-4.294-9.493-8.288-7.039C177.943,104.8,175.5,92.7,170.8,100s-2.019,10.895-6.261,14.358H148.552V93.339H121.587v21.019H94.622V93.339H67.656v21.019H40.691V93.339H13.726v21.019H1"/><line class="cls-3" x1="96.391" y1="11.24" x2="145.648" y2="60.497"/><polygon points="142.193 61.15 151.913 66.761 146.301 57.041 142.193 61.15"/><line class="cls-3" x1="209.196" y1="83.653" x2="275.344" y2="17.504"/><polygon points="275.997 20.96 281.609 11.24 271.889 16.851 275.997 20.96"/><line class="cls-3" x1="237.464" y1="80.213" x2="287.798" y2="55.666"/><polygon points="287.291 59.146 295.761 51.783 284.744 53.923 287.291 59.146"/><line class="cls-3" x1="206.037" y1="65.998" x2="224.298" y2="25.427"/><polygon points="226.134 28.426 227.935 17.348 220.836 26.041 226.134 28.426"/><path d="M40.134,41.673v-8.59h1.137v8.59Z"/><path d="M43.14,41.673V35.45h.949v.885a2.237,2.237,0,0,1,1.98-1.025,2.6,2.6,0,0,1,1.035.2,1.633,1.633,0,0,1,.706.53,2.053,2.053,0,0,1,.328.779,6.08,6.08,0,0,1,.058,1.026v3.826H47.142V37.888a2.842,2.842,0,0,0-.123-.964,1.015,1.015,0,0,0-.437-.51,1.387,1.387,0,0,0-.735-.19,1.7,1.7,0,0,0-1.163.428,2.106,2.106,0,0,0-.49,1.623v3.4Z"/><path d="M53.874,39.394l1.037.134a2.687,2.687,0,0,1-.87,1.679,2.537,2.537,0,0,1-1.72.607,2.672,2.672,0,0,1-2.053-.835,3.388,3.388,0,0,1-.777-2.394,4.344,4.344,0,0,1,.334-1.764,2.334,2.334,0,0,1,1.017-1.133,3.015,3.015,0,0,1,1.485-.378,2.584,2.584,0,0,1,1.658.512,2.357,2.357,0,0,1,.827,1.456l-1.026.159a1.707,1.707,0,0,0-.518-.944,1.342,1.342,0,0,0-.9-.316,1.637,1.637,0,0,0-1.3.571,2.714,2.714,0,0,0-.5,1.808,2.8,2.8,0,0,0,.481,1.822,1.562,1.562,0,0,0,1.254.568,1.482,1.482,0,0,0,1.037-.38A1.892,1.892,0,0,0,53.874,39.394Z"/><path d="M55.819,34.3V33.083h1.055V34.3Zm0,7.377V35.45h1.055v6.223Z"/><path d="M62.517,41.673v-.785a1.937,1.937,0,0,1-1.741.926,2.436,2.436,0,0,1-1.368-.411,2.7,2.7,0,0,1-.967-1.145,3.966,3.966,0,0,1-.342-1.69,4.425,4.425,0,0,1,.31-1.691,2.451,2.451,0,0,1,.932-1.163,2.486,2.486,0,0,1,1.388-.4,2.075,2.075,0,0,1,1.717.855V33.083H63.5v8.59Zm-3.334-3.105a2.7,2.7,0,0,0,.5,1.787,1.518,1.518,0,0,0,1.189.591,1.491,1.491,0,0,0,1.175-.565,2.609,2.609,0,0,0,.483-1.726,2.929,2.929,0,0,0-.492-1.875,1.514,1.514,0,0,0-1.213-.6,1.461,1.461,0,0,0-1.175.574A2.837,2.837,0,0,0,59.183,38.568Z"/><path d="M69.413,39.669l1.09.135a2.655,2.655,0,0,1-.955,1.482,3.233,3.233,0,0,1-3.946-.313,3.284,3.284,0,0,1-.8-2.359,3.438,3.438,0,0,1,.808-2.437,2.739,2.739,0,0,1,2.1-.867,2.661,2.661,0,0,1,2.039.849,3.38,3.38,0,0,1,.791,2.391c0,.062,0,.156-.006.281h-4.64a2.392,2.392,0,0,0,.58,1.571,1.725,1.725,0,0,0,1.3.544,1.617,1.617,0,0,0,.991-.3A2.026,2.026,0,0,0,69.413,39.669Zm-3.463-1.7h3.475a2.11,2.11,0,0,0-.4-1.178,1.616,1.616,0,0,0-1.306-.609,1.676,1.676,0,0,0-1.222.486A1.925,1.925,0,0,0,65.95,37.964Z"/><path d="M71.827,41.673V35.45h.949v.885a2.239,2.239,0,0,1,1.981-1.025,2.592,2.592,0,0,1,1.034.2,1.627,1.627,0,0,1,.706.53,2.037,2.037,0,0,1,.328.779,6.05,6.05,0,0,1,.059,1.026v3.826H75.829V37.888a2.842,2.842,0,0,0-.123-.964,1.013,1.013,0,0,0-.436-.51,1.391,1.391,0,0,0-.736-.19,1.7,1.7,0,0,0-1.163.428,2.11,2.11,0,0,0-.489,1.623v3.4Z"/><path d="M80.8,40.73l.152.931a3.876,3.876,0,0,1-.8.094,1.8,1.8,0,0,1-.89-.182,1.018,1.018,0,0,1-.446-.477,3.771,3.771,0,0,1-.129-1.245v-3.58h-.773V35.45h.773V33.909l1.049-.632V35.45H80.8v.821H79.743v3.638a1.837,1.837,0,0,0,.056.58.433.433,0,0,0,.181.205.7.7,0,0,0,.361.077A3.5,3.5,0,0,0,80.8,40.73Z"/><path d="M86.317,41.673l-1.9-6.223H85.5l.99,3.592.369,1.336q.024-.1.323-1.283l.99-3.645h1.084l.931,3.61.311,1.189.357-1.2,1.067-3.6H92.95l-1.945,6.223h-1.1l-.99-3.727-.24-1.06-1.26,4.787Z"/><path d="M97.9,40.905a3.948,3.948,0,0,1-1.128.7,3.279,3.279,0,0,1-1.164.2,2.264,2.264,0,0,1-1.576-.5,1.654,1.654,0,0,1-.55-1.281,1.735,1.735,0,0,1,.752-1.441,2.577,2.577,0,0,1,.759-.346,7.731,7.731,0,0,1,.938-.158,9.671,9.671,0,0,0,1.881-.363c0-.145,0-.237,0-.276a1.166,1.166,0,0,0-.3-.908,1.768,1.768,0,0,0-1.2-.357,1.858,1.858,0,0,0-1.1.261,1.6,1.6,0,0,0-.525.922l-1.031-.14a2.559,2.559,0,0,1,.463-1.07,2.035,2.035,0,0,1,.932-.627,4.167,4.167,0,0,1,1.412-.219,3.74,3.74,0,0,1,1.3.187,1.7,1.7,0,0,1,.732.472,1.655,1.655,0,0,1,.328.718,5.939,5.939,0,0,1,.053.972v1.407a14.941,14.941,0,0,0,.067,1.86,2.341,2.341,0,0,0,.267.747h-1.1A2.243,2.243,0,0,1,97.9,40.905Zm-.088-2.355a7.736,7.736,0,0,1-1.723.4,4.017,4.017,0,0,0-.92.211.919.919,0,0,0-.416.343.934.934,0,0,0,.173,1.2,1.37,1.37,0,0,0,.934.281,2.169,2.169,0,0,0,1.084-.266,1.644,1.644,0,0,0,.7-.73,2.547,2.547,0,0,0,.17-1.054Z"/><path d="M102.237,41.673,99.87,35.45h1.113l1.336,3.727q.217.6.4,1.254.141-.492.392-1.184l1.383-3.8h1.084l-2.355,6.223Z"/><path d="M110.769,39.669l1.089.135a2.65,2.65,0,0,1-.955,1.482,3.233,3.233,0,0,1-3.946-.313,3.288,3.288,0,0,1-.8-2.359,3.439,3.439,0,0,1,.809-2.437,2.736,2.736,0,0,1,2.1-.867,2.663,2.663,0,0,1,2.04.849,3.38,3.38,0,0,1,.791,2.391c0,.062,0,.156-.006.281h-4.641a2.392,2.392,0,0,0,.58,1.571,1.727,1.727,0,0,0,1.3.544,1.612,1.612,0,0,0,.99-.3A2.027,2.027,0,0,0,110.769,39.669Zm-3.463-1.7h3.474a2.11,2.11,0,0,0-.4-1.178,1.618,1.618,0,0,0-1.307-.609,1.675,1.675,0,0,0-1.221.486A1.92,1.92,0,0,0,107.306,37.964Z"/><path class="cls-4" d="M286.861,25.81l1.682.533a3.774,3.774,0,0,1-1.286,2.089,4.046,4.046,0,0,1-5.1-.486,4.474,4.474,0,0,1-1.1-3.2,4.7,4.7,0,0,1,1.107-3.331,3.8,3.8,0,0,1,2.912-1.187,3.575,3.575,0,0,1,2.561.932,3.4,3.4,0,0,1,.879,1.582l-1.717.41a1.773,1.773,0,0,0-1.811-1.441,1.955,1.955,0,0,0-1.55.685,3.363,3.363,0,0,0-.594,2.221,3.6,3.6,0,0,0,.586,2.32,1.9,1.9,0,0,0,1.523.691,1.735,1.735,0,0,0,1.189-.439A2.543,2.543,0,0,0,286.861,25.81Z"/><path class="cls-4" d="M291.25,24.644l-1.494-.269a2.326,2.326,0,0,1,.867-1.336,3.174,3.174,0,0,1,1.828-.434,3.938,3.938,0,0,1,1.641.261,1.64,1.64,0,0,1,.759.662A3.408,3.408,0,0,1,295.07,25l-.017,1.921a6.644,6.644,0,0,0,.079,1.21,3.507,3.507,0,0,0,.3.835H293.8q-.065-.163-.158-.486c-.028-.1-.047-.162-.059-.193a2.98,2.98,0,0,1-.9.615,2.582,2.582,0,0,1-1.026.205,2.122,2.122,0,0,1-1.514-.521,1.736,1.736,0,0,1-.554-1.319,1.768,1.768,0,0,1,.252-.94,1.638,1.638,0,0,1,.706-.633,5.52,5.52,0,0,1,1.31-.384,8.936,8.936,0,0,0,1.6-.4v-.164a.853.853,0,0,0-.234-.677,1.4,1.4,0,0,0-.885-.2,1.184,1.184,0,0,0-.686.173A1.2,1.2,0,0,0,291.25,24.644Zm2.2,1.336q-.316.105-1,.252a3.011,3.011,0,0,0-.9.287.688.688,0,0,0-.323.58.807.807,0,0,0,.258.6.9.9,0,0,0,.656.252,1.428,1.428,0,0,0,.85-.293,1.038,1.038,0,0,0,.393-.545,3.259,3.259,0,0,0,.064-.8Z"/><path class="cls-4" d="M296.693,28.968V20.379h1.647v8.589Z"/><path class="cls-4" d="M305.453,24.586l-1.623.293a1.18,1.18,0,0,0-.372-.733,1.123,1.123,0,0,0-.753-.246,1.23,1.23,0,0,0-.981.425,2.171,2.171,0,0,0-.367,1.421,2.516,2.516,0,0,0,.372,1.564,1.224,1.224,0,0,0,1,.457,1.112,1.112,0,0,0,.767-.266,1.607,1.607,0,0,0,.422-.917l1.617.275a2.87,2.87,0,0,1-.967,1.682,2.99,2.99,0,0,1-1.916.568,2.848,2.848,0,0,1-2.176-.861,3.341,3.341,0,0,1-.812-2.385,3.346,3.346,0,0,1,.815-2.4,2.888,2.888,0,0,1,2.2-.859,3.006,3.006,0,0,1,1.807.489A2.71,2.71,0,0,1,305.453,24.586Z"/><path class="cls-4" d="M310.8,28.968v-.931a2.4,2.4,0,0,1-.894.785,2.507,2.507,0,0,1-1.169.287,2.292,2.292,0,0,1-1.125-.275,1.625,1.625,0,0,1-.72-.774,3.441,3.441,0,0,1-.223-1.377V22.746h1.647v2.859a8.013,8.013,0,0,0,.09,1.609.878.878,0,0,0,.331.468,1.016,1.016,0,0,0,.61.173,1.3,1.3,0,0,0,.756-.231,1.184,1.184,0,0,0,.457-.575,6.661,6.661,0,0,0,.123-1.678V22.746h1.646v6.222Z"/><path class="cls-4" d="M314.031,28.968V20.379h1.647v8.589Z"/><path class="cls-4" d="M318.6,24.644l-1.494-.269a2.326,2.326,0,0,1,.867-1.336,3.172,3.172,0,0,1,1.828-.434,3.941,3.941,0,0,1,1.641.261,1.632,1.632,0,0,1,.758.662,3.389,3.389,0,0,1,.22,1.474l-.018,1.921a6.623,6.623,0,0,0,.08,1.21,3.5,3.5,0,0,0,.3.835h-1.628q-.065-.163-.159-.486c-.027-.1-.047-.162-.058-.193a2.984,2.984,0,0,1-.9.615,2.577,2.577,0,0,1-1.025.205,2.123,2.123,0,0,1-1.515-.521,1.736,1.736,0,0,1-.553-1.319,1.768,1.768,0,0,1,.252-.94,1.638,1.638,0,0,1,.706-.633,5.51,5.51,0,0,1,1.309-.384,8.929,8.929,0,0,0,1.6-.4v-.164a.85.85,0,0,0-.235-.677,1.4,1.4,0,0,0-.884-.2,1.181,1.181,0,0,0-.686.173A1.2,1.2,0,0,0,318.6,24.644Zm2.2,1.336q-.316.105-1,.252a3.031,3.031,0,0,0-.9.287.69.69,0,0,0-.322.58.807.807,0,0,0,.258.6.9.9,0,0,0,.656.252,1.43,1.43,0,0,0,.85-.293,1.03,1.03,0,0,0,.392-.545,3.244,3.244,0,0,0,.065-.8Z"/><path class="cls-4" d="M326.893,22.746v1.312h-1.125v2.508a6.173,6.173,0,0,0,.032.888.36.36,0,0,0,.146.208.47.47,0,0,0,.279.082,2.143,2.143,0,0,0,.662-.158l.14,1.277a3.269,3.269,0,0,1-1.3.246,2.074,2.074,0,0,1-.8-.149,1.184,1.184,0,0,1-.525-.387,1.53,1.53,0,0,1-.231-.642,7.985,7.985,0,0,1-.053-1.16V24.058h-.756V22.746h.756V21.509l1.653-.961v2.2Z"/><path class="cls-4" d="M328.035,21.9V20.379h1.647V21.9Zm0,7.066V22.746h1.647v6.222Z"/><path class="cls-4" d="M330.988,25.769a3.362,3.362,0,0,1,.4-1.588,2.779,2.779,0,0,1,1.145-1.172,3.4,3.4,0,0,1,1.655-.4,3.109,3.109,0,0,1,2.315.917,3.17,3.17,0,0,1,.9,2.318,3.206,3.206,0,0,1-.911,2.34,3.08,3.08,0,0,1-2.294.929,3.614,3.614,0,0,1-1.632-.387,2.646,2.646,0,0,1-1.18-1.133A3.777,3.777,0,0,1,330.988,25.769Zm1.688.088a2.062,2.062,0,0,0,.439,1.418,1.437,1.437,0,0,0,2.165,0,2.091,2.091,0,0,0,.437-1.43,2.052,2.052,0,0,0-.437-1.406,1.437,1.437,0,0,0-2.165,0A2.062,2.062,0,0,0,332.676,25.857Z"/><path class="cls-4" d="M344.359,28.968h-1.646V25.793a4.871,4.871,0,0,0-.106-1.3.912.912,0,0,0-.342-.46.986.986,0,0,0-.572-.164,1.319,1.319,0,0,0-.767.234,1.185,1.185,0,0,0-.466.621,5.373,5.373,0,0,0-.126,1.43v2.818h-1.646V22.746h1.529v.914a2.551,2.551,0,0,1,3.047-.859,1.672,1.672,0,0,1,.682.5,1.82,1.82,0,0,1,.323.692,5.188,5.188,0,0,1,.09,1.107Z"/><path class="cls-4" d="M348.982,25.769a3.362,3.362,0,0,1,.4-1.588,2.779,2.779,0,0,1,1.145-1.172,3.406,3.406,0,0,1,1.656-.4,3.108,3.108,0,0,1,2.314.917,3.166,3.166,0,0,1,.9,2.318,3.2,3.2,0,0,1-.911,2.34,3.08,3.08,0,0,1-2.294.929,3.614,3.614,0,0,1-1.632-.387,2.646,2.646,0,0,1-1.18-1.133A3.777,3.777,0,0,1,348.982,25.769Zm1.688.088a2.062,2.062,0,0,0,.439,1.418,1.437,1.437,0,0,0,2.165,0,2.091,2.091,0,0,0,.437-1.43,2.052,2.052,0,0,0-.437-1.406,1.437,1.437,0,0,0-2.165,0A2.062,2.062,0,0,0,350.67,25.857Z"/><path class="cls-4" d="M355.973,22.746h.914v-.469a3.1,3.1,0,0,1,.167-1.172,1.316,1.316,0,0,1,.615-.63,2.363,2.363,0,0,1,1.134-.243,4.579,4.579,0,0,1,1.377.211l-.223,1.148a3.281,3.281,0,0,0-.756-.093.673.673,0,0,0-.513.167.969.969,0,0,0-.155.641v.44h1.231v1.3h-1.231v4.927h-1.646V24.041h-.914Z"/><path class="cls-4" d="M280.773,43.193l1.653-.252a1.211,1.211,0,0,0,.428.73,1.442,1.442,0,0,0,.9.249,1.631,1.631,0,0,0,.961-.235.524.524,0,0,0,.217-.439.43.43,0,0,0-.118-.311,1.317,1.317,0,0,0-.55-.217,8.911,8.911,0,0,1-2.526-.8,1.6,1.6,0,0,1-.738-1.4,1.725,1.725,0,0,1,.639-1.359,2.982,2.982,0,0,1,1.98-.551,3.461,3.461,0,0,1,1.9.416,2.125,2.125,0,0,1,.855,1.231l-1.553.287a.958.958,0,0,0-.378-.557,1.38,1.38,0,0,0-.794-.193,1.788,1.788,0,0,0-.931.181.392.392,0,0,0-.188.334.364.364,0,0,0,.164.3,6.143,6.143,0,0,0,1.538.463,4.573,4.573,0,0,1,1.837.732,1.523,1.523,0,0,1,.516,1.225,1.879,1.879,0,0,1-.715,1.471,3.164,3.164,0,0,1-2.115.615,3.469,3.469,0,0,1-2.013-.516A2.376,2.376,0,0,1,280.773,43.193Z"/><path class="cls-4" d="M293.453,40.586l-1.623.293a1.18,1.18,0,0,0-.372-.733,1.123,1.123,0,0,0-.753-.246,1.23,1.23,0,0,0-.981.425,2.171,2.171,0,0,0-.367,1.421,2.516,2.516,0,0,0,.372,1.564,1.224,1.224,0,0,0,1,.457,1.112,1.112,0,0,0,.767-.266,1.607,1.607,0,0,0,.422-.917l1.617.275a2.87,2.87,0,0,1-.967,1.682,2.99,2.99,0,0,1-1.916.568,2.848,2.848,0,0,1-2.176-.861,3.923,3.923,0,0,1,0-4.784,2.888,2.888,0,0,1,2.2-.859,3.006,3.006,0,0,1,1.807.489A2.71,2.71,0,0,1,293.453,40.586Z"/><path class="cls-4" d="M295.932,40.644l-1.494-.269a2.322,2.322,0,0,1,.867-1.336,3.172,3.172,0,0,1,1.828-.434,3.933,3.933,0,0,1,1.64.261,1.63,1.63,0,0,1,.759.662,3.389,3.389,0,0,1,.22,1.474l-.018,1.921a6.737,6.737,0,0,0,.079,1.21,3.551,3.551,0,0,0,.3.835H298.48q-.063-.163-.158-.486c-.027-.1-.047-.162-.058-.193a2.984,2.984,0,0,1-.9.615,2.577,2.577,0,0,1-1.025.2,2.123,2.123,0,0,1-1.515-.521,1.736,1.736,0,0,1-.553-1.319,1.768,1.768,0,0,1,.252-.94,1.638,1.638,0,0,1,.706-.633,5.51,5.51,0,0,1,1.309-.384,8.929,8.929,0,0,0,1.6-.4v-.164a.85.85,0,0,0-.235-.677,1.4,1.4,0,0,0-.884-.2,1.181,1.181,0,0,0-.686.173A1.2,1.2,0,0,0,295.932,40.644Zm2.2,1.336q-.317.1-1,.252a3.031,3.031,0,0,0-.9.287.687.687,0,0,0-.322.58.807.807,0,0,0,.258.6.9.9,0,0,0,.656.252,1.43,1.43,0,0,0,.85-.293,1.03,1.03,0,0,0,.392-.545,3.244,3.244,0,0,0,.065-.8Z"/><path class="cls-4" d="M304.229,38.746v1.312H303.1v2.508a6.173,6.173,0,0,0,.032.888.36.36,0,0,0,.146.208.47.47,0,0,0,.279.082,2.143,2.143,0,0,0,.662-.158l.14,1.277a3.272,3.272,0,0,1-1.3.246,2.074,2.074,0,0,1-.8-.149,1.178,1.178,0,0,1-.525-.387,1.53,1.53,0,0,1-.231-.642,7.985,7.985,0,0,1-.053-1.16V40.058H300.7V38.746h.756V37.509l1.653-.961v2.2Z"/><path class="cls-4" d="M308.225,38.746v1.312H307.1v2.508a6.173,6.173,0,0,0,.032.888.36.36,0,0,0,.146.208.47.47,0,0,0,.279.082,2.143,2.143,0,0,0,.662-.158l.14,1.277a3.269,3.269,0,0,1-1.3.246,2.074,2.074,0,0,1-.8-.149,1.184,1.184,0,0,1-.525-.387,1.53,1.53,0,0,1-.231-.642,7.985,7.985,0,0,1-.053-1.16V40.058h-.756V38.746h.756V37.509l1.653-.961v2.2Z"/><path class="cls-4" d="M312.971,42.988l1.64.275a2.688,2.688,0,0,1-1,1.374,2.93,2.93,0,0,1-1.708.472,2.781,2.781,0,0,1-2.4-1.061,3.562,3.562,0,0,1-.615-2.144,3.437,3.437,0,0,1,.808-2.423,2.663,2.663,0,0,1,2.045-.876,2.765,2.765,0,0,1,2.192.917,4.056,4.056,0,0,1,.767,2.81h-4.125a1.665,1.665,0,0,0,.4,1.139,1.245,1.245,0,0,0,.949.408,1.011,1.011,0,0,0,.65-.211A1.307,1.307,0,0,0,312.971,42.988Zm.093-1.664a1.578,1.578,0,0,0-.369-1.087,1.131,1.131,0,0,0-.855-.372,1.146,1.146,0,0,0-.891.392,1.523,1.523,0,0,0-.345,1.067Z"/><path class="cls-4" d="M317.617,44.968h-1.646V38.746H317.5v.885a2.67,2.67,0,0,1,.706-.827,1.3,1.3,0,0,1,.712-.2,2.092,2.092,0,0,1,1.084.311l-.51,1.435a1.448,1.448,0,0,0-.773-.269.912.912,0,0,0-.586.19,1.306,1.306,0,0,0-.378.689,9.757,9.757,0,0,0-.138,2.086Z"/><path class="cls-4" d="M324.314,42.988l1.641.275a2.688,2.688,0,0,1-1,1.374,2.93,2.93,0,0,1-1.708.472,2.781,2.781,0,0,1-2.4-1.061,3.562,3.562,0,0,1-.616-2.144,3.437,3.437,0,0,1,.809-2.423,2.663,2.663,0,0,1,2.045-.876,2.762,2.762,0,0,1,2.191.917,4.056,4.056,0,0,1,.768,2.81h-4.125a1.669,1.669,0,0,0,.4,1.139,1.247,1.247,0,0,0,.95.408,1.013,1.013,0,0,0,.65-.211A1.3,1.3,0,0,0,324.314,42.988Zm.094-1.664a1.588,1.588,0,0,0-.369-1.087,1.131,1.131,0,0,0-.855-.372,1.145,1.145,0,0,0-.891.392,1.523,1.523,0,0,0-.346,1.067Z"/><path class="cls-4" d="M333.092,44.968h-1.529v-.914a2.468,2.468,0,0,1-.9.794,2.306,2.306,0,0,1-1.046.261,2.371,2.371,0,0,1-1.837-.864,3.519,3.519,0,0,1-.764-2.411,3.477,3.477,0,0,1,.744-2.406,2.428,2.428,0,0,1,1.881-.823,2.328,2.328,0,0,1,1.8.867V36.379h1.647ZM328.7,41.722a2.847,2.847,0,0,0,.276,1.442,1.243,1.243,0,0,0,1.113.644,1.213,1.213,0,0,0,.967-.483,2.234,2.234,0,0,0,.4-1.444,2.44,2.44,0,0,0-.387-1.544,1.22,1.22,0,0,0-.99-.472,1.235,1.235,0,0,0-.981.466A2.1,2.1,0,0,0,328.7,41.722Z"/><path class="cls-4" d="M339.209,44.968l-1.969-6.222h1.6l1.166,4.078,1.072-4.078h1.588l1.037,4.078,1.19-4.078h1.623l-2,6.222h-1.582l-1.073-4-1.054,4Z"/><path class="cls-4" d="M348.613,40.644l-1.494-.269a2.326,2.326,0,0,1,.867-1.336,3.174,3.174,0,0,1,1.828-.434,3.935,3.935,0,0,1,1.641.261,1.64,1.64,0,0,1,.759.662,3.4,3.4,0,0,1,.22,1.474l-.018,1.921a6.644,6.644,0,0,0,.079,1.21,3.507,3.507,0,0,0,.3.835h-1.629q-.064-.163-.158-.486c-.027-.1-.047-.162-.059-.193a2.98,2.98,0,0,1-.9.615,2.577,2.577,0,0,1-1.025.2,2.123,2.123,0,0,1-1.515-.521,1.736,1.736,0,0,1-.554-1.319,1.768,1.768,0,0,1,.252-.94,1.638,1.638,0,0,1,.706-.633,5.52,5.52,0,0,1,1.31-.384,8.911,8.911,0,0,0,1.6-.4v-.164a.853.853,0,0,0-.234-.677,1.4,1.4,0,0,0-.885-.2,1.178,1.178,0,0,0-.685.173A1.2,1.2,0,0,0,348.613,40.644Zm2.2,1.336q-.316.1-1,.252a3.022,3.022,0,0,0-.9.287.687.687,0,0,0-.322.58.807.807,0,0,0,.258.6.9.9,0,0,0,.656.252,1.425,1.425,0,0,0,.849-.293,1.032,1.032,0,0,0,.393-.545,3.259,3.259,0,0,0,.064-.8Z"/><path class="cls-4" d="M355.768,44.968l-2.508-6.222h1.728l1.172,3.176.34,1.06c.09-.269.146-.447.17-.533.055-.176.113-.352.176-.527l1.183-3.176h1.694l-2.473,6.222Z"/><path class="cls-4" d="M364.334,42.988l1.641.275a2.688,2.688,0,0,1-1,1.374,2.932,2.932,0,0,1-1.708.472,2.784,2.784,0,0,1-2.4-1.061,3.562,3.562,0,0,1-.615-2.144,3.437,3.437,0,0,1,.809-2.423A2.662,2.662,0,0,1,363.1,38.6a2.763,2.763,0,0,1,2.191.917,4.061,4.061,0,0,1,.768,2.81h-4.125a1.66,1.66,0,0,0,.4,1.139,1.245,1.245,0,0,0,.949.408,1.013,1.013,0,0,0,.651-.211A1.313,1.313,0,0,0,364.334,42.988Zm.094-1.664a1.588,1.588,0,0,0-.369-1.087,1.189,1.189,0,0,0-1.746.02,1.518,1.518,0,0,0-.346,1.067Z"/><path class="cls-4" d="M366.824,43.193l1.653-.252a1.21,1.21,0,0,0,.427.73,1.447,1.447,0,0,0,.9.249,1.633,1.633,0,0,0,.961-.235.523.523,0,0,0,.216-.439.434.434,0,0,0-.117-.311,1.317,1.317,0,0,0-.551-.217,8.888,8.888,0,0,1-2.525-.8,1.6,1.6,0,0,1-.738-1.4,1.727,1.727,0,0,1,.638-1.359,2.985,2.985,0,0,1,1.981-.551,3.458,3.458,0,0,1,1.9.416,2.126,2.126,0,0,1,.856,1.231l-1.553.287a.958.958,0,0,0-.378-.557,1.38,1.38,0,0,0-.794-.193,1.788,1.788,0,0,0-.931.181.392.392,0,0,0-.188.334.364.364,0,0,0,.164.3,6.143,6.143,0,0,0,1.538.463,4.58,4.58,0,0,1,1.837.732,1.523,1.523,0,0,1,.516,1.225,1.882,1.882,0,0,1-.715,1.471,3.166,3.166,0,0,1-2.115.615,3.469,3.469,0,0,1-2.013-.516A2.376,2.376,0,0,1,366.824,43.193Z"/><path class="cls-5" d="M36.023,143.954v-8.59h2.959a7.19,7.19,0,0,1,1.53.123,2.9,2.9,0,0,1,1.259.615,3.491,3.491,0,0,1,1.017,1.468,5.753,5.753,0,0,1,.337,2.042,5.976,5.976,0,0,1-.229,1.734,4.2,4.2,0,0,1-.585,1.251,3.128,3.128,0,0,1-.783.78,3.183,3.183,0,0,1-1.025.43,5.829,5.829,0,0,1-1.38.147Zm1.137-1.014h1.834a4.463,4.463,0,0,0,1.333-.158,1.925,1.925,0,0,0,.771-.445,2.727,2.727,0,0,0,.63-1.087,5.329,5.329,0,0,0,.225-1.656,4,4,0,0,0-.442-2.071,2.233,2.233,0,0,0-1.075-.97,4.456,4.456,0,0,0-1.471-.175H37.16Z"/><path class="cls-5" d="M44.561,136.577v-1.213h1.054v1.213Zm0,7.377v-6.223h1.054v6.223Z"/><path class="cls-5" d="M47.473,143.954v-5.4h-.932v-.82h.932v-.662a2.909,2.909,0,0,1,.111-.932,1.352,1.352,0,0,1,.536-.665,1.931,1.931,0,0,1,1.075-.255,5.2,5.2,0,0,1,.985.106l-.159.92a3.534,3.534,0,0,0-.621-.059.926.926,0,0,0-.679.205,1.112,1.112,0,0,0-.2.768v.574h1.213v.82H48.521v5.4Z"/><path class="cls-5" d="M50.807,143.954v-5.4h-.932v-.82h.932v-.662a2.909,2.909,0,0,1,.111-.932,1.352,1.352,0,0,1,.536-.665,1.931,1.931,0,0,1,1.075-.255,5.2,5.2,0,0,1,.985.106l-.159.92a3.534,3.534,0,0,0-.621-.059.926.926,0,0,0-.679.205,1.112,1.112,0,0,0-.2.768v.574h1.213v.82H51.855v5.4Z"/><path class="cls-5" d="M53.877,143.954v-6.223h.949v.943a2.581,2.581,0,0,1,.671-.873,1.177,1.177,0,0,1,.677-.211,2.063,2.063,0,0,1,1.084.34l-.363.979a1.505,1.505,0,0,0-.774-.229,1.01,1.01,0,0,0-.621.208,1.132,1.132,0,0,0-.393.577,4.12,4.12,0,0,0-.175,1.231v3.258Z"/><path class="cls-5" d="M61.945,143.186a3.9,3.9,0,0,1-1.128.7,3.252,3.252,0,0,1-1.163.2,2.262,2.262,0,0,1-1.576-.5,1.653,1.653,0,0,1-.551-1.28,1.733,1.733,0,0,1,.753-1.441,2.552,2.552,0,0,1,.759-.346,7.536,7.536,0,0,1,.938-.158,9.718,9.718,0,0,0,1.88-.363q.006-.217.006-.276a1.161,1.161,0,0,0-.3-.908,1.764,1.764,0,0,0-1.2-.357,1.859,1.859,0,0,0-1.1.26,1.6,1.6,0,0,0-.525.923l-1.031-.141a2.56,2.56,0,0,1,.463-1.069,2.035,2.035,0,0,1,.932-.627,4.162,4.162,0,0,1,1.412-.22,3.738,3.738,0,0,1,1.3.188,1.7,1.7,0,0,1,.732.472,1.651,1.651,0,0,1,.328.717,5.953,5.953,0,0,1,.053.973v1.406a14.95,14.95,0,0,0,.067,1.861,2.358,2.358,0,0,0,.267.747h-1.1A2.265,2.265,0,0,1,61.945,143.186Zm-.088-2.355a7.725,7.725,0,0,1-1.722.4,4.017,4.017,0,0,0-.92.211.908.908,0,0,0-.416.343.93.93,0,0,0,.173,1.2,1.375,1.375,0,0,0,.934.281A2.179,2.179,0,0,0,60.99,143a1.644,1.644,0,0,0,.7-.73,2.555,2.555,0,0,0,.169-1.055Z"/><path class="cls-5" d="M68.619,141.674l1.037.135a2.687,2.687,0,0,1-.87,1.679,2.536,2.536,0,0,1-1.72.606,2.669,2.669,0,0,1-2.053-.835,3.384,3.384,0,0,1-.777-2.393,4.344,4.344,0,0,1,.334-1.764,2.332,2.332,0,0,1,1.017-1.134,3.015,3.015,0,0,1,1.485-.378,2.579,2.579,0,0,1,1.658.513,2.35,2.35,0,0,1,.827,1.456l-1.026.158a1.7,1.7,0,0,0-.518-.943,1.342,1.342,0,0,0-.9-.316,1.637,1.637,0,0,0-1.3.571,2.712,2.712,0,0,0-.5,1.808,2.8,2.8,0,0,0,.481,1.822,1.562,1.562,0,0,0,1.254.568,1.478,1.478,0,0,0,1.037-.381A1.889,1.889,0,0,0,68.619,141.674Z"/><path class="cls-5" d="M72.861,143.01l.153.932a3.884,3.884,0,0,1-.8.094,1.806,1.806,0,0,1-.891-.182,1.016,1.016,0,0,1-.445-.477,3.782,3.782,0,0,1-.129-1.246v-3.58h-.773v-.82h.773V136.19l1.049-.633v2.174h1.06v.82H71.8v3.639a1.847,1.847,0,0,0,.055.58.445.445,0,0,0,.182.2.7.7,0,0,0,.36.076A3.312,3.312,0,0,0,72.861,143.01Z"/><path class="cls-5" d="M73.9,136.577v-1.213h1.055v1.213Zm0,7.377v-6.223h1.055v6.223Z"/><path class="cls-5" d="M76.166,140.842a3.206,3.206,0,0,1,.961-2.56,2.894,2.894,0,0,1,1.957-.692,2.8,2.8,0,0,1,2.1.841A3.2,3.2,0,0,1,82,140.755a4.119,4.119,0,0,1-.36,1.889,2.552,2.552,0,0,1-1.049,1.07,3.063,3.063,0,0,1-1.5.38,2.8,2.8,0,0,1-2.112-.838A3.346,3.346,0,0,1,76.166,140.842Zm1.084,0a2.653,2.653,0,0,0,.521,1.79,1.738,1.738,0,0,0,2.62,0,2.719,2.719,0,0,0,.521-1.823,2.576,2.576,0,0,0-.524-1.749,1.741,1.741,0,0,0-2.617,0A2.644,2.644,0,0,0,77.25,140.842Z"/><path class="cls-5" d="M83.232,143.954v-6.223h.95v.885a2.236,2.236,0,0,1,1.98-1.026,2.592,2.592,0,0,1,1.034.2,1.614,1.614,0,0,1,.706.53,2.015,2.015,0,0,1,.328.779,5.936,5.936,0,0,1,.059,1.026v3.826H87.234v-3.785a2.842,2.842,0,0,0-.123-.964,1.013,1.013,0,0,0-.436-.51,1.388,1.388,0,0,0-.736-.19,1.711,1.711,0,0,0-1.163.427,2.11,2.11,0,0,0-.489,1.623v3.4Z"/><path class="cls-5" d="M93.047,144.469l1.025.153a.974.974,0,0,0,.358.691,1.756,1.756,0,0,0,1.072.293,1.887,1.887,0,0,0,1.131-.293,1.446,1.446,0,0,0,.539-.82,6.713,6.713,0,0,0,.076-1.354,2.17,2.17,0,0,1-1.723.815,2.349,2.349,0,0,1-1.986-.926,3.563,3.563,0,0,1-.7-2.221,4.13,4.13,0,0,1,.322-1.643A2.579,2.579,0,0,1,94.093,138a2.517,2.517,0,0,1,1.438-.411,2.231,2.231,0,0,1,1.817.891v-.75h.972v5.379a5.092,5.092,0,0,1-.3,2.06,2.165,2.165,0,0,1-.937.958,3.254,3.254,0,0,1-1.579.351,2.979,2.979,0,0,1-1.8-.5A1.693,1.693,0,0,1,93.047,144.469Zm.873-3.738a2.7,2.7,0,0,0,.486,1.787,1.6,1.6,0,0,0,2.438,0,2.612,2.612,0,0,0,.492-1.755,2.549,2.549,0,0,0-.507-1.722,1.566,1.566,0,0,0-1.222-.58,1.522,1.522,0,0,0-1.195.571A2.537,2.537,0,0,0,93.92,140.731Z"/><path class="cls-5" d="M99.9,143.954v-6.223h.95v.943a2.581,2.581,0,0,1,.67-.873,1.179,1.179,0,0,1,.677-.211,2.061,2.061,0,0,1,1.084.34l-.363.979a1.505,1.505,0,0,0-.774-.229,1.01,1.01,0,0,0-.621.208,1.13,1.13,0,0,0-.392.577,4.119,4.119,0,0,0-.176,1.231v3.258Z"/><path class="cls-5" d="M107.971,143.186a3.921,3.921,0,0,1-1.128.7,3.255,3.255,0,0,1-1.163.2,2.261,2.261,0,0,1-1.576-.5,1.65,1.65,0,0,1-.551-1.28,1.733,1.733,0,0,1,.753-1.441,2.535,2.535,0,0,1,.758-.346,7.536,7.536,0,0,1,.938-.158,9.731,9.731,0,0,0,1.881-.363q.006-.217.006-.276a1.165,1.165,0,0,0-.3-.908,1.767,1.767,0,0,0-1.2-.357,1.863,1.863,0,0,0-1.1.26,1.6,1.6,0,0,0-.524.923l-1.032-.141a2.56,2.56,0,0,1,.463-1.069,2.04,2.04,0,0,1,.932-.627,4.166,4.166,0,0,1,1.412-.22,3.738,3.738,0,0,1,1.3.188,1.7,1.7,0,0,1,.732.472,1.639,1.639,0,0,1,.328.717,5.839,5.839,0,0,1,.053.973v1.406a14.87,14.87,0,0,0,.068,1.861,2.355,2.355,0,0,0,.266.747h-1.1A2.221,2.221,0,0,1,107.971,143.186Zm-.088-2.355a7.736,7.736,0,0,1-1.723.4,4.031,4.031,0,0,0-.92.211.918.918,0,0,0-.416.343.934.934,0,0,0,.173,1.2,1.376,1.376,0,0,0,.935.281,2.185,2.185,0,0,0,1.084-.266,1.647,1.647,0,0,0,.7-.73,2.553,2.553,0,0,0,.17-1.055Z"/><path class="cls-5" d="M112.887,143.01l.152.932a3.876,3.876,0,0,1-.8.094,1.8,1.8,0,0,1-.89-.182,1.018,1.018,0,0,1-.446-.477,3.782,3.782,0,0,1-.129-1.246v-3.58H110v-.82h.773V136.19l1.049-.633v2.174h1.061v.82h-1.061v3.639a1.837,1.837,0,0,0,.056.58.438.438,0,0,0,.181.2.7.7,0,0,0,.361.076A3.337,3.337,0,0,0,112.887,143.01Z"/><path class="cls-5" d="M113.924,136.577v-1.213h1.055v1.213Zm0,7.377v-6.223h1.055v6.223Z"/><path class="cls-5" d="M116.584,143.954v-6.223h.949v.885a2.237,2.237,0,0,1,1.981-1.026,2.6,2.6,0,0,1,1.034.2,1.62,1.62,0,0,1,.706.53,2.03,2.03,0,0,1,.328.779,6.042,6.042,0,0,1,.059,1.026v3.826h-1.055v-3.785a2.842,2.842,0,0,0-.123-.964,1.015,1.015,0,0,0-.437-.51,1.387,1.387,0,0,0-.735-.19,1.709,1.709,0,0,0-1.163.427,2.11,2.11,0,0,0-.489,1.623v3.4Z"/><path class="cls-5" d="M123.064,144.469l1.026.153a.977.977,0,0,0,.357.691,1.759,1.759,0,0,0,1.073.293,1.882,1.882,0,0,0,1.13-.293,1.436,1.436,0,0,0,.539-.82,6.687,6.687,0,0,0,.077-1.354,2.171,2.171,0,0,1-1.723.815,2.348,2.348,0,0,1-1.986-.926,3.563,3.563,0,0,1-.7-2.221,4.13,4.13,0,0,1,.322-1.643A2.577,2.577,0,0,1,124.11,138a2.523,2.523,0,0,1,1.439-.411,2.229,2.229,0,0,1,1.816.891v-.75h.973v5.379a5.11,5.11,0,0,1-.3,2.06,2.167,2.167,0,0,1-.938.958,3.251,3.251,0,0,1-1.579.351,2.975,2.975,0,0,1-1.8-.5A1.7,1.7,0,0,1,123.064,144.469Zm.874-3.738a2.7,2.7,0,0,0,.486,1.787,1.6,1.6,0,0,0,2.437,0,2.612,2.612,0,0,0,.493-1.755,2.549,2.549,0,0,0-.507-1.722,1.566,1.566,0,0,0-1.222-.58,1.521,1.521,0,0,0-1.195.571A2.537,2.537,0,0,0,123.938,140.731Z"/><path class="cls-5" d="M137.326,141.674l1.037.135a2.687,2.687,0,0,1-.87,1.679,2.536,2.536,0,0,1-1.72.606,2.669,2.669,0,0,1-2.053-.835,3.384,3.384,0,0,1-.777-2.393,4.344,4.344,0,0,1,.334-1.764,2.332,2.332,0,0,1,1.017-1.134,3.015,3.015,0,0,1,1.485-.378,2.584,2.584,0,0,1,1.659.513,2.354,2.354,0,0,1,.826,1.456l-1.026.158a1.7,1.7,0,0,0-.518-.943,1.342,1.342,0,0,0-.9-.316,1.637,1.637,0,0,0-1.295.571,2.712,2.712,0,0,0-.5,1.808,2.8,2.8,0,0,0,.481,1.822,1.562,1.562,0,0,0,1.254.568,1.478,1.478,0,0,0,1.037-.381A1.889,1.889,0,0,0,137.326,141.674Z"/><path class="cls-5" d="M138.873,140.842a3.206,3.206,0,0,1,.961-2.56,2.894,2.894,0,0,1,1.957-.692,2.8,2.8,0,0,1,2.1.841,3.2,3.2,0,0,1,.814,2.324,4.119,4.119,0,0,1-.36,1.889,2.552,2.552,0,0,1-1.049,1.07,3.063,3.063,0,0,1-1.5.38,2.8,2.8,0,0,1-2.112-.838A3.346,3.346,0,0,1,138.873,140.842Zm1.084,0a2.647,2.647,0,0,0,.522,1.79,1.737,1.737,0,0,0,2.619,0,2.719,2.719,0,0,0,.521-1.823,2.576,2.576,0,0,0-.524-1.749,1.74,1.74,0,0,0-2.616,0A2.639,2.639,0,0,0,139.957,140.842Z"/><path class="cls-5" d="M145.939,143.954v-6.223h.95v.885a2.236,2.236,0,0,1,1.98-1.026,2.592,2.592,0,0,1,1.034.2,1.614,1.614,0,0,1,.706.53,2.031,2.031,0,0,1,.329.779,6.072,6.072,0,0,1,.058,1.026v3.826h-1.055v-3.785a2.842,2.842,0,0,0-.123-.964,1.013,1.013,0,0,0-.436-.51,1.388,1.388,0,0,0-.736-.19,1.711,1.711,0,0,0-1.163.427,2.11,2.11,0,0,0-.489,1.623v3.4Z"/><path class="cls-5" d="M154.916,143.01l.152.932a3.876,3.876,0,0,1-.8.094,1.8,1.8,0,0,1-.89-.182,1.011,1.011,0,0,1-.445-.477,3.782,3.782,0,0,1-.129-1.246v-3.58h-.774v-.82h.774V136.19l1.048-.633v2.174h1.061v.82h-1.061v3.639a1.837,1.837,0,0,0,.056.58.44.44,0,0,0,.182.2.7.7,0,0,0,.36.076A3.324,3.324,0,0,0,154.916,143.01Z"/><path class="cls-5" d="M160.008,143.186a3.921,3.921,0,0,1-1.128.7,3.252,3.252,0,0,1-1.163.2,2.261,2.261,0,0,1-1.576-.5,1.65,1.65,0,0,1-.551-1.28,1.7,1.7,0,0,1,.208-.835,1.717,1.717,0,0,1,.545-.606,2.529,2.529,0,0,1,.759-.346,7.513,7.513,0,0,1,.937-.158,9.715,9.715,0,0,0,1.881-.363q.006-.217.006-.276a1.165,1.165,0,0,0-.3-.908,1.767,1.767,0,0,0-1.2-.357,1.863,1.863,0,0,0-1.1.26,1.6,1.6,0,0,0-.524.923l-1.032-.141a2.573,2.573,0,0,1,.463-1.069,2.04,2.04,0,0,1,.932-.627,4.166,4.166,0,0,1,1.412-.22,3.738,3.738,0,0,1,1.295.188,1.7,1.7,0,0,1,.732.472,1.652,1.652,0,0,1,.329.717,5.987,5.987,0,0,1,.052.973v1.406a14.87,14.87,0,0,0,.068,1.861,2.38,2.38,0,0,0,.266.747h-1.1A2.221,2.221,0,0,1,160.008,143.186Zm-.088-2.355a7.736,7.736,0,0,1-1.723.4,4.031,4.031,0,0,0-.92.211.918.918,0,0,0-.416.343.934.934,0,0,0,.173,1.2,1.378,1.378,0,0,0,.935.281,2.185,2.185,0,0,0,1.084-.266,1.641,1.641,0,0,0,.7-.73,2.553,2.553,0,0,0,.17-1.055Z"/><path class="cls-5" d="M162.627,136.577v-1.213h1.055v1.213Zm0,7.377v-6.223h1.055v6.223Z"/><path class="cls-5" d="M165.287,143.954v-6.223h.949v.885a2.238,2.238,0,0,1,1.981-1.026,2.592,2.592,0,0,1,1.034.2,1.62,1.62,0,0,1,.706.53,2.03,2.03,0,0,1,.328.779,6.042,6.042,0,0,1,.059,1.026v3.826h-1.055v-3.785a2.842,2.842,0,0,0-.123-.964,1.015,1.015,0,0,0-.437-.51,1.385,1.385,0,0,0-.735-.19,1.709,1.709,0,0,0-1.163.427,2.11,2.11,0,0,0-.489,1.623v3.4Z"/><path class="cls-5" d="M171.967,136.577v-1.213h1.054v1.213Zm0,7.377v-6.223h1.054v6.223Z"/><path class="cls-5" d="M174.627,143.954v-6.223h.949v.885a2.237,2.237,0,0,1,1.981-1.026,2.6,2.6,0,0,1,1.034.2,1.62,1.62,0,0,1,.706.53,2.03,2.03,0,0,1,.328.779,6.042,6.042,0,0,1,.059,1.026v3.826h-1.055v-3.785a2.842,2.842,0,0,0-.123-.964,1.015,1.015,0,0,0-.437-.51,1.387,1.387,0,0,0-.735-.19,1.709,1.709,0,0,0-1.163.427,2.11,2.11,0,0,0-.489,1.623v3.4Z"/><path class="cls-5" d="M181.107,144.469l1.026.153a.977.977,0,0,0,.357.691,1.759,1.759,0,0,0,1.073.293,1.882,1.882,0,0,0,1.13-.293,1.436,1.436,0,0,0,.539-.82,6.687,6.687,0,0,0,.077-1.354,2.171,2.171,0,0,1-1.723.815,2.347,2.347,0,0,1-1.986-.926,3.563,3.563,0,0,1-.7-2.221,4.131,4.131,0,0,1,.323-1.643,2.577,2.577,0,0,1,.934-1.163,2.523,2.523,0,0,1,1.439-.411,2.229,2.229,0,0,1,1.816.891v-.75h.973v5.379a5.11,5.11,0,0,1-.3,2.06,2.167,2.167,0,0,1-.938.958,3.251,3.251,0,0,1-1.579.351,2.975,2.975,0,0,1-1.8-.5A1.7,1.7,0,0,1,181.107,144.469Zm.873-3.738a2.7,2.7,0,0,0,.487,1.787,1.6,1.6,0,0,0,2.437,0,2.612,2.612,0,0,0,.492-1.755,2.549,2.549,0,0,0-.506-1.722,1.566,1.566,0,0,0-1.222-.58,1.521,1.521,0,0,0-1.195.571A2.537,2.537,0,0,0,181.98,140.731Z"/><path class="cls-5" d="M190.887,142.1l1.043-.164a1.452,1.452,0,0,0,.489.961,1.7,1.7,0,0,0,1.122.334,1.644,1.644,0,0,0,1.078-.3.882.882,0,0,0,.352-.694.643.643,0,0,0-.311-.563,4.634,4.634,0,0,0-1.078-.357,9.74,9.74,0,0,1-1.608-.507,1.553,1.553,0,0,1-.68-.592,1.569,1.569,0,0,1-.231-.835,1.6,1.6,0,0,1,.19-.77,1.715,1.715,0,0,1,.518-.589,2.19,2.19,0,0,1,.671-.308,3.2,3.2,0,0,1,.912-.126,3.615,3.615,0,0,1,1.286.211,1.748,1.748,0,0,1,.817.572,2.221,2.221,0,0,1,.363.964l-1.031.14a1.132,1.132,0,0,0-.407-.75,1.494,1.494,0,0,0-.952-.269,1.724,1.724,0,0,0-1.037.24.7.7,0,0,0-.311.562.585.585,0,0,0,.129.37.933.933,0,0,0,.4.281q.159.058.932.269a13.066,13.066,0,0,1,1.561.49,1.586,1.586,0,0,1,.695.553,1.546,1.546,0,0,1,.252.9,1.774,1.774,0,0,1-.308.993,1.992,1.992,0,0,1-.888.721,3.243,3.243,0,0,1-1.312.254,2.924,2.924,0,0,1-1.849-.5A2.339,2.339,0,0,1,190.887,142.1Z"/><path class="cls-5" d="M197.314,136.577v-1.213h1.055v1.213Zm0,7.377v-6.223h1.055v6.223Z"/><path class="cls-5" d="M199.781,144.469l1.026.153a.977.977,0,0,0,.357.691,1.758,1.758,0,0,0,1.072.293,1.883,1.883,0,0,0,1.131-.293,1.436,1.436,0,0,0,.539-.82,6.713,6.713,0,0,0,.076-1.354,2.169,2.169,0,0,1-1.722.815,2.35,2.35,0,0,1-1.987-.926,3.569,3.569,0,0,1-.7-2.221,4.131,4.131,0,0,1,.323-1.643,2.57,2.57,0,0,1,.934-1.163,2.52,2.52,0,0,1,1.439-.411,2.231,2.231,0,0,1,1.816.891v-.75h.973v5.379a5.11,5.11,0,0,1-.3,2.06,2.167,2.167,0,0,1-.938.958,3.251,3.251,0,0,1-1.579.351,2.979,2.979,0,0,1-1.8-.5A1.7,1.7,0,0,1,199.781,144.469Zm.873-3.738a2.694,2.694,0,0,0,.487,1.787,1.6,1.6,0,0,0,2.437,0,2.612,2.612,0,0,0,.492-1.755,2.549,2.549,0,0,0-.507-1.722,1.564,1.564,0,0,0-1.221-.58,1.524,1.524,0,0,0-1.2.571A2.537,2.537,0,0,0,200.654,140.731Z"/><path class="cls-5" d="M206.648,143.954v-6.223h.95v.885a2.236,2.236,0,0,1,1.98-1.026,2.592,2.592,0,0,1,1.034.2,1.614,1.614,0,0,1,.706.53,2.015,2.015,0,0,1,.328.779,5.936,5.936,0,0,1,.059,1.026v3.826H210.65v-3.785a2.842,2.842,0,0,0-.123-.964,1.013,1.013,0,0,0-.436-.51,1.388,1.388,0,0,0-.736-.19,1.711,1.711,0,0,0-1.163.427,2.11,2.11,0,0,0-.489,1.623v3.4Z"/><path class="cls-5" d="M213.328,136.577v-1.213h1.055v1.213Zm0,7.377v-6.223h1.055v6.223Z"/><path class="cls-5" d="M216.24,143.954v-5.4h-.931v-.82h.931v-.662a2.875,2.875,0,0,1,.112-.932,1.347,1.347,0,0,1,.536-.665,1.931,1.931,0,0,1,1.075-.255,5.184,5.184,0,0,1,.984.106l-.158.92a3.551,3.551,0,0,0-.621-.059.929.929,0,0,0-.68.205,1.113,1.113,0,0,0-.2.768v.574H218.5v.82h-1.213v5.4Z"/><path class="cls-5" d="M219.328,136.577v-1.213h1.055v1.213Zm0,7.377v-6.223h1.055v6.223Z"/><path class="cls-5" d="M226.049,141.674l1.037.135a2.687,2.687,0,0,1-.87,1.679,2.536,2.536,0,0,1-1.72.606,2.673,2.673,0,0,1-2.054-.835,3.388,3.388,0,0,1-.776-2.393A4.327,4.327,0,0,1,222,139.1a2.332,2.332,0,0,1,1.017-1.134,3.015,3.015,0,0,1,1.485-.378,2.581,2.581,0,0,1,1.658.513,2.349,2.349,0,0,1,.826,1.456l-1.025.158a1.7,1.7,0,0,0-.519-.943,1.339,1.339,0,0,0-.9-.316,1.637,1.637,0,0,0-1.3.571,2.712,2.712,0,0,0-.5,1.808,2.8,2.8,0,0,0,.48,1.822,1.565,1.565,0,0,0,1.254.568,1.477,1.477,0,0,0,1.037-.381A1.885,1.885,0,0,0,226.049,141.674Z"/><path class="cls-5" d="M232.049,143.186a3.921,3.921,0,0,1-1.128.7,3.252,3.252,0,0,1-1.163.2,2.261,2.261,0,0,1-1.576-.5,1.65,1.65,0,0,1-.551-1.28,1.7,1.7,0,0,1,.208-.835,1.717,1.717,0,0,1,.545-.606,2.529,2.529,0,0,1,.759-.346,7.513,7.513,0,0,1,.937-.158,9.715,9.715,0,0,0,1.881-.363q.006-.217.006-.276a1.165,1.165,0,0,0-.3-.908,1.767,1.767,0,0,0-1.2-.357,1.863,1.863,0,0,0-1.1.26,1.6,1.6,0,0,0-.524.923l-1.031-.141a2.56,2.56,0,0,1,.462-1.069,2.04,2.04,0,0,1,.932-.627,4.166,4.166,0,0,1,1.412-.22,3.738,3.738,0,0,1,1.295.188,1.7,1.7,0,0,1,.732.472,1.652,1.652,0,0,1,.329.717,5.987,5.987,0,0,1,.052.973v1.406a14.87,14.87,0,0,0,.068,1.861,2.38,2.38,0,0,0,.266.747h-1.1A2.221,2.221,0,0,1,232.049,143.186Zm-.088-2.355a7.736,7.736,0,0,1-1.723.4,4.031,4.031,0,0,0-.92.211.918.918,0,0,0-.416.343.934.934,0,0,0,.173,1.2,1.378,1.378,0,0,0,.935.281,2.185,2.185,0,0,0,1.084-.266,1.641,1.641,0,0,0,.7-.73,2.553,2.553,0,0,0,.17-1.055Z"/><path class="cls-5" d="M234.662,143.954v-6.223h.949v.885a2.238,2.238,0,0,1,1.981-1.026,2.592,2.592,0,0,1,1.034.2,1.62,1.62,0,0,1,.706.53,2.03,2.03,0,0,1,.328.779,6.042,6.042,0,0,1,.059,1.026v3.826h-1.055v-3.785a2.842,2.842,0,0,0-.123-.964,1.015,1.015,0,0,0-.437-.51,1.385,1.385,0,0,0-.735-.19,1.709,1.709,0,0,0-1.163.427,2.11,2.11,0,0,0-.489,1.623v3.4Z"/><path class="cls-5" d="M243.639,143.01l.152.932a3.876,3.876,0,0,1-.8.094,1.8,1.8,0,0,1-.89-.182,1.018,1.018,0,0,1-.446-.477,3.782,3.782,0,0,1-.129-1.246v-3.58h-.773v-.82h.773V136.19l1.049-.633v2.174h1.061v.82h-1.061v3.639a1.837,1.837,0,0,0,.056.58.438.438,0,0,0,.181.2.7.7,0,0,0,.361.076A3.337,3.337,0,0,0,243.639,143.01Z"/><path class="cls-5" d="M244.646,143.954v-8.59H245.7v8.59Z"/><path class="cls-5" d="M247.289,146.35l-.117-.99a2.329,2.329,0,0,0,.6.094,1.161,1.161,0,0,0,.563-.117.964.964,0,0,0,.346-.329,5.263,5.263,0,0,0,.322-.785c.019-.058.051-.144.094-.258l-2.362-6.234h1.137l1.295,3.6q.252.685.451,1.441a14.2,14.2,0,0,1,.434-1.418l1.33-3.627h1.054l-2.367,6.328a12.256,12.256,0,0,1-.592,1.412,2.077,2.077,0,0,1-.644.765,1.522,1.522,0,0,1-.867.243A2.113,2.113,0,0,1,247.289,146.35Z"/><path class="cls-5" d="M260.707,143.954v-.785a1.935,1.935,0,0,1-1.74.925,2.435,2.435,0,0,1-1.368-.41,2.692,2.692,0,0,1-.967-1.145,3.956,3.956,0,0,1-.343-1.691,4.424,4.424,0,0,1,.311-1.69,2.445,2.445,0,0,1,.931-1.163,2.488,2.488,0,0,1,1.389-.405,2.079,2.079,0,0,1,1.717.856v-3.082h1.049v8.59Zm-3.334-3.106a2.7,2.7,0,0,0,.5,1.787,1.518,1.518,0,0,0,1.189.592,1.491,1.491,0,0,0,1.175-.565,2.609,2.609,0,0,0,.484-1.726,2.923,2.923,0,0,0-.493-1.875,1.513,1.513,0,0,0-1.212-.6,1.46,1.46,0,0,0-1.175.574A2.83,2.83,0,0,0,257.373,140.848Z"/><path class="cls-5" d="M267.6,141.95l1.089.135a2.662,2.662,0,0,1-.955,1.482,3.237,3.237,0,0,1-3.946-.313,3.288,3.288,0,0,1-.8-2.359,3.437,3.437,0,0,1,.809-2.437,2.737,2.737,0,0,1,2.1-.868,2.665,2.665,0,0,1,2.04.85,3.376,3.376,0,0,1,.791,2.391c0,.062,0,.156-.006.281h-4.641a2.387,2.387,0,0,0,.58,1.57,1.724,1.724,0,0,0,1.3.545,1.612,1.612,0,0,0,.99-.3A2.032,2.032,0,0,0,267.6,141.95Zm-3.463-1.7h3.474a2.107,2.107,0,0,0-.4-1.178,1.618,1.618,0,0,0-1.307-.609,1.679,1.679,0,0,0-1.222.486A1.924,1.924,0,0,0,264.141,140.245Z"/><path class="cls-5" d="M270.27,143.954v-5.4h-.932v-.82h.932v-.662a2.909,2.909,0,0,1,.111-.932,1.347,1.347,0,0,1,.536-.665,1.931,1.931,0,0,1,1.075-.255,5.2,5.2,0,0,1,.985.106l-.159.92a3.534,3.534,0,0,0-.621-.059.925.925,0,0,0-.679.205,1.112,1.112,0,0,0-.2.768v.574h1.213v.82h-1.213v5.4Z"/><path class="cls-5" d="M272.959,140.842a3.206,3.206,0,0,1,.961-2.56,2.894,2.894,0,0,1,1.957-.692,2.8,2.8,0,0,1,2.1.841,3.2,3.2,0,0,1,.814,2.324,4.119,4.119,0,0,1-.36,1.889,2.558,2.558,0,0,1-1.049,1.07,3.063,3.063,0,0,1-1.5.38,2.8,2.8,0,0,1-2.112-.838A3.346,3.346,0,0,1,272.959,140.842Zm1.084,0a2.653,2.653,0,0,0,.521,1.79,1.738,1.738,0,0,0,2.62,0,2.719,2.719,0,0,0,.521-1.823,2.576,2.576,0,0,0-.524-1.749,1.741,1.741,0,0,0-2.617,0A2.644,2.644,0,0,0,274.043,140.842Z"/><path class="cls-5" d="M280.014,143.954v-6.223h.949v.943a2.581,2.581,0,0,1,.671-.873,1.174,1.174,0,0,1,.677-.211,2.066,2.066,0,0,1,1.084.34l-.364.979a1.5,1.5,0,0,0-.773-.229,1.006,1.006,0,0,0-.621.208,1.126,1.126,0,0,0-.393.577,4.119,4.119,0,0,0-.176,1.231v3.258Z"/><path class="cls-5" d="M284.021,143.954v-6.223h.944v.873a2.2,2.2,0,0,1,1.887-1.014,2.039,2.039,0,0,1,1.133.288,1.535,1.535,0,0,1,.624.8,2.237,2.237,0,0,1,1.922-1.09,1.894,1.894,0,0,1,1.424.513,2.191,2.191,0,0,1,.5,1.579v4.272H291.4v-3.92a2.9,2.9,0,0,0-.1-.911.892.892,0,0,0-.372-.449,1.165,1.165,0,0,0-.633-.169,1.472,1.472,0,0,0-1.09.436,1.924,1.924,0,0,0-.434,1.4v3.615h-1.054v-4.043a1.778,1.778,0,0,0-.258-1.055.977.977,0,0,0-.844-.351,1.533,1.533,0,0,0-.823.234,1.329,1.329,0,0,0-.548.685,3.87,3.87,0,0,0-.17,1.3v3.229Z"/><path class="cls-5" d="M298.277,141.95l1.09.135a2.662,2.662,0,0,1-.955,1.482,3.237,3.237,0,0,1-3.946-.313,3.288,3.288,0,0,1-.8-2.359,3.437,3.437,0,0,1,.809-2.437,2.737,2.737,0,0,1,2.1-.868,2.661,2.661,0,0,1,2.039.85,3.372,3.372,0,0,1,.791,2.391c0,.062,0,.156-.006.281h-4.64a2.387,2.387,0,0,0,.58,1.57,1.724,1.724,0,0,0,1.3.545,1.614,1.614,0,0,0,.99-.3A2.031,2.031,0,0,0,298.277,141.95Zm-3.463-1.7h3.475a2.115,2.115,0,0,0-.4-1.178,1.618,1.618,0,0,0-1.307-.609,1.677,1.677,0,0,0-1.222.486A1.929,1.929,0,0,0,294.814,140.245Z"/><path class="cls-5" d="M304.729,143.954v-.785a1.937,1.937,0,0,1-1.741.925,2.435,2.435,0,0,1-1.368-.41,2.7,2.7,0,0,1-.967-1.145,3.971,3.971,0,0,1-.342-1.691,4.424,4.424,0,0,1,.31-1.69,2.447,2.447,0,0,1,.932-1.163,2.487,2.487,0,0,1,1.388-.405,2.079,2.079,0,0,1,1.717.856v-3.082h1.049v8.59Zm-3.334-3.106a2.706,2.706,0,0,0,.5,1.787,1.519,1.519,0,0,0,1.19.592,1.492,1.492,0,0,0,1.175-.565,2.609,2.609,0,0,0,.483-1.726,2.929,2.929,0,0,0-.492-1.875,1.515,1.515,0,0,0-1.213-.6,1.461,1.461,0,0,0-1.175.574A2.836,2.836,0,0,0,301.4,140.848Z"/><path class="cls-5" d="M314.736,143.954v-.785a1.934,1.934,0,0,1-1.74.925,2.435,2.435,0,0,1-1.368-.41,2.7,2.7,0,0,1-.967-1.145,3.971,3.971,0,0,1-.343-1.691,4.424,4.424,0,0,1,.311-1.69,2.441,2.441,0,0,1,.932-1.163,2.487,2.487,0,0,1,1.388-.405,2.079,2.079,0,0,1,1.717.856v-3.082h1.049v8.59Zm-3.334-3.106a2.7,2.7,0,0,0,.5,1.787,1.519,1.519,0,0,0,1.19.592,1.492,1.492,0,0,0,1.175-.565,2.609,2.609,0,0,0,.483-1.726,2.929,2.929,0,0,0-.492-1.875,1.515,1.515,0,0,0-1.213-.6,1.46,1.46,0,0,0-1.175.574A2.836,2.836,0,0,0,311.4,140.848Z"/><path class="cls-5" d="M321.633,141.95l1.09.135a2.667,2.667,0,0,1-.955,1.482,3.239,3.239,0,0,1-3.947-.313,3.288,3.288,0,0,1-.8-2.359,3.437,3.437,0,0,1,.809-2.437,2.738,2.738,0,0,1,2.1-.868,2.663,2.663,0,0,1,2.039.85,3.376,3.376,0,0,1,.791,2.391c0,.062,0,.156-.006.281h-4.641a2.392,2.392,0,0,0,.58,1.57,1.726,1.726,0,0,0,1.3.545,1.612,1.612,0,0,0,.99-.3A2.025,2.025,0,0,0,321.633,141.95Zm-3.463-1.7h3.475a2.107,2.107,0,0,0-.4-1.178,1.616,1.616,0,0,0-1.307-.609,1.675,1.675,0,0,0-1.221.486A1.925,1.925,0,0,0,318.17,140.245Z"/><path class="cls-5" d="M324.3,143.954v-5.4h-.932v-.82h.932v-.662a2.909,2.909,0,0,1,.111-.932,1.352,1.352,0,0,1,.536-.665,1.933,1.933,0,0,1,1.075-.255,5.2,5.2,0,0,1,.985.106l-.158.92a3.551,3.551,0,0,0-.621-.059.927.927,0,0,0-.68.205,1.113,1.113,0,0,0-.2.768v.574h1.213v.82h-1.213v5.4Z"/><path class="cls-5" d="M331.641,141.95l1.089.135a2.656,2.656,0,0,1-.955,1.482,3.237,3.237,0,0,1-3.946-.313,3.288,3.288,0,0,1-.8-2.359,3.437,3.437,0,0,1,.809-2.437,2.738,2.738,0,0,1,2.1-.868,2.663,2.663,0,0,1,2.039.85,3.376,3.376,0,0,1,.791,2.391c0,.062,0,.156-.006.281h-4.641a2.392,2.392,0,0,0,.58,1.57,1.724,1.724,0,0,0,1.3.545,1.612,1.612,0,0,0,.99-.3A2.032,2.032,0,0,0,331.641,141.95Zm-3.463-1.7h3.474a2.107,2.107,0,0,0-.4-1.178,1.618,1.618,0,0,0-1.307-.609,1.675,1.675,0,0,0-1.221.486A1.925,1.925,0,0,0,328.178,140.245Z"/><path class="cls-5" d="M338.115,141.674l1.037.135a2.687,2.687,0,0,1-.87,1.679,2.536,2.536,0,0,1-1.719.606,2.67,2.67,0,0,1-2.054-.835,3.384,3.384,0,0,1-.777-2.393,4.344,4.344,0,0,1,.334-1.764,2.332,2.332,0,0,1,1.017-1.134,3.015,3.015,0,0,1,1.485-.378,2.584,2.584,0,0,1,1.659.513,2.354,2.354,0,0,1,.826,1.456l-1.026.158a1.7,1.7,0,0,0-.518-.943,1.342,1.342,0,0,0-.9-.316,1.637,1.637,0,0,0-1.295.571,2.712,2.712,0,0,0-.5,1.808,2.8,2.8,0,0,0,.481,1.822,1.562,1.562,0,0,0,1.254.568,1.477,1.477,0,0,0,1.037-.381A1.889,1.889,0,0,0,338.115,141.674Z"/><path class="cls-5" d="M342.357,143.01l.153.932a3.884,3.884,0,0,1-.8.094,1.806,1.806,0,0,1-.891-.182,1.016,1.016,0,0,1-.445-.477,3.782,3.782,0,0,1-.129-1.246v-3.58h-.773v-.82h.773V136.19l1.049-.633v2.174h1.06v.82H341.3v3.639a1.806,1.806,0,0,0,.056.58.438.438,0,0,0,.181.2.7.7,0,0,0,.361.076A3.312,3.312,0,0,0,342.357,143.01Z"/><path class="cls-5" d="M342.967,142.1l1.043-.164a1.452,1.452,0,0,0,.489.961,1.7,1.7,0,0,0,1.122.334,1.644,1.644,0,0,0,1.078-.3.882.882,0,0,0,.352-.694.643.643,0,0,0-.311-.563,4.634,4.634,0,0,0-1.078-.357,9.773,9.773,0,0,1-1.608-.507,1.553,1.553,0,0,1-.68-.592,1.569,1.569,0,0,1-.231-.835,1.6,1.6,0,0,1,.19-.77,1.708,1.708,0,0,1,.519-.589,2.172,2.172,0,0,1,.67-.308,3.2,3.2,0,0,1,.912-.126,3.615,3.615,0,0,1,1.286.211,1.748,1.748,0,0,1,.817.572,2.221,2.221,0,0,1,.363.964l-1.031.14a1.128,1.128,0,0,0-.407-.75,1.494,1.494,0,0,0-.952-.269,1.724,1.724,0,0,0-1.037.24.7.7,0,0,0-.311.562.585.585,0,0,0,.129.37.933.933,0,0,0,.4.281q.159.058.932.269a13,13,0,0,1,1.561.49,1.586,1.586,0,0,1,.695.553,1.546,1.546,0,0,1,.252.9,1.774,1.774,0,0,1-.308.993,1.992,1.992,0,0,1-.888.721,3.243,3.243,0,0,1-1.312.254,2.924,2.924,0,0,1-1.849-.5A2.339,2.339,0,0,1,342.967,142.1Z"/><path class="cls-5" d="M42.329,172.234l1.137.287a3.824,3.824,0,0,1-1.286,2.136,3.545,3.545,0,0,1-2.271.735,4.08,4.08,0,0,1-2.259-.565,3.533,3.533,0,0,1-1.324-1.638,5.838,5.838,0,0,1-.454-2.3,5.057,5.057,0,0,1,.513-2.34,3.516,3.516,0,0,1,1.459-1.518,4.26,4.26,0,0,1,2.083-.519,3.52,3.52,0,0,1,2.168.657,3.4,3.4,0,0,1,1.224,1.845l-1.119.264a2.651,2.651,0,0,0-.867-1.365,2.312,2.312,0,0,0-1.43-.428,2.772,2.772,0,0,0-1.655.475,2.509,2.509,0,0,0-.935,1.274,5.149,5.149,0,0,0-.269,1.65,5.241,5.241,0,0,0,.319,1.913,2.376,2.376,0,0,0,.993,1.221,2.785,2.785,0,0,0,1.459.405,2.449,2.449,0,0,0,1.618-.551A2.818,2.818,0,0,0,42.329,172.234Z"/><path class="cls-5" d="M48.792,174.478a3.921,3.921,0,0,1-1.128.7,3.252,3.252,0,0,1-1.163.2,2.261,2.261,0,0,1-1.576-.5,1.653,1.653,0,0,1-.551-1.28,1.7,1.7,0,0,1,.208-.835,1.717,1.717,0,0,1,.545-.606,2.54,2.54,0,0,1,.759-.346,7.513,7.513,0,0,1,.937-.158A9.715,9.715,0,0,0,48.7,171.3q.006-.218.006-.276a1.165,1.165,0,0,0-.3-.908,1.766,1.766,0,0,0-1.2-.357,1.865,1.865,0,0,0-1.1.26,1.6,1.6,0,0,0-.524.923l-1.031-.141a2.548,2.548,0,0,1,.463-1.069,2.031,2.031,0,0,1,.931-.627,4.166,4.166,0,0,1,1.412-.22,3.734,3.734,0,0,1,1.295.188,1.709,1.709,0,0,1,.733.472,1.662,1.662,0,0,1,.328.717,5.953,5.953,0,0,1,.053.973v1.406a14.95,14.95,0,0,0,.067,1.861,2.38,2.38,0,0,0,.266.747H49A2.243,2.243,0,0,1,48.792,174.478Zm-.088-2.355a7.736,7.736,0,0,1-1.723.4,4.005,4.005,0,0,0-.919.211.908.908,0,0,0-.416.343.931.931,0,0,0,.172,1.2,1.378,1.378,0,0,0,.935.281,2.182,2.182,0,0,0,1.084-.266,1.641,1.641,0,0,0,.7-.73,2.553,2.553,0,0,0,.17-1.055Z"/><path class="cls-5" d="M51.382,175.246v-8.59h1.055v8.59Z"/><path class="cls-5" d="M58.132,172.966l1.037.135a2.687,2.687,0,0,1-.87,1.679,2.536,2.536,0,0,1-1.72.606,2.673,2.673,0,0,1-2.054-.835,3.388,3.388,0,0,1-.776-2.393,4.327,4.327,0,0,1,.334-1.764A2.332,2.332,0,0,1,55.1,169.26a3.015,3.015,0,0,1,1.485-.378,2.581,2.581,0,0,1,1.658.513,2.349,2.349,0,0,1,.826,1.456l-1.025.158a1.7,1.7,0,0,0-.519-.943,1.339,1.339,0,0,0-.9-.316,1.637,1.637,0,0,0-1.295.571,2.712,2.712,0,0,0-.5,1.808,2.8,2.8,0,0,0,.48,1.822,1.565,1.565,0,0,0,1.254.568,1.477,1.477,0,0,0,1.037-.381A1.885,1.885,0,0,0,58.132,172.966Z"/><path class="cls-5" d="M64.149,175.246v-.914a2.276,2.276,0,0,1-1.974,1.054,2.516,2.516,0,0,1-1.029-.211,1.684,1.684,0,0,1-.708-.53,1.982,1.982,0,0,1-.326-.782,5.359,5.359,0,0,1-.064-.984v-3.856H61.1v3.451a6.173,6.173,0,0,0,.064,1.114,1.1,1.1,0,0,0,.422.653,1.308,1.308,0,0,0,.8.237,1.735,1.735,0,0,0,.89-.243,1.349,1.349,0,0,0,.589-.662,3.328,3.328,0,0,0,.173-1.216v-3.334h1.055v6.223Z"/><path class="cls-5" d="M66.722,175.246v-8.59h1.054v8.59Z"/><path class="cls-5" d="M73.472,174.478a3.921,3.921,0,0,1-1.128.7,3.255,3.255,0,0,1-1.163.2,2.265,2.265,0,0,1-1.577-.5,1.652,1.652,0,0,1-.55-1.28,1.733,1.733,0,0,1,.753-1.441,2.535,2.535,0,0,1,.758-.346,7.536,7.536,0,0,1,.938-.158,9.748,9.748,0,0,0,1.881-.363q.006-.218.006-.276a1.165,1.165,0,0,0-.3-.908,1.767,1.767,0,0,0-1.2-.357,1.863,1.863,0,0,0-1.1.26,1.6,1.6,0,0,0-.524.923l-1.032-.141a2.56,2.56,0,0,1,.463-1.069,2.04,2.04,0,0,1,.932-.627,4.166,4.166,0,0,1,1.412-.22,3.738,3.738,0,0,1,1.3.188,1.7,1.7,0,0,1,.732.472,1.639,1.639,0,0,1,.328.717,5.839,5.839,0,0,1,.053.973v1.406a14.87,14.87,0,0,0,.068,1.861,2.355,2.355,0,0,0,.266.747h-1.1A2.221,2.221,0,0,1,73.472,174.478Zm-.088-2.355a7.736,7.736,0,0,1-1.723.4,4.031,4.031,0,0,0-.92.211.918.918,0,0,0-.416.343.934.934,0,0,0,.173,1.2,1.376,1.376,0,0,0,.935.281,2.185,2.185,0,0,0,1.084-.266,1.647,1.647,0,0,0,.7-.73,2.553,2.553,0,0,0,.17-1.055Z"/><path class="cls-5" d="M78.388,174.3l.152.932a3.876,3.876,0,0,1-.8.094,1.8,1.8,0,0,1-.89-.182,1.018,1.018,0,0,1-.446-.477,3.782,3.782,0,0,1-.129-1.246v-3.58h-.773v-.82h.773v-1.541l1.049-.633v2.174h1.061v.82H77.327v3.639a1.837,1.837,0,0,0,.056.58.438.438,0,0,0,.181.2.7.7,0,0,0,.361.076A3.337,3.337,0,0,0,78.388,174.3Z"/><path class="cls-5" d="M83.679,173.242l1.09.135a2.663,2.663,0,0,1-.956,1.482,3.237,3.237,0,0,1-3.946-.313,3.288,3.288,0,0,1-.8-2.359,3.437,3.437,0,0,1,.809-2.437,2.738,2.738,0,0,1,2.1-.868,2.663,2.663,0,0,1,2.039.85,3.376,3.376,0,0,1,.791,2.391c0,.062,0,.156-.006.281H80.157a2.392,2.392,0,0,0,.58,1.57,1.726,1.726,0,0,0,1.3.545,1.612,1.612,0,0,0,.99-.3A2.025,2.025,0,0,0,83.679,173.242Zm-3.463-1.7H83.69a2.1,2.1,0,0,0-.4-1.178,1.616,1.616,0,0,0-1.307-.609,1.675,1.675,0,0,0-1.221.486A1.925,1.925,0,0,0,80.216,171.537Z"/><path class="cls-5" d="M90.13,175.246v-.785a1.936,1.936,0,0,1-1.74.925,2.441,2.441,0,0,1-1.369-.41,2.689,2.689,0,0,1-.966-1.145,3.956,3.956,0,0,1-.343-1.691,4.424,4.424,0,0,1,.31-1.69,2.447,2.447,0,0,1,.932-1.163,2.488,2.488,0,0,1,1.389-.405,2.079,2.079,0,0,1,1.717.856v-3.082h1.048v8.59ZM86.8,172.14a2.7,2.7,0,0,0,.5,1.787,1.518,1.518,0,0,0,1.189.592,1.491,1.491,0,0,0,1.175-.565,2.609,2.609,0,0,0,.483-1.726,2.929,2.929,0,0,0-.492-1.875,1.514,1.514,0,0,0-1.213-.6,1.459,1.459,0,0,0-1.174.574A2.83,2.83,0,0,0,86.8,172.14Z"/><path class="cls-5" d="M97.073,175.246H96.1v-8.59h1.054v3.064a2.09,2.09,0,0,1,1.7-.838,2.614,2.614,0,0,1,1.087.232,2.22,2.22,0,0,1,.844.65,3.153,3.153,0,0,1,.519,1.011,4.168,4.168,0,0,1,.187,1.266,3.55,3.55,0,0,1-.791,2.472,2.473,2.473,0,0,1-1.9.873,1.98,1.98,0,0,1-1.729-.92Zm-.011-3.158a3.232,3.232,0,0,0,.3,1.617,1.508,1.508,0,0,0,2.543.214,2.73,2.73,0,0,0,.5-1.79,2.776,2.776,0,0,0-.483-1.8,1.472,1.472,0,0,0-1.169-.58,1.519,1.519,0,0,0-1.2.6A2.639,2.639,0,0,0,97.062,172.088Z"/><path class="cls-5" d="M102.728,177.642l-.118-.99a2.336,2.336,0,0,0,.6.094,1.157,1.157,0,0,0,.562-.117.964.964,0,0,0,.346-.329,5.151,5.151,0,0,0,.322-.785c.02-.058.051-.144.094-.258l-2.361-6.234h1.136l1.3,3.6q.252.685.452,1.441a14.191,14.191,0,0,1,.433-1.418l1.33-3.627h1.055l-2.367,6.328a12.256,12.256,0,0,1-.592,1.412,2.078,2.078,0,0,1-.645.765,1.522,1.522,0,0,1-.867.243A2.108,2.108,0,0,1,102.728,177.642Z"/><path class="cls-5" d="M116.169,172.966l1.037.135a2.687,2.687,0,0,1-.87,1.679,2.536,2.536,0,0,1-1.72.606,2.669,2.669,0,0,1-2.053-.835,3.384,3.384,0,0,1-.777-2.393,4.327,4.327,0,0,1,.334-1.764,2.332,2.332,0,0,1,1.017-1.134,3.015,3.015,0,0,1,1.485-.378,2.579,2.579,0,0,1,1.658.513,2.349,2.349,0,0,1,.826,1.456l-1.025.158a1.7,1.7,0,0,0-.518-.943,1.344,1.344,0,0,0-.9-.316,1.637,1.637,0,0,0-1.3.571,2.712,2.712,0,0,0-.5,1.808,2.8,2.8,0,0,0,.481,1.822,1.562,1.562,0,0,0,1.253.568,1.479,1.479,0,0,0,1.038-.381A1.889,1.889,0,0,0,116.169,172.966Z"/><path class="cls-5" d="M117.716,172.134a3.206,3.206,0,0,1,.961-2.56,2.894,2.894,0,0,1,1.957-.692,2.793,2.793,0,0,1,2.1.841,3.2,3.2,0,0,1,.815,2.324,4.119,4.119,0,0,1-.36,1.889,2.558,2.558,0,0,1-1.049,1.07,3.063,3.063,0,0,1-1.5.38,2.8,2.8,0,0,1-2.113-.838A3.346,3.346,0,0,1,117.716,172.134Zm1.084,0a2.653,2.653,0,0,0,.521,1.79,1.737,1.737,0,0,0,2.619,0,2.713,2.713,0,0,0,.522-1.823,2.576,2.576,0,0,0-.524-1.749,1.741,1.741,0,0,0-2.617,0A2.644,2.644,0,0,0,118.8,172.134Z"/><path class="cls-5" d="M124.782,175.246v-6.223h.944v.873a2.208,2.208,0,0,1,.779-.735,2.183,2.183,0,0,1,1.107-.279,2.043,2.043,0,0,1,1.134.288,1.535,1.535,0,0,1,.624.8,2.235,2.235,0,0,1,1.922-1.09,1.894,1.894,0,0,1,1.424.513,2.191,2.191,0,0,1,.5,1.579v4.272h-1.049v-3.92a2.9,2.9,0,0,0-.1-.911.889.889,0,0,0-.373-.449,1.159,1.159,0,0,0-.632-.169,1.472,1.472,0,0,0-1.09.436,1.924,1.924,0,0,0-.434,1.4v3.615h-1.055V171.2a1.778,1.778,0,0,0-.257-1.055.977.977,0,0,0-.844-.351,1.533,1.533,0,0,0-.823.234,1.329,1.329,0,0,0-.548.685,3.87,3.87,0,0,0-.17,1.3v3.229Z"/><path class="cls-5" d="M135.751,175.246h-.979v-8.59h1.055v3.064a2.089,2.089,0,0,1,1.705-.838,2.617,2.617,0,0,1,1.087.232,2.22,2.22,0,0,1,.844.65,3.151,3.151,0,0,1,.518,1.011,4.168,4.168,0,0,1,.188,1.266,3.555,3.555,0,0,1-.791,2.472,2.474,2.474,0,0,1-1.9.873,1.98,1.98,0,0,1-1.728-.92Zm-.012-3.158a3.23,3.23,0,0,0,.305,1.617,1.508,1.508,0,0,0,2.543.214,2.73,2.73,0,0,0,.5-1.79,2.77,2.77,0,0,0-.484-1.8,1.47,1.47,0,0,0-1.169-.58,1.518,1.518,0,0,0-1.195.6A2.639,2.639,0,0,0,135.739,172.088Z"/><path class="cls-5" d="M141.458,167.869v-1.213h1.055v1.213Zm0,7.377v-6.223h1.055v6.223Z"/><path class="cls-5" d="M144.118,175.246v-6.223h.949v.885a2.238,2.238,0,0,1,1.981-1.026,2.592,2.592,0,0,1,1.034.2,1.62,1.62,0,0,1,.706.53,2.03,2.03,0,0,1,.328.779,6.042,6.042,0,0,1,.059,1.026v3.826H148.12v-3.785A2.842,2.842,0,0,0,148,170.5a1.013,1.013,0,0,0-.436-.51,1.391,1.391,0,0,0-.736-.19,1.709,1.709,0,0,0-1.163.427,2.11,2.11,0,0,0-.489,1.623v3.4Z"/><path class="cls-5" d="M150.8,167.869v-1.213h1.055v1.213Zm0,7.377v-6.223h1.055v6.223Z"/><path class="cls-5" d="M153.458,175.246v-6.223h.949v.885a2.237,2.237,0,0,1,1.981-1.026,2.6,2.6,0,0,1,1.034.2,1.62,1.62,0,0,1,.706.53,2.03,2.03,0,0,1,.328.779,6.042,6.042,0,0,1,.059,1.026v3.826H157.46v-3.785a2.842,2.842,0,0,0-.123-.964,1.015,1.015,0,0,0-.437-.51,1.387,1.387,0,0,0-.735-.19,1.709,1.709,0,0,0-1.163.427,2.11,2.11,0,0,0-.489,1.623v3.4Z"/><path class="cls-5" d="M159.938,175.761l1.026.153a.977.977,0,0,0,.357.691,1.759,1.759,0,0,0,1.073.293,1.882,1.882,0,0,0,1.13-.293,1.436,1.436,0,0,0,.539-.82,6.687,6.687,0,0,0,.077-1.354,2.171,2.171,0,0,1-1.723.815,2.348,2.348,0,0,1-1.986-.926,3.563,3.563,0,0,1-.7-2.221,4.13,4.13,0,0,1,.322-1.643,2.577,2.577,0,0,1,.934-1.163,2.523,2.523,0,0,1,1.439-.411,2.229,2.229,0,0,1,1.816.891v-.75h.973V174.4a5.11,5.11,0,0,1-.3,2.06,2.17,2.17,0,0,1-.937.958,3.258,3.258,0,0,1-1.58.351,2.975,2.975,0,0,1-1.8-.5A1.7,1.7,0,0,1,159.938,175.761Zm.874-3.738a2.7,2.7,0,0,0,.486,1.787,1.6,1.6,0,0,0,2.437,0,2.612,2.612,0,0,0,.493-1.755,2.549,2.549,0,0,0-.507-1.722,1.566,1.566,0,0,0-1.222-.58,1.521,1.521,0,0,0-1.195.571A2.537,2.537,0,0,0,160.812,172.023Z"/><path class="cls-5" d="M172.442,174.3l.153.932a3.884,3.884,0,0,1-.8.094,1.806,1.806,0,0,1-.891-.182,1.016,1.016,0,0,1-.445-.477,3.782,3.782,0,0,1-.129-1.246v-3.58h-.773v-.82h.773v-1.541l1.049-.633v2.174h1.06v.82h-1.06v3.639a1.806,1.806,0,0,0,.056.58.438.438,0,0,0,.181.2.7.7,0,0,0,.36.076A3.312,3.312,0,0,0,172.442,174.3Z"/><path class="cls-5" d="M174.622,175.246l-1.9-6.223h1.09l.99,3.592.369,1.336q.024-.1.322-1.283l.99-3.645h1.084l.932,3.609.311,1.19.357-1.2,1.066-3.6h1.026l-1.945,6.223h-1.1l-.99-3.727-.241-1.06-1.259,4.787Z"/><path class="cls-5" d="M181.747,172.134a3.206,3.206,0,0,1,.961-2.56,2.9,2.9,0,0,1,1.957-.692,2.794,2.794,0,0,1,2.1.841,3.2,3.2,0,0,1,.814,2.324,4.119,4.119,0,0,1-.36,1.889,2.552,2.552,0,0,1-1.049,1.07,3.063,3.063,0,0,1-1.5.38,2.8,2.8,0,0,1-2.112-.838A3.346,3.346,0,0,1,181.747,172.134Zm1.084,0a2.647,2.647,0,0,0,.522,1.79,1.737,1.737,0,0,0,2.619,0,2.719,2.719,0,0,0,.521-1.823,2.576,2.576,0,0,0-.524-1.749,1.74,1.74,0,0,0-2.616,0A2.639,2.639,0,0,0,182.831,172.134Z"/><path class="cls-5" d="M192.147,177.631v-8.608h.961v.809a2.367,2.367,0,0,1,.768-.712,2.111,2.111,0,0,1,1.037-.238,2.454,2.454,0,0,1,1.406.411,2.51,2.51,0,0,1,.92,1.157,4.226,4.226,0,0,1,.311,1.638,4.148,4.148,0,0,1-.343,1.719,2.6,2.6,0,0,1-2.37,1.579,1.986,1.986,0,0,1-.946-.222,2.156,2.156,0,0,1-.689-.563v3.03Zm.956-5.461a2.709,2.709,0,0,0,.486,1.775,1.491,1.491,0,0,0,1.178.574,1.524,1.524,0,0,0,1.2-.595,2.818,2.818,0,0,0,.5-1.842,2.747,2.747,0,0,0-.49-1.782,1.472,1.472,0,0,0-1.169-.591,1.519,1.519,0,0,0-1.192.63A2.814,2.814,0,0,0,193.1,172.17Z"/><path class="cls-5" d="M202.882,174.478a3.921,3.921,0,0,1-1.128.7,3.252,3.252,0,0,1-1.163.2,2.261,2.261,0,0,1-1.576-.5,1.65,1.65,0,0,1-.551-1.28,1.7,1.7,0,0,1,.208-.835,1.717,1.717,0,0,1,.545-.606,2.529,2.529,0,0,1,.759-.346,7.513,7.513,0,0,1,.937-.158,9.715,9.715,0,0,0,1.881-.363q.006-.218.006-.276a1.165,1.165,0,0,0-.3-.908,1.767,1.767,0,0,0-1.2-.357,1.865,1.865,0,0,0-1.1.26,1.6,1.6,0,0,0-.524.923l-1.031-.141a2.56,2.56,0,0,1,.462-1.069,2.04,2.04,0,0,1,.932-.627,4.166,4.166,0,0,1,1.412-.22,3.738,3.738,0,0,1,1.3.188,1.7,1.7,0,0,1,.732.472,1.652,1.652,0,0,1,.329.717,5.987,5.987,0,0,1,.052.973v1.406a14.87,14.87,0,0,0,.068,1.861,2.38,2.38,0,0,0,.266.747h-1.1A2.221,2.221,0,0,1,202.882,174.478Zm-.088-2.355a7.736,7.736,0,0,1-1.723.4,4.031,4.031,0,0,0-.92.211.918.918,0,0,0-.416.343.934.934,0,0,0,.173,1.2,1.378,1.378,0,0,0,.935.281,2.185,2.185,0,0,0,1.084-.266,1.641,1.641,0,0,0,.7-.73,2.553,2.553,0,0,0,.17-1.055Z"/><path class="cls-5" d="M207.8,174.3l.152.932a3.876,3.876,0,0,1-.8.094,1.8,1.8,0,0,1-.89-.182,1.018,1.018,0,0,1-.446-.477,3.782,3.782,0,0,1-.129-1.246v-3.58h-.773v-.82h.773v-1.541l1.049-.633v2.174H207.8v.82h-1.061v3.639a1.837,1.837,0,0,0,.056.58.44.44,0,0,0,.182.2.7.7,0,0,0,.36.076A3.337,3.337,0,0,0,207.8,174.3Z"/><path class="cls-5" d="M211.132,174.3l.152.932a3.876,3.876,0,0,1-.8.094,1.8,1.8,0,0,1-.89-.182,1.018,1.018,0,0,1-.446-.477,3.782,3.782,0,0,1-.129-1.246v-3.58h-.773v-.82h.773v-1.541l1.049-.633v2.174h1.061v.82h-1.061v3.639a1.837,1.837,0,0,0,.056.58.44.44,0,0,0,.182.2.7.7,0,0,0,.36.076A3.337,3.337,0,0,0,211.132,174.3Z"/><path class="cls-5" d="M216.423,173.242l1.09.135a2.667,2.667,0,0,1-.955,1.482,3.239,3.239,0,0,1-3.947-.313,3.288,3.288,0,0,1-.8-2.359,3.437,3.437,0,0,1,.808-2.437,2.738,2.738,0,0,1,2.1-.868,2.663,2.663,0,0,1,2.039.85,3.376,3.376,0,0,1,.791,2.391c0,.062,0,.156-.006.281H212.9a2.392,2.392,0,0,0,.58,1.57,1.726,1.726,0,0,0,1.3.545,1.612,1.612,0,0,0,.99-.3A2.025,2.025,0,0,0,216.423,173.242Zm-3.463-1.7h3.475a2.107,2.107,0,0,0-.4-1.178,1.616,1.616,0,0,0-1.307-.609,1.675,1.675,0,0,0-1.221.486A1.925,1.925,0,0,0,212.96,171.537Z"/><path class="cls-5" d="M218.825,175.246v-6.223h.949v.943a2.593,2.593,0,0,1,.671-.873,1.177,1.177,0,0,1,.677-.211,2.061,2.061,0,0,1,1.084.34l-.363.979a1.505,1.505,0,0,0-.774-.229,1.01,1.01,0,0,0-.621.208,1.13,1.13,0,0,0-.392.577,4.087,4.087,0,0,0-.176,1.231v3.258Z"/><path class="cls-5" d="M222.833,175.246v-6.223h.949v.885a2.237,2.237,0,0,1,1.981-1.026,2.6,2.6,0,0,1,1.034.2,1.62,1.62,0,0,1,.706.53,2.03,2.03,0,0,1,.328.779,6.042,6.042,0,0,1,.059,1.026v3.826h-1.055v-3.785a2.842,2.842,0,0,0-.123-.964,1.015,1.015,0,0,0-.437-.51,1.387,1.387,0,0,0-.735-.19,1.709,1.709,0,0,0-1.163.427,2.11,2.11,0,0,0-.489,1.623v3.4Z"/><path class="cls-5" d="M229.085,173.388l1.043-.164a1.46,1.46,0,0,0,.489.961,1.7,1.7,0,0,0,1.122.334,1.642,1.642,0,0,0,1.078-.3.882.882,0,0,0,.352-.694.643.643,0,0,0-.311-.563,4.634,4.634,0,0,0-1.078-.357,9.773,9.773,0,0,1-1.608-.507,1.553,1.553,0,0,1-.68-.592,1.569,1.569,0,0,1-.231-.835,1.6,1.6,0,0,1,.19-.77,1.708,1.708,0,0,1,.519-.589,2.168,2.168,0,0,1,.671-.308,3.189,3.189,0,0,1,.911-.126,3.615,3.615,0,0,1,1.286.211,1.748,1.748,0,0,1,.817.572,2.233,2.233,0,0,1,.364.964l-1.032.14a1.128,1.128,0,0,0-.407-.75,1.494,1.494,0,0,0-.952-.269,1.726,1.726,0,0,0-1.037.24.7.7,0,0,0-.311.562.585.585,0,0,0,.129.37.933.933,0,0,0,.4.281q.159.058.932.269a13.1,13.1,0,0,1,1.562.49,1.583,1.583,0,0,1,.694.553,1.546,1.546,0,0,1,.252.9,1.774,1.774,0,0,1-.308.993,1.986,1.986,0,0,1-.887.72,3.234,3.234,0,0,1-1.313.255,2.926,2.926,0,0,1-1.849-.5A2.343,2.343,0,0,1,229.085,173.388Z"/><path class="cls-5" d="M238.448,172.134a3.209,3.209,0,0,1,.961-2.56,2.9,2.9,0,0,1,1.957-.692,2.794,2.794,0,0,1,2.1.841,3.2,3.2,0,0,1,.814,2.324,4.119,4.119,0,0,1-.36,1.889,2.552,2.552,0,0,1-1.049,1.07,3.063,3.063,0,0,1-1.5.38,2.8,2.8,0,0,1-2.112-.838A3.346,3.346,0,0,1,238.448,172.134Zm1.084,0a2.647,2.647,0,0,0,.522,1.79,1.737,1.737,0,0,0,2.619,0,2.714,2.714,0,0,0,.521-1.823,2.571,2.571,0,0,0-.524-1.749,1.74,1.74,0,0,0-2.616,0A2.639,2.639,0,0,0,239.532,172.134Z"/><path class="cls-5" d="M245.767,175.246v-5.4h-.932v-.82h.932v-.662a2.909,2.909,0,0,1,.111-.932,1.347,1.347,0,0,1,.536-.665,1.931,1.931,0,0,1,1.075-.255,5.2,5.2,0,0,1,.985.106l-.159.92a3.534,3.534,0,0,0-.621-.059.925.925,0,0,0-.679.205,1.112,1.112,0,0,0-.2.768v.574h1.213v.82h-1.213v5.4Z"/><path class="cls-5" d="M252.188,167.869v-1.213h1.055v1.213Zm0,7.377v-6.223h1.055v6.223Z"/><path class="cls-5" d="M254.849,175.246v-6.223h.949v.885a2.236,2.236,0,0,1,1.98-1.026,2.6,2.6,0,0,1,1.035.2,1.626,1.626,0,0,1,.706.53,2.046,2.046,0,0,1,.328.779,6.072,6.072,0,0,1,.058,1.026v3.826h-1.054v-3.785a2.842,2.842,0,0,0-.123-.964,1.015,1.015,0,0,0-.437-.51,1.387,1.387,0,0,0-.735-.19,1.707,1.707,0,0,0-1.163.427,2.106,2.106,0,0,0-.49,1.623v3.4Z"/><path class="cls-5" d="M263.825,174.3l.153.932a3.884,3.884,0,0,1-.8.094,1.806,1.806,0,0,1-.891-.182,1.016,1.016,0,0,1-.445-.477,3.782,3.782,0,0,1-.129-1.246v-3.58h-.774v-.82h.774v-1.541l1.049-.633v2.174h1.06v.82h-1.06v3.639a1.847,1.847,0,0,0,.055.58.44.44,0,0,0,.182.2.7.7,0,0,0,.36.076A3.324,3.324,0,0,0,263.825,174.3Z"/><path class="cls-5" d="M269.116,173.242l1.09.135a2.662,2.662,0,0,1-.955,1.482,3.237,3.237,0,0,1-3.946-.313,3.284,3.284,0,0,1-.8-2.359,3.437,3.437,0,0,1,.808-2.437,2.741,2.741,0,0,1,2.1-.868,2.661,2.661,0,0,1,2.039.85,3.372,3.372,0,0,1,.791,2.391c0,.062,0,.156-.006.281H265.6a2.387,2.387,0,0,0,.58,1.57,1.723,1.723,0,0,0,1.3.545,1.616,1.616,0,0,0,.99-.3A2.031,2.031,0,0,0,269.116,173.242Zm-3.463-1.7h3.475a2.107,2.107,0,0,0-.4-1.178,1.615,1.615,0,0,0-1.306-.609,1.676,1.676,0,0,0-1.222.486A1.925,1.925,0,0,0,265.653,171.537Z"/><path class="cls-5" d="M271.337,175.761l1.025.153a.974.974,0,0,0,.358.691,1.756,1.756,0,0,0,1.072.293,1.887,1.887,0,0,0,1.131-.293,1.446,1.446,0,0,0,.539-.82,6.713,6.713,0,0,0,.076-1.354,2.17,2.17,0,0,1-1.723.815,2.349,2.349,0,0,1-1.986-.926,3.563,3.563,0,0,1-.7-2.221,4.13,4.13,0,0,1,.322-1.643,2.579,2.579,0,0,1,.935-1.163,2.519,2.519,0,0,1,1.438-.411,2.231,2.231,0,0,1,1.817.891v-.75h.972V174.4a5.092,5.092,0,0,1-.3,2.06,2.165,2.165,0,0,1-.937.958,3.254,3.254,0,0,1-1.579.351,2.979,2.979,0,0,1-1.8-.5A1.693,1.693,0,0,1,271.337,175.761Zm.873-3.738a2.7,2.7,0,0,0,.486,1.787,1.6,1.6,0,0,0,2.438,0,2.612,2.612,0,0,0,.492-1.755,2.549,2.549,0,0,0-.507-1.722,1.566,1.566,0,0,0-1.222-.58,1.522,1.522,0,0,0-1.195.571A2.537,2.537,0,0,0,272.21,172.023Z"/><path class="cls-5" d="M278.192,175.246v-6.223h.95v.943a2.568,2.568,0,0,1,.671-.873,1.173,1.173,0,0,1,.676-.211,2.061,2.061,0,0,1,1.084.34l-.363.979a1.5,1.5,0,0,0-.773-.229,1.011,1.011,0,0,0-.622.208,1.13,1.13,0,0,0-.392.577,4.119,4.119,0,0,0-.176,1.231v3.258Z"/><path class="cls-5" d="M286.261,174.478a3.921,3.921,0,0,1-1.128.7,3.255,3.255,0,0,1-1.163.2,2.261,2.261,0,0,1-1.576-.5,1.65,1.65,0,0,1-.551-1.28,1.733,1.733,0,0,1,.753-1.441,2.535,2.535,0,0,1,.758-.346,7.57,7.57,0,0,1,.938-.158,9.715,9.715,0,0,0,1.881-.363q.006-.218.006-.276a1.165,1.165,0,0,0-.3-.908,1.767,1.767,0,0,0-1.2-.357,1.863,1.863,0,0,0-1.1.26,1.6,1.6,0,0,0-.524.923l-1.032-.141a2.56,2.56,0,0,1,.463-1.069,2.04,2.04,0,0,1,.932-.627,4.166,4.166,0,0,1,1.412-.22,3.738,3.738,0,0,1,1.295.188,1.7,1.7,0,0,1,.732.472,1.652,1.652,0,0,1,.329.717,5.987,5.987,0,0,1,.052.973v1.406a14.87,14.87,0,0,0,.068,1.861,2.355,2.355,0,0,0,.266.747h-1.1A2.221,2.221,0,0,1,286.261,174.478Zm-.088-2.355a7.736,7.736,0,0,1-1.723.4,4.031,4.031,0,0,0-.92.211.918.918,0,0,0-.416.343.934.934,0,0,0,.173,1.2,1.378,1.378,0,0,0,.935.281,2.185,2.185,0,0,0,1.084-.266,1.647,1.647,0,0,0,.7-.73,2.553,2.553,0,0,0,.17-1.055Z"/><path class="cls-5" d="M288.851,175.246v-8.59H289.9v8.59Z"/><path class="cls-5" d="M299.134,173.242l1.09.135a2.667,2.667,0,0,1-.955,1.482,3.239,3.239,0,0,1-3.947-.313,3.288,3.288,0,0,1-.8-2.359,3.437,3.437,0,0,1,.809-2.437,2.738,2.738,0,0,1,2.1-.868,2.663,2.663,0,0,1,2.039.85,3.376,3.376,0,0,1,.791,2.391c0,.062,0,.156-.006.281h-4.641a2.392,2.392,0,0,0,.58,1.57,1.726,1.726,0,0,0,1.3.545,1.612,1.612,0,0,0,.99-.3A2.025,2.025,0,0,0,299.134,173.242Zm-3.463-1.7h3.475a2.107,2.107,0,0,0-.4-1.178,1.616,1.616,0,0,0-1.307-.609,1.675,1.675,0,0,0-1.221.486A1.925,1.925,0,0,0,295.671,171.537Z"/><path class="cls-5" d="M305.515,177.631v-3.047a1.888,1.888,0,0,1-.689.574,2.023,2.023,0,0,1-.94.228,2.487,2.487,0,0,1-1.907-.884,3.482,3.482,0,0,1-.8-2.426,4.157,4.157,0,0,1,.325-1.682,2.429,2.429,0,0,1,.943-1.128,2.523,2.523,0,0,1,1.357-.384,2.085,2.085,0,0,1,1.816.973v-.832h.949v8.608Zm-3.252-5.514a2.751,2.751,0,0,0,.5,1.8,1.528,1.528,0,0,0,1.207.6,1.477,1.477,0,0,0,1.16-.571,2.632,2.632,0,0,0,.486-1.737,2.9,2.9,0,0,0-.513-1.87,1.517,1.517,0,0,0-1.2-.626,1.453,1.453,0,0,0-1.163.583A2.848,2.848,0,0,0,302.263,172.117Z"/><path class="cls-5" d="M312.3,175.246v-.914a2.279,2.279,0,0,1-1.975,1.054,2.508,2.508,0,0,1-1.028-.211,1.688,1.688,0,0,1-.709-.53,1.981,1.981,0,0,1-.325-.782,5.338,5.338,0,0,1-.065-.984v-3.856h1.055v3.451a6.173,6.173,0,0,0,.064,1.114,1.1,1.1,0,0,0,.422.653,1.31,1.31,0,0,0,.8.237,1.738,1.738,0,0,0,.891-.243,1.358,1.358,0,0,0,.589-.662,3.331,3.331,0,0,0,.172-1.216v-3.334h1.055v6.223Z"/><path class="cls-5" d="M318.956,174.478a3.921,3.921,0,0,1-1.128.7,3.252,3.252,0,0,1-1.163.2,2.261,2.261,0,0,1-1.576-.5,1.653,1.653,0,0,1-.551-1.28,1.7,1.7,0,0,1,.208-.835,1.717,1.717,0,0,1,.545-.606,2.552,2.552,0,0,1,.759-.346,7.513,7.513,0,0,1,.937-.158,9.715,9.715,0,0,0,1.881-.363q.006-.218.006-.276a1.165,1.165,0,0,0-.3-.908,1.766,1.766,0,0,0-1.2-.357,1.865,1.865,0,0,0-1.1.26,1.6,1.6,0,0,0-.524.923l-1.031-.141a2.548,2.548,0,0,1,.463-1.069,2.031,2.031,0,0,1,.931-.627,4.17,4.17,0,0,1,1.412-.22,3.734,3.734,0,0,1,1.3.188,1.709,1.709,0,0,1,.733.472,1.662,1.662,0,0,1,.328.717,5.953,5.953,0,0,1,.053.973v1.406A14.95,14.95,0,0,0,320,174.5a2.358,2.358,0,0,0,.267.747h-1.1A2.243,2.243,0,0,1,318.956,174.478Zm-.088-2.355a7.739,7.739,0,0,1-1.722.4,4,4,0,0,0-.92.211.908.908,0,0,0-.416.343.931.931,0,0,0,.172,1.2,1.378,1.378,0,0,0,.935.281,2.182,2.182,0,0,0,1.084-.266,1.641,1.641,0,0,0,.7-.73,2.536,2.536,0,0,0,.17-1.055Z"/><path class="cls-5" d="M323.872,174.3l.152.932a3.867,3.867,0,0,1-.8.094,1.806,1.806,0,0,1-.891-.182,1.016,1.016,0,0,1-.445-.477,3.782,3.782,0,0,1-.129-1.246v-3.58h-.774v-.82h.774v-1.541l1.049-.633v2.174h1.06v.82h-1.06v3.639a1.847,1.847,0,0,0,.055.58.44.44,0,0,0,.182.2.7.7,0,0,0,.36.076A3.324,3.324,0,0,0,323.872,174.3Z"/><path class="cls-5" d="M324.909,167.869v-1.213h1.055v1.213Zm0,7.377v-6.223h1.055v6.223Z"/><path class="cls-5" d="M327.177,172.134a3.206,3.206,0,0,1,.961-2.56,2.894,2.894,0,0,1,1.957-.692,2.793,2.793,0,0,1,2.1.841,3.2,3.2,0,0,1,.815,2.324,4.105,4.105,0,0,1-.361,1.889,2.549,2.549,0,0,1-1.048,1.07,3.063,3.063,0,0,1-1.5.38,2.8,2.8,0,0,1-2.113-.838A3.346,3.346,0,0,1,327.177,172.134Zm1.084,0a2.653,2.653,0,0,0,.521,1.79,1.737,1.737,0,0,0,2.619,0,2.713,2.713,0,0,0,.522-1.823,2.571,2.571,0,0,0-.525-1.749,1.74,1.74,0,0,0-2.616,0A2.644,2.644,0,0,0,328.261,172.134Z"/><path class="cls-5" d="M334.243,175.246v-6.223h.949v.885a2.238,2.238,0,0,1,1.981-1.026,2.592,2.592,0,0,1,1.034.2,1.62,1.62,0,0,1,.706.53,2.03,2.03,0,0,1,.328.779,6.042,6.042,0,0,1,.059,1.026v3.826h-1.055v-3.785a2.842,2.842,0,0,0-.123-.964,1.013,1.013,0,0,0-.436-.51,1.391,1.391,0,0,0-.736-.19,1.709,1.709,0,0,0-1.163.427,2.11,2.11,0,0,0-.489,1.623v3.4Z"/><path class="cls-5" d="M340.5,173.388l1.043-.164a1.46,1.46,0,0,0,.489.961,1.7,1.7,0,0,0,1.122.334,1.647,1.647,0,0,0,1.079-.3.884.884,0,0,0,.351-.694.642.642,0,0,0-.31-.563,4.648,4.648,0,0,0-1.079-.357,9.773,9.773,0,0,1-1.608-.507,1.534,1.534,0,0,1-.911-1.427,1.6,1.6,0,0,1,.19-.77,1.708,1.708,0,0,1,.519-.589,2.179,2.179,0,0,1,.671-.308,3.189,3.189,0,0,1,.911-.126,3.615,3.615,0,0,1,1.286.211,1.743,1.743,0,0,1,.817.572,2.233,2.233,0,0,1,.364.964l-1.032.14a1.124,1.124,0,0,0-.407-.75,1.492,1.492,0,0,0-.952-.269,1.726,1.726,0,0,0-1.037.24.7.7,0,0,0-.311.562.585.585,0,0,0,.129.37.931.931,0,0,0,.4.281c.105.039.416.129.931.269a13.1,13.1,0,0,1,1.562.49,1.583,1.583,0,0,1,.694.553,1.546,1.546,0,0,1,.252.9,1.766,1.766,0,0,1-.308.993,1.986,1.986,0,0,1-.887.72,3.231,3.231,0,0,1-1.313.255,2.921,2.921,0,0,1-1.848-.5A2.34,2.34,0,0,1,340.5,173.388Z"/><line class="cls-6" x1="275.651" y1="114.358" x2="274.651" y2="114.358"/><line class="cls-7" x1="272.735" y1="114.358" x2="258.371" y2="114.358"/><polyline class="cls-6" points="257.413 114.358 256.413 114.358 256.413 113.358"/><line class="cls-8" x1="256.413" y1="111.245" x2="256.413" y2="95.396"/><polyline class="cls-6" points="256.413 94.339 256.413 93.339 255.413 93.339"/><line class="cls-9" x1="253.493" y1="93.339" x2="231.408" y2="93.339"/><polyline class="cls-6" points="230.448 93.339 229.448 93.339 229.448 94.339"/><line class="cls-8" x1="229.448" y1="96.452" x2="229.448" y2="112.301"/><polyline class="cls-6" points="229.448 113.358 229.448 114.358 228.448 114.358"/><line class="cls-9" x1="226.527" y1="114.358" x2="204.443" y2="114.358"/><polyline class="cls-6" points="203.483 114.358 202.483 114.358 202.483 113.358"/><line class="cls-8" x1="202.483" y1="111.245" x2="202.483" y2="95.396"/><polyline class="cls-6" points="202.483 94.339 202.483 93.339 201.483 93.339"/><line class="cls-10" x1="199.562" y1="93.339" x2="177.478" y2="93.339"/><polyline class="cls-6" points="176.517 93.339 175.517 93.339 175.517 94.339"/><line class="cls-8" x1="175.517" y1="96.452" x2="175.517" y2="112.301"/><polyline class="cls-6" points="175.517 113.358 175.517 114.358 174.517 114.358"/><line class="cls-9" x1="172.597" y1="114.358" x2="150.512" y2="114.358"/><polyline class="cls-6" points="149.552 114.358 148.552 114.358 148.552 113.358"/><line class="cls-8" x1="148.552" y1="111.245" x2="148.552" y2="95.396"/><polyline class="cls-6" points="148.552 94.339 148.552 93.339 147.552 93.339"/><line class="cls-9" x1="145.632" y1="93.339" x2="123.547" y2="93.339"/><polyline class="cls-6" points="122.587 93.339 121.587 93.339 121.587 94.339"/><line class="cls-8" x1="121.587" y1="96.452" x2="121.587" y2="112.301"/><polyline class="cls-6" points="121.587 113.358 121.587 114.358 120.587 114.358"/><line class="cls-11" x1="118.442" y1="114.358" x2="110.933" y2="114.358"/><line class="cls-6" x1="109.861" y1="114.358" x2="108.861" y2="114.358"/><path class="cls-5" d="M24.453,84.136v-8.59h2.959a7.179,7.179,0,0,1,1.529.123,2.908,2.908,0,0,1,1.26.615,3.489,3.489,0,0,1,1.016,1.468,5.753,5.753,0,0,1,.337,2.042,6.007,6.007,0,0,1-.228,1.734,4.229,4.229,0,0,1-.586,1.251,3.124,3.124,0,0,1-.782.78,3.188,3.188,0,0,1-1.026.43,5.829,5.829,0,0,1-1.38.147Zm1.136-1.014h1.834a4.463,4.463,0,0,0,1.333-.158,1.907,1.907,0,0,0,.771-.445,2.727,2.727,0,0,0,.63-1.087,5.327,5.327,0,0,0,.225-1.655,4,4,0,0,0-.442-2.072,2.226,2.226,0,0,0-1.075-.969,4.424,4.424,0,0,0-1.471-.176h-1.8Z"/><path class="cls-5" d="M32.99,76.759V75.546h1.054v1.213Zm0,7.377V77.913h1.054v6.223Z"/><path class="cls-5" d="M35.9,84.136v-5.4H34.97v-.821H35.9v-.662a2.913,2.913,0,0,1,.111-.932,1.352,1.352,0,0,1,.536-.665,1.943,1.943,0,0,1,1.076-.254,5.185,5.185,0,0,1,.984.1l-.158.92a3.551,3.551,0,0,0-.621-.059.927.927,0,0,0-.68.2,1.113,1.113,0,0,0-.2.768v.574h1.213v.821H36.951v5.4Z"/><path class="cls-5" d="M39.236,84.136v-5.4H38.3v-.821h.932v-.662a2.913,2.913,0,0,1,.111-.932,1.352,1.352,0,0,1,.536-.665,1.942,1.942,0,0,1,1.075-.254,5.2,5.2,0,0,1,.985.1l-.158.92a3.551,3.551,0,0,0-.621-.059.927.927,0,0,0-.68.2,1.113,1.113,0,0,0-.2.768v.574H41.5v.821H40.285v5.4Z"/><path class="cls-5" d="M42.306,84.136V77.913h.949v.944a2.572,2.572,0,0,1,.671-.873,1.169,1.169,0,0,1,.677-.211,2.062,2.062,0,0,1,1.084.339l-.363.979a1.515,1.515,0,0,0-.774-.229,1.01,1.01,0,0,0-.621.208,1.133,1.133,0,0,0-.392.578,4.081,4.081,0,0,0-.176,1.23v3.258Z"/><path class="cls-5" d="M50.375,83.368a3.921,3.921,0,0,1-1.128.7,3.257,3.257,0,0,1-1.164.206,2.264,2.264,0,0,1-1.576-.5,1.654,1.654,0,0,1-.55-1.281,1.735,1.735,0,0,1,.752-1.441,2.577,2.577,0,0,1,.759-.346,7.536,7.536,0,0,1,.938-.158,9.748,9.748,0,0,0,1.881-.363c0-.145.005-.237.005-.276a1.166,1.166,0,0,0-.3-.908,1.768,1.768,0,0,0-1.2-.357,1.867,1.867,0,0,0-1.1.26,1.6,1.6,0,0,0-.525.923l-1.031-.14a2.559,2.559,0,0,1,.463-1.07,2.035,2.035,0,0,1,.932-.627,4.167,4.167,0,0,1,1.412-.219,3.74,3.74,0,0,1,1.3.187,1.7,1.7,0,0,1,.732.472,1.655,1.655,0,0,1,.328.718,5.93,5.93,0,0,1,.053.972v1.406a14.95,14.95,0,0,0,.067,1.861,2.341,2.341,0,0,0,.267.747h-1.1A2.243,2.243,0,0,1,50.375,83.368Zm-.088-2.355a7.736,7.736,0,0,1-1.723.4,4.017,4.017,0,0,0-.92.211.919.919,0,0,0-.416.343.934.934,0,0,0,.173,1.2,1.37,1.37,0,0,0,.934.281,2.179,2.179,0,0,0,1.084-.266,1.644,1.644,0,0,0,.7-.73,2.55,2.55,0,0,0,.17-1.054Z"/><path class="cls-5" d="M57.048,81.857l1.037.134a2.687,2.687,0,0,1-.87,1.679,2.535,2.535,0,0,1-1.719.607,2.673,2.673,0,0,1-2.054-.835,3.388,3.388,0,0,1-.776-2.394A4.327,4.327,0,0,1,53,79.284a2.318,2.318,0,0,1,1.016-1.133,3.015,3.015,0,0,1,1.485-.378,2.589,2.589,0,0,1,1.659.512,2.354,2.354,0,0,1,.826,1.456L56.96,79.9a1.7,1.7,0,0,0-.518-.944,1.342,1.342,0,0,0-.9-.316,1.635,1.635,0,0,0-1.294.571,2.712,2.712,0,0,0-.5,1.808,2.8,2.8,0,0,0,.48,1.822,1.562,1.562,0,0,0,1.254.568,1.477,1.477,0,0,0,1.037-.381A1.887,1.887,0,0,0,57.048,81.857Z"/><path class="cls-5" d="M61.291,83.193l.152.931a3.884,3.884,0,0,1-.8.094,1.806,1.806,0,0,1-.891-.182,1.016,1.016,0,0,1-.445-.477,3.779,3.779,0,0,1-.129-1.245v-3.58h-.773v-.821h.773V76.372l1.049-.633v2.174h1.061v.821H60.23v3.638a1.837,1.837,0,0,0,.056.58.433.433,0,0,0,.181.2.7.7,0,0,0,.361.077A3.5,3.5,0,0,0,61.291,83.193Z"/><path class="cls-5" d="M62.328,76.759V75.546h1.054v1.213Zm0,7.377V77.913h1.054v6.223Z"/><path class="cls-5" d="M64.6,81.025a3.21,3.21,0,0,1,.961-2.561,2.9,2.9,0,0,1,1.957-.691,2.793,2.793,0,0,1,2.1.84,3.2,3.2,0,0,1,.814,2.324,4.119,4.119,0,0,1-.36,1.889,2.552,2.552,0,0,1-1.049,1.07,3.053,3.053,0,0,1-1.5.381,2.8,2.8,0,0,1-2.112-.838A3.349,3.349,0,0,1,64.6,81.025Zm1.084,0a2.651,2.651,0,0,0,.522,1.79,1.738,1.738,0,0,0,2.619,0,2.719,2.719,0,0,0,.521-1.823,2.571,2.571,0,0,0-.524-1.749,1.74,1.74,0,0,0-2.616,0A2.64,2.64,0,0,0,65.679,81.025Z"/><path class="cls-5" d="M71.662,84.136V77.913h.949V78.8a2.235,2.235,0,0,1,1.98-1.025,2.592,2.592,0,0,1,1.034.2,1.631,1.631,0,0,1,.707.53,2.053,2.053,0,0,1,.328.779,6.072,6.072,0,0,1,.058,1.026v3.826H75.664V80.351a2.842,2.842,0,0,0-.123-.964,1.02,1.02,0,0,0-.437-.51,1.387,1.387,0,0,0-.735-.19,1.707,1.707,0,0,0-1.163.427,2.109,2.109,0,0,0-.49,1.623v3.4Z"/><path class="cls-5" d="M81.476,84.652,82.5,84.8a.978.978,0,0,0,.358.691,1.751,1.751,0,0,0,1.072.293,1.88,1.88,0,0,0,1.131-.293,1.438,1.438,0,0,0,.539-.82,6.713,6.713,0,0,0,.076-1.354,2.169,2.169,0,0,1-1.722.815,2.35,2.35,0,0,1-1.987-.926,3.569,3.569,0,0,1-.7-2.221,4.148,4.148,0,0,1,.322-1.643,2.579,2.579,0,0,1,.935-1.163,2.519,2.519,0,0,1,1.438-.41,2.23,2.23,0,0,1,1.817.89v-.75h.973v5.379a5.11,5.11,0,0,1-.3,2.06,2.172,2.172,0,0,1-.938.958,3.254,3.254,0,0,1-1.579.351,2.979,2.979,0,0,1-1.8-.5A1.693,1.693,0,0,1,81.476,84.652Zm.873-3.739a2.7,2.7,0,0,0,.486,1.787,1.6,1.6,0,0,0,2.438,0,2.612,2.612,0,0,0,.492-1.755,2.549,2.549,0,0,0-.507-1.722,1.566,1.566,0,0,0-1.221-.58,1.522,1.522,0,0,0-1.2.571A2.537,2.537,0,0,0,82.349,80.913Z"/><path class="cls-5" d="M88.332,84.136V77.913h.949v.944a2.56,2.56,0,0,1,.671-.873,1.166,1.166,0,0,1,.676-.211,2.059,2.059,0,0,1,1.084.339l-.363.979a1.514,1.514,0,0,0-.773-.229,1.006,1.006,0,0,0-.621.208,1.128,1.128,0,0,0-.393.578,4.112,4.112,0,0,0-.176,1.23v3.258Z"/><path class="cls-5" d="M96.4,83.368a3.921,3.921,0,0,1-1.128.7,3.252,3.252,0,0,1-1.163.206,2.261,2.261,0,0,1-1.576-.5,1.655,1.655,0,0,1-.551-1.281,1.733,1.733,0,0,1,.753-1.441,2.554,2.554,0,0,1,.759-.346,7.513,7.513,0,0,1,.937-.158,9.715,9.715,0,0,0,1.881-.363q.006-.217.006-.276a1.166,1.166,0,0,0-.3-.908,1.766,1.766,0,0,0-1.2-.357,1.872,1.872,0,0,0-1.1.26,1.6,1.6,0,0,0-.524.923l-1.031-.14a2.558,2.558,0,0,1,.462-1.07,2.04,2.04,0,0,1,.932-.627,4.167,4.167,0,0,1,1.412-.219,3.74,3.74,0,0,1,1.3.187,1.709,1.709,0,0,1,.733.472,1.666,1.666,0,0,1,.328.718,5.964,5.964,0,0,1,.052.972v1.406a14.87,14.87,0,0,0,.068,1.861,2.363,2.363,0,0,0,.266.747h-1.1A2.221,2.221,0,0,1,96.4,83.368Zm-.088-2.355a7.736,7.736,0,0,1-1.723.4,4.031,4.031,0,0,0-.92.211.925.925,0,0,0-.416.343.934.934,0,0,0,.173,1.2,1.373,1.373,0,0,0,.935.281,2.185,2.185,0,0,0,1.084-.266,1.641,1.641,0,0,0,.7-.73,2.55,2.55,0,0,0,.17-1.054Z"/><path class="cls-5" d="M101.316,83.193l.152.931a3.876,3.876,0,0,1-.8.094,1.8,1.8,0,0,1-.89-.182,1.018,1.018,0,0,1-.446-.477,3.817,3.817,0,0,1-.128-1.245v-3.58h-.774v-.821h.774V76.372l1.048-.633v2.174h1.061v.821h-1.061v3.638a1.837,1.837,0,0,0,.056.58.435.435,0,0,0,.182.2.7.7,0,0,0,.36.077A3.487,3.487,0,0,0,101.316,83.193Z"/><path class="cls-5" d="M102.353,76.759V75.546h1.055v1.213Zm0,7.377V77.913h1.055v6.223Z"/><path class="cls-5" d="M105.013,84.136V77.913h.949V78.8a2.237,2.237,0,0,1,1.981-1.025,2.592,2.592,0,0,1,1.034.2,1.621,1.621,0,0,1,.706.53,2.037,2.037,0,0,1,.328.779,6.042,6.042,0,0,1,.059,1.026v3.826h-1.055V80.351a2.842,2.842,0,0,0-.123-.964,1.013,1.013,0,0,0-.436-.51,1.391,1.391,0,0,0-.736-.19,1.709,1.709,0,0,0-1.163.427,2.113,2.113,0,0,0-.489,1.623v3.4Z"/><path class="cls-5" d="M111.494,84.652l1.025.152a.977.977,0,0,0,.357.691,1.754,1.754,0,0,0,1.073.293,1.88,1.88,0,0,0,1.131-.293,1.443,1.443,0,0,0,.539-.82,6.791,6.791,0,0,0,.076-1.354,2.17,2.17,0,0,1-1.723.815,2.349,2.349,0,0,1-1.986-.926,3.563,3.563,0,0,1-.7-2.221,4.13,4.13,0,0,1,.322-1.643,2.572,2.572,0,0,1,.935-1.163,2.517,2.517,0,0,1,1.438-.41,2.228,2.228,0,0,1,1.816.89v-.75h.973v5.379a5.11,5.11,0,0,1-.3,2.06,2.17,2.17,0,0,1-.937.958,3.254,3.254,0,0,1-1.579.351,2.976,2.976,0,0,1-1.8-.5A1.693,1.693,0,0,1,111.494,84.652Zm.873-3.739a2.7,2.7,0,0,0,.486,1.787,1.544,1.544,0,0,0,1.219.563,1.562,1.562,0,0,0,1.219-.56,2.612,2.612,0,0,0,.492-1.755,2.549,2.549,0,0,0-.507-1.722,1.566,1.566,0,0,0-1.222-.58,1.521,1.521,0,0,0-1.2.571A2.537,2.537,0,0,0,112.367,80.913Z"/></svg>