<svg id="レイヤー_1" data-name="レイヤー 1" xmlns="http://www.w3.org/2000/svg" viewBox="0 0 376 200"><defs><style>.cls-1{fill:#8dbfff;}.cls-2{fill:none;}.cls-2,.cls-3{stroke:#0000a0;stroke-miterlimit:10;}.cls-3{fill:#6d92ff;}.cls-4{fill:red;}.cls-5{fill:#0040a7;}</style></defs><path class="cls-1" d="M361.761,23.937v21.02H336.309V23.937H309.344v21.02H282.378V23.937H255.413v21.02H228.448V23.937H201.483c-2.357,6.722-7.011,12.567-9.374,10.51-1.991-1.733-4.109-5.012-8.87-3.447-2.9.953-6.343-4.3-8.722-7.063H147.552v21.02H120.587V23.937H93.622v21.02H66.657V23.937H39.691v21.02H12.726V23.937H0V67.642H376v-43.7Z"/><path class="cls-1" d="M363.274,114.358V93.339H336.309v21.019H309.344V93.339H282.378v21.019H255.413V93.339H228.448v21.019H201.483V93.339H190.84c-3.063,3.952-5.695,7.111-7.144,8.27-1.229.983-5.16,2.042-9.179,3.217v9.532H147.552V93.339H120.587v21.019H93.622V93.339H66.656v21.019H39.691V93.339H12.726v21.019H0v22.685H376V114.358Z"/><path class="cls-2" d="M376,114.358H363.274V93.339H336.309v21.019H309.344V93.339H282.378v21.019H255.413V93.339H228.448v21.019H201.483V93.339H190.84c-3.063,3.952-5.695,7.111-7.144,8.27-1.229.983-5.16,2.042-9.179,3.217v9.532H147.552V93.339H120.587v21.019H93.622V93.339H66.656v21.019H39.691V93.339H12.726v21.019H0"/><polygon class="cls-1" points="336.309 177.315 336.309 156.296 309.344 156.296 309.344 177.315 282.378 177.315 282.378 156.296 255.413 156.296 255.413 177.315 228.448 177.315 228.448 156.296 201.483 156.296 201.483 177.315 174.517 177.315 174.517 156.296 147.552 156.296 147.552 177.315 120.587 177.315 120.587 156.296 93.622 156.296 93.622 177.315 66.657 177.315 66.657 156.296 39.691 156.296 39.691 177.315 12.726 177.315 12.726 156.296 0 156.296 0 200 376 200 376 156.296 361.761 156.296 361.761 177.315 336.309 177.315"/><polyline class="cls-2" points="376 156.296 361.761 156.296 361.761 177.315 336.309 177.315 336.309 156.296 309.344 156.296 309.344 177.315 282.378 177.315 282.378 156.296 255.413 156.296 255.413 177.315 228.448 177.315 228.448 156.296 201.483 156.296 201.483 177.315 174.517 177.315 174.517 156.296 147.552 156.296 147.552 177.315 120.587 177.315 120.587 156.296 93.622 156.296 93.622 177.315 66.657 177.315 66.657 156.296 39.691 156.296 39.691 177.315 12.726 177.315 12.726 156.296 0 156.296"/><path class="cls-2" d="M376,23.937H361.761v21.02H336.309V23.937H309.344v21.02H282.378V23.937H255.413v21.02H228.448V23.937H201.483c-2.357,6.722-7.011,12.567-9.374,10.51-1.991-1.733-4.109-5.012-8.87-3.447-2.9.953-6.343-4.3-8.722-7.063H147.552v21.02H120.587V23.937H93.622v21.02H66.657V23.937H39.691v21.02H12.726V23.937H0"/><path class="cls-3" d="M175.109,171.667c2.044-1.415,6.546-1.2,7.1,2.346.5,3.257,1.739,6.053-.3,7.468s-4.261-.666-7.1-2.347C169.156,175.786,173.065,173.081,175.109,171.667Z"/><path class="cls-4" d="M86.219,6.3c0,1.319.851,4.161,4.809,5.385a8.952,8.952,0,0,0-.791,1.055,7.161,7.161,0,0,1-4.654-4.569,7.345,7.345,0,0,1-4.677,4.581,5.208,5.208,0,0,0-.768-.983c3.886-1.248,4.8-4.09,4.8-5.457V4.85H82.945A12.372,12.372,0,0,1,81.17,7.716a7.559,7.559,0,0,0-1.092-.743,11.7,11.7,0,0,0,2.687-5.338l1.247.264a18.445,18.445,0,0,1-.6,1.847h6.356l.216-.059.9.3a18.521,18.521,0,0,1-1.643,3.886l-1.007-.444A13.713,13.713,0,0,0,89.313,4.85H86.219Z"/><path class="cls-4" d="M96.12,2.643c-.336,1.007-.755,2.254-1.139,3.19a3.634,3.634,0,0,1,1,2.495,1.657,1.657,0,0,1-.492,1.427,1.605,1.605,0,0,1-.647.24,5.69,5.69,0,0,1-.792.012,2.179,2.179,0,0,0-.264-.96,3.743,3.743,0,0,0,.612.013.654.654,0,0,0,.372-.108c.168-.12.216-.409.216-.756a3.287,3.287,0,0,0-.972-2.243c.3-.8.612-1.871.84-2.686H93.565v9.5h-.983V2.259h2.639l.168-.036Zm6.609,3.514v6.56h-1.044V12.2H99.479v.551H98.471v-6.6h1.619c-.18-.144-.4-.288-.54-.384a9.5,9.5,0,0,0,1.223-2H98.507A10.757,10.757,0,0,1,96.9,6.121h.66v6.632H96.552V6.133a6.083,6.083,0,0,0-.732-.468,9.1,9.1,0,0,0,2.387-3.922L99.262,2c-.095.288-.2.576-.324.852h2.268l.191-.06.72.408a10.783,10.783,0,0,1-1.631,2.962Zm-3.25.959v1.56h2.206V7.116Zm2.206,4.138V9.611H99.479v1.643Z"/><path class="cls-4" d="M114.608,2.211V12.765h-1.2v-.647h-7.663v.647h-1.152V2.211Zm-1.2,8.863V3.351h-7.663v7.723Zm-1.487-6.08V9.4H107.2v-4.4Zm-1.115.983h-2.555V8.424h2.555Z"/><path class="cls-4" d="M118.861,8.28v3.226c0,.576-.12.875-.48,1.056a4.242,4.242,0,0,1-1.679.179,3.81,3.81,0,0,0-.312-1.019c.5.024,1,.024,1.152.012s.228-.048.228-.228V8.592l-1.524.431-.276-1.091c.5-.108,1.128-.264,1.8-.444V5.114h-1.62V4.082h1.62V1.755h1.091V4.082h1.283V5.114h-1.283V7.188c.431-.12.875-.239,1.307-.372l.144,1.044ZM127.1,6.816h-1.859v5.937h-1.1V6.816h-2.075c-.024,1.811-.288,4.247-1.847,5.89a2.525,2.525,0,0,0-.816-.78c1.4-1.547,1.548-3.706,1.548-5.409V2.655l1.031.156a23.526,23.526,0,0,0,3.9-.959l.839.887a25.369,25.369,0,0,1-4.653,1.007v2H127.1Z"/><path class="cls-4" d="M138.309,3.3a8.667,8.667,0,0,1-1.871,3.154,8.244,8.244,0,0,0,2.854,1.475,4.818,4.818,0,0,0-.695.936c-.132-.049-.264-.1-.4-.157v4.018h-1.079V12.3h-2.963v.467h-1.032V8.808c-.263.119-.527.227-.8.323a4.117,4.117,0,0,0-.636-.9l.072-.024c-.179-.336-.491-.816-.779-1.248v5.793h-1.043V7.572A11.653,11.653,0,0,1,128.51,10.6a4.673,4.673,0,0,0-.54-1,12.654,12.654,0,0,0,1.86-4.306h-1.584V4.262h1.692V1.755h1.043V4.262h1.463V4.91a8.825,8.825,0,0,0,2.075-3.167l1.067.288a10.609,10.609,0,0,1-.456,1h2.279l.2-.048Zm-6.321,4.833a9.445,9.445,0,0,0,2.95-1.691,9.285,9.285,0,0,1-1.091-1.451,10.519,10.519,0,0,1-1.055,1.115,5.847,5.847,0,0,0-.864-.744l.084-.072h-1.031V5.7c.324.348,1.259,1.5,1.487,1.775Zm5.481.24a9.053,9.053,0,0,1-1.775-1.2,9.959,9.959,0,0,1-1.715,1.2Zm-.347,2.95v-2h-2.963v2Zm-2.543-7.34-.108.168a7.179,7.179,0,0,0,1.2,1.607,7.559,7.559,0,0,0,1.235-1.775Z"/><path class="cls-4" d="M151.028,8.124H146.2V11.4c0,.684-.168,1.008-.672,1.2a8.324,8.324,0,0,1-2.41.192,4.688,4.688,0,0,0-.48-1.152c.9.036,1.8.024,2.075.024.251-.012.324-.072.324-.276V8.124h-4.845V7.008h4.845V5.1h.647a13.977,13.977,0,0,0,2.111-1.464h-6.368V2.547h7.543l.252-.072.84.636a17.983,17.983,0,0,1-3.862,2.9v1h4.833Z"/><path class="cls-4" d="M156.8,3.243c-.072.371-.18.947-.288,1.511.492-.048.923-.072,1.2-.072,1.163,0,2.039.467,2.039,2.147a11.6,11.6,0,0,1-.684,4.353,1.763,1.763,0,0,1-1.846,1.044,6.748,6.748,0,0,1-1.428-.168l-.192-1.247a6.3,6.3,0,0,0,1.463.239.94.94,0,0,0,.984-.575,9.748,9.748,0,0,0,.54-3.515c0-1.031-.468-1.211-1.223-1.211-.252,0-.648.024-1.1.072a25.028,25.028,0,0,1-2.483,6.452l-1.235-.491a19.025,19.025,0,0,0,2.5-5.841c-.552.06-1.044.12-1.319.156-.3.036-.852.108-1.188.168l-.12-1.295c.408.024.756.011,1.164,0,.383-.012,1.031-.06,1.714-.12a13.324,13.324,0,0,0,.276-2.579l1.4.144C156.912,2.667,156.852,2.979,156.8,3.243Zm6.452,4.749-1.187.551a14.326,14.326,0,0,0-2.075-4.437l1.115-.48A20.74,20.74,0,0,1,163.256,7.992Z"/><path class="cls-4" d="M167.017,7.716a5.774,5.774,0,0,1,3.742-1.331c1.955,0,3.178,1.187,3.178,2.615,0,2.158-1.823,3.717-6.513,3.322l-.359-1.236c3.706.468,5.577-.527,5.577-2.11,0-.888-.828-1.524-1.979-1.524a4.5,4.5,0,0,0-3.538,1.524,2.422,2.422,0,0,0-.408.635l-1.1-.264a44.707,44.707,0,0,0,.612-4.929l1.272.168C167.329,5.341,167.125,6.984,167.017,7.716Zm5.3-4.486-.276,1.164c-1.175-.156-3.814-.707-4.737-.948l.3-1.139A34.978,34.978,0,0,0,172.318,3.23Z"/><path class="cls-4" d="M182.063,12.273l-.708-1.127a7.547,7.547,0,0,0,1.068-.167,3.451,3.451,0,0,0,2.9-3.407,3.188,3.188,0,0,0-2.9-3.346,23.84,23.84,0,0,1-.72,3.37c-.72,2.447-1.715,3.8-2.9,3.8s-2.279-1.319-2.279-3.322a5.2,5.2,0,0,1,5.361-4.989,4.439,4.439,0,0,1,4.7,4.521C186.585,10.127,184.978,11.854,182.063,12.273Zm-3.226-2.3c.539,0,1.1-.78,1.655-2.627a18.952,18.952,0,0,0,.659-3.094,4.01,4.01,0,0,0-3.418,3.706C177.733,9.335,178.321,9.971,178.837,9.971Z"/><path class="cls-4" d="M198.608,2.211V12.765h-1.2v-.647h-7.664v.647h-1.151V2.211Zm-1.2,8.863V3.351h-7.664v7.723Zm-1.487-6.08V9.4H191.2v-4.4Zm-1.115.983h-2.555V8.424h2.555Z"/><path class="cls-4" d="M202.86,8.28v3.226c0,.576-.119.875-.479,1.056a4.242,4.242,0,0,1-1.679.179,3.843,3.843,0,0,0-.311-1.019c.5.024,1,.024,1.151.012s.228-.048.228-.228V8.592l-1.524.431-.275-1.091c.5-.108,1.127-.264,1.8-.444V5.114h-1.62V4.082h1.62V1.755h1.09V4.082h1.285V5.114H202.86V7.188c.433-.12.876-.239,1.308-.372l.145,1.044ZM211.1,6.816h-1.86v5.937h-1.1V6.816h-2.075c-.024,1.811-.288,4.247-1.847,5.89a2.535,2.535,0,0,0-.816-.78c1.4-1.547,1.547-3.706,1.547-5.409V2.655l1.032.156a23.5,23.5,0,0,0,3.9-.959l.84.887a25.38,25.38,0,0,1-4.654,1.007v2H211.1Z"/><path class="cls-4" d="M218.986,7.26a1.391,1.391,0,1,1-1.39-1.391A1.391,1.391,0,0,1,218.986,7.26Z"/><path class="cls-4" d="M234.309,4.994a13.9,13.9,0,0,1-1.295,4.641,5.747,5.747,0,0,0,2.182,2.171,4.293,4.293,0,0,0-.779.959,6.322,6.322,0,0,1-2.039-2.1,7.324,7.324,0,0,1-2.423,2.123,4.547,4.547,0,0,0-.636-.96.763.763,0,0,1-.42.755,3.913,3.913,0,0,1-1.522.168,2.976,2.976,0,0,0-.313-.923c.457.024.913.012,1.032.012s.18-.048.18-.18v-.828h-2.35v1.919h-1.032V6.937h4.425v4.881A6.269,6.269,0,0,0,231.8,9.575a14.719,14.719,0,0,1-.936-2.878,8.182,8.182,0,0,1-.7,1.3,6.607,6.607,0,0,0-.743-.959,5.529,5.529,0,0,0,.443-.78H224.1V5.317h1.319V4.07h-1.14V3.135h1.14V1.875h1.019v1.26h1.32V1.875h1.031v1.26h1.151V4.07h-1.151V5.317h1.139v.816a15.381,15.381,0,0,0,1.1-4.378l1.092.156c-.108.7-.216,1.38-.372,2.039H235.1V4.994ZM225.926,7.8v.684h2.35V7.8Zm2.35,2.195V9.3h-2.35v.7Zm-1.835-4.678h1.32V4.07h-1.32Zm5.025-.287A15.884,15.884,0,0,0,232.4,8.4a13.744,13.744,0,0,0,.8-3.406h-1.726Z"/><path class="cls-4" d="M239.809,5.065h2.53V6.073h-2.53v1.8h2.1v4.545h-1.092v-.359h-3.1v.456h-1.044V7.872h2.063v-1.8h-2.651V5.065h2.651V3.435c-.732.107-1.463.179-2.159.252a4.1,4.1,0,0,0-.312-.888,25.615,25.615,0,0,0,5.038-.96l.839.864a16.906,16.906,0,0,1-2.326.551Zm1.006,3.8h-3.1v2.206h3.1Zm4.774,2.722c.4,0,.468-.444.528-2.219a2.977,2.977,0,0,0,1,.492c-.108,2.027-.359,2.759-1.426,2.759h-1.464c-1.1,0-1.4-.372-1.4-1.751V1.923h1.1v8.959c0,.612.06.708.456.708Z"/><path class="cls-4" d="M250.177,7.141a13.079,13.079,0,0,0-2.122-1.26l.623-.827a14.661,14.661,0,0,1,2.147,1.163Zm.96,1.667c-.528,1.247-1.211,2.686-1.824,3.814l-.983-.672a35.669,35.669,0,0,0,1.955-3.814ZM250.789,4a14,14,0,0,0-2.063-1.331l.635-.8A14.525,14.525,0,0,1,251.448,3.1Zm7.5,2.627a9.07,9.07,0,0,1-1.931,3.79,7.721,7.721,0,0,0,2.806,1.391,3.746,3.746,0,0,0-.72.959,8.4,8.4,0,0,1-2.866-1.583,8.568,8.568,0,0,1-2.722,1.608,4.472,4.472,0,0,0-.707-.936,8.188,8.188,0,0,0,2.673-1.427,9.7,9.7,0,0,1-1.8-3.083H252.9a10.011,10.011,0,0,1-1.487,5.409,3.68,3.68,0,0,0-.947-.551c1.26-1.667,1.38-4.042,1.38-5.769V3.411h2.818V1.755h1.091V3.411h2.327l.191-.036.8.2a16.331,16.331,0,0,1-1,2.458l-.947-.276c.155-.347.335-.827.5-1.307h-1.883V6.361h1.619l.216-.048Zm-5.373-2.171V6.361h1.751V4.454Zm1.163,2.89a7.753,7.753,0,0,0,1.488,2.339,7.069,7.069,0,0,0,1.367-2.339Z"/><path class="cls-4" d="M264.936,3.566a27.474,27.474,0,0,0,3.526-.347V4.334a37.039,37.039,0,0,1-3.946.312,9.658,9.658,0,0,1-.923,1.583,3.517,3.517,0,0,1,1.535-.36,1.577,1.577,0,0,1,1.606,1.02c.745-.348,1.356-.6,1.919-.864.409-.18.756-.336,1.14-.527l.492,1.1c-.348.107-.864.3-1.223.443-.612.24-1.392.552-2.231.936.012.684.023,1.643.035,2.219h-1.138c.023-.42.036-1.1.047-1.691-1.031.563-1.679,1.115-1.679,1.823,0,.815.78.983,1.991.983A20.4,20.4,0,0,0,269.421,11l-.035,1.212a30.555,30.555,0,0,1-3.335.216c-1.787,0-3.178-.42-3.178-1.908s1.44-2.41,2.83-3.118a.964.964,0,0,0-.983-.6,3.053,3.053,0,0,0-1.991.863,12.919,12.919,0,0,0-1.091,1.284l-1.032-.768a12.023,12.023,0,0,0,2.71-3.5h-.347c-.5,0-1.331-.024-2-.072V3.482a15.326,15.326,0,0,0,2.062.132c.229,0,.468,0,.708-.011a5.98,5.98,0,0,0,.277-1.428l1.247.1C265.188,2.607,265.092,3.051,264.936,3.566Z"/><path class="cls-4" d="M276.863,4.622h-4.785V3.734h4.785Zm-.491,7.483H273.6v.5h-.984V8.58h3.754Zm-3.73-6.74h3.766v.864h-3.766Zm0,1.595h3.766v.876h-3.766Zm3.778-3.933h-3.706V2.151h3.706ZM273.6,9.479v1.727h1.775V9.479Zm9.619-2.59H280.63v5.864H279.5V6.889h-2.674v-1.1H279.5V1.792h1.128V5.785h2.591Z"/><path class="cls-4" d="M294.944,10.787h-2.638v1.966h-1.152V10.787H288.18c-.312.755-1.127,1.475-3.01,1.99a4.116,4.116,0,0,0-.708-.827,4.175,4.175,0,0,0,2.423-1.163h-2.591v-.9h2.938V8.976H285.7V4.49h1.26a6.727,6.727,0,0,0-.528-1h-.468a7.866,7.866,0,0,1-1.055,1.235,6.324,6.324,0,0,0-.9-.624,6.589,6.589,0,0,0,1.8-2.411l1.031.276c-.1.216-.2.408-.312.624h2.9v.876A5.467,5.467,0,0,0,290.519,1.7l1.08.241a6.861,6.861,0,0,1-.3.659h3.573v.9h-2.038a6.77,6.77,0,0,1,.479.659l-.731.336h1.151V8.976h-1.427v.911h2.638Zm-8.119-5.026h5.733V5.2h-5.733Zm0,1.247h5.733V6.421h-5.733Zm0,1.272h5.733v-.6h-5.733Zm.743-4.785a6.3,6.3,0,0,1,.4.719l-.755.276H289.7a6.251,6.251,0,0,0-.863-.468A2.941,2.941,0,0,0,289.4,3.5Zm3.586,6.392V8.976H288.36v.911ZM290.747,3.5a5.867,5.867,0,0,1-.84,1h2.4a6.546,6.546,0,0,0-.72-1Z"/><path class="cls-5" d="M153.532,53.12c-.264.455-.564.9-.876,1.355v7.892h-.851V55.542a15.664,15.664,0,0,1-4.426,3.586,7.523,7.523,0,0,0-.551-.683,14.249,14.249,0,0,0,5.7-5.325h-5.409v-.8H157.37v.8Zm.024,2.063a26.76,26.76,0,0,1,4.126,3.154l-.624.6a26.92,26.92,0,0,0-4.09-3.239Z"/><path class="cls-5" d="M168.3,61.431c.468,0,.552-.216.588-1.607a3.058,3.058,0,0,0,.732.312c-.1,1.619-.324,2.027-1.26,2.027h-1.895c-1.043,0-1.331-.24-1.331-1.128V57.893h-2.195c-.264,2.2-1.007,3.73-3.754,4.5a2.436,2.436,0,0,0-.479-.66c2.554-.636,3.166-1.967,3.394-3.838h-3.143v-.756H169.5v.756h-3.573v3.13c0,.348.095.408.611.408Zm-8.251-6.213h-.8V52.772h4.558V51.464h.815v1.308h4.606v2.446H168.4v-1.7h-8.347Zm.923.444v-.731H167.5v.731Z"/><path class="cls-5" d="M176.536,51.44a15.642,15.642,0,0,0,5.23,4.486,4.175,4.175,0,0,0-.54.7,18.243,18.243,0,0,1-5.038-4.39,16.02,16.02,0,0,1-4.941,4.462,2.326,2.326,0,0,0-.492-.624,14.528,14.528,0,0,0,4.99-4.63Zm.072,9.871h4.738v.731H171.187v-.731h4.6V59.26h-3.621v-.719h3.621V56.586h-3.1v-.72h7.16v.72h-3.239v1.955h3.682v.719h-3.682Z"/><path class="cls-5" d="M187.121,53.887a11.358,11.358,0,0,0,1.932-.455l.023.8a15.609,15.609,0,0,1-2.207.432,21.462,21.462,0,0,1-2.615,5.073l-.827-.432a16.721,16.721,0,0,0,2.579-4.545c-.372.036-.756.048-1.128.048-.443,0-.947-.012-1.391-.036l-.06-.8a13.342,13.342,0,0,0,1.451.072c.444,0,.912-.012,1.392-.06a8.8,8.8,0,0,0,.4-2.087l.947.084C187.493,52.424,187.325,53.18,187.121,53.887Zm3.3,3.047c.012.467.059,1.283.1,2.038a8.24,8.24,0,0,1,2.494,1.487l-.468.732a8.413,8.413,0,0,0-2-1.4c.013.228.013.42.013.576,0,.935-.613,1.691-2.051,1.691-1.3,0-2.352-.5-2.352-1.68,0-1.091,1.056-1.75,2.352-1.75a5.9,5.9,0,0,1,1.235.131c-.048-.995-.108-2.206-.132-3.07h.839A10.884,10.884,0,0,0,190.42,56.934Zm-2.027,4.353c1.031,0,1.378-.539,1.378-1.187,0-.168,0-.372-.011-.6a4.421,4.421,0,0,0-1.284-.192c-.911,0-1.535.432-1.535,1.007S187.409,61.287,188.393,61.287Zm1.787-6.98.431-.648a16,16,0,0,1,2.771,1.583l-.48.7A14.7,14.7,0,0,0,190.18,54.307Z"/><path class="cls-5" d="M204.818,52.952a8.7,8.7,0,0,1-1.955,3.142,8.582,8.582,0,0,0,3.034,1.643,3.394,3.394,0,0,0-.491.659c-.216-.071-.42-.155-.624-.239v4.186h-.756v-.5h-3.49v.552h-.743V58.265c-.324.144-.659.288-1,.407a2.054,2.054,0,0,0-.456-.647,9.749,9.749,0,0,0,3.454-1.943,8.674,8.674,0,0,1-1.308-1.775,10.111,10.111,0,0,1-1.235,1.331,5.623,5.623,0,0,0-.636-.528c.133-.108.265-.215.4-.335H197.5v.611c.348.384,1.3,1.548,1.523,1.835l-.492.624c-.191-.348-.647-1.019-1.031-1.547v6.056h-.768V56.5a13.047,13.047,0,0,1-1.667,3.6,5.075,5.075,0,0,0-.431-.7,13.4,13.4,0,0,0,2.014-4.629h-1.738v-.732h1.822v-2.59h.768v2.59h1.583v.66a9,9,0,0,0,2.147-3.263l.768.205c-.156.371-.324.743-.516,1.1h2.7l.143-.036Zm-.324,5.073a9.4,9.4,0,0,1-2.158-1.427,10.9,10.9,0,0,1-2.075,1.427Zm-.468,3.106v-2.41h-3.49v2.41Zm-3.093-7.448a7.531,7.531,0,0,0,1.39,1.907,8.045,8.045,0,0,0,1.488-2.134h-2.735Z"/><path class="cls-5" d="M217.646,57.593h-4.977v3.73c0,.564-.145.8-.576.936a9.922,9.922,0,0,1-2.351.143,3.364,3.364,0,0,0-.336-.815c.984.036,1.871.036,2.123.024s.336-.072.336-.3V57.593h-5v-.78h5v-1.93h.491a15.055,15.055,0,0,0,2.664-1.8h-6.933V52.3h7.76l.192-.036.587.444a17.854,17.854,0,0,1-3.957,2.842v1.259h4.977Z"/><path class="cls-5" d="M220.818,56.61a8.361,8.361,0,0,0-2.05-1.272l.444-.588a9.2,9.2,0,0,1,2.062,1.2Zm.852,1.7c-.539,1.271-1.259,2.794-1.883,3.91l-.695-.492a36.669,36.669,0,0,0,1.955-3.886Zm-.264-4.8a8.876,8.876,0,0,0-2.027-1.356l.444-.576a8.492,8.492,0,0,1,2.051,1.3Zm8.323,6.932h-1.006v1.079c0,.408-.084.612-.409.732a6.52,6.52,0,0,1-1.762.095,3.527,3.527,0,0,0-.265-.635c.649.024,1.284.024,1.452.012s.24-.048.24-.2V60.448h-4.545v1.9H222.7v-1.9h-1.138v-.66H222.7V56.729h2.555V56.01h-3.55v-.659h2.147v-.864h-1.391v-.6h1.391v-.839h-1.715v-.612h1.715v-.983h.755v.983h2.112v-.983h.755v.983H229.3v.612h-1.823v.839h1.571v.6h-1.571v.864h2.159v.659h-3.622v.719h2.711v3.059h1.006Zm-6.3-3.119v.912h1.822v-.912Zm0,2.459h1.822V58.84h-1.822Zm1.174-5.9h2.112v-.839h-2.112Zm0,1.464h2.112v-.864h-2.112Zm1.4,1.978v.912h1.967v-.912Zm1.967,2.459V58.84h-1.967v.948Z"/><path class="cls-5" d="M165.231,125.341c0,1.128.707,4.4,4.941,5.745a6.524,6.524,0,0,0-.54.744,7.147,7.147,0,0,1-4.845-5.025,7.256,7.256,0,0,1-4.846,5.025,4.54,4.54,0,0,0-.551-.684c4.222-1.4,4.953-4.618,4.953-5.8v-1.559h-2.35a11.666,11.666,0,0,1-1.895,2.975,4.515,4.515,0,0,0-.756-.5,12.445,12.445,0,0,0,2.806-5.434l.864.181a20.379,20.379,0,0,1-.672,1.99h6.9l.157-.036.635.229A18.437,18.437,0,0,1,168.4,126.9l-.72-.336a13.408,13.408,0,0,0,1.236-2.782h-3.682Z"/><path class="cls-5" d="M173.621,122.547a15.663,15.663,0,0,0-.324,6.5c.168-.527.42-1.283.647-1.906l.48.275c-.276.8-.647,2.027-.779,2.614a2.019,2.019,0,0,0-.048.529c.012.107.024.263.036.383l-.72.1a13.4,13.4,0,0,1-.623-3.79,32.1,32.1,0,0,1,.467-4.785c.036-.264.048-.564.06-.768l1,.108C173.752,122.007,173.668,122.319,173.621,122.547Zm6.236-.24c-.012.263.012,1.1.024,1.859a13.054,13.054,0,0,0,1.979-.288v.876a19.584,19.584,0,0,1-1.967.227v.4c0,2.747.036,4.75-2.53,6.236l-.78-.611a3.909,3.909,0,0,0,1.115-.707c1.356-1.151,1.392-2.555,1.392-4.918v-.348c-.516.025-1.044.036-1.548.036-.587,0-1.462-.036-1.966-.084v-.851a13.781,13.781,0,0,0,1.955.132c.5,0,1.019-.012,1.535-.036-.012-.768-.048-1.607-.072-1.907a4.74,4.74,0,0,0-.108-.7h1.007A5.607,5.607,0,0,0,179.857,122.307Z"/><path class="cls-5" d="M187.839,122.451c-.06.287-.119.612-.192.971a18.1,18.1,0,0,0,2.363-.432v.84a20.984,20.984,0,0,1-2.531.408c-.119.528-.251,1.091-.4,1.618a35.66,35.66,0,0,1-1.859,5.482l-.948-.324a25.233,25.233,0,0,0,2-5.361c.108-.408.228-.876.336-1.343-.42.036-.815.047-1.175.047-.516,0-.936-.011-1.379-.047l-.024-.828a10.466,10.466,0,0,0,1.427.084c.408,0,.851-.024,1.319-.06.1-.455.168-.852.2-1.1a5.384,5.384,0,0,0,.036-.959l1.019.084C187.971,121.779,187.887,122.223,187.839,122.451Zm1.416,6.728c0,.576.323,1.151,2.1,1.151a11.4,11.4,0,0,0,2.326-.239l-.036.875a17.8,17.8,0,0,1-2.3.168c-1.859,0-2.89-.564-2.89-1.751a7.641,7.641,0,0,1,.18-1.379l.8.084A4.249,4.249,0,0,0,189.255,129.179Zm2.17-4.09a18.858,18.858,0,0,1,2.075.1l-.023.815a17.777,17.777,0,0,0-2.016-.132,19.4,19.4,0,0,0-2.206.12v-.8C189.878,125.125,190.67,125.089,191.425,125.089Z"/><path class="cls-5" d="M205.38,122.415a8.706,8.706,0,0,1-1.955,3.142,8.563,8.563,0,0,0,3.035,1.643,3.4,3.4,0,0,0-.492.659c-.216-.071-.42-.155-.624-.239v4.186h-.755v-.5H201.1v.552h-.745v-4.126c-.323.144-.659.288-1,.408a2.047,2.047,0,0,0-.456-.648,9.724,9.724,0,0,0,3.454-1.943,8.62,8.62,0,0,1-1.306-1.774,10.519,10.519,0,0,1-1.236,1.331,5.7,5.7,0,0,0-.635-.529c.132-.107.263-.216.395-.335h-1.511v.612c.348.383,1.3,1.546,1.523,1.835l-.491.624c-.193-.349-.648-1.02-1.032-1.548v6.056H197.3v-5.852a13.135,13.135,0,0,1-1.667,3.6,5.284,5.284,0,0,0-.432-.7,13.458,13.458,0,0,0,2.015-4.629h-1.739v-.732H197.3v-2.59h.767v2.59h1.583v.66a9,9,0,0,0,2.147-3.263l.768.2c-.156.372-.324.745-.516,1.1h2.7l.145-.036Zm-.323,5.073a9.376,9.376,0,0,1-2.16-1.427,10.809,10.809,0,0,1-2.075,1.427Zm-.468,3.107v-2.411H201.1V130.6Zm-3.095-7.449a7.556,7.556,0,0,0,1.392,1.908,8.062,8.062,0,0,0,1.487-2.135h-2.734Z"/><path class="cls-5" d="M218.208,127.057H213.23v3.729c0,.564-.143.8-.576.936a9.9,9.9,0,0,1-2.35.143,3.364,3.364,0,0,0-.336-.815c.984.036,1.871.036,2.123.024s.336-.072.336-.3v-3.717h-5v-.781h5v-1.93h.492a15,15,0,0,0,2.662-1.8h-6.932v-.779h7.76l.192-.037.587.444a17.9,17.9,0,0,1-3.958,2.843v1.258h4.978Z"/><path class="cls-5" d="M165.875,194.426v.707h-10.65v-.707h2.9v-1.451h-2.135v-.708h2.135v-1.2H156.4v-4.173h8.324v4.173h-1.752v1.2h2.195v.708h-2.195v1.451Zm-6.261,1.379a15.691,15.691,0,0,1-3.778,1.535,4.8,4.8,0,0,0-.515-.6,13.576,13.576,0,0,0,3.55-1.4Zm-2.447-7.136h2.951v-1.14h-2.951Zm0,1.763h2.951V189.28h-2.951Zm1.751,1.835h3.239v-1.2h-3.239Zm0,2.159h3.239v-1.451h-3.239Zm5-6.9h-3.034v1.14h3.034Zm0,1.751h-3.034v1.152h3.034Zm-1.835,6.045a29.635,29.635,0,0,1,3.742,1.44l-.66.575a25.687,25.687,0,0,0-3.6-1.475Z"/><path class="cls-5" d="M171.542,192.446l-1.547.5v4.39h-.744v-4.15c-.719.216-1.415.444-2.014.623l-.216-.767c.611-.168,1.391-.384,2.23-.635v-2.759h-1.139a10.78,10.78,0,0,1-.551,1.824,4.814,4.814,0,0,0-.612-.372,13.848,13.848,0,0,0,.851-4.006l.708.12c-.072.563-.156,1.127-.252,1.667h1v-2.459H170v2.459h1.283v.767H170v2.542l1.451-.443Zm6.333-4.006s0,.313-.012.42c-.288,5.457-.54,7.317-1.044,7.892a1,1,0,0,1-.8.444,10.594,10.594,0,0,1-1.368-.012,2.042,2.042,0,0,0-.227-.791c.563.047,1.055.059,1.283.059a.523.523,0,0,0,.468-.2c.384-.433.66-2.22.911-7.064h-.671c-.612,3.166-1.943,6.392-3.934,7.963a2.344,2.344,0,0,0-.672-.48c1.991-1.439,3.286-4.438,3.91-7.483h-1.068a11.677,11.677,0,0,1-2.974,5.48,2.807,2.807,0,0,0-.635-.468,10.389,10.389,0,0,0,2.926-5.012h-1.1a9.68,9.68,0,0,1-1.391,2.3,6.4,6.4,0,0,0-.612-.456,10.343,10.343,0,0,0,2.123-4.629l.732.144a17.449,17.449,0,0,1-.552,1.894Z"/><path class="cls-5" d="M182.931,193.682c-1.26.588-2.591,1.187-3.635,1.631l-.311-.792c.455-.167,1.031-.395,1.655-.659v-3.814h-1.475v-.756h1.475v-2.746h.743v2.746h1.38v.756h-1.38v3.5l1.38-.575Zm7.111,2.518v.744h-7.807V196.2h3.694v-1.726H183.17v-.732h2.759v-1.428h-2.6v-5.3h6.116v5.3h-2.673v1.428h2.877v.732h-2.877V196.2Zm-5.984-6.884h1.919v-1.607h-1.919Zm0,2.291h1.919v-1.619h-1.919Zm4.63-3.9h-1.967v1.607h1.967Zm0,2.279h-1.967v1.619h1.967Z"/><path class="cls-5" d="M198.313,188.057c-.06.288-.132.576-.2.876a3.721,3.721,0,0,1,3.25,3.826c0,2.362-1.69,3.813-4.281,4.174l-.491-.756c2.482-.229,3.934-1.535,3.934-3.454a3,3,0,0,0-2.616-3.059,15.707,15.707,0,0,1-1.774,4.126,6.753,6.753,0,0,0,.756.875l-.672.552a9.305,9.305,0,0,1-.6-.732,3.26,3.26,0,0,1-2.375,1.536c-.887,0-1.631-.744-1.631-2.124a5.024,5.024,0,0,1,1.871-3.693c-.131-.384-.264-.767-.372-1.128a6.857,6.857,0,0,0-.383-1.055l.887-.288c.072.324.168.72.252,1.056.084.287.18.611.3.959a5.955,5.955,0,0,1,3.154-.875c.072-.312.144-.624.192-.924a6.269,6.269,0,0,0,.072-.863l.924.084C198.421,187.457,198.36,187.841,198.313,188.057Zm-4.99,7.124c.624,0,1.283-.635,1.823-1.368-.108-.167-.228-.359-.335-.551a14.507,14.507,0,0,1-1.056-2.29,4.149,4.149,0,0,0-1.367,2.878C192.388,194.678,192.76,195.181,193.323,195.181Zm2.315-2.1a15.689,15.689,0,0,0,1.475-3.466,5.114,5.114,0,0,0-2.7.863,13.713,13.713,0,0,0,.936,2.124C195.446,192.759,195.542,192.914,195.638,193.082Z"/><path class="cls-5" d="M205.659,194.953a3.538,3.538,0,0,0,3.07,1.379c1.272.061,3.946.024,5.326-.071a2.828,2.828,0,0,0-.264.8c-1.284.06-3.767.084-5.05.036a4.282,4.282,0,0,1-3.442-1.439c-.575.516-1.187,1.043-1.835,1.559l-.432-.791a19.943,19.943,0,0,0,1.86-1.44v-3.118h-1.715v-.756h2.482Zm-.276-5.864a8.2,8.2,0,0,0-2.063-1.907l.588-.48a8.787,8.787,0,0,1,2.1,1.859Zm4.882-2.051c.323,3.7,1.283,6.536,3.658,7.772a3.158,3.158,0,0,0-.624.587c-1.727-1-2.711-2.747-3.262-5.038a8.714,8.714,0,0,1-3.251,5.038,4.156,4.156,0,0,0-.623-.587,7.942,7.942,0,0,0,3.286-5.5l.384.059c-.084-.5-.156-1.031-.216-1.571H207.41v-.755Z"/><path class="cls-5" d="M218.127,187.722c.623,0,2.242-.084,2.746-.133a2.358,2.358,0,0,0,.552-.108l.54.432a3.167,3.167,0,0,0-.3.384c-.336.54-.888,1.8-1.392,2.938a10.175,10.175,0,0,1,3.407.995c.048-.335.084-.659.108-.983a8.085,8.085,0,0,0,.012-1.067l.863.095a18.107,18.107,0,0,1-.252,2.339,15.047,15.047,0,0,1,1.476.949l-.4.911a11.51,11.51,0,0,0-1.3-.972,5.632,5.632,0,0,1-3.177,3.622l-.7-.588a5.173,5.173,0,0,0,3.167-3.466,8.945,8.945,0,0,0-3.55-1.1,24.736,24.736,0,0,1-1.536,3.179,1.631,1.631,0,0,1-1.438.791,1.481,1.481,0,0,1-1.512-1.583c0-1.763,1.631-3.107,3.97-3.155.444-.983.924-2.062,1.3-2.83-.481.024-2.016.1-2.568.12-.263.012-.587.048-.875.072l-.036-.875C217.539,187.709,217.875,187.722,218.127,187.722Zm-1.14,7.376a.888.888,0,0,0,.744-.433,14.881,14.881,0,0,0,1.355-2.71c-1.822.12-2.855,1.2-2.855,2.291A.774.774,0,0,0,216.987,195.1Z"/></svg>