<svg id="レイヤー_1" data-name="レイヤー 1" xmlns="http://www.w3.org/2000/svg" viewBox="0 0 718 167"><defs><style>.cls-1{fill:#898989;}.cls-1,.cls-10,.cls-2,.cls-3,.cls-9{stroke:#231815;}.cls-1,.cls-2{stroke-miterlimit:1;}.cls-1,.cls-2,.cls-3{stroke-width:0.413px;}.cls-2{fill:#595757;}.cls-3{fill:#b5b5b6;}.cls-10,.cls-3,.cls-9{stroke-miterlimit:10;}.cls-4{isolation:isolate;}.cls-11,.cls-5{fill:red;}.cls-10,.cls-6,.cls-7,.cls-9{fill:none;}.cls-6,.cls-7{stroke:#000;stroke-miterlimit:9.999;}.cls-6{stroke-width:0.86px;}.cls-7{stroke-width:0.43px;}.cls-8{fill:#e3e3e3;}.cls-9{stroke-width:0.642px;}.cls-10{stroke-width:0.214px;}.cls-11{opacity:0.55;}</style></defs><polygon class="cls-1" points="7.091 66.109 7.091 101.146 40.251 117.831 40.251 82.794 7.091 66.109"/><polygon class="cls-2" points="40.251 82.794 40.251 117.831 71.951 96.767 71.951 61.73 40.251 82.794"/><polygon class="cls-3" points="7.091 66.109 40.251 82.794 71.951 61.73 38.791 45.045 7.091 66.109"/><g class="cls-4"><path class="cls-5" d="M158.217,138.622H156.05a3.591,3.591,0,0,1-.65,2,1.169,1.169,0,0,1-.856.33,16.312,16.312,0,0,1-1.671-.031,1.484,1.484,0,0,0-.258-.722c.723.072,1.413.072,1.682.072a.647.647,0,0,0,.474-.114,2.8,2.8,0,0,0,.516-1.536h-6.22v-.712h6.323q.063-.525.124-1.207h-3.993l-.092.341-.763-.072c.3-1.042.681-2.8.907-4.085l.775.082c-.073.351-.145.743-.228,1.135h4.343v.68h-4.5c-.093.423-.186.847-.278,1.228h4.651s-.01.258-.03.361c-.052.588-.1,1.094-.156,1.537h2.064Zm-8.15-4.291h-.753V132.1h8.645v2.228h-.784V132.8h-7.108Z"/><path class="cls-5" d="M168.493,139.034h-9.087v-.649h9.087Zm-5.446.64a13.374,13.374,0,0,1-3.115,1.3,6.129,6.129,0,0,0-.526-.536,11.863,11.863,0,0,0,2.96-1.2Zm.485-6.622h-3.827v-.66h3.827v-.857h.784v.857h3.919v.66h-3.919v.691h2.827V137.8h-6.19v-4.054h2.579Zm2.836,1.2h-4.682v.671h4.682Zm0,1.155h-4.682v.692h4.682Zm0,1.187h-4.682v.691h4.682Zm-.979,2.64a33.607,33.607,0,0,1,3.167,1.228l-.64.516a25.719,25.719,0,0,0-3.022-1.259Z"/></g><g class="cls-4"><path class="cls-5" d="M126.662,146.629l.619.319a6.45,6.45,0,0,0,0,9.181l-.619.319a6.9,6.9,0,0,1,0-9.819Z"/><path class="cls-5" d="M137.073,147.505v.712h-4.187v1.145h2.1v4.611h-4.93v-4.611h2.062v-1.145h-4.105v-.712Zm-1.031,1.743h.742v6.963h-.742V155.6h-6.963v.639h-.742v-6.994h.742v5.622h6.963Zm-5.333,2.105h1.465v-1.341h-1.465Zm0,1.97h1.465v-1.351h-1.465Zm3.61-3.311h-1.474v1.341h1.474Zm0,1.96h-1.474v1.351h1.474Z"/><path class="cls-5" d="M140.842,147.082a17.764,17.764,0,0,1-.805,2.012v7.148h-.732v-5.776a10.6,10.6,0,0,1-.97,1.382,5.5,5.5,0,0,0-.4-.774,12.384,12.384,0,0,0,2.2-4.187Zm6.642,4.817a12.387,12.387,0,0,1-1.691,1.238,4.892,4.892,0,0,0,1.856,2.052,2.785,2.785,0,0,0-.5.61,7.352,7.352,0,0,1-2.765-4.673h-.248a5.158,5.158,0,0,1-.65.464c1.712,1.433,1.733,3.714.9,4.343a1.434,1.434,0,0,1-.99.319c-.217,0-.506-.01-.794-.03a1.473,1.473,0,0,0-.186-.651c.33.032.639.041.835.041a.878.878,0,0,0,.629-.174,1.45,1.45,0,0,0,.33-1.383,12.529,12.529,0,0,1-3.31,1.929,2.634,2.634,0,0,0-.434-.567,9.948,9.948,0,0,0,3.569-2.022,2.861,2.861,0,0,0-.309-.619,10.98,10.98,0,0,1-2.672,1.454,2.329,2.329,0,0,0-.392-.526,9.36,9.36,0,0,0,2.754-1.361,3.685,3.685,0,0,0-.454-.444,13.9,13.9,0,0,1-1.938.887,5.62,5.62,0,0,0-.455-.536,10.984,10.984,0,0,0,2.589-1.124h-1.96v-1.537c-.092.082-.2.165-.3.247a1.932,1.932,0,0,0-.568-.433,7.643,7.643,0,0,0,2.248-2.558l.733.134c-.093.166-.2.34-.309.516h2.022l.133-.042.475.32a9.409,9.409,0,0,1-.753,1.073h2.3v2.28H145.04a10.154,10.154,0,0,0,.5,1.465,10.958,10.958,0,0,0,1.413-1.146Zm-5.59-1.32h1.887v-1.166h-1.887Zm.711-2.507c-.195.258-.4.516-.639.774h2.073a4.718,4.718,0,0,0,.567-.774Zm3.848,1.341h-1.97v1.166h1.97Z"/><path class="cls-5" d="M149.469,150.559h6.757a5.558,5.558,0,0,0,.8-.052v.856c-.226-.01-.556-.02-.8-.02H153.42a6.32,6.32,0,0,1-.609,2.826,5.093,5.093,0,0,1-2.032,1.877l-.763-.567a4.27,4.27,0,0,0,1.949-1.579,4.941,4.941,0,0,0,.6-2.557h-3.094c-.31,0-.609,0-.887.02v-.856A7.875,7.875,0,0,0,149.469,150.559Zm1.268-2.58h3.57a7.542,7.542,0,0,0,.959-.061v.855c-.3-.02-.661-.03-.959-.03h-3.559c-.341,0-.681.01-.949.03v-.855A8.941,8.941,0,0,0,150.737,147.979Zm5.911.516-.557.248a11.722,11.722,0,0,0-.835-1.433l.547-.228A11.965,11.965,0,0,1,156.648,148.5Zm1.156-.423-.558.248a9.892,9.892,0,0,0-.855-1.424l.546-.226A13.7,13.7,0,0,1,157.8,148.072Z"/><path class="cls-5" d="M160.1,151.043h5.652c.516,0,.887-.03,1.114-.052V152c-.207-.011-.639-.052-1.1-.052H160.1c-.568,0-1.115.021-1.435.052v-1.012C158.973,151.013,159.52,151.043,160.1,151.043Z"/><path class="cls-5" d="M172.438,148.165a3.411,3.411,0,0,1-.217.372h2.8a2.08,2.08,0,0,0,.68-.1l.681.412a3.284,3.284,0,0,0-.247.557,10.369,10.369,0,0,1-1.61,3.208c.433.32.846.64,1.176.908l-.608.711c-.31-.278-.7-.6-1.125-.938a9.793,9.793,0,0,1-3.93,2.62l-.742-.64a9.037,9.037,0,0,0,3.991-2.486c-.742-.536-1.526-1.072-2.186-1.485l.556-.568c.682.393,1.455.888,2.177,1.393a8.62,8.62,0,0,0,1.4-2.856h-3.487A11.287,11.287,0,0,1,169.013,152l-.691-.537a9.461,9.461,0,0,0,3.311-3.589,3.771,3.771,0,0,0,.33-.815l.939.3C172.727,147.629,172.541,147.979,172.438,148.165Z"/><path class="cls-5" d="M177.588,156.448l-.619-.319a6.452,6.452,0,0,0,0-9.181l.619-.319a6.9,6.9,0,0,1,0,9.819Z"/></g><g class="cls-4"><path class="cls-5" d="M676.2,84.028a17.975,17.975,0,0,1-3.327,5.6,7.408,7.408,0,0,0-.941-.658,14.549,14.549,0,0,0,3.2-5.222Zm7.22-2.049H672.161V81h5.08V78.033h1.006V81h5.17Zm-3.172,1.792a29.035,29.035,0,0,1,3.186,5.376l-1.045.464a28.294,28.294,0,0,0-3.069-5.454Z"/><path class="cls-5" d="M695.415,88.528c0,.619-.154.929-.632,1.071a10.426,10.426,0,0,1-2.617.168,3.378,3.378,0,0,0-.374-.929c1.044.039,2.05.039,2.334.013.27,0,.36-.078.36-.335v-1.6h-7.181a5.628,5.628,0,0,1-1.934,2.888,3.017,3.017,0,0,0-.657-.683,5.839,5.839,0,0,0,2.023-5.029V81.824a13.149,13.149,0,0,1-1.031.838,2.889,2.889,0,0,0-.7-.683,11.266,11.266,0,0,0,3.585-4.036l1.044.18c-.117.193-.233.4-.348.606H692.4l.155-.051.644.426a11.56,11.56,0,0,1-1.173,1.792h3.391Zm-7.749-4.241a11.064,11.064,0,0,1-.168,1.792h3V84.287Zm1.1-4.758a13.175,13.175,0,0,1-1.1,1.367h3.313a11.387,11.387,0,0,0,.9-1.367Zm-1.1,3.933H690.5v-1.7h-2.837Zm6.82-1.7h-3.055v1.7h3.055Zm0,4.319V84.287h-3.055v1.792Z"/><path class="cls-5" d="M703.3,83.874V89.74h-.929V83.874h-2.088c-.052,2.153-.374,4.268-1.909,5.957a3.074,3.074,0,0,0-.722-.644,7.717,7.717,0,0,0,1.728-5.313h-1.663v-.89h1.677V79.671h-1.484v-.9h6.6v.9H703.3v3.313h1.392v.89Zm-.929-.89V79.671H700.3v3.313Zm7.208,2.54a11.425,11.425,0,0,1-4.9,4.216,4.26,4.26,0,0,0-.671-.761,10.168,10.168,0,0,0,4.668-3.8Zm-.671-6.962a12.76,12.76,0,0,1-3.674,3.03,4.3,4.3,0,0,0-.7-.67,10.91,10.91,0,0,0,3.481-2.734Zm.362,3.52a14.374,14.374,0,0,1-3.92,3.249,4.844,4.844,0,0,0-.67-.684,12.078,12.078,0,0,0,3.713-2.939Z"/></g><g class="cls-4"><path class="cls-5" d="M664.235,61.386h-3.651v-.629h3.651Zm-.278,6.488h-2.28v.475h-.65V64.893h2.93Zm-.011-5.116h-2.909v-.61h2.909Zm-2.909.753h2.909v.618h-2.909Zm2.878-3.487h-2.826v-.619h2.826Zm-2.238,5.5v1.734h1.62V65.521Zm2.352,2.023a4.163,4.163,0,0,0,.815-2.259l.619.154a4.381,4.381,0,0,1-.877,2.465Zm3.652-4.786a10.388,10.388,0,0,0-1.063-.66,4.064,4.064,0,0,1-1.878,1.867,2.482,2.482,0,0,0-.453-.537A3.5,3.5,0,0,0,666,61.788a12.887,12.887,0,0,0-1.341-.558l.382-.536c.381.124.794.3,1.206.475a6.67,6.67,0,0,0,.237-1.022h-1.732v-.66h4.92s0,.228-.01.321c-.093,2.423-.2,3.321-.454,3.62a.736.736,0,0,1-.608.3,9.737,9.737,0,0,1-1.207-.011,1.67,1.67,0,0,0-.2-.692c.465.042.9.042,1.063.042s.268-.01.33-.1c.176-.186.268-.908.35-2.817H667.2a8.255,8.255,0,0,1-.319,1.332,11.216,11.216,0,0,1,1.186.68Zm.143,4.951c.269,0,.321-.145.352-1.176a1.824,1.824,0,0,0,.638.3c-.071,1.237-.257,1.547-.907,1.547h-1.144c-.764,0-.95-.206-.95-.97V64.934h.712v2.475c0,.258.041.3.34.3Zm-1.382-4.157a7.231,7.231,0,0,1,1.836,1.341l-.474.5a7.993,7.993,0,0,0-1.8-1.392ZM669,65.1a7.073,7.073,0,0,1,1.165,2.455l-.67.278a7.585,7.585,0,0,0-1.114-2.485Z"/><path class="cls-5" d="M674.059,61.386H670.9v-.629h3.157Zm-.238,6.477H671.9v.486h-.608V64.893h2.527Zm-.01-5.1h-2.486v-.61h2.486Zm-2.486.753h2.486v.618h-2.486Zm2.465-3.487h-2.424v-.619h2.424Zm-1.888,5.5v1.723h1.289V65.521Zm8.057-1.587a8.582,8.582,0,0,1-1.135,2.372c.186.845.444,1.331.794,1.361.175.011.3-.525.361-1.371a2.44,2.44,0,0,0,.5.4c-.186,1.413-.527,1.816-.877,1.805-.609-.031-1.011-.577-1.28-1.537a7.371,7.371,0,0,1-1.681,1.454,2.9,2.9,0,0,0-.433-.433,6,6,0,0,0,1.021-.763h-2.156v.557h-.608V63.81h2.826v3.352a7.063,7.063,0,0,0,.866-.97,24.46,24.46,0,0,1-.278-3.022h-3.961v-.64h3.93c-.031-1.051-.041-2.207-.052-3.466h.671c-.011,1.27,0,2.435.031,3.466h1.743v.64h-1.722c.03.825.082,1.568.165,2.186a8.656,8.656,0,0,0,.69-1.732Zm-2.414-3.157h-3.353v-.609h1.341V59.055h.712v1.113h1.3Zm-2.651,1.712a5.3,5.3,0,0,0-.289-1.495l.557-.124a5.168,5.168,0,0,1,.319,1.485Zm.175,1.888v.846h1.568v-.846Zm1.568,2.279v-.877h-1.568v.877Zm-.464-4.28a10.61,10.61,0,0,0,.35-1.558l.661.134c-.165.536-.32,1.155-.464,1.548Zm3.527-.764a6.38,6.38,0,0,0-1.02-1.845l.577-.238a6.591,6.591,0,0,1,1.073,1.8Z"/><path class="cls-5" d="M682.418,65.017a9.146,9.146,0,0,1-.732,2.62,2.659,2.659,0,0,0-.6-.289,7.384,7.384,0,0,0,.671-2.455Zm1.888-2.672a8.762,8.762,0,0,1,1.02,2.093l-.608.29a3.964,3.964,0,0,0-.2-.6l-.9.062v4.291h-.691v-4.25c-.62.032-1.187.063-1.682.083l-.062-.691c.206,0,.444-.011.681-.02.227-.269.464-.588.692-.918a8.972,8.972,0,0,0-1.352-1.486l.392-.5c.1.082.207.175.309.268a13.913,13.913,0,0,0,.918-1.918l.682.258a18.7,18.7,0,0,1-1.177,2.073,7.107,7.107,0,0,1,.63.712c.423-.651.814-1.321,1.1-1.878l.661.289a30.2,30.2,0,0,1-2.136,3.063c.516-.02,1.083-.041,1.65-.072-.154-.31-.33-.629-.5-.907Zm.267,2.507a8.888,8.888,0,0,1,.692,1.98l-.609.206a10.335,10.335,0,0,0-.66-2Zm3.642-3.652v1.547h2.218v.691h-5.044v-.691h2.052V61.2h-2.373v-.7h2.373V59.044h.774V60.5h2.444v.7Zm-2.5,3.363h4.425V68.42H689.4v-.484h-2.97v.515h-.712Zm.712.691v1.99h2.97v-1.99Z"/><path class="cls-5" d="M697.306,65.191a10.223,10.223,0,0,0,3.723,2.249,3.5,3.5,0,0,0-.526.64,11.4,11.4,0,0,1-3.837-2.62v3.012h-.794v-2.96a10.251,10.251,0,0,1-3.837,2.609,3.651,3.651,0,0,0-.515-.629,9.3,9.3,0,0,0,3.712-2.3h-3.455V64.48h4.095v-.867h-3.095V59.539h7.045v4.074h-3.156v.867h4.1v.711Zm-3.755-3.929h2.321V60.21h-2.321Zm2.321,1.691V61.891h-2.321v1.062Zm3.136-2.743h-2.342v1.052h2.342Zm0,1.681h-2.342v1.062h2.342Z"/></g><g class="cls-4"><path class="cls-5" d="M493.011,3.992a15.155,15.155,0,0,1-1.053,2.125v7.014h-.722V7.221a11.16,11.16,0,0,1-1.144,1.361,5.146,5.146,0,0,0-.434-.743A11.521,11.521,0,0,0,492.3,3.775Zm6.292,1.66v.64h-6.664v-.64Zm-5.932,4.261h5.24v3.218h-.762v-.454h-3.735v.485h-.743Zm5.148-2.208h-5.034V7.076h5.034Zm-5.034.8H498.5v.618h-5.013Zm4.848-3.631h-4.725v-.63h4.725Zm-4.219,5.663v1.516h3.735V10.532Z"/><path class="cls-5" d="M503.35,8.675c-.1.3-.206.608-.31.908h5.178s-.021.247-.041.36c-.258,1.8-.5,2.6-.9,2.94a1.248,1.248,0,0,1-.877.289c-.339.011-1.031,0-1.753-.041a1.4,1.4,0,0,0-.257-.722c.732.062,1.474.072,1.763.072a.827.827,0,0,0,.5-.093c.268-.216.475-.825.681-2.094h-4.538c-.1.258-.2.506-.279.712l-.815-.144c.247-.568.557-1.424.805-2.187h-2.229V7.984H509.5v.691Zm4.858-1.5h-6.52V4.167h6.52Zm-.773-2.321h-4.994V6.5h4.994Z"/><path class="cls-5" d="M515.392,12.7l-.486-.763a7.93,7.93,0,0,0,.888-.135,3.115,3.115,0,0,0,2.62-3.063,2.872,2.872,0,0,0-2.755-2.991,20.373,20.373,0,0,1-.618,2.97c-.63,2.125-1.444,3.208-2.4,3.208-.918,0-1.837-1.052-1.837-2.754a4.4,4.4,0,0,1,4.508-4.2,3.738,3.738,0,0,1,3.951,3.8C519.26,10.934,517.836,12.378,515.392,12.7Zm-2.724-1.723c.485,0,1.032-.691,1.558-2.434a17,17,0,0,0,.578-2.785,3.6,3.6,0,0,0-3.2,3.342C511.605,10.4,512.2,10.975,512.668,10.975Z"/><path class="cls-5" d="M521.636,9.717a9.072,9.072,0,0,1-.733,2.62,2.694,2.694,0,0,0-.6-.289,7.422,7.422,0,0,0,.671-2.455Zm1.124-.825v4.291h-.681V8.933c-.588.031-1.144.062-1.619.092l-.063-.68.681-.031c.217-.279.454-.609.682-.949a9.649,9.649,0,0,0-1.331-1.454l.391-.506c.1.082.2.176.3.268a12.93,12.93,0,0,0,.928-1.918l.671.268c-.351.681-.784,1.5-1.166,2.073a8.321,8.321,0,0,1,.6.671,20.811,20.811,0,0,0,1.042-1.847l.65.289a35.334,35.334,0,0,1-2.053,3.074l1.527-.062a7.74,7.74,0,0,0-.485-.929l.536-.216a8.16,8.16,0,0,1,.97,2.1l-.577.258a5.068,5.068,0,0,0-.186-.6Zm.9.629a9.442,9.442,0,0,1,.66,1.877l-.588.2a10.164,10.164,0,0,0-.628-1.887Zm3.755,2.651H529.9v.691h-5.858v-.691h2.62V10.49H524.7V9.8h1.96V8.314h.753V9.8h2.032v.691h-2.032Zm2.032-7.695A6.392,6.392,0,0,1,527.6,7.189a6.922,6.922,0,0,0,2.414,1,4,4,0,0,0-.475.64,7.514,7.514,0,0,1-2.527-1.186,9.261,9.261,0,0,1-2.487,1.206,2.96,2.96,0,0,0-.443-.629,8.166,8.166,0,0,0,2.342-1.062A6.582,6.582,0,0,1,524.957,5.1l.412-.135h-1.061v-.68h4.476l.145-.031Zm-3.775.484A5.3,5.3,0,0,0,527,6.726a5.678,5.678,0,0,0,1.4-1.765Z"/><path class="cls-5" d="M539.474,4.982a7.856,7.856,0,0,1-1.506,2.744,6.883,6.883,0,0,0,2.351,1.516,2.89,2.89,0,0,0-.474.63c-.1-.052-.217-.1-.33-.155v3.4h-.733V12.78H536.2v.371h-.712V9.707c-.206.113-.413.206-.619.3a2.1,2.1,0,0,0-.371-.515h-1.083v1.846c.443-.1.9-.206,1.351-.319l.072.691c-1.4.34-2.867.69-3.95.959l-.145-.743.526-.113V8.293h.65v3.384l.794-.186V7.324h-1.444V4.178H534.6V6.911a7.5,7.5,0,0,0,1.868-3.167l.732.176c-.1.3-.217.6-.33.876h1.991l.134-.03Zm-7.52,1.671h1.94v-1.8h-1.94ZM534.688,9.3A7.389,7.389,0,0,0,537.029,7.7a9.392,9.392,0,0,1-.949-1.413,7.465,7.465,0,0,1-.938,1.186,4.247,4.247,0,0,0-.538-.454v.31h-1.185V8.809h1.269Zm4.342.144A7.7,7.7,0,0,1,537.5,8.231a8.183,8.183,0,0,1-1.548,1.217Zm-.248,2.652V10.119H536.2V12.1Zm-2.227-6.633-.1.2a8.338,8.338,0,0,0,1.022,1.547,6.735,6.735,0,0,0,1.062-1.743Z"/><path class="cls-5" d="M545.077,3.548l.619.32a6.449,6.449,0,0,0,0,9.18l-.619.32a6.9,6.9,0,0,1,0-9.82Z"/><path class="cls-5" d="M547.143,11.594h2.3V5.941h-1.753v-.6A5.419,5.419,0,0,0,549.67,4.8h.712v6.8h2.155v.784h-5.394Z"/><path class="cls-5" d="M559.668,6.674a9.247,9.247,0,0,0,3.961,4.188,2.7,2.7,0,0,0-.566.67,10.17,10.17,0,0,1-3.869-4.208V10.48h1.96v.763h-1.96v1.919H558.4V11.243h-2.01V10.48h2.01V7.324a10.724,10.724,0,0,1-3.857,4.218,3.1,3.1,0,0,0-.547-.619,9.838,9.838,0,0,0,3.93-4.249h-3.579V5.911H558.4V3.755h.795V5.911h4.084v.763Z"/><path class="cls-5" d="M569.813,4.972c0,.154-.011.392-.011.67h.154c1.27,0,2.538.01,3.023.01l-.01.774c-.578-.03-1.506-.062-3.023-.062H569.8c0,.588.011,1.218.02,1.7a2.505,2.505,0,0,1,.33,1.321c0,1.4-.68,2.95-3.074,3.661l-.69-.68a3.637,3.637,0,0,0,2.743-1.826,1.5,1.5,0,0,1-.907.278,1.645,1.645,0,0,1-1.7-1.722,1.8,1.8,0,0,1,1.827-1.8,2.041,2.041,0,0,1,.69.114c0-.31-.01-.681-.01-1.042-1.578.021-3.321.092-4.611.186l-.03-.8c1.155-.021,3.093-.083,4.631-.1-.01-.288-.01-.536-.021-.68-.02-.268-.052-.568-.072-.65h.938C569.854,4.436,569.822,4.848,569.813,4.972Zm-1.465,5.136c.6,0,1-.484.918-1.454a.947.947,0,0,0-.929-.66,1.051,1.051,0,0,0-1.042,1.093A1,1,0,0,0,568.348,10.108Zm3.713-4.744-.588.258a11.755,11.755,0,0,0-.753-1.269l.567-.237A12.626,12.626,0,0,1,572.061,5.364Zm1.258-.279-.588.258a8.2,8.2,0,0,0-.763-1.248l.578-.247C572.783,4.2,573.1,4.683,573.319,5.085Z"/><path class="cls-5" d="M575.065,6.694a16.45,16.45,0,0,1,4.4-1.021c1.712,0,3.074.991,3.074,2.723,0,2.466-2.466,3.662-5.643,3.837l-.371-.856c2.7-.072,5.116-.887,5.116-3a1.961,1.961,0,0,0-2.2-1.929A16.984,16.984,0,0,0,574.313,7.9l-.382-.907A10.383,10.383,0,0,0,575.065,6.694Z"/><path class="cls-5" d="M584.146,4.116h.64V8.252a10.825,10.825,0,0,1-.773,4.879,3.483,3.483,0,0,0-.517-.443,10.7,10.7,0,0,0,.65-4.436Zm1.4.732h.567V11.7h-.567Zm1.392-.763h.63v8.726h-.63Zm3.167,7.736a7.7,7.7,0,0,1-2.032,1.362,3.474,3.474,0,0,0-.474-.506,6.01,6.01,0,0,0,1.867-1.238Zm-.185-5.942a8.317,8.317,0,0,0,.2-.969h-2.074V4.239h4.869V4.91h-1.97c-.092.33-.207.671-.3.969h1.991v5.344h-4.261V5.879Zm1.99.6h-2.836v1h2.836Zm0,1.547h-2.836V9.036h2.836Zm0,1.578h-2.836v1.022h2.836Zm-.443,1.857a10.95,10.95,0,0,1,1.713,1.289l-.588.423a10.536,10.536,0,0,0-1.693-1.33Z"/><path class="cls-5" d="M599.818,7.262a9.965,9.965,0,0,0,3.631,1.867,2.6,2.6,0,0,0-.515.649,9.774,9.774,0,0,1-.95-.371v3.724h-.763v-.31H596.2v.351h-.732V9.387c-.371.185-.742.34-1.093.474a2.413,2.413,0,0,0-.485-.609,10.15,10.15,0,0,0,3.558-1.99h-3.29V6.6h2.228a6.152,6.152,0,0,0-.732-1.269l.619-.248c-.475.031-.939.052-1.382.062a2.035,2.035,0,0,0-.165-.588,49.894,49.894,0,0,0,6.993-.681l.515.568a30.5,30.5,0,0,1-3.238.443V6.6h1.413l-.3-.114a8.661,8.661,0,0,0,.846-1.589l.825.227c-.309.516-.66,1.073-.949,1.476h2.342v.66Zm1.785,1.96a9.664,9.664,0,0,1-2.61-1.878V9.025h-.743V7.386a10.529,10.529,0,0,1-2.476,1.836Zm-3.332.608H596.2v.887h2.074ZM596.2,12.213h2.074v-.949H596.2Zm2.053-7.252c-.64.052-1.3.093-1.938.124a5.036,5.036,0,0,1,.8,1.362l-.381.155h1.516Zm2.971,4.869h-2.228v.887h2.228Zm0,2.383v-.949h-2.228v.949Z"/><path class="cls-5" d="M606.259,5.312a23.944,23.944,0,0,0-.516,3.951,11.113,11.113,0,0,0,.093,1.444c.175-.464.423-1.083.6-1.506l.433.33a21.3,21.3,0,0,0-.732,2.311,2,2,0,0,0-.052.464c.011.113.021.257.031.361l-.742.051a12.947,12.947,0,0,1-.382-3.311,28.983,28.983,0,0,1,.464-4.136,4.535,4.535,0,0,0,.072-.732l.918.082C606.393,4.8,606.3,5.126,606.259,5.312Zm2.4,5.251c0,.474.341.928,1.743.928a11.425,11.425,0,0,0,2.559-.268l.02.866a13.954,13.954,0,0,1-2.579.217c-1.732,0-2.507-.578-2.507-1.548a5.571,5.571,0,0,1,.176-1.216l.742.071A3.652,3.652,0,0,0,608.662,10.563Zm3.992-5.158v.836a24.405,24.405,0,0,1-4.24,0V5.416A17.672,17.672,0,0,0,612.654,5.405Z"/><path class="cls-5" d="M623.685,12.223a2.532,2.532,0,0,0-.289.743h-1.775c-1.877,0-3.568-.361-4.8-1.919a6.486,6.486,0,0,1-2.084,2.146,3.062,3.062,0,0,0-.474-.609,5.649,5.649,0,0,0,2.093-2.217,9.219,9.219,0,0,1-.907-2.249,7.42,7.42,0,0,1-.795,1.537,3.741,3.741,0,0,0-.588-.557,12.04,12.04,0,0,0,1.672-5.343l.753.1c-.072.557-.165,1.114-.279,1.64h1.548l.144-.021.453.093a13.935,13.935,0,0,1-1.175,4.807,5.107,5.107,0,0,0,4.476,1.846Zm-7.613-6.055c-.083.3-.155.6-.237.888a9.986,9.986,0,0,0,.876,2.578,12.419,12.419,0,0,0,.867-3.466Zm3.858.341a8.8,8.8,0,0,1-1.135,4.8,2.23,2.23,0,0,0-.619-.412A7.69,7.69,0,0,0,619.218,6.5V4.477h2.8v5.807c0,.3.02.341.174.341h.414c.144,0,.174-.176.2-.929a1.783,1.783,0,0,0,.578.247c-.052.939-.228,1.218-.7,1.218h-.61c-.608,0-.742-.206-.742-.9V5.147H619.93Z"/><path class="cls-5" d="M627.845,11.037c-1.1.371-2.28.774-3.2,1.073l-.174-.774c.382-.113.856-.258,1.382-.433V8.118h-1.166V7.406h1.166V5.168h-1.279V4.446h3.2v.722h-1.186V7.406h1.031v.712h-1.031v2.558l1.125-.371ZM634,12.13v.7h-6.644v-.7H630.5V10.717h-2.341v-.7H630.5V8.809h-2.218V4.219h5.241v4.59H631.27v1.207h2.4v.7h-2.4V12.13Zm-5.024-5.941h1.568v-1.3h-1.568Zm0,1.95h1.568V6.829h-1.568Zm3.806-3.25h-1.578v1.3h1.578Zm0,1.94h-1.578v1.31h1.578Z"/><path class="cls-5" d="M635.11,13.368l-.619-.32a6.449,6.449,0,0,0,0-9.18l.619-.32a6.9,6.9,0,0,1,0,9.82Z"/></g><path class="cls-6" d="M246.639,17.193a4.816,4.816,0,1,0-4.815,4.815A4.818,4.818,0,0,0,246.639,17.193Z"/><path class="cls-6" d="M246.639,34.222a4.816,4.816,0,1,0-4.815,4.815A4.817,4.817,0,0,0,246.639,34.222Z"/><path class="cls-6" d="M246.639,51.251a4.816,4.816,0,1,0-4.815,4.815A4.818,4.818,0,0,0,246.639,51.251Z"/><path class="cls-6" d="M246.639,68.28a4.816,4.816,0,1,0-4.815,4.815A4.818,4.818,0,0,0,246.639,68.28Z"/><path class="cls-6" d="M246.639,85.308a4.816,4.816,0,1,0-4.815,4.816A4.818,4.818,0,0,0,246.639,85.308Z"/><path class="cls-6" d="M246.639,102.337a4.816,4.816,0,1,0-4.815,4.816A4.818,4.818,0,0,0,246.639,102.337Z"/><path class="cls-6" d="M246.639,119.366a4.816,4.816,0,1,0-4.815,4.816A4.817,4.817,0,0,0,246.639,119.366Z"/><path class="cls-6" d="M246.639,136.4a4.816,4.816,0,1,0-4.815,4.815A4.818,4.818,0,0,0,246.639,136.4Z"/><path class="cls-6" d="M246.639,153.424a4.816,4.816,0,1,0-4.815,4.815A4.817,4.817,0,0,0,246.639,153.424Z"/><path class="cls-6" d="M304.423,17.193a4.815,4.815,0,1,0-4.815,4.815A4.817,4.817,0,0,0,304.423,17.193Z"/><path class="cls-6" d="M304.423,34.222a4.815,4.815,0,1,0-4.815,4.815A4.817,4.817,0,0,0,304.423,34.222Z"/><path class="cls-6" d="M304.423,51.251a4.815,4.815,0,1,0-4.815,4.815A4.817,4.817,0,0,0,304.423,51.251Z"/><path class="cls-6" d="M304.423,68.28a4.815,4.815,0,1,0-4.815,4.815A4.817,4.817,0,0,0,304.423,68.28Z"/><path class="cls-6" d="M304.423,85.308a4.815,4.815,0,1,0-4.815,4.816A4.817,4.817,0,0,0,304.423,85.308Z"/><path class="cls-6" d="M304.423,102.337a4.815,4.815,0,1,0-4.815,4.816A4.817,4.817,0,0,0,304.423,102.337Z"/><path class="cls-6" d="M304.423,119.366a4.815,4.815,0,1,0-4.815,4.816A4.817,4.817,0,0,0,304.423,119.366Z"/><path class="cls-6" d="M304.423,136.4a4.815,4.815,0,1,0-4.815,4.815A4.817,4.817,0,0,0,304.423,136.4Z"/><path class="cls-6" d="M304.423,153.424a4.815,4.815,0,1,0-4.815,4.815A4.817,4.817,0,0,0,304.423,153.424Z"/><path class="cls-6" d="M477.775,17.193a4.816,4.816,0,1,0-4.816,4.815A4.818,4.818,0,0,0,477.775,17.193Z"/><path class="cls-6" d="M477.775,34.222a4.816,4.816,0,1,0-4.816,4.815A4.817,4.817,0,0,0,477.775,34.222Z"/><path class="cls-6" d="M477.775,51.251a4.816,4.816,0,1,0-4.816,4.815A4.818,4.818,0,0,0,477.775,51.251Z"/><path class="cls-6" d="M477.775,68.28a4.816,4.816,0,1,0-4.816,4.815A4.818,4.818,0,0,0,477.775,68.28Z"/><path class="cls-6" d="M477.775,85.308a4.816,4.816,0,1,0-4.816,4.816A4.818,4.818,0,0,0,477.775,85.308Z"/><path class="cls-6" d="M477.775,102.337a4.816,4.816,0,1,0-4.816,4.816A4.818,4.818,0,0,0,477.775,102.337Z"/><path class="cls-6" d="M477.775,119.366a4.816,4.816,0,1,0-4.816,4.816A4.817,4.817,0,0,0,477.775,119.366Z"/><path class="cls-6" d="M477.775,136.4a4.816,4.816,0,1,0-4.816,4.815A4.818,4.818,0,0,0,477.775,136.4Z"/><path class="cls-6" d="M535.563,34.222a4.815,4.815,0,1,0-4.815,4.815A4.817,4.817,0,0,0,535.563,34.222Z"/><path class="cls-6" d="M535.563,51.251a4.815,4.815,0,1,0-4.815,4.815A4.818,4.818,0,0,0,535.563,51.251Z"/><path class="cls-6" d="M535.563,68.28a4.815,4.815,0,1,0-4.815,4.815A4.818,4.818,0,0,0,535.563,68.28Z"/><path class="cls-6" d="M535.563,85.308a4.815,4.815,0,1,0-4.815,4.816A4.818,4.818,0,0,0,535.563,85.308Z"/><path class="cls-6" d="M535.563,102.337a4.815,4.815,0,1,0-4.815,4.816A4.818,4.818,0,0,0,535.563,102.337Z"/><path class="cls-6" d="M535.563,119.366a4.815,4.815,0,1,0-4.815,4.816A4.817,4.817,0,0,0,535.563,119.366Z"/><path class="cls-6" d="M593.344,51.251a4.816,4.816,0,1,0-4.816,4.815A4.818,4.818,0,0,0,593.344,51.251Z"/><path class="cls-6" d="M593.344,68.28a4.816,4.816,0,1,0-4.816,4.815A4.818,4.818,0,0,0,593.344,68.28Z"/><path class="cls-6" d="M593.344,85.308a4.816,4.816,0,1,0-4.816,4.816A4.818,4.818,0,0,0,593.344,85.308Z"/><path class="cls-6" d="M651.128,76.794a4.816,4.816,0,1,0-4.815,4.815,4.817,4.817,0,0,0,4.815-4.815Z"/><path class="cls-6" d="M651.128,93.823a4.816,4.816,0,1,0-4.815,4.815A4.817,4.817,0,0,0,651.128,93.823Z"/><path class="cls-6" d="M593.344,102.337a4.816,4.816,0,1,0-4.816,4.816A4.818,4.818,0,0,0,593.344,102.337Z"/><path class="cls-6" d="M593.344,119.366a4.816,4.816,0,1,0-4.816,4.816A4.817,4.817,0,0,0,593.344,119.366Z"/><path class="cls-6" d="M535.563,136.4a4.815,4.815,0,1,0-4.815,4.815A4.818,4.818,0,0,0,535.563,136.4Z"/><path class="cls-6" d="M477.775,153.424a4.816,4.816,0,1,0-4.816,4.815A4.817,4.817,0,0,0,477.775,153.424Z"/><path class="cls-7" d="M246.639,17.193h48.154"/><path class="cls-7" d="M246.639,17.193l48.154,17.029"/><path class="cls-7" d="M246.639,17.193,294.793,51.25"/><path class="cls-7" d="M246.639,17.193,294.793,68.28"/><path class="cls-7" d="M246.639,17.193l48.154,119.2"/><path class="cls-7" d="M246.639,34.222l48.154,119.2"/><path class="cls-7" d="M246.639,17.193l48.154,102.173"/><path class="cls-7" d="M246.639,17.193l48.154,85.144"/><path class="cls-7" d="M246.639,17.193l48.154,68.115"/><path class="cls-7" d="M246.639,34.222l48.154-17.029"/><path class="cls-7" d="M246.639,34.222h48.154"/><path class="cls-7" d="M246.639,34.222l48.154,17.029"/><path class="cls-7" d="M246.639,34.222,294.793,68.28"/><path class="cls-7" d="M246.639,34.222,294.793,136.4"/><path class="cls-7" d="M246.639,34.222l48.154,119.2"/><path class="cls-7" d="M246.639,34.222l48.154,85.144"/><path class="cls-7" d="M246.639,34.222l48.154,68.115"/><path class="cls-7" d="M246.639,34.222l48.154,51.087"/><path class="cls-7" d="M246.639,17.193l48.154,136.231"/><path class="cls-7" d="M246.639,51.251l48.154-34.058"/><path class="cls-7" d="M246.639,51.251l48.154-17.029"/><path class="cls-7" d="M246.639,51.251h48.154"/><path class="cls-7" d="M246.639,51.251l48.154,17.028"/><path class="cls-7" d="M246.639,51.251,294.793,136.4"/><path class="cls-7" d="M246.639,51.251l48.154,102.173"/><path class="cls-7" d="M246.639,51.251l48.154,68.115"/><path class="cls-7" d="M246.639,51.251l48.154,51.087"/><path class="cls-7" d="M246.639,51.251l48.154,34.057"/><path class="cls-7" d="M246.639,68.28l48.154-51.087"/><path class="cls-7" d="M246.639,68.28l48.154-34.058"/><path class="cls-7" d="M246.639,68.28l48.154-17.029"/><path class="cls-7" d="M246.639,68.28h48.154"/><path class="cls-7" d="M246.639,68.28,294.793,136.4"/><path class="cls-7" d="M246.639,68.28l48.154,85.144"/><path class="cls-7" d="M246.639,68.28l48.154,51.086"/><path class="cls-7" d="M246.639,68.28l48.154,34.057"/><path class="cls-7" d="M246.639,68.28l48.154,17.029"/><path class="cls-7" d="M246.639,153.424h48.154"/><path class="cls-7" d="M246.639,153.424,294.793,136.4"/><path class="cls-7" d="M246.639,153.424l48.154-34.058"/><path class="cls-7" d="M246.639,153.424l48.154-51.087"/><path class="cls-7" d="M246.639,153.424l48.154-119.2"/><path class="cls-7" d="M246.639,136.4l48.154-119.2"/><path class="cls-7" d="M246.639,153.424,294.793,51.251"/><path class="cls-7" d="M246.639,153.424,294.793,68.28"/><path class="cls-7" d="M246.639,153.424l48.154-68.115"/><path class="cls-7" d="M246.639,136.4l48.154,17.029"/><path class="cls-7" d="M246.639,136.4h48.154"/><path class="cls-7" d="M246.639,136.4l48.154-17.029"/><path class="cls-7" d="M246.639,136.4l48.154-34.058"/><path class="cls-7" d="M246.639,136.4,294.793,34.222"/><path class="cls-7" d="M246.639,136.4l48.154-119.2"/><path class="cls-7" d="M246.639,136.4,294.793,51.25"/><path class="cls-7" d="M246.639,136.4,294.793,68.28"/><path class="cls-7" d="M246.639,136.4l48.154-51.087"/><path class="cls-7" d="M246.639,153.424,294.793,17.193"/><path class="cls-7" d="M246.639,119.366l48.154,34.058"/><path class="cls-7" d="M246.639,119.366,294.793,136.4"/><path class="cls-7" d="M246.639,119.366h48.154"/><path class="cls-7" d="M246.639,119.366l48.154-17.029"/><path class="cls-7" d="M246.639,119.366l48.154-85.144"/><path class="cls-7" d="M246.639,119.366,294.793,17.193"/><path class="cls-7" d="M246.639,119.366l48.154-68.115"/><path class="cls-7" d="M246.639,119.366,294.793,68.28"/><path class="cls-7" d="M246.639,119.366l48.154-34.057"/><path class="cls-7" d="M246.639,102.337l48.154,51.087"/><path class="cls-7" d="M246.639,102.337,294.793,136.4"/><path class="cls-7" d="M246.639,102.337l48.154,17.029"/><path class="cls-7" d="M246.639,102.337h48.154"/><path class="cls-7" d="M246.639,102.337l48.154-68.115"/><path class="cls-7" d="M246.639,102.337l48.154-85.144"/><path class="cls-7" d="M246.639,102.337,294.793,51.25"/><path class="cls-7" d="M246.639,102.337,294.793,68.28"/><path class="cls-7" d="M246.639,102.337l48.154-17.029"/><path class="cls-7" d="M246.639,85.308l48.154-68.115"/><path class="cls-7" d="M246.639,85.308l48.154-51.086"/><path class="cls-7" d="M246.639,85.308l48.154-34.057"/><path class="cls-7" d="M246.639,85.308l48.154-17.029"/><path class="cls-7" d="M246.639,85.308,294.793,136.4"/><path class="cls-7" d="M246.639,85.308l48.154,68.115"/><path class="cls-7" d="M246.639,85.308l48.154,34.058"/><path class="cls-7" d="M246.639,85.308l48.154,17.03"/><path class="cls-7" d="M246.639,85.308h48.154"/><path class="cls-7" d="M304.423,17.193h48.154"/><path class="cls-7" d="M304.423,17.193l48.154,17.029"/><path class="cls-7" d="M304.423,17.193,352.577,51.25"/><path class="cls-7" d="M304.423,17.193,352.577,68.28"/><path class="cls-7" d="M304.423,17.193l48.154,119.2"/><path class="cls-7" d="M304.423,34.222l48.154,119.2"/><path class="cls-7" d="M304.423,17.193l48.154,102.173"/><path class="cls-7" d="M304.423,17.193l48.154,85.144"/><path class="cls-7" d="M304.423,17.193l48.154,68.115"/><path class="cls-7" d="M304.423,34.222l48.154-17.029"/><path class="cls-7" d="M304.423,34.222h48.154"/><path class="cls-7" d="M304.423,34.222l48.154,17.029"/><path class="cls-7" d="M304.423,34.222,352.577,68.28"/><path class="cls-7" d="M304.423,34.222,352.577,136.4"/><path class="cls-7" d="M304.423,34.222l48.154,119.2"/><path class="cls-7" d="M304.423,34.222l48.154,85.144"/><path class="cls-7" d="M304.423,34.222l48.154,68.115"/><path class="cls-7" d="M304.423,34.222l48.154,51.087"/><path class="cls-7" d="M304.423,17.193l48.154,136.231"/><path class="cls-7" d="M304.423,51.251l48.154-34.058"/><path class="cls-7" d="M304.423,51.251l48.154-17.029"/><path class="cls-7" d="M304.423,51.251h48.154"/><path class="cls-7" d="M304.423,51.251l48.154,17.028"/><path class="cls-7" d="M304.423,51.251,352.577,136.4"/><path class="cls-7" d="M304.423,51.251l48.154,102.173"/><path class="cls-7" d="M304.423,51.251l48.154,68.115"/><path class="cls-7" d="M304.423,51.251l48.154,51.087"/><path class="cls-7" d="M304.423,51.251l48.154,34.057"/><path class="cls-7" d="M304.423,68.28l48.154-51.087"/><path class="cls-7" d="M304.423,68.28l48.154-34.058"/><path class="cls-7" d="M304.423,68.28l48.154-17.029"/><path class="cls-7" d="M304.423,68.28h48.154"/><path class="cls-7" d="M304.423,68.28,352.577,136.4"/><path class="cls-7" d="M304.423,68.28l48.154,85.144"/><path class="cls-7" d="M304.423,68.28l48.154,51.086"/><path class="cls-7" d="M304.423,68.28l48.154,34.057"/><path class="cls-7" d="M304.423,68.28l48.154,17.029"/><path class="cls-7" d="M304.423,153.424h48.154"/><path class="cls-7" d="M304.423,153.424,352.577,136.4"/><path class="cls-7" d="M304.423,153.424l48.154-34.058"/><path class="cls-7" d="M304.423,153.424l48.154-51.087"/><path class="cls-7" d="M304.423,153.424l48.154-119.2"/><path class="cls-7" d="M304.423,136.4l48.154-119.2"/><path class="cls-7" d="M304.423,153.424,352.577,51.251"/><path class="cls-7" d="M304.423,153.424,352.577,68.28"/><path class="cls-7" d="M304.423,153.424l48.154-68.115"/><path class="cls-7" d="M304.423,136.4l48.154,17.029"/><path class="cls-7" d="M304.423,136.4h48.154"/><path class="cls-7" d="M304.423,136.4l48.154-17.029"/><path class="cls-7" d="M304.423,136.4l48.154-34.058"/><path class="cls-7" d="M304.423,136.4,352.577,34.222"/><path class="cls-7" d="M304.423,136.4l48.154-119.2"/><path class="cls-7" d="M304.423,136.4,352.577,51.25"/><path class="cls-7" d="M304.423,136.4,352.577,68.28"/><path class="cls-7" d="M304.423,136.4l48.154-51.087"/><path class="cls-7" d="M304.423,153.424,352.577,17.193"/><path class="cls-7" d="M304.423,119.366l48.154,34.058"/><path class="cls-7" d="M304.423,119.366,352.577,136.4"/><path class="cls-7" d="M304.423,119.366h48.154"/><path class="cls-7" d="M304.423,119.366l48.154-17.029"/><path class="cls-7" d="M304.423,119.366l48.154-85.144"/><path class="cls-7" d="M304.423,119.366,352.577,17.193"/><path class="cls-7" d="M304.423,119.366l48.154-68.115"/><path class="cls-7" d="M304.423,119.366,352.577,68.28"/><path class="cls-7" d="M304.423,119.366l48.154-34.057"/><path class="cls-7" d="M304.423,102.337l48.154,51.087"/><path class="cls-7" d="M304.423,102.337,352.577,136.4"/><path class="cls-7" d="M304.423,102.337l48.154,17.029"/><path class="cls-7" d="M304.423,102.337h48.154"/><path class="cls-7" d="M304.423,102.337l48.154-68.115"/><path class="cls-7" d="M304.423,102.337l48.154-85.144"/><path class="cls-7" d="M304.423,102.337,352.577,51.25"/><path class="cls-7" d="M304.423,102.337,352.577,68.28"/><path class="cls-7" d="M304.423,102.337l48.154-17.029"/><path class="cls-7" d="M304.423,85.308l48.154-68.115"/><path class="cls-7" d="M304.423,85.308l48.154-51.086"/><path class="cls-7" d="M304.423,85.308l48.154-34.057"/><path class="cls-7" d="M304.423,85.308l48.154-17.029"/><path class="cls-7" d="M304.423,85.308,352.577,136.4"/><path class="cls-7" d="M304.423,85.308l48.154,68.115"/><path class="cls-7" d="M304.423,85.308l48.154,34.058"/><path class="cls-7" d="M304.423,85.308l48.154,17.03"/><path class="cls-7" d="M304.423,85.308h48.154"/><path class="cls-6" d="M362.208,17.193a4.816,4.816,0,1,0-4.816,4.815A4.818,4.818,0,0,0,362.208,17.193Z"/><path class="cls-6" d="M362.208,34.222a4.816,4.816,0,1,0-4.816,4.815A4.817,4.817,0,0,0,362.208,34.222Z"/><path class="cls-6" d="M362.208,51.251a4.816,4.816,0,1,0-4.816,4.815A4.818,4.818,0,0,0,362.208,51.251Z"/><path class="cls-6" d="M362.208,68.28a4.816,4.816,0,1,0-4.816,4.815A4.818,4.818,0,0,0,362.208,68.28Z"/><path class="cls-6" d="M362.208,85.308a4.816,4.816,0,1,0-4.816,4.816A4.818,4.818,0,0,0,362.208,85.308Z"/><path class="cls-6" d="M362.208,102.337a4.816,4.816,0,1,0-4.816,4.816A4.818,4.818,0,0,0,362.208,102.337Z"/><path class="cls-6" d="M362.208,119.366a4.816,4.816,0,1,0-4.816,4.816A4.817,4.817,0,0,0,362.208,119.366Z"/><path class="cls-6" d="M362.208,136.4a4.816,4.816,0,1,0-4.816,4.815A4.818,4.818,0,0,0,362.208,136.4Z"/><path class="cls-6" d="M362.208,153.424a4.816,4.816,0,1,0-4.816,4.815A4.817,4.817,0,0,0,362.208,153.424Z"/><path class="cls-7" d="M362.208,17.193h48.153"/><path class="cls-7" d="M362.208,17.193l48.153,17.029"/><path class="cls-7" d="M362.208,17.193,410.361,51.25"/><path class="cls-7" d="M362.208,17.193,410.361,68.28"/><path class="cls-7" d="M362.208,17.193l48.153,119.2"/><path class="cls-7" d="M362.208,34.222l48.153,119.2"/><path class="cls-7" d="M362.208,17.193l48.153,102.173"/><path class="cls-7" d="M362.208,17.193l48.153,85.144"/><path class="cls-7" d="M362.208,17.193l48.153,68.115"/><path class="cls-7" d="M362.208,34.222l48.153-17.029"/><path class="cls-7" d="M362.208,34.222h48.153"/><path class="cls-7" d="M362.208,34.222l48.153,17.029"/><path class="cls-7" d="M362.208,34.222,410.361,68.28"/><path class="cls-7" d="M362.208,34.222,410.361,136.4"/><path class="cls-7" d="M362.208,34.222l48.153,119.2"/><path class="cls-7" d="M362.208,34.222l48.153,85.144"/><path class="cls-7" d="M362.208,34.222l48.153,68.115"/><path class="cls-7" d="M362.208,34.222l48.153,51.087"/><path class="cls-7" d="M362.208,17.193l48.153,136.231"/><path class="cls-7" d="M362.208,51.251l48.153-34.058"/><path class="cls-7" d="M362.208,51.251l48.153-17.029"/><path class="cls-7" d="M362.208,51.251h48.153"/><path class="cls-7" d="M362.208,51.251l48.153,17.028"/><path class="cls-7" d="M362.208,51.251,410.361,136.4"/><path class="cls-7" d="M362.208,51.251l48.153,102.173"/><path class="cls-7" d="M362.208,51.251l48.153,68.115"/><path class="cls-7" d="M362.208,51.251l48.153,51.087"/><path class="cls-7" d="M362.208,51.251l48.153,34.057"/><path class="cls-7" d="M362.208,68.28l48.153-51.087"/><path class="cls-7" d="M362.208,68.28l48.153-34.058"/><path class="cls-7" d="M362.208,68.28l48.153-17.029"/><path class="cls-7" d="M362.208,68.28h48.153"/><path class="cls-7" d="M362.208,68.28,410.361,136.4"/><path class="cls-7" d="M362.208,68.28l48.153,85.144"/><path class="cls-7" d="M362.208,68.28l48.153,51.086"/><path class="cls-7" d="M362.208,68.28l48.153,34.057"/><path class="cls-7" d="M362.208,68.28l48.153,17.029"/><path class="cls-7" d="M362.208,153.424h48.153"/><path class="cls-7" d="M362.208,153.424,410.361,136.4"/><path class="cls-7" d="M362.208,153.424l48.153-34.058"/><path class="cls-7" d="M362.208,153.424l48.153-51.087"/><path class="cls-7" d="M362.208,153.424l48.153-119.2"/><path class="cls-7" d="M362.208,136.4l48.153-119.2"/><path class="cls-7" d="M362.208,153.424,410.361,51.251"/><path class="cls-7" d="M362.208,153.424,410.361,68.28"/><path class="cls-7" d="M362.208,153.424l48.153-68.115"/><path class="cls-7" d="M362.208,136.4l48.153,17.029"/><path class="cls-7" d="M362.208,136.4h48.153"/><path class="cls-7" d="M362.208,136.4l48.153-17.029"/><path class="cls-7" d="M362.208,136.4l48.153-34.058"/><path class="cls-7" d="M362.208,136.4,410.361,34.222"/><path class="cls-7" d="M362.208,136.4l48.153-119.2"/><path class="cls-7" d="M362.208,136.4,410.361,51.25"/><path class="cls-7" d="M362.208,136.4,410.361,68.28"/><path class="cls-7" d="M362.208,136.4l48.153-51.087"/><path class="cls-7" d="M362.208,153.424,410.361,17.193"/><path class="cls-7" d="M362.208,119.366l48.153,34.058"/><path class="cls-7" d="M362.208,119.366,410.361,136.4"/><path class="cls-7" d="M362.208,119.366h48.153"/><path class="cls-7" d="M362.208,119.366l48.153-17.029"/><path class="cls-7" d="M362.208,119.366l48.153-85.144"/><path class="cls-7" d="M362.208,119.366,410.361,17.193"/><path class="cls-7" d="M362.208,119.366l48.153-68.115"/><path class="cls-7" d="M362.208,119.366,410.361,68.28"/><path class="cls-7" d="M362.208,119.366l48.153-34.057"/><path class="cls-7" d="M362.208,102.337l48.153,51.087"/><path class="cls-7" d="M362.208,102.337,410.361,136.4"/><path class="cls-7" d="M362.208,102.337l48.153,17.029"/><path class="cls-7" d="M362.208,102.337h48.153"/><path class="cls-7" d="M362.208,102.337l48.153-68.115"/><path class="cls-7" d="M362.208,102.337l48.153-85.144"/><path class="cls-7" d="M362.208,102.337,410.361,51.25"/><path class="cls-7" d="M362.208,102.337,410.361,68.28"/><path class="cls-7" d="M362.208,102.337l48.153-17.029"/><path class="cls-7" d="M362.208,85.308l48.153-68.115"/><path class="cls-7" d="M362.208,85.308l48.153-51.086"/><path class="cls-7" d="M362.208,85.308l48.153-34.057"/><path class="cls-7" d="M362.208,85.308l48.153-17.029"/><path class="cls-7" d="M362.208,85.308,410.361,136.4"/><path class="cls-7" d="M362.208,85.308l48.153,68.115"/><path class="cls-7" d="M362.208,85.308l48.153,34.058"/><path class="cls-7" d="M362.208,85.308l48.153,17.03"/><path class="cls-7" d="M362.208,85.308h48.153"/><path class="cls-6" d="M419.992,17.193a4.815,4.815,0,1,0-4.815,4.815A4.817,4.817,0,0,0,419.992,17.193Z"/><path class="cls-6" d="M419.992,34.222a4.815,4.815,0,1,0-4.815,4.815A4.817,4.817,0,0,0,419.992,34.222Z"/><path class="cls-6" d="M419.992,51.251a4.815,4.815,0,1,0-4.815,4.815A4.817,4.817,0,0,0,419.992,51.251Z"/><path class="cls-6" d="M419.992,68.28a4.815,4.815,0,1,0-4.815,4.815A4.817,4.817,0,0,0,419.992,68.28Z"/><path class="cls-6" d="M419.992,85.308a4.815,4.815,0,1,0-4.815,4.816A4.817,4.817,0,0,0,419.992,85.308Z"/><path class="cls-6" d="M419.992,102.337a4.815,4.815,0,1,0-4.815,4.816A4.817,4.817,0,0,0,419.992,102.337Z"/><path class="cls-6" d="M419.992,119.366a4.815,4.815,0,1,0-4.815,4.816A4.817,4.817,0,0,0,419.992,119.366Z"/><path class="cls-6" d="M419.992,136.4a4.815,4.815,0,1,0-4.815,4.815A4.817,4.817,0,0,0,419.992,136.4Z"/><path class="cls-6" d="M419.992,153.424a4.815,4.815,0,1,0-4.815,4.815A4.817,4.817,0,0,0,419.992,153.424Z"/><path class="cls-7" d="M419.992,17.193h48.154"/><path class="cls-7" d="M419.992,17.193l48.154,17.029"/><path class="cls-7" d="M419.992,17.193,468.146,51.25"/><path class="cls-7" d="M419.992,17.193,468.146,68.28"/><path class="cls-7" d="M419.992,17.193l48.154,119.2"/><path class="cls-7" d="M419.992,34.222l48.154,119.2"/><path class="cls-7" d="M419.992,17.193l48.154,102.173"/><path class="cls-7" d="M419.992,17.193l48.154,85.144"/><path class="cls-7" d="M419.992,17.193l48.154,68.115"/><path class="cls-7" d="M419.992,34.222l48.154-17.029"/><path class="cls-7" d="M419.992,34.222h48.154"/><path class="cls-7" d="M419.992,34.222l48.154,17.029"/><path class="cls-7" d="M419.992,34.222,468.146,68.28"/><path class="cls-7" d="M419.992,34.222,468.146,136.4"/><path class="cls-7" d="M419.992,34.222l48.154,119.2"/><path class="cls-7" d="M419.992,34.222l48.154,85.144"/><path class="cls-7" d="M419.992,34.222l48.154,68.115"/><path class="cls-7" d="M419.992,34.222l48.154,51.087"/><path class="cls-7" d="M419.992,17.193l48.154,136.231"/><path class="cls-7" d="M419.992,51.251l48.154-34.058"/><path class="cls-7" d="M419.992,51.251l48.154-17.029"/><path class="cls-7" d="M419.992,51.251h48.154"/><path class="cls-7" d="M419.992,51.251l48.154,17.028"/><path class="cls-7" d="M419.992,51.251,468.146,136.4"/><path class="cls-7" d="M419.992,51.251l48.154,102.173"/><path class="cls-7" d="M419.992,51.251l48.154,68.115"/><path class="cls-7" d="M419.992,51.251l48.154,51.087"/><path class="cls-7" d="M419.992,51.251l48.154,34.057"/><path class="cls-7" d="M419.992,68.28l48.154-51.087"/><path class="cls-7" d="M419.992,68.28l48.154-34.058"/><path class="cls-7" d="M419.992,68.28l48.154-17.029"/><path class="cls-7" d="M419.992,68.28h48.154"/><path class="cls-7" d="M419.992,68.28,468.146,136.4"/><path class="cls-7" d="M419.992,68.28l48.154,85.144"/><path class="cls-7" d="M419.992,68.28l48.154,51.086"/><path class="cls-7" d="M419.992,68.28l48.154,34.057"/><path class="cls-7" d="M419.992,68.28l48.154,17.029"/><path class="cls-7" d="M419.992,153.424h48.154"/><path class="cls-7" d="M419.992,153.424,468.146,136.4"/><path class="cls-7" d="M419.992,153.424l48.154-34.058"/><path class="cls-7" d="M419.992,153.424l48.154-51.087"/><path class="cls-7" d="M419.992,153.424l48.154-119.2"/><path class="cls-7" d="M419.992,136.4l48.154-119.2"/><path class="cls-7" d="M419.992,153.424,468.146,51.251"/><path class="cls-7" d="M419.992,153.424,468.146,68.28"/><path class="cls-7" d="M419.992,153.424l48.154-68.115"/><path class="cls-7" d="M419.992,136.4l48.154,17.029"/><path class="cls-7" d="M419.992,136.4h48.154"/><path class="cls-7" d="M419.992,136.4l48.154-17.029"/><path class="cls-7" d="M419.992,136.4l48.154-34.058"/><path class="cls-7" d="M419.992,136.4,468.146,34.222"/><path class="cls-7" d="M419.992,136.4l48.154-119.2"/><path class="cls-7" d="M419.992,136.4,468.146,51.25"/><path class="cls-7" d="M419.992,136.4,468.146,68.28"/><path class="cls-7" d="M419.992,136.4l48.154-51.087"/><path class="cls-7" d="M419.992,153.424,468.146,17.193"/><path class="cls-7" d="M419.992,119.366l48.154,34.058"/><path class="cls-7" d="M419.992,119.366,468.146,136.4"/><path class="cls-7" d="M419.992,119.366h48.154"/><path class="cls-7" d="M419.992,119.366l48.154-17.029"/><path class="cls-7" d="M419.992,119.366l48.154-85.144"/><path class="cls-7" d="M419.992,119.366,468.146,17.193"/><path class="cls-7" d="M419.992,119.366l48.154-68.115"/><path class="cls-7" d="M419.992,119.366,468.146,68.28"/><path class="cls-7" d="M419.992,119.366l48.154-34.057"/><path class="cls-7" d="M419.992,102.337l48.154,51.087"/><path class="cls-7" d="M419.992,102.337,468.146,136.4"/><path class="cls-7" d="M419.992,102.337l48.154,17.029"/><path class="cls-7" d="M419.992,102.337h48.154"/><path class="cls-7" d="M419.992,102.337l48.154-68.115"/><path class="cls-7" d="M419.992,102.337l48.154-85.144"/><path class="cls-7" d="M419.992,102.337,468.146,51.25"/><path class="cls-7" d="M419.992,102.337,468.146,68.28"/><path class="cls-7" d="M419.992,102.337l48.154-17.029"/><path class="cls-7" d="M419.992,85.308l48.154-68.115"/><path class="cls-7" d="M419.992,85.308l48.154-51.086"/><path class="cls-7" d="M419.992,85.308l48.154-34.057"/><path class="cls-7" d="M419.992,85.308l48.154-17.029"/><path class="cls-7" d="M419.992,85.308,468.146,136.4"/><path class="cls-7" d="M419.992,85.308l48.154,68.115"/><path class="cls-7" d="M419.992,85.308l48.154,34.058"/><path class="cls-7" d="M419.992,85.308l48.154,17.03"/><path class="cls-7" d="M419.992,85.308h48.154"/><path class="cls-7" d="M477.775,17.193l48.153,17.029"/><path class="cls-7" d="M477.775,17.193,525.928,51.25"/><path class="cls-7" d="M477.775,17.193,525.928,68.28"/><path class="cls-7" d="M477.775,17.193l48.153,119.2"/><path class="cls-7" d="M477.775,17.193l48.153,102.173"/><path class="cls-7" d="M477.775,17.193l48.153,85.144"/><path class="cls-7" d="M477.775,17.193l48.153,68.115"/><path class="cls-7" d="M477.775,34.222h48.153"/><path class="cls-7" d="M477.775,34.222l48.153,17.029"/><path class="cls-7" d="M477.775,34.222,525.928,68.28"/><path class="cls-7" d="M477.775,34.222,525.928,136.4"/><path class="cls-7" d="M477.775,34.222l48.153,85.144"/><path class="cls-7" d="M477.775,34.222l48.153,68.115"/><path class="cls-7" d="M477.775,34.222l48.153,51.087"/><path class="cls-7" d="M477.775,51.251l48.153-17.029"/><path class="cls-7" d="M477.775,51.251h48.153"/><path class="cls-7" d="M477.775,51.251l48.153,17.028"/><path class="cls-7" d="M477.775,51.251,525.928,136.4"/><path class="cls-7" d="M477.775,51.251l48.153,68.115"/><path class="cls-7" d="M477.775,51.251l48.153,51.087"/><path class="cls-7" d="M477.775,51.251l48.153,34.057"/><path class="cls-7" d="M477.775,68.28l48.153-34.058"/><path class="cls-7" d="M477.775,68.28l48.153-17.029"/><path class="cls-7" d="M477.775,68.28h48.153"/><path class="cls-7" d="M477.775,68.28,525.928,136.4"/><path class="cls-7" d="M477.775,68.28l48.153,51.086"/><path class="cls-7" d="M477.775,68.28l48.153,34.057"/><path class="cls-7" d="M477.775,68.28l48.153,17.029"/><path class="cls-7" d="M477.775,153.424,525.928,136.4"/><path class="cls-7" d="M477.775,153.424l48.153-34.058"/><path class="cls-7" d="M477.775,153.424l48.153-51.087"/><path class="cls-7" d="M477.775,153.424l48.153-119.2"/><path class="cls-7" d="M477.775,153.424,525.928,51.251"/><path class="cls-7" d="M477.775,153.424,525.928,68.28"/><path class="cls-7" d="M477.775,153.424l48.153-68.115"/><path class="cls-7" d="M477.775,136.4h48.153"/><path class="cls-7" d="M477.775,136.4l48.153-17.029"/><path class="cls-7" d="M477.775,136.4l48.153-34.058"/><path class="cls-7" d="M477.775,136.4,525.928,34.222"/><path class="cls-7" d="M477.775,136.4,525.928,51.25"/><path class="cls-7" d="M477.775,136.4,525.928,68.28"/><path class="cls-7" d="M477.775,136.4l48.153-51.087"/><path class="cls-7" d="M477.775,119.366,525.928,136.4"/><path class="cls-7" d="M477.775,119.366h48.153"/><path class="cls-7" d="M477.775,119.366l48.153-17.029"/><path class="cls-7" d="M477.775,119.366l48.153-85.144"/><path class="cls-7" d="M477.775,119.366l48.153-68.115"/><path class="cls-7" d="M477.775,119.366,525.928,68.28"/><path class="cls-7" d="M477.775,119.366l48.153-34.057"/><path class="cls-7" d="M477.775,102.337,525.928,136.4"/><path class="cls-7" d="M477.775,102.337l48.153,17.029"/><path class="cls-7" d="M477.775,102.337h48.153"/><path class="cls-7" d="M477.775,102.337l48.153-68.115"/><path class="cls-7" d="M477.775,102.337,525.928,51.25"/><path class="cls-7" d="M477.775,102.337,525.928,68.28"/><path class="cls-7" d="M477.775,102.337l48.153-17.029"/><path class="cls-7" d="M477.775,85.308l48.153-51.086"/><path class="cls-7" d="M477.775,85.308l48.153-34.057"/><path class="cls-7" d="M477.775,85.308l48.153-17.029"/><path class="cls-7" d="M477.775,85.308,525.928,136.4"/><path class="cls-7" d="M477.775,85.308l48.153,34.058"/><path class="cls-7" d="M477.775,85.308l48.153,17.03"/><path class="cls-7" d="M477.775,85.308h48.153"/><path class="cls-7" d="M535.563,34.222l48.154,17.029"/><path class="cls-7" d="M535.563,34.222,583.717,68.28"/><path class="cls-7" d="M535.563,34.222l48.154,85.144"/><path class="cls-7" d="M535.563,34.222l48.154,68.115"/><path class="cls-7" d="M535.563,34.222l48.154,51.087"/><path class="cls-7" d="M535.563,51.251h48.154"/><path class="cls-7" d="M535.563,51.251l48.154,17.028"/><path class="cls-7" d="M535.563,51.251l48.154,68.115"/><path class="cls-7" d="M535.563,51.251l48.154,51.087"/><path class="cls-7" d="M535.563,51.251l48.154,34.057"/><path class="cls-7" d="M535.563,68.28l48.154-17.029"/><path class="cls-7" d="M535.563,68.28h48.154"/><path class="cls-7" d="M535.563,68.28l48.154,51.086"/><path class="cls-7" d="M535.563,68.28l48.154,34.057"/><path class="cls-7" d="M535.563,68.28l48.154,17.029"/><path class="cls-7" d="M535.563,136.4l48.154-17.029"/><path class="cls-7" d="M535.563,136.4l48.154-34.058"/><path class="cls-7" d="M535.563,136.4,583.717,51.25"/><path class="cls-7" d="M535.563,136.4,583.717,68.28"/><path class="cls-7" d="M535.563,136.4l48.154-51.087"/><path class="cls-7" d="M535.563,119.366h48.154"/><path class="cls-7" d="M535.563,119.366l48.154-17.029"/><path class="cls-7" d="M535.563,119.366l48.154-68.115"/><path class="cls-7" d="M535.563,119.366,583.717,68.28"/><path class="cls-7" d="M535.563,119.366l48.154-34.057"/><path class="cls-7" d="M535.563,102.337l48.154,17.029"/><path class="cls-7" d="M535.563,102.337h48.154"/><path class="cls-7" d="M535.563,102.337,583.717,51.25"/><path class="cls-7" d="M535.563,102.337,583.717,68.28"/><path class="cls-7" d="M535.563,102.337l48.154-17.029"/><path class="cls-7" d="M535.563,85.308l48.154-34.057"/><path class="cls-7" d="M535.563,85.308l48.154-17.029"/><path class="cls-7" d="M535.563,85.308l48.154,34.058"/><path class="cls-7" d="M535.563,85.308l48.154,17.03"/><path class="cls-7" d="M535.563,85.308h48.154"/><path class="cls-7" d="M593.344,51.251,641.5,76.794"/><path class="cls-7" d="M593.344,51.251,641.5,93.823"/><path class="cls-7" d="M593.344,68.28,641.5,76.794"/><path class="cls-7" d="M593.344,68.28,641.5,93.823"/><path class="cls-7" d="M593.344,119.366,641.5,93.823"/><path class="cls-7" d="M593.344,119.366,641.5,76.794"/><path class="cls-7" d="M593.344,102.337,641.5,93.823"/><path class="cls-7" d="M593.344,102.337,641.5,76.793"/><path class="cls-7" d="M593.344,85.308,641.5,76.794"/><path class="cls-7" d="M593.344,85.308,641.5,93.823"/><path class="cls-7" d="M651.128,76.794h11.6"/><path d="M661.877,78.043l4.66-1.249-4.66-1.249Z"/><path class="cls-7" d="M651.128,93.823h11.6"/><path d="M661.877,95.072l4.66-1.249-4.66-1.249Z"/><path class="cls-7" d="M221.6,17.193h11.6"/><path d="M232.347,18.442l4.66-1.249-4.66-1.249Z"/><path class="cls-7" d="M221.6,34.222h11.6"/><path d="M232.347,35.471l4.66-1.249-4.66-1.249Z"/><path class="cls-7" d="M221.6,51.251h11.6"/><path d="M232.347,52.5l4.66-1.25L232.347,50Z"/><path class="cls-7" d="M221.6,68.28h11.6"/><path d="M232.347,69.529l4.66-1.25-4.66-1.248Z"/><path class="cls-7" d="M221.6,85.308h11.6"/><path d="M232.347,86.557l4.66-1.249-4.66-1.249Z"/><path class="cls-7" d="M221.6,102.337h11.6"/><path d="M232.347,103.587l4.66-1.25-4.66-1.248Z"/><path class="cls-7" d="M221.6,119.366h11.6"/><path d="M232.347,120.615l4.66-1.249-4.66-1.249Z"/><path class="cls-7" d="M221.6,136.4h11.6"/><path d="M232.347,137.644l4.66-1.249-4.66-1.249Z"/><path class="cls-7" d="M221.6,153.424h11.6"/><path d="M232.347,154.673l4.66-1.249-4.66-1.249Z"/><path class="cls-7" d="M512.441,15.511,504.6,23.065"/><path d="M504.345,21.575l-2.49,4.132,4.224-2.333Z"/><polygon class="cls-8" points="154.126 45.557 133.886 73.674 154.883 82.85 174.979 54.576 154.126 45.557"/><polygon class="cls-8" points="154.883 117.686 133.685 108.519 133.886 73.674 154.883 82.85 154.883 117.686"/><polygon class="cls-8" points="174.979 89.678 154.883 117.686 154.883 82.85 174.979 54.576 174.979 89.678"/><line class="cls-9" x1="126.726" y1="48.503" x2="183.338" y2="28.328"/><line class="cls-9" x1="126.726" y1="48.503" x2="126.726" y2="137.26"/><line class="cls-9" x1="183.338" y1="28.328" x2="183.338" y2="117.085"/><line class="cls-9" x1="126.726" y1="137.26" x2="183.338" y2="117.085"/><polygon class="cls-9" points="154.126 45.557 133.886 73.674 133.685 108.519 154.883 117.686 174.979 89.678 174.979 54.576 154.126 45.557"/><line class="cls-10" x1="154.883" y1="82.85" x2="174.979" y2="54.576"/><line class="cls-10" x1="154.883" y1="82.85" x2="133.886" y2="73.674"/><line class="cls-10" x1="154.883" y1="117.686" x2="154.883" y2="82.85"/><g class="cls-4"><path class="cls-5" d="M664.584,100.322l.619.321a6.449,6.449,0,0,0,0,9.18l-.619.32a6.9,6.9,0,0,1,0-9.821Z"/><path class="cls-5" d="M669.239,102.86h-3.5v-.629h3.5Zm-.288,6.478h-2.136v.485h-.649v-3.456h2.785Zm-2.775-5.715h2.775v.609h-2.775Zm0,1.362h2.775v.619h-2.775Zm2.733-3.486h-2.671v-.619h2.671Zm-2.094,5.5v1.723H668.3V107Zm4.911.857a8.9,8.9,0,0,1-2.084,2.093,6.678,6.678,0,0,0-.557-.5,7.087,7.087,0,0,0,1.939-1.95Zm3.486-.547h-5.869v-.7h4.27v-1.279H670.5v.516h-.7v-4.208h.7v3.022h3.857V106.6h.857Zm-.536-3.455h-3.384v-3.033h3.384Zm-.712-2.383h-1.991V103.2h1.991Zm-.5,6.065a11.911,11.911,0,0,1,1.784,2.022l-.67.391a11.512,11.512,0,0,0-1.743-2.073Z"/><path class="cls-5" d="M679.713,102.86h-3.651v-.629h3.651Zm-.278,6.489h-2.281v.474h-.649v-3.456h2.93Zm-.011-5.117h-2.909v-.609h2.909Zm-2.909.753h2.909v.619h-2.909Zm2.878-3.486h-2.827v-.619h2.827Zm-2.239,5.5v1.733h1.62V107Zm2.352,2.023a4.158,4.158,0,0,0,.815-2.259l.619.154a4.377,4.377,0,0,1-.877,2.465Zm3.652-4.787a10.427,10.427,0,0,0-1.062-.66,4.064,4.064,0,0,1-1.878,1.867,2.482,2.482,0,0,0-.453-.537,3.5,3.5,0,0,0,1.712-1.639,12.978,12.978,0,0,0-1.341-.558l.382-.536c.38.124.794.3,1.206.475a6.943,6.943,0,0,0,.237-1.022h-1.732v-.66h4.919s0,.227-.009.32c-.093,2.424-.2,3.322-.454,3.62a.737.737,0,0,1-.609.3,9.355,9.355,0,0,1-1.207-.011,1.679,1.679,0,0,0-.2-.691c.464.042.9.042,1.062.042s.269-.011.33-.1c.176-.185.269-.908.351-2.816h-1.743a8.35,8.35,0,0,1-.319,1.331,11.28,11.28,0,0,1,1.185.681Zm.145,4.952c.267,0,.319-.145.35-1.176a1.844,1.844,0,0,0,.64.3c-.072,1.237-.259,1.547-.908,1.547H682.24c-.763,0-.949-.207-.949-.97v-2.476H682v2.476c0,.258.041.3.34.3Zm-1.383-4.158a7.3,7.3,0,0,1,1.836,1.341l-.475.506a7.987,7.987,0,0,0-1.8-1.393Zm2.559,1.547a7.092,7.092,0,0,1,1.165,2.455l-.67.279a7.572,7.572,0,0,0-1.115-2.486Z"/><path class="cls-5" d="M689.537,102.86h-3.156v-.629h3.156Zm-.237,6.478h-1.919v.485h-.609v-3.456H689.3Zm-.011-5.106H686.8v-.609h2.485Zm-2.485.753h2.485v.619H686.8Zm2.465-3.486h-2.424v-.619h2.424Zm-1.888,5.5v1.723h1.289V107Zm8.057-1.588a8.583,8.583,0,0,1-1.135,2.372c.185.846.443,1.331.794,1.362.174.01.3-.526.361-1.371a2.435,2.435,0,0,0,.5.4c-.185,1.413-.526,1.815-.877,1.8-.608-.032-1.011-.578-1.279-1.538a7.38,7.38,0,0,1-1.682,1.455,2.847,2.847,0,0,0-.432-.433,5.965,5.965,0,0,0,1.02-.764h-2.155v.558h-.609v-3.972h2.827v3.353a7.258,7.258,0,0,0,.866-.97,24.077,24.077,0,0,1-.278-3.022h-3.961v-.64h3.929c-.031-1.052-.041-2.207-.051-3.466h.67c-.01,1.27,0,2.435.032,3.466h1.743v.64h-1.723c.03.825.082,1.568.165,2.186a8.6,8.6,0,0,0,.691-1.732Zm-2.415-3.156h-3.352v-.609h1.341v-1.114h.712v1.114h1.3Zm-2.651,1.712a5.285,5.285,0,0,0-.288-1.5l.557-.124a5.236,5.236,0,0,1,.319,1.485Zm.176,1.888v.845h1.567v-.845Zm1.567,2.279v-.877h-1.567v.877Zm-.464-4.28a10.741,10.741,0,0,0,.351-1.558l.66.134c-.165.536-.319,1.155-.464,1.548Zm3.528-.764a6.365,6.365,0,0,0-1.021-1.846l.577-.237a6.6,6.6,0,0,1,1.074,1.8Z"/><path class="cls-5" d="M696.988,110.143l-.619-.32a6.451,6.451,0,0,0,0-9.18l.619-.321a6.9,6.9,0,0,1,0,9.821Z"/></g><polygon class="cls-11" points="123.843 84.891 106.089 74.591 106.089 80.505 76.628 80.505 76.628 89.276 106.089 89.276 106.089 95.19 123.843 84.891"/><polygon class="cls-11" points="219.546 84.891 201.792 74.591 201.792 80.505 188.414 80.505 188.414 89.276 201.792 89.276 201.792 95.19 219.546 84.891"/><g class="cls-4"><path class="cls-5" d="M89.67,101.149c-.01.372-.03.723-.051,1.063h2.454a3.791,3.791,0,0,0,.66-.051l.579.288a3.123,3.123,0,0,0-.052.506c-.041.99-.165,3.992-.629,4.983a1.071,1.071,0,0,1-1.1.628c-.526,0-1.125-.041-1.661-.072l-.1-.856a12.586,12.586,0,0,0,1.537.113.557.557,0,0,0,.6-.34,15.547,15.547,0,0,0,.527-4.425H89.536c-.371,2.96-1.444,4.528-3.167,5.714l-.753-.608a5.1,5.1,0,0,0,1.063-.764,6.64,6.64,0,0,0,2.043-4.342H86.988a11.074,11.074,0,0,0-1.186.041v-.877a10.867,10.867,0,0,0,1.177.062h1.815c.02-.33.041-.681.041-1.052a6.309,6.309,0,0,0-.072-.856h.969C89.7,100.541,89.681,100.9,89.67,101.149Z"/><path class="cls-5" d="M101.721,101.666a14.429,14.429,0,0,1-1.547,3.043,25.915,25.915,0,0,1,2.548,2.361l-.651.712a22.83,22.83,0,0,0-2.434-2.372,13.127,13.127,0,0,1-4.043,3.331l-.712-.649a11.446,11.446,0,0,0,4.095-3.239,32.123,32.123,0,0,0-2.909-2.083l.536-.651c.887.568,2.084,1.413,2.9,2.043a11.514,11.514,0,0,0,1.4-2.816,5.7,5.7,0,0,0,.206-.764l.95.33A5.5,5.5,0,0,0,101.721,101.666Z"/><path class="cls-5" d="M111.482,103.76a7.116,7.116,0,0,1-1.506,2.929,7.476,7.476,0,0,1-3.693,2.156l-.639-.733a6.875,6.875,0,0,0,3.63-1.887,5.274,5.274,0,0,0,1.228-2.28h-5.478c-.247,0-.638.01-1.01.032v-.868a9.578,9.578,0,0,0,1.01.063h5.437a1.365,1.365,0,0,0,.567-.083l.588.371A1.817,1.817,0,0,0,111.482,103.76Zm-5.611-2.971h4.054a6.451,6.451,0,0,0,.938-.052v.857c-.248-.022-.6-.031-.949-.031h-4.043c-.32,0-.65.009-.929.031v-.857A6.5,6.5,0,0,0,105.871,100.789Z"/></g><g class="cls-4"><path class="cls-5" d="M33.042,129.606v3.754H32.33v-3.527c-.608.186-1.2.371-1.7.526l-.206-.732c.526-.145,1.186-.32,1.908-.547v-2.3h-.938a8.241,8.241,0,0,1-.454,1.528,3.57,3.57,0,0,0-.588-.341,12.116,12.116,0,0,0,.712-3.435l.669.114c-.05.463-.123.938-.2,1.392h.794v-2.094h.712v2.094h1.052v.742H33.042v2.1l1.2-.371.1.68Zm6.746-3.951s0,.3-.011.392c-.226,4.673-.454,6.271-.866,6.788a.89.89,0,0,1-.712.392,6.335,6.335,0,0,1-1.176,0,1.672,1.672,0,0,0-.216-.753c.464.041.877.051,1.083.051a.435.435,0,0,0,.381-.175c.331-.362.557-1.888.764-5.973H38.54c-.517,2.7-1.65,5.447-3.363,6.809a2.331,2.331,0,0,0-.64-.465c1.692-1.217,2.806-3.754,3.343-6.344h-.847A10.025,10.025,0,0,1,34.5,131.05a2.538,2.538,0,0,0-.608-.444,8.718,8.718,0,0,0,2.485-4.229h-.887a8.467,8.467,0,0,1-1.175,1.96,5.315,5.315,0,0,0-.588-.443,8.807,8.807,0,0,0,1.8-3.961l.7.144a14.834,14.834,0,0,1-.454,1.578Z"/><path class="cls-5" d="M43.67,124.19a17.354,17.354,0,0,1-.918,2.177v6.973H42.02v-5.7a11.366,11.366,0,0,1-.877,1.186,5.737,5.737,0,0,0-.444-.753,12.022,12.022,0,0,0,2.259-4.095Zm3.889,2.559a10.252,10.252,0,0,0,2.785,4.332,2.681,2.681,0,0,0-.578.608,11.606,11.606,0,0,1-2.7-4.517v3.579h1.661v.7H47.063V133.3H46.32v-1.847H44.64v-.7h1.68v-3.507a11.884,11.884,0,0,1-2.733,4.466,3.709,3.709,0,0,0-.557-.577,10.556,10.556,0,0,0,2.826-4.384H43.433v-.743H46.32v-2.032h.743v2.032h3.074v.743Z"/></g><polygon class="cls-11" points="80.986 50.55 87.081 48.11 85.591 46.944 91.401 39.524 89.192 37.794 83.382 45.214 81.893 44.048 80.986 50.55"/><polygon class="cls-11" points="73.66 44.815 79.755 42.374 78.266 41.208 84.076 33.788 81.866 32.058 76.057 39.479 74.567 38.312 73.66 44.815"/><polygon class="cls-11" points="66.335 39.079 72.43 36.639 70.941 35.473 76.75 28.053 74.541 26.323 68.732 33.743 67.242 32.577 66.335 39.079"/><g class="cls-4"><path class="cls-5" d="M86.668,30.387a9.722,9.722,0,0,0,1.352-2.115l.721.207A11.538,11.538,0,0,1,87.4,30.717Zm1.237-2.311h-.721V21.681h2.981V27.55h-2.26Zm0-5.7v1.8h1.548v-1.8Zm1.548,4.487V24.848H87.905v2.011Zm.97,1.63a13.477,13.477,0,0,1,.258,2.022l-.753.113a12.123,12.123,0,0,0-.217-2.053Zm2.661-6.137A2.948,2.948,0,0,1,90.711,24.9a2.2,2.2,0,0,0-.412-.577,2.4,2.4,0,0,0,2.032-1.97H90.618v-.681h5.066s-.011.2-.022.3c-.093,1.485-.185,2.094-.412,2.331a.776.776,0,0,1-.6.237,8.7,8.7,0,0,1-1.155-.01,1.607,1.607,0,0,0-.206-.629c.454.041.877.051,1.031.051a.4.4,0,0,0,.321-.093c.123-.133.206-.536.278-1.5ZM95.4,27.88H90.918V25.044H95.4Zm-.753-2.207h-3v1.568h3ZM92.619,28.4a11.605,11.605,0,0,1,.671,2.032l-.753.176a12.665,12.665,0,0,0-.629-2.063Zm2.064-.206a14.869,14.869,0,0,1,1.34,2.156l-.732.33A13.8,13.8,0,0,0,94,28.479Z"/><path class="cls-5" d="M98.09,27.983v.95h-.722V21.877h3.362v6.106Zm0-5.415v1.95h1.929v-1.95Zm1.929,4.7V25.219H98.09v2.052Zm6.024,2.373c0,.485-.1.722-.434.856a6.5,6.5,0,0,1-1.774.134,2.652,2.652,0,0,0-.288-.742c.67.02,1.32.01,1.485.01.2-.01.268-.072.268-.258V27.375h-3.043a5.258,5.258,0,0,1-1.918,3.352,3.013,3.013,0,0,0-.568-.526c1.733-1.33,1.909-3.27,1.909-4.868V21.681h4.363Zm-.743-2.971v-1.8h-2.878v.465a12,12,0,0,1-.062,1.34Zm-2.878-4.27v1.764H105.3V22.4Z"/></g></svg>