<svg id="レイヤー_1" data-name="レイヤー 1" xmlns="http://www.w3.org/2000/svg" viewBox="0 0 718 167"><defs><style>.cls-1{fill:#898989;}.cls-1,.cls-10,.cls-2,.cls-3,.cls-9{stroke:#231815;}.cls-1,.cls-2{stroke-miterlimit:1;}.cls-1,.cls-2,.cls-3{stroke-width:0.413px;}.cls-2{fill:#595757;}.cls-3{fill:#b5b5b6;}.cls-10,.cls-3,.cls-9{stroke-miterlimit:10;}.cls-4{isolation:isolate;}.cls-5{fill:#5b0000;}.cls-10,.cls-6,.cls-7,.cls-9{fill:none;}.cls-6,.cls-7{stroke:#000;stroke-miterlimit:9.999;}.cls-6{stroke-width:0.86px;}.cls-7{stroke-width:0.43px;}.cls-8{fill:#e3e3e3;}.cls-9{stroke-width:0.642px;}.cls-10{stroke-width:0.214px;}.cls-11{fill:red;opacity:0.55;}</style></defs><polygon class="cls-1" points="7.091 66.109 7.091 101.146 40.251 117.831 40.251 82.794 7.091 66.109"/><polygon class="cls-2" points="40.251 82.794 40.251 117.831 71.951 96.767 71.951 61.73 40.251 82.794"/><polygon class="cls-3" points="7.091 66.109 40.251 82.794 71.951 61.73 38.791 45.045 7.091 66.109"/><g class="cls-4"><path class="cls-5" d="M149.431,140.169v-7.387h.977v7.387Z"/><path class="cls-5" d="M152.017,140.169v-5.351h.81v.751a1.908,1.908,0,0,1,.67-.632,1.881,1.881,0,0,1,.952-.24,1.76,1.76,0,0,1,.976.247,1.32,1.32,0,0,1,.536.691,1.924,1.924,0,0,1,1.653-.938,1.627,1.627,0,0,1,1.224.441,1.883,1.883,0,0,1,.429,1.358v3.673h-.9V136.8a2.478,2.478,0,0,0-.088-.783.755.755,0,0,0-.32-.386,1,1,0,0,0-.544-.146,1.264,1.264,0,0,0-.936.375,1.654,1.654,0,0,0-.373,1.2v3.108H155.2v-3.477a1.537,1.537,0,0,0-.221-.907.842.842,0,0,0-.726-.3,1.323,1.323,0,0,0-.708.2,1.144,1.144,0,0,0-.471.589,3.334,3.334,0,0,0-.146,1.119v2.776Z"/><path class="cls-5" d="M164.1,139.509a3.362,3.362,0,0,1-.97.6,2.8,2.8,0,0,1-1,.177,1.948,1.948,0,0,1-1.356-.431,1.42,1.42,0,0,1-.473-1.1,1.485,1.485,0,0,1,.647-1.239,2.2,2.2,0,0,1,.653-.3,6.464,6.464,0,0,1,.8-.137,8.262,8.262,0,0,0,1.618-.312c0-.125.005-.2.005-.237a1,1,0,0,0-.257-.781,1.523,1.523,0,0,0-1.033-.307,1.594,1.594,0,0,0-.944.224,1.357,1.357,0,0,0-.451.794l-.887-.121a2.2,2.2,0,0,1,.4-.92,1.747,1.747,0,0,1,.8-.539,3.57,3.57,0,0,1,1.214-.189,3.22,3.22,0,0,1,1.113.161,1.476,1.476,0,0,1,.63.406,1.413,1.413,0,0,1,.282.617,5,5,0,0,1,.046.837v1.209a12.735,12.735,0,0,0,.058,1.6,2.006,2.006,0,0,0,.229.643h-.947A1.888,1.888,0,0,1,164.1,139.509Zm-.076-2.026a6.624,6.624,0,0,1-1.481.343,3.38,3.38,0,0,0-.791.182.769.769,0,0,0-.484.725.77.77,0,0,0,.275.6,1.18,1.18,0,0,0,.8.241,1.879,1.879,0,0,0,.932-.228,1.419,1.419,0,0,0,.6-.628,2.178,2.178,0,0,0,.146-.907Z"/><path class="cls-5" d="M166.184,140.612l.881.131a.843.843,0,0,0,.308.595,1.509,1.509,0,0,0,.922.252,1.622,1.622,0,0,0,.973-.252,1.237,1.237,0,0,0,.462-.7,5.666,5.666,0,0,0,.066-1.164,1.864,1.864,0,0,1-1.481.7,2.021,2.021,0,0,1-1.708-.8,3.066,3.066,0,0,1-.6-1.91,3.565,3.565,0,0,1,.276-1.413,2.216,2.216,0,0,1,.8-1,2.167,2.167,0,0,1,1.237-.353,1.917,1.917,0,0,1,1.562.766v-.645h.837v4.625a4.385,4.385,0,0,1-.255,1.772,1.861,1.861,0,0,1-.806.823,2.8,2.8,0,0,1-1.358.3,2.563,2.563,0,0,1-1.547-.431A1.457,1.457,0,0,1,166.184,140.612Zm.751-3.215a2.323,2.323,0,0,0,.418,1.538,1.38,1.38,0,0,0,2.095,0,2.252,2.252,0,0,0,.424-1.51,2.2,2.2,0,0,0-.435-1.482,1.351,1.351,0,0,0-1.051-.5,1.309,1.309,0,0,0-1.029.491A2.183,2.183,0,0,0,166.935,137.4Z"/><path class="cls-5" d="M175.751,138.446l.937.116a2.279,2.279,0,0,1-.821,1.274,2.779,2.779,0,0,1-3.393-.27,2.823,2.823,0,0,1-.688-2.027,2.959,2.959,0,0,1,.695-2.1,2.355,2.355,0,0,1,1.8-.746,2.282,2.282,0,0,1,1.753.731,2.9,2.9,0,0,1,.681,2.055c0,.054,0,.135,0,.243h-3.99a2.048,2.048,0,0,0,.5,1.349,1.483,1.483,0,0,0,1.119.469,1.385,1.385,0,0,0,.851-.262A1.742,1.742,0,0,0,175.751,138.446Zm-2.978-1.467h2.989a1.824,1.824,0,0,0-.343-1.012,1.389,1.389,0,0,0-1.124-.524,1.438,1.438,0,0,0-1.05.418A1.659,1.659,0,0,0,172.773,136.979Z"/><path class="cls-5" d="M184.165,140.169v-.675a1.665,1.665,0,0,1-1.5.8,2.11,2.11,0,0,1-1.177-.352,2.326,2.326,0,0,1-.831-.986,3.412,3.412,0,0,1-.295-1.453,3.789,3.789,0,0,1,.268-1.454,2.1,2.1,0,0,1,.8-1,2.135,2.135,0,0,1,1.194-.348,1.78,1.78,0,0,1,1.475.736v-2.651h.9v7.387ZM181.3,137.5a2.321,2.321,0,0,0,.432,1.536,1.307,1.307,0,0,0,1.024.509,1.286,1.286,0,0,0,1.01-.486,2.244,2.244,0,0,0,.416-1.484,2.517,2.517,0,0,0-.424-1.612,1.3,1.3,0,0,0-1.043-.514,1.258,1.258,0,0,0-1.01.493A2.444,2.444,0,0,0,181.3,137.5Z"/><path class="cls-5" d="M189.925,139.509a3.349,3.349,0,0,1-.97.6,2.79,2.79,0,0,1-1,.177,1.944,1.944,0,0,1-1.355-.431,1.418,1.418,0,0,1-.474-1.1,1.492,1.492,0,0,1,.647-1.239,2.21,2.21,0,0,1,.653-.3,6.5,6.5,0,0,1,.805-.137,8.291,8.291,0,0,0,1.619-.312c0-.125,0-.2,0-.237a1,1,0,0,0-.256-.781,1.527,1.527,0,0,0-1.034-.307,1.6,1.6,0,0,0-.944.224,1.362,1.362,0,0,0-.451.794l-.887-.121a2.189,2.189,0,0,1,.4-.92,1.738,1.738,0,0,1,.8-.539,3.57,3.57,0,0,1,1.214-.189,3.23,3.23,0,0,1,1.114.161,1.466,1.466,0,0,1,.629.406,1.426,1.426,0,0,1,.283.617,5.117,5.117,0,0,1,.046.837v1.209a12.815,12.815,0,0,0,.057,1.6,1.985,1.985,0,0,0,.23.643h-.948A1.91,1.91,0,0,1,189.925,139.509Zm-.075-2.026a6.636,6.636,0,0,1-1.482.343,3.38,3.38,0,0,0-.791.182.792.792,0,0,0-.209,1.33,1.18,1.18,0,0,0,.8.241,1.883,1.883,0,0,0,.933-.228,1.422,1.422,0,0,0,.6-.628,2.176,2.176,0,0,0,.147-.907Z"/><path class="cls-5" d="M194.151,139.357l.131.8a3.333,3.333,0,0,1-.684.08,1.546,1.546,0,0,1-.767-.156.874.874,0,0,1-.383-.41,3.285,3.285,0,0,1-.11-1.071v-3.079h-.665v-.7h.665v-1.325l.9-.544v1.869h.912v.7h-.912v3.129a1.608,1.608,0,0,0,.048.5.37.37,0,0,0,.156.176.6.6,0,0,0,.311.066A2.881,2.881,0,0,0,194.151,139.357Z"/><path class="cls-5" d="M198.53,139.509a3.358,3.358,0,0,1-.969.6,2.8,2.8,0,0,1-1,.177,1.948,1.948,0,0,1-1.356-.431,1.421,1.421,0,0,1-.474-1.1,1.489,1.489,0,0,1,.648-1.239,2.192,2.192,0,0,1,.652-.3,6.521,6.521,0,0,1,.806-.137,8.293,8.293,0,0,0,1.618-.312c0-.125,0-.2,0-.237a1,1,0,0,0-.257-.781,1.523,1.523,0,0,0-1.033-.307,1.594,1.594,0,0,0-.944.224,1.357,1.357,0,0,0-.452.794l-.886-.121a2.2,2.2,0,0,1,.4-.92,1.741,1.741,0,0,1,.8-.539,3.57,3.57,0,0,1,1.214-.189,3.22,3.22,0,0,1,1.113.161,1.476,1.476,0,0,1,.63.406,1.425,1.425,0,0,1,.282.617,5.117,5.117,0,0,1,.046.837v1.209a12.735,12.735,0,0,0,.058,1.6,2.006,2.006,0,0,0,.229.643h-.947A1.91,1.91,0,0,1,198.53,139.509Zm-.075-2.026a6.624,6.624,0,0,1-1.481.343,3.38,3.38,0,0,0-.791.182.791.791,0,0,0-.209,1.33,1.177,1.177,0,0,0,.8.241,1.88,1.88,0,0,0,.933-.228,1.424,1.424,0,0,0,.6-.628,2.195,2.195,0,0,0,.146-.907Z"/></g><g class="cls-4"><path class="cls-5" d="M668.3,88.761v-8.59h1.137V83.7H673.9V80.171h1.137v8.59H673.9V84.712h-4.464v4.049Z"/><path class="cls-5" d="M681.053,86.757l1.09.135a2.667,2.667,0,0,1-.955,1.482,3.239,3.239,0,0,1-3.947-.313,3.288,3.288,0,0,1-.8-2.359,3.437,3.437,0,0,1,.809-2.437,2.738,2.738,0,0,1,2.1-.868,2.663,2.663,0,0,1,2.039.85,3.376,3.376,0,0,1,.791,2.391c0,.062,0,.156-.006.281h-4.641a2.392,2.392,0,0,0,.58,1.57,1.726,1.726,0,0,0,1.3.545,1.606,1.606,0,0,0,.99-.305A2.017,2.017,0,0,0,681.053,86.757Zm-3.463-1.7h3.474a2.1,2.1,0,0,0-.4-1.178,1.616,1.616,0,0,0-1.307-.609,1.675,1.675,0,0,0-1.221.486A1.925,1.925,0,0,0,677.59,85.052Z"/><path class="cls-5" d="M682.764,88.761l2.273-3.235-2.1-2.988h1.318L685.207,84c.18.277.324.51.434.7.172-.257.33-.486.474-.685l1.049-1.471h1.26l-2.151,2.93,2.315,3.293h-1.295l-1.277-1.934-.34-.521-1.635,2.455Z"/><path class="cls-5" d="M693.527,87.993a3.9,3.9,0,0,1-1.128.7,3.252,3.252,0,0,1-1.163.2,2.262,2.262,0,0,1-1.576-.5,1.653,1.653,0,0,1-.551-1.28,1.733,1.733,0,0,1,.753-1.441,2.552,2.552,0,0,1,.759-.346,7.536,7.536,0,0,1,.938-.158,9.718,9.718,0,0,0,1.88-.363q.006-.217.006-.276a1.161,1.161,0,0,0-.3-.908,1.764,1.764,0,0,0-1.2-.357,1.859,1.859,0,0,0-1.1.26,1.6,1.6,0,0,0-.525.923l-1.031-.141a2.56,2.56,0,0,1,.463-1.069,2.035,2.035,0,0,1,.932-.627,4.166,4.166,0,0,1,1.412-.22,3.738,3.738,0,0,1,1.3.188,1.7,1.7,0,0,1,.732.472,1.651,1.651,0,0,1,.328.717,5.953,5.953,0,0,1,.053.973v1.406a14.95,14.95,0,0,0,.067,1.861,2.358,2.358,0,0,0,.267.747h-1.1A2.265,2.265,0,0,1,693.527,87.993Zm-.088-2.355a7.725,7.725,0,0,1-1.722.4,4.017,4.017,0,0,0-.92.211.913.913,0,0,0-.416.343.93.93,0,0,0,.173,1.2,1.375,1.375,0,0,0,.934.281,2.179,2.179,0,0,0,1.084-.266,1.644,1.644,0,0,0,.7-.73,2.555,2.555,0,0,0,.169-1.055Z"/><path class="cls-5" d="M695.947,89.276l1.026.153a.977.977,0,0,0,.357.691,1.758,1.758,0,0,0,1.072.293,1.883,1.883,0,0,0,1.131-.293,1.436,1.436,0,0,0,.539-.82,6.713,6.713,0,0,0,.076-1.354,2.168,2.168,0,0,1-1.722.815,2.35,2.35,0,0,1-1.987-.926,3.569,3.569,0,0,1-.7-2.221,4.131,4.131,0,0,1,.323-1.643,2.57,2.57,0,0,1,.934-1.163,2.52,2.52,0,0,1,1.439-.411,2.231,2.231,0,0,1,1.816.891v-.75h.973v5.379a5.11,5.11,0,0,1-.3,2.06,2.167,2.167,0,0,1-.938.958,3.251,3.251,0,0,1-1.579.351,2.979,2.979,0,0,1-1.8-.5A1.7,1.7,0,0,1,695.947,89.276Zm.873-3.738a2.7,2.7,0,0,0,.487,1.787,1.6,1.6,0,0,0,2.437,0,2.612,2.612,0,0,0,.492-1.755,2.549,2.549,0,0,0-.507-1.722,1.564,1.564,0,0,0-1.221-.58,1.521,1.521,0,0,0-1.2.571A2.532,2.532,0,0,0,696.82,85.538Z"/><path class="cls-5" d="M702.422,85.649a3.206,3.206,0,0,1,.961-2.56,2.894,2.894,0,0,1,1.957-.692,2.8,2.8,0,0,1,2.1.841,3.2,3.2,0,0,1,.814,2.324,4.119,4.119,0,0,1-.36,1.889,2.558,2.558,0,0,1-1.049,1.07,3.063,3.063,0,0,1-1.5.38,2.8,2.8,0,0,1-2.112-.838A3.342,3.342,0,0,1,702.422,85.649Zm1.084,0a2.653,2.653,0,0,0,.521,1.79,1.737,1.737,0,0,0,2.619,0,2.713,2.713,0,0,0,.522-1.823,2.576,2.576,0,0,0-.524-1.749,1.741,1.741,0,0,0-2.617,0A2.644,2.644,0,0,0,703.506,85.649Z"/><path class="cls-5" d="M709.488,88.761V82.538h.95v.885a2.236,2.236,0,0,1,1.98-1.026,2.592,2.592,0,0,1,1.034.2,1.614,1.614,0,0,1,.706.53,2.03,2.03,0,0,1,.328.779,6.034,6.034,0,0,1,.059,1.026v3.826H713.49V84.976a2.842,2.842,0,0,0-.123-.964,1.013,1.013,0,0,0-.436-.51,1.388,1.388,0,0,0-.736-.19,1.709,1.709,0,0,0-1.163.427,2.11,2.11,0,0,0-.489,1.623v3.4Z"/></g><g class="cls-4"><path class="cls-5" d="M657.937,57.678V50.52h3.173a4.213,4.213,0,0,1,1.455.193,1.584,1.584,0,0,1,.8.681,2.026,2.026,0,0,1,.3,1.079,1.8,1.8,0,0,1-.493,1.284,2.5,2.5,0,0,1-1.523.664,2.434,2.434,0,0,1,.571.356,4.96,4.96,0,0,1,.786.952l1.245,1.949h-1.191l-.948-1.49q-.414-.644-.683-.986a2.111,2.111,0,0,0-.482-.478,1.414,1.414,0,0,0-.431-.191,2.928,2.928,0,0,0-.528-.034h-1.1v3.179Zm.947-4h2.036a3.074,3.074,0,0,0,1.016-.134,1.083,1.083,0,0,0,.556-.43,1.163,1.163,0,0,0,.191-.642,1.064,1.064,0,0,0-.369-.835,1.726,1.726,0,0,0-1.165-.327h-2.265Z"/><path class="cls-5" d="M668.581,56.008l.908.112a2.209,2.209,0,0,1-.8,1.235,2.694,2.694,0,0,1-3.288-.261,2.734,2.734,0,0,1-.667-1.965,2.865,2.865,0,0,1,.674-2.031,2.28,2.28,0,0,1,1.748-.723,2.215,2.215,0,0,1,1.7.708,2.811,2.811,0,0,1,.66,1.992c0,.052,0,.13,0,.235h-3.868a1.994,1.994,0,0,0,.484,1.308,1.438,1.438,0,0,0,1.084.454,1.345,1.345,0,0,0,.825-.254A1.686,1.686,0,0,0,668.581,56.008ZM665.7,54.587h2.9a1.758,1.758,0,0,0-.332-.982,1.348,1.348,0,0,0-1.089-.507,1.4,1.4,0,0,0-1.019.405A1.612,1.612,0,0,0,665.7,54.587Z"/><path class="cls-5" d="M673.977,55.778l.864.113a2.237,2.237,0,0,1-.726,1.4,2.1,2.1,0,0,1-1.432.506,2.229,2.229,0,0,1-1.712-.7,2.828,2.828,0,0,1-.647-2,3.6,3.6,0,0,1,.279-1.469,1.944,1.944,0,0,1,.846-.946,2.527,2.527,0,0,1,1.239-.314,2.149,2.149,0,0,1,1.381.428,1.95,1.95,0,0,1,.689,1.213l-.855.131a1.416,1.416,0,0,0-.432-.786,1.119,1.119,0,0,0-.749-.263,1.361,1.361,0,0,0-1.079.476,2.258,2.258,0,0,0-.415,1.506,2.339,2.339,0,0,0,.4,1.519,1.3,1.3,0,0,0,1.045.473,1.229,1.229,0,0,0,.864-.317A1.572,1.572,0,0,0,673.977,55.778Z"/><path class="cls-5" d="M675.266,55.085a2.673,2.673,0,0,1,.8-2.134,2.416,2.416,0,0,1,1.631-.576,2.323,2.323,0,0,1,1.748.7,2.667,2.667,0,0,1,.679,1.936,3.443,3.443,0,0,1-.3,1.574,2.131,2.131,0,0,1-.875.892,2.549,2.549,0,0,1-1.252.317,2.327,2.327,0,0,1-1.759-.7A2.784,2.784,0,0,1,675.266,55.085Zm.9,0a2.2,2.2,0,0,0,.435,1.491,1.446,1.446,0,0,0,2.182,0,2.258,2.258,0,0,0,.435-1.518,2.14,2.14,0,0,0-.438-1.458,1.448,1.448,0,0,0-2.179,0A2.192,2.192,0,0,0,676.169,55.085Z"/><path class="cls-5" d="M680.993,58.107l.855.127a.813.813,0,0,0,.3.577,1.457,1.457,0,0,0,.893.244,1.565,1.565,0,0,0,.942-.244,1.2,1.2,0,0,0,.45-.684A5.613,5.613,0,0,0,684.494,57a1.808,1.808,0,0,1-1.435.679,1.957,1.957,0,0,1-1.656-.772,2.973,2.973,0,0,1-.586-1.85,3.445,3.445,0,0,1,.269-1.37,2.144,2.144,0,0,1,.778-.969,2.1,2.1,0,0,1,1.2-.342,1.857,1.857,0,0,1,1.514.742v-.625h.811v4.483a4.26,4.26,0,0,1-.246,1.716,1.813,1.813,0,0,1-.782.8,2.7,2.7,0,0,1-1.316.293,2.485,2.485,0,0,1-1.5-.417A1.413,1.413,0,0,1,680.993,58.107Zm.728-3.115a2.242,2.242,0,0,0,.4,1.489,1.337,1.337,0,0,0,2.031,0,2.174,2.174,0,0,0,.41-1.463,2.129,2.129,0,0,0-.421-1.435,1.311,1.311,0,0,0-1.019-.483,1.27,1.27,0,0,0-1,.475A2.114,2.114,0,0,0,681.721,54.992Z"/><path class="cls-5" d="M686.716,57.678V52.492h.791v.737a1.865,1.865,0,0,1,1.65-.854,2.2,2.2,0,0,1,.863.168,1.358,1.358,0,0,1,.587.442,1.7,1.7,0,0,1,.274.65,5.082,5.082,0,0,1,.049.854v3.189h-.879V54.523a2.336,2.336,0,0,0-.1-.8.841.841,0,0,0-.364-.426,1.153,1.153,0,0,0-.612-.158,1.43,1.43,0,0,0-.97.356,1.758,1.758,0,0,0-.407,1.353v2.832Z"/><path class="cls-5" d="M692.282,51.53V50.52h.879v1.01Zm0,6.148V52.492h.879v5.186Z"/><path class="cls-5" d="M696.418,56.892l.127.776a3.264,3.264,0,0,1-.664.078,1.511,1.511,0,0,1-.742-.151.845.845,0,0,1-.371-.4,3.134,3.134,0,0,1-.108-1.038V53.176h-.644v-.684h.644V51.208l.874-.527v1.811h.884v.684h-.884v3.032a1.558,1.558,0,0,0,.046.483.365.365,0,0,0,.152.171.587.587,0,0,0,.3.064A2.981,2.981,0,0,0,696.418,56.892Z"/><path class="cls-5" d="M697.282,51.53V50.52h.879v1.01Zm0,6.148V52.492h.879v5.186Z"/><path class="cls-5" d="M699.172,55.085a2.67,2.67,0,0,1,.8-2.134,2.413,2.413,0,0,1,1.631-.576,2.326,2.326,0,0,1,1.748.7,2.666,2.666,0,0,1,.678,1.936,3.43,3.43,0,0,1-.3,1.574,2.131,2.131,0,0,1-.875.892,2.542,2.542,0,0,1-1.251.317,2.327,2.327,0,0,1-1.76-.7A2.788,2.788,0,0,1,699.172,55.085Zm.9,0a2.2,2.2,0,0,0,.435,1.491,1.446,1.446,0,0,0,2.182,0,2.258,2.258,0,0,0,.435-1.518,2.14,2.14,0,0,0-.438-1.458,1.448,1.448,0,0,0-2.179,0A2.2,2.2,0,0,0,700.075,55.085Z"/><path class="cls-5" d="M705.061,57.678V52.492h.791v.737a1.863,1.863,0,0,1,1.65-.854,2.19,2.19,0,0,1,.862.168,1.361,1.361,0,0,1,.588.442,1.7,1.7,0,0,1,.274.65,5.112,5.112,0,0,1,.048.854v3.189H708.4V54.523a2.361,2.361,0,0,0-.1-.8.841.841,0,0,0-.364-.426,1.154,1.154,0,0,0-.613-.158,1.427,1.427,0,0,0-.969.356,1.758,1.758,0,0,0-.408,1.353v2.832Z"/><path class="cls-5" d="M657.8,69.678V64.492h.791v.786a2.139,2.139,0,0,1,.559-.727.976.976,0,0,1,.564-.176,1.718,1.718,0,0,1,.9.283l-.3.816a1.253,1.253,0,0,0-.644-.191.838.838,0,0,0-.518.174.938.938,0,0,0-.327.481,3.44,3.44,0,0,0-.146,1.025v2.715Z"/><path class="cls-5" d="M664.689,68.008l.909.112a2.22,2.22,0,0,1-.8,1.235,2.394,2.394,0,0,1-1.485.44,2.365,2.365,0,0,1-1.8-.7,2.73,2.73,0,0,1-.667-1.965,2.861,2.861,0,0,1,.674-2.031,2.28,2.28,0,0,1,1.748-.723,2.218,2.218,0,0,1,1.7.708,2.815,2.815,0,0,1,.659,1.992c0,.052,0,.13,0,.235h-3.867a1.988,1.988,0,0,0,.483,1.308,1.44,1.44,0,0,0,1.084.454,1.343,1.343,0,0,0,.825-.254A1.679,1.679,0,0,0,664.689,68.008ZM661.8,66.587H664.7a1.75,1.75,0,0,0-.332-.982,1.347,1.347,0,0,0-1.089-.507,1.394,1.394,0,0,0-1.018.405A1.6,1.6,0,0,0,661.8,66.587Z"/><path class="cls-5" d="M666.35,68.13l.869-.137a1.215,1.215,0,0,0,.407.8,1.428,1.428,0,0,0,.936.278,1.375,1.375,0,0,0,.9-.246.739.739,0,0,0,.293-.579.535.535,0,0,0-.259-.469,3.838,3.838,0,0,0-.9-.3,8.372,8.372,0,0,1-1.341-.421,1.281,1.281,0,0,1-.759-1.19,1.334,1.334,0,0,1,.159-.642,1.416,1.416,0,0,1,.432-.491,1.836,1.836,0,0,1,.559-.256,2.657,2.657,0,0,1,.759-.105,3.013,3.013,0,0,1,1.073.176,1.453,1.453,0,0,1,.68.476,1.862,1.862,0,0,1,.3.8l-.859.117a.947.947,0,0,0-.339-.625,1.249,1.249,0,0,0-.794-.224,1.436,1.436,0,0,0-.865.2.585.585,0,0,0-.258.469.486.486,0,0,0,.107.307.769.769,0,0,0,.337.235q.132.048.776.224a10.775,10.775,0,0,1,1.3.408,1.317,1.317,0,0,1,.578.461,1.287,1.287,0,0,1,.21.752,1.469,1.469,0,0,1-.257.828,1.651,1.651,0,0,1-.739.6,2.666,2.666,0,0,1-1.094.213,2.436,2.436,0,0,1-1.54-.42A1.951,1.951,0,0,1,666.35,68.13Z"/><path class="cls-5" d="M675.1,69.678v-.762a1.9,1.9,0,0,1-1.646.879,2.1,2.1,0,0,1-.857-.176,1.415,1.415,0,0,1-.59-.441,1.66,1.66,0,0,1-.272-.653,4.455,4.455,0,0,1-.053-.82V64.492h.879v2.876a5.127,5.127,0,0,0,.053.928.917.917,0,0,0,.352.544,1.081,1.081,0,0,0,.664.2,1.445,1.445,0,0,0,.742-.2,1.117,1.117,0,0,0,.49-.553,2.738,2.738,0,0,0,.145-1.012V64.492h.879v5.186Z"/><path class="cls-5" d="M677.243,69.678V62.52h.879v7.158Z"/><path class="cls-5" d="M681.4,68.892l.127.776a3.256,3.256,0,0,1-.664.078,1.514,1.514,0,0,1-.742-.151.845.845,0,0,1-.371-.4,3.171,3.171,0,0,1-.107-1.038V65.176H679v-.684h.645V63.208l.874-.527v1.811h.883v.684h-.883v3.032a1.569,1.569,0,0,0,.045.483.367.367,0,0,0,.153.171.584.584,0,0,0,.3.064A2.982,2.982,0,0,0,681.4,68.892Z"/><path class="cls-5" d="M681.911,68.13l.869-.137a1.216,1.216,0,0,0,.408.8,1.425,1.425,0,0,0,.935.278,1.375,1.375,0,0,0,.9-.246.736.736,0,0,0,.293-.579.534.534,0,0,0-.258-.469,3.834,3.834,0,0,0-.9-.3,8.407,8.407,0,0,1-1.341-.421,1.331,1.331,0,0,1-.6-1.832,1.413,1.413,0,0,1,.431-.491,1.848,1.848,0,0,1,.559-.256,2.659,2.659,0,0,1,.76-.105,3.012,3.012,0,0,1,1.072.176,1.456,1.456,0,0,1,.681.476,1.861,1.861,0,0,1,.3.8l-.859.117a.943.943,0,0,0-.339-.625,1.247,1.247,0,0,0-.794-.224,1.435,1.435,0,0,0-.864.2.583.583,0,0,0-.259.469.481.481,0,0,0,.108.307.763.763,0,0,0,.337.235q.13.048.776.224a10.775,10.775,0,0,1,1.3.408,1.322,1.322,0,0,1,.578.461,1.3,1.3,0,0,1,.21.752,1.469,1.469,0,0,1-.257.828,1.651,1.651,0,0,1-.739.6,2.673,2.673,0,0,1-1.094.213,2.432,2.432,0,0,1-1.54-.42A1.952,1.952,0,0,1,681.911,68.13Z"/></g><g class="cls-4"><path class="cls-5" d="M489.885,10.005l.922-.081a2.027,2.027,0,0,0,.3.909,1.67,1.67,0,0,0,.743.575,2.818,2.818,0,0,0,1.134.219,2.717,2.717,0,0,0,.988-.166,1.371,1.371,0,0,0,.637-.456,1.06,1.06,0,0,0,.209-.632.955.955,0,0,0-.2-.607,1.48,1.48,0,0,0-.665-.436,12.727,12.727,0,0,0-1.314-.361,6.6,6.6,0,0,1-1.426-.461,1.99,1.99,0,0,1-.789-.687,1.685,1.685,0,0,1-.259-.92,1.872,1.872,0,0,1,.317-1.045,1.965,1.965,0,0,1,.927-.738,3.518,3.518,0,0,1,1.356-.252,3.711,3.711,0,0,1,1.448.264,2.093,2.093,0,0,1,.965.779,2.243,2.243,0,0,1,.363,1.163l-.938.071a1.509,1.509,0,0,0-.511-1.058,1.993,1.993,0,0,0-1.287-.358,2.062,2.062,0,0,0-1.292.325.975.975,0,0,0-.407.783.841.841,0,0,0,.288.656,3.9,3.9,0,0,0,1.474.526,9.84,9.84,0,0,1,1.635.471,2.246,2.246,0,0,1,.952.754,1.832,1.832,0,0,1,.308,1.05,2.019,2.019,0,0,1-.338,1.111,2.235,2.235,0,0,1-.97.811,3.384,3.384,0,0,1-1.424.29,4.238,4.238,0,0,1-1.679-.293,2.344,2.344,0,0,1-1.064-.878A2.482,2.482,0,0,1,489.885,10.005Z"/><path class="cls-5" d="M496.989,6.035V4.992h.907V6.035Zm0,6.343V7.027h.907v5.351Z"/><path class="cls-5" d="M499.109,12.821l.882.131a.841.841,0,0,0,.308.6,1.507,1.507,0,0,0,.922.252,1.616,1.616,0,0,0,.972-.252,1.233,1.233,0,0,0,.463-.706,5.642,5.642,0,0,0,.066-1.163,1.864,1.864,0,0,1-1.481.7,2.018,2.018,0,0,1-1.708-.8,3.066,3.066,0,0,1-.6-1.91,3.568,3.568,0,0,1,.276-1.413,2.222,2.222,0,0,1,.8-1,2.17,2.17,0,0,1,1.237-.353,1.921,1.921,0,0,1,1.562.766V7.027h.837v4.625a4.376,4.376,0,0,1-.255,1.771,1.868,1.868,0,0,1-.806.824,2.791,2.791,0,0,1-1.358.3,2.563,2.563,0,0,1-1.547-.43A1.459,1.459,0,0,1,499.109,12.821Zm.751-3.214a2.328,2.328,0,0,0,.418,1.537,1.38,1.38,0,0,0,2.1,0,2.247,2.247,0,0,0,.424-1.509,2.2,2.2,0,0,0-.436-1.481,1.347,1.347,0,0,0-1.05-.5,1.311,1.311,0,0,0-1.029.491A2.184,2.184,0,0,0,499.86,9.607Z"/><path class="cls-5" d="M505.016,12.378V7.027h.815v.761a1.925,1.925,0,0,1,1.7-.882,2.239,2.239,0,0,1,.89.174,1.4,1.4,0,0,1,.606.456,1.748,1.748,0,0,1,.283.67,5.164,5.164,0,0,1,.05.882v3.29h-.907V9.123a2.468,2.468,0,0,0-.105-.829.876.876,0,0,0-.375-.438,1.2,1.2,0,0,0-.633-.164,1.47,1.47,0,0,0-1,.368,1.817,1.817,0,0,0-.421,1.4v2.922Z"/><path class="cls-5" d="M514.245,11.718a3.371,3.371,0,0,1-.97.6,2.79,2.79,0,0,1-1,.177,1.946,1.946,0,0,1-1.355-.431,1.421,1.421,0,0,1-.474-1.1,1.489,1.489,0,0,1,.648-1.239,2.192,2.192,0,0,1,.652-.3,6.3,6.3,0,0,1,.806-.137,8.293,8.293,0,0,0,1.618-.312c0-.124,0-.2,0-.237a1,1,0,0,0-.257-.781,1.518,1.518,0,0,0-1.033-.307,1.607,1.607,0,0,0-.945.224,1.365,1.365,0,0,0-.451.794l-.886-.121a2.188,2.188,0,0,1,.4-.92,1.749,1.749,0,0,1,.8-.539,3.566,3.566,0,0,1,1.214-.189,3.22,3.22,0,0,1,1.113.161,1.467,1.467,0,0,1,.63.406,1.425,1.425,0,0,1,.282.617,5.117,5.117,0,0,1,.046.837v1.209a12.532,12.532,0,0,0,.058,1.6,2.006,2.006,0,0,0,.229.643h-.947A1.882,1.882,0,0,1,514.245,11.718Zm-.075-2.026a6.622,6.622,0,0,1-1.482.343,3.458,3.458,0,0,0-.791.181.8.8,0,0,0-.358.295.8.8,0,0,0,.149,1.035,1.177,1.177,0,0,0,.8.243,1.873,1.873,0,0,0,.933-.23,1.409,1.409,0,0,0,.6-.627,2.179,2.179,0,0,0,.147-.907Z"/><path class="cls-5" d="M516.473,12.378V4.992h.907v7.386Z"/><path class="cls-5" d="M521.652,14.429v-7.4h.827v.7a2.013,2.013,0,0,1,.66-.613,1.811,1.811,0,0,1,.891-.2,2.116,2.116,0,0,1,1.209.353,2.154,2.154,0,0,1,.791.995,3.634,3.634,0,0,1,.267,1.408A3.583,3.583,0,0,1,526,11.141a2.228,2.228,0,0,1-.857,1.008,2.2,2.2,0,0,1-1.181.35,1.72,1.72,0,0,1-.815-.191,1.848,1.848,0,0,1-.591-.484v2.605Zm.821-4.7a2.319,2.319,0,0,0,.419,1.526,1.278,1.278,0,0,0,1.012.494,1.31,1.31,0,0,0,1.035-.511,2.422,2.422,0,0,0,.431-1.585,2.371,2.371,0,0,0-.421-1.532,1.265,1.265,0,0,0-1-.508,1.3,1.3,0,0,0-1.025.541A2.427,2.427,0,0,0,522.473,9.733Z"/><path class="cls-5" d="M530.882,11.718a3.371,3.371,0,0,1-.97.6,2.79,2.79,0,0,1-1,.177,1.944,1.944,0,0,1-1.355-.431,1.418,1.418,0,0,1-.474-1.1,1.492,1.492,0,0,1,.647-1.239,2.21,2.21,0,0,1,.653-.3,6.312,6.312,0,0,1,.8-.137,8.291,8.291,0,0,0,1.619-.312c0-.124,0-.2,0-.237a1,1,0,0,0-.257-.781,1.521,1.521,0,0,0-1.034-.307,1.6,1.6,0,0,0-.944.224,1.365,1.365,0,0,0-.451.794l-.887-.121a2.189,2.189,0,0,1,.4-.92,1.746,1.746,0,0,1,.8-.539,3.57,3.57,0,0,1,1.214-.189,3.23,3.23,0,0,1,1.114.161,1.467,1.467,0,0,1,.63.406,1.436,1.436,0,0,1,.282.617,5.117,5.117,0,0,1,.046.837v1.209a12.815,12.815,0,0,0,.057,1.6,1.985,1.985,0,0,0,.23.643h-.948A1.9,1.9,0,0,1,530.882,11.718Zm-.075-2.026a6.636,6.636,0,0,1-1.482.343,3.445,3.445,0,0,0-.791.181.8.8,0,0,0-.358.295.8.8,0,0,0,.149,1.035,1.175,1.175,0,0,0,.8.243,1.873,1.873,0,0,0,.933-.23,1.415,1.415,0,0,0,.6-.627,2.179,2.179,0,0,0,.147-.907Z"/><path class="cls-5" d="M535.109,11.567l.131.8a3.4,3.4,0,0,1-.684.08,1.557,1.557,0,0,1-.767-.156.878.878,0,0,1-.383-.41,3.285,3.285,0,0,1-.11-1.071V7.732h-.665v-.7h.665V5.7l.9-.544V7.027h.912v.705H534.2v3.129a1.608,1.608,0,0,0,.048.5.382.382,0,0,0,.156.177.616.616,0,0,0,.311.065A3,3,0,0,0,535.109,11.567Z"/><path class="cls-5" d="M536,12.378V4.992h.906v2.65a2.026,2.026,0,0,1,1.6-.736,2.155,2.155,0,0,1,1.033.235,1.376,1.376,0,0,1,.627.647,2.982,2.982,0,0,1,.189,1.2v3.391h-.907V8.987a1.4,1.4,0,0,0-.295-.99,1.1,1.1,0,0,0-.834-.31,1.475,1.475,0,0,0-.758.209,1.181,1.181,0,0,0-.506.567,2.6,2.6,0,0,0-.152.988v2.927Z"/><path class="cls-5" d="M546.334,14.549a9.077,9.077,0,0,1-1.27-2.216,6.911,6.911,0,0,1-.518-2.63,6.838,6.838,0,0,1,.388-2.3,9.653,9.653,0,0,1,1.4-2.539h.65q-.609,1.047-.806,1.5a8.293,8.293,0,0,0-.484,1.451,8.455,8.455,0,0,0-.216,1.9,9.084,9.084,0,0,0,1.506,4.841Z"/><path class="cls-5" d="M548.038,14.429v-7.4h.826v.7a2.023,2.023,0,0,1,.66-.613,1.815,1.815,0,0,1,.892-.2,2.118,2.118,0,0,1,1.209.353,2.161,2.161,0,0,1,.791.995,3.634,3.634,0,0,1,.267,1.408,3.583,3.583,0,0,1-.294,1.479,2.241,2.241,0,0,1-.857,1.008,2.2,2.2,0,0,1-1.181.35,1.717,1.717,0,0,1-.815-.191,1.863,1.863,0,0,1-.592-.484v2.605Zm.82-4.7a2.325,2.325,0,0,0,.419,1.526,1.282,1.282,0,0,0,1.013.494,1.311,1.311,0,0,0,1.035-.511,2.428,2.428,0,0,0,.431-1.585,2.371,2.371,0,0,0-.421-1.532,1.265,1.265,0,0,0-1-.508,1.3,1.3,0,0,0-1.025.541A2.427,2.427,0,0,0,548.858,9.733Z"/><path class="cls-5" d="M553.766,12.378V7.027h.816v.811a2.21,2.21,0,0,1,.577-.751,1.012,1.012,0,0,1,.582-.181,1.775,1.775,0,0,1,.932.292l-.313.842a1.3,1.3,0,0,0-.665-.2.866.866,0,0,0-.534.179.976.976,0,0,0-.337.5,3.522,3.522,0,0,0-.151,1.058v2.8Z"/><path class="cls-5" d="M556.875,9.7a2.758,2.758,0,0,1,.826-2.2,2.488,2.488,0,0,1,1.683-.6,2.4,2.4,0,0,1,1.8.723,2.755,2.755,0,0,1,.7,2,3.537,3.537,0,0,1-.31,1.625,2.193,2.193,0,0,1-.9.919,2.625,2.625,0,0,1-1.293.328,2.4,2.4,0,0,1-1.817-.721A2.875,2.875,0,0,1,556.875,9.7Zm.932,0a2.279,2.279,0,0,0,.448,1.539,1.494,1.494,0,0,0,2.253,0,2.332,2.332,0,0,0,.448-1.567,2.21,2.21,0,0,0-.451-1.5,1.5,1.5,0,0,0-2.25,0A2.268,2.268,0,0,0,557.807,9.7Z"/><path class="cls-5" d="M566.443,10.418l.892.116a2.321,2.321,0,0,1-.748,1.444,2.183,2.183,0,0,1-1.479.521,2.3,2.3,0,0,1-1.766-.718,2.914,2.914,0,0,1-.667-2.058,3.736,3.736,0,0,1,.287-1.517,2,2,0,0,1,.874-.975,2.6,2.6,0,0,1,1.277-.325,2.219,2.219,0,0,1,1.426.441,2.02,2.02,0,0,1,.71,1.252l-.881.136a1.466,1.466,0,0,0-.446-.811,1.157,1.157,0,0,0-.774-.272,1.4,1.4,0,0,0-1.113.491,2.33,2.33,0,0,0-.429,1.554,2.41,2.41,0,0,0,.414,1.568,1.344,1.344,0,0,0,1.078.488,1.273,1.273,0,0,0,.892-.327A1.617,1.617,0,0,0,566.443,10.418Z"/><path class="cls-5" d="M571.773,10.655l.938.116a2.29,2.29,0,0,1-.821,1.274,2.782,2.782,0,0,1-3.394-.269,2.827,2.827,0,0,1-.687-2.028,2.955,2.955,0,0,1,.7-2.1,2.354,2.354,0,0,1,1.8-.746,2.289,2.289,0,0,1,1.753.731,2.9,2.9,0,0,1,.68,2.055c0,.054,0,.135,0,.242h-3.99a2.055,2.055,0,0,0,.5,1.351,1.486,1.486,0,0,0,1.119.468,1.39,1.39,0,0,0,.852-.262A1.741,1.741,0,0,0,571.773,10.655ZM568.8,9.188h2.988a1.819,1.819,0,0,0-.343-1.012,1.392,1.392,0,0,0-1.124-.524,1.44,1.44,0,0,0-1.049.418A1.65,1.65,0,0,0,568.8,9.188Z"/><path class="cls-5" d="M573.486,10.781l.9-.141a1.258,1.258,0,0,0,.421.826,1.468,1.468,0,0,0,.965.287,1.421,1.421,0,0,0,.927-.254.763.763,0,0,0,.3-.6.552.552,0,0,0-.267-.484,3.914,3.914,0,0,0-.927-.307,8.525,8.525,0,0,1-1.383-.436,1.321,1.321,0,0,1-.783-1.227,1.375,1.375,0,0,1,.163-.662,1.469,1.469,0,0,1,.446-.507,1.873,1.873,0,0,1,.577-.264,2.714,2.714,0,0,1,.783-.109,3.126,3.126,0,0,1,1.107.181,1.5,1.5,0,0,1,.7.492,1.923,1.923,0,0,1,.313.829l-.887.121a.967.967,0,0,0-.35-.645,1.28,1.28,0,0,0-.819-.232,1.49,1.49,0,0,0-.892.206.6.6,0,0,0-.266.484.5.5,0,0,0,.11.318.791.791,0,0,0,.348.241q.135.051.8.232a11.244,11.244,0,0,1,1.343.421,1.366,1.366,0,0,1,.6.476,1.332,1.332,0,0,1,.217.776,1.526,1.526,0,0,1-.265.854,1.713,1.713,0,0,1-.764.62,2.78,2.78,0,0,1-1.129.219,2.508,2.508,0,0,1-1.588-.434A2.005,2.005,0,0,1,573.486,10.781Z"/><path class="cls-5" d="M578.646,10.781l.9-.141a1.258,1.258,0,0,0,.421.826,1.469,1.469,0,0,0,.965.287,1.421,1.421,0,0,0,.927-.254.76.76,0,0,0,.3-.6.553.553,0,0,0-.266-.484,3.928,3.928,0,0,0-.928-.307,8.525,8.525,0,0,1-1.383-.436,1.321,1.321,0,0,1-.783-1.227,1.387,1.387,0,0,1,.163-.662,1.469,1.469,0,0,1,.446-.507,1.873,1.873,0,0,1,.577-.264,2.721,2.721,0,0,1,.784-.109,3.116,3.116,0,0,1,1.106.181,1.5,1.5,0,0,1,.7.492,1.911,1.911,0,0,1,.313.829L582,8.529a.967.967,0,0,0-.35-.645,1.278,1.278,0,0,0-.819-.232,1.49,1.49,0,0,0-.892.206.6.6,0,0,0-.266.484.5.5,0,0,0,.11.318.8.8,0,0,0,.348.241c.091.034.357.111.8.232a11.274,11.274,0,0,1,1.342.421,1.361,1.361,0,0,1,.6.476,1.325,1.325,0,0,1,.217.776,1.526,1.526,0,0,1-.265.854,1.71,1.71,0,0,1-.763.62,2.783,2.783,0,0,1-1.129.219,2.509,2.509,0,0,1-1.589-.434A2,2,0,0,1,578.646,10.781Z"/><path class="cls-5" d="M587.83,10.655l.938.116a2.286,2.286,0,0,1-.822,1.274,2.781,2.781,0,0,1-3.393-.269,2.827,2.827,0,0,1-.688-2.028,2.955,2.955,0,0,1,.7-2.1,2.352,2.352,0,0,1,1.8-.746,2.286,2.286,0,0,1,1.753.731,2.9,2.9,0,0,1,.681,2.055c0,.054,0,.135,0,.242H584.8a2.055,2.055,0,0,0,.5,1.351,1.486,1.486,0,0,0,1.119.468,1.385,1.385,0,0,0,.851-.262A1.742,1.742,0,0,0,587.83,10.655Zm-2.977-1.467h2.988a1.819,1.819,0,0,0-.343-1.012,1.392,1.392,0,0,0-1.124-.524,1.442,1.442,0,0,0-1.05.418A1.654,1.654,0,0,0,584.853,9.188Z"/><path class="cls-5" d="M593.378,12.378V11.7a1.665,1.665,0,0,1-1.5.8,2.1,2.1,0,0,1-1.177-.353,2.317,2.317,0,0,1-.831-.985,3.409,3.409,0,0,1-.3-1.453,3.785,3.785,0,0,1,.268-1.454,2.1,2.1,0,0,1,.8-1,2.141,2.141,0,0,1,1.195-.348,1.78,1.78,0,0,1,1.475.736V4.992h.9v7.386Zm-2.866-2.67a2.321,2.321,0,0,0,.432,1.536,1.308,1.308,0,0,0,1.024.509,1.286,1.286,0,0,0,1.01-.486,2.243,2.243,0,0,0,.416-1.484,2.517,2.517,0,0,0-.424-1.612,1.3,1.3,0,0,0-1.043-.514,1.258,1.258,0,0,0-1.01.494A2.433,2.433,0,0,0,590.512,9.708Z"/><path class="cls-5" d="M598.518,6.035V4.992h.906V6.035Zm0,6.343V7.027h.906v5.351Z"/><path class="cls-5" d="M600.806,12.378V7.027h.815v.761a1.925,1.925,0,0,1,1.7-.882,2.239,2.239,0,0,1,.89.174,1.391,1.391,0,0,1,.606.456,1.748,1.748,0,0,1,.283.67,5.164,5.164,0,0,1,.05.882v3.29h-.907V9.123a2.468,2.468,0,0,0-.105-.829.876.876,0,0,0-.375-.438,1.2,1.2,0,0,0-.633-.164,1.47,1.47,0,0,0-1,.368,1.817,1.817,0,0,0-.421,1.4v2.922Z"/><path class="cls-5" d="M609.073,9.7a2.761,2.761,0,0,1,.826-2.2,2.488,2.488,0,0,1,1.683-.6,2.4,2.4,0,0,1,1.8.723,2.75,2.75,0,0,1,.7,2,3.537,3.537,0,0,1-.31,1.625,2.187,2.187,0,0,1-.9.919,2.625,2.625,0,0,1-1.293.328,2.4,2.4,0,0,1-1.816-.721A2.876,2.876,0,0,1,609.073,9.7Zm.932,0a2.279,2.279,0,0,0,.448,1.539,1.494,1.494,0,0,0,2.253,0,2.332,2.332,0,0,0,.448-1.567,2.21,2.21,0,0,0-.451-1.5,1.5,1.5,0,0,0-2.25,0A2.268,2.268,0,0,0,610.005,9.7Z"/><path class="cls-5" d="M615.139,12.378V7.027h.816v.811a2.21,2.21,0,0,1,.577-.751,1.012,1.012,0,0,1,.582-.181,1.775,1.775,0,0,1,.932.292l-.313.842a1.3,1.3,0,0,0-.665-.2.866.866,0,0,0-.534.179.976.976,0,0,0-.337.5,3.522,3.522,0,0,0-.151,1.058v2.8Z"/><path class="cls-5" d="M622.057,12.378V11.7a1.665,1.665,0,0,1-1.5.8,2.1,2.1,0,0,1-1.177-.353,2.31,2.31,0,0,1-.831-.985,3.394,3.394,0,0,1-.295-1.453,3.8,3.8,0,0,1,.267-1.454,2.107,2.107,0,0,1,.8-1,2.141,2.141,0,0,1,1.195-.348A1.78,1.78,0,0,1,622,7.642V4.992h.9v7.386Zm-2.867-2.67a2.321,2.321,0,0,0,.433,1.536,1.308,1.308,0,0,0,1.023.509,1.283,1.283,0,0,0,1.01-.486,2.237,2.237,0,0,0,.416-1.484,2.511,2.511,0,0,0-.424-1.612,1.3,1.3,0,0,0-1.043-.514,1.256,1.256,0,0,0-1.009.494A2.433,2.433,0,0,0,619.19,9.708Z"/><path class="cls-5" d="M627.986,10.655l.938.116a2.29,2.29,0,0,1-.821,1.274,2.782,2.782,0,0,1-3.394-.269,2.827,2.827,0,0,1-.688-2.028,2.955,2.955,0,0,1,.7-2.1,2.354,2.354,0,0,1,1.8-.746,2.285,2.285,0,0,1,1.752.731,2.9,2.9,0,0,1,.681,2.055c0,.054,0,.135,0,.242h-3.99a2.055,2.055,0,0,0,.5,1.351,1.486,1.486,0,0,0,1.119.468,1.39,1.39,0,0,0,.852-.262A1.741,1.741,0,0,0,627.986,10.655Zm-2.977-1.467H628a1.819,1.819,0,0,0-.343-1.012,1.392,1.392,0,0,0-1.124-.524,1.444,1.444,0,0,0-1.05.418A1.654,1.654,0,0,0,625.009,9.188Z"/><path class="cls-5" d="M630.053,12.378V7.027h.816v.811a2.223,2.223,0,0,1,.577-.751,1.012,1.012,0,0,1,.582-.181,1.773,1.773,0,0,1,.932.292l-.313.842a1.3,1.3,0,0,0-.665-.2.866.866,0,0,0-.534.179.976.976,0,0,0-.337.5,3.522,3.522,0,0,0-.151,1.058v2.8Z"/><path class="cls-5" d="M633.166,12.378V11.345H634.2v1.033a1.825,1.825,0,0,1-.2.919,1.313,1.313,0,0,1-.64.542l-.252-.388a.854.854,0,0,0,.423-.37,1.572,1.572,0,0,0,.152-.7Z"/><path class="cls-5" d="M638.326,9.7a2.761,2.761,0,0,1,.826-2.2,2.488,2.488,0,0,1,1.683-.6,2.4,2.4,0,0,1,1.8.723,2.755,2.755,0,0,1,.7,2,3.537,3.537,0,0,1-.31,1.625,2.193,2.193,0,0,1-.9.919,2.625,2.625,0,0,1-1.293.328,2.4,2.4,0,0,1-1.816-.721A2.876,2.876,0,0,1,638.326,9.7Zm.932,0a2.279,2.279,0,0,0,.448,1.539,1.494,1.494,0,0,0,2.253,0,2.332,2.332,0,0,0,.448-1.567,2.21,2.21,0,0,0-.451-1.5,1.5,1.5,0,0,0-2.25,0A2.268,2.268,0,0,0,639.258,9.7Z"/><path class="cls-5" d="M644.4,12.378V7.027h.816v.761a1.924,1.924,0,0,1,1.7-.882,2.239,2.239,0,0,1,.89.174,1.4,1.4,0,0,1,.606.456,1.732,1.732,0,0,1,.282.67,5.135,5.135,0,0,1,.051.882v3.29h-.907V9.123a2.437,2.437,0,0,0-.106-.829.866.866,0,0,0-.375-.438,1.193,1.193,0,0,0-.633-.164,1.473,1.473,0,0,0-1,.368,1.817,1.817,0,0,0-.42,1.4v2.922Z"/><path class="cls-5" d="M653.8,10.655l.937.116a2.285,2.285,0,0,1-.821,1.274,2.782,2.782,0,0,1-3.394-.269,2.827,2.827,0,0,1-.687-2.028,2.955,2.955,0,0,1,.695-2.1,2.355,2.355,0,0,1,1.8-.746,2.286,2.286,0,0,1,1.753.731,2.9,2.9,0,0,1,.68,2.055c0,.054,0,.135,0,.242h-3.991a2.066,2.066,0,0,0,.5,1.351,1.487,1.487,0,0,0,1.12.468,1.385,1.385,0,0,0,.851-.262A1.749,1.749,0,0,0,653.8,10.655Zm-2.978-1.467h2.988a1.827,1.827,0,0,0-.342-1.012,1.392,1.392,0,0,0-1.124-.524,1.442,1.442,0,0,0-1.05.418A1.655,1.655,0,0,0,650.826,9.188Z"/><path class="cls-5" d="M659.583,12.378h-.842V4.992h.907V7.627a1.8,1.8,0,0,1,1.466-.721,2.259,2.259,0,0,1,.935.2,1.9,1.9,0,0,1,.725.56,2.681,2.681,0,0,1,.447.869,3.6,3.6,0,0,1,.161,1.088,3.057,3.057,0,0,1-.68,2.126,2.128,2.128,0,0,1-1.633.751,1.7,1.7,0,0,1-1.486-.791Zm-.01-2.716a2.773,2.773,0,0,0,.262,1.391,1.3,1.3,0,0,0,2.186.184,2.342,2.342,0,0,0,.434-1.54,2.386,2.386,0,0,0-.416-1.546,1.264,1.264,0,0,0-1-.5,1.306,1.306,0,0,0-1.028.516A2.269,2.269,0,0,0,659.573,9.662Z"/><path class="cls-5" d="M664.444,14.438l-.1-.851a2.009,2.009,0,0,0,.518.081,1,1,0,0,0,.485-.1.826.826,0,0,0,.3-.282,4.536,4.536,0,0,0,.277-.675c.017-.051.044-.125.08-.222l-2.03-5.361h.977l1.114,3.1q.216.59.388,1.239a12.559,12.559,0,0,1,.372-1.219l1.145-3.119h.906l-2.035,5.442a10.873,10.873,0,0,1-.509,1.214,1.778,1.778,0,0,1-.555.657,1.311,1.311,0,0,1-.745.209A1.789,1.789,0,0,1,664.444,14.438Z"/><path class="cls-5" d="M672.174,9.7A2.758,2.758,0,0,1,673,7.5a2.487,2.487,0,0,1,1.683-.6,2.4,2.4,0,0,1,1.8.723,2.751,2.751,0,0,1,.7,2,3.537,3.537,0,0,1-.31,1.625,2.193,2.193,0,0,1-.9.919,2.628,2.628,0,0,1-1.293.328,2.4,2.4,0,0,1-1.817-.721A2.875,2.875,0,0,1,672.174,9.7Zm.931,0a2.279,2.279,0,0,0,.449,1.539,1.494,1.494,0,0,0,2.253,0,2.337,2.337,0,0,0,.448-1.567,2.215,2.215,0,0,0-.451-1.5,1.5,1.5,0,0,0-2.25,0A2.268,2.268,0,0,0,673.105,9.7Z"/><path class="cls-5" d="M678.25,12.378V7.027h.815v.761a1.925,1.925,0,0,1,1.7-.882,2.231,2.231,0,0,1,.889.174,1.394,1.394,0,0,1,.607.456,1.763,1.763,0,0,1,.282.67,5.135,5.135,0,0,1,.051.882v3.29h-.908V9.123a2.468,2.468,0,0,0-.105-.829.866.866,0,0,0-.375-.438,1.2,1.2,0,0,0-.633-.164,1.47,1.47,0,0,0-1,.368,1.817,1.817,0,0,0-.421,1.4v2.922Z"/><path class="cls-5" d="M687.651,10.655l.938.116a2.29,2.29,0,0,1-.821,1.274,2.782,2.782,0,0,1-3.394-.269,2.827,2.827,0,0,1-.687-2.028,2.955,2.955,0,0,1,.695-2.1,2.354,2.354,0,0,1,1.8-.746,2.285,2.285,0,0,1,1.752.731,2.9,2.9,0,0,1,.681,2.055c0,.054,0,.135,0,.242h-3.99a2.055,2.055,0,0,0,.5,1.351,1.486,1.486,0,0,0,1.119.468,1.39,1.39,0,0,0,.852-.262A1.741,1.741,0,0,0,687.651,10.655Zm-2.977-1.467h2.988a1.819,1.819,0,0,0-.343-1.012,1.392,1.392,0,0,0-1.124-.524,1.44,1.44,0,0,0-1.049.418A1.65,1.65,0,0,0,684.674,9.188Z"/><path class="cls-5" d="M690.321,14.549h-.649a9.092,9.092,0,0,0,1.506-4.841,8.362,8.362,0,0,0-.216-1.88,7.812,7.812,0,0,0-.48-1.451,16.865,16.865,0,0,0-.81-1.511h.649a9.663,9.663,0,0,1,1.4,2.539,6.953,6.953,0,0,1-.134,4.928A9.237,9.237,0,0,1,690.321,14.549Z"/></g><path class="cls-6" d="M246.639,17.193a4.816,4.816,0,1,0-4.815,4.815A4.818,4.818,0,0,0,246.639,17.193Z"/><path class="cls-6" d="M246.639,34.222a4.816,4.816,0,1,0-4.815,4.815A4.817,4.817,0,0,0,246.639,34.222Z"/><path class="cls-6" d="M246.639,51.251a4.816,4.816,0,1,0-4.815,4.815A4.818,4.818,0,0,0,246.639,51.251Z"/><path class="cls-6" d="M246.639,68.28a4.816,4.816,0,1,0-4.815,4.815A4.818,4.818,0,0,0,246.639,68.28Z"/><path class="cls-6" d="M246.639,85.308a4.816,4.816,0,1,0-4.815,4.816A4.818,4.818,0,0,0,246.639,85.308Z"/><path class="cls-6" d="M246.639,102.337a4.816,4.816,0,1,0-4.815,4.816A4.818,4.818,0,0,0,246.639,102.337Z"/><path class="cls-6" d="M246.639,119.366a4.816,4.816,0,1,0-4.815,4.816A4.817,4.817,0,0,0,246.639,119.366Z"/><path class="cls-6" d="M246.639,136.4a4.816,4.816,0,1,0-4.815,4.815A4.818,4.818,0,0,0,246.639,136.4Z"/><path class="cls-6" d="M246.639,153.424a4.816,4.816,0,1,0-4.815,4.815A4.817,4.817,0,0,0,246.639,153.424Z"/><path class="cls-6" d="M304.423,17.193a4.815,4.815,0,1,0-4.815,4.815A4.817,4.817,0,0,0,304.423,17.193Z"/><path class="cls-6" d="M304.423,34.222a4.815,4.815,0,1,0-4.815,4.815A4.817,4.817,0,0,0,304.423,34.222Z"/><path class="cls-6" d="M304.423,51.251a4.815,4.815,0,1,0-4.815,4.815A4.817,4.817,0,0,0,304.423,51.251Z"/><path class="cls-6" d="M304.423,68.28a4.815,4.815,0,1,0-4.815,4.815A4.817,4.817,0,0,0,304.423,68.28Z"/><path class="cls-6" d="M304.423,85.308a4.815,4.815,0,1,0-4.815,4.816A4.817,4.817,0,0,0,304.423,85.308Z"/><path class="cls-6" d="M304.423,102.337a4.815,4.815,0,1,0-4.815,4.816A4.817,4.817,0,0,0,304.423,102.337Z"/><path class="cls-6" d="M304.423,119.366a4.815,4.815,0,1,0-4.815,4.816A4.817,4.817,0,0,0,304.423,119.366Z"/><path class="cls-6" d="M304.423,136.4a4.815,4.815,0,1,0-4.815,4.815A4.817,4.817,0,0,0,304.423,136.4Z"/><path class="cls-6" d="M304.423,153.424a4.815,4.815,0,1,0-4.815,4.815A4.817,4.817,0,0,0,304.423,153.424Z"/><path class="cls-6" d="M477.775,17.193a4.816,4.816,0,1,0-4.816,4.815A4.818,4.818,0,0,0,477.775,17.193Z"/><path class="cls-6" d="M477.775,34.222a4.816,4.816,0,1,0-4.816,4.815A4.817,4.817,0,0,0,477.775,34.222Z"/><path class="cls-6" d="M477.775,51.251a4.816,4.816,0,1,0-4.816,4.815A4.818,4.818,0,0,0,477.775,51.251Z"/><path class="cls-6" d="M477.775,68.28a4.816,4.816,0,1,0-4.816,4.815A4.818,4.818,0,0,0,477.775,68.28Z"/><path class="cls-6" d="M477.775,85.308a4.816,4.816,0,1,0-4.816,4.816A4.818,4.818,0,0,0,477.775,85.308Z"/><path class="cls-6" d="M477.775,102.337a4.816,4.816,0,1,0-4.816,4.816A4.818,4.818,0,0,0,477.775,102.337Z"/><path class="cls-6" d="M477.775,119.366a4.816,4.816,0,1,0-4.816,4.816A4.817,4.817,0,0,0,477.775,119.366Z"/><path class="cls-6" d="M477.775,136.4a4.816,4.816,0,1,0-4.816,4.815A4.818,4.818,0,0,0,477.775,136.4Z"/><path class="cls-6" d="M535.563,34.222a4.815,4.815,0,1,0-4.815,4.815A4.817,4.817,0,0,0,535.563,34.222Z"/><path class="cls-6" d="M535.563,51.251a4.815,4.815,0,1,0-4.815,4.815A4.818,4.818,0,0,0,535.563,51.251Z"/><path class="cls-6" d="M535.563,68.28a4.815,4.815,0,1,0-4.815,4.815A4.818,4.818,0,0,0,535.563,68.28Z"/><path class="cls-6" d="M535.563,85.308a4.815,4.815,0,1,0-4.815,4.816A4.818,4.818,0,0,0,535.563,85.308Z"/><path class="cls-6" d="M535.563,102.337a4.815,4.815,0,1,0-4.815,4.816A4.818,4.818,0,0,0,535.563,102.337Z"/><path class="cls-6" d="M535.563,119.366a4.815,4.815,0,1,0-4.815,4.816A4.817,4.817,0,0,0,535.563,119.366Z"/><path class="cls-6" d="M593.344,51.251a4.816,4.816,0,1,0-4.816,4.815A4.818,4.818,0,0,0,593.344,51.251Z"/><path class="cls-6" d="M593.344,68.28a4.816,4.816,0,1,0-4.816,4.815A4.818,4.818,0,0,0,593.344,68.28Z"/><path class="cls-6" d="M593.344,85.308a4.816,4.816,0,1,0-4.816,4.816A4.818,4.818,0,0,0,593.344,85.308Z"/><path class="cls-6" d="M651.128,76.794a4.816,4.816,0,1,0-4.815,4.815,4.817,4.817,0,0,0,4.815-4.815Z"/><path class="cls-6" d="M651.128,93.823a4.816,4.816,0,1,0-4.815,4.815A4.817,4.817,0,0,0,651.128,93.823Z"/><path class="cls-6" d="M593.344,102.337a4.816,4.816,0,1,0-4.816,4.816A4.818,4.818,0,0,0,593.344,102.337Z"/><path class="cls-6" d="M593.344,119.366a4.816,4.816,0,1,0-4.816,4.816A4.817,4.817,0,0,0,593.344,119.366Z"/><path class="cls-6" d="M535.563,136.4a4.815,4.815,0,1,0-4.815,4.815A4.818,4.818,0,0,0,535.563,136.4Z"/><path class="cls-6" d="M477.775,153.424a4.816,4.816,0,1,0-4.816,4.815A4.817,4.817,0,0,0,477.775,153.424Z"/><path class="cls-7" d="M246.639,17.193h48.154"/><path class="cls-7" d="M246.639,17.193l48.154,17.029"/><path class="cls-7" d="M246.639,17.193,294.793,51.25"/><path class="cls-7" d="M246.639,17.193,294.793,68.28"/><path class="cls-7" d="M246.639,17.193l48.154,119.2"/><path class="cls-7" d="M246.639,34.222l48.154,119.2"/><path class="cls-7" d="M246.639,17.193l48.154,102.173"/><path class="cls-7" d="M246.639,17.193l48.154,85.144"/><path class="cls-7" d="M246.639,17.193l48.154,68.115"/><path class="cls-7" d="M246.639,34.222l48.154-17.029"/><path class="cls-7" d="M246.639,34.222h48.154"/><path class="cls-7" d="M246.639,34.222l48.154,17.029"/><path class="cls-7" d="M246.639,34.222,294.793,68.28"/><path class="cls-7" d="M246.639,34.222,294.793,136.4"/><path class="cls-7" d="M246.639,34.222l48.154,119.2"/><path class="cls-7" d="M246.639,34.222l48.154,85.144"/><path class="cls-7" d="M246.639,34.222l48.154,68.115"/><path class="cls-7" d="M246.639,34.222l48.154,51.087"/><path class="cls-7" d="M246.639,17.193l48.154,136.231"/><path class="cls-7" d="M246.639,51.251l48.154-34.058"/><path class="cls-7" d="M246.639,51.251l48.154-17.029"/><path class="cls-7" d="M246.639,51.251h48.154"/><path class="cls-7" d="M246.639,51.251l48.154,17.028"/><path class="cls-7" d="M246.639,51.251,294.793,136.4"/><path class="cls-7" d="M246.639,51.251l48.154,102.173"/><path class="cls-7" d="M246.639,51.251l48.154,68.115"/><path class="cls-7" d="M246.639,51.251l48.154,51.087"/><path class="cls-7" d="M246.639,51.251l48.154,34.057"/><path class="cls-7" d="M246.639,68.28l48.154-51.087"/><path class="cls-7" d="M246.639,68.28l48.154-34.058"/><path class="cls-7" d="M246.639,68.28l48.154-17.029"/><path class="cls-7" d="M246.639,68.28h48.154"/><path class="cls-7" d="M246.639,68.28,294.793,136.4"/><path class="cls-7" d="M246.639,68.28l48.154,85.144"/><path class="cls-7" d="M246.639,68.28l48.154,51.086"/><path class="cls-7" d="M246.639,68.28l48.154,34.057"/><path class="cls-7" d="M246.639,68.28l48.154,17.029"/><path class="cls-7" d="M246.639,153.424h48.154"/><path class="cls-7" d="M246.639,153.424,294.793,136.4"/><path class="cls-7" d="M246.639,153.424l48.154-34.058"/><path class="cls-7" d="M246.639,153.424l48.154-51.087"/><path class="cls-7" d="M246.639,153.424l48.154-119.2"/><path class="cls-7" d="M246.639,136.4l48.154-119.2"/><path class="cls-7" d="M246.639,153.424,294.793,51.251"/><path class="cls-7" d="M246.639,153.424,294.793,68.28"/><path class="cls-7" d="M246.639,153.424l48.154-68.115"/><path class="cls-7" d="M246.639,136.4l48.154,17.029"/><path class="cls-7" d="M246.639,136.4h48.154"/><path class="cls-7" d="M246.639,136.4l48.154-17.029"/><path class="cls-7" d="M246.639,136.4l48.154-34.058"/><path class="cls-7" d="M246.639,136.4,294.793,34.222"/><path class="cls-7" d="M246.639,136.4l48.154-119.2"/><path class="cls-7" d="M246.639,136.4,294.793,51.25"/><path class="cls-7" d="M246.639,136.4,294.793,68.28"/><path class="cls-7" d="M246.639,136.4l48.154-51.087"/><path class="cls-7" d="M246.639,153.424,294.793,17.193"/><path class="cls-7" d="M246.639,119.366l48.154,34.058"/><path class="cls-7" d="M246.639,119.366,294.793,136.4"/><path class="cls-7" d="M246.639,119.366h48.154"/><path class="cls-7" d="M246.639,119.366l48.154-17.029"/><path class="cls-7" d="M246.639,119.366l48.154-85.144"/><path class="cls-7" d="M246.639,119.366,294.793,17.193"/><path class="cls-7" d="M246.639,119.366l48.154-68.115"/><path class="cls-7" d="M246.639,119.366,294.793,68.28"/><path class="cls-7" d="M246.639,119.366l48.154-34.057"/><path class="cls-7" d="M246.639,102.337l48.154,51.087"/><path class="cls-7" d="M246.639,102.337,294.793,136.4"/><path class="cls-7" d="M246.639,102.337l48.154,17.029"/><path class="cls-7" d="M246.639,102.337h48.154"/><path class="cls-7" d="M246.639,102.337l48.154-68.115"/><path class="cls-7" d="M246.639,102.337l48.154-85.144"/><path class="cls-7" d="M246.639,102.337,294.793,51.25"/><path class="cls-7" d="M246.639,102.337,294.793,68.28"/><path class="cls-7" d="M246.639,102.337l48.154-17.029"/><path class="cls-7" d="M246.639,85.308l48.154-68.115"/><path class="cls-7" d="M246.639,85.308l48.154-51.086"/><path class="cls-7" d="M246.639,85.308l48.154-34.057"/><path class="cls-7" d="M246.639,85.308l48.154-17.029"/><path class="cls-7" d="M246.639,85.308,294.793,136.4"/><path class="cls-7" d="M246.639,85.308l48.154,68.115"/><path class="cls-7" d="M246.639,85.308l48.154,34.058"/><path class="cls-7" d="M246.639,85.308l48.154,17.03"/><path class="cls-7" d="M246.639,85.308h48.154"/><path class="cls-7" d="M304.423,17.193h48.154"/><path class="cls-7" d="M304.423,17.193l48.154,17.029"/><path class="cls-7" d="M304.423,17.193,352.577,51.25"/><path class="cls-7" d="M304.423,17.193,352.577,68.28"/><path class="cls-7" d="M304.423,17.193l48.154,119.2"/><path class="cls-7" d="M304.423,34.222l48.154,119.2"/><path class="cls-7" d="M304.423,17.193l48.154,102.173"/><path class="cls-7" d="M304.423,17.193l48.154,85.144"/><path class="cls-7" d="M304.423,17.193l48.154,68.115"/><path class="cls-7" d="M304.423,34.222l48.154-17.029"/><path class="cls-7" d="M304.423,34.222h48.154"/><path class="cls-7" d="M304.423,34.222l48.154,17.029"/><path class="cls-7" d="M304.423,34.222,352.577,68.28"/><path class="cls-7" d="M304.423,34.222,352.577,136.4"/><path class="cls-7" d="M304.423,34.222l48.154,119.2"/><path class="cls-7" d="M304.423,34.222l48.154,85.144"/><path class="cls-7" d="M304.423,34.222l48.154,68.115"/><path class="cls-7" d="M304.423,34.222l48.154,51.087"/><path class="cls-7" d="M304.423,17.193l48.154,136.231"/><path class="cls-7" d="M304.423,51.251l48.154-34.058"/><path class="cls-7" d="M304.423,51.251l48.154-17.029"/><path class="cls-7" d="M304.423,51.251h48.154"/><path class="cls-7" d="M304.423,51.251l48.154,17.028"/><path class="cls-7" d="M304.423,51.251,352.577,136.4"/><path class="cls-7" d="M304.423,51.251l48.154,102.173"/><path class="cls-7" d="M304.423,51.251l48.154,68.115"/><path class="cls-7" d="M304.423,51.251l48.154,51.087"/><path class="cls-7" d="M304.423,51.251l48.154,34.057"/><path class="cls-7" d="M304.423,68.28l48.154-51.087"/><path class="cls-7" d="M304.423,68.28l48.154-34.058"/><path class="cls-7" d="M304.423,68.28l48.154-17.029"/><path class="cls-7" d="M304.423,68.28h48.154"/><path class="cls-7" d="M304.423,68.28,352.577,136.4"/><path class="cls-7" d="M304.423,68.28l48.154,85.144"/><path class="cls-7" d="M304.423,68.28l48.154,51.086"/><path class="cls-7" d="M304.423,68.28l48.154,34.057"/><path class="cls-7" d="M304.423,68.28l48.154,17.029"/><path class="cls-7" d="M304.423,153.424h48.154"/><path class="cls-7" d="M304.423,153.424,352.577,136.4"/><path class="cls-7" d="M304.423,153.424l48.154-34.058"/><path class="cls-7" d="M304.423,153.424l48.154-51.087"/><path class="cls-7" d="M304.423,153.424l48.154-119.2"/><path class="cls-7" d="M304.423,136.4l48.154-119.2"/><path class="cls-7" d="M304.423,153.424,352.577,51.251"/><path class="cls-7" d="M304.423,153.424,352.577,68.28"/><path class="cls-7" d="M304.423,153.424l48.154-68.115"/><path class="cls-7" d="M304.423,136.4l48.154,17.029"/><path class="cls-7" d="M304.423,136.4h48.154"/><path class="cls-7" d="M304.423,136.4l48.154-17.029"/><path class="cls-7" d="M304.423,136.4l48.154-34.058"/><path class="cls-7" d="M304.423,136.4,352.577,34.222"/><path class="cls-7" d="M304.423,136.4l48.154-119.2"/><path class="cls-7" d="M304.423,136.4,352.577,51.25"/><path class="cls-7" d="M304.423,136.4,352.577,68.28"/><path class="cls-7" d="M304.423,136.4l48.154-51.087"/><path class="cls-7" d="M304.423,153.424,352.577,17.193"/><path class="cls-7" d="M304.423,119.366l48.154,34.058"/><path class="cls-7" d="M304.423,119.366,352.577,136.4"/><path class="cls-7" d="M304.423,119.366h48.154"/><path class="cls-7" d="M304.423,119.366l48.154-17.029"/><path class="cls-7" d="M304.423,119.366l48.154-85.144"/><path class="cls-7" d="M304.423,119.366,352.577,17.193"/><path class="cls-7" d="M304.423,119.366l48.154-68.115"/><path class="cls-7" d="M304.423,119.366,352.577,68.28"/><path class="cls-7" d="M304.423,119.366l48.154-34.057"/><path class="cls-7" d="M304.423,102.337l48.154,51.087"/><path class="cls-7" d="M304.423,102.337,352.577,136.4"/><path class="cls-7" d="M304.423,102.337l48.154,17.029"/><path class="cls-7" d="M304.423,102.337h48.154"/><path class="cls-7" d="M304.423,102.337l48.154-68.115"/><path class="cls-7" d="M304.423,102.337l48.154-85.144"/><path class="cls-7" d="M304.423,102.337,352.577,51.25"/><path class="cls-7" d="M304.423,102.337,352.577,68.28"/><path class="cls-7" d="M304.423,102.337l48.154-17.029"/><path class="cls-7" d="M304.423,85.308l48.154-68.115"/><path class="cls-7" d="M304.423,85.308l48.154-51.086"/><path class="cls-7" d="M304.423,85.308l48.154-34.057"/><path class="cls-7" d="M304.423,85.308l48.154-17.029"/><path class="cls-7" d="M304.423,85.308,352.577,136.4"/><path class="cls-7" d="M304.423,85.308l48.154,68.115"/><path class="cls-7" d="M304.423,85.308l48.154,34.058"/><path class="cls-7" d="M304.423,85.308l48.154,17.03"/><path class="cls-7" d="M304.423,85.308h48.154"/><path class="cls-6" d="M362.208,17.193a4.816,4.816,0,1,0-4.816,4.815A4.818,4.818,0,0,0,362.208,17.193Z"/><path class="cls-6" d="M362.208,34.222a4.816,4.816,0,1,0-4.816,4.815A4.817,4.817,0,0,0,362.208,34.222Z"/><path class="cls-6" d="M362.208,51.251a4.816,4.816,0,1,0-4.816,4.815A4.818,4.818,0,0,0,362.208,51.251Z"/><path class="cls-6" d="M362.208,68.28a4.816,4.816,0,1,0-4.816,4.815A4.818,4.818,0,0,0,362.208,68.28Z"/><path class="cls-6" d="M362.208,85.308a4.816,4.816,0,1,0-4.816,4.816A4.818,4.818,0,0,0,362.208,85.308Z"/><path class="cls-6" d="M362.208,102.337a4.816,4.816,0,1,0-4.816,4.816A4.818,4.818,0,0,0,362.208,102.337Z"/><path class="cls-6" d="M362.208,119.366a4.816,4.816,0,1,0-4.816,4.816A4.817,4.817,0,0,0,362.208,119.366Z"/><path class="cls-6" d="M362.208,136.4a4.816,4.816,0,1,0-4.816,4.815A4.818,4.818,0,0,0,362.208,136.4Z"/><path class="cls-6" d="M362.208,153.424a4.816,4.816,0,1,0-4.816,4.815A4.817,4.817,0,0,0,362.208,153.424Z"/><path class="cls-7" d="M362.208,17.193h48.153"/><path class="cls-7" d="M362.208,17.193l48.153,17.029"/><path class="cls-7" d="M362.208,17.193,410.361,51.25"/><path class="cls-7" d="M362.208,17.193,410.361,68.28"/><path class="cls-7" d="M362.208,17.193l48.153,119.2"/><path class="cls-7" d="M362.208,34.222l48.153,119.2"/><path class="cls-7" d="M362.208,17.193l48.153,102.173"/><path class="cls-7" d="M362.208,17.193l48.153,85.144"/><path class="cls-7" d="M362.208,17.193l48.153,68.115"/><path class="cls-7" d="M362.208,34.222l48.153-17.029"/><path class="cls-7" d="M362.208,34.222h48.153"/><path class="cls-7" d="M362.208,34.222l48.153,17.029"/><path class="cls-7" d="M362.208,34.222,410.361,68.28"/><path class="cls-7" d="M362.208,34.222,410.361,136.4"/><path class="cls-7" d="M362.208,34.222l48.153,119.2"/><path class="cls-7" d="M362.208,34.222l48.153,85.144"/><path class="cls-7" d="M362.208,34.222l48.153,68.115"/><path class="cls-7" d="M362.208,34.222l48.153,51.087"/><path class="cls-7" d="M362.208,17.193l48.153,136.231"/><path class="cls-7" d="M362.208,51.251l48.153-34.058"/><path class="cls-7" d="M362.208,51.251l48.153-17.029"/><path class="cls-7" d="M362.208,51.251h48.153"/><path class="cls-7" d="M362.208,51.251l48.153,17.028"/><path class="cls-7" d="M362.208,51.251,410.361,136.4"/><path class="cls-7" d="M362.208,51.251l48.153,102.173"/><path class="cls-7" d="M362.208,51.251l48.153,68.115"/><path class="cls-7" d="M362.208,51.251l48.153,51.087"/><path class="cls-7" d="M362.208,51.251l48.153,34.057"/><path class="cls-7" d="M362.208,68.28l48.153-51.087"/><path class="cls-7" d="M362.208,68.28l48.153-34.058"/><path class="cls-7" d="M362.208,68.28l48.153-17.029"/><path class="cls-7" d="M362.208,68.28h48.153"/><path class="cls-7" d="M362.208,68.28,410.361,136.4"/><path class="cls-7" d="M362.208,68.28l48.153,85.144"/><path class="cls-7" d="M362.208,68.28l48.153,51.086"/><path class="cls-7" d="M362.208,68.28l48.153,34.057"/><path class="cls-7" d="M362.208,68.28l48.153,17.029"/><path class="cls-7" d="M362.208,153.424h48.153"/><path class="cls-7" d="M362.208,153.424,410.361,136.4"/><path class="cls-7" d="M362.208,153.424l48.153-34.058"/><path class="cls-7" d="M362.208,153.424l48.153-51.087"/><path class="cls-7" d="M362.208,153.424l48.153-119.2"/><path class="cls-7" d="M362.208,136.4l48.153-119.2"/><path class="cls-7" d="M362.208,153.424,410.361,51.251"/><path class="cls-7" d="M362.208,153.424,410.361,68.28"/><path class="cls-7" d="M362.208,153.424l48.153-68.115"/><path class="cls-7" d="M362.208,136.4l48.153,17.029"/><path class="cls-7" d="M362.208,136.4h48.153"/><path class="cls-7" d="M362.208,136.4l48.153-17.029"/><path class="cls-7" d="M362.208,136.4l48.153-34.058"/><path class="cls-7" d="M362.208,136.4,410.361,34.222"/><path class="cls-7" d="M362.208,136.4l48.153-119.2"/><path class="cls-7" d="M362.208,136.4,410.361,51.25"/><path class="cls-7" d="M362.208,136.4,410.361,68.28"/><path class="cls-7" d="M362.208,136.4l48.153-51.087"/><path class="cls-7" d="M362.208,153.424,410.361,17.193"/><path class="cls-7" d="M362.208,119.366l48.153,34.058"/><path class="cls-7" d="M362.208,119.366,410.361,136.4"/><path class="cls-7" d="M362.208,119.366h48.153"/><path class="cls-7" d="M362.208,119.366l48.153-17.029"/><path class="cls-7" d="M362.208,119.366l48.153-85.144"/><path class="cls-7" d="M362.208,119.366,410.361,17.193"/><path class="cls-7" d="M362.208,119.366l48.153-68.115"/><path class="cls-7" d="M362.208,119.366,410.361,68.28"/><path class="cls-7" d="M362.208,119.366l48.153-34.057"/><path class="cls-7" d="M362.208,102.337l48.153,51.087"/><path class="cls-7" d="M362.208,102.337,410.361,136.4"/><path class="cls-7" d="M362.208,102.337l48.153,17.029"/><path class="cls-7" d="M362.208,102.337h48.153"/><path class="cls-7" d="M362.208,102.337l48.153-68.115"/><path class="cls-7" d="M362.208,102.337l48.153-85.144"/><path class="cls-7" d="M362.208,102.337,410.361,51.25"/><path class="cls-7" d="M362.208,102.337,410.361,68.28"/><path class="cls-7" d="M362.208,102.337l48.153-17.029"/><path class="cls-7" d="M362.208,85.308l48.153-68.115"/><path class="cls-7" d="M362.208,85.308l48.153-51.086"/><path class="cls-7" d="M362.208,85.308l48.153-34.057"/><path class="cls-7" d="M362.208,85.308l48.153-17.029"/><path class="cls-7" d="M362.208,85.308,410.361,136.4"/><path class="cls-7" d="M362.208,85.308l48.153,68.115"/><path class="cls-7" d="M362.208,85.308l48.153,34.058"/><path class="cls-7" d="M362.208,85.308l48.153,17.03"/><path class="cls-7" d="M362.208,85.308h48.153"/><path class="cls-6" d="M419.992,17.193a4.815,4.815,0,1,0-4.815,4.815A4.817,4.817,0,0,0,419.992,17.193Z"/><path class="cls-6" d="M419.992,34.222a4.815,4.815,0,1,0-4.815,4.815A4.817,4.817,0,0,0,419.992,34.222Z"/><path class="cls-6" d="M419.992,51.251a4.815,4.815,0,1,0-4.815,4.815A4.817,4.817,0,0,0,419.992,51.251Z"/><path class="cls-6" d="M419.992,68.28a4.815,4.815,0,1,0-4.815,4.815A4.817,4.817,0,0,0,419.992,68.28Z"/><path class="cls-6" d="M419.992,85.308a4.815,4.815,0,1,0-4.815,4.816A4.817,4.817,0,0,0,419.992,85.308Z"/><path class="cls-6" d="M419.992,102.337a4.815,4.815,0,1,0-4.815,4.816A4.817,4.817,0,0,0,419.992,102.337Z"/><path class="cls-6" d="M419.992,119.366a4.815,4.815,0,1,0-4.815,4.816A4.817,4.817,0,0,0,419.992,119.366Z"/><path class="cls-6" d="M419.992,136.4a4.815,4.815,0,1,0-4.815,4.815A4.817,4.817,0,0,0,419.992,136.4Z"/><path class="cls-6" d="M419.992,153.424a4.815,4.815,0,1,0-4.815,4.815A4.817,4.817,0,0,0,419.992,153.424Z"/><path class="cls-7" d="M419.992,17.193h48.154"/><path class="cls-7" d="M419.992,17.193l48.154,17.029"/><path class="cls-7" d="M419.992,17.193,468.146,51.25"/><path class="cls-7" d="M419.992,17.193,468.146,68.28"/><path class="cls-7" d="M419.992,17.193l48.154,119.2"/><path class="cls-7" d="M419.992,34.222l48.154,119.2"/><path class="cls-7" d="M419.992,17.193l48.154,102.173"/><path class="cls-7" d="M419.992,17.193l48.154,85.144"/><path class="cls-7" d="M419.992,17.193l48.154,68.115"/><path class="cls-7" d="M419.992,34.222l48.154-17.029"/><path class="cls-7" d="M419.992,34.222h48.154"/><path class="cls-7" d="M419.992,34.222l48.154,17.029"/><path class="cls-7" d="M419.992,34.222,468.146,68.28"/><path class="cls-7" d="M419.992,34.222,468.146,136.4"/><path class="cls-7" d="M419.992,34.222l48.154,119.2"/><path class="cls-7" d="M419.992,34.222l48.154,85.144"/><path class="cls-7" d="M419.992,34.222l48.154,68.115"/><path class="cls-7" d="M419.992,34.222l48.154,51.087"/><path class="cls-7" d="M419.992,17.193l48.154,136.231"/><path class="cls-7" d="M419.992,51.251l48.154-34.058"/><path class="cls-7" d="M419.992,51.251l48.154-17.029"/><path class="cls-7" d="M419.992,51.251h48.154"/><path class="cls-7" d="M419.992,51.251l48.154,17.028"/><path class="cls-7" d="M419.992,51.251,468.146,136.4"/><path class="cls-7" d="M419.992,51.251l48.154,102.173"/><path class="cls-7" d="M419.992,51.251l48.154,68.115"/><path class="cls-7" d="M419.992,51.251l48.154,51.087"/><path class="cls-7" d="M419.992,51.251l48.154,34.057"/><path class="cls-7" d="M419.992,68.28l48.154-51.087"/><path class="cls-7" d="M419.992,68.28l48.154-34.058"/><path class="cls-7" d="M419.992,68.28l48.154-17.029"/><path class="cls-7" d="M419.992,68.28h48.154"/><path class="cls-7" d="M419.992,68.28,468.146,136.4"/><path class="cls-7" d="M419.992,68.28l48.154,85.144"/><path class="cls-7" d="M419.992,68.28l48.154,51.086"/><path class="cls-7" d="M419.992,68.28l48.154,34.057"/><path class="cls-7" d="M419.992,68.28l48.154,17.029"/><path class="cls-7" d="M419.992,153.424h48.154"/><path class="cls-7" d="M419.992,153.424,468.146,136.4"/><path class="cls-7" d="M419.992,153.424l48.154-34.058"/><path class="cls-7" d="M419.992,153.424l48.154-51.087"/><path class="cls-7" d="M419.992,153.424l48.154-119.2"/><path class="cls-7" d="M419.992,136.4l48.154-119.2"/><path class="cls-7" d="M419.992,153.424,468.146,51.251"/><path class="cls-7" d="M419.992,153.424,468.146,68.28"/><path class="cls-7" d="M419.992,153.424l48.154-68.115"/><path class="cls-7" d="M419.992,136.4l48.154,17.029"/><path class="cls-7" d="M419.992,136.4h48.154"/><path class="cls-7" d="M419.992,136.4l48.154-17.029"/><path class="cls-7" d="M419.992,136.4l48.154-34.058"/><path class="cls-7" d="M419.992,136.4,468.146,34.222"/><path class="cls-7" d="M419.992,136.4l48.154-119.2"/><path class="cls-7" d="M419.992,136.4,468.146,51.25"/><path class="cls-7" d="M419.992,136.4,468.146,68.28"/><path class="cls-7" d="M419.992,136.4l48.154-51.087"/><path class="cls-7" d="M419.992,153.424,468.146,17.193"/><path class="cls-7" d="M419.992,119.366l48.154,34.058"/><path class="cls-7" d="M419.992,119.366,468.146,136.4"/><path class="cls-7" d="M419.992,119.366h48.154"/><path class="cls-7" d="M419.992,119.366l48.154-17.029"/><path class="cls-7" d="M419.992,119.366l48.154-85.144"/><path class="cls-7" d="M419.992,119.366,468.146,17.193"/><path class="cls-7" d="M419.992,119.366l48.154-68.115"/><path class="cls-7" d="M419.992,119.366,468.146,68.28"/><path class="cls-7" d="M419.992,119.366l48.154-34.057"/><path class="cls-7" d="M419.992,102.337l48.154,51.087"/><path class="cls-7" d="M419.992,102.337,468.146,136.4"/><path class="cls-7" d="M419.992,102.337l48.154,17.029"/><path class="cls-7" d="M419.992,102.337h48.154"/><path class="cls-7" d="M419.992,102.337l48.154-68.115"/><path class="cls-7" d="M419.992,102.337l48.154-85.144"/><path class="cls-7" d="M419.992,102.337,468.146,51.25"/><path class="cls-7" d="M419.992,102.337,468.146,68.28"/><path class="cls-7" d="M419.992,102.337l48.154-17.029"/><path class="cls-7" d="M419.992,85.308l48.154-68.115"/><path class="cls-7" d="M419.992,85.308l48.154-51.086"/><path class="cls-7" d="M419.992,85.308l48.154-34.057"/><path class="cls-7" d="M419.992,85.308l48.154-17.029"/><path class="cls-7" d="M419.992,85.308,468.146,136.4"/><path class="cls-7" d="M419.992,85.308l48.154,68.115"/><path class="cls-7" d="M419.992,85.308l48.154,34.058"/><path class="cls-7" d="M419.992,85.308l48.154,17.03"/><path class="cls-7" d="M419.992,85.308h48.154"/><path class="cls-7" d="M477.775,17.193l48.153,17.029"/><path class="cls-7" d="M477.775,17.193,525.928,51.25"/><path class="cls-7" d="M477.775,17.193,525.928,68.28"/><path class="cls-7" d="M477.775,17.193l48.153,119.2"/><path class="cls-7" d="M477.775,17.193l48.153,102.173"/><path class="cls-7" d="M477.775,17.193l48.153,85.144"/><path class="cls-7" d="M477.775,17.193l48.153,68.115"/><path class="cls-7" d="M477.775,34.222h48.153"/><path class="cls-7" d="M477.775,34.222l48.153,17.029"/><path class="cls-7" d="M477.775,34.222,525.928,68.28"/><path class="cls-7" d="M477.775,34.222,525.928,136.4"/><path class="cls-7" d="M477.775,34.222l48.153,85.144"/><path class="cls-7" d="M477.775,34.222l48.153,68.115"/><path class="cls-7" d="M477.775,34.222l48.153,51.087"/><path class="cls-7" d="M477.775,51.251l48.153-17.029"/><path class="cls-7" d="M477.775,51.251h48.153"/><path class="cls-7" d="M477.775,51.251l48.153,17.028"/><path class="cls-7" d="M477.775,51.251,525.928,136.4"/><path class="cls-7" d="M477.775,51.251l48.153,68.115"/><path class="cls-7" d="M477.775,51.251l48.153,51.087"/><path class="cls-7" d="M477.775,51.251l48.153,34.057"/><path class="cls-7" d="M477.775,68.28l48.153-34.058"/><path class="cls-7" d="M477.775,68.28l48.153-17.029"/><path class="cls-7" d="M477.775,68.28h48.153"/><path class="cls-7" d="M477.775,68.28,525.928,136.4"/><path class="cls-7" d="M477.775,68.28l48.153,51.086"/><path class="cls-7" d="M477.775,68.28l48.153,34.057"/><path class="cls-7" d="M477.775,68.28l48.153,17.029"/><path class="cls-7" d="M477.775,153.424,525.928,136.4"/><path class="cls-7" d="M477.775,153.424l48.153-34.058"/><path class="cls-7" d="M477.775,153.424l48.153-51.087"/><path class="cls-7" d="M477.775,153.424l48.153-119.2"/><path class="cls-7" d="M477.775,153.424,525.928,51.251"/><path class="cls-7" d="M477.775,153.424,525.928,68.28"/><path class="cls-7" d="M477.775,153.424l48.153-68.115"/><path class="cls-7" d="M477.775,136.4h48.153"/><path class="cls-7" d="M477.775,136.4l48.153-17.029"/><path class="cls-7" d="M477.775,136.4l48.153-34.058"/><path class="cls-7" d="M477.775,136.4,525.928,34.222"/><path class="cls-7" d="M477.775,136.4,525.928,51.25"/><path class="cls-7" d="M477.775,136.4,525.928,68.28"/><path class="cls-7" d="M477.775,136.4l48.153-51.087"/><path class="cls-7" d="M477.775,119.366,525.928,136.4"/><path class="cls-7" d="M477.775,119.366h48.153"/><path class="cls-7" d="M477.775,119.366l48.153-17.029"/><path class="cls-7" d="M477.775,119.366l48.153-85.144"/><path class="cls-7" d="M477.775,119.366l48.153-68.115"/><path class="cls-7" d="M477.775,119.366,525.928,68.28"/><path class="cls-7" d="M477.775,119.366l48.153-34.057"/><path class="cls-7" d="M477.775,102.337,525.928,136.4"/><path class="cls-7" d="M477.775,102.337l48.153,17.029"/><path class="cls-7" d="M477.775,102.337h48.153"/><path class="cls-7" d="M477.775,102.337l48.153-68.115"/><path class="cls-7" d="M477.775,102.337,525.928,51.25"/><path class="cls-7" d="M477.775,102.337,525.928,68.28"/><path class="cls-7" d="M477.775,102.337l48.153-17.029"/><path class="cls-7" d="M477.775,85.308l48.153-51.086"/><path class="cls-7" d="M477.775,85.308l48.153-34.057"/><path class="cls-7" d="M477.775,85.308l48.153-17.029"/><path class="cls-7" d="M477.775,85.308,525.928,136.4"/><path class="cls-7" d="M477.775,85.308l48.153,34.058"/><path class="cls-7" d="M477.775,85.308l48.153,17.03"/><path class="cls-7" d="M477.775,85.308h48.153"/><path class="cls-7" d="M535.563,34.222l48.154,17.029"/><path class="cls-7" d="M535.563,34.222,583.717,68.28"/><path class="cls-7" d="M535.563,34.222l48.154,85.144"/><path class="cls-7" d="M535.563,34.222l48.154,68.115"/><path class="cls-7" d="M535.563,34.222l48.154,51.087"/><path class="cls-7" d="M535.563,51.251h48.154"/><path class="cls-7" d="M535.563,51.251l48.154,17.028"/><path class="cls-7" d="M535.563,51.251l48.154,68.115"/><path class="cls-7" d="M535.563,51.251l48.154,51.087"/><path class="cls-7" d="M535.563,51.251l48.154,34.057"/><path class="cls-7" d="M535.563,68.28l48.154-17.029"/><path class="cls-7" d="M535.563,68.28h48.154"/><path class="cls-7" d="M535.563,68.28l48.154,51.086"/><path class="cls-7" d="M535.563,68.28l48.154,34.057"/><path class="cls-7" d="M535.563,68.28l48.154,17.029"/><path class="cls-7" d="M535.563,136.4l48.154-17.029"/><path class="cls-7" d="M535.563,136.4l48.154-34.058"/><path class="cls-7" d="M535.563,136.4,583.717,51.25"/><path class="cls-7" d="M535.563,136.4,583.717,68.28"/><path class="cls-7" d="M535.563,136.4l48.154-51.087"/><path class="cls-7" d="M535.563,119.366h48.154"/><path class="cls-7" d="M535.563,119.366l48.154-17.029"/><path class="cls-7" d="M535.563,119.366l48.154-68.115"/><path class="cls-7" d="M535.563,119.366,583.717,68.28"/><path class="cls-7" d="M535.563,119.366l48.154-34.057"/><path class="cls-7" d="M535.563,102.337l48.154,17.029"/><path class="cls-7" d="M535.563,102.337h48.154"/><path class="cls-7" d="M535.563,102.337,583.717,51.25"/><path class="cls-7" d="M535.563,102.337,583.717,68.28"/><path class="cls-7" d="M535.563,102.337l48.154-17.029"/><path class="cls-7" d="M535.563,85.308l48.154-34.057"/><path class="cls-7" d="M535.563,85.308l48.154-17.029"/><path class="cls-7" d="M535.563,85.308l48.154,34.058"/><path class="cls-7" d="M535.563,85.308l48.154,17.03"/><path class="cls-7" d="M535.563,85.308h48.154"/><path class="cls-7" d="M593.344,51.251,641.5,76.794"/><path class="cls-7" d="M593.344,51.251,641.5,93.823"/><path class="cls-7" d="M593.344,68.28,641.5,76.794"/><path class="cls-7" d="M593.344,68.28,641.5,93.823"/><path class="cls-7" d="M593.344,119.366,641.5,93.823"/><path class="cls-7" d="M593.344,119.366,641.5,76.794"/><path class="cls-7" d="M593.344,102.337,641.5,93.823"/><path class="cls-7" d="M593.344,102.337,641.5,76.793"/><path class="cls-7" d="M593.344,85.308,641.5,76.794"/><path class="cls-7" d="M593.344,85.308,641.5,93.823"/><path class="cls-7" d="M651.128,76.794h11.6"/><path d="M661.877,78.043l4.66-1.249-4.66-1.249Z"/><path class="cls-7" d="M651.128,93.823h11.6"/><path d="M661.877,95.072l4.66-1.249-4.66-1.249Z"/><path class="cls-7" d="M221.6,17.193h11.6"/><path d="M232.347,18.442l4.66-1.249-4.66-1.249Z"/><path class="cls-7" d="M221.6,34.222h11.6"/><path d="M232.347,35.471l4.66-1.249-4.66-1.249Z"/><path class="cls-7" d="M221.6,51.251h11.6"/><path d="M232.347,52.5l4.66-1.25L232.347,50Z"/><path class="cls-7" d="M221.6,68.28h11.6"/><path d="M232.347,69.529l4.66-1.25-4.66-1.248Z"/><path class="cls-7" d="M221.6,85.308h11.6"/><path d="M232.347,86.557l4.66-1.249-4.66-1.249Z"/><path class="cls-7" d="M221.6,102.337h11.6"/><path d="M232.347,103.587l4.66-1.25-4.66-1.248Z"/><path class="cls-7" d="M221.6,119.366h11.6"/><path d="M232.347,120.615l4.66-1.249-4.66-1.249Z"/><path class="cls-7" d="M221.6,136.4h11.6"/><path d="M232.347,137.644l4.66-1.249-4.66-1.249Z"/><path class="cls-7" d="M221.6,153.424h11.6"/><path d="M232.347,154.673l4.66-1.249-4.66-1.249Z"/><path class="cls-7" d="M512.441,15.511,504.6,23.065"/><path d="M504.345,21.575l-2.49,4.132,4.224-2.333Z"/><polygon class="cls-8" points="154.126 45.557 133.886 73.674 154.883 82.85 174.979 54.576 154.126 45.557"/><polygon class="cls-8" points="154.883 117.686 133.685 108.519 133.886 73.674 154.883 82.85 154.883 117.686"/><polygon class="cls-8" points="174.979 89.678 154.883 117.686 154.883 82.85 174.979 54.576 174.979 89.678"/><line class="cls-9" x1="126.726" y1="48.503" x2="183.338" y2="28.328"/><line class="cls-9" x1="126.726" y1="48.503" x2="126.726" y2="137.26"/><line class="cls-9" x1="183.338" y1="28.328" x2="183.338" y2="117.085"/><line class="cls-9" x1="126.726" y1="137.26" x2="183.338" y2="117.085"/><polygon class="cls-9" points="154.126 45.557 133.886 73.674 133.685 108.519 154.883 117.686 174.979 89.678 174.979 54.576 154.126 45.557"/><line class="cls-10" x1="154.883" y1="82.85" x2="174.979" y2="54.576"/><line class="cls-10" x1="154.883" y1="82.85" x2="133.886" y2="73.674"/><line class="cls-10" x1="154.883" y1="117.686" x2="154.883" y2="82.85"/><g class="cls-4"><path class="cls-5" d="M636.563,116.324a9.1,9.1,0,0,1-1.269-2.217,6.955,6.955,0,0,1-.131-4.927,9.716,9.716,0,0,1,1.4-2.54h.651q-.609,1.049-.807,1.5a8.181,8.181,0,0,0-.483,1.451,8.39,8.39,0,0,0-.217,1.894,9.086,9.086,0,0,0,1.507,4.842Z"/><path class="cls-5" d="M638.353,114.152v-7.386h1.471l1.748,5.23q.241.731.353,1.093.126-.4.393-1.184l1.769-5.139H645.4v7.386h-.942v-6.181l-2.146,6.181h-.881l-2.137-6.288v6.288Z"/><path class="cls-5" d="M646.867,107.809v-1.043h.906v1.043Zm0,6.343V108.8h.906v5.35Z"/><path class="cls-5" d="M648.792,112.555l.9-.141a1.26,1.26,0,0,0,.421.826,1.466,1.466,0,0,0,.965.287,1.424,1.424,0,0,0,.928-.254.762.762,0,0,0,.3-.6.553.553,0,0,0-.267-.484,3.959,3.959,0,0,0-.928-.307,8.37,8.37,0,0,1-1.382-.436,1.323,1.323,0,0,1-.584-.509,1.344,1.344,0,0,1-.2-.717,1.39,1.39,0,0,1,.163-.663,1.459,1.459,0,0,1,.447-.506,1.839,1.839,0,0,1,.577-.265,2.749,2.749,0,0,1,.783-.108,3.1,3.1,0,0,1,1.107.181,1.494,1.494,0,0,1,.7.492,1.9,1.9,0,0,1,.312.828l-.887.121a.972.972,0,0,0-.349-.645,1.288,1.288,0,0,0-.819-.231,1.483,1.483,0,0,0-.892.206.6.6,0,0,0-.267.483.5.5,0,0,0,.111.318.8.8,0,0,0,.347.242c.091.033.358.111.8.231a11.244,11.244,0,0,1,1.343.421,1.375,1.375,0,0,1,.6.477,1.328,1.328,0,0,1,.216.775,1.536,1.536,0,0,1-.264.855,1.717,1.717,0,0,1-.764.619,2.78,2.78,0,0,1-1.129.219,2.511,2.511,0,0,1-1.589-.433A2.014,2.014,0,0,1,648.792,112.555Z"/><path class="cls-5" d="M654.3,114.152V108.8h.816v.81a2.217,2.217,0,0,1,.577-.75,1,1,0,0,1,.582-.181,1.764,1.764,0,0,1,.932.292l-.313.841a1.3,1.3,0,0,0-.665-.2.866.866,0,0,0-.534.179.969.969,0,0,0-.337.5,3.522,3.522,0,0,0-.151,1.058v2.8Z"/><path class="cls-5" d="M661.413,112.43l.938.115a2.279,2.279,0,0,1-.822,1.274,2.781,2.781,0,0,1-3.393-.269,2.826,2.826,0,0,1-.688-2.028,2.952,2.952,0,0,1,.7-2.095,2.352,2.352,0,0,1,1.8-.746,2.285,2.285,0,0,1,1.753.73,2.9,2.9,0,0,1,.681,2.056c0,.054,0,.135,0,.242h-3.99a2.051,2.051,0,0,0,.5,1.35,1.486,1.486,0,0,0,1.119.468,1.391,1.391,0,0,0,.851-.261A1.742,1.742,0,0,0,661.413,112.43Zm-2.977-1.467h2.988a1.823,1.823,0,0,0-.343-1.013,1.391,1.391,0,0,0-1.124-.523,1.434,1.434,0,0,0-1.05.418A1.65,1.65,0,0,0,658.436,110.963Z"/><path class="cls-5" d="M666.98,112.192l.892.117a2.319,2.319,0,0,1-.748,1.443,2.178,2.178,0,0,1-1.478.521,2.3,2.3,0,0,1-1.767-.717,2.921,2.921,0,0,1-.667-2.059,3.736,3.736,0,0,1,.287-1.517,2,2,0,0,1,.874-.974,2.591,2.591,0,0,1,1.277-.325,2.219,2.219,0,0,1,1.426.44,2.02,2.02,0,0,1,.71,1.253l-.881.136a1.469,1.469,0,0,0-.446-.812,1.156,1.156,0,0,0-.773-.271,1.406,1.406,0,0,0-1.114.491,2.329,2.329,0,0,0-.428,1.554,2.409,2.409,0,0,0,.413,1.567,1.344,1.344,0,0,0,1.078.488,1.269,1.269,0,0,0,.892-.327A1.619,1.619,0,0,0,666.98,112.192Z"/><path class="cls-5" d="M668.311,111.477a2.758,2.758,0,0,1,.826-2.2,2.49,2.49,0,0,1,1.682-.594,2.4,2.4,0,0,1,1.8.722,2.754,2.754,0,0,1,.7,2,3.533,3.533,0,0,1-.309,1.625,2.178,2.178,0,0,1-.9.919,2.622,2.622,0,0,1-1.293.328,2.406,2.406,0,0,1-1.816-.72A2.878,2.878,0,0,1,668.311,111.477Zm.931,0a2.287,2.287,0,0,0,.448,1.54,1.5,1.5,0,0,0,2.253,0,2.337,2.337,0,0,0,.449-1.568,2.212,2.212,0,0,0-.452-1.5,1.5,1.5,0,0,0-2.25,0A2.275,2.275,0,0,0,669.242,111.477Z"/><path class="cls-5" d="M674.221,114.6l.882.131a.838.838,0,0,0,.307.594,1.509,1.509,0,0,0,.922.252,1.622,1.622,0,0,0,.973-.252,1.238,1.238,0,0,0,.463-.7,5.762,5.762,0,0,0,.065-1.164,1.862,1.862,0,0,1-1.48.7,2.016,2.016,0,0,1-1.708-.8,3.061,3.061,0,0,1-.605-1.91,3.572,3.572,0,0,1,.276-1.413,2.234,2.234,0,0,1,.8-1,2.174,2.174,0,0,1,1.237-.352,1.919,1.919,0,0,1,1.562.765V108.8h.837v4.625a4.376,4.376,0,0,1-.255,1.771,1.855,1.855,0,0,1-.806.823,2.791,2.791,0,0,1-1.358.3,2.565,2.565,0,0,1-1.547-.43A1.458,1.458,0,0,1,674.221,114.6Zm.751-3.215a2.32,2.32,0,0,0,.418,1.537,1.38,1.38,0,0,0,2.1,0,2.243,2.243,0,0,0,.424-1.51,2.2,2.2,0,0,0-.435-1.481,1.351,1.351,0,0,0-1.051-.5,1.307,1.307,0,0,0-1.028.491A2.174,2.174,0,0,0,674.972,111.381Z"/><path class="cls-5" d="M680.126,114.152V108.8h.815v.761a1.925,1.925,0,0,1,1.7-.882,2.231,2.231,0,0,1,.889.173,1.4,1.4,0,0,1,.607.457,1.758,1.758,0,0,1,.282.669,5.135,5.135,0,0,1,.051.882v3.29h-.908V110.9a2.468,2.468,0,0,0-.105-.829.864.864,0,0,0-.375-.437,1.189,1.189,0,0,0-.633-.164,1.469,1.469,0,0,0-1,.367,1.819,1.819,0,0,0-.421,1.4v2.922Z"/><path class="cls-5" d="M685.87,107.809v-1.043h.906v1.043Zm0,6.343V108.8h.906v5.35Z"/><path class="cls-5" d="M690.137,113.341l.131.8a3.413,3.413,0,0,1-.685.08,1.545,1.545,0,0,1-.767-.157.872.872,0,0,1-.382-.41,3.243,3.243,0,0,1-.111-1.071v-3.078h-.665v-.7h.665v-1.325l.9-.544V108.8h.912v.7h-.912v3.129a1.62,1.62,0,0,0,.047.5.377.377,0,0,0,.157.176.609.609,0,0,0,.31.065A3.017,3.017,0,0,0,690.137,113.341Z"/><path class="cls-5" d="M691.029,107.809v-1.043h.907v1.043Zm0,6.343V108.8h.907v5.35Z"/><path class="cls-5" d="M692.979,111.477a2.758,2.758,0,0,1,.826-2.2,2.49,2.49,0,0,1,1.682-.594,2.4,2.4,0,0,1,1.8.722,2.754,2.754,0,0,1,.7,2,3.533,3.533,0,0,1-.309,1.625,2.178,2.178,0,0,1-.9.919,2.622,2.622,0,0,1-1.293.328,2.406,2.406,0,0,1-1.816-.72A2.878,2.878,0,0,1,692.979,111.477Zm.931,0a2.287,2.287,0,0,0,.448,1.54,1.5,1.5,0,0,0,2.253,0,2.337,2.337,0,0,0,.449-1.568,2.212,2.212,0,0,0-.452-1.5,1.5,1.5,0,0,0-2.25,0A2.275,2.275,0,0,0,693.91,111.477Z"/><path class="cls-5" d="M699.056,114.152V108.8h.815v.761a1.925,1.925,0,0,1,1.7-.882,2.239,2.239,0,0,1,.89.173,1.393,1.393,0,0,1,.606.457,1.744,1.744,0,0,1,.283.669,5.164,5.164,0,0,1,.05.882v3.29H702.5V110.9a2.468,2.468,0,0,0-.105-.829.873.873,0,0,0-.375-.437,1.189,1.189,0,0,0-.633-.164,1.469,1.469,0,0,0-1,.367,1.819,1.819,0,0,0-.421,1.4v2.922Z"/><path class="cls-5" d="M705.388,116.324h-.65a9.093,9.093,0,0,0,1.506-4.842,8.3,8.3,0,0,0-.216-1.879,7.894,7.894,0,0,0-.479-1.452q-.2-.451-.811-1.511h.65a9.663,9.663,0,0,1,1.4,2.54,6.936,6.936,0,0,1-.134,4.927A9.228,9.228,0,0,1,705.388,116.324Z"/></g><polygon class="cls-11" points="123.843 84.891 106.089 74.591 106.089 80.505 76.628 80.505 76.628 89.276 106.089 89.276 106.089 95.19 123.843 84.891"/><polygon class="cls-11" points="219.546 84.891 201.792 74.591 201.792 80.505 188.414 80.505 188.414 89.276 201.792 89.276 201.792 95.19 219.546 84.891"/><g class="cls-4"><path class="cls-5" d="M86.806,105.832l.977.247a3.289,3.289,0,0,1-1.106,1.836,3.044,3.044,0,0,1-1.952.633,3.513,3.513,0,0,1-1.943-.486,3.031,3.031,0,0,1-1.138-1.409,5.025,5.025,0,0,1-.391-1.98,4.353,4.353,0,0,1,.441-2.013,3.025,3.025,0,0,1,1.254-1.3,3.683,3.683,0,0,1,1.792-.446,3.027,3.027,0,0,1,1.864.565,2.936,2.936,0,0,1,1.053,1.587l-.963.227a2.282,2.282,0,0,0-.745-1.174,1.983,1.983,0,0,0-1.229-.368,2.391,2.391,0,0,0-1.424.408,2.158,2.158,0,0,0-.8,1.1,4.426,4.426,0,0,0-.231,1.418,4.524,4.524,0,0,0,.274,1.645,2.049,2.049,0,0,0,.855,1.051,2.388,2.388,0,0,0,1.254.348,2.1,2.1,0,0,0,1.39-.474A2.429,2.429,0,0,0,86.806,105.832Z"/><path class="cls-5" d="M92.363,107.762a3.358,3.358,0,0,1-.969.6,2.8,2.8,0,0,1-1,.177,1.948,1.948,0,0,1-1.356-.431,1.421,1.421,0,0,1-.474-1.1,1.493,1.493,0,0,1,.648-1.24,2.216,2.216,0,0,1,.652-.3,6.521,6.521,0,0,1,.806-.137,8.37,8.37,0,0,0,1.618-.312c0-.125.005-.2.005-.237a1,1,0,0,0-.257-.781A1.523,1.523,0,0,0,91,103.7a1.594,1.594,0,0,0-.944.224,1.357,1.357,0,0,0-.452.794l-.886-.121a2.2,2.2,0,0,1,.4-.92,1.741,1.741,0,0,1,.8-.539,3.57,3.57,0,0,1,1.214-.189,3.22,3.22,0,0,1,1.113.161,1.467,1.467,0,0,1,.63.406,1.425,1.425,0,0,1,.282.617,5.117,5.117,0,0,1,.046.837v1.209a12.747,12.747,0,0,0,.058,1.6,2.006,2.006,0,0,0,.229.643h-.947A1.91,1.91,0,0,1,92.363,107.762Zm-.075-2.026a6.624,6.624,0,0,1-1.481.343,3.38,3.38,0,0,0-.791.182.791.791,0,0,0-.209,1.33,1.177,1.177,0,0,0,.8.241,1.88,1.88,0,0,0,.933-.228,1.424,1.424,0,0,0,.6-.628,2.2,2.2,0,0,0,.146-.907Z"/><path class="cls-5" d="M94.61,108.422v-5.351h.811v.751a1.92,1.92,0,0,1,.67-.633,1.89,1.89,0,0,1,.952-.239,1.762,1.762,0,0,1,.976.247,1.325,1.325,0,0,1,.536.691,1.922,1.922,0,0,1,1.653-.938,1.63,1.63,0,0,1,1.224.441,1.883,1.883,0,0,1,.428,1.358v3.673h-.9v-3.371a2.474,2.474,0,0,0-.088-.783.751.751,0,0,0-.32-.386,1,1,0,0,0-.544-.146,1.266,1.266,0,0,0-.937.375,1.653,1.653,0,0,0-.373,1.2v3.109h-.907v-3.477a1.529,1.529,0,0,0-.222-.907.839.839,0,0,0-.725-.3,1.323,1.323,0,0,0-.708.2,1.144,1.144,0,0,0-.471.589,3.308,3.308,0,0,0-.146,1.119v2.776Z"/><path class="cls-5" d="M106.868,106.7l.938.115a2.285,2.285,0,0,1-.822,1.275,2.779,2.779,0,0,1-3.393-.27,2.823,2.823,0,0,1-.688-2.027,2.955,2.955,0,0,1,.7-2.1,2.353,2.353,0,0,1,1.8-.746,2.282,2.282,0,0,1,1.753.731,2.9,2.9,0,0,1,.681,2.055c0,.054,0,.135,0,.243h-3.99a2.048,2.048,0,0,0,.5,1.349,1.483,1.483,0,0,0,1.119.469,1.39,1.39,0,0,0,.852-.262A1.748,1.748,0,0,0,106.868,106.7Zm-2.977-1.467h2.988a1.816,1.816,0,0,0-.343-1.012,1.389,1.389,0,0,0-1.124-.524,1.44,1.44,0,0,0-1.05.418A1.654,1.654,0,0,0,103.891,105.232Z"/><path class="cls-5" d="M108.934,108.422v-5.351h.816v.811a2.2,2.2,0,0,1,.577-.75,1.006,1.006,0,0,1,.582-.182,1.775,1.775,0,0,1,.932.292l-.313.842a1.294,1.294,0,0,0-.665-.2.865.865,0,0,0-.534.178.976.976,0,0,0-.337.5,3.516,3.516,0,0,0-.151,1.057v2.8Z"/><path class="cls-5" d="M115.872,107.762a3.349,3.349,0,0,1-.97.6,2.79,2.79,0,0,1-1,.177,1.944,1.944,0,0,1-1.355-.431,1.418,1.418,0,0,1-.474-1.1,1.493,1.493,0,0,1,.648-1.24,2.216,2.216,0,0,1,.652-.3,6.487,6.487,0,0,1,.806-.137,8.37,8.37,0,0,0,1.618-.312c0-.125.005-.2.005-.237a1,1,0,0,0-.257-.781,1.523,1.523,0,0,0-1.033-.307,1.6,1.6,0,0,0-.945.224,1.362,1.362,0,0,0-.451.794l-.887-.121a2.2,2.2,0,0,1,.4-.92,1.741,1.741,0,0,1,.8-.539,3.566,3.566,0,0,1,1.214-.189,3.22,3.22,0,0,1,1.113.161,1.467,1.467,0,0,1,.63.406,1.425,1.425,0,0,1,.282.617,5.117,5.117,0,0,1,.046.837v1.209a12.826,12.826,0,0,0,.057,1.6,2.033,2.033,0,0,0,.23.643h-.947A1.888,1.888,0,0,1,115.872,107.762Zm-.075-2.026a6.622,6.622,0,0,1-1.482.343,3.393,3.393,0,0,0-.791.182.792.792,0,0,0-.209,1.33,1.182,1.182,0,0,0,.8.241,1.883,1.883,0,0,0,.933-.228,1.422,1.422,0,0,0,.6-.628,2.179,2.179,0,0,0,.147-.907Z"/></g><g class="cls-4"><path class="cls-5" d="M30.519,128.969a4.013,4.013,0,0,1,.987-2.879,3.356,3.356,0,0,1,2.55-1.041,3.532,3.532,0,0,1,1.843.489,3.185,3.185,0,0,1,1.252,1.362,4.436,4.436,0,0,1,.431,1.984,4.354,4.354,0,0,1-.453,2.01,3.1,3.1,0,0,1-1.285,1.342,3.673,3.673,0,0,1-1.794.456,3.482,3.482,0,0,1-1.863-.5,3.236,3.236,0,0,1-1.246-1.375A4.17,4.17,0,0,1,30.519,128.969Zm1.007.015a2.965,2.965,0,0,0,.718,2.1,2.5,2.5,0,0,0,3.617-.008,3.133,3.133,0,0,0,.713-2.2,3.785,3.785,0,0,0-.3-1.574,2.341,2.341,0,0,0-.892-1.043,2.419,2.419,0,0,0-1.317-.37,2.5,2.5,0,0,0-1.787.713A3.181,3.181,0,0,0,31.526,128.984Z"/><path class="cls-5" d="M39.563,132.566h-.842V125.18h.907v2.635a1.8,1.8,0,0,1,1.466-.72,2.239,2.239,0,0,1,.934.2,1.915,1.915,0,0,1,.726.559,2.69,2.69,0,0,1,.446.869,3.572,3.572,0,0,1,.161,1.089,3.057,3.057,0,0,1-.679,2.126,2.128,2.128,0,0,1-1.633.751,1.7,1.7,0,0,1-1.486-.792Zm-.01-2.715a2.784,2.784,0,0,0,.261,1.39,1.3,1.3,0,0,0,2.187.184,2.344,2.344,0,0,0,.434-1.539,2.391,2.391,0,0,0-.416-1.547,1.269,1.269,0,0,0-1-.5,1.308,1.308,0,0,0-1.029.515A2.27,2.27,0,0,0,39.553,129.851Z"/><path class="cls-5" d="M43.311,134.643l.17-.772a1.829,1.829,0,0,0,.429.07.479.479,0,0,0,.413-.183,1.871,1.871,0,0,0,.136-.919v-5.623h.907v5.642a2.649,2.649,0,0,1-.257,1.376,1.2,1.2,0,0,1-1.088.5A2.65,2.65,0,0,1,43.311,134.643Zm1.148-8.41V125.18h.907v1.053Z"/><path class="cls-5" d="M50.42,130.844l.937.115a2.272,2.272,0,0,1-.821,1.274,2.777,2.777,0,0,1-3.393-.269,2.825,2.825,0,0,1-.688-2.027,2.957,2.957,0,0,1,.7-2.1,2.355,2.355,0,0,1,1.8-.746,2.285,2.285,0,0,1,1.753.73,2.9,2.9,0,0,1,.681,2.056c0,.054,0,.135,0,.242h-3.99a2.051,2.051,0,0,0,.5,1.35,1.485,1.485,0,0,0,1.119.468,1.391,1.391,0,0,0,.851-.261A1.742,1.742,0,0,0,50.42,130.844Zm-2.978-1.467h2.989a1.831,1.831,0,0,0-.343-1.013,1.391,1.391,0,0,0-1.124-.523,1.434,1.434,0,0,0-1.05.418A1.655,1.655,0,0,0,47.442,129.377Z"/><path class="cls-5" d="M55.987,130.606l.892.117a2.319,2.319,0,0,1-.748,1.443,2.181,2.181,0,0,1-1.479.522,2.3,2.3,0,0,1-1.766-.718,2.917,2.917,0,0,1-.667-2.059,3.711,3.711,0,0,1,.287-1.516,2,2,0,0,1,.874-.975,2.589,2.589,0,0,1,1.277-.325,2.219,2.219,0,0,1,1.426.44,2.025,2.025,0,0,1,.71,1.253l-.881.136a1.469,1.469,0,0,0-.446-.812,1.157,1.157,0,0,0-.774-.271,1.4,1.4,0,0,0-1.113.491,2.329,2.329,0,0,0-.429,1.554,2.415,2.415,0,0,0,.413,1.567,1.348,1.348,0,0,0,1.079.488,1.269,1.269,0,0,0,.892-.327A1.622,1.622,0,0,0,55.987,130.606Z"/><path class="cls-5" d="M59.635,131.755l.131.8a3.413,3.413,0,0,1-.685.08,1.545,1.545,0,0,1-.767-.157.872.872,0,0,1-.382-.41A3.243,3.243,0,0,1,57.821,131v-3.078h-.665v-.705h.665v-1.325l.9-.544v1.869h.912v.705h-.912v3.129a1.577,1.577,0,0,0,.048.5.369.369,0,0,0,.156.176.6.6,0,0,0,.31.065A3.017,3.017,0,0,0,59.635,131.755Z"/></g><polygon class="cls-11" points="80.986 50.55 87.081 48.11 85.591 46.944 91.401 39.524 89.192 37.794 83.382 45.214 81.893 44.048 80.986 50.55"/><polygon class="cls-11" points="73.66 44.815 79.755 42.374 78.266 41.208 84.076 33.788 81.866 32.058 76.057 39.479 74.567 38.312 73.66 44.815"/><polygon class="cls-11" points="66.335 39.079 72.43 36.639 70.941 35.473 76.75 28.053 74.541 26.323 68.732 33.743 67.242 32.577 66.335 39.079"/><g class="cls-4"><path class="cls-5" d="M87.155,29.871V22.485h.978v7.386Z"/><path class="cls-5" d="M89.73,29.871v-5.35h.817v.811a2.2,2.2,0,0,1,.577-.751,1.006,1.006,0,0,1,.582-.182,1.775,1.775,0,0,1,.932.292l-.313.842a1.3,1.3,0,0,0-.665-.2.861.861,0,0,0-.534.18.963.963,0,0,0-.337.5,3.522,3.522,0,0,0-.151,1.058v2.8Z"/><path class="cls-5" d="M93.166,29.871v-5.35h.816v.811a2.2,2.2,0,0,1,.578-.751,1,1,0,0,1,.582-.182,1.772,1.772,0,0,1,.931.292l-.312.842a1.3,1.3,0,0,0-.665-.2.859.859,0,0,0-.534.18.957.957,0,0,0-.337.5,3.49,3.49,0,0,0-.152,1.058v2.8Z"/><path class="cls-5" d="M100.1,29.211a3.345,3.345,0,0,1-.969.6,2.8,2.8,0,0,1-1,.177,1.943,1.943,0,0,1-1.356-.431,1.42,1.42,0,0,1-.473-1.1,1.467,1.467,0,0,1,.178-.718,1.5,1.5,0,0,1,.469-.521,2.192,2.192,0,0,1,.652-.3,6.193,6.193,0,0,1,.806-.136,8.322,8.322,0,0,0,1.618-.313c0-.124.005-.2.005-.237a1,1,0,0,0-.257-.78,1.513,1.513,0,0,0-1.033-.308,1.593,1.593,0,0,0-.944.225,1.357,1.357,0,0,0-.451.793l-.887-.121a2.2,2.2,0,0,1,.4-.92,1.754,1.754,0,0,1,.8-.539,3.57,3.57,0,0,1,1.214-.189,3.194,3.194,0,0,1,1.113.162,1.457,1.457,0,0,1,.63.405,1.413,1.413,0,0,1,.282.617,5.011,5.011,0,0,1,.046.837v1.209a12.767,12.767,0,0,0,.058,1.6,2.009,2.009,0,0,0,.229.642h-.947A1.9,1.9,0,0,1,100.1,29.211Zm-.075-2.025a6.69,6.69,0,0,1-1.481.342,3.5,3.5,0,0,0-.791.181.8.8,0,0,0-.359.3.8.8,0,0,0,.15,1.036,1.178,1.178,0,0,0,.8.242,1.869,1.869,0,0,0,.932-.23,1.412,1.412,0,0,0,.6-.627,2.2,2.2,0,0,0,.146-.907Z"/><path class="cls-5" d="M105.822,29.871V29.2a1.663,1.663,0,0,1-1.5.8,2.1,2.1,0,0,1-1.177-.353,2.324,2.324,0,0,1-.831-.985,3.409,3.409,0,0,1-.3-1.453,3.789,3.789,0,0,1,.268-1.454,2.1,2.1,0,0,1,.8-1,2.137,2.137,0,0,1,1.194-.348,1.77,1.77,0,0,1,.861.2,1.794,1.794,0,0,1,.615.531v-2.65h.9v7.386Zm-2.866-2.67a2.321,2.321,0,0,0,.433,1.536,1.3,1.3,0,0,0,1.023.509,1.283,1.283,0,0,0,1.01-.486,2.243,2.243,0,0,0,.416-1.484,2.517,2.517,0,0,0-.424-1.612,1.3,1.3,0,0,0-1.043-.514,1.259,1.259,0,0,0-1.01.494A2.439,2.439,0,0,0,102.956,27.2Z"/><path class="cls-5" d="M108.1,23.528V22.485H109v1.043Zm0,6.343v-5.35H109v5.35Z"/><path class="cls-5" d="M113.874,29.211a3.349,3.349,0,0,1-.97.6,2.79,2.79,0,0,1-1,.177,1.939,1.939,0,0,1-1.355-.431,1.418,1.418,0,0,1-.474-1.1,1.489,1.489,0,0,1,.648-1.239,2.192,2.192,0,0,1,.652-.3,6.162,6.162,0,0,1,.806-.136,8.355,8.355,0,0,0,1.618-.313c0-.124,0-.2,0-.237a1,1,0,0,0-.257-.78,1.514,1.514,0,0,0-1.033-.308,1.6,1.6,0,0,0-.945.225,1.362,1.362,0,0,0-.451.793l-.887-.121a2.2,2.2,0,0,1,.4-.92,1.744,1.744,0,0,1,.8-.539,3.566,3.566,0,0,1,1.214-.189,3.194,3.194,0,0,1,1.113.162,1.457,1.457,0,0,1,.63.405,1.436,1.436,0,0,1,.282.617,5.125,5.125,0,0,1,.046.837v1.209a12.847,12.847,0,0,0,.057,1.6,2.036,2.036,0,0,0,.23.642h-.947A1.882,1.882,0,0,1,113.874,29.211Zm-.075-2.025a6.688,6.688,0,0,1-1.482.342,3.514,3.514,0,0,0-.791.181.8.8,0,0,0-.358.3.8.8,0,0,0,.149,1.036,1.182,1.182,0,0,0,.8.242,1.873,1.873,0,0,0,.933-.23,1.415,1.415,0,0,0,.6-.627,2.179,2.179,0,0,0,.147-.907Z"/><path class="cls-5" d="M118.1,29.06l.13.8a3.325,3.325,0,0,1-.684.08,1.558,1.558,0,0,1-.767-.155.9.9,0,0,1-.383-.411,3.285,3.285,0,0,1-.11-1.071V25.226h-.665v-.7h.665V23.2l.9-.544v1.87h.913v.7h-.913v3.128a1.621,1.621,0,0,0,.048.5.386.386,0,0,0,.157.176.609.609,0,0,0,.31.065A3.017,3.017,0,0,0,118.1,29.06Z"/><path class="cls-5" d="M122.65,28.148l.938.116a2.292,2.292,0,0,1-.821,1.275,2.784,2.784,0,0,1-3.394-.27,2.827,2.827,0,0,1-.687-2.028,2.955,2.955,0,0,1,.695-2.1,2.354,2.354,0,0,1,1.8-.746,2.289,2.289,0,0,1,1.753.731,2.9,2.9,0,0,1,.68,2.056c0,.053,0,.134,0,.241h-3.99a2.055,2.055,0,0,0,.5,1.351,1.486,1.486,0,0,0,1.119.468,1.39,1.39,0,0,0,.852-.262A1.736,1.736,0,0,0,122.65,28.148Zm-2.977-1.466h2.988a1.82,1.82,0,0,0-.343-1.013,1.392,1.392,0,0,0-1.124-.524,1.44,1.44,0,0,0-1.049.418A1.651,1.651,0,0,0,119.673,26.682Z"/><path class="cls-5" d="M128.2,29.871V29.2a1.663,1.663,0,0,1-1.5.8,2.1,2.1,0,0,1-1.177-.353,2.324,2.324,0,0,1-.831-.985,3.409,3.409,0,0,1-.3-1.453,3.789,3.789,0,0,1,.268-1.454,2.1,2.1,0,0,1,.8-1,2.137,2.137,0,0,1,1.194-.348,1.773,1.773,0,0,1,.861.2,1.794,1.794,0,0,1,.615.531v-2.65h.9v7.386Zm-2.866-2.67a2.321,2.321,0,0,0,.433,1.536,1.3,1.3,0,0,0,1.023.509,1.283,1.283,0,0,0,1.01-.486,2.243,2.243,0,0,0,.416-1.484,2.517,2.517,0,0,0-.424-1.612,1.3,1.3,0,0,0-1.043-.514,1.259,1.259,0,0,0-1.01.494A2.439,2.439,0,0,0,125.332,27.2Z"/><path class="cls-5" d="M133.313,29.871V22.485h.907v7.386Z"/><path class="cls-5" d="M135.631,23.528V22.485h.906v1.043Zm0,6.343v-5.35h.906v5.35Z"/><path class="cls-5" d="M137.751,30.314l.882.131a.839.839,0,0,0,.307.595,1.511,1.511,0,0,0,.922.252,1.622,1.622,0,0,0,.973-.252,1.237,1.237,0,0,0,.463-.706,5.667,5.667,0,0,0,.065-1.163,1.861,1.861,0,0,1-1.48.7,2.016,2.016,0,0,1-1.708-.8,3.06,3.06,0,0,1-.605-1.909,3.553,3.553,0,0,1,.277-1.414,2.22,2.22,0,0,1,.8-1,2.176,2.176,0,0,1,1.238-.353,1.918,1.918,0,0,1,1.561.766v-.644h.837v4.625a4.379,4.379,0,0,1-.255,1.771,1.863,1.863,0,0,1-.805.823,2.8,2.8,0,0,1-1.359.3,2.565,2.565,0,0,1-1.547-.43A1.458,1.458,0,0,1,137.751,30.314ZM138.5,27.1a2.328,2.328,0,0,0,.418,1.537,1.378,1.378,0,0,0,2.1,0,2.247,2.247,0,0,0,.423-1.509A2.2,2.2,0,0,0,141,25.649a1.349,1.349,0,0,0-1.051-.5,1.311,1.311,0,0,0-1.028.491A2.184,2.184,0,0,0,138.5,27.1Z"/><path class="cls-5" d="M143.657,29.871V22.485h.906v2.65a2.03,2.03,0,0,1,1.6-.736,2.164,2.164,0,0,1,1.033.235,1.376,1.376,0,0,1,.627.647,2.985,2.985,0,0,1,.189,1.2v3.391h-.907V26.48a1.4,1.4,0,0,0-.3-.99,1.1,1.1,0,0,0-.834-.31,1.467,1.467,0,0,0-.758.21,1.174,1.174,0,0,0-.506.566,2.6,2.6,0,0,0-.152.988v2.927Z"/><path class="cls-5" d="M151.375,29.06l.131.8a3.342,3.342,0,0,1-.685.08,1.551,1.551,0,0,1-.766-.155.885.885,0,0,1-.383-.411,3.285,3.285,0,0,1-.11-1.071V25.226H148.9v-.7h.666V23.2l.9-.544v1.87h.912v.7h-.912v3.128a1.589,1.589,0,0,0,.048.5.384.384,0,0,0,.156.176.613.613,0,0,0,.311.065A3.018,3.018,0,0,0,151.375,29.06Z"/></g></svg>