<svg id="レイヤー_1" data-name="レイヤー 1" xmlns="http://www.w3.org/2000/svg" xmlns:xlink="http://www.w3.org/1999/xlink" viewBox="0 0 718 236"><defs><style>.cls-1,.cls-11,.cls-13,.cls-17,.cls-7{stroke:#000;stroke-miterlimit:10;}.cls-1,.cls-11{stroke-width:0.147px;}.cls-1{fill:url(#linear-gradient);}.cls-12,.cls-14,.cls-15,.cls-2,.cls-6,.cls-8,.cls-9{opacity:0.6;}.cls-2{fill:url(#名称未設定グラデーション_23);}.cls-3{fill:url(#linear-gradient-2);}.cls-4{fill:url(#radial-gradient);}.cls-5{fill:url(#linear-gradient-3);}.cls-6{fill:url(#名称未設定グラデーション_23-2);}.cls-7{fill:#737373;}.cls-13,.cls-7{stroke-width:0.294px;}.cls-8{fill:url(#名称未設定グラデーション_23-3);}.cls-9{fill:url(#名称未設定グラデーション_23-4);}.cls-10{fill:#562e00;}.cls-11{fill:url(#linear-gradient-4);}.cls-12{fill:url(#名称未設定グラデーション_23-5);}.cls-13{fill:#78c1ff;}.cls-14{fill:url(#名称未設定グラデーション_23-6);}.cls-15{fill:url(#名称未設定グラデーション_23-7);}.cls-16{fill:#9777ff;}.cls-17{fill:none;stroke-width:0.588px;}</style><linearGradient id="linear-gradient" x1="226.768" y1="179.884" x2="293.942" y2="218.967" gradientTransform="translate(0 -7.617) scale(1 0.962)" gradientUnits="userSpaceOnUse"><stop offset="0" stop-color="#9c9c9c"/><stop offset="0.049" stop-color="#acacac"/><stop offset="0.145" stop-color="#d5d5d5"/><stop offset="0.229" stop-color="#fff"/><stop offset="0.283" stop-color="#f0f0f0"/><stop offset="0.395" stop-color="#d6d6d6"/><stop offset="0.495" stop-color="#c6c6c6"/><stop offset="0.574" stop-color="silver"/><stop offset="0.607" stop-color="#b4b4b4"/><stop offset="0.714" stop-color="#959595"/><stop offset="0.818" stop-color="#7e7e7e"/><stop offset="0.915" stop-color="#707070"/><stop offset="1" stop-color="#6b6b6b"/></linearGradient><linearGradient id="名称未設定グラデーション_23" x1="254.717" y1="151.288" x2="254.717" y2="181.565" gradientUnits="userSpaceOnUse"><stop offset="0" stop-color="#8c7aff"/><stop offset="1" stop-color="#fff"/></linearGradient><linearGradient id="linear-gradient-2" x1="230.794" y1="83.379" x2="285.112" y2="99.881" gradientUnits="userSpaceOnUse"><stop offset="0" stop-color="#4f4f4f"/><stop offset="0.065" stop-color="#5d5d5d"/><stop offset="0.187" stop-color="#828282"/><stop offset="0.34" stop-color="#b8b8b8"/><stop offset="0.395" stop-color="#a1a1a1"/><stop offset="0.471" stop-color="#888"/><stop offset="0.557" stop-color="#747474"/><stop offset="0.655" stop-color="#666"/><stop offset="0.778" stop-color="#5e5e5e"/><stop offset="1" stop-color="#5c5c5c"/></linearGradient><radialGradient id="radial-gradient" cx="256.089" cy="108.409" r="29.415" gradientTransform="translate(0 -7.617) scale(1 0.962)" gradientUnits="userSpaceOnUse"><stop offset="0" stop-color="#75d3ff"/><stop offset="1" stop-color="#008eff"/></radialGradient><linearGradient id="linear-gradient-3" x1="226.332" y1="120.575" x2="283.101" y2="120.575" gradientUnits="userSpaceOnUse"><stop offset="0" stop-color="#9c9c9c"/><stop offset="0.068" stop-color="#aaa"/><stop offset="0.196" stop-color="#cfcfcf"/><stop offset="0.34" stop-color="#fff"/><stop offset="0.356" stop-color="#f3f3f3"/><stop offset="0.412" stop-color="#cfcfcf"/><stop offset="0.474" stop-color="#b0b0b0"/><stop offset="0.541" stop-color="#979797"/><stop offset="0.615" stop-color="#838383"/><stop offset="0.701" stop-color="#757575"/><stop offset="0.807" stop-color="#6d6d6d"/><stop offset="1" stop-color="#6b6b6b"/></linearGradient><linearGradient id="名称未設定グラデーション_23-2" x1="254.716" y1="71.237" x2="254.684" y2="92.688" xlink:href="#名称未設定グラデーション_23"/><linearGradient id="名称未設定グラデーション_23-3" x1="254.716" y1="34.92" x2="254.684" y2="56.37" xlink:href="#名称未設定グラデーション_23"/><linearGradient id="名称未設定グラデーション_23-4" x1="237.675" y1="11.46" x2="276.469" y2="23.246" xlink:href="#名称未設定グラデーション_23"/><linearGradient id="linear-gradient-4" x1="430.768" y1="191.06" x2="497.943" y2="230.143" xlink:href="#linear-gradient"/><linearGradient id="名称未設定グラデーション_23-5" x1="458.717" y1="162.04" x2="458.717" y2="192.317" xlink:href="#名称未設定グラデーション_23"/><linearGradient id="名称未設定グラデーション_23-6" x1="458.717" y1="137.859" x2="458.685" y2="159.309" xlink:href="#名称未設定グラデーション_23"/><linearGradient id="名称未設定グラデーション_23-7" x1="441.675" y1="114.399" x2="480.469" y2="126.184" xlink:href="#名称未設定グラデーション_23"/></defs><path class="cls-1" d="M301.491,181.1c0,7.79-20.941,14.106-46.774,14.106s-46.775-6.316-46.775-14.106,20.942-14.107,46.775-14.107S301.491,173.3,301.491,181.1Z"/><polygon class="cls-2" points="257.664 181.094 251.769 181.094 226.332 141.607 283.101 141.607 257.664 181.094"/><path class="cls-3" d="M283.1,90.646c0,4.915-12.708,8.9-28.384,8.9s-28.385-3.984-28.385-8.9,12.708-8.9,28.385-8.9S283.1,85.733,283.1,90.646Z"/><path class="cls-4" d="M281.537,90.646c0,4.468-12.008,8.089-26.82,8.089S227.9,95.114,227.9,90.646s12.008-8.088,26.821-8.088S281.537,86.179,281.537,90.646Z"/><path class="cls-5" d="M254.717,99.545c-15.677,0-28.385-3.984-28.385-8.9v50.961c0,4.913,12.708,8.9,28.385,8.9s28.384-3.984,28.384-8.9V90.646C283.1,95.561,270.393,99.545,254.717,99.545Z"/><path class="cls-6" d="M254.717,59.308c-11.172,0-20.23-2.838-20.23-6.341V89.284c0,3.5,9.058,6.342,20.23,6.342s20.229-2.839,20.229-6.342V52.967C274.946,56.47,265.888,59.308,254.717,59.308Z"/><polygon class="cls-7" points="254.116 37.979 207.996 56.001 255.317 71.075 301.437 53.055 254.116 37.979"/><path class="cls-8" d="M254.717,22.991c-11.172,0-20.23-2.839-20.23-6.34V52.967c0,3.5,9.058,6.341,20.23,6.341s20.229-2.838,20.229-6.341V16.651C274.946,20.152,265.888,22.991,254.717,22.991Z"/><path class="cls-9" d="M275.032,16.651c0,3.509-9.076,6.354-20.272,6.354s-20.273-2.845-20.273-6.354S243.564,10.3,254.76,10.3,275.032,13.141,275.032,16.651Z"/><path class="cls-10" d="M304.95,59.309V50.887h3.735a4.97,4.97,0,0,1,1.711.226,1.874,1.874,0,0,1,.937.8,2.4,2.4,0,0,1,.351,1.27,2.119,2.119,0,0,1-.58,1.51,2.946,2.946,0,0,1-1.793.782,2.846,2.846,0,0,1,.671.419,5.762,5.762,0,0,1,.926,1.121l1.465,2.292h-1.4l-1.115-1.752q-.487-.759-.8-1.161a2.5,2.5,0,0,0-.566-.563,1.71,1.71,0,0,0-.508-.225,3.425,3.425,0,0,0-.621-.04h-1.293v3.741Zm1.114-4.7h2.4a3.566,3.566,0,0,0,1.194-.159,1.274,1.274,0,0,0,.656-.505,1.371,1.371,0,0,0,.223-.755,1.256,1.256,0,0,0-.433-.983,2.03,2.03,0,0,0-1.371-.385h-2.666Z"/><path class="cls-10" d="M317.475,57.344l1.068.132a2.6,2.6,0,0,1-.937,1.454,3.175,3.175,0,0,1-3.869-.308,3.224,3.224,0,0,1-.784-2.312,3.372,3.372,0,0,1,.793-2.39,2.686,2.686,0,0,1,2.057-.851,2.614,2.614,0,0,1,2,.833,3.312,3.312,0,0,1,.775,2.344c0,.062,0,.153,0,.276h-4.551a2.354,2.354,0,0,0,.57,1.54,1.693,1.693,0,0,0,1.275.535,1.586,1.586,0,0,0,.971-.3A2,2,0,0,0,317.475,57.344Zm-3.4-1.672h3.407a2.067,2.067,0,0,0-.39-1.154,1.585,1.585,0,0,0-1.282-.6,1.646,1.646,0,0,0-1.2.476A1.9,1.9,0,0,0,314.079,55.672Z"/><path class="cls-10" d="M322.1,58.384l.149.913a3.859,3.859,0,0,1-.781.092,1.766,1.766,0,0,1-.873-.178.994.994,0,0,1-.437-.468,3.677,3.677,0,0,1-.127-1.222V54.012h-.758v-.8h.758V51.7l1.029-.62v2.131h1.04v.8h-1.04v3.567a1.825,1.825,0,0,0,.054.569.431.431,0,0,0,.179.2.692.692,0,0,0,.353.074A3.5,3.5,0,0,0,322.1,58.384Z"/><path class="cls-10" d="M323.115,52.076V50.887h1.034v1.189Zm0,7.233v-6.1h1.034v6.1Z"/><path class="cls-10" d="M329.705,57.074l1.017.132a2.646,2.646,0,0,1-.853,1.646,2.488,2.488,0,0,1-1.686.594,2.62,2.62,0,0,1-2.014-.818,3.32,3.32,0,0,1-.761-2.347,4.25,4.25,0,0,1,.327-1.729,2.288,2.288,0,0,1,1-1.112,2.958,2.958,0,0,1,1.456-.371,2.532,2.532,0,0,1,1.626.5,2.305,2.305,0,0,1,.81,1.428l-1,.155a1.667,1.667,0,0,0-.509-.925,1.313,1.313,0,0,0-.881-.31,1.6,1.6,0,0,0-1.27.56,2.662,2.662,0,0,0-.488,1.772,2.755,2.755,0,0,0,.47,1.787,1.538,1.538,0,0,0,1.23.558,1.45,1.45,0,0,0,1.017-.374A1.854,1.854,0,0,0,329.705,57.074Z"/><path class="cls-10" d="M331.584,59.309V50.887h1.034v8.422Z"/><path class="cls-10" d="M338.4,57.344l1.069.132a2.6,2.6,0,0,1-.937,1.454,3.175,3.175,0,0,1-3.869-.308,3.224,3.224,0,0,1-.784-2.312,3.372,3.372,0,0,1,.793-2.39,2.686,2.686,0,0,1,2.057-.851,2.614,2.614,0,0,1,2,.833,3.312,3.312,0,0,1,.775,2.344c0,.062,0,.153,0,.276h-4.551a2.349,2.349,0,0,0,.57,1.54,1.691,1.691,0,0,0,1.275.535,1.586,1.586,0,0,0,.971-.3A1.993,1.993,0,0,0,338.4,57.344ZM335,55.672h3.407a2.075,2.075,0,0,0-.39-1.154,1.587,1.587,0,0,0-1.282-.6,1.646,1.646,0,0,0-1.2.476A1.9,1.9,0,0,0,335,55.672Z"/><path class="cls-10" d="M286.067,113.711v-8.422H289.8a4.956,4.956,0,0,1,1.712.227,1.878,1.878,0,0,1,.936.8,2.388,2.388,0,0,1,.351,1.27,2.118,2.118,0,0,1-.581,1.511,2.934,2.934,0,0,1-1.792.781,2.854,2.854,0,0,1,.672.42,5.781,5.781,0,0,1,.925,1.12l1.465,2.292h-1.4l-1.114-1.752q-.489-.759-.805-1.161a2.567,2.567,0,0,0-.565-.563,1.7,1.7,0,0,0-.509-.224,3.329,3.329,0,0,0-.62-.04h-1.293v3.74Zm1.115-4.7h2.4a3.6,3.6,0,0,0,1.194-.158,1.28,1.28,0,0,0,.656-.5,1.376,1.376,0,0,0,.223-.756,1.256,1.256,0,0,0-.433-.983,2.032,2.032,0,0,0-1.37-.384h-2.666Z"/><path class="cls-10" d="M298.591,111.746l1.069.132a2.613,2.613,0,0,1-.936,1.454,3.173,3.173,0,0,1-3.87-.308,3.223,3.223,0,0,1-.784-2.312,3.37,3.37,0,0,1,.793-2.39,2.686,2.686,0,0,1,2.056-.85,2.611,2.611,0,0,1,2,.833,3.309,3.309,0,0,1,.775,2.343c0,.062,0,.154-.006.277h-4.549a2.336,2.336,0,0,0,.569,1.539,1.691,1.691,0,0,0,1.275.535,1.584,1.584,0,0,0,.971-.3A1.981,1.981,0,0,0,298.591,111.746Zm-3.395-1.672H298.6a2.065,2.065,0,0,0-.391-1.154,1.582,1.582,0,0,0-1.281-.6,1.643,1.643,0,0,0-1.2.477A1.888,1.888,0,0,0,295.2,110.074Z"/><path class="cls-10" d="M304.916,113.711v-.77a1.9,1.9,0,0,1-1.706.908,2.384,2.384,0,0,1-1.341-.4,2.629,2.629,0,0,1-.948-1.123,3.879,3.879,0,0,1-.336-1.657,4.339,4.339,0,0,1,.3-1.657,2.4,2.4,0,0,1,.914-1.141,2.442,2.442,0,0,1,1.361-.4,2.04,2.04,0,0,1,1.684.839v-3.022h1.028v8.422Zm-3.269-3.045a2.646,2.646,0,0,0,.5,1.752,1.485,1.485,0,0,0,1.166.581,1.465,1.465,0,0,0,1.152-.555,2.561,2.561,0,0,0,.474-1.692,2.873,2.873,0,0,0-.483-1.838,1.483,1.483,0,0,0-1.189-.586,1.438,1.438,0,0,0-1.153.563A2.788,2.788,0,0,0,301.647,110.666Z"/><path class="cls-10" d="M311.5,113.711v-.9a2.235,2.235,0,0,1-1.937,1.035,2.456,2.456,0,0,1-1.007-.207,1.662,1.662,0,0,1-.7-.52,1.963,1.963,0,0,1-.319-.767,5.29,5.29,0,0,1-.062-.965v-3.781h1.034v3.384a6.088,6.088,0,0,0,.062,1.092,1.085,1.085,0,0,0,.414.641,1.281,1.281,0,0,0,.782.232,1.7,1.7,0,0,0,.873-.238,1.322,1.322,0,0,0,.577-.65,3.249,3.249,0,0,0,.17-1.191v-3.27h1.034v6.1Z"/><path class="cls-10" d="M318.025,111.477l1.017.131a2.639,2.639,0,0,1-.853,1.646,2.489,2.489,0,0,1-1.686.595,2.621,2.621,0,0,1-2.014-.819,3.318,3.318,0,0,1-.76-2.346,4.235,4.235,0,0,1,.327-1.73,2.272,2.272,0,0,1,1-1.111,2.953,2.953,0,0,1,1.456-.371,2.536,2.536,0,0,1,1.626.5,2.3,2.3,0,0,1,.809,1.427l-1,.156a1.659,1.659,0,0,0-.508-.925,1.315,1.315,0,0,0-.882-.311,1.6,1.6,0,0,0-1.27.561,2.659,2.659,0,0,0-.488,1.771,2.747,2.747,0,0,0,.471,1.787,1.532,1.532,0,0,0,1.229.558,1.45,1.45,0,0,0,1.017-.374A1.854,1.854,0,0,0,318.025,111.477Z"/><path class="cls-10" d="M324.1,111.746l1.068.132a2.6,2.6,0,0,1-.937,1.454,3.171,3.171,0,0,1-3.869-.308,3.223,3.223,0,0,1-.784-2.312,3.375,3.375,0,0,1,.793-2.39,2.686,2.686,0,0,1,2.057-.85,2.61,2.61,0,0,1,2,.833,3.309,3.309,0,0,1,.775,2.343c0,.062,0,.154,0,.277H320.65a2.346,2.346,0,0,0,.57,1.539A1.693,1.693,0,0,0,322.5,113a1.586,1.586,0,0,0,.971-.3A2,2,0,0,0,324.1,111.746Zm-3.4-1.672h3.407a2.081,2.081,0,0,0-.39-1.154,1.585,1.585,0,0,0-1.282-.6,1.643,1.643,0,0,0-1.2.477A1.892,1.892,0,0,0,320.708,110.074Z"/><path class="cls-10" d="M330.428,113.711v-.77a1.9,1.9,0,0,1-1.706.908,2.381,2.381,0,0,1-1.341-.4,2.622,2.622,0,0,1-.948-1.123,3.879,3.879,0,0,1-.336-1.657,4.339,4.339,0,0,1,.3-1.657,2.406,2.406,0,0,1,.913-1.141,2.447,2.447,0,0,1,1.362-.4,2.037,2.037,0,0,1,1.683.839v-3.022h1.029v8.422Zm-3.269-3.045a2.652,2.652,0,0,0,.494,1.752,1.486,1.486,0,0,0,1.166.581,1.468,1.468,0,0,0,1.153-.555,2.561,2.561,0,0,0,.473-1.692,2.873,2.873,0,0,0-.482-1.838,1.484,1.484,0,0,0-1.19-.586,1.433,1.433,0,0,0-1.151.563A2.775,2.775,0,0,0,327.159,110.666Z"/><path class="cls-10" d="M285.918,132.049v-8.44h.942v.793a2.325,2.325,0,0,1,.753-.7,2.069,2.069,0,0,1,1.017-.233,2.41,2.41,0,0,1,1.378.4,2.473,2.473,0,0,1,.9,1.135,4.157,4.157,0,0,1,.3,1.605,4.085,4.085,0,0,1-.336,1.687,2.559,2.559,0,0,1-2.324,1.548,1.953,1.953,0,0,1-.928-.218,2.129,2.129,0,0,1-.675-.552v2.97Zm.936-5.354a2.654,2.654,0,0,0,.478,1.741,1.461,1.461,0,0,0,1.154.563,1.493,1.493,0,0,0,1.181-.584,2.768,2.768,0,0,0,.491-1.807,2.694,2.694,0,0,0-.48-1.746,1.445,1.445,0,0,0-1.146-.58,1.491,1.491,0,0,0-1.169.617A2.768,2.768,0,0,0,286.854,126.7Z"/><path class="cls-10" d="M292.45,129.711v-6.1h.931v.926a2.5,2.5,0,0,1,.658-.856,1.146,1.146,0,0,1,.663-.207,2.017,2.017,0,0,1,1.063.333l-.356.96a1.477,1.477,0,0,0-.759-.225.98.98,0,0,0-.608.2,1.1,1.1,0,0,0-.385.567,4.017,4.017,0,0,0-.173,1.206v3.194Z"/><path class="cls-10" d="M296,126.66a3.146,3.146,0,0,1,.942-2.511,2.84,2.84,0,0,1,1.918-.677,2.739,2.739,0,0,1,2.057.824,3.135,3.135,0,0,1,.8,2.278,4.031,4.031,0,0,1-.354,1.853,2.5,2.5,0,0,1-1.028,1.049,2.993,2.993,0,0,1-1.474.373,2.738,2.738,0,0,1-2.07-.822A3.281,3.281,0,0,1,296,126.66Zm1.063,0a2.6,2.6,0,0,0,.511,1.755,1.7,1.7,0,0,0,2.568,0,2.657,2.657,0,0,0,.511-1.786,2.52,2.52,0,0,0-.514-1.715,1.705,1.705,0,0,0-2.565,0A2.587,2.587,0,0,0,297.058,126.66Z"/><path class="cls-10" d="M301.607,132.078l.2-.879a2.051,2.051,0,0,0,.488.08.546.546,0,0,0,.471-.21,2.142,2.142,0,0,0,.155-1.048v-6.412h1.034v6.435a3.009,3.009,0,0,1-.293,1.568,1.367,1.367,0,0,1-1.241.575A3.038,3.038,0,0,1,301.607,132.078Zm1.31-9.589v-1.2h1.034v1.2Z"/><path class="cls-10" d="M309.714,127.746l1.068.132a2.6,2.6,0,0,1-.936,1.454,3.171,3.171,0,0,1-3.869-.308,3.219,3.219,0,0,1-.785-2.312,3.375,3.375,0,0,1,.793-2.39,2.687,2.687,0,0,1,2.057-.85,2.61,2.61,0,0,1,2,.833,3.3,3.3,0,0,1,.775,2.343c0,.062,0,.154,0,.277h-4.551a2.346,2.346,0,0,0,.569,1.539,1.694,1.694,0,0,0,1.275.535,1.584,1.584,0,0,0,.971-.3A1.982,1.982,0,0,0,309.714,127.746Zm-3.4-1.672h3.408a2.073,2.073,0,0,0-.391-1.154,1.585,1.585,0,0,0-1.281-.6,1.646,1.646,0,0,0-1.2.477A1.9,1.9,0,0,0,306.318,126.074Z"/><path class="cls-10" d="M316.062,127.477l1.016.131a2.638,2.638,0,0,1-.852,1.646,2.491,2.491,0,0,1-1.687.595,2.621,2.621,0,0,1-2.014-.819,3.323,3.323,0,0,1-.76-2.346,4.235,4.235,0,0,1,.327-1.73,2.282,2.282,0,0,1,1-1.111,2.955,2.955,0,0,1,1.456-.371,2.536,2.536,0,0,1,1.626.5,2.3,2.3,0,0,1,.809,1.427l-1,.156a1.666,1.666,0,0,0-.509-.925,1.315,1.315,0,0,0-.882-.311,1.605,1.605,0,0,0-1.27.561,2.659,2.659,0,0,0-.488,1.771,2.747,2.747,0,0,0,.471,1.787,1.532,1.532,0,0,0,1.229.558,1.448,1.448,0,0,0,1.017-.374A1.86,1.86,0,0,0,316.062,127.477Z"/><path class="cls-10" d="M320.221,128.786l.149.913a3.789,3.789,0,0,1-.781.092,1.766,1.766,0,0,1-.873-.178,1,1,0,0,1-.437-.467,3.685,3.685,0,0,1-.127-1.222v-3.51H317.4v-.805h.757V122.1l1.029-.62v2.13h1.04v.805h-1.04v3.567a1.833,1.833,0,0,0,.054.57.429.429,0,0,0,.179.2.682.682,0,0,0,.353.074A3.332,3.332,0,0,0,320.221,128.786Z"/><path class="cls-10" d="M321.237,122.479v-1.19h1.034v1.19Zm0,7.232v-6.1h1.034v6.1Z"/><path class="cls-10" d="M323.461,126.66a3.146,3.146,0,0,1,.942-2.511,2.843,2.843,0,0,1,1.919-.677,2.739,2.739,0,0,1,2.057.824,3.139,3.139,0,0,1,.8,2.278,4.032,4.032,0,0,1-.353,1.853,2.511,2.511,0,0,1-1.028,1.049,3,3,0,0,1-1.474.373,2.741,2.741,0,0,1-2.071-.822A3.285,3.285,0,0,1,323.461,126.66Zm1.062,0a2.6,2.6,0,0,0,.512,1.755,1.7,1.7,0,0,0,2.569,0,2.663,2.663,0,0,0,.51-1.786,2.525,2.525,0,0,0-.513-1.715,1.706,1.706,0,0,0-2.566,0A2.587,2.587,0,0,0,324.523,126.66Z"/><path class="cls-10" d="M330.389,129.711v-6.1h.93v.869a2.2,2.2,0,0,1,1.943-1.006,2.546,2.546,0,0,1,1.013.2,1.609,1.609,0,0,1,.693.52,1.989,1.989,0,0,1,.321.764,5.94,5.94,0,0,1,.058,1.006v3.751h-1.034V126a2.793,2.793,0,0,0-.121-.945,1,1,0,0,0-.428-.5,1.368,1.368,0,0,0-.721-.187,1.682,1.682,0,0,0-1.141.419,2.075,2.075,0,0,0-.479,1.592v3.332Z"/><path class="cls-10" d="M339.815,126.66a3.146,3.146,0,0,1,.943-2.511,2.841,2.841,0,0,1,1.919-.677,2.737,2.737,0,0,1,2.056.824,3.134,3.134,0,0,1,.8,2.278,4.046,4.046,0,0,1-.352,1.853,2.513,2.513,0,0,1-1.029,1.049,2.992,2.992,0,0,1-1.473.373,2.743,2.743,0,0,1-2.072-.822A3.285,3.285,0,0,1,339.815,126.66Zm1.063,0a2.6,2.6,0,0,0,.512,1.755,1.7,1.7,0,0,0,2.568,0,2.657,2.657,0,0,0,.511-1.786,2.52,2.52,0,0,0-.514-1.715,1.705,1.705,0,0,0-2.565,0A2.587,2.587,0,0,0,340.878,126.66Z"/><path class="cls-10" d="M346.743,132.049v-8.44h.943v.793a2.3,2.3,0,0,1,.752-.7,2.072,2.072,0,0,1,1.017-.233,2.411,2.411,0,0,1,1.379.4,2.476,2.476,0,0,1,.9,1.135,4.138,4.138,0,0,1,.305,1.605,4.085,4.085,0,0,1-.336,1.687,2.528,2.528,0,0,1-.976,1.148,2.5,2.5,0,0,1-1.348.4,1.955,1.955,0,0,1-.928-.218,2.129,2.129,0,0,1-.675-.552v2.97Zm.937-5.354a2.66,2.66,0,0,0,.476,1.741,1.466,1.466,0,0,0,1.156.563,1.493,1.493,0,0,0,1.18-.584,2.768,2.768,0,0,0,.491-1.807,2.694,2.694,0,0,0-.48-1.746,1.444,1.444,0,0,0-1.146-.58,1.491,1.491,0,0,0-1.169.617A2.773,2.773,0,0,0,347.68,126.7Z"/><path class="cls-10" d="M355.544,128.786l.149.913a3.781,3.781,0,0,1-.781.092,1.766,1.766,0,0,1-.873-.178.994.994,0,0,1-.436-.467,3.685,3.685,0,0,1-.127-1.222v-3.51h-.758v-.805h.758V122.1l1.028-.62v2.13h1.04v.805H354.5v3.567a1.791,1.791,0,0,0,.055.57.427.427,0,0,0,.178.2.685.685,0,0,0,.353.074A3.332,3.332,0,0,0,355.544,128.786Z"/><path class="cls-10" d="M356.561,122.479v-1.19H357.6v1.19Zm0,7.232v-6.1H357.6v6.1Z"/><path class="cls-10" d="M363.15,127.477l1.017.131a2.639,2.639,0,0,1-.853,1.646,2.489,2.489,0,0,1-1.686.595,2.621,2.621,0,0,1-2.014-.819,3.318,3.318,0,0,1-.76-2.346,4.235,4.235,0,0,1,.327-1.73,2.272,2.272,0,0,1,1-1.111,2.953,2.953,0,0,1,1.456-.371,2.536,2.536,0,0,1,1.626.5,2.3,2.3,0,0,1,.809,1.427l-1,.156a1.659,1.659,0,0,0-.508-.925,1.315,1.315,0,0,0-.882-.311,1.6,1.6,0,0,0-1.27.561,2.659,2.659,0,0,0-.488,1.771,2.747,2.747,0,0,0,.471,1.787,1.532,1.532,0,0,0,1.229.558,1.45,1.45,0,0,0,1.017-.374A1.854,1.854,0,0,0,363.15,127.477Z"/><path class="cls-10" d="M364.639,127.89l1.022-.161a1.428,1.428,0,0,0,.48.942,1.667,1.667,0,0,0,1.1.328,1.613,1.613,0,0,0,1.057-.291.869.869,0,0,0,.345-.681.626.626,0,0,0-.3-.55,4.442,4.442,0,0,0-1.057-.351,9.553,9.553,0,0,1-1.577-.5,1.5,1.5,0,0,1-.893-1.4,1.571,1.571,0,0,1,.186-.754,1.683,1.683,0,0,1,.509-.578,2.121,2.121,0,0,1,.657-.3,3.111,3.111,0,0,1,.894-.124,3.531,3.531,0,0,1,1.261.207,1.7,1.7,0,0,1,.8.56,2.191,2.191,0,0,1,.357.945l-1.011.138a1.111,1.111,0,0,0-.4-.735,1.454,1.454,0,0,0-.933-.265,1.685,1.685,0,0,0-1.018.236.685.685,0,0,0-.3.551.576.576,0,0,0,.126.363.919.919,0,0,0,.4.275q.156.057.913.264a12.506,12.506,0,0,1,1.531.48,1.544,1.544,0,0,1,.681.543,1.512,1.512,0,0,1,.247.885,1.738,1.738,0,0,1-.3.974,1.953,1.953,0,0,1-.87.706,3.157,3.157,0,0,1-1.287.25,2.857,2.857,0,0,1-1.812-.495A2.293,2.293,0,0,1,364.639,127.89Z"/><path class="cls-10" d="M306.4,178.334l-2.234-8.422h1.144l1.281,5.521q.205.867.355,1.723.322-1.35.38-1.556l1.6-5.688h1.343l1.207,4.263a22.489,22.489,0,0,1,.655,2.981q.161-.8.42-1.833l1.321-5.411H315l-2.31,8.422h-1.074l-1.775-6.417c-.15-.536-.237-.865-.264-.988-.088.386-.171.717-.247.988l-1.787,6.417Z"/><path class="cls-10" d="M319.887,177.581a3.847,3.847,0,0,1-1.106.69,3.2,3.2,0,0,1-1.14.2,2.211,2.211,0,0,1-1.546-.492,1.62,1.62,0,0,1-.54-1.254,1.667,1.667,0,0,1,.2-.819,1.685,1.685,0,0,1,.534-.594,2.5,2.5,0,0,1,.744-.339,7.346,7.346,0,0,1,.919-.156,9.42,9.42,0,0,0,1.845-.356q.006-.213.006-.27a1.142,1.142,0,0,0-.293-.89,1.732,1.732,0,0,0-1.178-.351,1.818,1.818,0,0,0-1.077.256,1.554,1.554,0,0,0-.515.9l-1.011-.137a2.515,2.515,0,0,1,.454-1.049,1.98,1.98,0,0,1,.914-.614,4.059,4.059,0,0,1,1.384-.216,3.657,3.657,0,0,1,1.27.184,1.682,1.682,0,0,1,.718.462,1.629,1.629,0,0,1,.321.7,5.746,5.746,0,0,1,.052.953v1.379a14.665,14.665,0,0,0,.066,1.825,2.281,2.281,0,0,0,.262.732h-1.08A2.169,2.169,0,0,1,319.887,177.581Zm-.086-2.31a7.532,7.532,0,0,1-1.69.392,3.935,3.935,0,0,0-.9.206.9.9,0,0,0-.408.336.914.914,0,0,0,.169,1.181,1.347,1.347,0,0,0,.917.276,2.122,2.122,0,0,0,1.062-.262,1.608,1.608,0,0,0,.684-.714,2.51,2.51,0,0,0,.167-1.035Z"/><path class="cls-10" d="M322.7,178.334v-5.3h-.913v-.805h.913v-.648a2.806,2.806,0,0,1,.11-.914,1.312,1.312,0,0,1,.525-.651,1.894,1.894,0,0,1,1.055-.25,5.058,5.058,0,0,1,.965.1l-.156.9a3.5,3.5,0,0,0-.608-.057.906.906,0,0,0-.667.2,1.094,1.094,0,0,0-.195.753v.562h1.189v.805h-1.189v5.3Z"/><path class="cls-10" d="M329.894,176.369l1.068.132a2.6,2.6,0,0,1-.937,1.454,3.171,3.171,0,0,1-3.869-.308,3.223,3.223,0,0,1-.784-2.312,3.375,3.375,0,0,1,.793-2.39,2.686,2.686,0,0,1,2.057-.85,2.61,2.61,0,0,1,2,.833,3.309,3.309,0,0,1,.775,2.343c0,.062,0,.154,0,.277H326.44a2.346,2.346,0,0,0,.57,1.539,1.693,1.693,0,0,0,1.275.535,1.586,1.586,0,0,0,.971-.3A2,2,0,0,0,329.894,176.369Zm-3.4-1.672h3.407a2.073,2.073,0,0,0-.39-1.154,1.588,1.588,0,0,0-1.282-.6,1.643,1.643,0,0,0-1.2.477A1.892,1.892,0,0,0,326.5,174.7Z"/><path class="cls-10" d="M332.248,178.334v-6.1h.931v.926a2.52,2.52,0,0,1,.658-.856,1.146,1.146,0,0,1,.663-.207,2.017,2.017,0,0,1,1.063.333l-.356.96a1.477,1.477,0,0,0-.758-.225.985.985,0,0,0-.609.2,1.106,1.106,0,0,0-.385.567,4.017,4.017,0,0,0-.173,1.206v3.194Z"/><path class="cls-10" d="M141.145,225.5l1.072-.094a2.376,2.376,0,0,0,.354,1.058,1.941,1.941,0,0,0,.865.668,3.269,3.269,0,0,0,1.318.255,3.153,3.153,0,0,0,1.148-.194,1.591,1.591,0,0,0,.742-.53,1.23,1.23,0,0,0,.243-.735,1.113,1.113,0,0,0-.235-.706,1.739,1.739,0,0,0-.773-.507,14.976,14.976,0,0,0-1.529-.419,7.812,7.812,0,0,1-1.659-.536,2.336,2.336,0,0,1-.917-.8,1.96,1.96,0,0,1-.3-1.069,2.183,2.183,0,0,1,.369-1.216,2.28,2.28,0,0,1,1.078-.858,4.078,4.078,0,0,1,1.576-.293,4.311,4.311,0,0,1,1.685.307,2.434,2.434,0,0,1,1.122.905,2.614,2.614,0,0,1,.422,1.354l-1.09.082a1.758,1.758,0,0,0-.595-1.23,2.311,2.311,0,0,0-1.5-.416,2.4,2.4,0,0,0-1.5.377,1.136,1.136,0,0,0-.472.912.978.978,0,0,0,.334.761,4.51,4.51,0,0,0,1.714.613,11.4,11.4,0,0,1,1.9.547,2.609,2.609,0,0,1,1.107.876,2.138,2.138,0,0,1,.357,1.222,2.333,2.333,0,0,1-.392,1.292,2.585,2.585,0,0,1-1.128.943,3.922,3.922,0,0,1-1.655.337,4.949,4.949,0,0,1-1.954-.339,2.741,2.741,0,0,1-1.237-1.023A2.892,2.892,0,0,1,141.145,225.5Z"/><path class="cls-10" d="M153.66,226.251l1.09.135a2.658,2.658,0,0,1-.955,1.482,3.233,3.233,0,0,1-3.946-.313,3.284,3.284,0,0,1-.8-2.359,3.437,3.437,0,0,1,.808-2.437,2.739,2.739,0,0,1,2.1-.867,2.661,2.661,0,0,1,2.039.849,3.378,3.378,0,0,1,.791,2.391c0,.062,0,.156-.006.281h-4.64a2.387,2.387,0,0,0,.58,1.57,1.723,1.723,0,0,0,1.3.545,1.616,1.616,0,0,0,.99-.3A2.026,2.026,0,0,0,153.66,226.251Zm-3.463-1.705h3.475a2.107,2.107,0,0,0-.4-1.178,1.615,1.615,0,0,0-1.306-.609,1.676,1.676,0,0,0-1.222.486A1.925,1.925,0,0,0,150.2,224.546Z"/><path class="cls-10" d="M156.074,228.255v-6.223h.944v.873a2.217,2.217,0,0,1,.779-.735,2.183,2.183,0,0,1,1.107-.278,2.043,2.043,0,0,1,1.134.287,1.535,1.535,0,0,1,.624.8,2.234,2.234,0,0,1,1.922-1.089,1.9,1.9,0,0,1,1.424.512,2.191,2.191,0,0,1,.5,1.579v4.272h-1.049v-3.92a2.86,2.86,0,0,0-.1-.911.876.876,0,0,0-.372-.448,1.151,1.151,0,0,0-.632-.17,1.472,1.472,0,0,0-1.09.436,1.924,1.924,0,0,0-.434,1.4v3.615h-1.055v-4.043a1.78,1.78,0,0,0-.257-1.055.977.977,0,0,0-.844-.351,1.533,1.533,0,0,0-.823.234,1.327,1.327,0,0,0-.548.686,3.859,3.859,0,0,0-.17,1.3v3.229Z"/><path class="cls-10" d="M166.076,220.878v-1.213h1.055v1.213Zm0,7.377v-6.223h1.055v6.223Z"/><path class="cls-10" d="M172.8,225.976l1.037.134a2.687,2.687,0,0,1-.87,1.679,2.537,2.537,0,0,1-1.72.607,2.676,2.676,0,0,1-2.054-.835,3.392,3.392,0,0,1-.776-2.394,4.327,4.327,0,0,1,.334-1.764,2.325,2.325,0,0,1,1.017-1.133,3.015,3.015,0,0,1,1.485-.378,2.584,2.584,0,0,1,1.658.512,2.349,2.349,0,0,1,.826,1.456l-1.025.159a1.708,1.708,0,0,0-.519-.944,1.339,1.339,0,0,0-.9-.316,1.637,1.637,0,0,0-1.295.571,2.712,2.712,0,0,0-.5,1.808,2.8,2.8,0,0,0,.481,1.822,1.562,1.562,0,0,0,1.253.568,1.481,1.481,0,0,0,1.038-.381A1.887,1.887,0,0,0,172.8,225.976Z"/><path class="cls-10" d="M174.344,225.144a3.207,3.207,0,0,1,.961-2.561,2.894,2.894,0,0,1,1.957-.691,2.793,2.793,0,0,1,2.1.84,3.2,3.2,0,0,1,.815,2.324,4.105,4.105,0,0,1-.361,1.889,2.549,2.549,0,0,1-1.048,1.07,3.053,3.053,0,0,1-1.5.381,2.8,2.8,0,0,1-2.113-.838A3.349,3.349,0,0,1,174.344,225.144Zm1.084,0a2.656,2.656,0,0,0,.521,1.79,1.738,1.738,0,0,0,2.619,0,2.713,2.713,0,0,0,.522-1.823,2.571,2.571,0,0,0-.525-1.749,1.74,1.74,0,0,0-2.616,0A2.645,2.645,0,0,0,175.428,225.144Z"/><path class="cls-10" d="M181.41,228.255v-6.223h.949v.885a2.237,2.237,0,0,1,1.981-1.025,2.592,2.592,0,0,1,1.034.2,1.627,1.627,0,0,1,.706.53,2.037,2.037,0,0,1,.328.779,6.042,6.042,0,0,1,.059,1.026v3.826h-1.055V224.47a2.842,2.842,0,0,0-.123-.964,1.013,1.013,0,0,0-.436-.51,1.391,1.391,0,0,0-.736-.19,1.709,1.709,0,0,0-1.163.427,2.113,2.113,0,0,0-.489,1.623v3.4Z"/><path class="cls-10" d="M192.121,228.255v-.785a1.936,1.936,0,0,1-1.74.926,2.436,2.436,0,0,1-1.368-.411,2.692,2.692,0,0,1-.967-1.145,3.953,3.953,0,0,1-.343-1.691,4.424,4.424,0,0,1,.311-1.69,2.445,2.445,0,0,1,.931-1.163,2.487,2.487,0,0,1,1.389-.4,2.075,2.075,0,0,1,1.717.855v-3.082H193.1v8.59Zm-3.334-3.106a2.705,2.705,0,0,0,.5,1.788,1.519,1.519,0,0,0,1.189.591,1.491,1.491,0,0,0,1.175-.565,2.6,2.6,0,0,0,.484-1.726,2.923,2.923,0,0,0-.493-1.875,1.513,1.513,0,0,0-1.212-.6,1.46,1.46,0,0,0-1.175.574A2.83,2.83,0,0,0,188.787,225.149Z"/><path class="cls-10" d="M198.836,228.255v-.914a2.278,2.278,0,0,1-1.975,1.055,2.524,2.524,0,0,1-1.028-.211,1.7,1.7,0,0,1-.709-.531,1.981,1.981,0,0,1-.325-.782,5.338,5.338,0,0,1-.065-.984v-3.856h1.055v3.451a6.143,6.143,0,0,0,.065,1.114,1.1,1.1,0,0,0,.421.653,1.31,1.31,0,0,0,.8.237,1.736,1.736,0,0,0,.891-.243,1.353,1.353,0,0,0,.589-.662,3.328,3.328,0,0,0,.173-1.216v-3.334h1.054v6.223Z"/><path class="cls-10" d="M205.492,225.976l1.037.134a2.687,2.687,0,0,1-.87,1.679,2.537,2.537,0,0,1-1.72.607,2.672,2.672,0,0,1-2.053-.835,3.388,3.388,0,0,1-.777-2.394,4.344,4.344,0,0,1,.334-1.764,2.325,2.325,0,0,1,1.017-1.133,3.015,3.015,0,0,1,1.485-.378,2.589,2.589,0,0,1,1.659.512,2.354,2.354,0,0,1,.826,1.456l-1.026.159a1.7,1.7,0,0,0-.518-.944,1.342,1.342,0,0,0-.9-.316,1.637,1.637,0,0,0-1.295.571,2.712,2.712,0,0,0-.5,1.808,2.8,2.8,0,0,0,.481,1.822,1.562,1.562,0,0,0,1.254.568,1.477,1.477,0,0,0,1.037-.381A1.887,1.887,0,0,0,205.492,225.976Z"/><path class="cls-10" d="M209.734,227.312l.153.931a3.884,3.884,0,0,1-.8.094,1.806,1.806,0,0,1-.891-.182,1.016,1.016,0,0,1-.445-.477,3.779,3.779,0,0,1-.129-1.245v-3.58h-.773v-.821h.773v-1.541l1.049-.633v2.174h1.06v.821h-1.06v3.638a1.847,1.847,0,0,0,.055.58.441.441,0,0,0,.182.205.7.7,0,0,0,.36.077A3.473,3.473,0,0,0,209.734,227.312Z"/><path class="cls-10" d="M210.373,225.144a3.207,3.207,0,0,1,.961-2.561,2.894,2.894,0,0,1,1.957-.691,2.8,2.8,0,0,1,2.1.84,3.2,3.2,0,0,1,.814,2.324,4.119,4.119,0,0,1-.36,1.889,2.552,2.552,0,0,1-1.049,1.07,3.053,3.053,0,0,1-1.5.381,2.8,2.8,0,0,1-2.112-.838A3.349,3.349,0,0,1,210.373,225.144Zm1.084,0a2.651,2.651,0,0,0,.522,1.79,1.738,1.738,0,0,0,2.619,0,2.719,2.719,0,0,0,.521-1.823,2.576,2.576,0,0,0-.524-1.749,1.74,1.74,0,0,0-2.616,0A2.64,2.64,0,0,0,211.457,225.144Z"/><path class="cls-10" d="M217.428,228.255v-6.223h.949v.944a2.56,2.56,0,0,1,.671-.873,1.169,1.169,0,0,1,.677-.211,2.064,2.064,0,0,1,1.084.339l-.364.979a1.509,1.509,0,0,0-.773-.229,1.006,1.006,0,0,0-.621.208,1.128,1.128,0,0,0-.393.578,4.112,4.112,0,0,0-.176,1.23v3.258Z"/><path class="cls-10" d="M229.029,226.251l1.09.135a2.658,2.658,0,0,1-.955,1.482,3.233,3.233,0,0,1-3.946-.313,3.288,3.288,0,0,1-.8-2.359,3.437,3.437,0,0,1,.809-2.437,2.736,2.736,0,0,1,2.1-.867,2.661,2.661,0,0,1,2.039.849,3.374,3.374,0,0,1,.791,2.391c0,.062,0,.156-.006.281h-4.64a2.387,2.387,0,0,0,.58,1.57,1.724,1.724,0,0,0,1.3.545,1.616,1.616,0,0,0,.99-.3A2.026,2.026,0,0,0,229.029,226.251Zm-3.463-1.705h3.475a2.115,2.115,0,0,0-.4-1.178,1.618,1.618,0,0,0-1.307-.609,1.677,1.677,0,0,0-1.222.486A1.929,1.929,0,0,0,225.566,224.546Z"/><path class="cls-10" d="M230.74,228.255l2.274-3.234-2.1-2.989h1.319l.955,1.459c.179.278.324.51.433.7.172-.257.33-.486.475-.685l1.049-1.471H236.4l-2.15,2.93,2.314,3.293H235.27l-1.278-1.934-.34-.521-1.634,2.455Z"/><path class="cls-10" d="M237.443,230.64v-8.608h.961v.809a2.367,2.367,0,0,1,.768-.712,2.111,2.111,0,0,1,1.037-.237,2.454,2.454,0,0,1,1.406.41,2.516,2.516,0,0,1,.92,1.157,4.226,4.226,0,0,1,.311,1.638,4.164,4.164,0,0,1-.343,1.719,2.587,2.587,0,0,1-1,1.172,2.556,2.556,0,0,1-1.374.408,1.987,1.987,0,0,1-.946-.223,2.156,2.156,0,0,1-.689-.563v3.03Zm.955-5.461a2.708,2.708,0,0,0,.487,1.775,1.491,1.491,0,0,0,1.178.574,1.526,1.526,0,0,0,1.2-.594,2.823,2.823,0,0,0,.5-1.843,2.748,2.748,0,0,0-.49-1.781,1.47,1.47,0,0,0-1.169-.592,1.519,1.519,0,0,0-1.192.63A2.816,2.816,0,0,0,238.4,225.179Z"/><path class="cls-10" d="M243.725,225.144a3.207,3.207,0,0,1,.961-2.561,2.894,2.894,0,0,1,1.957-.691,2.793,2.793,0,0,1,2.1.84,3.2,3.2,0,0,1,.815,2.324,4.105,4.105,0,0,1-.361,1.889,2.555,2.555,0,0,1-1.048,1.07,3.053,3.053,0,0,1-1.5.381,2.8,2.8,0,0,1-2.113-.838A3.349,3.349,0,0,1,243.725,225.144Zm1.084,0a2.651,2.651,0,0,0,.521,1.79,1.738,1.738,0,0,0,2.619,0,2.713,2.713,0,0,0,.522-1.823,2.571,2.571,0,0,0-.525-1.749,1.74,1.74,0,0,0-2.616,0A2.64,2.64,0,0,0,244.809,225.144Z"/><path class="cls-10" d="M250.369,226.4l1.043-.164a1.46,1.46,0,0,0,.489.961,1.7,1.7,0,0,0,1.122.334,1.647,1.647,0,0,0,1.079-.3.884.884,0,0,0,.351-.694.639.639,0,0,0-.31-.562,4.583,4.583,0,0,0-1.079-.358,9.773,9.773,0,0,1-1.608-.507,1.531,1.531,0,0,1-.911-1.426,1.6,1.6,0,0,1,.19-.771,1.708,1.708,0,0,1,.519-.589,2.179,2.179,0,0,1,.671-.307,3.189,3.189,0,0,1,.911-.126,3.593,3.593,0,0,1,1.286.211,1.742,1.742,0,0,1,.817.571,2.233,2.233,0,0,1,.364.964l-1.032.14a1.124,1.124,0,0,0-.407-.75,1.492,1.492,0,0,0-.952-.269,1.726,1.726,0,0,0-1.037.24.7.7,0,0,0-.311.563.584.584,0,0,0,.129.369.931.931,0,0,0,.405.281c.1.039.416.129.931.269a13.1,13.1,0,0,1,1.562.49,1.583,1.583,0,0,1,.694.553,1.548,1.548,0,0,1,.252.9,1.766,1.766,0,0,1-.308.993,1.989,1.989,0,0,1-.887.721,3.231,3.231,0,0,1-1.313.255,2.921,2.921,0,0,1-1.848-.5A2.342,2.342,0,0,1,250.369,226.4Z"/><path class="cls-10" d="M260.869,228.255v-.914A2.277,2.277,0,0,1,258.9,228.4a2.529,2.529,0,0,1-1.029-.211,1.7,1.7,0,0,1-.709-.531,2,2,0,0,1-.325-.782,5.359,5.359,0,0,1-.064-.984v-3.856h1.054v3.451a6.143,6.143,0,0,0,.065,1.114,1.1,1.1,0,0,0,.422.653,1.3,1.3,0,0,0,.8.237,1.736,1.736,0,0,0,.891-.243,1.353,1.353,0,0,0,.589-.662,3.328,3.328,0,0,0,.173-1.216v-3.334h1.055v6.223Z"/><path class="cls-10" d="M263.453,228.255v-6.223h.949v.944a2.572,2.572,0,0,1,.671-.873,1.169,1.169,0,0,1,.677-.211,2.062,2.062,0,0,1,1.084.339l-.363.979a1.515,1.515,0,0,0-.774-.229,1.01,1.01,0,0,0-.621.208,1.133,1.133,0,0,0-.392.578,4.081,4.081,0,0,0-.176,1.23v3.258Z"/><path class="cls-10" d="M271.721,226.251l1.09.135a2.66,2.66,0,0,1-.956,1.482,3.233,3.233,0,0,1-3.946-.313,3.288,3.288,0,0,1-.8-2.359,3.437,3.437,0,0,1,.809-2.437,2.737,2.737,0,0,1,2.1-.867,2.662,2.662,0,0,1,2.039.849,3.378,3.378,0,0,1,.791,2.391c0,.062,0,.156-.006.281H268.2a2.392,2.392,0,0,0,.58,1.57,1.726,1.726,0,0,0,1.3.545,1.612,1.612,0,0,0,.99-.3A2.02,2.02,0,0,0,271.721,226.251Zm-3.463-1.705h3.474a2.1,2.1,0,0,0-.4-1.178,1.616,1.616,0,0,0-1.307-.609,1.675,1.675,0,0,0-1.221.486A1.925,1.925,0,0,0,268.258,224.546Z"/><path class="cls-10" d="M277.047,226.4l1.043-.164a1.456,1.456,0,0,0,.489.961,1.7,1.7,0,0,0,1.122.334,1.642,1.642,0,0,0,1.078-.3.882.882,0,0,0,.352-.694.64.64,0,0,0-.311-.562,4.568,4.568,0,0,0-1.078-.358,9.773,9.773,0,0,1-1.608-.507,1.531,1.531,0,0,1-.911-1.426,1.6,1.6,0,0,1,.19-.771,1.708,1.708,0,0,1,.519-.589,2.168,2.168,0,0,1,.671-.307,3.184,3.184,0,0,1,.911-.126,3.593,3.593,0,0,1,1.286.211,1.747,1.747,0,0,1,.817.571,2.221,2.221,0,0,1,.363.964l-1.031.14a1.128,1.128,0,0,0-.407-.75,1.494,1.494,0,0,0-.952-.269,1.724,1.724,0,0,0-1.037.24.7.7,0,0,0-.311.563.584.584,0,0,0,.129.369.933.933,0,0,0,.4.281q.159.059.932.269a13.1,13.1,0,0,1,1.562.49,1.589,1.589,0,0,1,.694.553,1.548,1.548,0,0,1,.252.9,1.774,1.774,0,0,1-.308.993,1.994,1.994,0,0,1-.887.721,3.234,3.234,0,0,1-1.313.255,2.924,2.924,0,0,1-1.849-.5A2.346,2.346,0,0,1,277.047,226.4Z"/><path class="cls-10" d="M283.422,230.651l-.117-.99a2.323,2.323,0,0,0,.6.094,1.161,1.161,0,0,0,.563-.117.958.958,0,0,0,.345-.328,5.192,5.192,0,0,0,.323-.786c.019-.058.05-.144.093-.257l-2.361-6.235h1.137l1.3,3.6q.252.685.451,1.441a14.2,14.2,0,0,1,.434-1.418l1.33-3.627h1.054l-2.367,6.328a12.256,12.256,0,0,1-.592,1.412,2.077,2.077,0,0,1-.644.765,1.522,1.522,0,0,1-.867.243A2.108,2.108,0,0,1,283.422,230.651Z"/><path class="cls-10" d="M289.047,226.4l1.043-.164a1.456,1.456,0,0,0,.489.961,1.7,1.7,0,0,0,1.122.334,1.642,1.642,0,0,0,1.078-.3.882.882,0,0,0,.352-.694.64.64,0,0,0-.311-.562,4.568,4.568,0,0,0-1.078-.358,9.773,9.773,0,0,1-1.608-.507,1.531,1.531,0,0,1-.911-1.426,1.6,1.6,0,0,1,.19-.771,1.708,1.708,0,0,1,.519-.589,2.168,2.168,0,0,1,.671-.307,3.184,3.184,0,0,1,.911-.126,3.593,3.593,0,0,1,1.286.211,1.747,1.747,0,0,1,.817.571,2.221,2.221,0,0,1,.363.964l-1.031.14a1.128,1.128,0,0,0-.407-.75,1.494,1.494,0,0,0-.952-.269,1.724,1.724,0,0,0-1.037.24.7.7,0,0,0-.311.563.584.584,0,0,0,.129.369.933.933,0,0,0,.4.281q.159.059.932.269a13.1,13.1,0,0,1,1.562.49,1.589,1.589,0,0,1,.694.553,1.548,1.548,0,0,1,.252.9,1.774,1.774,0,0,1-.308.993,1.994,1.994,0,0,1-.887.721,3.234,3.234,0,0,1-1.313.255,2.924,2.924,0,0,1-1.849-.5A2.346,2.346,0,0,1,289.047,226.4Z"/><path class="cls-10" d="M297.771,227.312l.153.931a3.884,3.884,0,0,1-.8.094,1.806,1.806,0,0,1-.891-.182,1.016,1.016,0,0,1-.445-.477,3.779,3.779,0,0,1-.129-1.245v-3.58h-.773v-.821h.773v-1.541l1.049-.633v2.174h1.06v.821h-1.06v3.638a1.806,1.806,0,0,0,.056.58.433.433,0,0,0,.181.205.7.7,0,0,0,.361.077A3.474,3.474,0,0,0,297.771,227.312Z"/><path class="cls-10" d="M303.063,226.251l1.089.135a2.658,2.658,0,0,1-.955,1.482,3.233,3.233,0,0,1-3.946-.313,3.288,3.288,0,0,1-.8-2.359,3.437,3.437,0,0,1,.809-2.437,2.736,2.736,0,0,1,2.1-.867,2.661,2.661,0,0,1,2.039.849,3.374,3.374,0,0,1,.792,2.391c0,.062,0,.156-.006.281h-4.641a2.387,2.387,0,0,0,.58,1.57,1.724,1.724,0,0,0,1.3.545,1.612,1.612,0,0,0,.99-.3A2.027,2.027,0,0,0,303.063,226.251Zm-3.463-1.705h3.474a2.107,2.107,0,0,0-.4-1.178,1.618,1.618,0,0,0-1.307-.609,1.679,1.679,0,0,0-1.222.486A1.924,1.924,0,0,0,299.6,224.546Z"/><path class="cls-10" d="M305.477,228.255v-6.223h.943v.873a2.217,2.217,0,0,1,.779-.735,2.186,2.186,0,0,1,1.108-.278,2.037,2.037,0,0,1,1.133.287,1.535,1.535,0,0,1,.624.8,2.236,2.236,0,0,1,1.922-1.089,1.9,1.9,0,0,1,1.424.512,2.191,2.191,0,0,1,.5,1.579v4.272h-1.049v-3.92a2.9,2.9,0,0,0-.1-.911.885.885,0,0,0-.372-.448,1.157,1.157,0,0,0-.633-.17,1.472,1.472,0,0,0-1.09.436,1.924,1.924,0,0,0-.433,1.4v3.615h-1.055v-4.043a1.78,1.78,0,0,0-.258-1.055.977.977,0,0,0-.844-.351,1.533,1.533,0,0,0-.823.234,1.327,1.327,0,0,0-.548.686,3.859,3.859,0,0,0-.17,1.3v3.229Z"/><path class="cls-10" d="M320.822,230.78a10.513,10.513,0,0,1-1.476-2.578,8.088,8.088,0,0,1-.153-5.73,11.236,11.236,0,0,1,1.629-2.953h.756q-.709,1.218-.937,1.74a9.465,9.465,0,0,0-.563,1.687,9.8,9.8,0,0,0-.252,2.2,10.574,10.574,0,0,0,1.752,5.631Z"/><path class="cls-10" d="M322.551,225.5l1.072-.094a2.364,2.364,0,0,0,.355,1.058,1.932,1.932,0,0,0,.864.668,3.269,3.269,0,0,0,1.318.255,3.158,3.158,0,0,0,1.149-.194,1.583,1.583,0,0,0,.741-.53,1.23,1.23,0,0,0,.243-.735,1.118,1.118,0,0,0-.234-.706,1.743,1.743,0,0,0-.774-.507,14.9,14.9,0,0,0-1.529-.419,7.777,7.777,0,0,1-1.658-.536,2.329,2.329,0,0,1-.917-.8,1.953,1.953,0,0,1-.3-1.069,2.183,2.183,0,0,1,.369-1.216,2.285,2.285,0,0,1,1.078-.858,4.078,4.078,0,0,1,1.576-.293,4.308,4.308,0,0,1,1.685.307,2.434,2.434,0,0,1,1.122.905,2.6,2.6,0,0,1,.422,1.354l-1.09.082a1.758,1.758,0,0,0-.595-1.23,2.311,2.311,0,0,0-1.5-.416,2.4,2.4,0,0,0-1.5.377,1.135,1.135,0,0,0-.471.912.975.975,0,0,0,.334.761,4.5,4.5,0,0,0,1.713.613,11.4,11.4,0,0,1,1.9.547,2.609,2.609,0,0,1,1.107.876,2.131,2.131,0,0,1,.358,1.222,2.334,2.334,0,0,1-.393,1.292,2.585,2.585,0,0,1-1.128.943,3.922,3.922,0,0,1-1.655.337,4.953,4.953,0,0,1-1.954-.339,2.741,2.741,0,0,1-1.237-1.023A2.9,2.9,0,0,1,322.551,225.5Z"/><path class="cls-10" d="M333.109,227.312l.153.931a3.884,3.884,0,0,1-.8.094,1.806,1.806,0,0,1-.891-.182,1.016,1.016,0,0,1-.445-.477,3.779,3.779,0,0,1-.129-1.245v-3.58h-.773v-.821H331v-1.541l1.049-.633v2.174h1.06v.821h-1.06v3.638a1.847,1.847,0,0,0,.055.58.441.441,0,0,0,.182.205.7.7,0,0,0,.36.077A3.473,3.473,0,0,0,333.109,227.312Z"/><path class="cls-10" d="M338.4,226.251l1.09.135a2.658,2.658,0,0,1-.955,1.482,3.233,3.233,0,0,1-3.946-.313,3.288,3.288,0,0,1-.8-2.359,3.437,3.437,0,0,1,.809-2.437,2.736,2.736,0,0,1,2.1-.867,2.661,2.661,0,0,1,2.039.849,3.374,3.374,0,0,1,.791,2.391c0,.062,0,.156,0,.281h-4.641a2.387,2.387,0,0,0,.58,1.57,1.724,1.724,0,0,0,1.3.545,1.614,1.614,0,0,0,.99-.3A2.026,2.026,0,0,0,338.4,226.251Zm-3.462-1.705h3.474a2.115,2.115,0,0,0-.4-1.178,1.618,1.618,0,0,0-1.307-.609,1.677,1.677,0,0,0-1.222.486A1.924,1.924,0,0,0,334.938,224.546Z"/><path class="cls-10" d="M340.814,230.64v-8.608h.961v.809a2.367,2.367,0,0,1,.768-.712,2.111,2.111,0,0,1,1.037-.237,2.454,2.454,0,0,1,1.406.41,2.51,2.51,0,0,1,.92,1.157,4.226,4.226,0,0,1,.311,1.638,4.148,4.148,0,0,1-.343,1.719,2.608,2.608,0,0,1-2.37,1.58,1.987,1.987,0,0,1-.946-.223,2.156,2.156,0,0,1-.689-.563v3.03Zm.956-5.461a2.709,2.709,0,0,0,.486,1.775,1.491,1.491,0,0,0,1.178.574,1.526,1.526,0,0,0,1.2-.594,2.823,2.823,0,0,0,.5-1.843,2.742,2.742,0,0,0-.49-1.781,1.47,1.47,0,0,0-1.169-.592,1.519,1.519,0,0,0-1.192.63A2.816,2.816,0,0,0,341.77,225.179Z"/><path class="cls-10" d="M347.488,230.64v-8.608h.961v.809a2.367,2.367,0,0,1,.768-.712,2.111,2.111,0,0,1,1.037-.237,2.454,2.454,0,0,1,1.406.41,2.516,2.516,0,0,1,.92,1.157,4.226,4.226,0,0,1,.311,1.638,4.164,4.164,0,0,1-.343,1.719,2.587,2.587,0,0,1-1,1.172,2.556,2.556,0,0,1-1.374.408,1.994,1.994,0,0,1-.947-.223,2.163,2.163,0,0,1-.688-.563v3.03Zm.955-5.461a2.7,2.7,0,0,0,.487,1.775,1.489,1.489,0,0,0,1.177.574,1.527,1.527,0,0,0,1.2-.594,2.823,2.823,0,0,0,.5-1.843,2.748,2.748,0,0,0-.49-1.781,1.472,1.472,0,0,0-1.169-.592,1.519,1.519,0,0,0-1.192.63A2.816,2.816,0,0,0,348.443,225.179Z"/><path class="cls-10" d="M358.422,226.251l1.09.135a2.663,2.663,0,0,1-.955,1.482,3.235,3.235,0,0,1-3.947-.313,3.288,3.288,0,0,1-.8-2.359,3.437,3.437,0,0,1,.808-2.437,2.737,2.737,0,0,1,2.1-.867,2.661,2.661,0,0,1,2.039.849,3.378,3.378,0,0,1,.791,2.391c0,.062,0,.156-.006.281H354.9a2.392,2.392,0,0,0,.58,1.57,1.726,1.726,0,0,0,1.3.545,1.612,1.612,0,0,0,.99-.3A2.02,2.02,0,0,0,358.422,226.251Zm-3.463-1.705h3.475a2.107,2.107,0,0,0-.4-1.178,1.616,1.616,0,0,0-1.306-.609,1.676,1.676,0,0,0-1.222.486A1.925,1.925,0,0,0,354.959,224.546Z"/><path class="cls-10" d="M360.824,228.255v-6.223h.949v.944a2.572,2.572,0,0,1,.671-.873,1.169,1.169,0,0,1,.677-.211,2.059,2.059,0,0,1,1.084.339l-.363.979a1.515,1.515,0,0,0-.774-.229,1.01,1.01,0,0,0-.621.208,1.133,1.133,0,0,0-.392.578,4.112,4.112,0,0,0-.176,1.23v3.258Z"/><path class="cls-10" d="M365.523,230.78h-.755a10.574,10.574,0,0,0,1.752-5.631,9.621,9.621,0,0,0-.252-2.185,9.224,9.224,0,0,0-.557-1.688,19.879,19.879,0,0,0-.943-1.757h.755a11.179,11.179,0,0,1,1.629,2.953A8.06,8.06,0,0,1,367,228.2,10.671,10.671,0,0,1,365.523,230.78Z"/><path class="cls-10" d="M416.145,225.61l1.072-.093a2.376,2.376,0,0,0,.354,1.057,1.934,1.934,0,0,0,.865.668,3.269,3.269,0,0,0,1.318.255,3.153,3.153,0,0,0,1.148-.193,1.6,1.6,0,0,0,.742-.531,1.227,1.227,0,0,0,.243-.735,1.115,1.115,0,0,0-.235-.706,1.739,1.739,0,0,0-.773-.507,15.258,15.258,0,0,0-1.529-.419,7.812,7.812,0,0,1-1.659-.536,2.329,2.329,0,0,1-.917-.8,1.958,1.958,0,0,1-.3-1.069,2.183,2.183,0,0,1,.369-1.216,2.28,2.28,0,0,1,1.078-.858,4.078,4.078,0,0,1,1.576-.293,4.311,4.311,0,0,1,1.685.307,2.43,2.43,0,0,1,1.122.906,2.608,2.608,0,0,1,.422,1.353l-1.09.082a1.758,1.758,0,0,0-.595-1.23,2.311,2.311,0,0,0-1.5-.416,2.4,2.4,0,0,0-1.5.378,1.134,1.134,0,0,0-.472.911.982.982,0,0,0,.334.762,4.533,4.533,0,0,0,1.714.612,11.276,11.276,0,0,1,1.9.548,2.594,2.594,0,0,1,1.107.876,2.132,2.132,0,0,1,.357,1.221,2.333,2.333,0,0,1-.392,1.292,2.587,2.587,0,0,1-1.128.944,3.938,3.938,0,0,1-1.655.337,4.948,4.948,0,0,1-1.954-.34,2.741,2.741,0,0,1-1.237-1.023A2.889,2.889,0,0,1,416.145,225.61Z"/><path class="cls-10" d="M424.406,220.993V219.78h1.055v1.213Zm0,7.377v-6.223h1.055v6.223Z"/><path class="cls-10" d="M427.066,228.37v-6.223h.944v.874a2.219,2.219,0,0,1,.779-.736,2.193,2.193,0,0,1,1.107-.278,2.051,2.051,0,0,1,1.134.287,1.534,1.534,0,0,1,.624.8,2.233,2.233,0,0,1,1.922-1.09,1.894,1.894,0,0,1,1.424.513,2.19,2.19,0,0,1,.5,1.579v4.271h-1.049v-3.92a2.9,2.9,0,0,0-.1-.911.889.889,0,0,0-.372-.448,1.166,1.166,0,0,0-.633-.17,1.472,1.472,0,0,0-1.09.436,1.924,1.924,0,0,0-.434,1.4v3.615h-1.054v-4.043a1.78,1.78,0,0,0-.258-1.055.977.977,0,0,0-.844-.351,1.533,1.533,0,0,0-.823.234,1.331,1.331,0,0,0-.548.686,3.866,3.866,0,0,0-.17,1.3v3.228Z"/><path class="cls-10" d="M437.063,230.755v-8.608h.96v.809a2.378,2.378,0,0,1,.768-.712,2.111,2.111,0,0,1,1.037-.237,2.461,2.461,0,0,1,1.406.41,2.51,2.51,0,0,1,.92,1.157,4.226,4.226,0,0,1,.311,1.638,4.153,4.153,0,0,1-.343,1.72,2.6,2.6,0,0,1-2.37,1.579,1.975,1.975,0,0,1-.946-.223,2.153,2.153,0,0,1-.689-.562v3.029Zm.955-5.461a2.7,2.7,0,0,0,.486,1.775,1.492,1.492,0,0,0,1.178.575,1.527,1.527,0,0,0,1.2-.595,2.823,2.823,0,0,0,.5-1.843,2.742,2.742,0,0,0-.49-1.781,1.47,1.47,0,0,0-1.168-.592,1.519,1.519,0,0,0-1.193.63A2.816,2.816,0,0,0,438.018,225.294Z"/><path class="cls-10" d="M443.713,228.37v-8.59h1.055v8.59Z"/><path class="cls-10" d="M446.408,220.993V219.78h1.055v1.213Zm0,7.377v-6.223h1.055v6.223Z"/><path class="cls-10" d="M449.32,228.37v-5.4h-.931v-.821h.931v-.662a2.868,2.868,0,0,1,.112-.931,1.342,1.342,0,0,1,.536-.665,1.931,1.931,0,0,1,1.075-.255,5.177,5.177,0,0,1,.984.105l-.158.92a3.546,3.546,0,0,0-.621-.058.925.925,0,0,0-.68.205,1.113,1.113,0,0,0-.2.767v.574h1.213v.821h-1.213v5.4Z"/><path class="cls-10" d="M452.408,220.993V219.78h1.055v1.213Zm0,7.377v-6.223h1.055v6.223Z"/><path class="cls-10" d="M459.328,226.366l1.09.135a2.655,2.655,0,0,1-.955,1.482,3.233,3.233,0,0,1-3.946-.313,3.283,3.283,0,0,1-.8-2.358,3.439,3.439,0,0,1,.808-2.438,2.739,2.739,0,0,1,2.1-.867,2.661,2.661,0,0,1,2.039.849,3.38,3.38,0,0,1,.791,2.391c0,.063,0,.156-.006.281h-4.64a2.392,2.392,0,0,0,.58,1.571,1.726,1.726,0,0,0,1.3.545,1.617,1.617,0,0,0,.99-.305A2.021,2.021,0,0,0,459.328,226.366Zm-3.463-1.705h3.475a2.11,2.11,0,0,0-.4-1.178,1.616,1.616,0,0,0-1.306-.609,1.676,1.676,0,0,0-1.222.486A1.927,1.927,0,0,0,455.865,224.661Z"/><path class="cls-10" d="M465.779,228.37v-.785a1.935,1.935,0,0,1-1.74.926,2.443,2.443,0,0,1-1.368-.41,2.707,2.707,0,0,1-.967-1.146,3.966,3.966,0,0,1-.343-1.69,4.429,4.429,0,0,1,.311-1.691,2.446,2.446,0,0,1,.932-1.163,2.492,2.492,0,0,1,1.388-.4,2.075,2.075,0,0,1,1.717.855V219.78h1.049v8.59Zm-3.334-3.105a2.7,2.7,0,0,0,.5,1.787,1.522,1.522,0,0,0,1.19.592,1.49,1.49,0,0,0,1.174-.566,2.6,2.6,0,0,0,.484-1.725,2.925,2.925,0,0,0-.492-1.875,1.513,1.513,0,0,0-1.213-.6,1.46,1.46,0,0,0-1.175.574A2.837,2.837,0,0,0,462.445,225.265Z"/><path class="cls-10" d="M471.328,226.513l1.043-.164a1.463,1.463,0,0,0,.489.961,1.71,1.71,0,0,0,1.122.334,1.653,1.653,0,0,0,1.079-.3.887.887,0,0,0,.351-.7.64.64,0,0,0-.31-.562,4.583,4.583,0,0,0-1.079-.358,9.9,9.9,0,0,1-1.608-.506,1.534,1.534,0,0,1-.911-1.427,1.6,1.6,0,0,1,.19-.771,1.717,1.717,0,0,1,.519-.589,2.179,2.179,0,0,1,.671-.307,3.189,3.189,0,0,1,.911-.126,3.593,3.593,0,0,1,1.286.211,1.742,1.742,0,0,1,.817.571,2.238,2.238,0,0,1,.364.964l-1.032.141a1.119,1.119,0,0,0-.407-.75,1.486,1.486,0,0,0-.952-.27,1.726,1.726,0,0,0-1.037.24.7.7,0,0,0-.311.563.582.582,0,0,0,.129.369.931.931,0,0,0,.405.281c.1.039.416.129.931.27a12.958,12.958,0,0,1,1.562.489,1.578,1.578,0,0,1,.694.554,1.545,1.545,0,0,1,.252.9,1.761,1.761,0,0,1-.308.993,1.982,1.982,0,0,1-.887.721,3.231,3.231,0,0,1-1.313.255,2.921,2.921,0,0,1-1.848-.5A2.342,2.342,0,0,1,471.328,226.513Z"/><path class="cls-10" d="M480.053,227.427l.152.931a3.876,3.876,0,0,1-.8.094,1.8,1.8,0,0,1-.89-.181,1.025,1.025,0,0,1-.446-.478,3.771,3.771,0,0,1-.129-1.245v-3.58h-.773v-.821h.773v-1.541l1.049-.632v2.173h1.061v.821h-1.061v3.638a1.844,1.844,0,0,0,.056.581.448.448,0,0,0,.181.2.713.713,0,0,0,.361.076A3.5,3.5,0,0,0,480.053,227.427Z"/><path class="cls-10" d="M485.344,226.366l1.09.135a2.66,2.66,0,0,1-.955,1.482,3.235,3.235,0,0,1-3.947-.313,3.287,3.287,0,0,1-.8-2.358,3.44,3.44,0,0,1,.809-2.438,2.737,2.737,0,0,1,2.1-.867,2.662,2.662,0,0,1,2.039.849,3.38,3.38,0,0,1,.791,2.391c0,.063,0,.156-.006.281h-4.641a2.4,2.4,0,0,0,.58,1.571,1.729,1.729,0,0,0,1.3.545,1.613,1.613,0,0,0,.99-.305A2.015,2.015,0,0,0,485.344,226.366Zm-3.463-1.705h3.474a2.1,2.1,0,0,0-.4-1.178,1.616,1.616,0,0,0-1.307-.609,1.675,1.675,0,0,0-1.221.486A1.927,1.927,0,0,0,481.881,224.661Z"/><path class="cls-10" d="M487.758,230.755v-8.608h.961v.809a2.366,2.366,0,0,1,.767-.712,2.111,2.111,0,0,1,1.037-.237,2.464,2.464,0,0,1,1.407.41,2.516,2.516,0,0,1,.92,1.157,4.226,4.226,0,0,1,.31,1.638,4.153,4.153,0,0,1-.343,1.72,2.585,2.585,0,0,1-1,1.172,2.559,2.559,0,0,1-1.374.407,1.978,1.978,0,0,1-.946-.223,2.149,2.149,0,0,1-.688-.562v3.029Zm.955-5.461a2.7,2.7,0,0,0,.486,1.775,1.492,1.492,0,0,0,1.178.575,1.526,1.526,0,0,0,1.2-.595,2.823,2.823,0,0,0,.5-1.843,2.748,2.748,0,0,0-.489-1.781,1.472,1.472,0,0,0-1.169-.592,1.521,1.521,0,0,0-1.193.63A2.822,2.822,0,0,0,488.713,225.294Z"/><path class="cls-10" d="M494.432,230.755v-8.608h.961v.809a2.366,2.366,0,0,1,.767-.712,2.111,2.111,0,0,1,1.037-.237,2.464,2.464,0,0,1,1.407.41,2.514,2.514,0,0,1,.919,1.157,4.226,4.226,0,0,1,.311,1.638,4.153,4.153,0,0,1-.343,1.72,2.585,2.585,0,0,1-1,1.172,2.559,2.559,0,0,1-1.374.407,1.978,1.978,0,0,1-.946-.223,2.164,2.164,0,0,1-.689-.562v3.029Zm.955-5.461a2.7,2.7,0,0,0,.486,1.775,1.492,1.492,0,0,0,1.178.575,1.526,1.526,0,0,0,1.2-.595,2.823,2.823,0,0,0,.5-1.843,2.748,2.748,0,0,0-.489-1.781,1.473,1.473,0,0,0-1.169-.592,1.519,1.519,0,0,0-1.193.63A2.822,2.822,0,0,0,495.387,225.294Z"/><path class="cls-10" d="M505.365,226.366l1.09.135a2.655,2.655,0,0,1-.955,1.482,3.233,3.233,0,0,1-3.946-.313,3.287,3.287,0,0,1-.8-2.358,3.435,3.435,0,0,1,.809-2.438,2.736,2.736,0,0,1,2.1-.867,2.661,2.661,0,0,1,2.039.849,3.375,3.375,0,0,1,.791,2.391c0,.063,0,.156-.006.281h-4.64a2.392,2.392,0,0,0,.58,1.571,1.726,1.726,0,0,0,1.3.545,1.617,1.617,0,0,0,.99-.305A2.021,2.021,0,0,0,505.365,226.366Zm-3.463-1.705h3.475a2.118,2.118,0,0,0-.4-1.178,1.618,1.618,0,0,0-1.307-.609,1.677,1.677,0,0,0-1.222.486A1.931,1.931,0,0,0,501.9,224.661Z"/><path class="cls-10" d="M507.768,228.37v-6.223h.949v.944a2.56,2.56,0,0,1,.671-.873,1.166,1.166,0,0,1,.676-.211,2.052,2.052,0,0,1,1.084.34l-.363.978a1.51,1.51,0,0,0-.773-.228,1,1,0,0,0-.621.208,1.121,1.121,0,0,0-.393.577,4.112,4.112,0,0,0-.176,1.23v3.258Z"/><path class="cls-11" d="M505.492,191.847c0,7.79-20.942,14.106-46.775,14.106s-46.775-6.316-46.775-14.106,20.942-14.107,46.775-14.107S505.492,184.055,505.492,191.847Z"/><polygon class="cls-12" points="461.664 191.846 455.77 191.846 430.332 152.359 487.102 152.359 461.664 191.846"/><polygon class="cls-13" points="458.117 140.919 411.996 158.94 459.317 174.014 505.438 155.993 458.117 140.919"/><path class="cls-14" d="M458.717,125.93c-11.172,0-20.229-2.839-20.229-6.341v36.317c0,3.5,9.057,6.341,20.229,6.341s20.229-2.838,20.229-6.341V119.589C478.946,123.091,469.889,125.93,458.717,125.93Z"/><path class="cls-15" d="M479.032,119.589c0,3.509-9.075,6.355-20.272,6.355s-20.272-2.846-20.272-6.355,9.077-6.355,20.272-6.355S479.032,116.079,479.032,119.589Z"/><path class="cls-16" d="M461.664,191.846c0,.491-1.319.889-2.947.889s-2.947-.4-2.947-.889,1.319-.889,2.947-.889S461.664,191.355,461.664,191.846Z"/><path class="cls-16" d="M257.664,181.094c0,.491-1.32.89-2.947.89s-2.948-.4-2.948-.89,1.32-.889,2.948-.889S257.664,180.6,257.664,181.094Z"/><path class="cls-10" d="M280.446,205.732v-6.313h-2.359v-.845h5.674v.845h-2.368v6.313Z"/><path class="cls-10" d="M284.611,205.732v-5.185h.791v.786a2.156,2.156,0,0,1,.559-.728.977.977,0,0,1,.564-.175,1.712,1.712,0,0,1,.9.283l-.3.815a1.252,1.252,0,0,0-.644-.19.836.836,0,0,0-.518.174.939.939,0,0,0-.327.48,3.447,3.447,0,0,0-.146,1.026v2.714Z"/><path class="cls-10" d="M291.334,205.093a3.3,3.3,0,0,1-.939.586,2.719,2.719,0,0,1-.97.171,1.88,1.88,0,0,1-1.313-.418,1.378,1.378,0,0,1-.459-1.067,1.408,1.408,0,0,1,.173-.7,1.434,1.434,0,0,1,.454-.506,2.126,2.126,0,0,1,.633-.288,6.123,6.123,0,0,1,.781-.132,8,8,0,0,0,1.567-.3c0-.12,0-.2,0-.229a.972.972,0,0,0-.249-.757,1.474,1.474,0,0,0-1-.3,1.54,1.54,0,0,0-.915.218,1.322,1.322,0,0,0-.437.769l-.86-.118a2.126,2.126,0,0,1,.386-.891,1.685,1.685,0,0,1,.776-.522,3.443,3.443,0,0,1,1.177-.183,3.1,3.1,0,0,1,1.079.156,1.425,1.425,0,0,1,.611.393,1.383,1.383,0,0,1,.273.6,4.987,4.987,0,0,1,.044.811v1.172a12.291,12.291,0,0,0,.056,1.549,1.954,1.954,0,0,0,.222.623h-.918A1.861,1.861,0,0,1,291.334,205.093Zm-.073-1.963a6.446,6.446,0,0,1-1.435.332,3.266,3.266,0,0,0-.767.176.763.763,0,0,0-.347.286.777.777,0,0,0,.144,1,1.147,1.147,0,0,0,.779.234,1.816,1.816,0,0,0,.9-.222,1.374,1.374,0,0,0,.581-.608,2.128,2.128,0,0,0,.141-.879Z"/><path class="cls-10" d="M293.512,205.732v-5.185h.791v.737a1.866,1.866,0,0,1,1.651-.854,2.168,2.168,0,0,1,.861.168,1.357,1.357,0,0,1,.589.442,1.7,1.7,0,0,1,.273.649,5,5,0,0,1,.049.855v3.188h-.879v-3.154a2.377,2.377,0,0,0-.1-.8.852.852,0,0,0-.364-.425,1.157,1.157,0,0,0-.613-.159,1.428,1.428,0,0,0-.969.357,1.755,1.755,0,0,0-.408,1.352v2.832Z"/><path class="cls-10" d="M298.722,204.185l.869-.137a1.218,1.218,0,0,0,.408.8,1.425,1.425,0,0,0,.935.278,1.378,1.378,0,0,0,.9-.246.739.739,0,0,0,.292-.579.535.535,0,0,0-.258-.469,3.8,3.8,0,0,0-.9-.3,8.326,8.326,0,0,1-1.34-.422,1.282,1.282,0,0,1-.759-1.189,1.337,1.337,0,0,1,.158-.643,1.432,1.432,0,0,1,.432-.49,1.8,1.8,0,0,1,.56-.256,2.652,2.652,0,0,1,.759-.1,3.008,3.008,0,0,1,1.072.175,1.464,1.464,0,0,1,.681.477,1.856,1.856,0,0,1,.3.8l-.859.117a.938.938,0,0,0-.339-.625,1.247,1.247,0,0,0-.794-.225,1.432,1.432,0,0,0-.864.2.584.584,0,0,0-.259.468.482.482,0,0,0,.108.308.76.76,0,0,0,.337.234q.13.049.776.225a10.683,10.683,0,0,1,1.3.408,1.32,1.32,0,0,1,.579.461,1.287,1.287,0,0,1,.21.752,1.48,1.48,0,0,1-.257.828,1.651,1.651,0,0,1-.739.6,2.689,2.689,0,0,1-1.094.213,2.437,2.437,0,0,1-1.541-.42A1.96,1.96,0,0,1,298.722,204.185Z"/><path class="cls-10" d="M304.284,205.732v-4.5h-.777v-.683h.777V200a2.409,2.409,0,0,1,.092-.776,1.135,1.135,0,0,1,.447-.555,1.617,1.617,0,0,1,.9-.212,4.276,4.276,0,0,1,.821.088l-.132.767a2.908,2.908,0,0,0-.518-.049.765.765,0,0,0-.566.171.924.924,0,0,0-.166.639v.479h1.01v.683h-1.01v4.5Z"/><path class="cls-10" d="M310.4,204.063l.909.112a2.225,2.225,0,0,1-.8,1.235,2.692,2.692,0,0,1-3.288-.262,2.732,2.732,0,0,1-.667-1.964,2.869,2.869,0,0,1,.674-2.032,2.283,2.283,0,0,1,1.748-.722,2.218,2.218,0,0,1,1.7.708,2.812,2.812,0,0,1,.66,1.992q0,.078-.006.234h-3.867a2,2,0,0,0,.484,1.309,1.437,1.437,0,0,0,1.084.454,1.34,1.34,0,0,0,.824-.254A1.68,1.68,0,0,0,310.4,204.063Zm-2.886-1.421h2.9a1.758,1.758,0,0,0-.332-.982,1.346,1.346,0,0,0-1.089-.508,1.393,1.393,0,0,0-1.018.406A1.6,1.6,0,0,0,307.516,202.642Z"/><path class="cls-10" d="M312.4,205.732v-5.185h.791v.786a2.143,2.143,0,0,1,.56-.728.972.972,0,0,1,.563-.175,1.715,1.715,0,0,1,.9.283l-.3.815a1.258,1.258,0,0,0-.645-.19.833.833,0,0,0-.517.174.933.933,0,0,0-.327.48,3.414,3.414,0,0,0-.147,1.026v2.714Z"/><path class="cls-10" d="M315.733,205.732v-5.185h.791v.786a2.156,2.156,0,0,1,.56-.728.972.972,0,0,1,.563-.175,1.715,1.715,0,0,1,.9.283l-.3.815a1.257,1.257,0,0,0-.644-.19.834.834,0,0,0-.518.174.933.933,0,0,0-.327.48,3.414,3.414,0,0,0-.147,1.026v2.714Z"/><path class="cls-10" d="M322.623,204.063l.908.112a2.213,2.213,0,0,1-.8,1.235,2.692,2.692,0,0,1-3.288-.262,2.732,2.732,0,0,1-.667-1.964,2.869,2.869,0,0,1,.674-2.032,2.283,2.283,0,0,1,1.748-.722,2.215,2.215,0,0,1,1.7.708,2.807,2.807,0,0,1,.66,1.992c0,.052,0,.13,0,.234h-3.868a2,2,0,0,0,.484,1.309,1.438,1.438,0,0,0,1.084.454,1.345,1.345,0,0,0,.825-.254A1.686,1.686,0,0,0,322.623,204.063Zm-2.886-1.421h2.9a1.758,1.758,0,0,0-.332-.982,1.346,1.346,0,0,0-1.089-.508,1.4,1.4,0,0,0-1.019.406A1.61,1.61,0,0,0,319.737,202.642Z"/><path class="cls-10" d="M328,205.732v-.654a1.612,1.612,0,0,1-1.45.772,2.039,2.039,0,0,1-1.14-.342,2.249,2.249,0,0,1-.806-.955,3.3,3.3,0,0,1-.286-1.408,3.676,3.676,0,0,1,.259-1.409,2.04,2.04,0,0,1,.777-.969,2.068,2.068,0,0,1,1.157-.337,1.721,1.721,0,0,1,1.43.713v-2.569h.874v7.158Zm-2.778-2.587a2.246,2.246,0,0,0,.42,1.489,1.265,1.265,0,0,0,.991.493,1.239,1.239,0,0,0,.978-.471,2.165,2.165,0,0,0,.4-1.438,2.442,2.442,0,0,0-.41-1.563,1.263,1.263,0,0,0-1.011-.5,1.215,1.215,0,0,0-.979.479A2.362,2.362,0,0,0,325.221,203.145Z"/><path class="cls-10" d="M333.932,205.732l-1.587-5.185h.908l.825,2.993.308,1.113q.018-.082.268-1.069l.825-3.037h.9l.776,3.008.259.991.3-1,.888-3h.855l-1.621,5.185h-.913l-.825-3.1-.2-.884-1.049,3.989Z"/><path class="cls-10" d="M340.2,199.585v-1.011h.879v1.011Zm0,6.147v-5.185h.879v5.185Z"/><path class="cls-10" d="M342.408,205.732v-5.185h.791v.786a2.143,2.143,0,0,1,.56-.728.972.972,0,0,1,.563-.175,1.715,1.715,0,0,1,.9.283l-.3.815a1.258,1.258,0,0,0-.645-.19.833.833,0,0,0-.517.174.928.928,0,0,0-.327.48,3.414,3.414,0,0,0-.147,1.026v2.714Z"/><path class="cls-10" d="M345.753,199.585v-1.011h.879v1.011Zm0,6.147v-5.185h.879v5.185Z"/><path class="cls-10" d="M347.97,205.732v-5.185h.791v.737a1.864,1.864,0,0,1,1.65-.854,2.169,2.169,0,0,1,.862.168,1.353,1.353,0,0,1,.588.442,1.7,1.7,0,0,1,.274.649,5.1,5.1,0,0,1,.049.855v3.188h-.879v-3.154a2.347,2.347,0,0,0-.1-.8.842.842,0,0,0-.364-.425,1.153,1.153,0,0,0-.612-.159,1.43,1.43,0,0,0-.97.357,1.755,1.755,0,0,0-.407,1.352v2.832Z"/><path class="cls-10" d="M353.37,206.162l.855.127a.812.812,0,0,0,.3.576,1.462,1.462,0,0,0,.894.244,1.565,1.565,0,0,0,.942-.244,1.2,1.2,0,0,0,.45-.683,5.613,5.613,0,0,0,.063-1.128,1.807,1.807,0,0,1-1.435.678,1.957,1.957,0,0,1-1.656-.771,2.976,2.976,0,0,1-.586-1.851,3.449,3.449,0,0,1,.269-1.37,2.15,2.15,0,0,1,.778-.969,2.112,2.112,0,0,1,1.2-.341,1.857,1.857,0,0,1,1.514.742v-.625h.811v4.482a4.266,4.266,0,0,1-.246,1.717,1.813,1.813,0,0,1-.782.8,2.715,2.715,0,0,1-1.316.293,2.492,2.492,0,0,1-1.5-.417A1.413,1.413,0,0,1,353.37,206.162Zm.728-3.115a2.242,2.242,0,0,0,.4,1.489,1.337,1.337,0,0,0,2.031,0,2.176,2.176,0,0,0,.41-1.463,2.122,2.122,0,0,0-.422-1.435,1.305,1.305,0,0,0-1.018-.484,1.268,1.268,0,0,0-1,.476A2.114,2.114,0,0,0,354.1,203.047Z"/><path class="cls-10" d="M361.871,207.72v-7.173h.8v.674a1.975,1.975,0,0,1,.64-.594,1.763,1.763,0,0,1,.864-.2,2.058,2.058,0,0,1,1.172.341,2.094,2.094,0,0,1,.766.965,3.506,3.506,0,0,1,.259,1.365,3.451,3.451,0,0,1-.286,1.432,2.173,2.173,0,0,1-1.975,1.317,1.656,1.656,0,0,1-.789-.186,1.8,1.8,0,0,1-.573-.469v2.525Zm.8-4.551a2.256,2.256,0,0,0,.405,1.479,1.243,1.243,0,0,0,.982.479,1.274,1.274,0,0,0,1-.5,2.357,2.357,0,0,0,.417-1.535,2.292,2.292,0,0,0-.408-1.485,1.226,1.226,0,0,0-.974-.493,1.268,1.268,0,0,0-.994.525A2.356,2.356,0,0,0,362.667,203.169Z"/><path class="cls-10" d="M370.816,205.093a3.3,3.3,0,0,1-.939.586,2.722,2.722,0,0,1-.97.171,1.88,1.88,0,0,1-1.313-.418,1.378,1.378,0,0,1-.459-1.067,1.4,1.4,0,0,1,.174-.7,1.422,1.422,0,0,1,.453-.506,2.126,2.126,0,0,1,.633-.288,6.091,6.091,0,0,1,.781-.132,7.98,7.98,0,0,0,1.567-.3c0-.12,0-.2,0-.229a.972.972,0,0,0-.249-.757,1.476,1.476,0,0,0-1-.3,1.546,1.546,0,0,0-.916.218,1.326,1.326,0,0,0-.436.769l-.86-.118a2.126,2.126,0,0,1,.386-.891,1.68,1.68,0,0,1,.776-.522,3.443,3.443,0,0,1,1.177-.183,3.1,3.1,0,0,1,1.079.156,1.415,1.415,0,0,1,.61.393,1.384,1.384,0,0,1,.274.6,4.987,4.987,0,0,1,.044.811v1.172a12.291,12.291,0,0,0,.056,1.549,1.979,1.979,0,0,0,.222.623h-.918A1.884,1.884,0,0,1,370.816,205.093Zm-.073-1.963a6.46,6.46,0,0,1-1.435.332,3.253,3.253,0,0,0-.767.176.763.763,0,0,0-.347.286.777.777,0,0,0,.144,1,1.147,1.147,0,0,0,.779.234,1.816,1.816,0,0,0,.9-.222,1.374,1.374,0,0,0,.581-.608,2.128,2.128,0,0,0,.141-.879Z"/><path class="cls-10" d="M374.913,204.946l.127.777a3.336,3.336,0,0,1-.664.078,1.5,1.5,0,0,1-.742-.152.839.839,0,0,1-.371-.4,3.138,3.138,0,0,1-.108-1.038V201.23h-.644v-.683h.644v-1.284l.874-.528v1.812h.884v.683h-.884v3.033a1.558,1.558,0,0,0,.046.483.366.366,0,0,0,.153.171.581.581,0,0,0,.3.063A2.812,2.812,0,0,0,374.913,204.946Z"/><path class="cls-10" d="M377.691,204.946l.127.777a3.328,3.328,0,0,1-.664.078,1.5,1.5,0,0,1-.742-.152.839.839,0,0,1-.371-.4,3.175,3.175,0,0,1-.107-1.038V201.23h-.645v-.683h.645v-1.284l.874-.528v1.812h.883v.683h-.883v3.033a1.526,1.526,0,0,0,.046.483.369.369,0,0,0,.152.171.585.585,0,0,0,.3.063A2.812,2.812,0,0,0,377.691,204.946Z"/><path class="cls-10" d="M382.1,204.063l.908.112a2.218,2.218,0,0,1-.8,1.235,2.393,2.393,0,0,1-1.484.44,2.366,2.366,0,0,1-1.8-.7,2.727,2.727,0,0,1-.667-1.964,2.865,2.865,0,0,1,.674-2.032,2.283,2.283,0,0,1,1.748-.722,2.218,2.218,0,0,1,1.7.708,2.811,2.811,0,0,1,.659,1.992c0,.052,0,.13,0,.234h-3.867a1.989,1.989,0,0,0,.483,1.309,1.44,1.44,0,0,0,1.084.454,1.348,1.348,0,0,0,.826-.254A1.692,1.692,0,0,0,382.1,204.063Zm-2.886-1.421h2.9a1.75,1.75,0,0,0-.332-.982,1.345,1.345,0,0,0-1.089-.508,1.394,1.394,0,0,0-1.018.406A1.6,1.6,0,0,0,379.215,202.642Z"/><path class="cls-10" d="M384.1,205.732v-5.185h.791v.786a2.143,2.143,0,0,1,.559-.728.975.975,0,0,1,.564-.175,1.712,1.712,0,0,1,.9.283l-.3.815a1.255,1.255,0,0,0-.644-.19.834.834,0,0,0-.518.174.933.933,0,0,0-.327.48,3.414,3.414,0,0,0-.147,1.026v2.714Z"/><path class="cls-10" d="M387.442,205.732v-5.185h.791v.737a1.866,1.866,0,0,1,1.651-.854,2.176,2.176,0,0,1,.862.168,1.353,1.353,0,0,1,.588.442,1.683,1.683,0,0,1,.273.649,5,5,0,0,1,.049.855v3.188h-.879v-3.154a2.377,2.377,0,0,0-.1-.8.852.852,0,0,0-.364-.425,1.154,1.154,0,0,0-.613-.159,1.428,1.428,0,0,0-.969.357,1.755,1.755,0,0,0-.408,1.352v2.832Z"/><line class="cls-17" x1="280.482" y1="196.912" x2="262.049" y2="185.071"/><polygon points="263.954 184.263 257.664 182.254 262.106 187.139 263.954 184.263"/><path class="cls-10" d="M510.594,160.666v-8.422h1.114V155.7h4.378v-3.458H517.2v8.422h-1.114V156.7h-4.378v3.97Z"/><path class="cls-10" d="M518.539,157.615a3.149,3.149,0,0,1,.942-2.511,2.845,2.845,0,0,1,1.919-.677,2.739,2.739,0,0,1,2.057.824,3.14,3.14,0,0,1,.8,2.278,4.032,4.032,0,0,1-.353,1.853,2.511,2.511,0,0,1-1.028,1.049,2.993,2.993,0,0,1-1.474.373,2.741,2.741,0,0,1-2.071-.822A3.282,3.282,0,0,1,518.539,157.615Zm1.063,0a2.6,2.6,0,0,0,.511,1.755,1.7,1.7,0,0,0,2.569,0,2.661,2.661,0,0,0,.51-1.786,2.525,2.525,0,0,0-.513-1.715,1.706,1.706,0,0,0-2.566,0A2.587,2.587,0,0,0,519.6,157.615Z"/><path class="cls-10" d="M525.444,160.666v-8.422h1.035v8.422Z"/><path class="cls-10" d="M527.7,157.615a3.146,3.146,0,0,1,.943-2.511,2.841,2.841,0,0,1,1.919-.677,2.738,2.738,0,0,1,2.056.824,3.14,3.14,0,0,1,.8,2.278,4.046,4.046,0,0,1-.352,1.853,2.519,2.519,0,0,1-1.029,1.049,2.992,2.992,0,0,1-1.473.373,2.743,2.743,0,0,1-2.072-.822A3.282,3.282,0,0,1,527.7,157.615Zm1.063,0a2.6,2.6,0,0,0,.512,1.755,1.7,1.7,0,0,0,2.568,0,2.655,2.655,0,0,0,.511-1.786,2.52,2.52,0,0,0-.514-1.715,1.705,1.705,0,0,0-2.565,0A2.587,2.587,0,0,0,528.759,157.615Z"/><path class="cls-10" d="M534.435,161.172l1.005.149a.96.96,0,0,0,.35.678,1.726,1.726,0,0,0,1.052.287A1.848,1.848,0,0,0,537.95,162a1.411,1.411,0,0,0,.529-.805,6.627,6.627,0,0,0,.075-1.327,2.129,2.129,0,0,1-1.69.8,2.306,2.306,0,0,1-1.947-.907,3.5,3.5,0,0,1-.689-2.178,4.044,4.044,0,0,1,.316-1.611,2.532,2.532,0,0,1,.916-1.141,2.481,2.481,0,0,1,1.41-.4,2.186,2.186,0,0,1,1.781.873v-.736h.954v5.275a4.988,4.988,0,0,1-.291,2.019,2.123,2.123,0,0,1-.918.94,3.2,3.2,0,0,1-1.548.344,2.916,2.916,0,0,1-1.764-.491A1.66,1.66,0,0,1,534.435,161.172Zm.856-3.666a2.643,2.643,0,0,0,.477,1.753,1.512,1.512,0,0,0,1.194.551,1.528,1.528,0,0,0,1.2-.548,2.561,2.561,0,0,0,.483-1.721,2.5,2.5,0,0,0-.5-1.689,1.538,1.538,0,0,0-1.2-.569,1.494,1.494,0,0,0-1.172.56A2.487,2.487,0,0,0,535.291,157.506Z"/><path class="cls-10" d="M541.155,160.666v-6.1h.931v.926a2.52,2.52,0,0,1,.658-.856,1.146,1.146,0,0,1,.663-.207,2.023,2.023,0,0,1,1.064.333l-.357.96a1.477,1.477,0,0,0-.758-.225.985.985,0,0,0-.609.2,1.106,1.106,0,0,0-.385.567,4.017,4.017,0,0,0-.173,1.206v3.194Z"/><path class="cls-10" d="M549.066,159.913a3.843,3.843,0,0,1-1.105.69,3.2,3.2,0,0,1-1.141.2,2.218,2.218,0,0,1-1.546-.491,1.627,1.627,0,0,1-.54-1.255,1.7,1.7,0,0,1,.739-1.413,2.477,2.477,0,0,1,.744-.339,7.346,7.346,0,0,1,.919-.156,9.391,9.391,0,0,0,1.844-.356c0-.142.006-.231.006-.27a1.138,1.138,0,0,0-.293-.89,1.728,1.728,0,0,0-1.177-.351,1.822,1.822,0,0,0-1.078.256,1.559,1.559,0,0,0-.514.9l-1.011-.137a2.514,2.514,0,0,1,.453-1.049,1.99,1.99,0,0,1,.914-.614,4.069,4.069,0,0,1,1.385-.216,3.661,3.661,0,0,1,1.27.184,1.672,1.672,0,0,1,.717.462,1.619,1.619,0,0,1,.322.7,5.778,5.778,0,0,1,.051.953v1.379a14.585,14.585,0,0,0,.067,1.825,2.281,2.281,0,0,0,.262.732h-1.081A2.213,2.213,0,0,1,549.066,159.913Zm-.086-2.309a7.586,7.586,0,0,1-1.689.391,3.908,3.908,0,0,0-.9.206.9.9,0,0,0-.409.336.892.892,0,0,0-.143.491.882.882,0,0,0,.312.69,1.349,1.349,0,0,0,.917.276,2.126,2.126,0,0,0,1.063-.262,1.605,1.605,0,0,0,.683-.714,2.493,2.493,0,0,0,.167-1.035Z"/><path class="cls-10" d="M551.628,160.666v-6.1h.925v.857a2.15,2.15,0,0,1,1.85-.994,2.007,2.007,0,0,1,1.112.282,1.5,1.5,0,0,1,.611.786,2.192,2.192,0,0,1,1.885-1.068,1.855,1.855,0,0,1,1.395.5,2.146,2.146,0,0,1,.49,1.548v4.188h-1.03v-3.844a2.86,2.86,0,0,0-.1-.892.87.87,0,0,0-.366-.44,1.134,1.134,0,0,0-.62-.167,1.447,1.447,0,0,0-1.069.428,1.886,1.886,0,0,0-.425,1.37v3.545h-1.034V156.7a1.738,1.738,0,0,0-.253-1.034.956.956,0,0,0-.827-.345,1.5,1.5,0,0,0-.807.23,1.3,1.3,0,0,0-.537.673,3.779,3.779,0,0,0-.167,1.275v3.165Z"/></svg>