<svg id="レイヤー_1" data-name="レイヤー 1" xmlns="http://www.w3.org/2000/svg" viewBox="0 0 718 309"><defs><style>.cls-1,.cls-4{fill:none;stroke:#00a400;stroke-miterlimit:9.999;}.cls-1{stroke-width:1.091px;}.cls-2{fill:#00a400;}.cls-3{fill:#fff;}.cls-4{stroke-width:1.455px;}.cls-5{fill:#040;}</style></defs><rect class="cls-1" x="285.979" y="2.327" width="88.196" height="26.004"/><rect class="cls-2" x="251.187" y="49.691" width="157.78" height="26.004"/><rect class="cls-2" x="251.187" y="97.436" width="157.78" height="26.004"/><path class="cls-2" d="M303.96,13.653a14.712,14.712,0,0,1-1.375,4.925,6.1,6.1,0,0,0,2.316,2.3,4.581,4.581,0,0,0-.827,1.017,6.7,6.7,0,0,1-2.163-2.226,7.78,7.78,0,0,1-2.571,2.253,4.841,4.841,0,0,0-.674-1.019.815.815,0,0,1-.445.8,4.174,4.174,0,0,1-1.617.178,3.182,3.182,0,0,0-.331-.98c.484.026.968.013,1.095.013s.191-.051.191-.191v-.878h-2.5v2.036H293.97V15.715h4.7V20.9a6.641,6.641,0,0,0,2.634-2.38,15.627,15.627,0,0,1-.992-3.054,8.711,8.711,0,0,1-.739,1.374,6.932,6.932,0,0,0-.789-1.018,5.835,5.835,0,0,0,.471-.827H293.13V14h1.4V12.674h-1.209v-.993h1.209V10.345h1.082v1.336h1.4V10.345h1.094v1.336h1.222v.993h-1.222V14h1.209v.865a16.357,16.357,0,0,0,1.171-4.644l1.158.165c-.115.738-.229,1.464-.395,2.164H304.8v1.106Zm-8.9,2.979v.724h2.5v-.724Zm2.5,2.328v-.738h-2.5v.738ZM295.612,14h1.4V12.674h-1.4Zm5.332-.306a16.73,16.73,0,0,0,.993,3.577,14.624,14.624,0,0,0,.852-3.615h-1.832Z"/><path class="cls-2" d="M309.794,13.729h2.685V14.8h-2.685v1.909h2.227v4.823h-1.158v-.382h-3.3v.484H306.46V16.708h2.188V14.8h-2.812v-1.07h2.812V12c-.776.114-1.552.191-2.29.268a4.394,4.394,0,0,0-.331-.943,27.177,27.177,0,0,0,5.345-1.017l.891.916a18.2,18.2,0,0,1-2.469.586Zm1.069,4.035h-3.3v2.341h3.3Zm5.065,2.888c.42,0,.5-.47.56-2.353a3.148,3.148,0,0,0,1.056.521c-.115,2.151-.382,2.927-1.514,2.927h-1.553c-1.171,0-1.489-.394-1.489-1.857V10.4h1.171V19.9c0,.649.064.75.484.75Z"/><path class="cls-2" d="M328.57,20.755c.471,0,.534-.293.6-2.074a3.588,3.588,0,0,0,1.095.508c-.14,2.113-.446,2.672-1.591,2.672h-1.693c-1.247,0-1.578-.369-1.578-1.616V16.071h-2.1c-.242,2.711-.84,4.76-4.073,5.828a3.374,3.374,0,0,0-.738-1.017c2.927-.891,3.347-2.558,3.551-4.811h-3.258V14.938h5v-4.72h1.2v4.72h5.1v1.133H326.6v4.174c0,.42.076.51.534.51Zm-7.381-6.427a13.718,13.718,0,0,0-1.413-3.131l1.07-.394a12.127,12.127,0,0,1,1.488,3.08Zm8.043-3.207a28.024,28.024,0,0,1-1.744,3.156l-1.018-.394A17.355,17.355,0,0,0,328,10.676Z"/><path class="cls-2" d="M336.3,12.139a29.465,29.465,0,0,0,3.741-.368v1.182a39.064,39.064,0,0,1-4.187.331,10.149,10.149,0,0,1-.98,1.68,3.75,3.75,0,0,1,1.629-.382,1.674,1.674,0,0,1,1.7,1.082c.79-.369,1.438-.636,2.037-.916.432-.191.8-.356,1.209-.56l.522,1.17c-.37.116-.917.319-1.3.472-.649.254-1.476.585-2.366.992.012.726.025,1.743.038,2.355h-1.209c.025-.446.038-1.171.05-1.795-1.094.6-1.781,1.183-1.781,1.934,0,.866.827,1.044,2.112,1.044a21.74,21.74,0,0,0,3.538-.331l-.038,1.285a32.3,32.3,0,0,1-3.538.23c-1.9,0-3.372-.446-3.372-2.023s1.527-2.559,3-3.31a1.024,1.024,0,0,0-1.043-.636,3.244,3.244,0,0,0-2.113.916,13.787,13.787,0,0,0-1.158,1.363l-1.094-.815a12.789,12.789,0,0,0,2.876-3.717h-.369c-.535,0-1.413-.025-2.126-.076v-1.2a16.433,16.433,0,0,0,2.189.14c.242,0,.5,0,.751-.012a6.405,6.405,0,0,0,.293-1.515l1.324.1C336.568,11.121,336.466,11.592,336.3,12.139Z"/><path class="cls-2" d="M348.128,13.259h-5.077v-.942h5.077Zm-.522,7.941h-2.939v.534h-1.044V17.459h3.983Zm-3.958-7.152h4v.916h-4Zm0,1.692h4v.93h-4Zm4.009-4.174h-3.932v-.928h3.932Zm-2.99,6.847v1.832h1.883V18.413Zm10.206-2.749h-2.749v6.223h-1.2V15.664H348.09V14.493h2.838V10.256h1.2v4.237h2.749Z"/><path class="cls-2" d="M356.418,13.7a7.653,7.653,0,0,1,2.062,1.146l-.688.955a8.865,8.865,0,0,0-2.036-1.236ZM357.7,17.09l.967.623c-.471,1.336-1.069,2.838-1.6,4.021L356,21.124A35.136,35.136,0,0,0,357.7,17.09Zm-.751-6.745a7.807,7.807,0,0,1,2.01,1.234l-.712.942a9.04,9.04,0,0,0-1.96-1.336Zm3.818,8.959a8.815,8.815,0,0,1-1.757,2.634,7.8,7.8,0,0,0-.929-.636,6.591,6.591,0,0,0,1.6-2.291Zm2.213-8.552V18.82h-3.741V10.752Zm-2.736,2.367h1.693V11.783h-1.693Zm0,2.342h1.693V14.1h-1.693Zm0,2.315h1.693V16.415h-1.693Zm2.088,1.171a17.445,17.445,0,0,1,1.4,1.935l-.955.585a12.925,12.925,0,0,0-1.349-2.024Zm2.494-7.431v7.241H363.8V11.516Zm2.19-1.3V20.487c0,.662-.141.992-.536,1.184a5.479,5.479,0,0,1-2.036.216,4.033,4.033,0,0,0-.344-1.132c.713.025,1.363.025,1.566.013s.268-.064.268-.268V10.218Z"/><path class="cls-3" d="M265.4,63.9c-.407.127-.827.255-1.234.382v3.36c0,.624-.127.954-.484,1.145a4.08,4.08,0,0,1-1.756.229,4.681,4.681,0,0,0-.343-1.145c.534.013,1.056.013,1.221.013s.229-.065.229-.242V64.627l-1.591.458-.254-1.158c.509-.114,1.145-.281,1.845-.471V60.911h-1.616V59.816h1.616V57.36h1.133v2.456h1.107v1.095h-1.107V63.15l1.094-.3Zm7.6,4.467h-5.574V69h-1.146V61.979a9.446,9.446,0,0,1-.763.955,9.054,9.054,0,0,0-.777-1.018,10.923,10.923,0,0,0,2.431-4.594l1.133.292a15.585,15.585,0,0,1-.764,2.075h1.7a16.657,16.657,0,0,0,.815-2.316l1.247.268c-.28.686-.585,1.412-.891,2.048h2.355v1.056h-2.444v1.477h2.138v1.017h-2.138v1.5h2.138v1h-2.138V67.3H273Zm-3.78-7.623h-1.794v1.477h1.794Zm0,2.494h-1.794v1.5h1.794Zm-1.794,4.06h1.794V65.746h-1.794Z"/><path class="cls-3" d="M280.5,67.579a13.356,13.356,0,0,0,1.794.114c.547,0,2.685,0,3.411-.025a3.574,3.574,0,0,0-.446,1.2h-3.028c-2.495,0-4.328-.42-5.485-2.418a6.485,6.485,0,0,1-1.8,2.648,6.363,6.363,0,0,0-.98-.815c1.4-1.044,2.049-2.825,2.316-5.052l1.222.115a15.613,15.613,0,0,1-.305,1.667,3.645,3.645,0,0,0,2.074,2.239V62.311h-2.94V61.178H283.5v1.133h-3v1.871h3.639v1.106H280.5Zm-4.747-5.931h-1.158V58.722h4.658V57.36h1.259v1.362h4.709v2.926h-1.209V59.842h-8.259Z"/><path class="cls-3" d="M292.425,63.354v5.675h-1.157V63.354h-1.795a8.328,8.328,0,0,1-1.883,5.765,4.037,4.037,0,0,0-.879-.8,7.219,7.219,0,0,0,1.655-4.963h-1.553V62.247h1.565V59.205h-1.361V58.111h6.528v1.094h-1.12v3.042h1.3v1.107Zm-1.157-1.107V59.205h-1.782v3.042Zm7.278,2.6a11.255,11.255,0,0,1-4.708,4.174,4.508,4.508,0,0,0-.84-.954,9.5,9.5,0,0,0,4.429-3.666ZM297.974,58a13.023,13.023,0,0,1-3.627,3.055,4.052,4.052,0,0,0-.853-.84,10.555,10.555,0,0,0,3.36-2.66Zm.28,3.475a13.85,13.85,0,0,1-3.767,3.232,4.729,4.729,0,0,0-.84-.84,10.934,10.934,0,0,0,3.525-2.85Z"/><path class="cls-3" d="M307.715,62.146c.611,2.595,1.768,4.784,3.652,5.866A4.288,4.288,0,0,0,310.5,69a9.02,9.02,0,0,1-3.309-4.938,9.3,9.3,0,0,1-3.054,4.951,5.648,5.648,0,0,0-.929-.738V69h-1.158v-4.39c-.675.623-1.362,1.26-1.96,1.769l-.649-.992c.661-.51,1.654-1.363,2.609-2.228V61.318l-.955.611a14.54,14.54,0,0,0-1.5-2.406l.916-.546a14.517,14.517,0,0,1,1.54,2.29V57.335h1.158v10.88a8.724,8.724,0,0,0,3.105-6.069h-2.723V60.987h2.786c.013-.191.013-.369.013-.548V57.386h1.171v3.053c0,.179,0,.357-.013.548h3.5v1.159Zm2.074-1.681a15.421,15.421,0,0,0-1.425-2.252l.89-.5a16.7,16.7,0,0,1,1.5,2.163Z"/><path class="cls-3" d="M318.385,68.508l-.751-1.2a8.03,8.03,0,0,0,1.133-.178,3.661,3.661,0,0,0,3.08-3.614,3.384,3.384,0,0,0-3.08-3.551A25.191,25.191,0,0,1,318,63.545c-.763,2.6-1.819,4.034-3.079,4.034s-2.418-1.4-2.418-3.525a5.516,5.516,0,0,1,5.688-5.294,4.711,4.711,0,0,1,4.989,4.8C323.183,66.23,321.478,68.063,318.385,68.508Zm-3.423-2.444c.573,0,1.171-.827,1.756-2.787a20.293,20.293,0,0,0,.7-3.283,4.254,4.254,0,0,0-3.627,3.933C313.791,65.391,314.415,66.064,314.962,66.064Z"/><path class="cls-3" d="M328.889,65.746a18.08,18.08,0,0,0-1.272-1.616v4.9h-1.159v-4.44A11.889,11.889,0,0,1,325,65.95a5.044,5.044,0,0,0-.636-1.056,11.855,11.855,0,0,0,3.5-4.187H324.7V59.625h1.756V57.348h1.159v2.277h.84l.216-.051.661.446a13.648,13.648,0,0,1-1.6,2.965c.115.1.268.242.42.4a15.5,15.5,0,0,0,.929-1.375l.776.624c-.419.445-.827.929-1.17,1.272.394.4.776.777.916.942Zm7.063-6.693c-.14,6.388-.28,8.551-.751,9.188a1.237,1.237,0,0,1-1.031.649,10.461,10.461,0,0,1-1.819.025,2.965,2.965,0,0,0-.382-1.222c.713.064,1.362.064,1.641.064a.5.5,0,0,0,.5-.216c.369-.433.509-2.52.623-8H332.5c-.1,3.614-.432,7.406-3.295,9.507a3.874,3.874,0,0,0-.9-.917c2.723-1.845,2.914-5.307,2.978-8.59h-2v-1.12h6.668Z"/><path class="cls-3" d="M340.042,66.484a8.9,8.9,0,0,1-1.883,2.559,5.91,5.91,0,0,0-.942-.7,6.293,6.293,0,0,0,1.706-2.164Zm3.411-.508h-6.2V64.944h1.183V59.981h-1.031v-1.03h1.031V57.487h1.069v1.464h1.985V57.487h1.1v1.464h.916v1.03h-.916v4.963h.865Zm-3.945-5.995v.956h1.985v-.956Zm0,2.94h1.985V61.865h-1.985Zm0,2.023h1.985V63.851h-1.985Zm2.151,1.2A12.168,12.168,0,0,1,343.033,68l-.954.572a13.169,13.169,0,0,0-1.324-1.933Zm6.872,1.489c0,.624-.14.967-.535,1.145a4.411,4.411,0,0,1-1.934.216,4.047,4.047,0,0,0-.344-1.119c.6.025,1.235.013,1.4.013.191-.013.267-.065.267-.268V64.792h-2.341a10.107,10.107,0,0,1-1.171,4.289,4.124,4.124,0,0,0-.942-.687c1.006-1.655,1.1-4.035,1.1-5.854V57.958h4.5Zm-1.146-3.907V61.865h-2.239v.675c0,.368,0,.775-.026,1.183Zm-2.239-4.7v1.794h2.239V59.027Z"/><path class="cls-3" d="M353.83,57.729a20.359,20.359,0,0,1-1.26,2.685V69h-1.119V62.171a14.9,14.9,0,0,1-1.1,1.323,9.129,9.129,0,0,0-.649-1.2,14.152,14.152,0,0,0,3.016-4.9Zm7.815,10.677H354.9v.611h-1.094V61.19H354.9v6.185h6.746ZM357.2,60.517c.038-.281.076-.6.1-.917h-3.271V58.582h3.36c.038-.433.063-.853.088-1.234l1.171.063c-.025.369-.063.777-.1,1.171h3.015V59.6H358.45c-.051.318-.089.636-.128.917h2.61v6.018h-5.053V60.517Zm2.6.865h-2.825v.865H359.8Zm0,1.705h-2.825v.865H359.8Zm0,1.692h-2.825v.891H359.8Z"/><path class="cls-3" d="M367.707,59.27a29.459,29.459,0,0,0,3.742-.37v1.184a39.33,39.33,0,0,1-4.187.33,10.149,10.149,0,0,1-.98,1.68,3.746,3.746,0,0,1,1.629-.381,1.673,1.673,0,0,1,1.7,1.081c.789-.369,1.439-.636,2.036-.916.433-.191.8-.357,1.209-.56l.522,1.17c-.369.116-.916.319-1.3.472-.649.254-1.476.585-2.366.992.011.726.025,1.743.037,2.355h-1.209c.025-.446.039-1.171.051-1.8-1.094.6-1.782,1.183-1.782,1.934,0,.866.828,1.044,2.114,1.044a21.729,21.729,0,0,0,3.537-.331l-.038,1.285a32.282,32.282,0,0,1-3.538.23c-1.9,0-3.372-.445-3.372-2.024s1.527-2.558,3-3.308a1.022,1.022,0,0,0-1.042-.637,3.247,3.247,0,0,0-2.114.916,14.023,14.023,0,0,0-1.157,1.362l-1.1-.814a12.754,12.754,0,0,0,2.876-3.717h-.368c-.535,0-1.413-.025-2.126-.076v-1.2a16.423,16.423,0,0,0,2.189.14c.242,0,.5,0,.752-.012a6.451,6.451,0,0,0,.292-1.515l1.323.1C367.975,58.251,367.873,58.722,367.707,59.27Z"/><path class="cls-3" d="M379.318,60.389h-4.861v-.942h4.861Zm-.458,7.941h-2.812v.534h-1.019V64.589h3.831Zm.013-6.427a2.907,2.907,0,0,0,1.336-2.66V57.729H384.3V60.72c0,.293.025.343.2.343h.5c.192,0,.242-.165.268-1.335a2.651,2.651,0,0,0,.967.432c-.077,1.514-.37,1.908-1.108,1.908h-.814c-.877,0-1.145-.292-1.145-1.336V58.785h-1.833v.471a3.847,3.847,0,0,1-1.6,3.424,4.417,4.417,0,0,0-.853-.751v.165h-3.818v-.916h3.818Zm-3.818.967h3.818v.93h-3.818Zm3.78-4.174h-3.729v-.928h3.729Zm-2.787,6.847v1.832h1.782V65.543Zm9.481-2.507a8.232,8.232,0,0,1-2.062,3.716A8.455,8.455,0,0,0,386.254,68a4.7,4.7,0,0,0-.764,1.018,8.53,8.53,0,0,1-2.914-1.489,9.522,9.522,0,0,1-3.066,1.489,4.291,4.291,0,0,0-.637-1.043,8.725,8.725,0,0,0,2.825-1.247,9.015,9.015,0,0,1-1.654-2.52l1.056-.331A6.726,6.726,0,0,0,382.563,66a6.249,6.249,0,0,0,1.464-2.138h-4.556V62.781h5.078l.217-.038Z"/><path class="cls-3" d="M393.641,67.579a13.361,13.361,0,0,0,1.795.114c.546,0,2.684,0,3.41-.025a3.553,3.553,0,0,0-.446,1.2h-3.029c-2.494,0-4.326-.42-5.484-2.418a6.485,6.485,0,0,1-1.8,2.648,6.363,6.363,0,0,0-.98-.815c1.4-1.044,2.049-2.825,2.317-5.052l1.221.115a15.367,15.367,0,0,1-.3,1.667,3.645,3.645,0,0,0,2.074,2.239V62.311h-2.94V61.178h7.165v1.133h-3v1.871h3.639v1.106h-3.639ZM388.9,61.648h-1.159V58.722h4.658V57.36h1.259v1.362h4.709v2.926h-1.209V59.842H388.9Z"/><path class="cls-3" d="M304.4,107.794H300.02v-.941H304.4Zm-.369,7.916h-2.507v.56h-.967v-4.276h3.474Zm-.012-6.211h-3.449v-.916h3.449Zm-3.449.776h3.449v.93h-3.449Zm3.411-4.173h-3.334v-.929h3.334Zm-2.457,6.846v1.832h1.527v-1.832Zm6.071.954a10.3,10.3,0,0,1-2.558,2.533,6.242,6.242,0,0,0-.853-.763,8.586,8.586,0,0,0,2.354-2.342Zm4.174-.673H304.5v-1.057h5.1v-1.387H306.09v.6h-1.082v-5.269h1.082v3.653h4.658v2.405h1.018Zm-.637-4.328h-4.187v-3.792h4.187Zm-1.107-2.8H308v1.807h2.023Zm-.318,7.292a14.888,14.888,0,0,1,2.125,2.43l-1.043.611a14.188,14.188,0,0,0-2.062-2.52Z"/><path class="cls-3" d="M324.205,110.237v1.044h-7.483a9.114,9.114,0,0,1-3,5.154,7.3,7.3,0,0,0-1-.828,7.172,7.172,0,0,0,2.736-4.326h-2.443v-1.044h4.975V109.3h-3.792V108.3h3.792v-.916h-4.428v-1.031h2.405a7.125,7.125,0,0,0-.725-1.17l1.018-.408a5.889,5.889,0,0,1,.954,1.515l-.14.063h2.978l-.038-.012a9.676,9.676,0,0,0,.827-1.616l1.272.331a14.028,14.028,0,0,1-.865,1.3h2.494v1.031H319.19v.916h3.894v.993H319.19v.941Zm-3.971,4.862h3.742v1.044h-8.552V115.1h3.614v-1.948H316.62v-1.03h6.5v1.03h-2.889Z"/><path class="cls-3" d="M330.484,106.674a29.5,29.5,0,0,0,3.742-.368v1.182a39.064,39.064,0,0,1-4.187.331,10.108,10.108,0,0,1-.98,1.68,3.747,3.747,0,0,1,1.629-.382,1.675,1.675,0,0,1,1.7,1.082c.789-.369,1.438-.636,2.036-.916.433-.191.8-.356,1.209-.559l.522,1.17c-.369.115-.916.318-1.3.471-.649.254-1.476.585-2.367.992.013.726.026,1.744.038,2.355h-1.209c.026-.445.038-1.171.051-1.8-1.094.6-1.782,1.184-1.782,1.935,0,.865.828,1.044,2.113,1.044a21.634,21.634,0,0,0,3.538-.332l-.038,1.286a32.563,32.563,0,0,1-3.538.229c-1.9,0-3.373-.446-3.373-2.023s1.528-2.559,3-3.31a1.025,1.025,0,0,0-1.044-.636,3.247,3.247,0,0,0-2.112.916,13.767,13.767,0,0,0-1.158,1.363l-1.1-.815a12.771,12.771,0,0,0,2.876-3.717H328.4c-.534,0-1.412-.025-2.125-.076v-1.2a16.253,16.253,0,0,0,2.189.141c.242,0,.5,0,.751-.013a6.351,6.351,0,0,0,.292-1.515l1.324.1C330.751,105.656,330.65,106.127,330.484,106.674Z"/><path class="cls-3" d="M342.312,107.794h-5.078v-.941h5.078Zm-.522,7.941h-2.94v.535h-1.043v-4.276h3.983Zm-3.958-7.152h4v.916h-4Zm0,1.692h4v.93h-4Zm4.009-4.173h-3.932v-.929h3.932Zm-2.991,6.846v1.832h1.884v-1.832Zm10.207-2.749h-2.749v6.223h-1.2V110.2h-2.838v-1.171h2.838v-4.237h1.2v4.237h2.749Z"/><path class="cls-3" d="M361.5,114.335h-2.8v2.087h-1.221v-2.087h-3.156c-.331.8-1.2,1.565-3.194,2.112a4.459,4.459,0,0,0-.751-.878,4.412,4.412,0,0,0,2.57-1.234H350.2v-.954h3.118v-.967h-1.629v-4.76h1.336a7.277,7.277,0,0,0-.56-1.056h-.5a8.321,8.321,0,0,1-1.119,1.311,6.635,6.635,0,0,0-.955-.662,6.979,6.979,0,0,0,1.909-2.558l1.095.292c-.1.23-.217.433-.331.663h3.079v.928a5.776,5.776,0,0,0,1.158-1.883l1.146.254a7.032,7.032,0,0,1-.319.7h3.793v.954h-2.164a7.248,7.248,0,0,1,.51.7l-.777.356h1.222v4.76H358.7v.967h2.8ZM352.88,109h6.083v-.6H352.88Zm0,1.323h6.083V109.7H352.88Zm0,1.35h6.083v-.637H352.88Zm.789-5.078a7.136,7.136,0,0,1,.42.763l-.8.293h2.647a6.584,6.584,0,0,0-.916-.5,3.122,3.122,0,0,0,.6-.56Zm3.805,6.783v-.967h-2.965v.967Zm-.433-6.783a6.171,6.171,0,0,1-.891,1.056H358.7a6.932,6.932,0,0,0-.763-1.056Z"/><rect class="cls-2" x="251.187" y="209.764" width="157.78" height="26.004"/><path class="cls-3" d="M310.953,218.913s-.013.445-.013.611c-.229,5.829-.445,7.915-1,8.6a1.522,1.522,0,0,1-1.209.636,15.329,15.329,0,0,1-2.189,0,2.841,2.841,0,0,0-.42-1.247c.929.089,1.769.089,2.125.089a.7.7,0,0,0,.6-.216c.446-.446.675-2.444.853-7.305h-6.732a13.836,13.836,0,0,1-2.214,3.156,7.016,7.016,0,0,0-1.133-.827,12.107,12.107,0,0,0,3.182-5.332l1.3.318c-.166.509-.369,1.018-.573,1.514Zm-3.843,7.954a5.394,5.394,0,0,0-.28-.776c-2.214.19-4.518.369-6.108.509l-.14-1.209c.445-.026.967-.051,1.539-.089a28.692,28.692,0,0,0,1.527-4.531l1.311.332a43.441,43.441,0,0,1-1.578,4.123c.929-.064,1.934-.128,2.94-.205a17.264,17.264,0,0,0-1.094-1.755l.992-.37a13.179,13.179,0,0,1,1.985,3.539Z"/><path class="cls-3" d="M312.613,217.564h5.7v1.044H316.66v1.273h1.387v8.653h-.955v-.662h-3.27v.84h-.929v-8.831h1.489v-1.273h-1.769Zm1.209,7.394h3.27v-1.03h-.661c-.522,0-.675-.154-.675-.815v-2.24h-.585v1.006a3.316,3.316,0,0,1-.878,2.418,2.489,2.489,0,0,0-.471-.421,2.61,2.61,0,0,0,.738-2.01v-.993h-.738Zm3.27,1.973v-1.12h-3.27v1.12Zm-1.259-8.323H315.2v1.273h.637Zm1.259,2.265h-.738V223.1c0,.165.013.19.14.19h.357c.127,0,.165-.013.178-.038a.217.217,0,0,1,.063.051Zm5.346,6.643c.521,0,.61-.318.687-2.087a3.144,3.144,0,0,0,1.068.5c-.127,2.087-.445,2.684-1.667,2.684h-1.972c-1.26,0-1.655-.343-1.655-1.679v-5.37h3.678V218.8h-3.716v-1.133h4.862v5.855h-1.146v-.84H320.07v4.25c0,.5.1.585.637.585Z"/><path class="cls-3" d="M330.155,219a29.465,29.465,0,0,0,3.741-.368v1.182a39.045,39.045,0,0,1-4.186.331,10.178,10.178,0,0,1-.98,1.68,3.747,3.747,0,0,1,1.629-.382,1.675,1.675,0,0,1,1.705,1.082c.789-.369,1.438-.635,2.036-.916.433-.191.8-.356,1.209-.559l.522,1.17c-.369.115-.916.318-1.3.471-.649.254-1.476.585-2.367.993.013.725.025,1.743.038,2.354H331c.026-.445.038-1.171.051-1.795-1.094.6-1.782,1.184-1.782,1.935,0,.865.828,1.044,2.113,1.044a21.74,21.74,0,0,0,3.538-.331l-.039,1.285a32.527,32.527,0,0,1-3.537.229c-1.9,0-3.373-.446-3.373-2.023s1.528-2.559,3-3.31a1.025,1.025,0,0,0-1.044-.636,3.251,3.251,0,0,0-2.113.916,13.907,13.907,0,0,0-1.157,1.363l-1.1-.815a12.769,12.769,0,0,0,2.876-3.716h-.369c-.534,0-1.412-.026-2.125-.077v-1.2a16.253,16.253,0,0,0,2.189.141c.242,0,.5,0,.751-.013a6.342,6.342,0,0,0,.292-1.515l1.324.1C330.422,217.984,330.321,218.455,330.155,219Z"/><path class="cls-3" d="M341.982,220.122h-5.077v-.941h5.077Zm-.521,7.941h-2.94v.535h-1.043v-4.276h3.983Zm-3.958-7.152h4v.916h-4Zm0,1.693h4v.929h-4Zm4.009-4.174H337.58V217.5h3.932Zm-2.991,6.846v1.832h1.884v-1.832Zm10.207-2.749h-2.749v6.223h-1.2v-6.223h-2.838v-1.171h2.838v-4.237h1.2v4.237h2.749Z"/><path class="cls-3" d="M361.166,226.663h-2.8v2.087h-1.221v-2.087h-3.156c-.331.8-1.2,1.566-3.195,2.112a4.419,4.419,0,0,0-.75-.878,4.412,4.412,0,0,0,2.57-1.234h-2.748v-.954h3.117v-.967h-1.629v-4.76h1.336a7.167,7.167,0,0,0-.559-1.056h-.5a8.329,8.329,0,0,1-1.119,1.311,6.716,6.716,0,0,0-.955-.662,6.983,6.983,0,0,0,1.909-2.557l1.094.292c-.1.229-.216.432-.331.662h3.08v.928a5.772,5.772,0,0,0,1.158-1.882l1.146.253a7.032,7.032,0,0,1-.319.7h3.793v.954h-2.164a7.374,7.374,0,0,1,.51.7l-.777.356h1.222v4.76h-1.515v.967h2.8Zm-8.615-5.332h6.083v-.6h-6.083Zm0,1.323h6.083v-.623h-6.083Zm0,1.35h6.083v-.637h-6.083Zm.789-5.078a7.319,7.319,0,0,1,.42.763l-.8.293h2.647a6.536,6.536,0,0,0-.917-.5,3.1,3.1,0,0,0,.6-.56Zm3.805,6.783v-.967H354.18v.967Zm-.433-6.783a6.217,6.217,0,0,1-.891,1.056h2.545a6.981,6.981,0,0,0-.763-1.056Z"/><line class="cls-4" x1="330.077" y1="283.132" x2="330.077" y2="304.492"/><line class="cls-4" x1="330.077" y1="235.768" x2="330.077" y2="248.105"/><polygon class="cls-2" points="327.118 246.086 330.077 257.128 333.036 246.086 327.118 246.086"/><line class="cls-4" x1="330.077" y1="188.404" x2="330.077" y2="200.741"/><polygon class="cls-2" points="327.118 198.723 330.077 209.764 333.036 198.723 327.118 198.723"/><line class="cls-4" x1="222.083" y1="62.693" x2="242.164" y2="62.693"/><polygon class="cls-2" points="240.146 65.652 251.187 62.693 240.146 59.734 240.146 65.652"/><line class="cls-4" x1="222.083" y1="62.693" x2="222.083" y2="304.492"/><rect class="cls-2" x="251.187" y="257.128" width="157.78" height="26.004"/><path class="cls-3" d="M280.927,270.452v5.675h-1.158v-5.675h-1.794a8.324,8.324,0,0,1-1.884,5.765,4.055,4.055,0,0,0-.878-.8,7.221,7.221,0,0,0,1.654-4.963h-1.552v-1.107h1.565V266.3h-1.361v-1.094h6.528V266.3h-1.12v3.042h1.3v1.107Zm-1.158-1.107V266.3h-1.782v3.042Zm7.279,2.595a11.244,11.244,0,0,1-4.709,4.174,4.581,4.581,0,0,0-.839-.954,9.492,9.492,0,0,0,4.428-3.665Zm-.572-6.846a13,13,0,0,1-3.627,3.054,4.1,4.1,0,0,0-.853-.839,10.567,10.567,0,0,0,3.359-2.661Zm.279,3.474a13.857,13.857,0,0,1-3.767,3.233,4.7,4.7,0,0,0-.84-.84,10.917,10.917,0,0,0,3.526-2.851Z"/><path class="cls-3" d="M296.216,269.243c.611,2.6,1.769,4.784,3.653,5.866a4.321,4.321,0,0,0-.866.993,9.029,9.029,0,0,1-3.309-4.938,9.292,9.292,0,0,1-3.054,4.95,5.655,5.655,0,0,0-.929-.737v.725h-1.158v-4.39c-.674.623-1.362,1.26-1.96,1.768l-.649-.992c.662-.509,1.655-1.362,2.609-2.227v-1.845l-.954.61a14.587,14.587,0,0,0-1.5-2.405l.916-.547a14.425,14.425,0,0,1,1.54,2.29v-3.931h1.158v10.88a8.723,8.723,0,0,0,3.1-6.07h-2.723v-1.158h2.787c.013-.191.013-.369.013-.548v-3.054h1.17v3.054c0,.179,0,.357-.012.548h3.5v1.158Zm2.075-1.68a15.35,15.35,0,0,0-1.426-2.252l.891-.5a16.806,16.806,0,0,1,1.5,2.164Z"/><path class="cls-3" d="M305.741,266.367a29.647,29.647,0,0,0,3.741-.369v1.184a39.574,39.574,0,0,1-4.186.33,10.21,10.21,0,0,1-.98,1.679,3.745,3.745,0,0,1,1.629-.38,1.674,1.674,0,0,1,1.7,1.081c.789-.37,1.438-.636,2.036-.916.433-.192.8-.357,1.209-.56l.522,1.17c-.369.115-.917.318-1.3.472-.649.254-1.476.585-2.367.992.013.725.025,1.743.038,2.354h-1.209c.025-.445.038-1.171.051-1.8-1.094.6-1.782,1.184-1.782,1.935,0,.865.828,1.044,2.113,1.044a21.718,21.718,0,0,0,3.537-.331l-.038,1.285a32.527,32.527,0,0,1-3.537.229c-1.9,0-3.373-.445-3.373-2.023s1.528-2.559,3-3.309a1.024,1.024,0,0,0-1.044-.636,3.246,3.246,0,0,0-2.113.916,13.767,13.767,0,0,0-1.157,1.362l-1.1-.814a12.8,12.8,0,0,0,2.876-3.717h-.369c-.534,0-1.412-.026-2.125-.076v-1.2a16.253,16.253,0,0,0,2.189.141c.241,0,.5,0,.751-.013a6.334,6.334,0,0,0,.292-1.514l1.324.1C306.008,265.349,305.907,265.819,305.741,266.367Z"/><path class="cls-3" d="M316.22,266.341a14.12,14.12,0,0,1-2.685,4.492,5.913,5.913,0,0,0-1.07-.7,10.518,10.518,0,0,0,2.444-4.1Zm6.21,3.805c-1.2,3.7-3.754,5.282-8.361,6.02a4.857,4.857,0,0,0-.636-1.184c4.339-.535,6.693-1.909,7.762-5.205Zm-3.487-5.7v6.286c0,.688-.14,1.019-.611,1.209a6.277,6.277,0,0,1-2.24.23,4.716,4.716,0,0,0-.432-1.209c.789.013,1.565.013,1.781.013s.306-.064.306-.268v-6.261Zm2.621,1.438a18.46,18.46,0,0,1,2.7,4.162l-1.209.648a17.6,17.6,0,0,0-2.583-4.25Z"/><path class="cls-3" d="M328.085,266.6c-.064,1.413-.152,4.352-.152,6.108,0,1.349.827,1.808,1.934,1.808a5.215,5.215,0,0,0,4.479-2.622l.9,1.107a6.463,6.463,0,0,1-5.409,2.851c-1.934,0-3.232-.827-3.232-2.94,0-1.807.127-5.091.127-6.312a7.309,7.309,0,0,0-.14-1.477l1.629.013A11.756,11.756,0,0,0,328.085,266.6Z"/><path class="cls-3" d="M340.689,266.3c-.051.217-.1.47-.152.751a22.149,22.149,0,0,0,2.3-.433v1.247a22.364,22.364,0,0,1-2.571.433c-.114.548-.254,1.133-.394,1.667a39.9,39.9,0,0,1-2.011,5.854l-1.4-.47a27.817,27.817,0,0,0,2.163-5.7c.1-.394.217-.814.306-1.234-.356.013-.7.025-1.018.025-.6,0-1.056-.012-1.515-.051l-.025-1.247a11.75,11.75,0,0,0,1.553.1c.394,0,.827-.013,1.26-.051.076-.381.14-.7.165-.942a5.352,5.352,0,0,0,.051-1.158l1.527.115C340.854,265.526,340.74,266.049,340.689,266.3Zm1.527,7.025c0,.572.344,1.094,1.973,1.094a14.568,14.568,0,0,0,2.545-.254l-.038,1.285a19.855,19.855,0,0,1-2.52.178c-2.074,0-3.194-.674-3.194-1.934a8.28,8.28,0,0,1,.2-1.591l1.2.115A4.661,4.661,0,0,0,342.216,273.328Zm2.1-4.365a21.666,21.666,0,0,1,2.227.1l-.038,1.222a16.194,16.194,0,0,0-2.164-.152,21.421,21.421,0,0,0-2.4.127v-1.184C342.624,269.014,343.5,268.963,344.316,268.963Zm1.883-1.629-.84.369a14.413,14.413,0,0,0-1.018-1.769l.827-.343A19.918,19.918,0,0,1,346.2,267.334Zm1.477-.547-.827.368a16.369,16.369,0,0,0-1.044-1.768l.815-.344A18.733,18.733,0,0,1,347.676,266.787Z"/><path class="cls-3" d="M351.448,266.227a16.825,16.825,0,0,0-.382,6.261c.165-.471.433-1.183.649-1.744l.662.42c-.344.968-.7,2.266-.853,2.927a3.726,3.726,0,0,0-.064.6c0,.127.026.319.039.471l-1.107.127a14.071,14.071,0,0,1-.7-4.072,34.842,34.842,0,0,1,.458-5.09,6.408,6.408,0,0,0,.063-.954l1.49.14C351.613,265.578,351.512,265.985,351.448,266.227Zm6.592-.306c-.013.28,0,1.031.013,1.8a18.857,18.857,0,0,0,2.01-.268l-.012,1.3c-.548.077-1.247.153-1.986.192v.5c0,2.952-.1,4.924-2.723,6.528l-1.171-.916a4.151,4.151,0,0,0,1.349-.891c1.184-1.107,1.324-2.418,1.324-4.734V269c-.522.013-1.044.025-1.54.025-.586,0-1.426-.038-2.011-.063v-1.285a13.824,13.824,0,0,0,2,.139c.484,0,1-.012,1.527-.025-.012-.776-.038-1.54-.064-1.871a7.4,7.4,0,0,0-.127-.8H358.1A6.978,6.978,0,0,0,358.04,265.921Z"/><path class="cls-3" d="M364.765,264.814c-.281.828-.611,1.667-.98,2.482v8.818h-1.12V269.37a12.393,12.393,0,0,1-1.019,1.412,9.241,9.241,0,0,0-.6-1.247,14.777,14.777,0,0,0,2.621-5.026Zm7.1,1.921a7.083,7.083,0,0,1-1.577,2.036,9.849,9.849,0,0,0,2.978.994,5.607,5.607,0,0,0-.649.966,9.907,9.907,0,0,1-3.181-1.31,11.12,11.12,0,0,1-3.068,1.412,5.427,5.427,0,0,0-.624-.84v4.034h-1.03v-8.042h1.03v1.693a8.3,8.3,0,0,0,2.177-3.245L369,264.7a8.973,8.973,0,0,1-.5,1.082h4.352v.954Zm-6.121,3.157a9.864,9.864,0,0,0,2.813-1.121,7.067,7.067,0,0,1-1.17-1.247,9.1,9.1,0,0,1-.942,1.006c-.153-.14-.459-.382-.7-.56Zm7.165,3.321c-1.272,1.5-3.589,2.38-6.222,2.85a3.949,3.949,0,0,0-.611-.928c2.455-.357,4.708-1.095,5.816-2.342Zm-2.4-2.647a8.494,8.494,0,0,1-3.244,1.807,4.086,4.086,0,0,0-.65-.686,7.745,7.745,0,0,0,3-1.49Zm1.2,1.171a9.271,9.271,0,0,1-4.365,2.3,4.855,4.855,0,0,0-.586-.764,8.661,8.661,0,0,0,4.072-1.9Zm-3.742-5-.013.013a5.887,5.887,0,0,0,1.425,1.451,5.488,5.488,0,0,0,1.26-1.464Z"/><path class="cls-3" d="M385.59,274.447v1.146H374.2v-1.146h1.654v-5.8h1.222v5.8h2.533v-7.966h-4.951v-1.158H385.2v1.158h-4.34V269.6h3.793v1.145h-3.793v3.7Z"/><line class="cls-4" x1="330.077" y1="304.492" x2="222.083" y2="304.492"/><polygon class="cls-2" points="330.212 145.015 251.457 166.71 330.212 188.404 408.967 166.71 330.212 145.015"/><path class="cls-3" d="M289.968,164.09H285.59v-.942h4.378Zm-.369,7.916h-2.507v.559h-.967V168.29H289.6Zm-.013-6.211h-3.449v-.916h3.449Zm-3.449.776h3.449v.93h-3.449Zm3.411-4.174h-3.334v-.928h3.334Zm-2.456,6.847v1.832h1.527v-1.832Zm6.07.954a10.259,10.259,0,0,1-2.558,2.532,6.244,6.244,0,0,0-.853-.762,8.586,8.586,0,0,0,2.354-2.342Zm4.174-.674h-7.267v-1.056h5.1v-1.387H291.66v.6h-1.081V162.41h1.081v3.653h4.658v2.405h1.018ZM296.7,165.2h-4.187v-3.792H296.7Zm-1.107-2.8h-2.024v1.808h2.024Zm-.319,7.292a14.837,14.837,0,0,1,2.125,2.431l-1.043.61a14.133,14.133,0,0,0-2.062-2.519Z"/><path class="cls-3" d="M309.775,166.533v1.044h-7.483a9.1,9.1,0,0,1-3,5.153,7.443,7.443,0,0,0-1.006-.827,7.177,7.177,0,0,0,2.737-4.326h-2.444v-1.044h4.976v-.941H299.76V164.6h3.792v-.917h-4.429v-1.031h2.405a7.175,7.175,0,0,0-.725-1.171l1.018-.407a5.906,5.906,0,0,1,.954,1.515l-.139.063h2.977l-.038-.012a9.646,9.646,0,0,0,.827-1.617l1.273.331a14.325,14.325,0,0,1-.865,1.3H309.3v1.031h-4.543v.917h3.894v.992h-3.894v.941ZM305.8,171.4h3.742v1.043h-8.552V171.4h3.614v-1.948H302.19v-1.03h6.5v1.03H305.8Z"/><path class="cls-3" d="M315.889,162.69c-.076.4-.191,1-.306,1.6.522-.051.993-.076,1.286-.076,1.221,0,2.163.5,2.163,2.277a12.334,12.334,0,0,1-.725,4.62,1.9,1.9,0,0,1-1.96,1.119,7.019,7.019,0,0,1-1.514-.19l-.217-1.323a6.757,6.757,0,0,0,1.566.254,1.023,1.023,0,0,0,1.043-.6,10.487,10.487,0,0,0,.56-3.742c0-1.094-.5-1.285-1.3-1.285a11.5,11.5,0,0,0-1.158.077,26.57,26.57,0,0,1-2.634,6.845l-1.311-.521a19.832,19.832,0,0,0,2.634-6.2c-.573.063-1.094.127-1.387.165-.318.038-.916.115-1.26.178l-.127-1.375c.42.026.8.013,1.235,0,.407-.012,1.094-.063,1.807-.126a14.29,14.29,0,0,0,.305-2.737l1.489.154C316.016,162.079,315.953,162.41,315.889,162.69Zm5.574.446-.815.343a22.275,22.275,0,0,1,2.1,4.3l-1.26.6a14.673,14.673,0,0,0-2.214-4.658l1.184-.522c.012.026.038.051.05.076a11.5,11.5,0,0,0-.9-1.552l.827-.343A18.8,18.8,0,0,1,321.463,163.136Zm1.476-.56-.827.368a12.891,12.891,0,0,0-1.056-1.756l.827-.343A19.514,19.514,0,0,1,322.939,162.576Z"/><path class="cls-3" d="M335.11,166.915h-5.077v5.815h-1.285v-5.815h-5v-1.222h5v-4.644h1.285v4.644h5.077Z"/><path class="cls-3" d="M344.355,161.239a14.07,14.07,0,0,0,3.792,4.543,6.54,6.54,0,0,0-.992,1.057,11.645,11.645,0,0,1-1.069-1.044c0,.115,0,.382-.013.5-.165,3.855-.344,5.332-.776,5.828a1.375,1.375,0,0,1-1.044.522,14.514,14.514,0,0,1-1.972,0,2.712,2.712,0,0,0-.395-1.2c.777.076,1.5.09,1.795.09a.683.683,0,0,0,.547-.179c.293-.305.458-1.5.585-4.454h-2.939c-.318,2.469-1.133,4.7-4.4,5.893a3.754,3.754,0,0,0-.751-1.057,5.157,5.157,0,0,0,3.868-4.836h-2.38v-.979a10.713,10.713,0,0,1-1.158,1.03,8.942,8.942,0,0,0-1-.941,10.809,10.809,0,0,0,3.767-4.747l1.26.369a14.278,14.278,0,0,1-2.7,4.11h7.661a19.532,19.532,0,0,1-2.825-4.047Z"/><path class="cls-3" d="M352.276,164.383a15.117,15.117,0,0,1-2.239,5.574,5.47,5.47,0,0,0-1.133-.624,12.322,12.322,0,0,0,2.036-5.192Zm3.245-3.156v9.939c0,.789-.2,1.132-.7,1.336a7.971,7.971,0,0,1-2.532.216,5.75,5.75,0,0,0-.471-1.235c.866.038,1.794.038,2.062.026s.356-.089.356-.343v-9.939Zm2.9,2.812a20.632,20.632,0,0,1,2.443,5.625l-1.285.509a21.615,21.615,0,0,0-2.3-5.7Z"/><path class="cls-3" d="M366.955,161.621l1.374-.165a13.934,13.934,0,0,0,.548,2.1,15.6,15.6,0,0,0,2.748-.612l.152,1.274a22.141,22.141,0,0,1-2.48.5,14.126,14.126,0,0,0,1.31,2.367,6.054,6.054,0,0,0,.611.75l-.636.917a30.38,30.38,0,0,0-3.207-.382l.089-1.056c.675.05,1.578.127,2.011.178a17.382,17.382,0,0,1-1.387-2.647,33.557,33.557,0,0,1-5.4-.038l-.025-1.285a26.338,26.338,0,0,0,4.977.165c-.128-.395-.243-.726-.332-.98C367.223,162.423,367.1,162,366.955,161.621Zm-2.673,7.826c0,1.146,1.031,1.642,2.864,1.655a16.089,16.089,0,0,0,3.334-.305l-.064,1.272a17.429,17.429,0,0,1-3.347.281c-2.494-.014-4.072-.943-4.072-2.711a4.99,4.99,0,0,1,.636-2.228l1.26.28A3.22,3.22,0,0,0,364.282,169.447Z"/><path class="cls-3" d="M375.244,164.128a28.148,28.148,0,0,0,.09,2.863c.19,2,.712,3.348,1.564,3.348.637,0,1.2-1.388,1.49-2.546l1,1.184c-.8,2.176-1.59,2.926-2.52,2.926-1.285,0-2.469-1.221-2.812-4.568-.127-1.12-.14-2.647-.14-3.41a6.361,6.361,0,0,0-.1-1.2l1.553.025A10.7,10.7,0,0,0,375.244,164.128Zm8.921,5.4-1.311.509c-.215-2.189-.942-5.013-2.227-6.541l1.26-.42A13.845,13.845,0,0,1,384.165,169.524Z"/><line class="cls-4" x1="330.077" y1="123.655" x2="330.077" y2="135.991"/><polygon class="cls-2" points="327.118 133.973 330.077 145.015 333.036 133.973 327.118 133.973"/><line class="cls-4" x1="330.077" y1="76.076" x2="330.077" y2="88.412"/><polygon class="cls-2" points="327.118 86.394 330.077 97.436 333.036 86.394 327.118 86.394"/><line class="cls-4" x1="330.077" y1="28.331" x2="330.077" y2="40.667"/><polygon class="cls-2" points="327.118 38.649 330.077 49.691 333.036 38.649 327.118 38.649"/><line class="cls-4" x1="397.272" y1="166.709" x2="421.304" y2="166.709"/><polygon class="cls-2" points="419.285 169.669 430.327 166.709 419.285 163.75 419.285 169.669"/><path class="cls-5" d="M335.174,194.267l-1.759-3.591h.792l.751,1.663c.192.432.368.84.576,1.279h.031c.208-.439.409-.847.584-1.279l.76-1.663h.768l-1.76,3.591v2.278h-.743Z"/><path class="cls-5" d="M338.472,190.676h3.382v.632h-2.639v1.838h2.223v.632h-2.223v2.135h2.727v.632h-3.47Z"/><path class="cls-5" d="M342.754,195.777l.448-.5a2.267,2.267,0,0,0,1.614.728c.768,0,1.232-.384,1.232-.959,0-.6-.424-.792-.976-1.04l-.847-.367a1.567,1.567,0,0,1,.655-3.063,2.4,2.4,0,0,1,1.727.728l-.391.471a1.9,1.9,0,0,0-1.336-.551c-.663,0-1.095.336-1.095.863,0,.568.512.784.967.976l.84.36a1.631,1.631,0,0,1,1.207,1.566,1.769,1.769,0,0,1-1.99,1.663A2.8,2.8,0,0,1,342.754,195.777Z"/><path class="cls-5" d="M406.966,171.652h.767l2.135,3.7.623,1.209h.04c-.04-.592-.1-1.249-.1-1.856v-3.055h.7v5.869h-.76l-2.135-3.7-.632-1.207h-.032c.032.592.088,1.215.088,1.831v3.078h-.7Z"/><path class="cls-5" d="M412.407,174.571c0-1.879,1.031-3.022,2.5-3.022s2.5,1.143,2.5,3.022-1.031,3.054-2.5,3.054S412.407,176.45,412.407,174.571Zm4.245,0c0-1.471-.695-2.375-1.742-2.375s-1.743.9-1.743,2.375.687,2.407,1.743,2.407S416.652,176.034,416.652,174.571Z"/><path class="cls-2" d="M434.353,168.533a11.236,11.236,0,0,1-.9,3.233,3.321,3.321,0,0,0-.738-.357,9.145,9.145,0,0,0,.827-3.028Zm9.328-5.752a9.782,9.782,0,0,1-2.087,3.157,9.684,9.684,0,0,0,3.079,1.87,4.5,4.5,0,0,0-.61.776,10.333,10.333,0,0,1-3.093-2.062,11.383,11.383,0,0,1-3.016,1.9,5.559,5.559,0,0,0-.407-.561l-.6.268c-.051-.191-.127-.433-.216-.675l-.993.064v5.294h-.84v-5.243c-.725.038-1.412.077-2,.115l-.076-.84.84-.038c.268-.344.561-.751.84-1.171a11.815,11.815,0,0,0-1.642-1.8l.484-.623c.128.1.242.216.369.331a16.047,16.047,0,0,0,1.145-2.367l.827.331c-.432.84-.966,1.845-1.437,2.557a10.358,10.358,0,0,1,.737.828,25.868,25.868,0,0,0,1.286-2.279l.8.357a43.655,43.655,0,0,1-2.533,3.793l1.871-.077c-.178-.395-.382-.79-.585-1.145l.661-.268a10.552,10.552,0,0,1,1.108,2.3,10.764,10.764,0,0,0,2.749-1.681,11.385,11.385,0,0,1-1.35-1.806,10.17,10.17,0,0,1-1.336,1.348,2.684,2.684,0,0,0-.649-.61,9.143,9.143,0,0,0,2.749-3.665l.928.165a11.27,11.27,0,0,1-.6,1.171h2.85l.165-.051Zm-6.834,5.51a11.843,11.843,0,0,1,.814,2.316l-.725.243a12.438,12.438,0,0,0-.777-2.329Zm1.845,1.871a27.292,27.292,0,0,1,4.9,1.935l-.561.751a23.334,23.334,0,0,0-4.9-2.011Zm1.387-2.316a13.876,13.876,0,0,1,2.583,1.413l-.585.648a13.028,13.028,0,0,0-2.57-1.475Zm-.559-4.454a9.858,9.858,0,0,0,1.45,1.947,8.45,8.45,0,0,0,1.489-2.024h-2.876Z"/><path class="cls-2" d="M456.349,162.628a17.884,17.884,0,0,1-4.4,3.678v5.256c0,.636-.178.929-.662,1.082a11.987,11.987,0,0,1-2.621.139,3.254,3.254,0,0,0-.382-.941c1.043.038,2.036.038,2.317.025s.368-.089.368-.318v-6.07h.624a15.722,15.722,0,0,0,2.965-2.392h-8.2v-.93h9.048l.2-.063Z"/><path class="cls-5" d="M346.5,80.494l-2.553,2.554L346.5,85.6l-.225.224-2.552-2.554-2.561,2.562-.225-.225,2.561-2.56-2.553-2.554.224-.223,2.554,2.552,2.552-2.552Zm-4.982,3.134a.58.58,0,1,1,.58-.58A.586.586,0,0,1,341.52,83.628Zm1.625-2.785a.58.58,0,1,1,.58.58A.583.583,0,0,1,343.145,80.843Zm1.16,4.409a.58.58,0,1,1-.58-.58A.585.585,0,0,1,344.305,85.252Zm1.624-2.784a.58.58,0,1,1-.58.58A.584.584,0,0,1,345.929,82.468Z"/><path class="cls-5" d="M350.6,84.518c-.17-.241-.564-.72-.874-1.076v3.133h-.565V83.713a7.551,7.551,0,0,1-1.013.951,2.308,2.308,0,0,0-.317-.5,7.719,7.719,0,0,0,2.267-2.715h-2.051v-.526h1.114V79.52h.565v1.408h.658l.1-.032.325.225a8.249,8.249,0,0,1-1,1.787l.287.286a6.815,6.815,0,0,0,.58-.827l.379.309c-.24.271-.488.573-.7.789.248.256.5.511.588.619Zm4.24-3.977c-.093,3.922-.171,5.222-.464,5.608a.718.718,0,0,1-.588.341,8.47,8.47,0,0,1-1.1,0,1.445,1.445,0,0,0-.186-.588c.457.038.874.038,1.045.038a.307.307,0,0,0,.3-.13c.232-.271.332-1.556.409-5.044H352.7c-.062,2.181-.248,4.564-2.019,5.817a2.138,2.138,0,0,0-.441-.434c1.709-1.128,1.833-3.365,1.872-5.383H350.8v-.542h4.039Z"/><path class="cls-5" d="M359.437,84.711h-3.776v-.519h.751v-3.14h-.65v-.519h.65V79.6h.526v.929h1.4V79.6h.534v.929h.565v.519h-.565v3.14h.565Zm-2.159.31a5.1,5.1,0,0,1-1.145,1.562,3.6,3.6,0,0,0-.464-.333,4.023,4.023,0,0,0,1.06-1.377Zm-.34-3.969v.68h1.4v-.68Zm0,1.9h1.4V82.2h-1.4Zm0,1.237h1.4v-.773h-1.4Zm1.338.681a5.753,5.753,0,0,1,.812,1.146l-.463.27a6.125,6.125,0,0,0-.8-1.176Zm4.216.967c0,.341-.085.511-.294.6a3.412,3.412,0,0,1-1.152.109,2.322,2.322,0,0,0-.179-.557c.41.008.8.008.906,0s.163-.039.163-.162V83.976H360.3a6.059,6.059,0,0,1-.735,2.646,1.48,1.48,0,0,0-.456-.333,7.05,7.05,0,0,0,.7-3.6V79.9h2.676Zm-.556-2.382V82.174h-1.579v.517c0,.241-.007.5-.015.767Zm-1.579-3.033v1.23h1.579v-1.23Z"/><path class="cls-5" d="M365.676,79.705a11.474,11.474,0,0,1-.8,1.672V86.56h-.541V82.22a7.67,7.67,0,0,1-.781.951,3.218,3.218,0,0,0-.326-.557,8.83,8.83,0,0,0,1.912-3.071Zm4.8,6.483h-4.225v.379h-.533V81.849h.533v3.837h4.225ZM367.8,81.462c.03-.193.054-.418.077-.65h-2.065v-.5h2.112c.023-.279.046-.549.061-.789l.573.031c-.015.24-.046.5-.07.758h1.942v.5h-2c-.023.232-.054.457-.084.65H370v3.62h-3.07v-3.62Zm1.647.44h-1.972v.627h1.972Zm0,1.045h-1.972v.634h1.972Zm0,1.052h-1.972v.643h1.972Z"/><path class="cls-5" d="M374.02,81.044a7.528,7.528,0,0,0,1.214-.286l.016.58a10.421,10.421,0,0,1-1.408.286,13.669,13.669,0,0,1-1.688,3.265l-.595-.31a11.45,11.45,0,0,0,1.656-2.893c-.233.015-.465.023-.689.023-.286,0-.611-.008-.905-.023l-.039-.581a7.075,7.075,0,0,0,.944.055c.279,0,.573-.015.874-.039a6.4,6.4,0,0,0,.241-1.338l.68.062C374.252,80.123,374.143,80.6,374.02,81.044Zm2.119,2.026c.007.287.039.789.054,1.27a5.3,5.3,0,0,1,1.61.959l-.333.526a5.789,5.789,0,0,0-1.253-.889c.008.123.008.231.008.324,0,.619-.4,1.122-1.355,1.122-.85,0-1.547-.348-1.547-1.114,0-.712.673-1.161,1.547-1.161a3.471,3.471,0,0,1,.759.078c-.031-.634-.07-1.4-.086-1.95h.6C376.131,82.553,376.131,82.792,376.139,83.07Zm-1.346,2.755c.643,0,.859-.341.859-.766,0-.1,0-.216-.007-.348a2.709,2.709,0,0,0-.8-.116c-.566,0-.952.262-.952.619S374.189,85.825,374.793,85.825Zm1.129-4.448.318-.473a11.645,11.645,0,0,1,1.8,1.03l-.349.51A8.952,8.952,0,0,0,375.922,81.377Z"/><path class="cls-5" d="M382.417,86.228l-.364-.574a5.532,5.532,0,0,0,.666-.1,2.336,2.336,0,0,0,1.965-2.3,2.154,2.154,0,0,0-2.066-2.244,15.12,15.12,0,0,1-.464,2.228c-.472,1.594-1.084,2.405-1.8,2.405-.69,0-1.377-.789-1.377-2.065a3.3,3.3,0,0,1,3.38-3.148,2.8,2.8,0,0,1,2.963,2.846C385.318,84.9,384.25,85.987,382.417,86.228Zm-2.042-1.292c.363,0,.773-.519,1.168-1.827a12.758,12.758,0,0,0,.434-2.088,2.7,2.7,0,0,0-2.4,2.506C379.578,84.5,380.026,84.936,380.375,84.936Z"/><path class="cls-5" d="M386.908,80.858c.5-.054,1.965-.2,3.388-.317.843-.069,1.571-.116,2.089-.14v.62a6.424,6.424,0,0,0-1.516.124A2.72,2.72,0,0,0,389.1,83.6c0,1.508,1.407,1.988,2.668,2.035l-.225.641c-1.431-.053-3.062-.82-3.062-2.544a3.143,3.143,0,0,1,1.446-2.616c-.827.093-2.8.279-3.636.457l-.07-.674C386.514,80.889,386.761,80.874,386.908,80.858Zm5,2.19-.394.185a7.364,7.364,0,0,0-.634-1.09l.394-.17A9.168,9.168,0,0,1,391.905,83.048Zm.882-.333-.4.193a7.113,7.113,0,0,0-.651-1.083l.38-.178A10.088,10.088,0,0,1,392.787,82.715Z"/><path class="cls-5" d="M394.941,85.028a2.241,2.241,0,0,0,1.95.867c.85.039,2.63.015,3.558-.047a2.106,2.106,0,0,0-.185.565c-.867.038-2.5.054-3.366.016a2.7,2.7,0,0,1-2.189-.913c-.34.332-.7.657-1.075.99l-.3-.55a12.5,12.5,0,0,0,1.067-.89v-1.98h-.982v-.541h1.524Zm-.232-3.706a5.7,5.7,0,0,0-1.223-1.292l.442-.325a5.841,5.841,0,0,1,1.246,1.262Zm1.9-.7h-1.23v-.464h2.136v-.65h.564v.65h2.243v.464h-1.191l.2.055c-.139.262-.286.533-.41.742h1.13v3.4c0,.278-.054.425-.255.518a3.1,3.1,0,0,1-.976.086,1.707,1.707,0,0,0-.178-.495c.349.014.651.014.751.007s.117-.031.117-.116V81.879h-1.471V82.4H399.2v.395h-1.161v.558h.828v1.392h-1.647v.294h-.418V83.35h.8v-.558h-1.154V82.4H397.6v-.518h-1.416v3.559h-.527V81.423h1.006a3.2,3.2,0,0,0-.324-.728Zm1.787.773a5.455,5.455,0,0,0,.364-.773h-1.9a2.7,2.7,0,0,1,.326.758l-.14.039h1.439Zm.046,2.314h-1.221v.665h1.221Z"/><path class="cls-5" d="M404.94,82.235h2.522v4.348h-.6v-.341h-5.175v-.564h5.175v-1.2h-4.772v-.557h4.772V82.8h-5.028v-.565h2.483V79.512h.619Zm-2.22-.386a7.348,7.348,0,0,0-.983-1.787l.5-.209a7.142,7.142,0,0,1,1.03,1.755Zm4.843-1.857a16.717,16.717,0,0,1-1.106,1.91l-.5-.2a11.182,11.182,0,0,0,1-1.918Z"/><path class="cls-5" d="M411.714,81.044a7.565,7.565,0,0,0,1.215-.286l.014.58a10.373,10.373,0,0,1-1.407.286,13.737,13.737,0,0,1-1.686,3.265l-.6-.31a11.417,11.417,0,0,0,1.655-2.893c-.232.015-.464.023-.688.023-.286,0-.612-.008-.906-.023l-.039-.581a7.09,7.09,0,0,0,.945.055c.278,0,.572-.015.874-.039a6.458,6.458,0,0,0,.24-1.338l.681.062C411.945,80.123,411.838,80.6,411.714,81.044Zm2.119,2.026c.008.287.039.789.055,1.27a5.278,5.278,0,0,1,1.609.959l-.333.526a5.764,5.764,0,0,0-1.253-.889c.008.123.008.231.008.324,0,.619-.395,1.122-1.355,1.122-.85,0-1.546-.348-1.546-1.114,0-.712.672-1.161,1.546-1.161a3.464,3.464,0,0,1,.759.078c-.031-.634-.07-1.4-.086-1.95h.6C413.825,82.553,413.825,82.792,413.833,83.07Zm-1.346,2.755c.643,0,.859-.341.859-.766,0-.1,0-.216-.008-.348a2.69,2.69,0,0,0-.8-.116c-.564,0-.951.262-.951.619S411.884,85.825,412.487,85.825Zm1.13-4.448.317-.473a11.645,11.645,0,0,1,1.8,1.03l-.347.51A9.017,9.017,0,0,0,413.617,81.377Z"/><path class="cls-5" d="M419.81,83.056v3.519h-.558V83.056H418a5.215,5.215,0,0,1-1.145,3.574,1.88,1.88,0,0,0-.433-.388,4.625,4.625,0,0,0,1.036-3.186h-1v-.535h1.006V80.533h-.89v-.541h3.961v.541h-.726v1.988h.835v.535Zm-.558-.535V80.533h-1.245v1.988Zm4.325,1.525a6.863,6.863,0,0,1-2.94,2.529,2.424,2.424,0,0,0-.4-.456,6.108,6.108,0,0,0,2.8-2.282Zm-.4-4.178a7.667,7.667,0,0,1-2.2,1.818,2.669,2.669,0,0,0-.418-.4,6.528,6.528,0,0,0,2.089-1.639Zm.216,2.111a8.625,8.625,0,0,1-2.352,1.951,2.873,2.873,0,0,0-.4-.41,7.249,7.249,0,0,0,2.228-1.764Z"/><path class="cls-5" d="M424.88,80.858c.5-.054,1.965-.2,3.389-.317.842-.069,1.57-.116,2.088-.14v.62a6.424,6.424,0,0,0-1.516.124,2.721,2.721,0,0,0-1.772,2.452c0,1.508,1.409,1.988,2.669,2.035l-.224.641c-1.431-.053-3.064-.82-3.064-2.544a3.147,3.147,0,0,1,1.446-2.616c-.827.093-2.8.279-3.635.457l-.07-.674C424.485,80.889,424.732,80.874,424.88,80.858Zm5,2.19-.395.185a7.187,7.187,0,0,0-.633-1.09l.394-.17A9.031,9.031,0,0,1,429.877,83.048Zm.883-.333-.4.193a7.191,7.191,0,0,0-.65-1.083l.379-.178A10.422,10.422,0,0,1,430.76,82.715Z"/><path class="cls-5" d="M434.693,80.681c-.007.208,0,.487,0,.789.612-.016,1.594-.055,2.29-.14l.024.58c-.689.069-1.679.116-2.314.124V82.1c0,.51.039,1.261.078,1.934a6.144,6.144,0,0,1,2.406,1.315l-.371.589a5.5,5.5,0,0,0-2.012-1.285c.008.2.016.379.016.518,0,.635-.387,1.176-1.416,1.176-1.068,0-1.857-.34-1.857-1.222,0-.7.611-1.268,1.949-1.268a4.627,4.627,0,0,1,.659.045c-.032-.627-.063-1.337-.063-1.8,0-.449,0-1.083-.007-1.415a3.876,3.876,0,0,0-.062-.767h.735C434.725,80.077,434.7,80.448,434.693,80.681Zm-1.361,5.082c.564,0,.844-.263.844-.8,0-.123-.008-.294-.008-.495a3.568,3.568,0,0,0-.759-.077c-.8,0-1.253.278-1.253.7S432.59,85.763,433.332,85.763Z"/><path class="cls-5" d="M439.292,81.338c-.008.487,0,1.191.055,1.833.123,1.292.5,2.151,1.051,2.151.395,0,.758-.8.959-1.578l.488.549c-.464,1.315-.936,1.764-1.454,1.764-.735,0-1.439-.727-1.648-2.731-.07-.673-.085-1.617-.085-2.065a3.528,3.528,0,0,0-.054-.689l.75.016A5.865,5.865,0,0,0,439.292,81.338Zm5.454,3.311-.619.255a7.842,7.842,0,0,0-1.346-3.891l.6-.209A8.319,8.319,0,0,1,444.746,84.649Z"/><path class="cls-5" d="M341.774,128.5s.379.309.611.533c-.023.077-.093.116-.2.116h-2.623l-.061-.224h1.949Zm-1.9-.317-.062-.233h1.331l.325-.41s.371.294.6.519c-.024.085-.093.124-.2.124ZM341.2,129.9l.31-.379s.332.271.549.48c-.016.086-.093.124-.2.124h-1.981l-.062-.225Zm-1.323,1.215-.062-.224H341.2l.31-.387s.332.278.549.487c-.016.086-.093.124-.2.124Zm2.329.937a.533.533,0,0,1-.317.146v1.85a.64.64,0,0,1-.4.154h-.07v-.4h-1.106v.534c0,.054-.194.162-.4.162h-.077v-2.847l.511.232h.99l.263-.286Zm-.789,1.515v-1.454h-1.106v1.454Zm.712.836a4.951,4.951,0,0,0,1.462-1.771l.735.371c-.039.077-.109.116-.279.077a4.937,4.937,0,0,1-1.849,1.424Zm4.1-2.731s.371.356.564.595c-.015.079-.092.117-.185.117h-4.348l-.062-.224h3.072v-1.106H343.1v.324c0,.07-.209.179-.387.179h-.085V128.35l.743.077c-.016.1-.086.171-.271.2v2.213h2.1l.286-.3.6.456a.574.574,0,0,1-.317.148v1.021h.154Zm-1.958-1.462c0,.055-.209.155-.4.155H343.8v-2.747l.511.225h1.3l.279-.294.618.464a.629.629,0,0,1-.34.155V130.1c-.008.054-.24.171-.4.171h-.078v-.45h-1.416Zm0-2.135V129.6h1.416v-1.524Zm.612,4.618c2.174.821,1.864,2.081,1.253,1.71a5.093,5.093,0,0,0-1.338-1.64Z"/><path class="cls-5" d="M353.715,133.6s.417.34.673.58c-.023.077-.093.116-.2.116h-5.454l-.062-.217h2.383v-1.8h-1.5l-.054-.185a5.379,5.379,0,0,1-2.151,2.344l-.077-.108a5.744,5.744,0,0,0,1.988-3.226h-1.811l-.069-.224h3.18v-.937h-2.437l-.07-.224h2.507v-.851H347.8l-.069-.224h3.674a8.661,8.661,0,0,0,.619-1.277l.82.263c-.038.093-.139.147-.3.132a6.1,6.1,0,0,1-.929.882h1.47l.371-.441s.411.309.673.541c-.023.085-.092.124-.208.124h-2.84v.851H352.8l.348-.425s.4.3.65.525c-.023.085-.093.124-.2.124h-2.515v.937H353.3l.371-.457s.4.325.665.564c-.015.078-.1.117-.208.117h-4.263a6.045,6.045,0,0,1-.348.959h3.265l.348-.441s.4.31.65.542c-.016.085-.093.115-.2.115h-2.012v1.8h1.779Zm-4.619-6.182c1.586.394,1.169,1.517.619,1.145a2.471,2.471,0,0,0-.7-1.083Z"/><path class="cls-5" d="M356.649,128.837a.511.511,0,1,1-.51.511A.506.506,0,0,1,356.649,128.837Zm0,3.767a.512.512,0,0,1,.511.519.511.511,0,1,1-1.021,0A.512.512,0,0,1,356.649,132.6Z"/><path class="cls-5" d="M361.466,128.644h3.813c.186,0,.418-.008.574-.016-.008.178-.024.418-.024.6v3.993c0,.278.024.627.03.75h-.695c.008-.085.008-.247.016-.433H361.4c-.317,0-.666.016-.875.03v-.7a7.976,7.976,0,0,0,.86.047h3.8v-3.651h-3.706c-.286,0-.673.015-.851.023V128.6A8.053,8.053,0,0,0,361.466,128.644Z"/><path class="cls-5" d="M370.791,132.287a7.28,7.28,0,0,0,2.584-2.847l.372.658a7.735,7.735,0,0,1-2.6,2.755,8.483,8.483,0,0,1-3.04,1.2l-.41-.635A7.967,7.967,0,0,0,370.791,132.287Zm-.455-2.452-.488.487a16.255,16.255,0,0,0-1.926-1.617l.441-.472A17.1,17.1,0,0,1,370.336,129.835Z"/><path class="cls-5" d="M375.831,128.729v1.749a21.019,21.019,0,0,0,2.94-.945,5.8,5.8,0,0,0,.68-.347l.272.618c-.217.092-.5.217-.728.3a29.252,29.252,0,0,1-3.164,1.006v1.7c0,.4.163.5.542.573a7.3,7.3,0,0,0,1.022.062,12.662,12.662,0,0,0,2.644-.248v.7a21.53,21.53,0,0,1-2.676.162,8.023,8.023,0,0,1-1.238-.077c-.6-.108-.928-.379-.928-1.006v-4.254a4.037,4.037,0,0,0-.047-.626h.719A5.37,5.37,0,0,0,375.831,128.729Zm4.263-1.091a.867.867,0,1,1,0,1.733.867.867,0,0,1,0-1.733Zm0,1.377a.508.508,0,0,0,.51-.5.511.511,0,1,0-1.021,0A.5.5,0,0,0,380.094,129.015Z"/><path class="cls-5" d="M386.146,130.462c-.061.525-.285,2.058-.394,2.769h.759c.17,0,.448-.007.61-.023v.627c-.139-.008-.425-.016-.588-.016H382.3c-.24,0-.418.008-.643.024V133.2c.186.016.411.031.643.031h2.8c.116-.65.341-2.158.364-2.6H383c-.225,0-.426.015-.619.023v-.65a5.32,5.32,0,0,0,.611.047h2.352a1.315,1.315,0,0,0,.387-.055l.472.225A1.756,1.756,0,0,0,386.146,130.462Z"/><path class="cls-5" d="M389.469,130.593h4.24c.387,0,.665-.023.836-.038v.758c-.155-.008-.481-.039-.828-.039h-4.248c-.425,0-.835.015-1.074.039v-.758C388.626,130.57,389.036,130.593,389.469,130.593Z"/><path class="cls-5" d="M398.726,128.435a2.6,2.6,0,0,1-.163.278h2.1a1.521,1.521,0,0,0,.51-.077l.511.309a2.579,2.579,0,0,0-.186.418,7.8,7.8,0,0,1-1.207,2.407c.325.239.635.479.882.68l-.456.533c-.233-.209-.526-.448-.843-.7a7.339,7.339,0,0,1-2.948,1.966l-.557-.48a6.784,6.784,0,0,0,2.994-1.865c-.557-.4-1.145-.8-1.64-1.114l.418-.425c.51.294,1.091.665,1.633,1.044a6.47,6.47,0,0,0,1.051-2.142h-2.615a8.454,8.454,0,0,1-2.05,2.05l-.518-.4a7.074,7.074,0,0,0,2.483-2.692,2.817,2.817,0,0,0,.248-.611l.7.224C398.942,128.032,398.8,128.3,398.726,128.435Z"/><path class="cls-5" d="M403.077,128.775c.5-.054,1.965-.2,3.389-.317.843-.069,1.57-.116,2.089-.14v.62a6.432,6.432,0,0,0-1.517.124,2.72,2.72,0,0,0-1.771,2.452c0,1.508,1.408,1.988,2.669,2.035l-.225.641c-1.431-.053-3.064-.82-3.064-2.544a3.146,3.146,0,0,1,1.447-2.616c-.827.093-2.8.279-3.636.457l-.069-.674C402.683,128.806,402.93,128.791,403.077,128.775Zm5,2.19-.394.185a7.277,7.277,0,0,0-.634-1.09l.394-.17A9.031,9.031,0,0,1,408.074,130.965Zm.883-.333-.4.193a7.2,7.2,0,0,0-.651-1.083l.379-.178A10.252,10.252,0,0,1,408.957,130.632Z"/><path class="cls-5" d="M412.573,129.186h-3.048v-.473h3.048Zm-.309,4.866h-1.872v.355h-.511v-2.592h2.383Zm-2.375-4.294h2.4v.456h-2.4Zm0,1.021h2.4v.464h-2.4Zm2.4-2.615h-2.359V127.7h2.359Zm-1.895,4.123v1.3h1.353v-1.3Zm6.289-1.663h-1.733v3.868h-.572v-3.868h-1.811v-.564h1.811v-2.608h.572v2.608h1.733Z"/><path class="cls-5" d="M424.25,133.192h-1.771v1.292H421.9v-1.292h-2.081c-.193.48-.7.953-1.934,1.316a2.071,2.071,0,0,0-.356-.434,2.69,2.69,0,0,0,1.648-.882H417.4v-.479h1.958a1.447,1.447,0,0,0,.007-.17v-.5h-1.036v-2.862h.836a4.242,4.242,0,0,0-.38-.7h-.394a5.319,5.319,0,0,1-.681.828,2.935,2.935,0,0,0-.472-.309,4.227,4.227,0,0,0,1.137-1.594l.526.139c-.069.155-.146.309-.224.465h2.027v.471h-1.323a2.9,2.9,0,0,1,.294.534l-.417.163h1.515a2.77,2.77,0,0,0-.463-.256,3.5,3.5,0,0,0,1.075-1.516l.55.123a4.052,4.052,0,0,1-.217.481h2.46v.471h-1.47a2.642,2.642,0,0,1,.363.511l-.41.186h.766v2.862h-.951v.673h1.771Zm-5.354-3.179h3.946v-.449H418.9Zm0,.812h3.946v-.44H418.9Zm0,.836h3.946V131.2H418.9Zm3,1.052v-.673h-1.964v.511a1.106,1.106,0,0,1-.008.162Zm-.456-4.232a4.564,4.564,0,0,1-.6.7h1.732a3.97,3.97,0,0,0-.518-.7Z"/><path class="cls-5" d="M426.637,128.659c-.038.874-.093,2.7-.093,3.853,0,.85.534,1.152,1.269,1.152a3.223,3.223,0,0,0,2.769-1.6l.441.526a3.889,3.889,0,0,1-3.234,1.71c-1.113,0-1.88-.464-1.88-1.726,0-1.144.078-3.1.078-3.914a4.041,4.041,0,0,0-.062-.789l.781.008A6.862,6.862,0,0,0,426.637,128.659Z"/><path class="cls-5" d="M434.3,128.435c-.031.163-.07.364-.116.572a11.428,11.428,0,0,0,1.485-.278v.611a14.878,14.878,0,0,1-1.609.263c-.07.34-.155.7-.247,1.037a23.7,23.7,0,0,1-1.208,3.543l-.68-.232a16.874,16.874,0,0,0,1.3-3.459c.069-.255.138-.549.2-.827-.256.016-.5.023-.712.023-.341,0-.619-.015-.9-.031l-.023-.6a6.892,6.892,0,0,0,.929.053c.255,0,.533-.014.835-.038.054-.27.092-.518.116-.673a3.05,3.05,0,0,0,.023-.642l.743.061C434.392,127.986,434.329,128.28,434.3,128.435Zm.92,4.317c0,.363.2.719,1.307.719a7.42,7.42,0,0,0,1.509-.155l-.023.627a10.248,10.248,0,0,1-1.493.109c-1.222,0-1.888-.372-1.888-1.138a4.908,4.908,0,0,1,.116-.913l.58.055A2.759,2.759,0,0,0,435.219,132.752Zm1.362-2.647a12.23,12.23,0,0,1,1.338.071l-.016.588a9.62,9.62,0,0,0-1.3-.093,12.517,12.517,0,0,0-1.439.077v-.572C435.575,130.137,436.086,130.1,436.581,130.1Z"/><path class="cls-5" d="M441.382,131.336l-.813.255v2.2c0,.325-.069.487-.262.588a2.591,2.591,0,0,1-1.022.1,2.348,2.348,0,0,0-.17-.548c.348.015.665.015.766.007s.132-.031.132-.147v-2.034l-1.037.316-.131-.557c.316-.077.726-.193,1.168-.325V129.51h-1.037v-.526h1.037v-1.547h.556v1.547h.751v.526h-.751v1.524l.744-.217Zm4.626,2.754h-3.5v.394h-.55v-4.463a5.709,5.709,0,0,1-.572.735,4.176,4.176,0,0,0-.387-.48,6.813,6.813,0,0,0,1.531-2.855l.55.14a11.068,11.068,0,0,1-.5,1.323h1.183a10.724,10.724,0,0,0,.527-1.432l.6.14c-.17.425-.379.9-.564,1.292h1.54v.517H444.3v1.037h1.391v.5H444.3v1.051h1.391v.5H444.3v1.075h1.709Zm-2.236-4.689h-1.26v1.037h1.26Zm0,1.533h-1.26v1.051h1.26Zm-1.26,2.629h1.26v-1.075h-1.26Z"/><path class="cls-5" d="M450.5,133.727a7.127,7.127,0,0,0,1.253.092c.279,0,1.609,0,1.98-.007a1.683,1.683,0,0,0-.215.58h-1.8c-1.6,0-2.754-.279-3.458-1.586a4.249,4.249,0,0,1-1.154,1.725,2.936,2.936,0,0,0-.471-.386,4.476,4.476,0,0,0,1.446-3.15l.588.055a9.468,9.468,0,0,1-.186,1.028,2.319,2.319,0,0,0,1.424,1.493V130.33h-1.919v-.541h4.48v.541H450.5v1.284h2.29v.534H450.5Zm-2.932-3.737H447v-1.672h2.9v-.881h.6v.881h2.925v1.672h-.589v-1.13h-5.268Z"/><path class="cls-5" d="M457.782,130.973v3.519h-.557v-3.519h-1.253a5.216,5.216,0,0,1-1.146,3.574,1.9,1.9,0,0,0-.432-.388,4.63,4.63,0,0,0,1.036-3.186h-1v-.535h1.006V128.45h-.89v-.541h3.961v.541h-.727v1.988h.835v.535Zm-.557-.535V128.45h-1.246v1.988Zm4.325,1.525a6.866,6.866,0,0,1-2.941,2.529,2.414,2.414,0,0,0-.4-.456,6.108,6.108,0,0,0,2.8-2.282Zm-.4-4.178a7.64,7.64,0,0,1-2.2,1.818,2.5,2.5,0,0,0-.418-.4,6.522,6.522,0,0,0,2.089-1.64Zm.216,2.111a8.606,8.606,0,0,1-2.351,1.951,2.829,2.829,0,0,0-.4-.41,7.253,7.253,0,0,0,2.229-1.764Z"/><path class="cls-5" d="M463.751,127.421h.564v7.063h-.564v-2.838c-.457.44-.929.881-1.323,1.237l-.325-.487c.41-.333,1.052-.882,1.648-1.447Zm-.55,2.724a8.547,8.547,0,0,0-.974-1.432l.448-.278a8.66,8.66,0,0,1,1,1.4Zm3.829.124a5.356,5.356,0,0,0,2.29,3.736,2.294,2.294,0,0,0-.417.479,5.431,5.431,0,0,1-2.143-3.249,5.492,5.492,0,0,1-1.934,3.249,2.72,2.72,0,0,0-.465-.363,5.393,5.393,0,0,0,1.973-3.852h-1.756V129.7h1.8c.008-.162.008-.316.008-.472v-1.787h.564v1.787c0,.156,0,.31-.007.472h2.22v.566Zm1.432-.96a9.868,9.868,0,0,0-.921-1.37l.434-.247a8.937,8.937,0,0,1,.943,1.33Z"/><path class="cls-5" d="M473.563,134.145l-.363-.574a5.482,5.482,0,0,0,.665-.1,2.336,2.336,0,0,0,1.965-2.3,2.154,2.154,0,0,0-2.065-2.244,15.25,15.25,0,0,1-.464,2.228c-.472,1.594-1.083,2.405-1.8,2.405-.688,0-1.377-.789-1.377-2.065a3.3,3.3,0,0,1,3.381-3.148,2.8,2.8,0,0,1,2.963,2.846C476.465,132.821,475.4,133.9,473.563,134.145Zm-2.042-1.292c.364,0,.774-.519,1.168-1.827a12.552,12.552,0,0,0,.434-2.088,2.7,2.7,0,0,0-2.4,2.506C470.725,132.419,471.174,132.853,471.521,132.853Z"/><path class="cls-5" d="M481.118,130.261h-3.752v-.5h.9v-.913h-.775v-.488h.775v-.858h.525v.858h1v-.858h.534v.858h.782v.488h-.782v.913h.8Zm-.449,3.635c0,.279-.054.418-.247.5a2.757,2.757,0,0,1-.968.085,1.7,1.7,0,0,0-.162-.479c.341.016.635.008.72.008s.124-.039.124-.124V133.2h-1.687v1.3h-.534v-3.729h2.754Zm-2.22-2.668v.542h1.687v-.542Zm1.687,1.524v-.542h-1.687v.542Zm-1.347-2.986h1v-.913h-1Zm5.121-.365a9.2,9.2,0,0,1-.9,3.1,3.852,3.852,0,0,0,1.477,1.509,2.1,2.1,0,0,0-.41.487,4.1,4.1,0,0,1-1.393-1.462,4.97,4.97,0,0,1-1.648,1.47,1.97,1.97,0,0,0-.34-.487,4.081,4.081,0,0,0,1.687-1.541,11.409,11.409,0,0,1-.681-2.142,5.683,5.683,0,0,1-.5.959,3.19,3.19,0,0,0-.4-.472,8.8,8.8,0,0,0,1.076-3.4l.556.086c-.077.456-.162.912-.27,1.345h2.251v.541Zm-1.894.055a10.264,10.264,0,0,0,.7,2.437,9.4,9.4,0,0,0,.642-2.492H482.03Z"/><path class="cls-5" d="M487.419,129.58h1.7v.525h-1.7V131.4h1.393v2.9h-.565v-.286h-2.205v.333H485.5V131.4h1.353V130.1H485.1v-.525h1.755v-1.169c-.487.078-1,.14-1.469.187a1.766,1.766,0,0,0-.163-.465,16.9,16.9,0,0,0,3.3-.634l.442.433a10.026,10.026,0,0,1-1.548.379Zm.828,2.336h-2.205v1.578h2.205Zm3.04,1.941c.286,0,.333-.294.371-1.446a1.531,1.531,0,0,0,.519.255c-.062,1.277-.2,1.718-.843,1.718H490.32c-.65,0-.836-.209-.836-.99v-5.873h.566v5.88c0,.387.054.456.332.456Z"/><path class="cls-5" d="M498.981,133.943c.3,0,.356-.193.395-1.3a1.628,1.628,0,0,0,.525.254c-.069,1.247-.223,1.579-.874,1.579h-1.114c-.681,0-.874-.186-.874-.835V130.91h-1.423c-.147,1.687-.534,2.947-2.461,3.582a1.763,1.763,0,0,0-.355-.487c1.8-.542,2.089-1.633,2.213-3.095h-2.059v-.549h3.11v-2.932h.573v2.932h3.179v.549h-2.2v2.724c0,.255.063.309.357.309Zm-4.471-4.023A8.39,8.39,0,0,0,493.6,128l.518-.193a7.5,7.5,0,0,1,.936,1.894Zm4.719-1.981a16.2,16.2,0,0,1-1.076,1.957l-.479-.193a11.459,11.459,0,0,0,.974-1.98Z"/><path class="cls-5" d="M503.44,130.184c.728-.442,1.564-.852,1.989-1.083a4.37,4.37,0,0,0,.55-.365l.339.55c-.177.109-.371.209-.595.324a26.123,26.123,0,0,0-2.352,1.285c-.72.464-1.152.975-1.152,1.563,0,.642.611,1.044,1.833,1.044a11.479,11.479,0,0,0,2.475-.263v.689a15.294,15.294,0,0,1-2.444.193c-1.454,0-2.507-.433-2.507-1.594a2.531,2.531,0,0,1,1.339-2,25.766,25.766,0,0,1-1.122-2.382l.611-.255A17.006,17.006,0,0,0,503.44,130.184Z"/><path class="cls-5" d="M364.158,143.238a3.949,3.949,0,0,0,2.885,1.525,2.221,2.221,0,0,0-.348.5,4.077,4.077,0,0,1-3.148-2.02h-.07a4.558,4.558,0,0,1-3.009,2,2.236,2.236,0,0,0-.349-.464,4.6,4.6,0,0,0,2.7-1.54H360.2v-.51h2.885a2.359,2.359,0,0,0,.147-.727h-2.142v-.48h2.158v-.688h-2.282v-.487h2.282V139.7h.573v.643h2.39v-.891H360.87v.968h-.557v-1.485h2.948v-.751h.572v.751h2.956v1.485h-.581v.41h-2.39v.688H366.1V142h-2.3a3.429,3.429,0,0,1-.125.727h3.281v.51Z"/><path class="cls-5" d="M367.689,144.631a3.414,3.414,0,0,0,.387-1.709l.364.069a3.732,3.732,0,0,1-.425,1.825Zm3.258-2.646s0,.147-.008.225c-.078,1.9-.17,2.584-.348,2.815a.554.554,0,0,1-.41.2,5.206,5.206,0,0,1-.689,0,1.15,1.15,0,0,0-.131-.456c.263.015.5.015.6.015a.233.233,0,0,0,.209-.078,2.244,2.244,0,0,0,.185-.951l-.263.108a4.577,4.577,0,0,0-.418-1.006l.271-.1a4.7,4.7,0,0,1,.418.936c.03-.317.054-.727.076-1.246h-2.3V138.5h2.738v.487h-1.022v.665h.86v.465h-.86v.689h.86v.463h-.86v.712Zm-2.027,1.03a7.738,7.738,0,0,1,.123,1.407l-.316.047a7.789,7.789,0,0,0-.109-1.416Zm-.286-4.024v.665h.75v-.665Zm.75,1.13h-.75v.689h.75Zm-.75,1.864h.75v-.712h-.75Zm.843,2.244a6.192,6.192,0,0,0-.3-1.246l.285-.061a5.493,5.493,0,0,1,.317,1.229Zm3.582-6.042a5.48,5.48,0,0,0,1.911,1.864,3.383,3.383,0,0,0-.3.488,6.313,6.313,0,0,1-1.842-1.834,5.824,5.824,0,0,1-1.825,1.9,2.162,2.162,0,0,0-.286-.449,4.952,4.952,0,0,0,1.826-1.972Zm.24,4.905a2.9,2.9,0,0,0,1.609,1.686,2.1,2.1,0,0,0-.364.456,3.293,3.293,0,0,1-1.64-1.864,3.207,3.207,0,0,1-1.818,1.872,1.982,1.982,0,0,0-.363-.4,2.883,2.883,0,0,0,1.716-1.748h-1.275v-1.9h1.423v-.611h-.921V140.1h2.391v.472H373.1v.611h1.469v1.9Zm-.758-.442a5.118,5.118,0,0,0,.046-.757v-.256h-.937v1.013Zm.557-1.013v.263a6.079,6.079,0,0,1-.039.75h1v-1.013Z"/><path class="cls-5" d="M376.2,139.525c.5-.054,1.965-.2,3.389-.317.843-.069,1.57-.116,2.088-.14v.62a6.428,6.428,0,0,0-1.516.124,2.721,2.721,0,0,0-1.771,2.452c0,1.508,1.408,1.988,2.669,2.035l-.225.641c-1.431-.053-3.063-.82-3.063-2.544a3.141,3.141,0,0,1,1.447-2.616c-.828.093-2.8.279-3.637.457l-.069-.674C375.8,139.556,376.049,139.541,376.2,139.525Zm5,2.19-.394.185a7.281,7.281,0,0,0-.635-1.09l.4-.17A9.309,9.309,0,0,1,381.193,141.715Zm.881-.333-.4.193a7.191,7.191,0,0,0-.65-1.083l.38-.178A10.089,10.089,0,0,1,382.074,141.382Z"/><path class="cls-5" d="M385.691,139.936h-3.048v-.473h3.048Zm-.309,4.866H383.51v.355H383v-2.592h2.383Zm-2.375-4.294h2.4v.456h-2.4Zm0,1.021h2.4v.464h-2.4Zm2.4-2.615h-2.36v-.464h2.36Zm-1.895,4.123v1.3h1.353v-1.3Zm6.289-1.663h-1.733v3.868h-.572v-3.868h-1.81v-.564h1.81V138.2h.572v2.608H389.8Z"/><path class="cls-5" d="M390.7,140.322a5,5,0,0,1,1.268.712l-.324.472a5.518,5.518,0,0,0-1.269-.766Zm.9,2.066.465.3c-.288.805-.674,1.749-1.006,2.46l-.519-.309A21.927,21.927,0,0,0,391.6,142.388Zm-.557-4.123a5.07,5.07,0,0,1,1.223.781l-.341.456a5.287,5.287,0,0,0-1.214-.828Zm2.3,5.4a5.327,5.327,0,0,1-1.114,1.6,4.049,4.049,0,0,0-.45-.318,4.14,4.14,0,0,0,1.03-1.424Zm1.385-5.137v4.835h-2.236v-4.835Zm-1.742,1.454h1.223v-.943h-1.223Zm0,1.432h1.223v-.952h-1.223Zm0,1.446h1.223v-.966h-1.223Zm1.3.643a9.067,9.067,0,0,1,.881,1.184l-.456.286a9.034,9.034,0,0,0-.858-1.231Zm1.531-4.526v4.394h-.51v-4.394Zm1.354-.789v6.335c0,.357-.085.519-.3.612a3.609,3.609,0,0,1-1.214.108,2.067,2.067,0,0,0-.171-.541c.457.015.867.007.983,0,.132,0,.185-.039.185-.171v-6.343Z"/><path class="cls-5" d="M399.755,139.409c-.038.874-.093,2.7-.093,3.853,0,.85.534,1.152,1.269,1.152a3.222,3.222,0,0,0,2.769-1.6l.442.526a3.892,3.892,0,0,1-3.234,1.71c-1.114,0-1.881-.464-1.881-1.726,0-1.144.078-3.1.078-3.914a4.041,4.041,0,0,0-.062-.789l.781.008A6.862,6.862,0,0,0,399.755,139.409Z"/><path class="cls-5" d="M407.418,139.185c-.031.163-.07.364-.116.572a11.428,11.428,0,0,0,1.485-.278v.611a14.878,14.878,0,0,1-1.609.263c-.07.34-.155.7-.247,1.037a23.817,23.817,0,0,1-1.207,3.543l-.681-.232a16.874,16.874,0,0,0,1.3-3.459c.069-.255.138-.549.2-.827-.256.016-.5.023-.712.023-.341,0-.619-.015-.9-.031l-.024-.6a6.9,6.9,0,0,0,.929.053c.255,0,.533-.014.835-.038.054-.27.093-.518.116-.673a3.05,3.05,0,0,0,.023-.642l.743.061C407.511,138.736,407.448,139.03,407.418,139.185Zm.92,4.317c0,.363.2.719,1.308.719a7.41,7.41,0,0,0,1.508-.155l-.023.627a10.248,10.248,0,0,1-1.493.109c-1.222,0-1.888-.372-1.888-1.138a4.908,4.908,0,0,1,.116-.913l.58.055A2.759,2.759,0,0,0,408.338,143.5Zm1.362-2.647a12.23,12.23,0,0,1,1.338.071l-.016.588a9.616,9.616,0,0,0-1.3-.093,12.522,12.522,0,0,0-1.44.077v-.572C408.694,140.887,409.205,140.855,409.7,140.855Z"/><path class="cls-5" d="M415.815,141.011h-3.752v-.5h.9V139.6h-.774v-.488h.774v-.858h.525v.858h1v-.858h.535v.858h.781v.488h-.781v.913h.8Zm-.449,3.635c0,.279-.053.418-.247.5a2.754,2.754,0,0,1-.968.085,1.635,1.635,0,0,0-.162-.479c.341.016.635.008.72.008s.124-.039.124-.124v-.689h-1.687v1.3h-.534v-3.729h2.754Zm-2.22-2.668v.542h1.687v-.542Zm1.687,1.524v-.542h-1.687v.542Zm-1.347-2.986h1V139.6h-1Zm5.121-.365a9.172,9.172,0,0,1-.9,3.1,3.852,3.852,0,0,0,1.477,1.509,2.1,2.1,0,0,0-.41.487,4.086,4.086,0,0,1-1.392-1.462,4.983,4.983,0,0,1-1.649,1.47,1.918,1.918,0,0,0-.34-.487,4.075,4.075,0,0,0,1.687-1.541,11.409,11.409,0,0,1-.681-2.142,5.54,5.54,0,0,1-.5.959,3.245,3.245,0,0,0-.394-.472,8.778,8.778,0,0,0,1.075-3.4l.557.086c-.078.456-.163.912-.271,1.345h2.251v.541Zm-1.894.055a10.264,10.264,0,0,0,.7,2.437,9.4,9.4,0,0,0,.642-2.492h-1.323Z"/><path class="cls-5" d="M422.116,140.33h1.7v.525h-1.7v1.292h1.393v2.9h-.565v-.286h-2.205v.333H420.2v-2.949h1.354v-1.292H419.8v-.525h1.756v-1.169c-.488.078-1,.14-1.47.187a1.73,1.73,0,0,0-.163-.465,16.931,16.931,0,0,0,3.3-.634l.441.433a10,10,0,0,1-1.548.379Zm.828,2.336h-2.205v1.578h2.205Zm3.04,1.941c.287,0,.333-.294.371-1.446a1.531,1.531,0,0,0,.519.255c-.061,1.277-.2,1.718-.843,1.718h-1.013c-.651,0-.836-.209-.836-.99v-5.873h.565v5.88c0,.387.054.456.332.456Z"/><path class="cls-5" d="M433.679,144.693c.3,0,.355-.193.394-1.3a1.623,1.623,0,0,0,.526.254c-.07,1.247-.224,1.579-.874,1.579H432.61c-.68,0-.874-.186-.874-.835V141.66h-1.423c-.147,1.687-.534,2.947-2.46,3.582a1.787,1.787,0,0,0-.356-.487c1.8-.542,2.089-1.633,2.213-3.095h-2.059v-.549h3.111v-2.932h.572v2.932h3.18v.549h-2.2v2.724c0,.255.063.309.357.309Zm-4.472-4.023a8.348,8.348,0,0,0-.913-1.918l.519-.193a7.532,7.532,0,0,1,.935,1.894Zm4.719-1.981a16.338,16.338,0,0,1-1.075,1.957l-.48-.193a11.535,11.535,0,0,0,.975-1.98Z"/><path class="cls-5" d="M438.138,140.934c.727-.442,1.563-.852,1.988-1.083a4.228,4.228,0,0,0,.55-.365l.34.55c-.178.109-.371.209-.6.324a26.26,26.26,0,0,0-2.352,1.285c-.719.464-1.152.975-1.152,1.563,0,.642.611,1.044,1.833,1.044a11.5,11.5,0,0,0,2.476-.263v.689a15.308,15.308,0,0,1-2.445.193c-1.454,0-2.507-.433-2.507-1.594a2.531,2.531,0,0,1,1.339-2,26.028,26.028,0,0,1-1.122-2.382l.612-.255A16.761,16.761,0,0,0,438.138,140.934Z"/><path class="cls-5" d="M445.684,144.9l-.364-.574a5.482,5.482,0,0,0,.665-.1,2.335,2.335,0,0,0,1.965-2.3,2.154,2.154,0,0,0-2.065-2.244,15.25,15.25,0,0,1-.464,2.228c-.472,1.594-1.083,2.405-1.8,2.405-.688,0-1.377-.789-1.377-2.065a3.3,3.3,0,0,1,3.381-3.148,2.8,2.8,0,0,1,2.963,2.846C448.585,143.571,447.518,144.654,445.684,144.9Zm-2.042-1.292c.363,0,.773-.519,1.168-1.827a12.654,12.654,0,0,0,.433-2.088,2.7,2.7,0,0,0-2.4,2.506C442.845,143.169,443.293,143.6,443.642,143.6Z"/><path class="cls-5" d="M452.093,139.936h-2.622v-.473h2.622Zm-.217,4.858h-1.6v.363h-.487v-2.592h2.088Zm-2.081-4.286h2.081v.456H449.8Zm0,1.021h2.081v.464H449.8Zm2.051-2.615h-2v-.464h2Zm-1.571,4.123v1.292h1.114v-1.292Zm3.682.643a6.709,6.709,0,0,1-1.562,1.57,5.145,5.145,0,0,0-.418-.379,5.347,5.347,0,0,0,1.455-1.462Zm2.615-.41h-4.4v-.527h3.2v-.959h-2.336v.387h-.526v-3.156h.526v2.266h2.893v1.462h.642Zm-.4-2.592h-2.537V138.4h2.537Zm-.534-1.787h-1.492v1.3h1.492Zm-.371,4.548a9.061,9.061,0,0,1,1.339,1.517l-.5.294a8.619,8.619,0,0,0-1.308-1.555Z"/><path class="cls-5" d="M464.158,141.591v.518h-4.635a5.5,5.5,0,0,1-1.833,3.141,3.577,3.577,0,0,0-.479-.4,4.515,4.515,0,0,0,1.7-2.739h-1.571v-.518h3.11v-.7h-2.39V140.4h2.39v-.672H457.69v-.511h1.571a4.525,4.525,0,0,0-.519-.813l.487-.2a3.716,3.716,0,0,1,.62.959l-.117.055h1.989l-.062-.024a6.9,6.9,0,0,0,.565-1.021l.6.171c-.185.309-.394.626-.58.874h1.624v.511h-2.839v.672h2.452v.488h-2.452v.7Zm-2.507,2.955H464v.511h-5.23v-.511h2.29v-1.354h-1.554v-.5h3.983v.5h-1.841Z"/><path class="cls-5" d="M346.544,239.342c-.139,3.6-.278,4.865-.627,5.267a.851.851,0,0,1-.681.341,11.6,11.6,0,0,1-1.345-.023,1.41,1.41,0,0,0-.2-.6,12.482,12.482,0,0,0,1.331.063.425.425,0,0,0,.364-.124c.294-.287.433-1.525.564-4.681h-4.3a8.623,8.623,0,0,1-1.377,2,4.336,4.336,0,0,0-.541-.4,7.755,7.755,0,0,0,1.949-3.311l.619.155a10.342,10.342,0,0,1-.379.99h4.626Zm-2.15,4.471a3.4,3.4,0,0,0-.209-.518c-1.409.115-2.863.224-3.853.3l-.07-.588c.279-.016.6-.031.952-.055a19.559,19.559,0,0,0,1.021-2.854l.626.162c-.294.859-.688,1.887-1.044,2.661.658-.046,1.377-.093,2.1-.147a10.164,10.164,0,0,0-.773-1.153l.479-.185a8.238,8.238,0,0,1,1.292,2.166Z"/><path class="cls-5" d="M347.624,238.173h3.442v.518h-1.045v.9h.867V244.8h-.472v-.425h-2.135v.533h-.464v-5.322h.92v-.9h-1.113Zm.657,1.9v2.608h2.135v-.72a.279.279,0,0,1-.085.008h-.372c-.3,0-.394-.077-.394-.449v-1.447h-.433v.619a2.02,2.02,0,0,1-.588,1.524,1.137,1.137,0,0,0-.255-.224,1.639,1.639,0,0,0,.526-1.307v-.612Zm2.135,3.837v-.8h-2.135v.8Zm-.812-5.222h-.457v.9h.457Zm.812,1.385h-.526v1.447c0,.1.008.108.109.108h.278c.077,0,.1,0,.108-.023l.031.023Zm3.234,4.239c.34,0,.4-.193.441-1.306a1.69,1.69,0,0,0,.534.247c-.078,1.253-.24,1.6-.944,1.6H352.4c-.711,0-.928-.177-.928-.881v-3.335h2.305v-1.865h-2.335v-.556h2.9v3.489h-.565v-.519h-1.74v2.786c0,.286.07.339.425.339Z"/><path class="cls-5" d="M356.252,239.558a.564.564,0,0,1,.58-.58.581.581,0,1,1-.58.58Zm0,3.791a.571.571,0,0,1,.58-.588.584.584,0,1,1,0,1.168A.569.569,0,0,1,356.252,243.349Z"/><path class="cls-5" d="M364.119,241.778l-.812.255v2.205c0,.325-.07.488-.263.588a2.583,2.583,0,0,1-1.022.1,2.29,2.29,0,0,0-.169-.549c.348.016.665.016.765.008s.132-.032.132-.148V242.2l-1.037.317-.131-.557c.316-.077.727-.193,1.168-.325v-1.687h-1.037v-.525h1.037v-1.548h.557v1.548h.75v.525h-.75v1.525l.742-.217Zm4.626,2.754h-3.5v.395H364.7v-4.464a5.709,5.709,0,0,1-.572.735,4.3,4.3,0,0,0-.387-.479,6.817,6.817,0,0,0,1.531-2.856l.55.14a10.735,10.735,0,0,1-.5,1.323h1.184a10.643,10.643,0,0,0,.525-1.431l.6.139c-.17.425-.379.9-.565,1.292h1.539v.518h-1.578v1.037h1.393v.5h-1.393v1.052h1.393v.5h-1.393v1.075h1.71Zm-2.235-4.688h-1.262v1.037h1.262Zm0,1.532h-1.262v1.052h1.262Zm-1.262,2.63h1.262v-1.075h-1.262Z"/><path class="cls-5" d="M373.236,244.169a7.127,7.127,0,0,0,1.254.093c.278,0,1.609,0,1.981-.008a1.674,1.674,0,0,0-.217.58h-1.8c-1.6,0-2.754-.278-3.459-1.586a4.236,4.236,0,0,1-1.152,1.726,2.95,2.95,0,0,0-.472-.387,4.476,4.476,0,0,0,1.446-3.149l.588.054a9.536,9.536,0,0,1-.185,1.029,2.327,2.327,0,0,0,1.423,1.493v-3.242H370.73v-.541h4.479v.541h-1.973v1.285h2.29v.534h-2.29Zm-2.931-3.736h-.565v-1.672h2.9v-.882h.595v.882h2.924v1.672h-.588V239.3h-5.267Z"/><path class="cls-5" d="M380.52,241.415v3.52h-.557v-3.52h-1.254a5.209,5.209,0,0,1-1.145,3.574,1.856,1.856,0,0,0-.433-.387,4.629,4.629,0,0,0,1.037-3.187h-1v-.534h1.006v-1.988h-.89v-.541h3.961v.541h-.727v1.988h.835v.534Zm-.557-.534v-1.988h-1.246v1.988Zm4.324,1.524a6.856,6.856,0,0,1-2.939,2.53,2.464,2.464,0,0,0-.4-.456,6.115,6.115,0,0,0,2.8-2.283Zm-.4-4.177a7.666,7.666,0,0,1-2.2,1.817,2.578,2.578,0,0,0-.418-.4,6.559,6.559,0,0,0,2.09-1.64Zm.217,2.111a8.636,8.636,0,0,1-2.352,1.95,2.927,2.927,0,0,0-.4-.41,7.261,7.261,0,0,0,2.228-1.764Z"/><path class="cls-5" d="M386.488,237.863h.565v7.064h-.565v-2.839c-.457.44-.927.882-1.322,1.237l-.326-.487c.41-.332,1.053-.882,1.648-1.446Zm-.549,2.724a8.588,8.588,0,0,0-.974-1.432l.448-.278a8.7,8.7,0,0,1,1,1.4Zm3.83.124a5.349,5.349,0,0,0,2.29,3.736,2.2,2.2,0,0,0-.418.48,5.434,5.434,0,0,1-2.143-3.249,5.482,5.482,0,0,1-1.935,3.249,2.788,2.788,0,0,0-.463-.364,5.4,5.4,0,0,0,1.972-3.852h-1.756v-.565h1.8c.008-.163.008-.317.008-.472v-1.787h.565v1.787c0,.155,0,.309-.008.472h2.22v.565Zm1.43-.96a9.848,9.848,0,0,0-.92-1.369l.434-.247a8.693,8.693,0,0,1,.943,1.33Z"/><path class="cls-5" d="M395.543,239.125a18.963,18.963,0,0,0,2.359-.24l-.006.572a22.373,22.373,0,0,1-2.57.217,6.138,6.138,0,0,1-.7,1.2,2.216,2.216,0,0,1,1.074-.286,1,1,0,0,1,1.037.7c.527-.255,1-.441,1.4-.627.232-.1.418-.185.634-.3l.255.581a6.743,6.743,0,0,0-.688.248c-.434.162-.983.386-1.571.665.008.449.016,1.106.024,1.485h-.6c.016-.294.023-.8.023-1.207-.72.38-1.222.789-1.222,1.3,0,.6.6.7,1.4.7a13.773,13.773,0,0,0,2.112-.185l-.016.619a18.251,18.251,0,0,1-2.119.138c-1.107,0-2-.239-2-1.183,0-.912.921-1.486,1.826-1.957a.648.648,0,0,0-.7-.48,2.035,2.035,0,0,0-1.33.565,9.779,9.779,0,0,0-.7.8l-.528-.386a8.118,8.118,0,0,0,1.787-2.368h-.339c-.332,0-.844-.015-1.269-.046v-.58a11.335,11.335,0,0,0,1.308.085c.162,0,.34,0,.509-.007a3.924,3.924,0,0,0,.194-.968l.635.055A8.138,8.138,0,0,1,395.543,239.125Z"/><path class="cls-5" d="M401.667,239.729a4.679,4.679,0,0,1-1.447,1.539,4.136,4.136,0,0,0-.4-.34,3.622,3.622,0,0,0,1.3-1.355Zm3.914,2.428a4.52,4.52,0,0,1-1.647,1.61,9.843,9.843,0,0,0,2.923.657,1.883,1.883,0,0,0-.332.526,8.951,8.951,0,0,1-3.187-.874,11.57,11.57,0,0,1-3.227.882,1.449,1.449,0,0,0-.278-.5,11.781,11.781,0,0,0,2.955-.7,4.615,4.615,0,0,1-1.052-1,7.7,7.7,0,0,1-1.346.743,1.689,1.689,0,0,0-.364-.418,5.454,5.454,0,0,0,2.453-1.733l.619.108a5.332,5.332,0,0,1-.4.472h2.4l.108-.023Zm-3.141-2.986h-2.475v-.525h3.056v-.767h.58v.767H406.7v.525h-2.089v1.7c0,.286-.046.434-.262.526a3.754,3.754,0,0,1-1.076.078,2.078,2.078,0,0,0-.163-.5c.387.007.72.007.821.007s.124-.031.124-.116v-1.694h-1.069v.047a2.685,2.685,0,0,1-1.337,2.553,1.8,1.8,0,0,0-.418-.387,2.252,2.252,0,0,0,1.214-2.174Zm-.3,3.28a3.858,3.858,0,0,0,1.221,1.037,4.27,4.27,0,0,0,1.363-1.083h-2.538Zm3.31-2.908a8.852,8.852,0,0,1,1.377,1.492l-.479.3a8.875,8.875,0,0,0-1.338-1.531Z"/><path class="cls-5" d="M410.884,241.415v3.52h-.558v-3.52h-1.253a5.209,5.209,0,0,1-1.145,3.574,1.876,1.876,0,0,0-.433-.387,4.628,4.628,0,0,0,1.036-3.187h-1v-.534h1.006v-1.988h-.89v-.541h3.961v.541h-.726v1.988h.835v.534Zm-.558-.534v-1.988h-1.245v1.988Zm4.325,1.524a6.859,6.859,0,0,1-2.94,2.53,2.423,2.423,0,0,0-.4-.456,6.112,6.112,0,0,0,2.8-2.283Zm-.4-4.177a7.68,7.68,0,0,1-2.205,1.817,2.578,2.578,0,0,0-.418-.4,6.544,6.544,0,0,0,2.089-1.64Zm.216,2.111a8.621,8.621,0,0,1-2.352,1.95,2.77,2.77,0,0,0-.4-.41,7.249,7.249,0,0,0,2.228-1.764Z"/><path class="cls-5" d="M419.319,238.707c0,.116-.007.294-.007.5h.116c.944,0,1.895.008,2.266.008l-.006.572c-.434-.023-1.138-.039-2.268-.039h-.108c0,.441.007.921.015,1.277a1.875,1.875,0,0,1,.248.991,2.793,2.793,0,0,1-2.313,2.746l-.519-.511a2.687,2.687,0,0,0,2.051-1.369,1.1,1.1,0,0,1-.673.209,1.232,1.232,0,0,1-1.269-1.292,1.351,1.351,0,0,1,1.362-1.347,1.543,1.543,0,0,1,.517.085c0-.231,0-.51-.007-.781-1.176.008-2.491.062-3.458.132l-.016-.6c.859-.016,2.313-.062,3.467-.077,0-.217-.008-.4-.016-.511-.008-.2-.039-.426-.047-.487h.7C419.343,238.305,419.327,238.606,419.319,238.707Zm-1.1,3.853c.457,0,.751-.364.681-1.1a.693.693,0,0,0-.688-.487.789.789,0,0,0-.782.82A.746.746,0,0,0,418.221,242.56Z"/><path class="cls-5" d="M423.958,238.676c.4,0,2.243-.062,2.653-.1a1.816,1.816,0,0,0,.418-.061l.356.448c-.139.1-.294.2-.433.317-.387.294-1.439,1.192-2.043,1.695a3.274,3.274,0,0,1,1.075-.162,1.972,1.972,0,0,1,2.205,1.817c0,1.246-1.021,2.051-2.661,2.051-1.051,0-1.694-.457-1.694-1.1a1.086,1.086,0,0,1,1.191-1.006,1.5,1.5,0,0,1,1.579,1.369,1.358,1.358,0,0,0,.966-1.323c0-.758-.726-1.33-1.732-1.33a3.809,3.809,0,0,0-2.963,1.547l-.441-.456c.642-.527,1.632-1.354,2.081-1.734.433-.355,1.4-1.168,1.8-1.515-.411.015-1.957.085-2.368.108-.17.007-.347.023-.51.046l-.024-.641A4.893,4.893,0,0,0,423.958,238.676Zm1.47,5.462a4.1,4.1,0,0,0,.627-.046,1.057,1.057,0,0,0-1.037-1.053.567.567,0,0,0-.62.5C424.4,243.905,424.824,244.138,425.428,244.138Z"/><path class="cls-5" d="M432.061,240.626c.727-.441,1.563-.852,1.988-1.083a4.3,4.3,0,0,0,.55-.364l.339.55c-.177.108-.371.209-.595.324a25.835,25.835,0,0,0-2.352,1.284c-.72.465-1.152.976-1.152,1.563,0,.642.611,1.044,1.833,1.044a11.548,11.548,0,0,0,2.475-.262v.688a15.168,15.168,0,0,1-2.444.193c-1.454,0-2.507-.433-2.507-1.593a2.529,2.529,0,0,1,1.339-2,26.055,26.055,0,0,1-1.122-2.383l.611-.255A16.767,16.767,0,0,0,432.061,240.626Z"/><path class="cls-5" d="M435.708,243.055l.5-.442a14.626,14.626,0,0,1,1.732,1.718l-.525.449A12.925,12.925,0,0,0,435.708,243.055Z"/><path class="cls-5" d="M364.289,250.378h-2.623v-.473h2.623Zm-.217,4.858h-1.6v.364h-.487v-2.592h2.088Zm-2.08-4.286h2.08v.456h-2.08Zm0,1.022h2.08v.464h-2.08Zm2.049-2.616h-2v-.463h2Zm-1.57,4.123v1.292h1.115v-1.292Zm3.683.643a6.694,6.694,0,0,1-1.563,1.57,5.3,5.3,0,0,0-.417-.379,5.322,5.322,0,0,0,1.453-1.461Zm2.615-.41h-4.4v-.526h3.2v-.959h-2.337v.386h-.525v-3.156h.525v2.267h2.895v1.462h.642Zm-.4-2.592h-2.538v-2.274h2.538Zm-.534-1.787H366.34v1.3h1.492Zm-.371,4.549A8.915,8.915,0,0,1,368.8,255.4l-.5.294a8.616,8.616,0,0,0-1.308-1.554Z"/><path class="cls-5" d="M376.354,252.033v.519h-4.633a5.518,5.518,0,0,1-1.834,3.14,3.69,3.69,0,0,0-.481-.4,4.517,4.517,0,0,0,1.7-2.738h-1.57v-.519h3.109v-.7h-2.39v-.487h2.39v-.673h-2.761v-.511h1.57a4.378,4.378,0,0,0-.519-.812l.488-.2a3.677,3.677,0,0,1,.619.959l-.116.054h1.988l-.062-.023a6.872,6.872,0,0,0,.565-1.022l.6.171a10.437,10.437,0,0,1-.58.874h1.625v.511h-2.839v.673h2.453v.487h-2.453v.7Zm-2.506,2.955H376.2v.511H370.97v-.511h2.29v-1.353h-1.555v-.5h3.984v.5h-1.841Z"/><path class="cls-5" d="M379.994,249.55c-.047.224-.116.68-.2,1.1.363-.031.681-.054.866-.054.7,0,1.261.263,1.261,1.315a7.508,7.508,0,0,1-.448,2.793,1.088,1.088,0,0,1-1.13.642,4.692,4.692,0,0,1-.912-.108l-.1-.65a3.757,3.757,0,0,0,.944.163.645.645,0,0,0,.681-.4,6.536,6.536,0,0,0,.363-2.368c0-.7-.324-.835-.82-.835-.185,0-.494.023-.827.053a15.8,15.8,0,0,1-1.632,4.17l-.627-.255a12.3,12.3,0,0,0,1.633-3.852c-.41.038-.782.077-.982.1-.179.023-.5.062-.7.093l-.069-.665c.247.007.448.007.7,0s.7-.047,1.176-.086a8.626,8.626,0,0,0,.2-1.686l.712.07C380.048,249.232,380.018,249.4,379.994,249.55Zm4.162,3.179-.6.287a9.112,9.112,0,0,0-1.385-2.778l.564-.255A13.209,13.209,0,0,1,384.156,252.729Zm-.689-2.808-.425.185a9.77,9.77,0,0,0-.626-1.075l.417-.17A10.914,10.914,0,0,1,383.467,249.921Zm.867-.317-.418.186a8.59,8.59,0,0,0-.643-1.068l.411-.178A10.876,10.876,0,0,1,384.334,249.6Z"/><path class="cls-5" d="M387.518,251.477c.679-.411,1.384-.751,1.81-.991a4.84,4.84,0,0,0,.549-.364l.309.566c-.17.1-.364.2-.588.316a22.592,22.592,0,0,0-2.143,1.184c-.719.464-1.152.975-1.152,1.563,0,.642.611,1.044,1.834,1.044a11.484,11.484,0,0,0,2.474-.263l-.007.689a14.35,14.35,0,0,1-2.445.193c-1.454,0-2.5-.434-2.5-1.594a2.491,2.491,0,0,1,1.339-2c-.356-.641-.767-1.546-1.13-2.382l.611-.255A17.775,17.775,0,0,0,387.518,251.477Zm3.434-1.308-.418.185a7.989,7.989,0,0,0-.634-1.075l.418-.177A11.033,11.033,0,0,1,390.952,250.169Zm.866-.325-.41.185a8.007,8.007,0,0,0-.649-1.067l.409-.17A8.828,8.828,0,0,1,391.818,249.844Z"/><path class="cls-5" d="M395.574,255.337l-.363-.573a5.768,5.768,0,0,0,.665-.1,2.336,2.336,0,0,0,1.965-2.3,2.154,2.154,0,0,0-2.066-2.244,15.235,15.235,0,0,1-.464,2.229c-.471,1.593-1.082,2.405-1.8,2.405-.688,0-1.377-.789-1.377-2.066a3.3,3.3,0,0,1,3.381-3.148,2.8,2.8,0,0,1,2.964,2.847C398.476,254.014,397.407,255.1,395.574,255.337Zm-2.043-1.292c.365,0,.774-.519,1.168-1.826a12.564,12.564,0,0,0,.434-2.089,2.7,2.7,0,0,0-2.4,2.507C392.734,253.611,393.184,254.045,393.531,254.045Z"/><path class="cls-5" d="M401.96,253.317a8.774,8.774,0,0,0-.7-.959v3.311H400.7V252.25a8.18,8.18,0,0,1-1.121,2.026,2.7,2.7,0,0,0-.287-.525,7.975,7.975,0,0,0,1.331-2.422h-1.184v-.541H400.7v-1.177c-.379.078-.773.14-1.129.194a2.172,2.172,0,0,0-.178-.449,11.287,11.287,0,0,0,2.445-.619l.4.434a6.332,6.332,0,0,1-.982.309v1.308h.967v.541h-.967v.472c.239.2.9.882,1.052,1.06Zm4.5,1.648v.518h-4.48v-.518h2.028v-1h-1.5v-.5h1.5v-.92h-1.679v-.511h3.961v.511h-1.71v.92h1.539v.5h-1.539v1Zm-.434-3.6h-3.411v-2.414h3.411Zm-.564-1.911h-2.32v1.416h2.32Z"/><path class="cls-5" d="M408.276,249.913V251.6a8.913,8.913,0,0,1-.758,4.1,2.26,2.26,0,0,0-.472-.325,7.938,7.938,0,0,0,.688-3.775v-2.212h2.84v-.759h.588v.759h2.886v.525Zm5.191,3.273a3.819,3.819,0,0,1-1.555,1.54,9.877,9.877,0,0,0,2.275.487,1.7,1.7,0,0,0-.333.487,8.874,8.874,0,0,1-2.545-.68,10.585,10.585,0,0,1-2.723.665,2,2,0,0,0-.24-.48,10.51,10.51,0,0,0,2.383-.5,3.879,3.879,0,0,1-1.215-1.106l.309-.117h-1.191v-.471H413l.1-.024Zm-3.7-.658v-1.276h-1.231v-.472h1.231v-.674h.548v.674h1.872v-.674h.558v.674h1.245v.472h-1.245v1.276Zm.293.959a3.461,3.461,0,0,0,1.253.983,3.544,3.544,0,0,0,1.308-.983Zm.255-2.235v.812h1.872v-.812Z"/><path class="cls-5" d="M416.109,251.948a5.674,5.674,0,0,0-1.276-.765l.325-.418a5.288,5.288,0,0,1,1.284.718Zm.387,1.021c-.294.844-.688,1.842-1.021,2.576l-.518-.309a25.434,25.434,0,0,0,1.083-2.561Zm-.039-3.048a5.586,5.586,0,0,0-1.253-.813l.325-.409a4.98,4.98,0,0,1,1.269.774Zm5.238,1.23a8.882,8.882,0,0,1-1.013,2.63c.17.759.386,1.215.626,1.231.139.008.248-.426.3-1.192a1.346,1.346,0,0,0,.418.286c-.146,1.253-.425,1.586-.719,1.579-.456-.016-.789-.5-1.029-1.324a5.624,5.624,0,0,1-1.369,1.27c-.086-.093-.286-.287-.394-.387a4.961,4.961,0,0,0,1.608-1.516,23.434,23.434,0,0,1-.371-3.358h-2.328v1.547a7.064,7.064,0,0,1-.844,3.783,2.189,2.189,0,0,0-.433-.3,6.33,6.33,0,0,0,.758-3.481v-2.058h2.823c-.014-.379-.03-.765-.038-1.16h.518c.008.395.023.781.039,1.16h1.57v.511h-1.547c.054.99.147,1.9.263,2.646a8.457,8.457,0,0,0,.658-1.957Zm-2.112.279h-1.834v-.449h1.834Zm-1.385,2.676v.464h-.4v-2.537h1.756v2.073Zm0-1.625v1.184h.936v-1.184Zm3.265-2.661a4.726,4.726,0,0,0-1.022-.866l.326-.294a4.415,4.415,0,0,1,1.028.828Z"/><path class="cls-5" d="M424.755,249.751a8.718,8.718,0,0,1-1.671,2.716,2.717,2.717,0,0,0-.5-.341,6.839,6.839,0,0,0,1.547-2.529Zm3.837,2.321c-.72,2.158-2.282,3.187-5.137,3.628a1.926,1.926,0,0,0-.3-.556c2.723-.357,4.194-1.285,4.851-3.258Zm-2.182-3.435v3.9c0,.356-.085.519-.341.619a4.2,4.2,0,0,1-1.322.109,1.984,1.984,0,0,0-.209-.589c.511.015.983.008,1.114.008s.178-.038.178-.155v-3.891Zm1.6.889a12.013,12.013,0,0,1,1.686,2.531l-.572.309a10.89,10.89,0,0,0-1.633-2.576Z"/><path class="cls-5" d="M434.166,249.473c0,.1-.008.27-.008.471a19.087,19.087,0,0,0,2.1-.209l-.008.565c-.611.07-1.347.139-2.089.179v1.083a19.578,19.578,0,0,0,2.158-.209l-.007.58c-.728.092-1.409.154-2.143.177.016.4.038.821.054,1.192a6.158,6.158,0,0,1,2.259,1.207l-.356.549a5.709,5.709,0,0,0-1.872-1.168c.008.193.016.356.016.479,0,.534-.357,1.083-1.363,1.083-1.113,0-1.716-.394-1.716-1.137,0-.7.672-1.183,1.787-1.183a4.427,4.427,0,0,1,.649.046c-.008-.348-.023-.719-.031-1.052h-.441c-.526,0-1.377-.047-1.934-.108l-.007-.58a14.43,14.43,0,0,0,1.949.146h.418V250.5h-.341c-.541,0-1.493-.077-1.98-.131l-.008-.572a14.031,14.031,0,0,0,1.98.17h.357v-.55a4.385,4.385,0,0,0-.031-.464h.657A3.809,3.809,0,0,0,434.166,249.473Zm-1.331,5.438c.441,0,.82-.14.82-.673,0-.132-.008-.317-.008-.518a3.379,3.379,0,0,0-.75-.077c-.735,0-1.137.286-1.137.641S432.069,254.911,432.835,254.911Z"/><path class="cls-5" d="M440.211,249.627c-.031.163-.07.364-.116.572a11.262,11.262,0,0,0,1.485-.278v.611a14.878,14.878,0,0,1-1.609.263c-.07.341-.155.7-.247,1.037a23.778,23.778,0,0,1-1.207,3.543l-.681-.231a16.9,16.9,0,0,0,1.3-3.459c.069-.255.138-.549.2-.828-.256.016-.5.024-.712.024-.341,0-.619-.016-.9-.031l-.024-.6a6.909,6.909,0,0,0,.929.054c.255,0,.533-.015.835-.038.054-.271.093-.519.116-.673a3.061,3.061,0,0,0,.023-.643l.743.062C440.3,249.179,440.241,249.473,440.211,249.627Zm.92,4.317c0,.364.2.719,1.307.719a7.484,7.484,0,0,0,1.509-.154l-.023.627a10.4,10.4,0,0,1-1.493.108c-1.222,0-1.888-.372-1.888-1.138a4.929,4.929,0,0,1,.116-.913l.58.055A2.759,2.759,0,0,0,441.131,253.944Zm1.362-2.646a12.236,12.236,0,0,1,1.338.07l-.016.588a9.616,9.616,0,0,0-1.3-.093,12.751,12.751,0,0,0-1.44.077v-.572C441.487,251.329,442,251.3,442.493,251.3Z"/><path class="cls-5" d="M446.357,249.712a19.282,19.282,0,0,0-.386,3.118,7.144,7.144,0,0,0,.078,1.075c.123-.347.308-.82.44-1.136l.318.247c-.186.542-.472,1.331-.55,1.71a1.37,1.37,0,0,0-.03.347c0,.077.007.186.015.271l-.542.039a9.379,9.379,0,0,1-.294-2.445,22.922,22.922,0,0,1,.356-3.256,4.714,4.714,0,0,0,.047-.55l.68.055A4.156,4.156,0,0,0,446.357,249.712Zm3.908-.108c-.008.209-.016.573-.024.936a13.264,13.264,0,0,0,1.339-.178v.6c-.426.069-.875.116-1.339.146.008.782.063,1.556.093,2.206a5.093,5.093,0,0,1,1.532,1l-.341.518a6.217,6.217,0,0,0-1.168-.9v.162c0,.635-.294,1.246-1.337,1.246s-1.61-.41-1.61-1.107c0-.65.58-1.167,1.594-1.167a3.5,3.5,0,0,1,.719.069c-.023-.6-.07-1.354-.077-1.988-.248.007-.5.015-.743.015-.441,0-.843-.023-1.3-.055v-.58c.44.039.85.063,1.315.063.239,0,.487-.008.727-.016v-.96c0-.131-.016-.34-.031-.471h.7A4.555,4.555,0,0,0,450.265,249.6Zm-1.354,5.175c.65,0,.843-.332.843-.842,0-.078,0-.171-.008-.272a2.643,2.643,0,0,0-.789-.123c-.58,0-.99.247-.99.626C447.967,254.563,448.354,254.779,448.911,254.779Z"/><path class="cls-5" d="M454.12,253.294c.294-.108.6-.225.9-.34l.108.533c-.82.333-1.7.681-2.375.945l-.209-.58c.286-.093.65-.217,1.045-.365v-2.444h-.9V250.5h.9v-1.787h.533V250.5h.828v.542h-.828Zm5.284-3.59v2.615H455.2V249.7h.9a5.083,5.083,0,0,0-.5-.9l.487-.171a4.384,4.384,0,0,1,.581.974l-.224.093h1.616l-.186-.061a6.285,6.285,0,0,0,.534-1.037l.581.17a8.531,8.531,0,0,1-.588.928Zm-3.868,3.079h3.605v2.878h-.557V255.4h-2.515v.287h-.533Zm.186-1.988h1.284v-.642h-1.284Zm0,1.076h1.284v-.65h-1.284Zm.347,1.385v.6h2.515v-.6Zm2.515,1.671v-.635h-2.515v.635Zm.286-4.774h-1.338v.642h1.338Zm0,1.068h-1.338v.65h1.338Z"/><path class="cls-5" d="M464.344,251.422a5.644,5.644,0,0,0,3.04,3.714,2.972,2.972,0,0,0-.433.541,6.246,6.246,0,0,1-3.079-3.829,5.415,5.415,0,0,1-3.087,3.829,1.646,1.646,0,0,0-.433-.472,5.021,5.021,0,0,0,3.009-3.783h-2.854v-.588h2.947a16.367,16.367,0,0,0,.116-2.2h.619a17.69,17.69,0,0,1-.124,2.2h3.2v.588Z"/><path class="cls-5" d="M472.13,249.457c0,.116-.008.294-.008.5h.116c.945,0,1.9.008,2.267.008l-.007.572c-.434-.023-1.138-.039-2.268-.039h-.108c0,.441.008.921.016,1.277a1.875,1.875,0,0,1,.248.991,2.793,2.793,0,0,1-2.314,2.746l-.518-.511a2.683,2.683,0,0,0,2.05-1.369,1.1,1.1,0,0,1-.672.209,1.232,1.232,0,0,1-1.27-1.292,1.351,1.351,0,0,1,1.362-1.347,1.545,1.545,0,0,1,.518.085c0-.231,0-.51-.008-.781-1.176.008-2.49.062-3.458.132l-.015-.6c.859-.016,2.313-.062,3.466-.077,0-.217-.007-.4-.015-.511-.008-.2-.039-.426-.047-.487h.7C472.153,249.055,472.138,249.356,472.13,249.457Zm-1.1,3.853c.457,0,.751-.364.682-1.1a.694.694,0,0,0-.689-.487.789.789,0,0,0-.782.82A.746.746,0,0,0,471.031,253.31Z"/><path class="cls-5" d="M476.768,249.426c.4,0,2.243-.062,2.653-.1a1.826,1.826,0,0,0,.418-.061l.355.448c-.138.1-.294.2-.432.317-.387.294-1.44,1.192-2.043,1.695a3.266,3.266,0,0,1,1.075-.162A1.973,1.973,0,0,1,481,253.379c0,1.246-1.021,2.051-2.661,2.051-1.052,0-1.694-.457-1.694-1.1a1.086,1.086,0,0,1,1.191-1.006,1.5,1.5,0,0,1,1.578,1.369,1.358,1.358,0,0,0,.967-1.323c0-.758-.727-1.33-1.733-1.33a3.807,3.807,0,0,0-2.962,1.547l-.442-.456c.643-.527,1.633-1.354,2.081-1.734.434-.355,1.4-1.168,1.8-1.515-.41.015-1.957.085-2.367.108-.17.007-.348.023-.511.046l-.023-.641A4.868,4.868,0,0,0,476.768,249.426Zm1.469,5.462a4.085,4.085,0,0,0,.627-.046,1.055,1.055,0,0,0-1.037-1.053.566.566,0,0,0-.619.5C477.208,254.655,477.634,254.888,478.237,254.888Z"/><path class="cls-5" d="M484.849,249.519c-.047.224-.117.68-.2,1.106.364-.031.689-.054.874-.054.689,0,1.253.263,1.253,1.308a7.347,7.347,0,0,1-.448,2.792,1.091,1.091,0,0,1-1.13.65,4.2,4.2,0,0,1-.913-.116l-.1-.642a3.793,3.793,0,0,0,.952.155.64.64,0,0,0,.673-.395,6.544,6.544,0,0,0,.371-2.367c0-.712-.332-.844-.82-.844-.186,0-.5.024-.836.055a15.905,15.905,0,0,1-1.625,4.17l-.633-.248a12.354,12.354,0,0,0,1.631-3.86c-.41.039-.781.084-.982.108-.178.023-.5.061-.7.093l-.062-.673a6.884,6.884,0,0,0,.689,0c.255-.008.712-.047,1.176-.085a8.081,8.081,0,0,0,.2-1.687l.719.078C484.91,249.2,484.879,249.372,484.849,249.519Zm4.17,3.133-.6.286a9.115,9.115,0,0,0-1.377-2.8l.565-.255A13.836,13.836,0,0,1,489.019,252.652Z"/><path class="cls-5" d="M345.049,287.458l-2.553,2.554,2.553,2.552-.225.225-2.553-2.554-2.56,2.562-.225-.225,2.561-2.56-2.553-2.554.224-.224,2.553,2.553,2.553-2.553Zm-4.983,3.134a.58.58,0,1,1,.581-.58A.586.586,0,0,1,340.066,290.592Zm1.625-2.785a.581.581,0,1,1,.58.58A.584.584,0,0,1,341.691,287.807Zm1.161,4.409a.581.581,0,1,1-.581-.58A.586.586,0,0,1,342.852,292.216Zm1.624-2.784a.58.58,0,1,1-.58.58A.585.585,0,0,1,344.476,289.432Z"/><path class="cls-5" d="M350.5,289.276a5.637,5.637,0,0,0,3.04,3.714,2.972,2.972,0,0,0-.433.541,6.246,6.246,0,0,1-3.079-3.829,5.411,5.411,0,0,1-3.087,3.829,1.655,1.655,0,0,0-.433-.471,5.026,5.026,0,0,0,3.01-3.784h-2.855v-.588h2.947a16.351,16.351,0,0,0,.116-2.2h.619a18.057,18.057,0,0,1-.123,2.2h3.194v.588Z"/><path class="cls-5" d="M357.2,286.862l.657-.085a5.9,5.9,0,0,0,.186.921,8.6,8.6,0,0,0,1.586-.347l.085.556a11.28,11.28,0,0,1-1.524.31c.054.193.116.371.17.533s.116.31.178.465a8.5,8.5,0,0,0,1.547-.333l.094.58a11.974,11.974,0,0,1-1.4.278,7.628,7.628,0,0,0,.541.96,2.424,2.424,0,0,0,.286.332l-.316.473a14.188,14.188,0,0,0-1.695-.248l.054-.472c.411.046.913.1,1.161.132a8.181,8.181,0,0,1-.6-1.114,22.554,22.554,0,0,1-3.4.015l-.03-.58a17.343,17.343,0,0,0,3.21.038c-.054-.138-.108-.27-.155-.4q-.115-.326-.209-.6a18.608,18.608,0,0,1-2.661-.054l-.038-.565a15.6,15.6,0,0,0,2.552.093,1.794,1.794,0,0,1-.053-.193C357.354,287.319,357.276,287.079,357.2,286.862Zm-1.633,4.913c0,.642.573.959,1.788.959a8.766,8.766,0,0,0,1.841-.162l-.024.619a11.768,11.768,0,0,1-1.81.131c-1.516,0-2.367-.448-2.375-1.438a2.259,2.259,0,0,1,.3-1.107l.6.124A1.5,1.5,0,0,0,355.566,291.775Z"/><path class="cls-5" d="M364.505,287.683c-.526.464-1.64,1.346-2.213,1.826-.464.394-.472.518.023.935.7.574,2.074,1.679,2.894,2.5l-.549.511c-.163-.185-.341-.379-.535-.564-.541-.558-1.717-1.564-2.436-2.16-.735-.61-.642-.943.054-1.531.58-.487,1.756-1.416,2.282-1.949a3.753,3.753,0,0,0,.442-.519l.572.511C364.876,287.373,364.637,287.574,364.505,287.683Z"/><path class="cls-5" d="M368.2,288.333a4.645,4.645,0,0,1-1.446,1.539,4.017,4.017,0,0,0-.395-.34,3.611,3.611,0,0,0,1.3-1.354Zm3.915,2.429a4.509,4.509,0,0,1-1.647,1.609,9.8,9.8,0,0,0,2.924.657,1.873,1.873,0,0,0-.332.527,8.951,8.951,0,0,1-3.188-.874,11.607,11.607,0,0,1-3.226.882,1.451,1.451,0,0,0-.279-.5,11.737,11.737,0,0,0,2.955-.7,4.63,4.63,0,0,1-1.051-1,7.672,7.672,0,0,1-1.346.744,1.713,1.713,0,0,0-.364-.418,5.449,5.449,0,0,0,2.452-1.734l.619.109a5.481,5.481,0,0,1-.4.471h2.4l.108-.022Zm-3.14-2.987H366.5v-.525h3.056v-.767h.58v.767h3.095v.525h-2.089v1.7c0,.286-.046.433-.263.526a3.8,3.8,0,0,1-1.076.077,2.148,2.148,0,0,0-.162-.5c.386.008.719.008.82.008s.123-.031.123-.116v-1.7h-1.066v.047a2.686,2.686,0,0,1-1.339,2.553,1.8,1.8,0,0,0-.418-.387,2.252,2.252,0,0,0,1.215-2.174Zm-.3,3.281a3.857,3.857,0,0,0,1.223,1.037,4.3,4.3,0,0,0,1.361-1.083h-2.537Zm3.31-2.909a8.81,8.81,0,0,1,1.377,1.493l-.478.3a8.966,8.966,0,0,0-1.339-1.531Z"/><path class="cls-5" d="M377.416,290.02v3.519h-.557V290.02h-1.254a5.214,5.214,0,0,1-1.144,3.574,1.927,1.927,0,0,0-.434-.388,4.626,4.626,0,0,0,1.037-3.186h-1v-.535h1.006V287.5h-.89v-.541h3.961v.541h-.727v1.988h.835v.535Zm-.557-.535V287.5h-1.246v1.988Zm4.325,1.525a6.863,6.863,0,0,1-2.94,2.529,2.529,2.529,0,0,0-.4-.456,6.115,6.115,0,0,0,2.8-2.282Zm-.4-4.178a7.608,7.608,0,0,1-2.2,1.817,2.573,2.573,0,0,0-.418-.4,6.533,6.533,0,0,0,2.089-1.641Zm.217,2.111a8.625,8.625,0,0,1-2.352,1.951,2.932,2.932,0,0,0-.4-.411,7.243,7.243,0,0,0,2.228-1.763Z"/><path class="cls-5" d="M383.414,287.706c-.038.874-.092,2.7-.092,3.853,0,.85.533,1.152,1.269,1.152a3.224,3.224,0,0,0,2.769-1.6l.441.526a3.886,3.886,0,0,1-3.234,1.71c-1.114,0-1.879-.464-1.879-1.726,0-1.144.077-3.1.077-3.914a4.041,4.041,0,0,0-.062-.789l.781.008A6.644,6.644,0,0,0,383.414,287.706Z"/><path class="cls-5" d="M392.237,287.312c0,.116-.008.293-.008.5h.117c.943,0,1.894.008,2.266.008l-.008.573c-.432-.024-1.137-.04-2.266-.04h-.109c0,.442.008.921.016,1.278a1.88,1.88,0,0,1,.247.99,2.792,2.792,0,0,1-2.312,2.746l-.519-.511a2.683,2.683,0,0,0,2.05-1.369,1.092,1.092,0,0,1-.673.209,1.232,1.232,0,0,1-1.268-1.292,1.35,1.35,0,0,1,1.361-1.346,1.554,1.554,0,0,1,.518.085c0-.232,0-.51-.007-.782-1.176.008-2.492.063-3.458.132l-.016-.6c.859-.015,2.312-.061,3.466-.077,0-.217-.008-.4-.016-.51-.008-.2-.038-.426-.046-.488h.7C392.26,286.909,392.245,287.211,392.237,287.312Zm-1.1,3.852c.457,0,.75-.363.68-1.1a.694.694,0,0,0-.688-.487.789.789,0,0,0-.781.82A.744.744,0,0,0,391.139,291.164Z"/><path class="cls-5" d="M398.175,286.886l.657-.085a6.112,6.112,0,0,0,.186.921,7.518,7.518,0,0,0,1.423-.31l.085.565a9.782,9.782,0,0,1-1.361.263c.062.194.123.379.178.541s.108.3.178.457a8.658,8.658,0,0,0,1.539-.333l.093.58a11.933,11.933,0,0,1-1.4.279,6.735,6.735,0,0,0,.541.959,1.989,1.989,0,0,0,.294.333l-.324.471a14.5,14.5,0,0,0-1.687-.247l.046-.464c.418.038.913.093,1.16.123a8.708,8.708,0,0,1-.6-1.106,22.332,22.332,0,0,1-3.4.008l-.031-.58a17.366,17.366,0,0,0,3.211.039c-.055-.14-.108-.271-.155-.4-.077-.216-.139-.418-.2-.6a17.607,17.607,0,0,1-2.669-.054l-.031-.565a14.7,14.7,0,0,0,2.545.093c-.015-.062-.039-.131-.054-.194A6.636,6.636,0,0,0,398.175,286.886Zm-1.625,4.921c0,.633.564.959,1.779.959a8.923,8.923,0,0,0,1.849-.17l-.031.618a11.649,11.649,0,0,1-1.81.14c-1.517,0-2.367-.457-2.375-1.447a2.244,2.244,0,0,1,.3-1.106l.6.123A1.5,1.5,0,0,0,396.55,291.807Zm4.773-3.977-.4.186a7.172,7.172,0,0,0-.627-1.091l.387-.17A9.169,9.169,0,0,1,401.323,287.83Zm.843-.325-.4.193a7.107,7.107,0,0,0-.65-1.075l.387-.178A9.192,9.192,0,0,1,402.166,287.505Z"/><path class="cls-5" d="M403.825,287.28c.4,0,2.243-.061,2.654-.1a1.8,1.8,0,0,0,.417-.062l.356.448c-.139.1-.294.2-.433.318-.386.294-1.439,1.191-2.043,1.694a3.276,3.276,0,0,1,1.076-.162,1.973,1.973,0,0,1,2.205,1.817c0,1.246-1.022,2.051-2.661,2.051-1.052,0-1.695-.457-1.695-1.1a1.086,1.086,0,0,1,1.192-1.006,1.5,1.5,0,0,1,1.578,1.369,1.359,1.359,0,0,0,.967-1.323c0-.758-.727-1.33-1.733-1.33a3.81,3.81,0,0,0-2.963,1.546l-.441-.456c.642-.526,1.633-1.353,2.081-1.733.433-.356,1.4-1.168,1.8-1.516-.41.015-1.957.085-2.367.109a5,5,0,0,0-.511.046l-.024-.642A4.893,4.893,0,0,0,403.825,287.28Zm1.47,5.462a3.963,3.963,0,0,0,.627-.046,1.056,1.056,0,0,0-1.037-1.052.565.565,0,0,0-.619.5C404.266,292.51,404.691,292.742,405.3,292.742Z"/><path class="cls-5" d="M411.929,289.23c.727-.441,1.563-.851,1.988-1.083a4.129,4.129,0,0,0,.55-.364l.34.55c-.178.108-.371.209-.6.324a26.221,26.221,0,0,0-2.352,1.284c-.719.465-1.152.976-1.152,1.564,0,.641.611,1.044,1.833,1.044a11.56,11.56,0,0,0,2.476-.263v.689a15.308,15.308,0,0,1-2.445.193c-1.454,0-2.507-.434-2.507-1.594a2.529,2.529,0,0,1,1.339-2,26.028,26.028,0,0,1-1.122-2.382l.612-.255A16.69,16.69,0,0,0,411.929,289.23Z"/><path class="cls-5" d="M415.576,291.659l.5-.44a14.472,14.472,0,0,1,1.733,1.717l-.526.449A12.875,12.875,0,0,0,415.576,291.659Z"/><path class="cls-5" d="M426.238,287.946c-.139,3.6-.278,4.866-.627,5.268a.855.855,0,0,1-.68.341,11.652,11.652,0,0,1-1.346-.024,1.4,1.4,0,0,0-.2-.6,12.666,12.666,0,0,0,1.33.062.42.42,0,0,0,.364-.124c.294-.286.433-1.524.565-4.681h-4.3a8.634,8.634,0,0,1-1.378,2,4.259,4.259,0,0,0-.541-.394,7.775,7.775,0,0,0,1.949-3.312l.619.156a10.083,10.083,0,0,1-.379.99h4.626Zm-2.15,4.471a3.382,3.382,0,0,0-.209-.518c-1.408.116-2.862.224-3.853.3l-.07-.588c.279-.015.6-.031.952-.054a19.692,19.692,0,0,0,1.022-2.855l.626.162c-.294.86-.689,1.888-1.044,2.661.657-.046,1.377-.092,2.1-.146a9.772,9.772,0,0,0-.774-1.152l.48-.187a8.237,8.237,0,0,1,1.291,2.167Z"/><path class="cls-5" d="M427.317,286.777h3.444v.519h-1.045v.9h.866v5.214h-.472v-.425h-2.134v.534h-.465v-5.323h.921v-.9h-1.115Zm.659,1.9v2.607h2.134v-.72a.276.276,0,0,1-.085.008h-.371c-.3,0-.394-.077-.394-.448v-1.447h-.434v.619a2.014,2.014,0,0,1-.588,1.523,1.114,1.114,0,0,0-.255-.223,1.639,1.639,0,0,0,.526-1.308v-.611Zm2.134,3.837v-.8h-2.134v.8ZM429.3,287.3h-.456v.9h.456Zm.812,1.385h-.526v1.447c0,.1.008.107.108.107h.28c.077,0,.1,0,.107-.022l.031.022Zm3.234,4.239c.341,0,.4-.193.441-1.307a1.7,1.7,0,0,0,.534.247c-.078,1.253-.24,1.6-.944,1.6h-1.284c-.712,0-.929-.178-.929-.882v-3.335h2.306v-1.864h-2.336v-.557h2.9v3.489h-.565V289.8h-1.74v2.785c0,.286.069.34.424.34Z"/><path class="cls-5" d="M438.593,293.191l-.364-.573a5.5,5.5,0,0,0,.666-.1,2.335,2.335,0,0,0,1.964-2.3,2.154,2.154,0,0,0-2.065-2.244,15.25,15.25,0,0,1-.464,2.228c-.472,1.594-1.083,2.405-1.8,2.405-.688,0-1.377-.789-1.377-2.065a3.3,3.3,0,0,1,3.381-3.149,2.8,2.8,0,0,1,2.963,2.847C441.494,291.868,440.427,292.951,438.593,293.191Zm-2.042-1.292c.363,0,.773-.518,1.168-1.826a12.645,12.645,0,0,0,.433-2.089,2.7,2.7,0,0,0-2.4,2.507C435.754,291.466,436.2,291.9,436.551,291.9Z"/><path class="cls-5" d="M444.654,286.669a11.271,11.271,0,0,1-.8,1.672v5.182h-.542v-4.339a7.566,7.566,0,0,1-.781.951,3.149,3.149,0,0,0-.325-.557,8.8,8.8,0,0,0,1.911-3.071Zm4.8,6.483h-4.223v.379h-.535v-4.718h.535v3.836h4.223Zm-2.677-4.726c.032-.194.055-.418.079-.651h-2.067v-.5H446.9c.024-.278.047-.548.062-.789l.573.032c-.015.24-.047.5-.07.757H449.4v.5h-2c-.023.233-.053.457-.085.651h1.664v3.62h-3.072v-3.62Zm1.649.44h-1.973v.627h1.973Zm0,1.045h-1.973v.634h1.973Zm0,1.052h-1.973v.642h1.973Z"/><path class="cls-5" d="M452.967,287.4c-.047.225-.116.681-.2,1.1.363-.031.68-.055.866-.055.7,0,1.261.264,1.261,1.316a7.49,7.49,0,0,1-.449,2.793,1.09,1.09,0,0,1-1.13.642,4.712,4.712,0,0,1-.913-.108l-.1-.651a3.757,3.757,0,0,0,.944.164.647.647,0,0,0,.681-.4,6.529,6.529,0,0,0,.363-2.368c0-.7-.324-.835-.819-.835-.186,0-.5.023-.828.054a15.862,15.862,0,0,1-1.632,4.17l-.627-.255a12.288,12.288,0,0,0,1.632-3.853c-.411.038-.782.077-.983.1-.178.023-.5.061-.7.093l-.069-.665c.247.006.448.006.7,0s.7-.047,1.176-.086a8.645,8.645,0,0,0,.2-1.687l.712.07C453.021,287.087,452.99,287.25,452.967,287.4Zm4.162,3.18-.6.286a9.084,9.084,0,0,0-1.385-2.777l.565-.255A13.232,13.232,0,0,1,457.129,290.584Zm-.689-2.809-.425.186a9.534,9.534,0,0,0-.627-1.075l.418-.17A11.1,11.1,0,0,1,456.44,287.775Zm.867-.317-.418.187a8.72,8.72,0,0,0-.642-1.069l.409-.178A11.56,11.56,0,0,1,457.307,287.458Z"/><path class="cls-5" d="M351.524,300.212a5.613,5.613,0,0,0,2.112,1.485,2.35,2.35,0,0,0-.379.449,6.2,6.2,0,0,1-2.367-1.934h-1.71a6.279,6.279,0,0,1-2.429,1.973,3.279,3.279,0,0,0-.425-.449,5.563,5.563,0,0,0,2.158-1.524h-1.9v-.5h2.267a4.515,4.515,0,0,0,.379-.689c-.859.024-1.648.047-2.282.063l-.07-.527,1.285-.023a8.934,8.934,0,0,0,.835-1.315l.619.17c-.247.372-.541.79-.82,1.129.905-.015,1.911-.038,2.909-.069-.286-.225-.588-.448-.867-.635l.449-.27a9.793,9.793,0,0,1,1.958,1.578l-.473.317a5.512,5.512,0,0,0-.526-.534l-2.39.093a6.85,6.85,0,0,1-.356.712h3.969v.5Zm1.021,2.375c-.936.96-2.7,1.493-4.649,1.749a1.86,1.86,0,0,0-.271-.481c1.865-.2,3.582-.672,4.425-1.507Zm-1.036-.882a8.164,8.164,0,0,1-3.126,1.323,1.972,1.972,0,0,0-.317-.41,8.171,8.171,0,0,0,2.978-1.138Zm-.813-.9a7.279,7.279,0,0,1-2.258,1.029,2.112,2.112,0,0,0-.341-.349,7.187,7.187,0,0,0,2.151-.9Z"/><path class="cls-5" d="M358.352,300a17.238,17.238,0,0,1-1.54.976,21.254,21.254,0,0,0,3.033-.489l.379.395a21.058,21.058,0,0,1-3.559.518c-.046.2-.093.395-.147.58h3.7s-.015.171-.03.264c-.186,1.137-.349,1.64-.6,1.864a.894.894,0,0,1-.6.194c-.232.008-.689.008-1.168-.024a1.271,1.271,0,0,0-.178-.526c.48.047.983.055,1.16.055s.263-.008.333-.07c.17-.132.3-.5.441-1.277H356.4c-.04.14-.078.271-.109.388l-.58-.093c.124-.364.263-.89.394-1.408-.534.262-1.083.5-1.624.712a2.986,2.986,0,0,0-.372-.458,15.5,15.5,0,0,0,2.143-.913l.039-.177.248.031c.309-.17.618-.357.912-.542h-3.025v-.5h2.546v-.89H355.01v-.472h1.957v-.92h.572v.92h1.841v.372a10.668,10.668,0,0,0,.867-.928l.472.255a11.574,11.574,0,0,1-1.71,1.663h2.019v.5Zm-.171-.5a13.411,13.411,0,0,0,1.091-.89h-1.733v.89Z"/><path class="cls-5" d="M363.469,298.4a17.944,17.944,0,0,0-.387,2.963,8.391,8.391,0,0,0,.07,1.083c.131-.348.317-.812.449-1.13l.325.248a15.73,15.73,0,0,0-.55,1.733,1.541,1.541,0,0,0-.038.348c.008.085.016.194.023.271l-.557.038a9.677,9.677,0,0,1-.286-2.483,21.758,21.758,0,0,1,.347-3.1,3.383,3.383,0,0,0,.055-.55l.688.063C363.569,298.015,363.5,298.263,363.469,298.4Zm1.8,3.938c0,.355.256.7,1.308.7a8.557,8.557,0,0,0,1.919-.2l.016.649a10.486,10.486,0,0,1-1.935.163c-1.3,0-1.88-.433-1.88-1.161a4.237,4.237,0,0,1,.131-.913l.558.055A2.722,2.722,0,0,0,365.271,302.34Zm3-3.868v.626a18.157,18.157,0,0,1-3.18,0v-.619A13.255,13.255,0,0,0,368.266,298.472Z"/><path class="cls-5" d="M372.292,298.758a7.553,7.553,0,0,0,1.214-.286l.015.58a10.358,10.358,0,0,1-1.408.286,13.662,13.662,0,0,1-1.685,3.265l-.6-.31a11.435,11.435,0,0,0,1.655-2.894c-.231.016-.464.024-.688.024-.286,0-.611-.008-.9-.024l-.039-.58a7.236,7.236,0,0,0,.944.055c.278,0,.572-.016.874-.039a6.39,6.39,0,0,0,.239-1.338l.682.062C372.523,297.837,372.416,298.309,372.292,298.758Zm2.12,2.026c.008.287.038.789.054,1.27a5.272,5.272,0,0,1,1.608.959l-.332.526a5.725,5.725,0,0,0-1.254-.89c.008.123.008.232.008.325,0,.619-.394,1.122-1.353,1.122-.851,0-1.547-.348-1.547-1.115,0-.711.673-1.16,1.547-1.16a3.508,3.508,0,0,1,.757.077c-.03-.633-.068-1.4-.084-1.949h.6C374.4,300.267,374.4,300.506,374.412,300.784Zm-1.347,2.755c.642,0,.859-.341.859-.767,0-.1,0-.215-.008-.347a2.69,2.69,0,0,0-.8-.116c-.564,0-.951.262-.951.619S372.462,303.539,373.065,303.539Zm1.13-4.448.317-.473a11.728,11.728,0,0,1,1.8,1.029l-.347.511A9.017,9.017,0,0,0,374.2,299.091Z"/><path class="cls-5" d="M378.19,301.218a3.715,3.715,0,0,1,2.523-.944,1.757,1.757,0,0,1,1.973,1.617c0,1.384-1.223,2.321-4.1,2.081l-.187-.634c2.446.3,3.637-.4,3.637-1.463,0-.618-.572-1.06-1.361-1.06a3.029,3.029,0,0,0-2.4,1.038,1.211,1.211,0,0,0-.232.386l-.572-.139a27.936,27.936,0,0,0,.394-3.141l.651.085C378.406,299.57,378.275,300.723,378.19,301.218Zm3.49-2.987-.148.6c-.735-.1-2.413-.44-3-.6l.155-.588A20.947,20.947,0,0,0,381.68,298.231Z"/><path class="cls-5" d="M386.6,298.758a7.528,7.528,0,0,0,1.214-.286l.016.58a10.421,10.421,0,0,1-1.408.286,13.669,13.669,0,0,1-1.688,3.265l-.6-.31A11.439,11.439,0,0,0,385.8,299.4c-.233.016-.465.024-.689.024-.286,0-.611-.008-.905-.024l-.039-.58a7.246,7.246,0,0,0,.944.055c.279,0,.573-.016.874-.039a6.4,6.4,0,0,0,.241-1.338l.68.062C386.836,297.837,386.727,298.309,386.6,298.758Zm2.119,2.026c.007.287.039.789.054,1.27a5.3,5.3,0,0,1,1.61.959l-.333.526a5.791,5.791,0,0,0-1.253-.89c.008.123.008.232.008.325,0,.619-.4,1.122-1.355,1.122-.85,0-1.547-.348-1.547-1.115,0-.711.673-1.16,1.547-1.16a3.533,3.533,0,0,1,.759.077c-.031-.633-.07-1.4-.086-1.949h.6C388.715,300.267,388.715,300.506,388.723,300.784Zm-1.346,2.755c.643,0,.859-.341.859-.767,0-.1,0-.215-.007-.347a2.709,2.709,0,0,0-.8-.116c-.566,0-.953.262-.953.619S386.773,303.539,387.377,303.539Zm1.129-4.448.318-.473a11.728,11.728,0,0,1,1.8,1.029l-.349.511A8.952,8.952,0,0,0,388.506,299.091Z"/><path class="cls-5" d="M392.533,299.052c-.008.487,0,1.191.054,1.833.124,1.292.5,2.151,1.052,2.151.394,0,.758-.805.96-1.578l.487.549c-.465,1.315-.936,1.764-1.455,1.764-.735,0-1.439-.727-1.648-2.731-.069-.673-.085-1.617-.085-2.065a3.452,3.452,0,0,0-.054-.689l.751.016A5.865,5.865,0,0,0,392.533,299.052Zm5.454,3.311-.619.255a7.823,7.823,0,0,0-1.347-3.891l.6-.209A8.32,8.32,0,0,1,397.987,302.363Z"/></svg>