<svg id="レイヤー_1" data-name="レイヤー 1" xmlns="http://www.w3.org/2000/svg" viewBox="0 0 717 301"><defs><style>.cls-1,.cls-7{fill:none;stroke-miterlimit:10;}.cls-1{stroke:#000;stroke-width:0.86px;}.cls-2{fill:#00004f;}.cls-3{opacity:0.48;}.cls-4{fill:#0000d5;}.cls-5{fill:#6c00a4;}.cls-6{opacity:0.81;}.cls-7{stroke:#0000d5;stroke-width:1.526px;stroke-dasharray:6.11 6.11;}</style></defs><line class="cls-1" x1="268.407" y1="246.766" x2="268.407" y2="240.723"/><line class="cls-1" x1="322.575" y1="246.766" x2="322.575" y2="240.723"/><line class="cls-1" x1="376.742" y1="246.766" x2="376.742" y2="240.723"/><line class="cls-1" x1="430.91" y1="246.766" x2="430.91" y2="240.723"/><line class="cls-1" x1="485.078" y1="246.766" x2="485.078" y2="240.723"/><line class="cls-1" x1="214.24" y1="246.766" x2="538.815" y2="246.766"/><polygon points="535.966 250.283 535.379 249.653 538.485 246.766 535.379 243.879 535.966 243.249 539.748 246.766 535.966 250.283"/><path class="cls-2" d="M339.163,279.462a16.432,16.432,0,0,1-3.852,2.5,5.133,5.133,0,0,0-.857-.752,13.472,13.472,0,0,0,3.686-2.137Zm7.974-.15a8.188,8.188,0,0,0-.888-.813c-1.489.045-3.009.09-4.483.12v3.566h-1.084v-3.536c-2.211.061-4.258.09-5.837.121l-.091-.948c.978,0,2.182-.015,3.506-.03.211-.136.436-.256.647-.406a21.142,21.142,0,0,0-2.813-1.686l.722-.632c.3.151.632.317.977.482a16.708,16.708,0,0,0,1.656-1.459h-4.74V273.2h5.973v-.963h-4.348v-.857h4.348v-.963h-5.175v-.857h5.175v-1.114h1.1v1.114h5.386v.857h-5.386v.963h4.513v.857h-4.513v.963h6.063v.888h-6.921A29.174,29.174,0,0,1,338.576,276c.451.27.888.541,1.249.8A28.774,28.774,0,0,0,343,274.331l.993.557a39.116,39.116,0,0,1-4.062,2.874c1.655-.031,3.445-.061,5.206-.09-.527-.377-1.083-.723-1.6-1.024l.768-.586a17.529,17.529,0,0,1,3.655,2.587Zm-3.055-.242a17.893,17.893,0,0,1,3.7,2.152l-.872.662a18.461,18.461,0,0,0-3.656-2.227Z"/><path class="cls-2" d="M363.1,276.257h-6.2v4.5c0,.752-.195,1.1-.752,1.278a11.12,11.12,0,0,1-2.964.2,5.241,5.241,0,0,0-.481-1.143c1.2.045,2.317.045,2.633.03s.421-.091.421-.361v-4.5h-6.213v-1.113h6.213v-2.408h.708a19.121,19.121,0,0,0,3.1-2.135H351.1v-1.084h9.643l.271-.06.812.616a22.736,22.736,0,0,1-4.92,3.6v1.474h6.2Z"/><path class="cls-2" d="M371.61,281.523l-.708-1.113a11.551,11.551,0,0,0,1.294-.2,4.545,4.545,0,0,0,3.823-4.468A4.19,4.19,0,0,0,372,271.383a29.578,29.578,0,0,1-.9,4.333c-.918,3.1-2.107,4.679-3.506,4.679-1.339,0-2.678-1.535-2.678-4.017a6.412,6.412,0,0,1,6.574-6.124,5.452,5.452,0,0,1,5.763,5.537C377.252,278.95,375.176,281.057,371.61,281.523Zm-3.972-2.512c.707,0,1.5-1.008,2.272-3.551a24.541,24.541,0,0,0,.842-4.063,5.25,5.25,0,0,0-4.664,4.875C366.088,278.168,366.961,279.011,367.638,279.011Z"/><path class="cls-2" d="M384.523,281.749l-1.007-.948c2.738-1.053,4.107-2.347,4.107-6.56v-.632h-4.288v2.438c0,.557.045,1.219.061,1.369h-1.325c.015-.15.061-.8.061-1.369v-2.438h-1.625c-.648,0-1.324.045-1.5.061v-1.31a10.858,10.858,0,0,0,1.5.106h1.625V270.54a9.36,9.36,0,0,0-.061-1.1h1.339a9.587,9.587,0,0,0-.075,1.1v1.926h4.288v-1.881a8.392,8.392,0,0,0-.075-1.233H388.9a11.314,11.314,0,0,0-.076,1.233v1.881h1.655a11.1,11.1,0,0,0,1.385-.075v1.263c-.166-.014-.722-.045-1.385-.045h-1.655v.542C388.826,278.153,387.969,280.214,384.523,281.749Z"/><path class="cls-2" d="M399.844,272.812a17.912,17.912,0,0,0,4.107-3.536l1.009.933a24.652,24.652,0,0,1-4.063,3.355v6.349a11.541,11.541,0,0,0,.09,1.61h-1.473a14,14,0,0,0,.09-1.61v-5.566a29.788,29.788,0,0,1-5.733,2.452l-.6-1.174A24.878,24.878,0,0,0,399.844,272.812Z"/><path class="cls-2" d="M416.232,271.909a18.782,18.782,0,0,1-2.528,4.423,43.287,43.287,0,0,1,4.394,4.484l-1.053.917a35.043,35.043,0,0,0-4.138-4.483,19.092,19.092,0,0,1-5.868,4.408l-.963-1.008a17.2,17.2,0,0,0,6.2-4.468,13.283,13.283,0,0,0,2.5-4.2h-5.867c-.526,0-1.354.061-1.519.076v-1.355c.211.03,1.068.091,1.519.091h5.808a4.127,4.127,0,0,0,1.128-.12l.767.587A4.922,4.922,0,0,0,416.232,271.909Zm1.248-1.038-.812.361a19.425,19.425,0,0,0-1.2-2.076l.8-.346A20.306,20.306,0,0,1,417.48,270.871Zm1.747-.542-.813.361a17.494,17.494,0,0,0-1.234-2.061l.782-.346A19.068,19.068,0,0,1,419.227,270.329Z"/><path class="cls-2" d="M206.7,256.7c0-3.07,1.072-4.551,2.757-4.551s2.745,1.494,2.745,4.551-1.072,4.6-2.745,4.6S206.7,259.771,206.7,256.7Zm4.43,0c0-2.576-.674-3.672-1.673-3.672s-1.685,1.1-1.685,3.672c0,2.6.673,3.72,1.685,3.72S211.128,259.3,211.128,256.7Z"/><path class="cls-2" d="M213.669,260.47a.8.8,0,1,1,1.589,0,.8.8,0,1,1-1.589,0Z"/><path class="cls-2" d="M217.2,260.229h1.962v-6.585h-1.565v-.7a5.313,5.313,0,0,0,1.83-.638h.843v7.922h1.77v.915H217.2Z"/><path class="cls-2" d="M266.342,260.229h1.963v-6.585h-1.566v-.7a5.3,5.3,0,0,0,1.83-.638h.843v7.922h1.77v.915h-4.84Z"/><path class="cls-2" d="M317.16,260.229h1.963v-6.585h-1.566v-.7a5.3,5.3,0,0,0,1.83-.638h.843v7.922H322v.915h-4.84Z"/><path class="cls-2" d="M323.373,256.7c0-3.07,1.071-4.551,2.756-4.551s2.746,1.494,2.746,4.551-1.072,4.6-2.746,4.6S323.373,259.771,323.373,256.7Zm4.43,0c0-2.576-.674-3.672-1.674-3.672s-1.685,1.1-1.685,3.672c0,2.6.674,3.72,1.685,3.72S327.8,259.3,327.8,256.7Z"/><path class="cls-2" d="M367.848,260.229h1.962v-6.585h-1.565v-.7a5.313,5.313,0,0,0,1.83-.638h.843v7.922h1.77v.915h-4.84Z"/><path class="cls-2" d="M374.06,256.7c0-3.07,1.071-4.551,2.756-4.551s2.746,1.494,2.746,4.551-1.072,4.6-2.746,4.6S374.06,259.771,374.06,256.7Zm4.43,0c0-2.576-.675-3.672-1.674-3.672s-1.685,1.1-1.685,3.672c0,2.6.675,3.72,1.685,3.72S378.49,259.3,378.49,256.7Z"/><path class="cls-2" d="M380.742,256.7c0-3.07,1.071-4.551,2.757-4.551s2.745,1.494,2.745,4.551-1.071,4.6-2.745,4.6S380.742,259.771,380.742,256.7Zm4.431,0c0-2.576-.675-3.672-1.674-3.672s-1.686,1.1-1.686,3.672c0,2.6.675,3.72,1.686,3.72S385.173,259.3,385.173,256.7Z"/><path class="cls-2" d="M418.815,260.229h1.962v-6.585h-1.564v-.7a5.313,5.313,0,0,0,1.83-.638h.843v7.922h1.769v.915h-4.84Z"/><path class="cls-2" d="M425.027,256.7c0-3.07,1.072-4.551,2.757-4.551s2.745,1.494,2.745,4.551-1.071,4.6-2.745,4.6S425.027,259.771,425.027,256.7Zm4.431,0c0-2.576-.675-3.672-1.674-3.672s-1.685,1.1-1.685,3.672c0,2.6.674,3.72,1.685,3.72S429.458,259.3,429.458,256.7Z"/><path class="cls-2" d="M431.71,256.7c0-3.07,1.071-4.551,2.757-4.551s2.745,1.494,2.745,4.551-1.071,4.6-2.745,4.6S431.71,259.771,431.71,256.7Zm4.431,0c0-2.576-.675-3.672-1.674-3.672s-1.686,1.1-1.686,3.672c0,2.6.675,3.72,1.686,3.72S436.141,259.3,436.141,256.7Z"/><path class="cls-2" d="M438.392,256.7c0-3.07,1.071-4.551,2.756-4.551s2.746,1.494,2.746,4.551-1.072,4.6-2.746,4.6S438.392,259.771,438.392,256.7Zm4.43,0c0-2.576-.675-3.672-1.674-3.672s-1.685,1.1-1.685,3.672c0,2.6.675,3.72,1.685,3.72S442.822,259.3,442.822,256.7Z"/><path class="cls-2" d="M468.9,260.229h1.962v-6.585H469.3v-.7a5.313,5.313,0,0,0,1.83-.638h.843v7.922h1.769v.915H468.9Z"/><path class="cls-2" d="M475.109,256.7c0-3.07,1.072-4.551,2.757-4.551s2.745,1.494,2.745,4.551-1.071,4.6-2.745,4.6S475.109,259.771,475.109,256.7Zm4.431,0c0-2.576-.675-3.672-1.674-3.672s-1.685,1.1-1.685,3.672c0,2.6.674,3.72,1.685,3.72S479.54,259.3,479.54,256.7Z"/><path class="cls-2" d="M481.792,256.7c0-3.07,1.071-4.551,2.757-4.551s2.745,1.494,2.745,4.551-1.071,4.6-2.745,4.6S481.792,259.771,481.792,256.7Zm4.431,0c0-2.576-.675-3.672-1.674-3.672s-1.686,1.1-1.686,3.672c0,2.6.675,3.72,1.686,3.72S486.223,259.3,486.223,256.7Z"/><path class="cls-2" d="M488.474,256.7c0-3.07,1.071-4.551,2.756-4.551s2.746,1.494,2.746,4.551-1.072,4.6-2.746,4.6S488.474,259.771,488.474,256.7Zm4.43,0c0-2.576-.675-3.672-1.674-3.672s-1.685,1.1-1.685,3.672c0,2.6.675,3.72,1.685,3.72S492.9,259.3,492.9,256.7Z"/><path class="cls-2" d="M495.156,256.7c0-3.07,1.072-4.551,2.757-4.551s2.745,1.494,2.745,4.551-1.071,4.6-2.745,4.6S495.156,259.771,495.156,256.7Zm4.431,0c0-2.576-.675-3.672-1.674-3.672s-1.685,1.1-1.685,3.672c0,2.6.674,3.72,1.685,3.72S499.587,259.3,499.587,256.7Z"/><path class="cls-2" d="M176.52,156.179h12.036v1.113h-1.114v9.72h1.174v1.052h-12.1v-4.739h5.16v-2.346h-5.16Zm9.884,1.113h-8.816v2.618h5.145v4.514h-5.145v2.588H186.4Z"/><path class="cls-2" d="M180.717,141.054h7.9v1.113h-.993v9.78h1.1v1.1h-8v-3.024h-4.649v-5.958h4.649Zm5.853,1.113h-4.8v3.01h-4.665v3.776h4.665v2.994h4.8Z"/><path class="cls-2" d="M188.225,131.766l-1.114.708a11.343,11.343,0,0,0-.195-1.294,4.546,4.546,0,0,0-4.469-3.823,4.191,4.191,0,0,0-4.363,4.018,29.551,29.551,0,0,1,4.333.9c3.1.918,4.679,2.107,4.679,3.506,0,1.339-1.534,2.678-4.017,2.678a6.412,6.412,0,0,1-6.123-6.574,5.452,5.452,0,0,1,5.537-5.763C185.652,126.124,187.758,128.2,188.225,131.766Zm-2.513,3.972c0-.707-1.008-1.5-3.55-2.272a24.563,24.563,0,0,0-4.063-.842,5.248,5.248,0,0,0,4.875,4.664C184.87,137.288,185.712,136.415,185.712,135.738Z"/><path class="cls-2" d="M188.45,118.853l-.948,1.007c-1.053-2.738-2.347-4.107-6.559-4.107h-.632v4.288h2.437c.557,0,1.219-.045,1.369-.061v1.325c-.15-.016-.8-.061-1.369-.061h-2.437v1.625c0,.648.045,1.324.06,1.5h-1.309a11.079,11.079,0,0,0,.1-1.5v-1.625h-1.925a9.309,9.309,0,0,0-1.1.061v-1.339a9.523,9.523,0,0,0,1.1.075h1.925v-4.288h-1.88a8.421,8.421,0,0,0-1.234.075v-1.354a11.454,11.454,0,0,0,1.234.075h1.88V112.9a10.9,10.9,0,0,0-.075-1.385h1.264c-.015.166-.045.722-.045,1.385v1.654h.542C184.854,114.549,186.916,115.407,188.45,118.853Z"/><path class="cls-2" d="M179.514,103.532a17.912,17.912,0,0,0-3.536-4.107l.933-1.009a24.652,24.652,0,0,1,3.355,4.063h6.349a11.541,11.541,0,0,0,1.61-.09v1.473a14,14,0,0,0-1.61-.09h-5.567a29.664,29.664,0,0,1,2.452,5.733l-1.173.6A24.878,24.878,0,0,0,179.514,103.532Z"/><path class="cls-2" d="M177.031,84.149l.361.813a17.413,17.413,0,0,0-2.061,1.234l-.346-.782A19.167,19.167,0,0,1,177.031,84.149Zm.542,1.747.361.811a19.72,19.72,0,0,0-2.077,1.2l-.345-.8A20.306,20.306,0,0,1,177.573,85.9Zm1.038,1.248a18.8,18.8,0,0,1,4.423,2.528,43.089,43.089,0,0,1,4.484-4.394l.918,1.053a34.849,34.849,0,0,0-4.484,4.138,19.115,19.115,0,0,1,4.408,5.867l-1.008.963a17.2,17.2,0,0,0-4.468-6.2,13.283,13.283,0,0,0-4.2-2.5v5.867c0,.526.06,1.354.075,1.519h-1.354c.031-.211.091-1.068.091-1.519V88.663a4.119,4.119,0,0,0-.121-1.128l.587-.767A4.874,4.874,0,0,0,178.611,87.144Z"/><line class="cls-1" x1="214.24" y1="192.598" x2="220.282" y2="192.598"/><line class="cls-1" x1="214.24" y1="138.431" x2="220.282" y2="138.431"/><line class="cls-1" x1="214.24" y1="84.263" x2="220.282" y2="84.263"/><line class="cls-1" x1="214.24" y1="30.095" x2="220.282" y2="30.095"/><path class="cls-2" d="M194.856,247.066c0-3.07,1.072-4.55,2.757-4.55s2.745,1.493,2.745,4.55-1.071,4.6-2.745,4.6S194.856,250.137,194.856,247.066Zm4.431,0c0-2.576-.674-3.671-1.674-3.671s-1.685,1.095-1.685,3.671c0,2.6.674,3.72,1.685,3.72S199.287,249.667,199.287,247.066Z"/><path class="cls-2" d="M201.828,250.835a.8.8,0,1,1,1.589,0,.8.8,0,1,1-1.589,0Z"/><path class="cls-2" d="M205.355,250.594h1.963v-6.585h-1.566v-.7a5.332,5.332,0,0,0,1.831-.639h.842v7.922h1.77v.915h-4.84Z"/><path class="cls-2" d="M205.776,195.95h1.963v-6.585h-1.566v-.7a5.318,5.318,0,0,0,1.83-.639h.843v7.922h1.77v.915h-4.84Z"/><path class="cls-2" d="M198.914,142.373h1.962v-6.585h-1.565v-.7a5.318,5.318,0,0,0,1.83-.639h.843v7.922h1.77v.915h-4.84Z"/><path class="cls-2" d="M205.126,138.846c0-3.071,1.072-4.551,2.757-4.551s2.745,1.493,2.745,4.551-1.071,4.6-2.745,4.6S205.126,141.916,205.126,138.846Zm4.431,0c0-2.576-.674-3.672-1.674-3.672s-1.685,1.1-1.685,3.672c0,2.6.674,3.719,1.685,3.719S209.557,141.446,209.557,138.846Z"/><path class="cls-2" d="M192.051,87.948h1.963V81.363h-1.566v-.7a5.3,5.3,0,0,0,1.83-.639h.843v7.922h1.77v.915h-4.84Z"/><path class="cls-2" d="M198.264,84.421c0-3.07,1.071-4.551,2.757-4.551s2.745,1.493,2.745,4.551-1.072,4.6-2.745,4.6S198.264,87.491,198.264,84.421Zm4.43,0c0-2.576-.674-3.672-1.673-3.672s-1.686,1.1-1.686,3.672c0,2.6.674,3.72,1.686,3.72S202.694,87.021,202.694,84.421Z"/><path class="cls-2" d="M204.946,84.421c0-3.07,1.072-4.551,2.757-4.551s2.745,1.493,2.745,4.551-1.072,4.6-2.745,4.6S204.946,87.491,204.946,84.421Zm4.43,0c0-2.576-.674-3.672-1.673-3.672s-1.685,1.1-1.685,3.672c0,2.6.673,3.72,1.685,3.72S209.376,87.021,209.376,84.421Z"/><path class="cls-2" d="M185.188,32.812h1.963V26.227h-1.566v-.7a5.311,5.311,0,0,0,1.831-.638h.842v7.922h1.77v.915h-4.84Z"/><path class="cls-2" d="M191.4,29.284c0-3.07,1.072-4.551,2.757-4.551s2.745,1.494,2.745,4.551-1.071,4.6-2.745,4.6S191.4,32.354,191.4,29.284Zm4.431,0c0-2.576-.675-3.672-1.674-3.672s-1.685,1.1-1.685,3.672c0,2.6.673,3.72,1.685,3.72S195.832,31.885,195.832,29.284Z"/><path class="cls-2" d="M198.083,29.284c0-3.07,1.072-4.551,2.757-4.551s2.745,1.494,2.745,4.551-1.071,4.6-2.745,4.6S198.083,32.354,198.083,29.284Zm4.431,0c0-2.576-.675-3.672-1.674-3.672s-1.685,1.1-1.685,3.672c0,2.6.674,3.72,1.685,3.72S202.514,31.885,202.514,29.284Z"/><path class="cls-2" d="M204.765,29.284c0-3.07,1.072-4.551,2.757-4.551s2.745,1.494,2.745,4.551-1.071,4.6-2.745,4.6S204.765,32.354,204.765,29.284Zm4.431,0c0-2.576-.675-3.672-1.674-3.672s-1.685,1.1-1.685,3.672c0,2.6.674,3.72,1.685,3.72S209.2,31.885,209.2,29.284Z"/><g class="cls-3"><rect class="cls-4" x="216.39" y="105.515" width="154.595" height="139.1" rx="7.142"/></g><g class="cls-3"><rect class="cls-4" x="370.386" y="62.8" width="159.989" height="48.717" rx="7.081"/></g><g class="cls-3"><rect class="cls-4" x="370.386" y="10.839" width="159.989" height="48.717" rx="6.535"/></g><path class="cls-2" d="M409.332,26.643V18.037a9.2,9.2,0,0,0-.135-1.369h1.49a9.606,9.606,0,0,0-.106,1.369v8.53a16.235,16.235,0,0,0,8.23-5.129l.676,1.052a17.4,17.4,0,0,1-8.8,5.371,2.289,2.289,0,0,0-.632.271l-.873-.752A1.664,1.664,0,0,0,409.332,26.643Z"/><path class="cls-2" d="M427.33,24.717a14.172,14.172,0,0,0,5.024-5.536l.723,1.278a15.018,15.018,0,0,1-5.056,5.356,16.462,16.462,0,0,1-5.912,2.332l-.8-1.234A15.553,15.553,0,0,0,427.33,24.717Zm-.888-4.77-.948.949a31.167,31.167,0,0,0-3.746-3.145l.857-.918A32.88,32.88,0,0,1,426.442,19.947Z"/><path class="cls-2" d="M443.99,18.714a18.822,18.822,0,0,1-2.528,4.423,42.969,42.969,0,0,1,4.393,4.484l-1.052.917a34.91,34.91,0,0,0-4.138-4.483,19.12,19.12,0,0,1-5.868,4.408l-.963-1.008a17.2,17.2,0,0,0,6.2-4.469,13.268,13.268,0,0,0,2.5-4.2h-5.867c-.526,0-1.354.061-1.519.075V17.51c.21.03,1.068.091,1.519.091h5.808a4.085,4.085,0,0,0,1.128-.121l.767.587A4.893,4.893,0,0,0,443.99,18.714Zm1.248-1.038-.812.361a19.425,19.425,0,0,0-1.2-2.076l.8-.347A20.619,20.619,0,0,1,445.238,17.676Zm1.746-.542-.812.361a17.413,17.413,0,0,0-1.234-2.061l.782-.346A18.9,18.9,0,0,1,446.984,17.134Z"/><path class="cls-2" d="M452.373,22.145a1.595,1.595,0,1,1-1.595-1.595A1.586,1.586,0,0,1,452.373,22.145Z"/><path class="cls-2" d="M465.256,27.079l-.512,1.158a49.078,49.078,0,0,0-8.907-2.271l.467-1.144A53.02,53.02,0,0,1,465.256,27.079Zm-.542-4.83-.482,1.159a44.133,44.133,0,0,0-7.552-1.836l.451-1.128A53.745,53.745,0,0,1,464.714,22.249Zm.993-4.031-.481,1.158a49.736,49.736,0,0,0-7.854-1.79l.437-1.114A51.512,51.512,0,0,1,465.707,18.218Z"/><path class="cls-2" d="M478.875,21.061a10.361,10.361,0,0,1-2.2,4.273,10.915,10.915,0,0,1-5.386,3.145l-.934-1.069a10.013,10.013,0,0,0,5.3-2.754,7.681,7.681,0,0,0,1.791-3.324h-7.989c-.361,0-.933.015-1.475.045V20.113a14.281,14.281,0,0,0,1.475.09h7.929a2.009,2.009,0,0,0,.828-.12l.857.542A2.642,2.642,0,0,0,478.875,21.061Zm-8.185-4.333H476.6a9.259,9.259,0,0,0,1.369-.076V17.9c-.362-.03-.873-.045-1.384-.045h-5.9c-.465,0-.947.015-1.353.045V16.652A9.273,9.273,0,0,0,470.69,16.728Z"/><path class="cls-2" d="M483.5,21.422h8.245c.752,0,1.293-.045,1.624-.075v1.474c-.3-.014-.932-.075-1.609-.075H483.5c-.827,0-1.625.03-2.092.075V21.347C481.859,21.377,482.656,21.422,483.5,21.422Z"/><path class="cls-5" d="M426.247,50.489c.587,0,.692-.376.768-2.527a3.221,3.221,0,0,0,1.022.5c-.135,2.423-.435,3.069-1.7,3.069h-2.166c-1.324,0-1.7-.361-1.7-1.625v-5.31H419.7c-.285,3.279-1.038,5.732-4.784,6.966a3.478,3.478,0,0,0-.692-.949c3.5-1.052,4.062-3.173,4.3-6.017h-4V43.523h6.048v-5.7h1.113v5.7h6.184v1.069H423.6v5.3c0,.5.12.6.691.6Zm-8.7-7.823a16.185,16.185,0,0,0-1.776-3.731l1.008-.376a14.616,14.616,0,0,1,1.821,3.685Zm9.178-3.852a31.883,31.883,0,0,1-2.091,3.807l-.934-.377a22.313,22.313,0,0,0,1.9-3.851Z"/><path class="cls-5" d="M431.036,46.518A13.8,13.8,0,0,1,430,50.339a3.829,3.829,0,0,0-.827-.406,11.75,11.75,0,0,0,.917-3.581Zm1.625-1.294v6.334h-.993V45.283l-2.362.152-.106-1.009,1.038-.045c.3-.376.617-.8.934-1.249a13.674,13.674,0,0,0-1.866-2.182l.6-.707c.151.136.3.272.451.422a21.742,21.742,0,0,0,1.339-2.829l.978.361a28.5,28.5,0,0,1-1.73,3.1,10.677,10.677,0,0,1,.812.963,30.944,30.944,0,0,0,1.61-2.724l.933.437a49.954,49.954,0,0,1-3.009,4.347l2.166-.1a14.136,14.136,0,0,0-.677-1.265l.813-.33a12.551,12.551,0,0,1,1.459,3.084l-.888.406a5.108,5.108,0,0,0-.315-.963Zm1.339,1.1a11.509,11.509,0,0,1,.8,2.662l-.873.272a10.28,10.28,0,0,0-.752-2.693Zm4-.166a7.039,7.039,0,0,1-3.189,4.8,3.478,3.478,0,0,0-.708-.768,5.648,5.648,0,0,0,2.694-3.294h-2.031v-.963h2.452l.165-.015Zm5-.2a24.166,24.166,0,0,1-2.317,1.881,6.208,6.208,0,0,0,2.648,2.2,5.3,5.3,0,0,0-.677.9,7.351,7.351,0,0,1-3.28-3.64v3.069c0,.557-.1.843-.5,1.008a5.925,5.925,0,0,1-1.911.165,3.381,3.381,0,0,0-.3-.963c.662.016,1.278.016,1.444,0,.2,0,.241-.045.241-.21V44.651h-3.024v-5.28h2.467a12.311,12.311,0,0,0,.6-1.564l1.233.24c-.211.451-.467.918-.692,1.324h3.536v5.28h-3.1v.2a9.561,9.561,0,0,0,.858,2.241A17.938,17.938,0,0,0,442.1,45.3Zm-6.65-4.394H441.4V40.273h-5.055Zm0,2.167H441.4V42.425h-5.055Z"/><path class="cls-5" d="M447.726,48.519c.707,1.1,2.016,1.609,3.746,1.684,1.64.061,4.98.016,6.74-.105a5.067,5.067,0,0,0-.36,1.143c-1.641.061-4.725.091-6.38.03a5.364,5.364,0,0,1-4.258-1.775c-.722.632-1.474,1.279-2.272,1.926l-.6-1.128a24.985,24.985,0,0,0,2.287-1.716V44.772h-2.092V43.719h3.19Zm-.466-7.267a10.378,10.378,0,0,0-2.558-2.378l.827-.677a11.442,11.442,0,0,1,2.618,2.318Zm2.136-1.866h2.5a13.872,13.872,0,0,0,.481-1.61l1.264.21c-.181.482-.392.979-.587,1.4h3.49V43.3h-6.078v1.429h6.681V48.97H449.4Zm1.068.948v2.031h5V40.334Zm0,5.341v2.332h5.6V45.675Z"/><path class="cls-5" d="M464.988,49.271c-1.94.542-3.971,1.053-5.461,1.444l-.211-1.024.813-.2v-5.01h.9v4.8l.963-.241V43.1h-1.881v-4.65H464.6V43.1h-1.64v2.09h1.881v.978h-1.881v2.634l1.926-.482Zm-3.912-7.117h2.543V39.416h-2.543Zm9.69-.782v8.892c0,.6-.136.918-.512,1.113a6.323,6.323,0,0,1-2.076.181,3.5,3.5,0,0,0-.331-1.038c.737.014,1.4.014,1.61,0,.195-.016.271-.061.271-.271V41.372h-1.28v2.377c0,2.588-.376,5.566-3.37,7.823a6.3,6.3,0,0,0-.8-.721c2.859-2.107,3.19-4.86,3.19-7.1V41.372h-2.408V40.318h3.446V37.882h1.113v2.436h3.551v1.054Zm-3.988,2a12.789,12.789,0,0,1-1.564,4.634,6.691,6.691,0,0,0-.843-.527,10.677,10.677,0,0,0,1.444-4.273Zm5.116-.226a16.41,16.41,0,0,1,1.474,4.364l-.947.36a17.773,17.773,0,0,0-1.4-4.392Z"/><path class="cls-5" d="M477.45,44.351a12.626,12.626,0,0,0-2.964-1.475l.587-.857a12.774,12.774,0,0,1,2.979,1.384Zm1.1,2.2c-.753,1.579-1.745,3.43-2.588,4.829l-.948-.723a45.193,45.193,0,0,0,2.693-4.829Zm-.347-6.154a11.963,11.963,0,0,0-2.918-1.64l.6-.827a11.028,11.028,0,0,1,2.948,1.55Zm9.118,11.194a9.852,9.852,0,0,0-.632-1.279c-2.9.225-5.928.421-8,.556l-.165-1.113,1.249-.061a35.473,35.473,0,0,0,1.8-4.528H478.5V44.1h4.182V41.342h-3.43V40.289h3.43V37.836h1.143v2.453H487.4v1.053h-3.567V44.1H488.1v1.068H482.9c-.556,1.43-1.263,3.145-1.925,4.453,1.55-.075,3.34-.179,5.115-.3a25.828,25.828,0,0,0-1.55-2.135l.948-.5A20.418,20.418,0,0,1,488.358,51Z"/><path class="cls-2" d="M417.785,78.726l-1.038-.707a15.351,15.351,0,0,0,2.874-3.927l1.053.512A21.623,21.623,0,0,1,417.785,78.726Zm6.109-9.133v1.55h3.971a11.573,11.573,0,0,0,1.234-.076v1.249c-.407-.03-.858-.045-1.218-.045h-3.987v7.3c0,.783-.376,1.189-1.294,1.189a19.923,19.923,0,0,1-2.137-.106l-.106-1.188a10.621,10.621,0,0,0,1.731.165c.406,0,.587-.165.587-.571V72.271h-4.168a11.715,11.715,0,0,0-1.294.06V71.053a8.7,8.7,0,0,0,1.279.09h4.183v-1.55a5.512,5.512,0,0,0-.106-1.068h1.414A9.849,9.849,0,0,0,423.894,69.593Zm5.671,8.44-1.113.617a24.353,24.353,0,0,0-2.513-4l1.024-.556A30.739,30.739,0,0,1,429.565,78.033Z"/><path class="cls-2" d="M433.707,70.045h8.08c.331,0,.872,0,1.323-.03-.029.376-.029.8-.029,1.173v7.417c0,.482.015,1.655.029,1.821h-1.294c0-.106.016-.467.016-.873h-8.215c.015.391.015.753.03.873h-1.293c.014-.2.044-1.309.044-1.836v-7.4c0-.346,0-.813-.03-1.173C432.955,70.029,433.361,70.045,433.707,70.045Zm-.09,8.335h8.23V71.233h-8.23Z"/><path class="cls-2" d="M451.6,70.18c-.106.211-.226.422-.347.632h4.077a2.9,2.9,0,0,0,.979-.135l.993.6a4.7,4.7,0,0,0-.347.8,14.723,14.723,0,0,1-2.663,5.192,13.38,13.38,0,0,1-5.987,4.091l-1.1-.993a12.049,12.049,0,0,0,6.019-3.776,12.22,12.22,0,0,0,2.391-4.694h-5.07a14.512,14.512,0,0,1-3.821,3.7l-1.039-.767a12.6,12.6,0,0,0,4.725-5.086,5.57,5.57,0,0,0,.466-1.2l1.385.466C452.022,69.4,451.752,69.909,451.6,70.18Zm5.942.166-.813.36a16.931,16.931,0,0,0-1.218-2.076l.8-.346A21.194,21.194,0,0,1,457.544,70.346Zm1.685-.617-.812.361a15.629,15.629,0,0,0-1.249-2.062l.8-.345A21.467,21.467,0,0,1,459.229,69.729Z"/><path class="cls-2" d="M470.622,73.52a10.361,10.361,0,0,1-2.2,4.273,10.915,10.915,0,0,1-5.386,3.145l-.934-1.069a10.013,10.013,0,0,0,5.3-2.754,7.691,7.691,0,0,0,1.791-3.324H461.2c-.361,0-.933.015-1.475.045V72.572a14.281,14.281,0,0,0,1.475.09h7.929a2.009,2.009,0,0,0,.828-.12l.857.542A2.642,2.642,0,0,0,470.622,73.52Zm-8.184-4.333h5.913a9.259,9.259,0,0,0,1.369-.076V70.36c-.362-.03-.873-.045-1.384-.045h-5.9c-.466,0-.948.015-1.354.045V69.111A9.279,9.279,0,0,0,462.438,69.187Z"/><path class="cls-2" d="M478.1,70.5c-.436,1.414-1.925,6.033-2.677,7.988,2.212-.21,5.1-.526,6.755-.752a21.467,21.467,0,0,0-1.835-3.084l1.128-.511a42.363,42.363,0,0,1,3.339,6.123l-1.263.572c-.2-.542-.482-1.234-.827-1.971-2.318.3-7.358.858-9.373,1.038-.376.03-.813.105-1.249.165l-.226-1.4c.451.016.963,0,1.4-.015.226-.015.482-.03.752-.045.843-2.076,2.377-6.89,2.8-8.365a9.367,9.367,0,0,0,.285-1.444l1.5.3C478.466,69.473,478.3,69.864,478.1,70.5Z"/><path class="cls-2" d="M406.089,140.379l-1.579.3a6.909,6.909,0,0,1-3.837,4.347,5.153,5.153,0,0,0-.782-.841,6.137,6.137,0,0,0,3.355-3.266c-1.354.256-2.634.5-3.686.678l-.242-1.114c1.115-.15,2.649-.391,4.274-.662a7.779,7.779,0,0,0,.18-1.64v-.391h-3.716v-1.023h3.716v-2.317h-3.9v-1.038h3.9v-2.2h1.1v6.966a10.379,10.379,0,0,1-.1,1.445l1.278-.227Zm6.936.843h-4.559v3.64h-1.128V131.216h1.128v2.2h4.3v1.038h-4.3v2.317h3.987v1.023h-3.987v2.393h4.559Z"/><path class="cls-2" d="M426.916,143.448c0,.722-.195,1.023-.662,1.219a8.77,8.77,0,0,1-2.6.195,4.005,4.005,0,0,0-.376-1.053c.963.03,1.9.015,2.152,0,.286,0,.376-.09.376-.361V132.9h-8.711v3.777c0,2.482-.24,5.958-1.941,8.29a3.377,3.377,0,0,0-.887-.723c1.579-2.182,1.729-5.251,1.729-7.567v-4.83h10.923Zm-6.168-6.605V135.4h-2.663v-.9h2.663V133.2h1.068V134.5h2.829v.9h-2.829v1.445h3.205v.933h-7.312v-.933Zm-1.279,6.108v.843h-1.023V139.04h5.807v3.911Zm0-3.023v2.135H423.2v-2.135Z"/><path class="cls-2" d="M436.745,141.236H429.4v-1.007h1.459V134.12H429.6v-1.008h1.263v-1.805h1.024v1.805h2.723v-1.805h1.038v1.805h1.1v1.008h-1.1v6.109h1.1Zm-4.2.6a9.962,9.962,0,0,1-2.227,3.039,6.941,6.941,0,0,0-.9-.647,7.833,7.833,0,0,0,2.061-2.677Zm-.662-7.718v1.324h2.723V134.12Zm0,3.7h2.723v-1.474h-2.723Zm0,2.408h2.723v-1.505h-2.723Zm2.6,1.324a11.069,11.069,0,0,1,1.58,2.226l-.9.527a11.8,11.8,0,0,0-1.55-2.287Zm8.2,1.88c0,.662-.166.993-.572,1.173a6.646,6.646,0,0,1-2.241.211,4.539,4.539,0,0,0-.347-1.084c.8.016,1.55.016,1.761,0,.226,0,.316-.075.316-.315v-3.611h-3.174a11.777,11.777,0,0,1-1.43,5.145,2.874,2.874,0,0,0-.888-.646c1.249-1.987,1.369-4.845,1.369-7v-5.432h5.206Zm-1.083-4.634v-2.5h-3.069v1.008c0,.466-.015.977-.03,1.489Zm-3.069-5.9v2.392h3.069V132.9Z"/><path class="cls-2" d="M457.589,131.758v13.1H456.4v-.812H446.244v.812h-1.128v-13.1ZM456.4,143V132.871H446.244V143Zm-2.181-7.793v5.432h-5.808V135.2Zm-1.1,1.008h-3.641v3.431h3.641Z"/><path class="cls-2" d="M462.813,139.19v4.364c0,.616-.15.932-.526,1.113a5.5,5.5,0,0,1-2,.18,3.778,3.778,0,0,0-.331-1.008c.678.015,1.294.015,1.489,0,.2,0,.272-.06.272-.285v-4.033l-2.046.617-.3-1.083c.648-.165,1.46-.391,2.348-.647v-3.22h-2.137v-1.023h2.137v-3.024h1.1v3.024h1.731v1.023h-1.731v2.9l1.747-.527.15,1.039Zm10.472-1.941h-2.513v7.6h-1.1v-7.6h-2.964c-.016,2.3-.316,5.371-2.3,7.522a2.948,2.948,0,0,0-.827-.782c1.82-1.985,2.017-4.739,2.017-6.935V132.27l1.083.195a33.955,33.955,0,0,0,5.19-1.158l.827.872a34.648,34.648,0,0,1-5.987,1.249v2.753h6.574Z"/><path class="cls-2" d="M487.237,133.021a10.619,10.619,0,0,1-2.423,3.943,10.657,10.657,0,0,0,3.747,2.015,4.331,4.331,0,0,0-.692.933c-.241-.09-.481-.181-.707-.27v5.175h-1.054v-.6h-4.2v.662h-1.023v-5.13a11.7,11.7,0,0,1-1.189.5,3.125,3.125,0,0,0-.632-.9,12.452,12.452,0,0,0,4.258-2.377,11.573,11.573,0,0,1-1.564-2.107,11.622,11.622,0,0,1-1.475,1.595,6.138,6.138,0,0,0-.888-.753c.121-.1.256-.21.376-.315H478.06v.677c.436.481,1.609,1.925,1.895,2.287l-.662.873c-.24-.437-.768-1.235-1.233-1.881v7.507h-1.069v-7.1a15.959,15.959,0,0,1-2,4.3,5.038,5.038,0,0,0-.587-.993,16.279,16.279,0,0,0,2.468-5.672h-2.122v-1.038h2.242v-3.22h1.069v3.22H480v.827a11.436,11.436,0,0,0,2.663-4.062l1.083.3c-.181.451-.391.888-.616,1.323h3.22l.195-.045Zm-.633,6.365a10.982,10.982,0,0,1-2.527-1.7,14.029,14.029,0,0,1-2.452,1.7Zm-.5,3.851v-2.888h-4.2v2.888Zm-3.731-9.253a9.87,9.87,0,0,0,1.686,2.287,9.424,9.424,0,0,0,1.775-2.557h-3.28Z"/><path class="cls-2" d="M503.3,138.919h-6.2v4.5c0,.752-.2,1.1-.752,1.278a11.156,11.156,0,0,1-2.964.2,5.233,5.233,0,0,0-.482-1.144c1.2.045,2.318.045,2.633.03.331-.015.422-.091.422-.361v-4.5h-6.214v-1.113h6.214V135.4h.707a19.023,19.023,0,0,0,3.1-2.135h-8.47v-1.084h9.644l.27-.06.813.616a22.76,22.76,0,0,1-4.92,3.6v1.474h6.2Z"/><path class="cls-2" d="M386.729,163.372c1.069,1.609,3,2.588,5.612,2.964a4.292,4.292,0,0,0-.677.963c-2.934-.512-4.979-1.776-6.123-3.927h-.136c-.782,1.489-2.422,2.873-5.852,3.9a4.408,4.408,0,0,0-.677-.9c2.934-.811,4.468-1.865,5.251-2.993h-5.1v-.993h5.612a4.751,4.751,0,0,0,.286-1.414h-4.167v-.934h4.2v-1.339h-4.438v-.947h4.438V156.5h1.113v1.249h4.649v-1.73H380.335V157.9h-1.083v-2.889h5.732v-1.46H386.1v1.46h5.747V157.9h-1.129v.8h-4.649v1.339h4.439v.934h-4.469a6.653,6.653,0,0,1-.24,1.414h6.379v.993Z"/><path class="cls-2" d="M399.267,166.817l-1.008-.948c2.738-1.053,4.107-2.347,4.107-6.559v-.632h-4.288v2.437c0,.557.045,1.219.061,1.369h-1.325c.016-.15.061-.8.061-1.369v-2.437H395.25c-.647,0-1.324.045-1.5.06v-1.309a11.079,11.079,0,0,0,1.5.1h1.625v-1.926a9.332,9.332,0,0,0-.061-1.1h1.339a9.543,9.543,0,0,0-.075,1.1v1.926h4.288v-1.881a8.392,8.392,0,0,0-.075-1.233h1.355a11.051,11.051,0,0,0-.076,1.233v1.881h1.655a11.1,11.1,0,0,0,1.384-.075v1.264c-.166-.015-.722-.045-1.384-.045H403.57v.542C403.57,163.222,402.712,165.282,399.267,166.817Z"/><path class="cls-2" d="M414.587,157.88a17.909,17.909,0,0,0,4.107-3.535l1.009.932a24.648,24.648,0,0,1-4.062,3.356v6.348a11.582,11.582,0,0,0,.089,1.611h-1.473a14,14,0,0,0,.09-1.611v-5.566a29.7,29.7,0,0,1-5.733,2.452l-.6-1.174A24.845,24.845,0,0,0,414.587,157.88Z"/><path class="cls-2" d="M430.977,156.978a18.8,18.8,0,0,1-2.529,4.422,43.189,43.189,0,0,1,4.394,4.485l-1.053.917a34.908,34.908,0,0,0-4.138-4.484,19.111,19.111,0,0,1-5.868,4.409l-.963-1.008a17.212,17.212,0,0,0,6.2-4.469,13.287,13.287,0,0,0,2.5-4.2h-5.868c-.526,0-1.354.06-1.519.075v-1.355c.211.031,1.068.091,1.519.091h5.808a4.127,4.127,0,0,0,1.128-.12l.768.587A4.664,4.664,0,0,0,430.977,156.978Zm1.248-1.039-.813.362a19.327,19.327,0,0,0-1.2-2.076l.8-.347A20.729,20.729,0,0,1,432.225,155.939Zm1.746-.542-.813.362a17.426,17.426,0,0,0-1.234-2.062l.782-.345A18.9,18.9,0,0,1,433.971,155.4Z"/><path class="cls-2" d="M447.771,154.164v13.105h-1.188v-.813H436.427v.813H435.3V154.164ZM446.583,165.4V155.277H436.427V165.4Zm-2.182-7.793v5.432h-5.807v-5.432Zm-1.1,1.008h-3.641v3.431H443.3Z"/><path class="cls-2" d="M453,161.6v4.363c0,.616-.15.933-.526,1.113a5.476,5.476,0,0,1-2,.18,3.789,3.789,0,0,0-.331-1.008c.677.016,1.294.016,1.489,0,.2,0,.271-.059.271-.285v-4.032l-2.045.616-.3-1.083c.647-.165,1.46-.391,2.347-.647V157.6h-2.136v-1.024H451.9v-3.024H453v3.024h1.731V157.6H453v2.9l1.746-.526.151,1.038Zm10.472-1.942h-2.513v7.6h-1.1v-7.6h-2.963c-.016,2.3-.317,5.371-2.3,7.523a2.979,2.979,0,0,0-.828-.782c1.82-1.986,2.016-4.74,2.016-6.936v-4.784l1.083.2a33.97,33.97,0,0,0,5.191-1.158l.827.872a34.574,34.574,0,0,1-5.987,1.249v2.753h6.574Z"/><path class="cls-2" d="M476.7,166.2c.587,0,.693-.376.768-2.527a3.232,3.232,0,0,0,1.022.5c-.134,2.423-.435,3.069-1.7,3.069h-2.166c-1.324,0-1.7-.361-1.7-1.625V160.3h-2.769c-.285,3.279-1.038,5.732-4.784,6.966a3.478,3.478,0,0,0-.692-.949c3.506-1.052,4.062-3.174,4.3-6.017h-4v-1.069h6.047v-5.7h1.114v5.7h6.183V160.3H474.05v5.3c0,.5.12.6.691.6Zm-8.7-7.823a16.159,16.159,0,0,0-1.775-3.731l1.008-.376a14.683,14.683,0,0,1,1.821,3.685Zm9.178-3.852a31.743,31.743,0,0,1-2.091,3.807l-.934-.377a22.313,22.313,0,0,0,1.9-3.851Z"/><path class="cls-2" d="M493.312,163.011h-6.063v2.933c0,.662-.181.994-.723,1.159a11.172,11.172,0,0,1-2.768.18,4.828,4.828,0,0,0-.466-1.068c1.144.03,2.166.03,2.452.015.316-.015.391-.09.391-.316v-2.9h-6.018v-1.038h6.018V160.89h.572a12.6,12.6,0,0,0,2.121-1.325h-6.214v-.993h7.343l.226-.06.721.542a13.437,13.437,0,0,1-3.655,2.543v.376h6.063Zm-11.84-3.657H480.4v-3.325h2.3a12.482,12.482,0,0,0-1.264-1.88l.933-.421a10.05,10.05,0,0,1,1.444,2.045l-.511.256h3.069a8.914,8.914,0,0,0-1.113-2.2l.977-.361a9.253,9.253,0,0,1,1.219,2.3l-.646.256h2.663a16.24,16.24,0,0,0,1.609-2.391l1.158.39c-.466.678-1.022,1.4-1.534,2h2.332v3.325h-1.083v-2.332H481.472Z"/><path class="cls-2" d="M499.637,164.53a16.409,16.409,0,0,1-3.852,2.5,5.22,5.22,0,0,0-.857-.752,13.489,13.489,0,0,0,3.685-2.136Zm7.973-.15a8.278,8.278,0,0,0-.887-.813c-1.49.045-3.009.09-4.484.121v3.565h-1.083v-3.535c-2.212.06-4.258.09-5.838.12l-.089-.947c.977,0,2.181-.016,3.5-.031.211-.135.437-.256.648-.406a21.046,21.046,0,0,0-2.814-1.685l.722-.632c.3.15.632.316.979.481a16.688,16.688,0,0,0,1.654-1.459h-4.739v-.888h5.973v-.962h-4.348v-.858h4.348v-.963H495.98v-.857h5.176v-1.113h1.1v1.113h5.387v.857h-5.387v.963h4.514v.858h-4.514v.962h6.063v.888H501.4a29.164,29.164,0,0,1-2.346,1.911c.451.271.888.541,1.249.8a28.869,28.869,0,0,0,3.174-2.468l.993.557a39.238,39.238,0,0,1-4.063,2.874c1.656-.03,3.446-.06,5.206-.09-.526-.377-1.083-.722-1.594-1.023l.767-.587a17.529,17.529,0,0,1,3.656,2.588Zm-3.053-.241a17.954,17.954,0,0,1,3.7,2.151l-.872.662a18.443,18.443,0,0,0-3.656-2.226Z"/><path class="cls-2" d="M523.578,161.325h-6.2v4.5c0,.752-.2,1.1-.752,1.279a11.211,11.211,0,0,1-2.964.2,5.3,5.3,0,0,0-.481-1.144c1.2.045,2.317.045,2.632.031.332-.016.422-.091.422-.362v-4.5h-6.214v-1.113h6.214v-2.407h.707a19.091,19.091,0,0,0,3.1-2.136h-8.47v-1.084h9.644l.27-.06.813.617a22.732,22.732,0,0,1-4.92,3.6v1.474h6.2Z"/><path class="cls-2" d="M423.9,177.134a14.7,14.7,0,0,1-2.242,5.552,11.5,11.5,0,0,1-5.927,4.032l-1.024-1.129a10.035,10.035,0,0,0,5.868-3.625,11.444,11.444,0,0,0,1.971-4.905h-7.688c-.6,0-1.114.03-1.5.045V175.78c.42.045,1.007.09,1.5.09h7.552a3.1,3.1,0,0,0,.8-.075l.918.587A3.18,3.18,0,0,0,423.9,177.134Z"/><path class="cls-2" d="M432.93,178.2c0,.286.014.707.03,1.219h2.166a9.3,9.3,0,0,0,1.008-.061v1.189c-.256-.015-.692-.045-.978-.045h-2.181c.03,1.9.075,4.363.089,5.777a1.011,1.011,0,0,1-1.127,1.038c-.6,0-1.581-.045-2.182-.09l-.06-1.1a14.137,14.137,0,0,0,1.835.136.382.382,0,0,0,.407-.437c0-.948-.015-2.633-.045-4.227a16.9,16.9,0,0,1-5.237,4.438l-.842-.934a15.479,15.479,0,0,0,5.567-4.6h-4.017c-.406,0-.783.03-1.143.06v-1.2a8.856,8.856,0,0,0,1.113.061h4.528c-.014-.512-.03-.933-.045-1.219a6.4,6.4,0,0,0-.1-1.023h1.278A7.652,7.652,0,0,0,432.93,178.2Z"/><path class="cls-2" d="M439.448,176.307a9.518,9.518,0,0,0-.12-1.565H440.8c-.045.466-.105,1.113-.105,1.565v2.452a48.039,48.039,0,0,1,6.424,2.482l-.512,1.28A39.306,39.306,0,0,0,440.7,180.1c.015,2.256.015,4.528.015,4.965,0,.466.03,1.279.09,1.775h-1.459a13.3,13.3,0,0,0,.1-1.775Z"/><path class="cls-2" d="M460.967,177.314a23.534,23.534,0,0,1-5.477,6.109c.9.9,1.972,2.031,2.573,2.768l-1.1.872a36.488,36.488,0,0,0-2.708-3.069,35.729,35.729,0,0,0-3.445-2.964l.977-.8c.557.407,1.791,1.414,2.814,2.332a18.47,18.47,0,0,0,4.694-5.22H450.45c-.587,0-1.233.059-1.534.09v-1.354a11.59,11.59,0,0,0,1.534.12h8.967a3.184,3.184,0,0,0,.979-.12l.947.767A4.368,4.368,0,0,0,460.967,177.314Z"/><path class="cls-2" d="M472.586,176.983a19.1,19.1,0,0,1-2.527,4.409,41.56,41.56,0,0,1,4.392,4.5l-1.053.9a34.7,34.7,0,0,0-4.137-4.469,19.07,19.07,0,0,1-5.867,4.394l-.963-1.008a17.2,17.2,0,0,0,6.2-4.469,13.226,13.226,0,0,0,2.5-4.182h-5.867c-.527,0-1.355.06-1.52.075v-1.369c.211.03,1.069.09,1.52.09h5.807a4.075,4.075,0,0,0,1.128-.121l.768.587A4.281,4.281,0,0,0,472.586,176.983Z"/><path class="cls-2" d="M482.189,175.885a6.782,6.782,0,0,1-.36.633h4.077a2.5,2.5,0,0,0,.978-.152l1.008.617a4.668,4.668,0,0,0-.346.8,14.577,14.577,0,0,1-2.678,5.175,13.193,13.193,0,0,1-5.988,4.093l-1.083-.979a12.159,12.159,0,0,0,6-3.775,12.383,12.383,0,0,0,2.407-4.694h-5.086a15.261,15.261,0,0,1-3.821,3.7l-1.038-.782a12.4,12.4,0,0,0,4.724-5.086,5.109,5.109,0,0,0,.466-1.189l1.4.451A11.651,11.651,0,0,0,482.189,175.885Z"/><path class="cls-5" d="M415.081,102.6c0,.721-.181,1.083-.737,1.248a12.221,12.221,0,0,1-3.054.2,3.943,3.943,0,0,0-.436-1.084c1.218.046,2.392.046,2.723.016.316,0,.421-.091.421-.392v-1.865h-8.38a6.571,6.571,0,0,1-2.257,3.37,3.516,3.516,0,0,0-.767-.8c2.121-1.64,2.362-3.956,2.362-5.867V94.778a15.357,15.357,0,0,1-1.2.979,3.38,3.38,0,0,0-.813-.8,13.14,13.14,0,0,0,4.183-4.709l1.219.211c-.135.226-.271.466-.406.707h3.626l.18-.061.752.5a13.383,13.383,0,0,1-1.369,2.091h3.957Zm-9.042-4.951a12.941,12.941,0,0,1-.195,2.092h3.5V97.652Zm1.279-5.551a15.159,15.159,0,0,1-1.279,1.594h3.866a13.132,13.132,0,0,0,1.054-1.594Zm-1.279,4.588h3.31V94.7h-3.31ZM414,94.7h-3.565v1.986H414Zm0,5.041V97.652h-3.565v2.092Z"/><path class="cls-5" d="M428,93.47a19.094,19.094,0,0,1-2.527,4.408,41.651,41.651,0,0,1,4.392,4.5l-1.052.9a34.7,34.7,0,0,0-4.138-4.468A19.071,19.071,0,0,1,418.8,103.2l-.963-1.008a17.21,17.21,0,0,0,6.2-4.468,13.222,13.222,0,0,0,2.5-4.183h-5.867c-.526,0-1.355.06-1.52.075V92.251c.211.03,1.069.091,1.52.091h5.808a4.125,4.125,0,0,0,1.128-.121l.767.587A4.281,4.281,0,0,0,428,93.47Z"/><path class="cls-5" d="M431.579,97.908c.707-.722,2.017-2.392,2.964-3.506.812-.947,1.52-1.113,2.543-.15.918.873,2.2,2.212,3.084,3.16,1.009,1.067,2.513,2.708,3.671,3.942l-1.038,1.1c-1.068-1.294-2.392-2.829-3.355-3.927-.873-.993-2.272-2.482-2.9-3.1-.586-.572-.872-.512-1.384.105-.722.888-1.971,2.528-2.663,3.37-.3.376-.632.843-.857,1.159l-1.128-1.144C430.9,98.585,431.173,98.314,431.579,97.908Zm9.84-5.9a1.828,1.828,0,1,1-1.835,1.835A1.829,1.829,0,0,1,441.419,92.011Zm0,2.933a1.1,1.1,0,1,0-1.113-1.1A1.105,1.105,0,0,0,441.419,94.944Z"/><path class="cls-5" d="M451.865,92.371a6.782,6.782,0,0,1-.36.633h4.077a2.525,2.525,0,0,0,.978-.151l1.007.617a4.709,4.709,0,0,0-.345.8,14.6,14.6,0,0,1-2.678,5.174,13.193,13.193,0,0,1-5.988,4.093l-1.083-.978a12.172,12.172,0,0,0,6-3.776,12.412,12.412,0,0,0,2.407-4.694H450.8a15.244,15.244,0,0,1-3.821,3.7l-1.038-.782a12.411,12.411,0,0,0,4.724-5.086,5.109,5.109,0,0,0,.466-1.189l1.4.452A11.513,11.513,0,0,0,451.865,92.371Z"/><path class="cls-5" d="M461.228,92.793a9.5,9.5,0,0,0-.121-1.564h1.474c-.045.465-.1,1.113-.1,1.564v2.452a48.211,48.211,0,0,1,6.423,2.483l-.511,1.279a39.391,39.391,0,0,0-5.912-2.423c.014,2.257.014,4.528.014,4.965,0,.467.03,1.279.09,1.775h-1.459a13.288,13.288,0,0,0,.106-1.775Z"/><path class="cls-5" d="M472.877,98.781a26.884,26.884,0,0,0,.451-6.049,5.616,5.616,0,0,0-.1-1.1h1.383c-.014.179-.075.632-.075,1.083a32.836,32.836,0,0,1-.466,6.393,8.414,8.414,0,0,1-2.678,4.138l-1.128-.768A7.145,7.145,0,0,0,472.877,98.781Zm4.378,2.934V92.7a6.976,6.976,0,0,0-.091-1.113h1.385a9.02,9.02,0,0,0-.061,1.113v8.682a11.569,11.569,0,0,0,4.394-3.7l.707,1.022a14.949,14.949,0,0,1-5.131,4.168,3.36,3.36,0,0,0-.512.346l-.8-.662A3.587,3.587,0,0,0,477.255,101.715Z"/><path class="cls-5" d="M487.671,96.81a12.626,12.626,0,0,0-2.964-1.475l.587-.857a12.765,12.765,0,0,1,2.978,1.384Zm1.1,2.2c-.753,1.579-1.746,3.43-2.588,4.829l-.949-.723a45.185,45.185,0,0,0,2.694-4.829Zm-.347-6.154a11.963,11.963,0,0,0-2.918-1.64l.6-.827a11.02,11.02,0,0,1,2.949,1.55Zm9.118,11.194a9.852,9.852,0,0,0-.632-1.279c-2.9.225-5.929.421-8,.556l-.165-1.113,1.249-.061a35.33,35.33,0,0,0,1.805-4.528h-3.068V96.554h4.181V93.8h-3.429V92.748h3.429V90.3h1.144v2.453h3.566V93.8H494.05v2.753h4.273v1.068h-5.206c-.556,1.43-1.263,3.145-1.926,4.453,1.55-.075,3.34-.179,5.116-.3a25.828,25.828,0,0,0-1.55-2.135l.948-.5a20.432,20.432,0,0,1,2.874,4.318Z"/><path class="cls-2" d="M260.673,115.445a19.454,19.454,0,0,1-1.038,1.866v8.515h-1.023V118.8a15.571,15.571,0,0,1-1.294,1.535,6.252,6.252,0,0,0-.662-.979,14.839,14.839,0,0,0,3.039-4.242ZM260.4,112.5a15.509,15.509,0,0,1-2.964,3.445c-.135-.225-.436-.631-.6-.842a11.308,11.308,0,0,0,2.543-2.979ZM270.091,116a20.3,20.3,0,0,1-1.429,6.093,6.261,6.261,0,0,0,2.377,2.874,5.254,5.254,0,0,0-.737.887,6.8,6.8,0,0,1-2.2-2.693,8.723,8.723,0,0,1-2.512,2.693,5.826,5.826,0,0,0-.617-.842,7.391,7.391,0,0,0,2.648-2.964,23.118,23.118,0,0,1-1.083-4.363,8.333,8.333,0,0,1-.768,1.354l-.06-.091v.783h-.993v3.024c.451-.151.948-.316,1.445-.5l.15.843c-.978.39-1.956.766-2.814,1.083l-.3-.949c.18-.045.361-.105.571-.18v-3.325h-1.293v.783a6.623,6.623,0,0,1-1.746,4.934,3.009,3.009,0,0,0-.647-.737,5.606,5.606,0,0,0,1.444-4.228v-.752h-1.038v-.978h5.071a6.413,6.413,0,0,0-.542-.542,14.2,14.2,0,0,0,1.971-6.093l1.023.165a25.214,25.214,0,0,1-.542,2.738h3.28V116Zm-4.573,1.233h-4.74v-3.821h.783V116.3h1.113V112.12h.858V116.3h1.173v-2.889h.813Zm1.625-1.1a23.674,23.674,0,0,0,1.007,4.694,21.028,21.028,0,0,0,.963-4.829h-1.925Z"/><path class="cls-2" d="M277.122,122.32a20.12,20.12,0,0,0-1.519-2.03v5.551h-1.054v-5.656a14.438,14.438,0,0,1-2,3.746,5.717,5.717,0,0,0-.587-1.083,14.475,14.475,0,0,0,2.393-4.53h-2.182V117.28h2.377v-5.145H275.6v5.145h2.181v1.038H275.6v.768c.5.467,1.895,1.94,2.211,2.317ZM273.06,116.6a12.112,12.112,0,0,0-.8-3.22l.843-.211a12.194,12.194,0,0,1,.857,3.19Zm4.859-3.265c-.331,1.083-.767,2.422-1.113,3.234l-.767-.24a23.946,23.946,0,0,0,.887-3.25ZM285.8,124.2v1.054h-8.546V124.2h4.649a62.793,62.793,0,0,0,1.324-7.327l1.219.241c-.376,2.272-.948,5.176-1.474,7.086Zm-4.784-9.072v-2.858h1.128v2.858h3.416V116.2H277.9v-1.068Zm-1.279,8.365a30.036,30.036,0,0,0-.948-6.244l1.038-.195a30.122,30.122,0,0,1,1.008,6.258Z"/><path class="cls-2" d="M300.778,119.913h-6.2v4.5c0,.752-.2,1.1-.753,1.278a11.156,11.156,0,0,1-2.964.2,5.248,5.248,0,0,0-.481-1.144c1.2.045,2.317.045,2.633.03.331-.015.421-.09.421-.361v-4.5h-6.214V118.8h6.214v-2.407h.707a19.143,19.143,0,0,0,3.1-2.136h-8.471v-1.084h9.644l.271-.06.812.616a22.754,22.754,0,0,1-4.919,3.6V118.8h6.2Z"/><path class="cls-2" d="M309.464,117.627h-7.3v-.963h1.745v-1.775h-1.5v-.949h1.5v-1.669h1.023v1.669h1.941v-1.669h1.038v1.669h1.52v.949h-1.52v1.775h1.55Zm-.873,7.071c0,.541-.105.813-.481.978a5.365,5.365,0,0,1-1.881.165,3.279,3.279,0,0,0-.316-.933c.662.03,1.234.016,1.4.016.18-.016.24-.075.24-.241v-1.339h-3.28v2.527h-1.038v-7.252h5.356Zm-4.318-5.191v1.054h3.28v-1.054Zm3.28,2.964v-1.053h-3.28v1.053Zm-2.618-5.807h1.941v-1.775h-1.941Zm9.96-.707a17.874,17.874,0,0,1-1.745,6.032,7.5,7.5,0,0,0,2.873,2.935,4.03,4.03,0,0,0-.8.947,7.939,7.939,0,0,1-2.708-2.844,9.676,9.676,0,0,1-3.2,2.86,3.853,3.853,0,0,0-.662-.949,7.922,7.922,0,0,0,3.28-2.994,22.225,22.225,0,0,1-1.324-4.167,10.975,10.975,0,0,1-.962,1.866,6.233,6.233,0,0,0-.768-.918,17.088,17.088,0,0,0,2.091-6.6l1.084.165c-.151.888-.317,1.776-.527,2.618H315.9v1.054Zm-3.686.105a20.044,20.044,0,0,0,1.354,4.739,18.2,18.2,0,0,0,1.249-4.844h-2.573Z"/><path class="cls-2" d="M321.716,116.3h3.309v1.023h-3.309v2.512h2.708v5.642h-1.1v-.556h-4.288v.646h-1.054v-5.732h2.633v-2.512H317.2V116.3h3.415v-2.272c-.948.151-1.94.271-2.858.361a3.4,3.4,0,0,0-.316-.9,32.995,32.995,0,0,0,6.424-1.233l.858.842a19.642,19.642,0,0,1-3.009.737Zm1.61,4.544h-4.288v3.068h4.288Zm5.912,3.776c.557,0,.647-.572.722-2.813a3.029,3.029,0,0,0,1.008.5c-.12,2.482-.391,3.34-1.639,3.34h-1.972c-1.263,0-1.624-.407-1.624-1.926V112.3h1.1v11.434c0,.752.106.888.647.888Z"/><path class="cls-2" d="M269.441,147.208c.587,0,.692-.376.768-2.527a3.226,3.226,0,0,0,1.023.5c-.136,2.423-.437,3.069-1.7,3.069h-2.167c-1.324,0-1.7-.361-1.7-1.625v-5.31H262.9c-.286,3.279-1.038,5.732-4.785,6.965a3.489,3.489,0,0,0-.692-.948c3.506-1.053,4.062-3.174,4.3-6.017h-4v-1.069h6.049v-5.7h1.113v5.7h6.183v1.069h-4.273v5.295c0,.5.121.6.692.6Zm-8.7-7.823a16.183,16.183,0,0,0-1.775-3.732l1.008-.376a14.631,14.631,0,0,1,1.82,3.686Zm9.178-3.852a31.6,31.6,0,0,1-2.091,3.807l-.933-.377a22.316,22.316,0,0,0,1.895-3.852Z"/><path class="cls-2" d="M280.911,144.6a16.065,16.065,0,0,0,5.491,2.483,4.684,4.684,0,0,0-.722.918,17.053,17.053,0,0,1-5.747-2.994v3.249h-1.1v-3.219a17.573,17.573,0,0,1-5.7,3.068,4.363,4.363,0,0,0-.737-.917A16.131,16.131,0,0,0,277.9,144.6h-5.145v-.917h6.078v-.933h-4.257v-4.424a15.05,15.05,0,0,1-1.415,1.355,3.378,3.378,0,0,0-.8-.738,13.247,13.247,0,0,0,3.551-4.423l1.158.226a18.315,18.315,0,0,1-.948,1.579h2.9a12.7,12.7,0,0,0,.782-1.79l1.249.181c-.3.556-.617,1.128-.9,1.609h4.935v.888h-4.905v1.009h4.318v.8h-4.318v.994h4.363v.8h-4.363v1.039h5.492v.9h-5.747v.933H286.1v.917Zm-1.791-7.387h-3.5v1.009h3.5Zm0,1.805h-3.5v.994h3.5Zm-3.5,2.829h3.5v-1.039h-3.5Z"/><path class="cls-2" d="M292.47,143.6a18.227,18.227,0,0,0-1.324-1.822v6.47h-1.083v-6.574a15.381,15.381,0,0,1-2.121,3.866,6.174,6.174,0,0,0-.572-1.023,15.29,15.29,0,0,0,2.6-4.769h-2.212v-1.054h2.3v-2.271c-.692.12-1.4.24-2.046.315a3.44,3.44,0,0,0-.346-.857,21.854,21.854,0,0,0,4.589-1.113l.782.842a12.842,12.842,0,0,1-1.9.572v2.512h1.625v-.24h3.656v-.812h-2.859v-.723h2.859v-.782h-3.189v-.752h3.189v-.828h1.114v.828h3.415v.752h-3.415v.782h3.039v.723h-3.039v.812h3.791v.767h-8.485v.527h-1.7v.917c.467.452,1.7,1.716,1.986,2.047Zm3.927,2.918a11.562,11.562,0,0,1-3.565,1.82,6.662,6.662,0,0,0-.723-.736,9.847,9.847,0,0,0,3.355-1.641Zm-2.618-.632v-5.9h6.695v5.9Zm1.023-4.2h4.619v-.949H294.8Zm0,1.714h4.619v-.977H294.8Zm0,1.731h4.619v-1.008H294.8Zm3.777.873c1.008.571,2.166,1.264,2.873,1.745l-.978.541c-.6-.451-1.685-1.158-2.648-1.729Z"/><path class="cls-2" d="M315.765,135.172v13.1h-1.189v-.812H304.421v.812h-1.129v-13.1Zm-1.189,11.238V136.285H304.421V146.41Zm-2.181-7.793v5.432h-5.808v-5.432Zm-1.1,1.008h-3.641v3.431H311.3Z"/><path class="cls-2" d="M330.394,136.346a11.443,11.443,0,0,1-2.2,4,10.069,10.069,0,0,0,3.43,2.211,4.209,4.209,0,0,0-.691.918c-.151-.076-.316-.151-.482-.226v4.965h-1.068v-.5h-3.761v.541h-1.039v-5.025c-.3.165-.6.3-.9.437a3.022,3.022,0,0,0-.542-.753h-1.579v2.693c.646-.15,1.308-.3,1.97-.467l.106,1.009c-2.047.5-4.183,1.008-5.763,1.4l-.21-1.083.767-.165v-5.131h.948v4.934l1.158-.27v-6.078h-2.106v-4.589h4.859v3.987a10.943,10.943,0,0,0,2.724-4.619l1.068.256c-.15.436-.316.872-.481,1.278h2.9l.2-.045Zm-10.968,2.437h2.828v-2.634h-2.828Zm3.987,3.866a10.751,10.751,0,0,0,3.415-2.346,13.745,13.745,0,0,1-1.384-2.062,10.883,10.883,0,0,1-1.369,1.731,6.122,6.122,0,0,0-.783-.662v.451h-1.729v2.166h1.85Zm6.334.211a11.332,11.332,0,0,1-2.226-1.775,12.023,12.023,0,0,1-2.257,1.775Zm-.361,3.867v-2.889h-3.761v2.889Zm-3.25-9.674-.15.286a12.163,12.163,0,0,0,1.489,2.256,9.789,9.789,0,0,0,1.55-2.542Z"/><path class="cls-2" d="M277.289,157.684v13.1H276.1v-.812H265.945v.812h-1.128v-13.1ZM276.1,168.922V158.8H265.945v10.125Zm-2.182-7.793v5.432h-5.807v-5.432Zm-1.1,1.008H269.18v3.43h3.641Z"/><path class="cls-2" d="M282.515,165.116v4.363c0,.617-.151.933-.527,1.114a5.482,5.482,0,0,1-2,.179,3.748,3.748,0,0,0-.331-1.007c.677.015,1.294.015,1.49,0,.195,0,.271-.06.271-.286v-4.032l-2.047.616-.3-1.083c.647-.165,1.46-.39,2.348-.646v-3.22H279.28v-1.023h2.137v-3.025h1.1v3.025h1.73v1.023h-1.73v2.9l1.745-.527.15,1.038Zm10.471-1.941h-2.512v7.6h-1.1v-7.6h-2.964c-.015,2.3-.316,5.371-2.3,7.522a2.934,2.934,0,0,0-.827-.782c1.821-1.985,2.016-4.739,2.016-6.936V158.2l1.083.2a33.84,33.84,0,0,0,5.191-1.159l.827.872a34.656,34.656,0,0,1-5.988,1.25v2.752h6.575Z"/><path class="cls-2" d="M306.938,158.947a10.617,10.617,0,0,1-2.422,3.943,10.652,10.652,0,0,0,3.746,2.015,4.3,4.3,0,0,0-.692.933c-.241-.09-.482-.181-.707-.271v5.176H305.81v-.6h-4.2v.662h-1.023v-5.13a11.609,11.609,0,0,1-1.189.5,3.141,3.141,0,0,0-.631-.9,12.457,12.457,0,0,0,4.257-2.377,11.675,11.675,0,0,1-1.565-2.107,11.555,11.555,0,0,1-1.474,1.595,6.183,6.183,0,0,0-.887-.753c.12-.1.255-.21.376-.315H297.76v.676c.437.482,1.61,1.926,1.9,2.287l-.662.873c-.241-.436-.767-1.234-1.234-1.88v7.506h-1.068v-7.1a15.988,15.988,0,0,1-2,4.3,5.046,5.046,0,0,0-.587-.994,16.265,16.265,0,0,0,2.468-5.671h-2.121v-1.039h2.241v-3.219h1.068v3.219H299.7v.828a11.445,11.445,0,0,0,2.663-4.062l1.084.3c-.181.451-.392.888-.617,1.323h3.219l.2-.045Zm-.632,6.365a10.917,10.917,0,0,1-2.528-1.7,14.035,14.035,0,0,1-2.452,1.7Zm-.5,3.851v-2.889h-4.2v2.889Zm-3.731-9.253a9.894,9.894,0,0,0,1.685,2.287,9.4,9.4,0,0,0,1.775-2.557h-3.28Z"/><path class="cls-2" d="M323,164.845h-6.2v4.5c0,.752-.2,1.1-.752,1.278a11.128,11.128,0,0,1-2.964.2,5.291,5.291,0,0,0-.481-1.143c1.2.045,2.317.045,2.632.03.331-.016.422-.091.422-.361v-4.5H309.44v-1.114h6.214v-2.407h.707a19.134,19.134,0,0,0,3.1-2.136h-8.47V158.1h9.644l.271-.059.812.616a22.793,22.793,0,0,1-4.92,3.6v1.473H323Z"/><path class="cls-5" d="M261.914,190.571c-.286.587-.587,1.189-.917,1.745h7.251v7.6c0,.677-.15,1.008-.632,1.189A9.247,9.247,0,0,1,265,201.3a4.3,4.3,0,0,0-.362-1.1c.993.045,1.9.03,2.167.03s.346-.09.346-.316V198.35h-6.274v2.963h-1.1v-7.237a12.391,12.391,0,0,1-2.5,2.362,5.462,5.462,0,0,0-.722-.857,12.582,12.582,0,0,0,4.137-5.01h-3.776v-1.053h4.243a19.761,19.761,0,0,0,.662-1.941l1.113.271c-.18.556-.361,1.129-.586,1.67h7.657v1.053Zm5.236,2.753h-6.274v1.52h6.274Zm0,4.063v-1.58h-6.274v1.58Z"/><path class="cls-5" d="M276.844,188.63c-.467,1.265-1.084,2.8-1.656,3.973a4.382,4.382,0,0,1,1.49,3.234,1.908,1.908,0,0,1-.617,1.73,1.984,1.984,0,0,1-.842.286,6.833,6.833,0,0,1-1.114.015,2.439,2.439,0,0,0-.286-1.023,5.635,5.635,0,0,0,.978.03,1.355,1.355,0,0,0,.527-.136,1.206,1.206,0,0,0,.346-1.022,4.174,4.174,0,0,0-1.5-2.98c.481-1.083.978-2.466,1.338-3.49h-2.211v12.066H272.24V188.224h3.686l.18-.045Zm8.184,7.222a21.1,21.1,0,0,1-2.422,1.971,6.473,6.473,0,0,0,2.8,2.528,3.571,3.571,0,0,0-.737.918c-2.211-1.129-3.581-3.461-4.3-6.4h-1.625v4.634c.918-.181,1.9-.376,2.859-.571l.075.962c-1.881.436-3.881.872-5.341,1.2l-.361-1.083c.482-.09,1.053-.2,1.685-.317V188.239h6.74v6.635h-3.069a11.03,11.03,0,0,0,.827,2.167,17.229,17.229,0,0,0,2-1.806Zm-6.289-6.62v1.835h4.544v-1.835Zm0,4.649h4.544v-1.865h-4.544Z"/><path class="cls-5" d="M300.154,194.212v1.008h-9.012a10.711,10.711,0,0,1-3.566,6.108,7.21,7.21,0,0,0-.933-.782,8.785,8.785,0,0,0,3.31-5.326H286.9v-1.008h6.048v-1.369H288.3V191.9h4.649v-1.31h-5.371v-.993h3.054a8.716,8.716,0,0,0-1.008-1.579l.948-.392a7.2,7.2,0,0,1,1.2,1.866l-.225.1h3.867l-.121-.045a13.61,13.61,0,0,0,1.1-1.985l1.173.33c-.361.6-.767,1.218-1.128,1.7H299.6v.993h-5.522v1.31h4.77v.947h-4.77v1.369Zm-4.875,5.747h4.574v.993H289.682v-.993h4.454v-2.633h-3.025v-.977h7.749v.977h-3.581Z"/><path class="cls-5" d="M307.139,188.224a15.489,15.489,0,0,1-4.724,6.183,6.525,6.525,0,0,0-.948-.857,12.779,12.779,0,0,0,4.5-5.657Zm6.109,5.01s-.016.391-.03.541c-.211,4.62-.437,6.35-.948,6.921a1.51,1.51,0,0,1-1.159.527,21.364,21.364,0,0,1-2.362-.03,2.721,2.721,0,0,0-.376-1.113c.978.09,1.911.1,2.257.1.316,0,.5-.03.632-.2.391-.376.6-1.881.782-5.672h-3.882c-.391,2.964-1.354,5.688-5.175,7.072a4.455,4.455,0,0,0-.722-.979c3.535-1.173,4.363-3.55,4.709-6.093H303.9v-1.083Zm-2.092-5.371a15.915,15.915,0,0,0,4.529,5.416,5.772,5.772,0,0,0-.918.993,19.875,19.875,0,0,1-4.664-5.988Z"/><path class="cls-5" d="M319.707,194.106a12.665,12.665,0,0,0-2.964-1.474l.587-.858a12.774,12.774,0,0,1,2.979,1.385Zm1.1,2.2c-.753,1.579-1.746,3.429-2.588,4.829l-.948-.723a45.369,45.369,0,0,0,2.693-4.829Zm-.347-6.155a12,12,0,0,0-2.918-1.639l.6-.827a11.028,11.028,0,0,1,2.948,1.549Zm9.118,11.195a10.054,10.054,0,0,0-.632-1.28c-2.9.226-5.928.422-8,.557l-.166-1.113,1.249-.061a35.48,35.48,0,0,0,1.806-4.528h-3.07v-1.068h4.183V191.1h-3.43v-1.053h3.43v-2.453h1.143v2.453h3.566V191.1h-3.566v2.753h4.273v1.068h-5.206c-.556,1.43-1.263,3.144-1.925,4.453,1.549-.075,3.34-.18,5.115-.3a25.6,25.6,0,0,0-1.55-2.135l.948-.5a20.423,20.423,0,0,1,2.874,4.319Z"/><path class="cls-5" d="M261.914,213.6c-.286.586-.587,1.188-.917,1.745h7.251v7.6c0,.677-.15,1.008-.632,1.189a9.247,9.247,0,0,1-2.617.2,4.3,4.3,0,0,0-.362-1.1c.993.045,1.9.031,2.167.031.256-.016.346-.091.346-.317v-1.564h-6.274v2.964h-1.1v-7.238a12.4,12.4,0,0,1-2.5,2.363,5.424,5.424,0,0,0-.722-.858A12.579,12.579,0,0,0,260.7,213.6h-3.776v-1.054h4.243a19.761,19.761,0,0,0,.662-1.941l1.113.271c-.18.557-.361,1.129-.586,1.67h7.657V213.6Zm5.236,2.752h-6.274v1.52h6.274Zm0,4.063v-1.58h-6.274v1.58Z"/><path class="cls-5" d="M276.844,211.661c-.467,1.265-1.084,2.8-1.656,3.973a4.384,4.384,0,0,1,1.49,3.234,1.911,1.911,0,0,1-.617,1.731,2,2,0,0,1-.842.285,6.722,6.722,0,0,1-1.114.015,2.439,2.439,0,0,0-.286-1.023,5.635,5.635,0,0,0,.978.03,1.338,1.338,0,0,0,.527-.135,1.209,1.209,0,0,0,.346-1.023,4.172,4.172,0,0,0-1.5-2.979c.481-1.083.978-2.467,1.338-3.491h-2.211v12.067H272.24v-13.09h3.686l.18-.045Zm8.184,7.222a21,21,0,0,1-2.422,1.971,6.473,6.473,0,0,0,2.8,2.528,3.588,3.588,0,0,0-.737.918c-2.211-1.129-3.581-3.461-4.3-6.4h-1.625v4.634c.918-.181,1.9-.376,2.859-.571l.075.963c-1.881.435-3.881.872-5.341,1.2l-.361-1.083c.482-.09,1.053-.2,1.685-.317V211.271h6.74v6.634h-3.069a11.03,11.03,0,0,0,.827,2.167,17.226,17.226,0,0,0,2-1.805Zm-6.289-6.619V214.1h4.544v-1.835Zm0,4.648h4.544v-1.865h-4.544Z"/><path class="cls-5" d="M297.355,219.711a6.187,6.187,0,0,1-1.9,2.392c1.716.452,3.25.933,4.409,1.369l-.677.9a40.585,40.585,0,0,0-4.86-1.565,18.471,18.471,0,0,1-6.951,1.519,2.927,2.927,0,0,0-.421-.963,20.729,20.729,0,0,0,5.777-.947q-1.331-.317-2.708-.587l-.316.406-1.053-.361c.466-.587,1.023-1.369,1.6-2.166h-3.5v-.933H290.9c.316-.481.632-.948.9-1.384h-3.957v-3.867h3.325v-1.263h-4.063v-.993h12.849v.993H295.73v1.263h3.6v3.867h-6.71l.406.1c-.255.406-.542.843-.842,1.279h8.154v.933Zm-8.455-3.235h2.272v-2.031H288.9Zm2.648,3.235c-.316.451-.632.9-.933,1.309,1.189.225,2.377.481,3.506.751a5.372,5.372,0,0,0,2-2.06Zm.692-6.184h2.422v-1.263H292.24Zm2.422,2.949v-2.031H292.24v2.031Zm1.068-2.031v2.031h2.5v-2.031Z"/><path class="cls-5" d="M306.492,221.606a16.418,16.418,0,0,1-3.851,2.5,5.14,5.14,0,0,0-.858-.752,13.493,13.493,0,0,0,3.686-2.137Zm7.974-.15a8.272,8.272,0,0,0-.887-.812c-1.49.044-3.01.089-4.484.12v3.565h-1.083v-3.535c-2.212.06-4.258.09-5.838.12l-.09-.947c.978,0,2.182-.016,3.506-.03.21-.136.436-.256.646-.407a21.181,21.181,0,0,0-2.813-1.685l.723-.632c.3.15.631.316.977.481a16.586,16.586,0,0,0,1.655-1.459h-4.739v-.887h5.973v-.963h-4.348v-.858h4.348v-.963h-5.176v-.857h5.176v-1.113h1.1v1.113H314.5v.857H309.11v.963h4.514v.858H309.11v.963h6.063v.887h-6.921a28.99,28.99,0,0,1-2.346,1.911c.451.271.887.542,1.248.8a28.7,28.7,0,0,0,3.175-2.467l.993.556a39.224,39.224,0,0,1-4.062,2.874c1.655-.03,3.445-.06,5.2-.09-.527-.377-1.083-.722-1.594-1.023l.767-.587a17.529,17.529,0,0,1,3.656,2.588Zm-3.054-.241a17.937,17.937,0,0,1,3.7,2.151l-.872.662a18.5,18.5,0,0,0-3.657-2.226Z"/><path class="cls-5" d="M319.707,217.138a12.626,12.626,0,0,0-2.964-1.475l.587-.857a12.774,12.774,0,0,1,2.979,1.384Zm1.1,2.2c-.753,1.579-1.746,3.43-2.588,4.829l-.948-.723a45.27,45.27,0,0,0,2.693-4.829Zm-.347-6.154a11.963,11.963,0,0,0-2.918-1.64l.6-.827a11.028,11.028,0,0,1,2.948,1.55Zm9.118,11.194a10.047,10.047,0,0,0-.632-1.279c-2.9.225-5.928.422-8,.556l-.166-1.113,1.249-.06a35.553,35.553,0,0,0,1.806-4.529h-3.07v-1.068h4.183v-2.753h-3.43v-1.053h3.43v-2.453h1.143v2.453h3.566v1.053h-3.566v2.753h4.273v1.068h-5.206c-.556,1.43-1.263,3.145-1.925,4.453,1.549-.075,3.34-.179,5.115-.3a25.452,25.452,0,0,0-1.55-2.136l.948-.5a20.418,20.418,0,0,1,2.874,4.318Z"/><g class="cls-6"><rect class="cls-7" x="374.133" y="113.709" width="156.242" height="130.907" rx="7.037"/></g><line class="cls-1" x1="214.24" y1="246.766" x2="214.24" y2="3.55"/><polygon points="217.757 6.4 217.127 6.986 214.241 3.88 211.353 6.986 210.723 6.4 214.241 2.618 217.757 6.4"/><path class="cls-2" d="M450.39,284.653l.748.386a7.8,7.8,0,0,0,0,11.1l-.748.386a8.337,8.337,0,0,1,0-11.868Z"/><path class="cls-2" d="M463.048,288.442H460.13v6.446c0,.76-.212,1.072-.723,1.221a11.456,11.456,0,0,1-2.793.188,4.419,4.419,0,0,0-.411-1.035c1.148.037,2.219.037,2.556.025.3-.013.4-.1.4-.387v-6.458h-7.206v-.91h7.206V284.9h.972v2.63h2.918Zm-8.889,1.247a12.414,12.414,0,0,1,2.319,3.1l-.824.523a13.534,13.534,0,0,0-2.281-3.167Z"/><path class="cls-2" d="M466.716,290.3a10.519,10.519,0,0,0-2.456-1.222l.486-.71a10.615,10.615,0,0,1,2.469,1.147Zm.91,1.82c-.623,1.31-1.446,2.843-2.145,4l-.785-.6a37.223,37.223,0,0,0,2.232-4Zm-.287-5.1a9.935,9.935,0,0,0-2.418-1.358l.5-.685a9.146,9.146,0,0,1,2.443,1.283Zm7.555,9.276a8.041,8.041,0,0,0-.524-1.06c-2.406.187-4.912.349-6.632.461l-.137-.923,1.035-.049a29.535,29.535,0,0,0,1.5-3.752h-2.543v-.886h3.465v-2.281h-2.842v-.872h2.842V284.9H472v2.033h2.954v.872H472v2.281h3.54v.886h-4.313c-.461,1.184-1.047,2.605-1.6,3.689,1.284-.061,2.767-.149,4.238-.249a21.717,21.717,0,0,0-1.283-1.77l.785-.412a16.944,16.944,0,0,1,2.381,3.579Z"/><path class="cls-2" d="M479.173,286.647a30.958,30.958,0,0,0-.623,5.025,11.581,11.581,0,0,0,.125,1.732c.2-.56.5-1.321.71-1.832l.511.4c-.3.873-.76,2.144-.885,2.755a2.228,2.228,0,0,0-.05.561c0,.124.013.3.025.436l-.873.062a15.073,15.073,0,0,1-.473-3.939,37.121,37.121,0,0,1,.573-5.248,7.357,7.357,0,0,0,.075-.885l1.1.087A6.723,6.723,0,0,0,479.173,286.647Zm6.3-.174c-.013.337-.026.923-.037,1.508a20.914,20.914,0,0,0,2.156-.287v.96c-.686.113-1.408.188-2.156.238.011,1.258.1,2.5.149,3.552a8.23,8.23,0,0,1,2.468,1.609l-.548.835a10.227,10.227,0,0,0-1.883-1.447v.262c0,1.023-.473,2.008-2.156,2.008s-2.594-.661-2.594-1.783c0-1.047.936-1.882,2.569-1.882a5.705,5.705,0,0,1,1.159.112c-.037-.96-.113-2.181-.124-3.2-.4.013-.8.025-1.2.025-.711,0-1.358-.038-2.094-.087v-.935c.711.062,1.372.1,2.12.1.386,0,.785-.013,1.172-.026v-1.546c0-.212-.026-.548-.05-.76h1.121Q485.487,286.1,485.469,286.473Zm-2.182,8.34c1.047,0,1.359-.536,1.359-1.359,0-.124,0-.274-.012-.436a4.272,4.272,0,0,0-1.273-.2c-.934,0-1.595.4-1.595,1.01C481.766,294.464,482.39,294.813,483.287,294.813Z"/><path class="cls-2" d="M491.381,290.351a13.166,13.166,0,0,0-2.194-1.334l.536-.674a14.205,14.205,0,0,1,2.194,1.247Zm.86,1.756c-.56,1.31-1.3,2.856-1.932,4l-.81-.56a36.583,36.583,0,0,0,2.031-3.989Zm-.237-5a12.813,12.813,0,0,0-2.144-1.433l.524-.66a11.425,11.425,0,0,1,2.156,1.346Zm7.68,2.869a9.327,9.327,0,0,1-2.107,3.938,8.25,8.25,0,0,0,3.116,1.571,3.419,3.419,0,0,0-.61.8,8.728,8.728,0,0,1-3.154-1.745,9.777,9.777,0,0,1-3.055,1.77,3.551,3.551,0,0,0-.6-.773,9.18,9.18,0,0,0,3-1.621,10.6,10.6,0,0,1-1.982-3.341h-.312a10.11,10.11,0,0,1-1.608,5.7,2.99,2.99,0,0,0-.773-.473c1.359-1.721,1.5-4.176,1.5-5.984v-3.129h3v-1.8h.911v1.8h2.743l.149-.038.66.188a17.352,17.352,0,0,1-1.059,2.5l-.785-.249c.2-.4.423-.973.635-1.533h-2.343v2.181h1.92l.174-.037ZM494,287.558v2.181h2.106v-2.181Zm1.172,3.016a8.506,8.506,0,0,0,1.745,2.743,7.614,7.614,0,0,0,1.633-2.743Z"/><path class="cls-2" d="M512.366,292.27a20.207,20.207,0,0,1-2.8,1.7,8.419,8.419,0,0,0,3.552,1.533,2.891,2.891,0,0,0-.573.81,7.794,7.794,0,0,1-5.8-4.65h-1.77v3.291c1.035-.175,2.169-.361,3.266-.549l.037.824c-1.982.348-4.114.711-5.6.96l-.237-.848c.449-.063,1-.149,1.583-.237v-3.441h-2.181v-.835h2.181v-5.435h7.679v.785h-6.731v1.035h6.358v.76h-6.358V289h6.358v.761h-6.358v1.059h7.941v.835h-5.224a6.3,6.3,0,0,0,1.285,1.8,19.024,19.024,0,0,0,2.629-1.683Z"/><path class="cls-2" d="M525.4,294.053h-5.111v2.231h-.935v-2.231h-5.024v-.861h5.024v-1.134H515.5v-4.974h1.147a9.6,9.6,0,0,0-1.172-1.708l.785-.349a10.183,10.183,0,0,1,1.271,1.733l-.635.324h2.68a8.19,8.19,0,0,0-.96-1.895l.823-.312a8.5,8.5,0,0,1,1.022,1.92l-.71.287h2.219a13,13,0,0,0,1.308-2.169l1,.324c-.386.623-.847,1.309-1.259,1.845h1.309v4.974h-4.039v1.134H525.4Zm-8.989-4.85h2.943v-1.334h-2.943Zm2.943,2.069v-1.334h-2.943v1.334Zm4.026-3.4h-3.091V289.2h3.091Zm0,2.069h-3.091v1.334h3.091Z"/><path class="cls-2" d="M530.424,285.2a18.807,18.807,0,0,1-1.272,2.569v8.464h-.872V289.1a12.788,12.788,0,0,1-1.371,1.62,7.857,7.857,0,0,0-.536-.91,13.686,13.686,0,0,0,3.191-4.887Zm7.642,9.624v.873h-8.177v-.873h4.3a41.056,41.056,0,0,0,1.546-5.9l1,.175a52.141,52.141,0,0,1-1.645,5.721Zm-4.65-7.492v-2.294h.936v2.294h3.4v.873h-7.567v-.873Zm-1.271,6.906a30.817,30.817,0,0,0-.923-5.049l.823-.149a31.741,31.741,0,0,1,1.01,5Z"/><path class="cls-2" d="M539.429,296.521l-.748-.386a7.8,7.8,0,0,0,0-11.1l.748-.386a8.337,8.337,0,0,1,0,11.868Z"/></svg>