<svg id="レイヤー_1" data-name="レイヤー 1" xmlns="http://www.w3.org/2000/svg" viewBox="0 0 718 166"><defs><style>.cls-1{fill:#fff;}.cls-2,.cls-3{fill:none;stroke-miterlimit:6.045;}.cls-2{stroke:#000;stroke-width:1.618px;stroke-dasharray:3.268 3.268;}.cls-3{stroke:red;stroke-width:0.809px;}.cls-4{fill:red;}.cls-5{isolation:isolate;}.cls-6{fill:#040;}</style></defs><path class="cls-1" d="M375.943,72.861a29.12,29.12,0,1,1-29.12-29.119,29.119,29.119,0,0,1,29.12,29.119"/><path class="cls-2" d="M375.943,72.861a29.12,29.12,0,1,0-29.12,29.12A29.133,29.133,0,0,0,375.943,72.861Z"/><path d="M343.785,86.45a2.492,2.492,0,1,1,4.974,0,2.487,2.487,0,1,1-4.974,0m9.491-21.262c0-2.943-2.072-5.14-6.465-5.14q-4.351,0-8.082,3.855l-1.99-1.865c2.735-2.86,5.886-4.766,10.4-4.766,5.8,0,9.449,3.025,9.449,7.667,0,6.3-10.03,7.668-8.869,13.968H344.7c-1.368-6.964,8.579-8.869,8.579-13.719"/><path class="cls-3" d="M225.436,48.279h69.446"/><path class="cls-4" d="M293.279,50.629l8.769-2.349-8.769-2.351Z"/><path class="cls-3" d="M225.436,72.861h69.446"/><path class="cls-4" d="M293.279,75.211l8.769-2.35-8.769-2.35Z"/><path class="cls-3" d="M393,72.861h69.446"/><path class="cls-4" d="M460.842,75.211l8.768-2.35-8.768-2.35Z"/><path class="cls-3" d="M384.269,46.457,441.6,5.827"/><path class="cls-4" d="M441.649,8.67l5.8-6.987-8.513,3.153,2.718,3.834Z"/><path class="cls-3" d="M384.269,99.266,441.6,139.9"/><path class="cls-4" d="M438.931,140.886l8.512,3.153-5.794-6.986Z"/><path class="cls-3" d="M225.436,97.443h69.446"/><path class="cls-4" d="M293.279,99.792l8.769-2.349-8.769-2.35Z"/><g class="cls-5"><path d="M340.442,116.832v3.532h-.67v-3.318c-.572.174-1.126.349-1.6.494l-.194-.688c.5-.136,1.116-.3,1.8-.515v-2.164h-.883a7.611,7.611,0,0,1-.427,1.436,3.441,3.441,0,0,0-.553-.32,11.37,11.37,0,0,0,.67-3.231l.63.106c-.048.437-.116.883-.184,1.311h.747V111.5h.67v1.971h.99v.7h-.99v1.979l1.126-.348.1.639Zm6.347-3.717s0,.281-.01.369c-.214,4.4-.427,5.9-.815,6.385a.833.833,0,0,1-.67.369,5.849,5.849,0,0,1-1.106,0,1.568,1.568,0,0,0-.2-.708c.437.038.825.048,1.019.048a.411.411,0,0,0,.359-.165c.311-.339.524-1.775.719-5.618h-.466c-.486,2.542-1.553,5.123-3.164,6.4a2.169,2.169,0,0,0-.6-.436c1.592-1.146,2.64-3.533,3.145-5.968h-.8a9.438,9.438,0,0,1-2.387,4.395,2.4,2.4,0,0,0-.573-.417,8.2,8.2,0,0,0,2.339-3.978h-.835a8.015,8.015,0,0,1-1.106,1.844,4.684,4.684,0,0,0-.553-.418,8.306,8.306,0,0,0,1.7-3.727l.66.136a13.926,13.926,0,0,1-.427,1.485Z"/><path d="M350.439,111.737a16.382,16.382,0,0,1-.864,2.048v6.56h-.689v-5.366a10.384,10.384,0,0,1-.825,1.116,5.456,5.456,0,0,0-.417-.709,11.284,11.284,0,0,0,2.125-3.853Zm3.659,2.407a9.654,9.654,0,0,0,2.62,4.076,2.558,2.558,0,0,0-.544.572,10.931,10.931,0,0,1-2.542-4.25v3.367h1.562v.66h-1.562v1.738h-.7v-1.738h-1.582v-.66h1.582v-3.3a11.187,11.187,0,0,1-2.572,4.2,3.41,3.41,0,0,0-.524-.543,9.943,9.943,0,0,0,2.659-4.125h-2.28v-.7h2.717v-1.912h.7v1.912h2.891v.7Z"/></g><g class="cls-5"><path d="M187.647,76.95a9.091,9.091,0,0,0,1.271-1.989l.68.193a10.888,10.888,0,0,1-1.262,2.107Zm1.165-2.174h-.68V68.76h2.805v5.521h-2.125Zm0-5.367V71.1h1.456v-1.69Zm1.456,4.222V71.738h-1.456v1.893Zm.912,1.533a12.52,12.52,0,0,1,.242,1.9l-.708.107a11.407,11.407,0,0,0-.2-1.931Zm2.5-5.773a2.776,2.776,0,0,1-2.233,2.4,2.07,2.07,0,0,0-.388-.543,2.257,2.257,0,0,0,1.912-1.853h-1.611V68.75h4.765s-.01.184-.02.281c-.087,1.4-.174,1.97-.388,2.194a.727.727,0,0,1-.563.222,8.167,8.167,0,0,1-1.087-.009,1.512,1.512,0,0,0-.194-.592c.428.039.825.049.971.049a.374.374,0,0,0,.3-.088c.116-.126.194-.5.262-1.416Zm2.173,5.2h-4.211V71.923h4.211Zm-.708-2.077h-2.824V73.99h2.824Zm-1.9,2.562a10.923,10.923,0,0,1,.63,1.912l-.708.165a11.979,11.979,0,0,0-.592-1.941Zm1.941-.194a14.119,14.119,0,0,1,1.261,2.028l-.689.311a13.019,13.019,0,0,0-1.213-2.068Z"/><path d="M198.391,74.688v.894h-.679V68.943h3.163v5.745Zm0-5.094v1.834h1.815V69.594Zm1.815,4.426V72.088h-1.815V74.02Zm5.667,2.231c0,.456-.1.68-.407.806a6.129,6.129,0,0,1-1.67.126,2.479,2.479,0,0,0-.271-.7c.631.02,1.242.01,1.4.01.184-.01.253-.068.253-.243V74.116h-2.863a4.952,4.952,0,0,1-1.805,3.155,2.823,2.823,0,0,0-.534-.5,5.3,5.3,0,0,0,1.795-4.58V68.76h4.1Zm-.7-2.8v-1.7h-2.708v.437a11.5,11.5,0,0,1-.058,1.261Zm-2.708-4.018V71.1h2.708V69.438Z"/><path d="M214.735,76.514c.378,0,.447-.243.495-1.631a2.073,2.073,0,0,0,.66.32c-.087,1.563-.282,1.98-1.1,1.98h-1.4c-.854,0-1.1-.233-1.1-1.048V72.709h-1.785c-.185,2.116-.67,3.7-3.086,4.493a2.259,2.259,0,0,0-.447-.611c2.261-.679,2.621-2.048,2.776-3.882h-2.582v-.688h3.9V68.342h.718v3.679h3.989v.688h-2.756v3.416c0,.32.077.389.447.389Zm-5.609-5.047a10.421,10.421,0,0,0-1.146-2.406l.651-.244a9.464,9.464,0,0,1,1.174,2.378Zm5.919-2.485a20.435,20.435,0,0,1-1.348,2.456l-.6-.243a14.486,14.486,0,0,0,1.223-2.484Z"/></g><g class="cls-5"><path d="M478.908,71.894H474.2v-.622h1.126V70.128h-.971v-.611h.971V68.439h.66v1.078h1.252V68.439h.669v1.078h.981v.611h-.981v1.144h1Zm-.562,4.561c0,.35-.069.524-.311.631a3.476,3.476,0,0,1-1.214.106,2.073,2.073,0,0,0-.2-.6c.427.019.8.01.9.01s.155-.049.155-.156v-.863h-2.115v1.63h-.67V72.534h3.455Zm-2.785-3.348v.679h2.115v-.679Zm2.115,1.912V74.34h-2.115v.679Zm-1.689-3.747h1.252V70.128h-1.252Zm6.424-.456a11.514,11.514,0,0,1-1.125,3.892A4.833,4.833,0,0,0,483.14,76.6a2.576,2.576,0,0,0-.515.611,5.127,5.127,0,0,1-1.747-1.834,6.253,6.253,0,0,1-2.066,1.844,2.533,2.533,0,0,0-.428-.612,5.123,5.123,0,0,0,2.116-1.93,14.335,14.335,0,0,1-.854-2.689,6.942,6.942,0,0,1-.622,1.2,3.88,3.88,0,0,0-.5-.591,11.01,11.01,0,0,0,1.35-4.261l.7.107c-.1.572-.2,1.145-.34,1.689h2.825v.678Zm-2.377.069a12.944,12.944,0,0,0,.873,3.056,11.682,11.682,0,0,0,.806-3.125h-1.659Z"/><path d="M486.81,71.04h2.134v.66H486.81v1.62h1.746v3.64h-.708V76.6h-2.766v.417h-.68v-3.7h1.7V71.7h-2.2v-.66h2.2V69.574c-.612.1-1.252.175-1.844.234a2.16,2.16,0,0,0-.2-.582,21.266,21.266,0,0,0,4.144-.8l.553.543a12.641,12.641,0,0,1-1.94.475Zm1.038,2.931h-2.766V75.95h2.766Zm3.813,2.435c.36,0,.418-.368.466-1.814a1.942,1.942,0,0,0,.65.32c-.077,1.6-.252,2.154-1.057,2.154h-1.272c-.815,0-1.048-.261-1.048-1.242V68.459h.708v7.375c0,.485.069.572.418.572Z"/><path d="M501.309,76.514c.378,0,.446-.243.494-1.631a2.094,2.094,0,0,0,.66.32c-.087,1.563-.281,1.98-1.1,1.98h-1.4c-.854,0-1.1-.233-1.1-1.048V72.709h-1.785c-.185,2.116-.67,3.7-3.086,4.493a2.255,2.255,0,0,0-.446-.611c2.26-.679,2.62-2.048,2.775-3.882h-2.582v-.688h3.9V68.342h.719v3.679h3.988v.688H499.6v3.416c0,.32.077.389.446.389Zm-5.61-5.047a10.455,10.455,0,0,0-1.145-2.406l.65-.244a9.43,9.43,0,0,1,1.174,2.378Zm5.92-2.485a20.434,20.434,0,0,1-1.349,2.456l-.6-.243a14.413,14.413,0,0,0,1.223-2.484Z"/><path d="M506.958,69.914a23.949,23.949,0,0,0,2.96-.3l-.01.719a28.637,28.637,0,0,1-3.221.272,7.755,7.755,0,0,1-.874,1.5,2.787,2.787,0,0,1,1.349-.359,1.252,1.252,0,0,1,1.3.874c.66-.32,1.252-.554,1.757-.786.291-.126.524-.233.8-.379l.32.729a8.119,8.119,0,0,0-.864.31c-.543.2-1.233.484-1.97.834.01.564.02,1.388.029,1.863h-.747c.02-.368.03-1,.03-1.513-.9.475-1.535.99-1.535,1.63,0,.757.758.874,1.757.874a17.241,17.241,0,0,0,2.65-.234l-.02.777a22.793,22.793,0,0,1-2.659.174c-1.388,0-2.5-.3-2.5-1.484,0-1.146,1.155-1.863,2.291-2.455a.811.811,0,0,0-.884-.6,2.554,2.554,0,0,0-1.669.709,13.155,13.155,0,0,0-.883,1.009l-.66-.485a10.24,10.24,0,0,0,2.242-2.969h-.427c-.417,0-1.058-.019-1.591-.059v-.727a14.392,14.392,0,0,0,1.64.106c.2,0,.426,0,.64-.009a4.94,4.94,0,0,0,.242-1.213l.8.067A9.5,9.5,0,0,1,506.958,69.914Z"/><path d="M516.082,70.545h-3.824v-.592h3.824Zm-.389,6.1h-2.348V77.1h-.64V73.845h2.988Zm-2.979-5.385h3.009v.572h-3.009Zm0,1.28h3.009v.583h-3.009Zm3.009-3.28h-2.96v-.582h2.96Zm-2.378,5.173v1.63h1.7v-1.63Zm7.89-2.087h-2.173V77.2h-.719V72.35h-2.271v-.708h2.271V68.371h.719v3.271h2.173Z"/><path d="M522.361,71.03a6.309,6.309,0,0,1,1.592.893l-.408.592a6.874,6.874,0,0,0-1.592-.96Zm1.126,2.591.582.379c-.359,1.009-.844,2.193-1.261,3.086l-.651-.389A27.447,27.447,0,0,0,523.487,73.621Zm-.7-5.172a6.374,6.374,0,0,1,1.533.98L523.9,70a6.66,6.66,0,0,0-1.524-1.039Zm2.882,6.774a6.665,6.665,0,0,1-1.4,2.008,5.409,5.409,0,0,0-.563-.4A5.207,5.207,0,0,0,525,75.048Zm1.737-6.444v6.065h-2.8V68.779ZM525.224,70.6h1.534V69.419h-1.534Zm0,1.794h1.534V71.205h-1.534Zm0,1.815h1.534V73h-1.534Zm1.63.806a11.47,11.47,0,0,1,1.107,1.485l-.573.358a11.323,11.323,0,0,0-1.077-1.543Zm1.921-5.677v5.512h-.639V69.342Zm1.7-.99V76.3c0,.446-.108.65-.379.766a4.518,4.518,0,0,1-1.524.136,2.578,2.578,0,0,0-.214-.679c.574.02,1.087.01,1.233,0,.165,0,.233-.048.233-.213V68.352Z"/></g><path class="cls-6" d="M270.779,154.258h-3.9v-.6h3.9Zm-.4,6.219H267.99v.455h-.652v-3.313h3.045Zm-3.035-5.488h3.065v.583h-3.065Zm0,1.306h3.065v.593h-3.065Zm3.065-3.343H267.4v-.593h3.016Zm-2.423,5.271v1.661h1.731v-1.661Zm8.039-2.126h-2.215v4.944h-.731V156.1h-2.314v-.722h2.314v-3.332h.731v3.332h2.215Z"/><path class="cls-6" d="M277.179,154.752a6.376,6.376,0,0,1,1.621.91l-.415.6a6.993,6.993,0,0,0-1.622-.979Zm1.147,2.64.593.385c-.366,1.029-.86,2.235-1.286,3.145l-.662-.4A28.378,28.378,0,0,0,278.326,157.392Zm-.712-5.27a6.555,6.555,0,0,1,1.562,1l-.435.584a6.77,6.77,0,0,0-1.553-1.058Zm2.936,6.9a6.793,6.793,0,0,1-1.424,2.047,5.253,5.253,0,0,0-.573-.405,5.32,5.32,0,0,0,1.315-1.819Zm1.77-6.565v6.18h-2.857v-6.18Zm-2.224,1.858h1.562V153.11H280.1Zm0,1.83h1.562V154.93H280.1Zm0,1.849h1.562v-1.236H280.1Zm1.661.82a11.889,11.889,0,0,1,1.127,1.513l-.584.366a11.391,11.391,0,0,0-1.1-1.572Zm1.957-5.784v5.616h-.652v-5.616Zm1.731-1.008v8.1c0,.455-.109.662-.386.781a4.6,4.6,0,0,1-1.552.139,2.665,2.665,0,0,0-.218-.692c.584.019,1.107.009,1.256,0,.168,0,.237-.05.237-.218v-8.108Z"/><path class="cls-6" d="M288.75,153.585c-.05,1.117-.119,3.451-.119,4.925,0,1.087.682,1.472,1.621,1.472a4.12,4.12,0,0,0,3.54-2.046l.563.672a4.966,4.966,0,0,1-4.132,2.185c-1.424,0-2.4-.593-2.4-2.205,0-1.463.1-3.965.1-5a5.257,5.257,0,0,0-.079-1.009l1,.011A8.4,8.4,0,0,0,288.75,153.585Z"/><path class="cls-6" d="M298.54,153.3c-.04.207-.089.465-.148.731a14.635,14.635,0,0,0,1.9-.356v.781a18.545,18.545,0,0,1-2.057.336c-.088.436-.2.891-.316,1.325a30.158,30.158,0,0,1-1.542,4.529l-.87-.3a21.626,21.626,0,0,0,1.661-4.42c.089-.326.178-.7.257-1.058-.326.02-.633.029-.91.029-.435,0-.791-.019-1.147-.04l-.03-.77a9.176,9.176,0,0,0,1.187.068c.327,0,.682-.019,1.068-.049.069-.345.118-.662.148-.86a3.9,3.9,0,0,0,.03-.82l.949.079C298.659,152.725,298.58,153.1,298.54,153.3Zm1.177,5.516c0,.465.257.92,1.671.92a9.488,9.488,0,0,0,1.928-.2l-.03.8a13.158,13.158,0,0,1-1.908.138c-1.563,0-2.413-.475-2.413-1.454a6.2,6.2,0,0,1,.149-1.167l.741.07A3.492,3.492,0,0,0,299.717,158.815Zm1.74-3.38a15.884,15.884,0,0,1,1.71.088l-.019.751a12.542,12.542,0,0,0-1.661-.118,16.325,16.325,0,0,0-1.84.1v-.732C300.172,155.474,300.824,155.435,301.457,155.435Z"/><path class="cls-6" d="M309.271,155.632h-4.8V155h1.147v-1.167h-.989v-.623h.989v-1.1h.672v1.1h1.276v-1.1h.682v1.1h1v.623h-1V155h1.019Zm-.574,4.647c0,.356-.069.534-.316.643a3.539,3.539,0,0,1-1.236.108,2.153,2.153,0,0,0-.208-.612c.435.02.811.01.919.01s.159-.05.159-.158v-.88h-2.156v1.661h-.682v-4.767h3.52Zm-2.838-3.411v.693h2.156v-.693Zm2.156,1.947v-.691h-2.156v.691ZM306.294,155h1.276v-1.167h-1.276Zm6.546-.465a11.716,11.716,0,0,1-1.147,3.965,4.933,4.933,0,0,0,1.889,1.929,2.629,2.629,0,0,0-.524.623,5.228,5.228,0,0,1-1.78-1.869,6.377,6.377,0,0,1-2.106,1.879,2.519,2.519,0,0,0-.435-.623,5.211,5.211,0,0,0,2.155-1.968,14.637,14.637,0,0,1-.87-2.74,7.143,7.143,0,0,1-.633,1.227,4.03,4.03,0,0,0-.5-.6,11.225,11.225,0,0,0,1.374-4.341l.712.109c-.1.583-.207,1.167-.346,1.72H313.5v.692Zm-2.423.07a13.179,13.179,0,0,0,.891,3.115,11.989,11.989,0,0,0,.82-3.185h-1.69Z"/><path class="cls-6" d="M317.322,154.762H319.5v.673h-2.175v1.651h1.78v3.707h-.722v-.365h-2.818v.425h-.692v-3.767h1.73v-1.651h-2.245v-.673H316.6v-1.493c-.623.1-1.276.178-1.879.237a2.24,2.24,0,0,0-.207-.593,21.61,21.61,0,0,0,4.221-.811l.564.554a12.916,12.916,0,0,1-1.977.485Zm1.058,2.986h-2.818v2.017h2.818Zm3.886,2.481c.365,0,.424-.375.474-1.848a1.976,1.976,0,0,0,.662.326c-.079,1.632-.256,2.195-1.077,2.195h-1.3c-.83,0-1.067-.267-1.067-1.265v-7.5h.722v7.514c0,.5.069.583.424.583Z"/><path class="cls-6" d="M332.1,160.339c.385,0,.455-.247.5-1.661a2.171,2.171,0,0,0,.672.326c-.088,1.592-.286,2.017-1.117,2.017h-1.424c-.87,0-1.117-.238-1.117-1.068v-3.49H327.8c-.188,2.155-.683,3.766-3.145,4.578a2.251,2.251,0,0,0-.455-.623c2.305-.692,2.67-2.087,2.828-3.955h-2.629v-.7h3.974v-3.748h.732v3.748h4.064v.7h-2.809v3.48c0,.327.08.4.456.4Zm-5.715-5.142a10.684,10.684,0,0,0-1.167-2.452l.662-.247a9.6,9.6,0,0,1,1.2,2.422Zm6.031-2.531a20.735,20.735,0,0,1-1.374,2.5l-.613-.247a14.7,14.7,0,0,0,1.246-2.531Z"/><path class="cls-6" d="M338.822,160.6l-.465-.732a7.423,7.423,0,0,0,.851-.129,2.985,2.985,0,0,0,2.511-2.936,2.752,2.752,0,0,0-2.64-2.867,19.51,19.51,0,0,1-.593,2.847c-.6,2.036-1.384,3.075-2.3,3.075-.88,0-1.76-1.008-1.76-2.64a4.215,4.215,0,0,1,4.321-4.025,3.583,3.583,0,0,1,3.787,3.639C342.53,158.9,341.165,160.289,338.822,160.6Zm-2.611-1.652c.465,0,.989-.662,1.494-2.333a16.2,16.2,0,0,0,.553-2.67,3.45,3.45,0,0,0-3.065,3.2C335.193,158.391,335.767,158.944,336.211,158.944Z"/><path class="cls-6" d="M344.628,155.593H351.1a5.378,5.378,0,0,0,.772-.05v.82c-.218-.009-.534-.019-.772-.019h-2.689a6.041,6.041,0,0,1-.583,2.709,4.868,4.868,0,0,1-1.948,1.8l-.732-.544a4.09,4.09,0,0,0,1.869-1.513,4.745,4.745,0,0,0,.574-2.452h-2.967c-.3,0-.583,0-.85.019v-.82A7.733,7.733,0,0,0,344.628,155.593Zm1.217-2.473h3.421a7.281,7.281,0,0,0,.919-.058v.82c-.287-.02-.633-.029-.919-.029h-3.412c-.326,0-.652.009-.909.029v-.82A8.765,8.765,0,0,0,345.845,153.12Zm5.665.5-.534.238a11.31,11.31,0,0,0-.8-1.375l.524-.218A11.288,11.288,0,0,1,351.51,153.615Zm1.108-.406-.535.238a9.367,9.367,0,0,0-.82-1.365l.524-.217A13.133,13.133,0,0,1,352.618,153.209Z"/><path class="cls-6" d="M354.815,156.057h5.418c.5,0,.851-.03,1.068-.049v.969c-.2-.01-.613-.049-1.058-.049h-5.428c-.544,0-1.068.019-1.375.049v-.969C353.737,156.027,354.261,156.057,354.815,156.057Z"/><path class="cls-6" d="M366.643,153.3a3.26,3.26,0,0,1-.207.355h2.679a1.983,1.983,0,0,0,.653-.1l.652.395a3.245,3.245,0,0,0-.237.534,9.964,9.964,0,0,1-1.542,3.076c.415.305.81.612,1.127.869l-.584.682c-.3-.266-.672-.573-1.078-.9a9.385,9.385,0,0,1-3.767,2.512l-.712-.614a8.659,8.659,0,0,0,3.826-2.382c-.711-.515-1.463-1.029-2.1-1.424l.535-.544c.652.376,1.393.85,2.086,1.335a8.247,8.247,0,0,0,1.344-2.74H365.98a10.772,10.772,0,0,1-2.62,2.621l-.663-.514a9.053,9.053,0,0,0,3.174-3.442,3.463,3.463,0,0,0,.317-.781l.9.287C366.92,152.784,366.742,153.12,366.643,153.3Z"/><path class="cls-6" d="M374.94,153.16c-.059.287-.147.87-.256,1.414.464-.04.879-.069,1.117-.069.88,0,1.6.336,1.6,1.671a9.394,9.394,0,0,1-.573,3.569,1.391,1.391,0,0,1-1.443.831,5.379,5.379,0,0,1-1.167-.148l-.129-.822a4.8,4.8,0,0,0,1.217.2.817.817,0,0,0,.86-.5,8.389,8.389,0,0,0,.475-3.027c0-.909-.425-1.077-1.048-1.077-.239,0-.633.03-1.069.069a20.328,20.328,0,0,1-2.076,5.33l-.81-.317a15.858,15.858,0,0,0,2.086-4.933c-.525.049-1,.108-1.256.137-.228.031-.633.08-.89.12l-.079-.861a8.609,8.609,0,0,0,.88,0c.326-.01.909-.059,1.5-.109a10.335,10.335,0,0,0,.257-2.155l.92.1C375.02,152.755,374.98,152.973,374.94,153.16Zm5.33,4-.771.366a11.6,11.6,0,0,0-1.761-3.579l.723-.326A17.588,17.588,0,0,1,380.27,157.164Z"/><path class="cls-6" d="M382.379,157.115a4.742,4.742,0,0,1,3.223-1.206,2.245,2.245,0,0,1,2.521,2.067c0,1.769-1.562,2.965-5.24,2.659l-.237-.811c3.124.386,4.647-.513,4.647-1.869,0-.791-.732-1.354-1.74-1.354a3.879,3.879,0,0,0-3.066,1.325,1.582,1.582,0,0,0-.3.494l-.731-.178a35.38,35.38,0,0,0,.5-4.014l.83.109C382.655,155.009,382.487,156.482,382.379,157.115Zm4.459-3.816-.188.761c-.939-.128-3.086-.564-3.837-.771l.2-.752A26.95,26.95,0,0,0,386.838,153.3Z"/><path class="cls-6" d="M391.932,157.451v3.6h-.682v-3.382c-.584.178-1.146.355-1.631.5l-.2-.7c.5-.138,1.137-.307,1.829-.524v-2.205h-.9a7.756,7.756,0,0,1-.435,1.463,3.449,3.449,0,0,0-.563-.326,11.535,11.535,0,0,0,.681-3.292l.644.108c-.05.446-.119.9-.189,1.335h.762v-2.007h.682v2.007h1.009v.712h-1.009v2.017l1.147-.356.1.653Zm6.466-3.787s0,.287-.009.376c-.217,4.48-.435,6.012-.83,6.506a.852.852,0,0,1-.683.376,6.161,6.161,0,0,1-1.127,0,1.588,1.588,0,0,0-.208-.722c.445.039.841.05,1.038.05a.418.418,0,0,0,.366-.169c.317-.346.534-1.81.732-5.725H397.2c-.494,2.591-1.582,5.221-3.223,6.527a2.2,2.2,0,0,0-.613-.445c1.621-1.167,2.69-3.6,3.2-6.082h-.81a9.627,9.627,0,0,1-2.433,4.48,2.425,2.425,0,0,0-.583-.426,8.357,8.357,0,0,0,2.383-4.054h-.851a8.128,8.128,0,0,1-1.127,1.879,4.966,4.966,0,0,0-.563-.425,8.452,8.452,0,0,0,1.73-3.8l.672.138a13.92,13.92,0,0,1-.434,1.513Z"/><path class="cls-6" d="M402.118,152.26a16.7,16.7,0,0,1-.88,2.087v6.683h-.7v-5.467a10.572,10.572,0,0,1-.84,1.137,5.407,5.407,0,0,0-.425-.721,11.541,11.541,0,0,0,2.166-3.926Zm3.728,2.453a9.856,9.856,0,0,0,2.67,4.152,2.633,2.633,0,0,0-.554.583,11.145,11.145,0,0,1-2.591-4.33v3.431h1.593v.672h-1.593v1.77h-.711v-1.77h-1.612v-.672h1.612v-3.361a11.4,11.4,0,0,1-2.621,4.281,3.494,3.494,0,0,0-.533-.554,10.137,10.137,0,0,0,2.709-4.2h-2.324V154h2.769v-1.947h.711V154h2.947v.713Z"/><path class="cls-6" d="M413.928,160.6l-.465-.732a7.4,7.4,0,0,0,.85-.129,2.985,2.985,0,0,0,2.511-2.936,2.752,2.752,0,0,0-2.639-2.867,19.514,19.514,0,0,1-.594,2.847c-.6,2.036-1.384,3.075-2.3,3.075-.88,0-1.76-1.008-1.76-2.64a4.215,4.215,0,0,1,4.322-4.025,3.583,3.583,0,0,1,3.786,3.639C417.635,158.9,416.271,160.289,413.928,160.6Zm-2.611-1.652c.464,0,.989-.662,1.494-2.333a16.1,16.1,0,0,0,.552-2.67,3.449,3.449,0,0,0-3.064,3.2C410.3,158.391,410.872,158.944,411.317,158.944Z"/><path class="cls-6" d="M423.075,156.542v4.5h-.712v-4.5h-1.6a6.659,6.659,0,0,1-1.464,4.567,2.39,2.39,0,0,0-.554-.494,5.915,5.915,0,0,0,1.325-4.073h-1.275v-.683h1.285v-2.541h-1.138v-.692H424v.692h-.929v2.541h1.068v.683Zm-.712-.683v-2.541h-1.592v2.541Zm5.528,1.949a8.777,8.777,0,0,1-3.758,3.233,3.091,3.091,0,0,0-.514-.584,7.793,7.793,0,0,0,3.579-2.917Zm-.515-5.34a9.773,9.773,0,0,1-2.817,2.323,3.354,3.354,0,0,0-.535-.514,8.322,8.322,0,0,0,2.669-2.095Zm.277,2.7a11.036,11.036,0,0,1-3.006,2.492,3.621,3.621,0,0,0-.514-.524,9.252,9.252,0,0,0,2.847-2.254Z"/><path class="cls-6" d="M430.7,152h.722v9.027H430.7V157.4c-.583.564-1.186,1.127-1.69,1.582l-.415-.623c.523-.425,1.343-1.128,2.105-1.849Zm-.7,3.48a10.99,10.99,0,0,0-1.245-1.829l.573-.355a11.146,11.146,0,0,1,1.276,1.789Zm4.895.159c.474,2.155,1.394,3.935,2.926,4.776a2.911,2.911,0,0,0-.534.612,6.946,6.946,0,0,1-2.738-4.152,7.012,7.012,0,0,1-2.472,4.152,3.489,3.489,0,0,0-.594-.464A6.9,6.9,0,0,0,434,155.642H431.76v-.722h2.293c.01-.207.01-.405.01-.6v-2.283h.722v2.283c0,.2,0,.4-.01.6h2.838v.722Zm1.829-1.226a12.684,12.684,0,0,0-1.177-1.75l.554-.316a11.176,11.176,0,0,1,1.207,1.7Z"/><path class="cls-6" d="M442.272,153.615a24.451,24.451,0,0,0,3.016-.306l-.01.731a28.529,28.529,0,0,1-3.283.276,7.853,7.853,0,0,1-.89,1.534,2.828,2.828,0,0,1,1.375-.367,1.278,1.278,0,0,1,1.325.89c.673-.326,1.275-.563,1.79-.8.3-.128.534-.237.81-.384l.326.741a8.822,8.822,0,0,0-.879.316c-.554.208-1.256.494-2.007.851.009.573.019,1.414.029,1.9h-.761c.02-.376.03-1.018.03-1.543-.92.485-1.563,1.009-1.563,1.661,0,.772.772.89,1.79.89a17.642,17.642,0,0,0,2.7-.237l-.019.791a23.225,23.225,0,0,1-2.71.178c-1.414,0-2.551-.306-2.551-1.513,0-1.166,1.177-1.9,2.334-2.5a.827.827,0,0,0-.9-.614,2.605,2.605,0,0,0-1.7.722,13.458,13.458,0,0,0-.9,1.028l-.672-.494a10.426,10.426,0,0,0,2.284-3.025H440.8c-.425,0-1.077-.021-1.621-.06v-.741a14.5,14.5,0,0,0,1.671.109c.208,0,.434,0,.652-.01a5.006,5.006,0,0,0,.247-1.237l.811.07A9.886,9.886,0,0,1,442.272,153.615Z"/><path class="cls-6" d="M450.808,157.006l-1.038.327v2.817c0,.416-.089.623-.336.752a3.294,3.294,0,0,1-1.306.128,2.931,2.931,0,0,0-.218-.7c.445.021.851.021.98.011s.168-.04.168-.189v-2.6l-1.326.405-.168-.711c.406-.1.93-.248,1.494-.416v-2.155h-1.326V154h1.326v-1.977h.712V154h.959v.673h-.959v1.948l.949-.277Zm5.913,3.52h-4.47v.5h-.7v-5.705a7.189,7.189,0,0,1-.732.94,5.212,5.212,0,0,0-.494-.614A8.723,8.723,0,0,0,452.281,152l.7.179a13.552,13.552,0,0,1-.632,1.69h1.513a13.77,13.77,0,0,0,.672-1.829l.772.178c-.218.544-.485,1.146-.722,1.651h1.968v.662h-2.018v1.325h1.779v.633h-1.779v1.345h1.779v.642h-1.779v1.375h2.186Zm-2.858-5.992h-1.612v1.325h1.612Zm0,1.958h-1.612v1.345h1.612Zm-1.612,3.362h1.612v-1.375h-1.612Z"/><path class="cls-6" d="M462.457,160.062a9.114,9.114,0,0,0,1.6.119c.356,0,2.056,0,2.531-.011a2.194,2.194,0,0,0-.277.742H464.02c-2.047,0-3.521-.356-4.42-2.027a5.405,5.405,0,0,1-1.474,2.205,3.739,3.739,0,0,0-.6-.494,5.717,5.717,0,0,0,1.849-4.025l.752.07a12.894,12.894,0,0,1-.237,1.314,2.965,2.965,0,0,0,1.819,1.909v-4.143h-2.452v-.692h5.725v.692h-2.522v1.641h2.927v.683h-2.927Zm-3.747-4.776h-.722V153.15H461.7v-1.127h.762v1.127h3.737v2.136h-.751v-1.444H458.71Z"/></svg>