<svg id="レイヤー_1" data-name="レイヤー 1" xmlns="http://www.w3.org/2000/svg" xmlns:xlink="http://www.w3.org/1999/xlink" viewBox="0 0 718 236"><defs><style>.cls-1,.cls-10,.cls-12,.cls-16,.cls-7{stroke:#000;stroke-miterlimit:10;}.cls-1,.cls-10{stroke-width:0.147px;}.cls-1{fill:url(#linear-gradient);}.cls-11,.cls-13,.cls-14,.cls-2,.cls-6,.cls-8,.cls-9{opacity:0.6;}.cls-2{fill:url(#名称未設定グラデーション_23);}.cls-3{fill:url(#linear-gradient-2);}.cls-4{fill:url(#radial-gradient);}.cls-5{fill:url(#linear-gradient-3);}.cls-6{fill:url(#名称未設定グラデーション_23-2);}.cls-7{fill:#737373;}.cls-12,.cls-7{stroke-width:0.294px;}.cls-8{fill:url(#名称未設定グラデーション_23-3);}.cls-9{fill:url(#名称未設定グラデーション_23-4);}.cls-10{fill:url(#linear-gradient-4);}.cls-11{fill:url(#名称未設定グラデーション_23-5);}.cls-12{fill:#78c1ff;}.cls-13{fill:url(#名称未設定グラデーション_23-6);}.cls-14{fill:url(#名称未設定グラデーション_23-7);}.cls-15{fill:#9777ff;}.cls-16{fill:none;stroke-width:0.588px;}</style><linearGradient id="linear-gradient" x1="188.768" y1="179.884" x2="255.942" y2="218.967" gradientTransform="translate(0 -7.617) scale(1 0.962)" gradientUnits="userSpaceOnUse"><stop offset="0" stop-color="#9c9c9c"/><stop offset="0.049" stop-color="#acacac"/><stop offset="0.145" stop-color="#d5d5d5"/><stop offset="0.229" stop-color="#fff"/><stop offset="0.283" stop-color="#f0f0f0"/><stop offset="0.395" stop-color="#d6d6d6"/><stop offset="0.495" stop-color="#c6c6c6"/><stop offset="0.574" stop-color="silver"/><stop offset="0.607" stop-color="#b4b4b4"/><stop offset="0.714" stop-color="#959595"/><stop offset="0.818" stop-color="#7e7e7e"/><stop offset="0.915" stop-color="#707070"/><stop offset="1" stop-color="#6b6b6b"/></linearGradient><linearGradient id="名称未設定グラデーション_23" x1="216.717" y1="151.288" x2="216.717" y2="181.565" gradientUnits="userSpaceOnUse"><stop offset="0" stop-color="#8c7aff"/><stop offset="1" stop-color="#fff"/></linearGradient><linearGradient id="linear-gradient-2" x1="192.794" y1="83.379" x2="247.112" y2="99.881" gradientUnits="userSpaceOnUse"><stop offset="0" stop-color="#4f4f4f"/><stop offset="0.065" stop-color="#5d5d5d"/><stop offset="0.187" stop-color="#828282"/><stop offset="0.34" stop-color="#b8b8b8"/><stop offset="0.395" stop-color="#a1a1a1"/><stop offset="0.471" stop-color="#888"/><stop offset="0.557" stop-color="#747474"/><stop offset="0.655" stop-color="#666"/><stop offset="0.778" stop-color="#5e5e5e"/><stop offset="1" stop-color="#5c5c5c"/></linearGradient><radialGradient id="radial-gradient" cx="218.089" cy="108.409" r="29.415" gradientTransform="translate(0 -7.617) scale(1 0.962)" gradientUnits="userSpaceOnUse"><stop offset="0" stop-color="#75d3ff"/><stop offset="1" stop-color="#008eff"/></radialGradient><linearGradient id="linear-gradient-3" x1="188.332" y1="120.575" x2="245.101" y2="120.575" gradientUnits="userSpaceOnUse"><stop offset="0" stop-color="#9c9c9c"/><stop offset="0.068" stop-color="#aaa"/><stop offset="0.196" stop-color="#cfcfcf"/><stop offset="0.34" stop-color="#fff"/><stop offset="0.356" stop-color="#f3f3f3"/><stop offset="0.412" stop-color="#cfcfcf"/><stop offset="0.474" stop-color="#b0b0b0"/><stop offset="0.541" stop-color="#979797"/><stop offset="0.615" stop-color="#838383"/><stop offset="0.701" stop-color="#757575"/><stop offset="0.807" stop-color="#6d6d6d"/><stop offset="1" stop-color="#6b6b6b"/></linearGradient><linearGradient id="名称未設定グラデーション_23-2" x1="216.716" y1="71.237" x2="216.684" y2="92.688" xlink:href="#名称未設定グラデーション_23"/><linearGradient id="名称未設定グラデーション_23-3" x1="216.716" y1="34.92" x2="216.684" y2="56.37" xlink:href="#名称未設定グラデーション_23"/><linearGradient id="名称未設定グラデーション_23-4" x1="199.675" y1="11.46" x2="238.469" y2="23.246" xlink:href="#名称未設定グラデーション_23"/><linearGradient id="linear-gradient-4" x1="392.768" y1="191.06" x2="459.943" y2="230.143" xlink:href="#linear-gradient"/><linearGradient id="名称未設定グラデーション_23-5" x1="420.717" y1="162.04" x2="420.717" y2="192.317" xlink:href="#名称未設定グラデーション_23"/><linearGradient id="名称未設定グラデーション_23-6" x1="420.717" y1="137.859" x2="420.685" y2="159.309" xlink:href="#名称未設定グラデーション_23"/><linearGradient id="名称未設定グラデーション_23-7" x1="403.675" y1="114.399" x2="442.469" y2="126.184" xlink:href="#名称未設定グラデーション_23"/></defs><path class="cls-1" d="M263.491,181.1c0,7.79-20.941,14.106-46.774,14.106s-46.775-6.316-46.775-14.106,20.942-14.107,46.775-14.107S263.491,173.3,263.491,181.1Z"/><polygon class="cls-2" points="219.664 181.094 213.769 181.094 188.332 141.607 245.101 141.607 219.664 181.094"/><path class="cls-3" d="M245.1,90.646c0,4.915-12.708,8.9-28.384,8.9s-28.385-3.984-28.385-8.9,12.708-8.9,28.385-8.9S245.1,85.733,245.1,90.646Z"/><path class="cls-4" d="M243.537,90.646c0,4.468-12.008,8.089-26.82,8.089S189.9,95.114,189.9,90.646s12.008-8.088,26.821-8.088S243.537,86.179,243.537,90.646Z"/><path class="cls-5" d="M216.717,99.545c-15.677,0-28.385-3.984-28.385-8.9v50.961c0,4.913,12.708,8.9,28.385,8.9s28.384-3.984,28.384-8.9V90.646C245.1,95.561,232.393,99.545,216.717,99.545Z"/><path class="cls-6" d="M216.717,59.308c-11.172,0-20.23-2.838-20.23-6.341V89.284c0,3.5,9.058,6.342,20.23,6.342s20.229-2.839,20.229-6.342V52.967C236.946,56.47,227.888,59.308,216.717,59.308Z"/><polygon class="cls-7" points="216.116 37.979 169.996 56.001 217.317 71.075 263.437 53.055 216.116 37.979"/><path class="cls-8" d="M216.717,22.991c-11.172,0-20.23-2.839-20.23-6.34V52.967c0,3.5,9.058,6.341,20.23,6.341s20.229-2.838,20.229-6.341V16.651C236.946,20.152,227.888,22.991,216.717,22.991Z"/><path class="cls-9" d="M237.032,16.651c0,3.509-9.076,6.354-20.272,6.354s-20.273-2.845-20.273-6.354S205.564,10.3,216.76,10.3,237.032,13.141,237.032,16.651Z"/><path d="M268.755,58.355V51.626a7.026,7.026,0,0,0-.107-1.07h1.165a7.764,7.764,0,0,0-.082,1.07V58.3a12.684,12.684,0,0,0,6.435-4.012l.53.823a13.605,13.605,0,0,1-6.883,4.2,1.8,1.8,0,0,0-.494.212l-.682-.589A1.287,1.287,0,0,0,268.755,58.355Z"/><path d="M283.7,50.956a15.879,15.879,0,0,0,3.035-.683l.623.812c-.258.071-.494.13-.659.177-.588.153-1.493.329-2.341.459v2.258H287.6c.258,0,.682-.023.929-.046v.975c-.259-.023-.612-.047-.906-.047h-3.282a5.577,5.577,0,0,1-3.012,4.93l-.93-.647a4.668,4.668,0,0,0,2.977-4.283h-3.494c-.376,0-.777.024-1.059.047v-.975c.271.023.683.046,1.035.046H283.4V51.838c-1.187.118-2.517.153-3.423.165l-.235-.871A28.4,28.4,0,0,0,283.7,50.956Z"/><path d="M295.356,51.1a5.057,5.057,0,0,1-.282.494h3.189a1.974,1.974,0,0,0,.764-.117l.788.482a3.7,3.7,0,0,0-.27.623,11.385,11.385,0,0,1-2.1,4.047,10.3,10.3,0,0,1-4.681,3.2l-.848-.764a9.52,9.52,0,0,0,4.694-2.954,9.661,9.661,0,0,0,1.883-3.67h-3.977a11.893,11.893,0,0,1-2.988,2.894l-.811-.611a9.7,9.7,0,0,0,3.693-3.977,3.99,3.99,0,0,0,.365-.93l1.094.354A9.079,9.079,0,0,0,295.356,51.1Z"/><path d="M304.146,56.108a21,21,0,0,0,.353-4.729,4.25,4.25,0,0,0-.083-.858H305.5c-.012.141-.06.494-.06.846a25.7,25.7,0,0,1-.364,5,6.567,6.567,0,0,1-2.094,3.236L302.1,59A5.585,5.585,0,0,0,304.146,56.108Zm3.423,2.294V51.355a5.583,5.583,0,0,0-.07-.87h1.082a7.229,7.229,0,0,0-.047.87v6.789a9.054,9.054,0,0,0,3.435-2.894l.553.8a11.7,11.7,0,0,1-4.011,3.259,2.47,2.47,0,0,0-.4.27l-.623-.517A2.816,2.816,0,0,0,307.569,58.4Z"/><path d="M251.942,115.664a10.694,10.694,0,0,1-.8,2.977,3.565,3.565,0,0,0-.636-.307,9.158,9.158,0,0,0,.718-2.8Zm4.942-3.906a15.313,15.313,0,0,1-.683,1.883v5.964h-.741V115.04a6.721,6.721,0,0,1-.647.859,3.455,3.455,0,0,0-.471-.564,4.254,4.254,0,0,0,.33-.436l-.494.212c-.024-.153-.071-.33-.118-.517l-.906.058v4.953h-.764V114.7c-.647.047-1.247.082-1.777.117l-.082-.788.859-.035c.223-.294.459-.623.693-.988a10.18,10.18,0,0,0-1.47-1.718l.471-.541c.117.107.247.235.364.354a16.992,16.992,0,0,0,1.036-2.224l.753.282c-.4.812-.906,1.777-1.318,2.424.235.259.447.518.612.741a23.9,23.9,0,0,0,1.188-2.118l.718.317a35.849,35.849,0,0,1-2.259,3.424l1.623-.093c-.141-.354-.3-.718-.47-1.048l.611-.235a10.348,10.348,0,0,1,.871,2.118,10.77,10.77,0,0,0,1.294-3.118Zm-2.777,3.729a8.68,8.68,0,0,1,.588,2.13l-.658.2a7.9,7.9,0,0,0-.541-2.14Zm1.459-3.552h-.8v-1.93h2.73v-1.152h.882v1.152H261.2v1.765h-.823v-1.024h-4.812Zm3.894.835c-.106.4-.211.824-.317,1.188h1.87v5.576h-.753v-.459h-2.412v.519h-.741v-5.636h1.235c.1-.364.189-.8.259-1.188h-1.717v-.718h4.4v.718Zm.8,1.906h-2.412v1.447h2.412Zm0,3.694v-1.542h-2.412v1.542Z"/><path d="M265.273,111.946a13.192,13.192,0,0,1-2.118,5.117,4.791,4.791,0,0,0-.823-.458,11.015,11.015,0,0,0,1.976-4.835Zm3.036-2.906v9.354c0,.646-.177.905-.589,1.058a8.123,8.123,0,0,1-2.247.153,4.143,4.143,0,0,0-.365-.906c.859.035,1.706.024,1.929.012.247,0,.342-.082.342-.317V109.04Zm2.7,2.648a18.74,18.74,0,0,1,2.318,5.188l-.918.388a19.889,19.889,0,0,0-2.224-5.259Z"/><path d="M278.109,114.746l-1.306.459v3.376c0,.482-.106.73-.423.871a4.2,4.2,0,0,1-1.553.142,2.963,2.963,0,0,0-.259-.789c.53.011,1.012.011,1.164,0s.212-.047.212-.224V115.5c-.552.189-1.082.377-1.552.529l-.294-.893c.506-.13,1.14-.319,1.846-.53v-2.612H274.25v-.811h1.694v-2.306h.859v2.306h1.306v.811H276.8v2.354l1.212-.366Zm6.106-.623a7.431,7.431,0,0,1-2.165,3.423,8.113,8.113,0,0,0,3.048,1.282,3.788,3.788,0,0,0-.577.777,8.447,8.447,0,0,1-3.176-1.494,10.211,10.211,0,0,1-3.33,1.506,2.9,2.9,0,0,0-.471-.776,9.448,9.448,0,0,0,3.142-1.319,7.7,7.7,0,0,1-1.695-2.611l.636-.188H278.6v-.8h4.881l.165-.035Zm-4.094-3.6a3.6,3.6,0,0,1-1.589,3.166,2.945,2.945,0,0,0-.588-.624,2.783,2.783,0,0,0,1.353-2.553v-1.176h3.859v2.8c0,.27.035.317.247.317h.635c.224,0,.271-.177.294-1.388a2.178,2.178,0,0,0,.73.33c-.059,1.423-.271,1.788-.929,1.788h-.86c-.741,0-.953-.212-.953-1.036v-1.988h-2.2Zm-.318,4.2a6.219,6.219,0,0,0,1.577,2.27,6.354,6.354,0,0,0,1.682-2.27Z"/><path d="M288.027,117.335a7.085,7.085,0,0,1-1.411,1.94,5.431,5.431,0,0,0-.647-.447,5.022,5.022,0,0,0,1.305-1.682Zm4.648-3.506h-6.659v-.683h2.941v-.729h-2.142v-3.105H292v3.105h-2.247v.729h2.918Zm-2.918,3.024v1.928c0,.389-.082.589-.376.695a3.928,3.928,0,0,1-1.389.129,3.172,3.172,0,0,0-.329-.706c.529.024.977.024,1.117.012s.177-.023.177-.141v-1.917h-2.035v-2.331h4.988v2.331Zm-2.164-6.259h3.588v-.73h-3.588Zm0,1.27h3.588v-.741h-3.588Zm.082,4.365H291.1v-1.094h-3.424Zm9.152-.306a9.632,9.632,0,0,1-4.129,3.671,3.647,3.647,0,0,0-.6-.683l-.377.2a9.045,9.045,0,0,0-1.224-1.624l.659-.329a10.03,10.03,0,0,1,1.259,1.588l-.047.024a8.528,8.528,0,0,0,3.623-3.165Zm-.623-6.518a11.314,11.314,0,0,1-3.082,2.671,3.928,3.928,0,0,0-.636-.612,9.4,9.4,0,0,0,2.895-2.388Zm.294,3.236a12.2,12.2,0,0,1-3.317,2.811,3.931,3.931,0,0,0-.636-.611,10.25,10.25,0,0,0,3.142-2.542Z"/><path d="M307.052,118.77c.459,0,.541-.294.6-1.977a2.53,2.53,0,0,0,.8.389c-.106,1.893-.342,2.4-1.329,2.4h-1.694c-1.035,0-1.33-.282-1.33-1.27v-4.153h-2.164c-.224,2.565-.812,4.483-3.742,5.447a2.685,2.685,0,0,0-.541-.741c2.742-.824,3.176-2.482,3.365-4.706h-3.129v-.835h4.729v-4.459h.87v4.459h4.835v.835h-3.341V118.3c0,.389.094.471.541.471Zm-6.8-6.118a12.72,12.72,0,0,0-1.388-2.918l.788-.294a11.425,11.425,0,0,1,1.423,2.883Zm7.177-3.011a24.785,24.785,0,0,1-1.636,2.976l-.73-.294a17.524,17.524,0,0,0,1.483-3.011Z"/><path d="M320.041,116.275H315.3v2.294c0,.519-.141.778-.565.907a8.768,8.768,0,0,1-2.165.141,3.745,3.745,0,0,0-.364-.836c.894.024,1.694.024,1.918.012.247-.012.306-.07.306-.247v-2.271h-4.706v-.811h4.706v-.847h.447a9.855,9.855,0,0,0,1.658-1.035h-4.858v-.777h5.741l.176-.047.565.424a10.5,10.5,0,0,1-2.859,1.988v.294h4.741Zm-9.259-2.858h-.835v-2.6h1.8a9.728,9.728,0,0,0-.988-1.47l.729-.33a7.859,7.859,0,0,1,1.13,1.6l-.4.2h2.4a6.9,6.9,0,0,0-.87-1.717l.765-.283a7.26,7.26,0,0,1,.953,1.8l-.506.2h2.082a12.755,12.755,0,0,0,1.259-1.871l.906.306c-.365.529-.8,1.095-1.2,1.565h1.823v2.6h-.847v-1.823h-8.2Z"/><path d="M324.807,116.77a13.28,13.28,0,0,1-2.8,2.6,4.351,4.351,0,0,0-.777-.6,9.58,9.58,0,0,0,2.695-2.33Zm6.4-.176a8.865,8.865,0,0,0-.776-.93l-3.377.106v3.835h-.906v-3.812c-1.752.048-3.377.083-4.624.118l-.093-.883c.729-.011,1.611-.023,2.564-.035.329-.235.659-.494,1.012-.776a15.771,15.771,0,0,0-2.706-1.977l.589-.541c.258.142.529.306.8.471a15.853,15.853,0,0,0,1.553-1.753c-1.094.059-2.2.105-3.235.129a3.024,3.024,0,0,0-.212-.776,61.87,61.87,0,0,0,8.624-.73l.635.73a42.7,42.7,0,0,1-4.8.577l.129.07a21.4,21.4,0,0,1-2.047,2.188,11.362,11.362,0,0,1,1.342,1.036,30.624,30.624,0,0,0,2.905-2.848l.824.447a41.714,41.714,0,0,1-4.13,3.741c1.4-.023,2.918-.058,4.412-.082-.423-.423-.871-.823-1.293-1.176l.7-.448a19.377,19.377,0,0,1,2.882,2.8Zm-2.224-.2a24.979,24.979,0,0,1,2.917,2.411l-.764.542a22.036,22.036,0,0,0-2.859-2.471Z"/><path d="M272.319,169.793v1.094h2.636a2.316,2.316,0,0,0,.812-.094l.634.4c-.058.176-.129.482-.175.7a10.973,10.973,0,0,1-1.154,3.541,7.477,7.477,0,0,1-4.659,3.331l-.765-.883a6.337,6.337,0,0,0,1.224-.329,6.274,6.274,0,0,0,3.189-2.366,8.659,8.659,0,0,0,1.117-3.434H268.6v2.1a4.577,4.577,0,0,0,.046.706h-1.023c.023-.212.036-.529.036-.753v-2.07a7.726,7.726,0,0,0-.036-.906,10.53,10.53,0,0,0,1.1.047h2.6v-1.094a6.6,6.6,0,0,0-.058-.883h1.129A5.253,5.253,0,0,0,272.319,169.793Z"/><path d="M281,172.3h5.411c.3,0,.589-.024.836-.047v.941c-.259-.024-.565-.036-.836-.036H284.12v4.33h2.848a5.28,5.28,0,0,0,.788-.059v.988c-.235-.023-.6-.035-.788-.035h-6.506c-.259,0-.566.012-.848.035v-.988a6.713,6.713,0,0,0,.848.059h2.7v-4.33H281c-.189,0-.565.012-.812.036v-.941A6.965,6.965,0,0,0,281,172.3Z"/><path d="M293.415,170.24l1.048.212c-.083.259-.165.611-.224.859a24.93,24.93,0,0,1-1.059,3.682,17.5,17.5,0,0,1-1.741,3.236l-1-.424a15.235,15.235,0,0,0,1.812-3.2A18.176,18.176,0,0,0,293.415,170.24Zm2.93.188.953-.318c.459.86,1.212,2.483,1.718,3.73.47,1.153,1.093,2.965,1.411,4.023l-1.047.341a36.978,36.978,0,0,0-1.329-4.047A33.251,33.251,0,0,0,296.345,170.428Z"/><path d="M177.958,225.488h-5.646v3.854h-1.383v-3.854H165.4v-1.312h5.533v-2h-4.658v-1.3h4.658V216.4h1.383v4.475h4.869v1.3h-4.869v2h5.646Zm-9.81-5.123a14.124,14.124,0,0,0-1.524-3.147l1.2-.466a13.5,13.5,0,0,1,1.609,3.076Zm8.638-3.219a29.352,29.352,0,0,1-1.821,3.163l-1.185-.438a17.674,17.674,0,0,0,1.609-3.176Z"/><path d="M189.1,225.573h3.049v1.017H189.1v1.453c0,.636-.127.96-.621,1.144a7.694,7.694,0,0,1-2.329.168,3.817,3.817,0,0,0-.409-1.114c.8.028,1.595.028,1.806.014.226-.014.3-.057.3-.24V226.59H182.93a10.567,10.567,0,0,1,1.807,1.453l-.96.818a10.447,10.447,0,0,0-1.962-1.665l.72-.606h-3.1v-1.017h8.412v-.734c-1.03,0-2,0-2.682-.028a4.014,4.014,0,0,1-3.176-1.256c-.677.452-1.369.9-2.117,1.4l-.479-1.072c.564-.269,1.241-.65,1.862-1.031v-1.863h-1.764v-1h2.95v2.683a3.13,3.13,0,0,0,2.71,1.171c1.651.057,5.293.015,7.156-.1a4.688,4.688,0,0,0-.353,1.031c-.734.028-1.778.056-2.851.07Zm-7.353-6.408a8.931,8.931,0,0,0-1.878-1.807l.862-.719a9.058,9.058,0,0,1,1.933,1.721Zm4.841-.028c.056-.184.1-.4.141-.593h-3.754v-.917h2.23a6.738,6.738,0,0,0-.551-.988l1.059-.241a5.579,5.579,0,0,1,.734,1.229h2.173a11.255,11.255,0,0,0,.706-1.242l1.228.24a9.785,9.785,0,0,1-.706,1H192.1v.917h-4.149c-.085.212-.169.409-.24.593h3.246v4.15h-6.888v-4.15Zm3.091.649H185.3v.523h4.376Zm0,1.144H185.3v.55h4.376Zm0,1.171H185.3v.55h4.376Z"/><path d="M197.472,216.836a22.582,22.582,0,0,1-1.185,2.852v9.654H195.03v-7.481c-.352.508-.691.96-1.044,1.383a8.213,8.213,0,0,0-.734-1.326,15.814,15.814,0,0,0,2.992-5.435Zm5.491,3.515a14.191,14.191,0,0,0,3.641,5.773,5.027,5.027,0,0,0-1,1.044,16.428,16.428,0,0,1-3.373-5.815v4.334h2.089v1.185h-2.089v2.413h-1.285v-2.413h-2.1v-1.185h2.1v-4.249a15.925,15.925,0,0,1-3.472,5.772,4.884,4.884,0,0,0-.931-1,14.293,14.293,0,0,0,3.712-5.857h-3.091v-1.243h3.782v-2.625h1.285v2.625h4.037v1.243Z"/><path d="M219.594,222.793a6.519,6.519,0,0,1-1.821,2.061,11.4,11.4,0,0,0,2.894.833,3.7,3.7,0,0,0-.678.93c-.268-.055-.522-.112-.776-.182v2.907h-1.158v-.3h-2.428v.325H214.5v-2.88c-.283.1-.551.184-.833.255a3.158,3.158,0,0,0-.438-.692v.706h-1.722v1.157l2.075-.184.014.96c-2.046.226-4.192.438-5.716.565l-.113-1.016.72-.056v-2.71h1V228.1l.889-.071v-2.992h-1.764V222.3h4.545v1.708a6.09,6.09,0,0,0,2.512-2.217l1.016.17a5.326,5.326,0,0,1-.338.508h2.357l.183-.057Zm-10.4-1.892H208.02v-2.427h5.321v-.593h-4.432v-.945h10.233v.945h-4.531v.593h5.406V220.9H218.8v-1.566h-4.192v2.625h-1.27v-2.625h-4.15Zm.368.156h3.09v.691h-3.09Zm.112,3.132h2.371v-1.03h-2.371Zm2.993-3.668h-2.795v-.693h2.795Zm.536,5.321a11.121,11.121,0,0,0,2.738-.975,6.937,6.937,0,0,1-.988-.931,7.765,7.765,0,0,1-1.087.748,2.8,2.8,0,0,0-.705-.649v1h-1.652v.805Zm5.434.423a9.39,9.39,0,0,1-1.793-.8,12.319,12.319,0,0,1-1.693.8Zm-.508-6.437v.693H215.3v-.693Zm-2.823,1.229h3.119v.691H215.3Zm.367,2.23-.056.056a5.4,5.4,0,0,0,1.213,1,5.91,5.91,0,0,0,1.214-1.058Zm2.385,4.911v-1.115h-2.428V228.2Z"/><path d="M232.739,228.1c.522,0,.593-.325.663-2.3a3.983,3.983,0,0,0,1.214.564c-.156,2.344-.494,2.964-1.764,2.964h-1.878c-1.383,0-1.75-.409-1.75-1.792v-4.63H226.9c-.268,3.007-.931,5.28-4.517,6.465a3.727,3.727,0,0,0-.818-1.129c3.246-.988,3.712-2.838,3.938-5.336h-3.613v-1.256h5.547v-5.236h1.326v5.236h5.66v1.256h-3.867v4.63c0,.466.085.565.593.565Zm-8.187-7.128a15.185,15.185,0,0,0-1.567-3.472l1.186-.437a13.377,13.377,0,0,1,1.651,3.415Zm8.921-3.557a31.148,31.148,0,0,1-1.934,3.5l-1.129-.437a19.332,19.332,0,0,0,1.694-3.557Z"/><path d="M247.888,225.644a17.071,17.071,0,0,1-2.471,1.383,9.145,9.145,0,0,0,3.388,1.313,4.007,4.007,0,0,0-.762,1.072,8.131,8.131,0,0,1-5.872-4.53h-.028a9.7,9.7,0,0,1-1.863,1.227v1.68c.96-.127,1.99-.268,3.006-.409l.057,1.087c-2.033.3-4.206.606-5.745.8l-.212-1.115,1.638-.212v-1.27a15.471,15.471,0,0,1-2.583.763,4.087,4.087,0,0,0-.72-.947,14.323,14.323,0,0,0,4.7-1.608h-4.46v-1.03h5.6v-1.045h1.313v1.045h5.688v1.03h-5.138a5.805,5.805,0,0,0,1.186,1.5,17.465,17.465,0,0,0,2.329-1.426Zm-9.062-4.474c-.9.409-1.835.86-2.639,1.213l-.452-1.086c.734-.282,1.779-.721,2.823-1.172Zm-1.016-1.779a8.345,8.345,0,0,0-1.708-1.51l.776-.763a8.4,8.4,0,0,1,1.75,1.441Zm2.315,3.656H238.9v-6.634h1.229Zm3.825-3.7h-3.19v-1.144h3.19v-1.792h1.312v1.792h3.3v1.144h-3.3v1.976h2.908v1.143h-7.015v-1.143h2.795Z"/><path d="M255.542,222.256c.042-.226.084-.451.113-.705h-5.35v-1H255.8c.028-.227.057-.452.07-.678H250.94v-2.893h10.967v2.893h-4.7c-.043.226-.071.451-.1.678h5.35v1h-5.519c-.042.254-.085.494-.127.705h4.559v4.87h-7.777v-4.87Zm7.254,6.578H252.38v.536h-1.327v-6.931h1.327V227.8H262.8ZM254.13,217.9H252.2v1.058h1.933Zm5.971,5.095h-5.293v.65H260.1Zm0,1.355h-5.293v.664H260.1Zm0,1.369h-5.293v.678H260.1Zm-4.757-6.761h2V217.9h-2Zm3.2,0h2.033V217.9h-2.033Z"/><path d="M275.843,216.145l1.072.508a8.792,8.792,0,0,0,0,12.477l-1.072.508a9.54,9.54,0,0,1,0-13.493Z"/><path d="M288.648,219.49a19.343,19.343,0,0,1-2.314,4.023,37.442,37.442,0,0,1,4.036,4.135l-1.241,1.1a31.723,31.723,0,0,0-3.741-4.121,18.52,18.52,0,0,1-5.434,4.064l-1.143-1.2a15.861,15.861,0,0,0,5.8-4.136,11.624,11.624,0,0,0,2.244-3.726h-5.18c-.55,0-1.313.07-1.538.085v-1.595a15.171,15.171,0,0,0,1.538.1h5.236a4.274,4.274,0,0,0,1.229-.142l.917.678A4.861,4.861,0,0,0,288.648,219.49Z"/><path d="M294.242,221.3h9.232a11.862,11.862,0,0,0,1.185-.071v1.454c-.325-.029-.818-.042-1.185-.042h-3.628a8.775,8.775,0,0,1-.875,3.768,6.782,6.782,0,0,1-2.809,2.625l-1.3-.945a6.055,6.055,0,0,0,2.612-2.1,6.559,6.559,0,0,0,.846-3.344h-4.079c-.423,0-.9.013-1.284.042v-1.454A12.2,12.2,0,0,0,294.242,221.3Zm1.751-3.558h5.7a12.142,12.142,0,0,0,1.411-.1V219.1c-.451-.029-.973-.042-1.411-.042h-5.688c-.466,0-.988.013-1.383.042v-1.454A10.849,10.849,0,0,0,295.993,217.739Z"/><path d="M310.762,223.95l-1.342.494a28.713,28.713,0,0,0-1.284-3.218l1.327-.48C309.787,221.4,310.493,223.174,310.762,223.95Zm6.873-2.2a11.324,11.324,0,0,1-1.976,4.263,10.958,10.958,0,0,1-4.643,3.416l-1.172-1.2a9.629,9.629,0,0,0,4.63-2.979,9.8,9.8,0,0,0,1.877-4.826l1.552.493C317.776,221.269,317.691,221.522,317.635,221.748Zm-3.754,1.327-1.327.48a25.923,25.923,0,0,0-1.129-3.106l1.326-.437C313.006,220.6,313.7,222.454,313.881,223.075Z"/><path d="M324.2,218.657l1.6.324c-.1.354-.226.89-.3,1.2a30.027,30.027,0,0,1-1.241,4.346,20.592,20.592,0,0,1-2.075,3.939l-1.539-.65a18.11,18.11,0,0,0,2.188-3.867A21.291,21.291,0,0,0,324.2,218.657Zm3.542.311,1.454-.481a49.674,49.674,0,0,1,2.075,4.532c.537,1.354,1.285,3.556,1.665,4.883l-1.608.522a48.452,48.452,0,0,0-1.539-4.911A37.372,37.372,0,0,0,327.745,218.968Zm4.207-2.329a1.63,1.63,0,1,1-1.624,1.637A1.638,1.638,0,0,1,331.952,216.639Zm0,2.512a.891.891,0,0,0,.889-.875.9.9,0,0,0-.889-.889.892.892,0,0,0-.876.889A.88.88,0,0,0,331.952,219.151Z"/><path d="M335.739,229.638l-1.073-.508a8.789,8.789,0,0,0,0-12.477l1.073-.508a9.54,9.54,0,0,1,0,13.493Z"/><path d="M381.972,217.559v1.03h-2.667a5.874,5.874,0,0,1,.676,1.045l-1.17.352a7.346,7.346,0,0,0-.89-1.4h-.946a8.25,8.25,0,0,1-1.2,1.3,8.209,8.209,0,0,0-1.157-.65,5.387,5.387,0,0,0,.763-.649h-2.3a8.7,8.7,0,0,1,.508,1.03l-1.144.339a8.226,8.226,0,0,0-.649-1.369h-.4a9.6,9.6,0,0,1-1.185,1.426,8.329,8.329,0,0,0-1.073-.72,7.611,7.611,0,0,0,2.046-2.852l1.228.326a8.313,8.313,0,0,1-.381.79h3.43v.945a6.3,6.3,0,0,0,1.327-2.061l1.256.311c-.112.268-.254.536-.4.805Zm-10.642,6.224v5.688h-1.2v-9.344h5.053v3.656Zm0-2.851v.635h2.652v-.635Zm2.652,2.06v-.663H371.33v.663Zm.255,5.308v.494h-1.186v-4.361h5.237V228.3Zm0-3.106v.763h2.894v-.763Zm2.894,2.315v-.777h-2.894v.777Zm4.262.564c0,.65-.155,1-.592,1.2a6.73,6.73,0,0,1-2.2.2,4.5,4.5,0,0,0-.4-1.158c.72.029,1.454.029,1.666.015s.281-.071.281-.268v-4.277H376.2v-3.656h5.194Zm-4.008-7.141v.635h2.765v-.635Zm2.765,2.06v-.663h-2.765v.663Z"/><path d="M395.455,223.7s-.027.353-.057.536c-.281,3.106-.578,4.348-1.015,4.8a1.469,1.469,0,0,1-1.031.438,11.487,11.487,0,0,1-1.736,0,2.785,2.785,0,0,0-.352-1.115,13.973,13.973,0,0,0,1.509.071.605.605,0,0,0,.508-.17c.283-.254.537-1.214.748-3.415h-1.481a11.781,11.781,0,0,1-3.261,4.728,7.5,7.5,0,0,0-1.03-.819,9.153,9.153,0,0,0,2.936-3.909H389.6a13.233,13.233,0,0,1-4.221,4.346,7.961,7.961,0,0,0-.987-.945,10.488,10.488,0,0,0,3.725-3.4h-1.636a14.837,14.837,0,0,1-2.231,1.792,7,7,0,0,0-1-.932,10.718,10.718,0,0,0,3.5-3.062h-1.41v-5.477h9.089v5.477h-6.14c-.24.367-.494.706-.762,1.058Zm-8.836-4.319h6.465v-1.143h-6.465Zm0,2.2h6.465V220.4h-6.465Z"/><path d="M402.4,217.163a20.241,20.241,0,0,1-1.525,2.894v9.4h-1.313v-7.552a15.444,15.444,0,0,1-1.636,1.78,9.01,9.01,0,0,0-.791-1.37,15.321,15.321,0,0,0,3.98-5.575Zm5.9,10.9c.733,0,.833-.5.946-2.513a3.835,3.835,0,0,0,1.227.564c-.168,2.344-.55,3.176-2.088,3.176h-2.668c-1.6,0-2.061-.479-2.061-2.187V216.867h1.313v5.053A22.334,22.334,0,0,0,408.9,219.2l.946,1.144a34.2,34.2,0,0,1-4.869,2.922v3.853c0,.8.14.946.875.946Z"/><path d="M417.85,217.163l1.523-.184a15.488,15.488,0,0,0,.607,2.33,17.452,17.452,0,0,0,3.049-.678l.17,1.412a24.229,24.229,0,0,1-2.753.55,15.744,15.744,0,0,0,1.454,2.626,6.645,6.645,0,0,0,.678.832l-.706,1.016a34.029,34.029,0,0,0-3.558-.423l.1-1.171c.748.056,1.75.14,2.231.2a19.346,19.346,0,0,1-1.54-2.936,37.074,37.074,0,0,1-5.984-.043l-.028-1.424a29.106,29.106,0,0,0,5.518.183c-.14-.437-.267-.8-.367-1.087C418.146,218.053,418,217.587,417.85,217.163Zm-2.965,8.681c0,1.27,1.143,1.82,3.176,1.835a17.965,17.965,0,0,0,3.7-.339l-.071,1.411a19.291,19.291,0,0,1-3.711.311c-2.767-.014-4.518-1.044-4.518-3.006a5.552,5.552,0,0,1,.707-2.471l1.4.311A3.567,3.567,0,0,0,414.885,225.844Z"/><path d="M429.032,217.064l1.638.057c-.071.367-.184,1.115-.3,2.047l.043-.015.465.593c-.169.254-.438.663-.663,1.017-.015.2-.029.394-.057.606,1.115-1,2.851-2.272,4.249-2.272a1.857,1.857,0,0,1,2.074,1.99c0,1.426-.507,3.7-.507,5.152,0,.423.211.762.648.762a3.079,3.079,0,0,0,2-1.1l.212,1.538a3.709,3.709,0,0,1-2.625,1.129c-.988,0-1.653-.676-1.653-1.933,0-1.553.524-3.769.524-5.095a.97.97,0,0,0-1.073-1.115c-1.1,0-2.724,1.326-3.952,2.653-.029.508-.043,1-.043,1.44,0,1.228-.014,2.23.071,3.514.014.254.042.663.07.96h-1.524c.028-.3.043-.706.043-.931.013-1.328.013-2.131.056-3.7-.664.975-1.5,2.189-2.09,3.007l-.875-1.228c.777-.988,2.315-3.021,3.078-4.163q.042-.615.085-1.229c-.664.085-1.835.24-2.682.354l-.142-1.441a8.638,8.638,0,0,0,1.059-.014c.437-.028,1.171-.113,1.849-.211.043-.607.07-1.073.07-1.228A7.924,7.924,0,0,0,429.032,217.064Z"/><path d="M445.367,218.405c-.043.241-.1.523-.17.833a24.6,24.6,0,0,0,2.555-.494v1.4a25,25,0,0,1-2.837.479c-.142.608-.3,1.257-.452,1.85a42.572,42.572,0,0,1-2.23,6.492l-1.538-.523a32.563,32.563,0,0,0,2.4-6.323c.113-.437.226-.9.34-1.369-.411.015-.791.028-1.145.028-.648,0-1.171-.013-1.679-.056l-.028-1.383a13.244,13.244,0,0,0,1.722.113c.437,0,.917-.014,1.411-.056.071-.424.141-.791.17-1.059a5.827,5.827,0,0,0,.056-1.271l1.694.127C445.551,217.544,445.424,218.123,445.367,218.405Zm1.694,7.791c0,.636.38,1.214,2.187,1.214a15.883,15.883,0,0,0,2.823-.282l-.042,1.426a21.962,21.962,0,0,1-2.8.2c-2.3,0-3.543-.748-3.543-2.146a8.287,8.287,0,0,1,.241-1.763l1.312.127A5.17,5.17,0,0,0,447.061,226.2Zm2.328-4.841a24.1,24.1,0,0,1,2.47.113l-.043,1.355a17.924,17.924,0,0,0-2.4-.183,23.7,23.7,0,0,0-2.668.155v-1.313C447.512,221.412,448.486,221.355,449.389,221.355Z"/><path d="M466.67,225.6h-5.647v3.853h-1.382V225.6h-5.534v-1.313h5.534v-2h-4.659v-1.3h4.659v-4.474h1.382v4.474h4.87v1.3h-4.87v2h5.647Zm-9.811-5.124a14.072,14.072,0,0,0-1.523-3.147l1.2-.466a13.489,13.489,0,0,1,1.61,3.076Zm8.639-3.218a29.336,29.336,0,0,1-1.82,3.162l-1.186-.438a17.665,17.665,0,0,0,1.609-3.175Z"/><path d="M477.811,225.688h3.047v1.017h-3.047v1.453c0,.636-.128.96-.622,1.144a7.683,7.683,0,0,1-2.329.169,3.841,3.841,0,0,0-.409-1.115c.8.028,1.595.028,1.807.014s.3-.057.3-.24v-1.425h-4.911a10.693,10.693,0,0,1,1.806,1.453l-.96.819a10.405,10.405,0,0,0-1.962-1.665l.72-.607h-3.105v-1.017h8.412v-.734c-1.031,0-2,0-2.682-.028a4.009,4.009,0,0,1-3.176-1.256c-.676.452-1.369.9-2.117,1.4L468.1,224a20.932,20.932,0,0,0,1.863-1.031V221.1H468.2v-1h2.95v2.682a3.13,3.13,0,0,0,2.71,1.171c1.652.057,5.293.015,7.156-.1a4.661,4.661,0,0,0-.353,1.03c-.733.028-1.778.056-2.85.07Zm-7.354-6.408a8.879,8.879,0,0,0-1.878-1.806l.861-.72a9.041,9.041,0,0,1,1.934,1.722Zm4.841-.028c.056-.184.1-.4.14-.593h-3.753v-.917h2.229a6.732,6.732,0,0,0-.55-.988l1.059-.24a5.545,5.545,0,0,1,.733,1.228h2.174a11.492,11.492,0,0,0,.706-1.242l1.228.24a9.94,9.94,0,0,1-.7,1h2.257v.917h-4.149c-.085.212-.17.409-.24.593h3.246v4.15h-6.888v-4.15Zm3.091.649h-4.375v.523h4.375Zm0,1.144h-4.375v.551h4.375Zm0,1.171h-4.375v.551h4.375Z"/><path d="M486.185,216.951A22.738,22.738,0,0,1,485,219.8v9.654h-1.257v-7.48c-.352.507-.691.96-1.044,1.382a8.291,8.291,0,0,0-.734-1.326,15.826,15.826,0,0,0,2.992-5.434Zm5.49,3.515a14.191,14.191,0,0,0,3.641,5.773,5.051,5.051,0,0,0-1,1.044,16.412,16.412,0,0,1-3.374-5.815V225.8h2.089v1.185H490.94V229.4h-1.284v-2.413h-2.1V225.8h2.1v-4.249a15.938,15.938,0,0,1-3.471,5.772,4.945,4.945,0,0,0-.932-1,14.293,14.293,0,0,0,3.712-5.857h-3.091v-1.242h3.782V216.6h1.284v2.625h4.038v1.242Z"/><path d="M508.307,222.908a6.511,6.511,0,0,1-1.822,2.061,11.37,11.37,0,0,0,2.894.833,3.784,3.784,0,0,0-.678.93c-.267-.055-.522-.112-.776-.182v2.907h-1.157v-.3H504.34v.325h-1.129v-2.88c-.282.1-.551.184-.833.255a3.085,3.085,0,0,0-.438-.692v.706h-1.721v1.157l2.075-.183.014.96c-2.047.225-4.193.437-5.717.564l-.112-1.016.719-.056v-2.71h1v2.625l.89-.07v-2.993h-1.765v-2.738h4.545v1.708a6.08,6.08,0,0,0,2.513-2.217l1.015.17a5.143,5.143,0,0,1-.338.508h2.357l.184-.057Zm-10.4-1.891h-1.172v-2.428h5.322V218h-4.432v-.945h10.232V218h-4.53v.593h5.4v2.428h-1.213V219.45h-4.192v2.625h-1.27V219.45H497.9Zm.367.155h3.091v.691h-3.091Zm.113,3.133h2.371v-1.031h-2.371Zm2.992-3.669h-2.795v-.693h2.795Zm.536,5.321a11.092,11.092,0,0,0,2.738-.975,6.881,6.881,0,0,1-.988-.931,7.754,7.754,0,0,1-1.086.748,2.809,2.809,0,0,0-.706-.649v1h-1.651v.805Zm5.435.423a9.334,9.334,0,0,1-1.793-.805,12.387,12.387,0,0,1-1.694.805Zm-.509-6.437v.693h-2.822v-.693Zm-2.822,1.229h3.119v.691h-3.119Zm.367,2.23-.057.056a5.383,5.383,0,0,0,1.214,1,5.937,5.937,0,0,0,1.214-1.058Zm2.385,4.911V227.2H504.34v1.115Z"/><path d="M521.451,228.215c.523,0,.593-.324.664-2.3a3.986,3.986,0,0,0,1.214.565c-.155,2.343-.494,2.963-1.765,2.963h-1.876c-1.384,0-1.751-.409-1.751-1.792v-4.629h-2.329c-.268,3.006-.931,5.279-4.516,6.464a3.733,3.733,0,0,0-.82-1.129c3.248-.988,3.713-2.837,3.939-5.335H510.6v-1.256h5.547v-5.237h1.326v5.237h5.66v1.256h-3.867v4.629c0,.466.085.565.592.565Zm-8.186-7.128a15.248,15.248,0,0,0-1.567-3.472l1.186-.437a13.411,13.411,0,0,1,1.651,3.415Zm8.921-3.557a31.148,31.148,0,0,1-1.934,3.5l-1.129-.437a19.137,19.137,0,0,0,1.693-3.557Z"/><path d="M536.6,225.759a17.067,17.067,0,0,1-2.47,1.384,9.137,9.137,0,0,0,3.388,1.312,4.01,4.01,0,0,0-.763,1.072,8.127,8.127,0,0,1-5.871-4.53h-.029a9.749,9.749,0,0,1-1.863,1.228V227.9c.96-.127,1.99-.268,3.007-.409l.056,1.087c-2.033.3-4.206.606-5.744.805l-.212-1.116,1.637-.211v-1.271a15.444,15.444,0,0,1-2.583.763,4.153,4.153,0,0,0-.719-.947,14.331,14.331,0,0,0,4.7-1.608h-4.461v-1.03h5.6v-1.045h1.313v1.045h5.688V225h-5.137a5.768,5.768,0,0,0,1.185,1.5,17.4,17.4,0,0,0,2.329-1.426Zm-9.062-4.474c-.9.409-1.834.861-2.639,1.213l-.452-1.086c.735-.282,1.779-.721,2.823-1.172Zm-1.016-1.779a8.321,8.321,0,0,0-1.708-1.51l.777-.763a8.456,8.456,0,0,1,1.75,1.441Zm2.315,3.656H527.61v-6.634h1.228Zm3.825-3.7h-3.189V218.32h3.189v-1.792h1.313v1.792h3.3v1.144h-3.3v1.976h2.907v1.143h-7.015V221.44h2.795Z"/><path d="M544.256,222.371c.042-.225.085-.451.112-.705H539.02v-1h5.49c.028-.226.056-.452.07-.678h-4.926v-2.893h10.967v2.893h-4.7c-.042.226-.07.452-.1.678h5.35v1h-5.519c-.043.254-.085.494-.127.705h4.559v4.87h-7.777v-4.87Zm7.255,6.578H541.094v.536h-1.326v-6.93h1.326v5.363h10.417Zm-8.666-10.939H540.91v1.058h1.935Zm5.969,5.095h-5.293v.65h5.293Zm0,1.355h-5.293v.664h5.293Zm0,1.369h-5.293v.678h5.293Zm-4.756-6.761h2V218.01h-2Zm3.2,0h2.033V218.01h-2.033Z"/><path class="cls-10" d="M467.492,191.847c0,7.79-20.942,14.106-46.775,14.106s-46.775-6.316-46.775-14.106,20.942-14.107,46.775-14.107S467.492,184.055,467.492,191.847Z"/><polygon class="cls-11" points="423.664 191.846 417.77 191.846 392.332 152.359 449.102 152.359 423.664 191.846"/><polygon class="cls-12" points="420.117 140.919 373.996 158.94 421.317 174.014 467.438 155.993 420.117 140.919"/><path class="cls-13" d="M420.717,125.93c-11.172,0-20.229-2.839-20.229-6.341v36.317c0,3.5,9.057,6.341,20.229,6.341s20.229-2.838,20.229-6.341V119.589C440.946,123.091,431.889,125.93,420.717,125.93Z"/><path class="cls-14" d="M441.032,119.589c0,3.509-9.075,6.355-20.272,6.355s-20.272-2.846-20.272-6.355,9.077-6.355,20.272-6.355S441.032,116.079,441.032,119.589Z"/><path class="cls-15" d="M423.664,191.846c0,.491-1.319.889-2.947.889s-2.947-.4-2.947-.889,1.319-.889,2.947-.889S423.664,191.355,423.664,191.846Z"/><path class="cls-15" d="M219.664,181.094c0,.491-1.32.89-2.947.89s-2.948-.4-2.948-.89,1.32-.889,2.948-.889S219.664,180.6,219.664,181.094Z"/><path d="M238.375,203.934v1.424h-.569v-1.424h-1.59v-.544h1.59v-.66h-1.277v-2.842h1.277v-.626h-1.475v-.536h1.475v-.882h.577v.882h1.45v.536h-1.45v.626h1.326v2.842h-1.334v.66h1.557v.544Zm-1.36-2.852h.832v-.733h-.832Zm0,1.187h.832v-.75h-.832Zm2.183-1.92h-.873v.733h.873Zm0,1.17h-.873v.75h.873Zm4.021,3.832c-.032-.158-.082-.338-.14-.528-1.186.107-2.422.214-3.3.288l-.1-.609c.2-.009.421-.025.668-.033A27.544,27.544,0,0,0,241,201.42h-1.121v-.585h3.84v.585h-2.043c-.206.989-.478,2.159-.734,3.008.6-.041,1.277-.091,1.953-.149a10.447,10.447,0,0,0-.676-1.516l.528-.206a10.94,10.94,0,0,1,1.038,2.571Zm.2-6.28h-3.188v-.585h3.188Z"/><path d="M251.875,203.5h-1.73a2.864,2.864,0,0,1-.519,1.6.936.936,0,0,1-.684.263,12.852,12.852,0,0,1-1.335-.024,1.188,1.188,0,0,0-.206-.577c.577.057,1.129.057,1.343.057a.527.527,0,0,0,.38-.089,2.264,2.264,0,0,0,.411-1.229h-4.968v-.568h5.051q.05-.422.1-.964h-3.189l-.074.271-.61-.057c.239-.832.544-2.233.725-3.263l.618.066c-.058.281-.115.593-.181.907h3.469v.544h-3.593c-.074.338-.148.675-.222.98h3.716a2.7,2.7,0,0,1-.025.288c-.041.47-.082.873-.123,1.228h1.647Zm-6.509-3.428h-.6v-1.779h6.9v1.779h-.626V198.85h-5.677Z"/><path d="M256.437,198.248l.7-.091a9.841,9.841,0,0,0,.379,1.409,10.589,10.589,0,0,0,1.837-.4l.074.643a12.4,12.4,0,0,1-1.705.338,8.733,8.733,0,0,0,.923,1.7c.115.157.239.3.362.437l-.338.461a18.466,18.466,0,0,0-1.985-.222l.049-.552c.461.041,1.071.091,1.368.124a10.963,10.963,0,0,1-1-1.879,21.125,21.125,0,0,1-3.461-.017l-.017-.659a17.159,17.159,0,0,0,3.255.1c-.1-.305-.181-.552-.238-.741C256.584,198.718,256.511,198.462,256.437,198.248Zm-1.929,5.059c0,.783.717,1.129,1.936,1.137a9.182,9.182,0,0,0,2.126-.206l-.032.659a11.955,11.955,0,0,1-2.126.181c-1.566-.008-2.555-.576-2.555-1.7a3.2,3.2,0,0,1,.4-1.367l.643.148A2.111,2.111,0,0,0,254.508,203.307Z"/><path d="M262.942,198.19l.774.025c-.041.206-.107.667-.164,1.244.016-.008.032-.008.049-.017l.239.288c-.107.149-.247.372-.371.578-.016.156-.025.313-.041.477a4.683,4.683,0,0,1,2.538-1.392,1.022,1.022,0,0,1,1.145,1.1c0,.824-.305,2.241-.305,3.082,0,.272.132.5.428.5a1.819,1.819,0,0,0,1.245-.684l.107.709a2.136,2.136,0,0,1-1.516.684c-.544,0-.915-.354-.915-1.038,0-.915.313-2.266.313-3.073A.592.592,0,0,0,265.8,200a4.5,4.5,0,0,0-2.423,1.582c-.016.346-.024.676-.024.972,0,.75-.008,1.253.033,1.986.008.148.025.354.041.5h-.717c.017-.149.025-.355.025-.486.008-.791.008-1.212.025-2.11,0-.083.008-.2.008-.33-.4.61-.948,1.393-1.343,1.953l-.421-.568c.462-.577,1.418-1.862,1.83-2.5.016-.272.041-.553.058-.816-.372.049-1.1.148-1.616.222l-.066-.676c.182.009.338,0,.536-.007.272-.017.758-.067,1.187-.14.024-.388.041-.692.041-.783A3.932,3.932,0,0,0,262.942,198.19Z"/><path d="M272.3,198.907c-.033.173-.074.387-.124.61a12.152,12.152,0,0,0,1.582-.3v.651a15.961,15.961,0,0,1-1.714.28c-.074.363-.164.742-.264,1.1a25.073,25.073,0,0,1-1.285,3.774l-.724-.247a17.918,17.918,0,0,0,1.383-3.683c.075-.272.149-.585.214-.882-.271.016-.527.025-.758.025-.362,0-.659-.016-.955-.033l-.025-.643a7.541,7.541,0,0,0,.989.058c.272,0,.569-.017.89-.041.057-.289.1-.553.123-.718a3.249,3.249,0,0,0,.025-.683l.791.066C272.4,198.429,272.332,198.742,272.3,198.907Zm.98,4.6c0,.387.214.766,1.393.766a7.932,7.932,0,0,0,1.606-.165l-.024.667a10.8,10.8,0,0,1-1.59.116c-1.3,0-2.011-.4-2.011-1.211a5.234,5.234,0,0,1,.123-.973l.619.058A2.878,2.878,0,0,0,273.279,203.505Zm1.45-2.818a13.047,13.047,0,0,1,1.426.074l-.016.626a10.371,10.371,0,0,0-1.385-.1,13.446,13.446,0,0,0-1.532.083v-.61C273.658,200.72,274.2,200.687,274.729,200.687Z"/><path d="M277.527,198.157h3.667v.552h-1.112v.956h.923v5.554h-.5v-.453h-2.274v.568h-.5v-5.669h.981v-.956h-1.187Zm.7,2.027v2.777H280.5v-.767a.284.284,0,0,1-.091.009h-.395c-.322,0-.42-.083-.42-.478v-1.541h-.461v.66a2.15,2.15,0,0,1-.627,1.623,1.22,1.22,0,0,0-.272-.239,1.747,1.747,0,0,0,.561-1.393v-.651Zm2.274,4.087v-.849h-2.274v.849Zm-.865-5.562h-.487v.956h.487Zm.865,1.475h-.561v1.541c0,.107.009.115.117.115h.3c.083,0,.107,0,.115-.025l.033.025Zm3.444,4.515c.363,0,.429-.206.47-1.392a1.8,1.8,0,0,0,.568.263c-.082,1.335-.255,1.706-1,1.706h-1.368c-.757,0-.988-.189-.988-.939v-3.552h2.455V198.8H281.59v-.593h3.09v3.716h-.6v-.552h-1.853v2.966c0,.305.074.362.453.362Z"/><path d="M286.547,202.6a7.55,7.55,0,0,1-.568,2.092,2.1,2.1,0,0,0-.454-.222,6.431,6.431,0,0,0,.5-1.961Zm.89-.709v3.468h-.544v-3.435l-1.293.082-.059-.552.569-.024c.164-.206.338-.438.511-.685a7.493,7.493,0,0,0-1.021-1.194l.329-.388c.082.074.165.149.247.231a11.853,11.853,0,0,0,.733-1.549l.536.2a15.479,15.479,0,0,1-.948,1.7,5.844,5.844,0,0,1,.445.528,17.081,17.081,0,0,0,.882-1.492l.511.239a27.466,27.466,0,0,1-1.648,2.382l1.186-.058a7.536,7.536,0,0,0-.37-.692l.444-.182a6.857,6.857,0,0,1,.8,1.689l-.486.223a2.824,2.824,0,0,0-.173-.527Zm.733.6a6.254,6.254,0,0,1,.436,1.458l-.477.149a5.632,5.632,0,0,0-.412-1.475Zm2.191-.091a3.853,3.853,0,0,1-1.746,2.629,1.932,1.932,0,0,0-.387-.421,3.088,3.088,0,0,0,1.474-1.8H288.59v-.528h1.344l.089-.008Zm2.737-.107a13.2,13.2,0,0,1-1.27,1.03,3.4,3.4,0,0,0,1.45,1.2,2.915,2.915,0,0,0-.37.495,4.031,4.031,0,0,1-1.8-1.995v1.682c0,.305-.057.461-.271.552a3.243,3.243,0,0,1-1.047.091,1.884,1.884,0,0,0-.165-.528c.363.008.7.008.791,0,.107,0,.132-.024.132-.115v-3.132H288.9v-2.891h1.351a6.714,6.714,0,0,0,.33-.858l.676.132c-.115.248-.256.5-.379.726h1.936v2.891h-1.7v.108a5.222,5.222,0,0,0,.47,1.227,9.679,9.679,0,0,0,1.022-.98Zm-3.643-2.405h2.769v-.709h-2.769Zm0,1.186h2.769v-.717h-2.769Z"/><path d="M296.109,199.2l.734.157c-.049.181-.115.42-.149.593a18,18,0,0,1-.749,2.579,11.925,11.925,0,0,1-1.212,2.266l-.7-.3a10.744,10.744,0,0,0,1.269-2.241A12.524,12.524,0,0,0,296.109,199.2Zm2.052.14.668-.222a26.562,26.562,0,0,1,1.2,2.6c.338.815.776,2.076.99,2.818l-.734.238a24.75,24.75,0,0,0-.931-2.834A21.283,21.283,0,0,0,298.161,199.335Zm2.34-1.276a.927.927,0,0,1,0,1.853.927.927,0,0,1,0-1.853Zm0,1.474a.548.548,0,1,0-.543-.544A.542.542,0,0,0,300.5,199.533Z"/><path d="M305.788,198.907a2.838,2.838,0,0,1-.173.3h2.233a1.631,1.631,0,0,0,.544-.082l.544.33a2.667,2.667,0,0,0-.2.445,8.3,8.3,0,0,1-1.285,2.562c.347.256.676.511.94.726l-.487.568c-.247-.223-.559-.478-.9-.75a7.829,7.829,0,0,1-3.14,2.093l-.594-.511a7.247,7.247,0,0,0,3.19-1.985c-.594-.429-1.22-.858-1.747-1.187l.445-.453c.543.312,1.161.708,1.738,1.112a6.887,6.887,0,0,0,1.121-2.282h-2.785a8.977,8.977,0,0,1-2.183,2.183l-.553-.428a7.557,7.557,0,0,0,2.646-2.868,3.023,3.023,0,0,0,.263-.651l.749.24C306.019,198.479,305.87,198.759,305.788,198.907Z"/><path d="M311.964,201.206h4.515c.413,0,.709-.025.89-.041v.807c-.164-.008-.511-.041-.881-.041h-4.524c-.453,0-.89.016-1.145.041v-.807C311.066,201.181,311.5,201.206,311.964,201.206Z"/><path d="M322.673,203.011a7.792,7.792,0,0,0,2.752-3.032l.395.7a8.228,8.228,0,0,1-2.768,2.932,9.012,9.012,0,0,1-3.239,1.278l-.436-.676A8.531,8.531,0,0,0,322.673,203.011Zm-.486-2.613-.52.519a17.063,17.063,0,0,0-2.052-1.722l.47-.5A18.227,18.227,0,0,1,322.187,200.4Z"/><line class="cls-16" x1="242.482" y1="196.912" x2="224.049" y2="185.071"/><polygon points="225.954 184.263 219.664 182.254 224.106 187.139 225.954 184.263"/><path d="M473.416,159.419l-.812-.553a12.007,12.007,0,0,0,2.248-3.07l.823.4A16.886,16.886,0,0,1,473.416,159.419Zm4.776-7.141v1.211H481.3a9.094,9.094,0,0,0,.965-.058v.976c-.318-.023-.67-.035-.953-.035h-3.118v5.706c0,.611-.294.929-1.011.929a15.954,15.954,0,0,1-1.671-.082l-.082-.93a8.171,8.171,0,0,0,1.352.13c.319,0,.459-.13.459-.447v-5.306H473.98a9.2,9.2,0,0,0-1.011.047v-1a6.689,6.689,0,0,0,1,.07h3.27v-1.211a4.383,4.383,0,0,0-.082-.836h1.106A7.573,7.573,0,0,0,478.192,152.278Zm4.436,6.6-.871.482a19.076,19.076,0,0,0-1.965-3.13l.8-.434A24.136,24.136,0,0,1,482.628,158.878Z"/><path d="M486.182,152.631H492.5c.259,0,.683,0,1.035-.024-.023.294-.023.623-.023.918v5.8c0,.376.011,1.294.023,1.423h-1.012c0-.082.012-.364.012-.682h-6.423c.012.306.012.588.024.682h-1.012c.012-.152.035-1.023.035-1.435v-5.788c0-.271,0-.635-.023-.918C485.594,152.619,485.911,152.631,486.182,152.631Zm-.071,6.517h6.435v-5.587h-6.435Z"/><path d="M500.5,152.736c-.082.165-.177.33-.271.494h3.189a2.278,2.278,0,0,0,.765-.1l.776.471a3.7,3.7,0,0,0-.271.623,11.492,11.492,0,0,1-2.082,4.058,10.469,10.469,0,0,1-4.682,3.2l-.86-.777a9.423,9.423,0,0,0,4.707-2.953,9.56,9.56,0,0,0,1.871-3.67h-3.965a11.362,11.362,0,0,1-2.989,2.894l-.811-.6a9.856,9.856,0,0,0,3.693-3.976,4.355,4.355,0,0,0,.366-.942l1.082.365C500.83,152.125,500.618,152.525,500.5,152.736Zm4.647.13-.635.282a13.369,13.369,0,0,0-.953-1.623l.624-.271A16.785,16.785,0,0,1,505.147,152.866Zm1.318-.482-.636.282a12.182,12.182,0,0,0-.975-1.611l.623-.271A16.982,16.982,0,0,1,506.465,152.384Z"/><path d="M517.125,155.349a8.114,8.114,0,0,1-1.718,3.34,8.512,8.512,0,0,1-4.212,2.459l-.729-.835a7.835,7.835,0,0,0,4.141-2.153,6.027,6.027,0,0,0,1.4-2.6H509.76c-.282,0-.73.011-1.153.035v-.989a11.139,11.139,0,0,0,1.153.071h6.2a1.565,1.565,0,0,0,.646-.094l.671.423A2.056,2.056,0,0,0,517.125,155.349Zm-6.4-3.389h4.623a7.333,7.333,0,0,0,1.071-.059v.977c-.282-.024-.683-.035-1.083-.035h-4.611c-.365,0-.742.011-1.059.035V151.9A7.371,7.371,0,0,0,510.725,151.96Z"/><path d="M524.455,152.983c-.341,1.107-1.506,4.718-2.094,6.247,1.729-.164,3.988-.411,5.283-.587a16.738,16.738,0,0,0-1.436-2.413l.882-.4a33.067,33.067,0,0,1,2.612,4.788l-.988.447c-.153-.423-.377-.964-.648-1.542-1.811.236-5.753.671-7.329.813-.294.023-.634.082-.976.129l-.177-1.094c.354.012.753,0,1.1-.012l.588-.035c.659-1.624,1.859-5.388,2.188-6.541a7.422,7.422,0,0,0,.224-1.13l1.175.236C524.737,152.184,524.607,152.489,524.455,152.983Z"/></svg>