<svg id="レイヤー_1" data-name="レイヤー 1" xmlns="http://www.w3.org/2000/svg" viewBox="0 0 718 166"><defs><style>.cls-1{fill:#fff;}.cls-2,.cls-3{fill:none;stroke-miterlimit:6.045;}.cls-2{stroke:#000;stroke-width:1.618px;stroke-dasharray:3.268 3.268;}.cls-3{stroke:red;stroke-width:0.809px;}.cls-4{fill:red;}.cls-5{isolation:isolate;}.cls-6{fill:#040;}</style></defs><path class="cls-1" d="M375.943,72.861a29.12,29.12,0,1,1-29.12-29.119,29.119,29.119,0,0,1,29.12,29.119"/><path class="cls-2" d="M375.943,72.861a29.12,29.12,0,1,0-29.12,29.12A29.133,29.133,0,0,0,375.943,72.861Z"/><path d="M343.785,86.45a2.492,2.492,0,1,1,4.974,0,2.487,2.487,0,1,1-4.974,0m9.491-21.262c0-2.943-2.072-5.14-6.465-5.14q-4.351,0-8.082,3.855l-1.99-1.865c2.735-2.86,5.886-4.766,10.4-4.766,5.8,0,9.449,3.025,9.449,7.667,0,6.3-10.03,7.668-8.869,13.968H344.7c-1.368-6.964,8.579-8.869,8.579-13.719"/><path class="cls-3" d="M225.436,48.279h69.446"/><path class="cls-4" d="M293.279,50.629l8.769-2.349-8.769-2.351Z"/><path class="cls-3" d="M225.436,72.861h69.446"/><path class="cls-4" d="M293.279,75.211l8.769-2.35-8.769-2.35Z"/><path class="cls-3" d="M393,72.861h69.446"/><path class="cls-4" d="M460.842,75.211l8.768-2.35-8.768-2.35Z"/><path class="cls-3" d="M384.269,46.457,441.6,5.827"/><path class="cls-4" d="M441.649,8.67l5.8-6.987-8.513,3.153,2.718,3.834Z"/><path class="cls-3" d="M384.269,99.266,441.6,139.9"/><path class="cls-4" d="M438.931,140.886l8.512,3.153-5.794-6.986Z"/><path class="cls-3" d="M225.436,97.443h69.446"/><path class="cls-4" d="M293.279,99.792l8.769-2.349-8.769-2.35Z"/><g class="cls-5"><path d="M332.13,115.782a4.278,4.278,0,0,1,1.053-3.069A3.581,3.581,0,0,1,335.9,111.6a3.765,3.765,0,0,1,1.966.521,3.4,3.4,0,0,1,1.334,1.452,4.708,4.708,0,0,1,.46,2.114,4.631,4.631,0,0,1-.484,2.143,3.31,3.31,0,0,1-1.369,1.432,3.914,3.914,0,0,1-1.912.486,3.734,3.734,0,0,1-1.988-.537,3.464,3.464,0,0,1-1.326-1.467A4.438,4.438,0,0,1,332.13,115.782Zm1.075.017a3.156,3.156,0,0,0,.765,2.242,2.672,2.672,0,0,0,3.856-.008,3.344,3.344,0,0,0,.76-2.347,4.046,4.046,0,0,0-.324-1.679,2.492,2.492,0,0,0-.951-1.111,2.573,2.573,0,0,0-1.4-.4,2.664,2.664,0,0,0-1.9.761A3.4,3.4,0,0,0,333.205,115.8Z"/><path d="M341.771,119.617h-.9v-7.874h.966v2.81a1.913,1.913,0,0,1,1.563-.769,2.39,2.39,0,0,1,1,.212,2.041,2.041,0,0,1,.773.6,2.865,2.865,0,0,1,.475.927,3.8,3.8,0,0,1,.172,1.16,3.253,3.253,0,0,1-.725,2.265,2.266,2.266,0,0,1-1.74.8,1.817,1.817,0,0,1-1.585-.844Zm-.01-2.894a2.965,2.965,0,0,0,.279,1.482,1.382,1.382,0,0,0,2.331.2,2.5,2.5,0,0,0,.462-1.64,2.546,2.546,0,0,0-.443-1.649,1.35,1.35,0,0,0-1.072-.532,1.391,1.391,0,0,0-1.095.551A2.415,2.415,0,0,0,341.761,116.723Z"/><path d="M345.768,121.83l.182-.822a1.915,1.915,0,0,0,.457.076.511.511,0,0,0,.44-.2,2,2,0,0,0,.145-.981v-5.994h.967v6.016a2.816,2.816,0,0,1-.274,1.466,1.279,1.279,0,0,1-1.16.537A2.8,2.8,0,0,1,345.768,121.83Zm1.224-8.965v-1.122h.967v1.122Z"/><path d="M353.346,117.78l1,.124a2.44,2.44,0,0,1-.875,1.359,2.969,2.969,0,0,1-3.618-.287,3.017,3.017,0,0,1-.733-2.163,3.153,3.153,0,0,1,.741-2.234,2.51,2.51,0,0,1,1.923-.795,2.438,2.438,0,0,1,1.869.779,3.091,3.091,0,0,1,.725,2.191c0,.058,0,.143,0,.258h-4.254a2.187,2.187,0,0,0,.532,1.439,1.579,1.579,0,0,0,1.192.5,1.479,1.479,0,0,0,.908-.279A1.866,1.866,0,0,0,353.346,117.78Zm-3.174-1.563h3.185a1.934,1.934,0,0,0-.365-1.079,1.483,1.483,0,0,0-1.2-.559,1.538,1.538,0,0,0-1.12.446A1.766,1.766,0,0,0,350.172,116.217Z"/><path d="M359.281,117.527l.951.124a2.47,2.47,0,0,1-.8,1.539,2.325,2.325,0,0,1-1.577.556,2.444,2.444,0,0,1-1.882-.766,3.1,3.1,0,0,1-.712-2.193,3.974,3.974,0,0,1,.306-1.617,2.125,2.125,0,0,1,.932-1.039,2.753,2.753,0,0,1,1.361-.347,2.362,2.362,0,0,1,1.52.47,2.161,2.161,0,0,1,.758,1.335l-.94.145a1.569,1.569,0,0,0-.475-.865,1.235,1.235,0,0,0-.825-.29,1.5,1.5,0,0,0-1.187.524,2.487,2.487,0,0,0-.457,1.657,2.566,2.566,0,0,0,.441,1.67,1.434,1.434,0,0,0,1.149.521,1.355,1.355,0,0,0,.951-.349A1.732,1.732,0,0,0,359.281,117.527Z"/><path d="M363.17,118.752l.14.854a3.547,3.547,0,0,1-.731.086,1.642,1.642,0,0,1-.816-.167.93.93,0,0,1-.409-.437,3.455,3.455,0,0,1-.118-1.141v-3.282h-.709v-.752h.709V112.5l.961-.58v1.993h.973v.752H362.2V118a1.677,1.677,0,0,0,.052.532.4.4,0,0,0,.166.189.653.653,0,0,0,.331.069A3.163,3.163,0,0,0,363.17,118.752Z"/></g><g class="cls-5"><path d="M153.227,76.465V68.591h1.042v7.874Z"/><path d="M155.971,76.465v-5.7h.87v.864a2.378,2.378,0,0,1,.615-.8,1.076,1.076,0,0,1,.621-.193,1.881,1.881,0,0,1,.993.311l-.333.9a1.386,1.386,0,0,0-.709-.209.92.92,0,0,0-.569.19,1.038,1.038,0,0,0-.36.53,3.773,3.773,0,0,0-.161,1.128v2.986Z"/><path d="M159.634,76.465v-5.7h.87v.864a2.391,2.391,0,0,1,.615-.8,1.076,1.076,0,0,1,.621-.193,1.881,1.881,0,0,1,.993.311l-.333.9a1.386,1.386,0,0,0-.709-.209.922.922,0,0,0-.569.19,1.038,1.038,0,0,0-.36.53,3.773,3.773,0,0,0-.161,1.128v2.986Z"/><path d="M167.03,75.762a3.631,3.631,0,0,1-1.034.644,2.991,2.991,0,0,1-1.066.188,2.082,2.082,0,0,1-1.445-.459,1.519,1.519,0,0,1-.505-1.174,1.587,1.587,0,0,1,.691-1.321,2.361,2.361,0,0,1,.7-.318,7.054,7.054,0,0,1,.86-.144,8.833,8.833,0,0,0,1.724-.333c0-.133.005-.217.005-.253a1.064,1.064,0,0,0-.274-.832,1.615,1.615,0,0,0-1.1-.328,1.71,1.71,0,0,0-1.007.239,1.457,1.457,0,0,0-.481.847l-.945-.129a2.351,2.351,0,0,1,.424-.981,1.867,1.867,0,0,1,.854-.575,3.82,3.82,0,0,1,1.295-.2,3.414,3.414,0,0,1,1.187.172,1.564,1.564,0,0,1,.671.432,1.521,1.521,0,0,1,.3.659,5.449,5.449,0,0,1,.048.89v1.289a13.7,13.7,0,0,0,.062,1.706,2.163,2.163,0,0,0,.244.685h-1.009A2.067,2.067,0,0,1,167.03,75.762Zm-.08-2.16a7.105,7.105,0,0,1-1.579.365,3.679,3.679,0,0,0-.844.193.844.844,0,0,0-.381.315.854.854,0,0,0,.159,1.1,1.257,1.257,0,0,0,.856.258,1.992,1.992,0,0,0,.994-.244,1.508,1.508,0,0,0,.639-.668,2.336,2.336,0,0,0,.156-.967Z"/><path d="M173.126,76.465v-.72a1.773,1.773,0,0,1-1.595.849,2.237,2.237,0,0,1-1.254-.376,2.475,2.475,0,0,1-.886-1.05,3.621,3.621,0,0,1-.314-1.55,4.056,4.056,0,0,1,.284-1.55A2.252,2.252,0,0,1,170.215,71a2.293,2.293,0,0,1,1.273-.37,1.894,1.894,0,0,1,.919.218,1.917,1.917,0,0,1,.655.566V68.591h.961v7.874Zm-3.056-2.847a2.474,2.474,0,0,0,.462,1.638,1.394,1.394,0,0,0,1.091.543,1.368,1.368,0,0,0,1.077-.519,2.389,2.389,0,0,0,.443-1.581,2.682,2.682,0,0,0-.452-1.719,1.387,1.387,0,0,0-1.111-.548,1.34,1.34,0,0,0-1.078.527A2.6,2.6,0,0,0,170.07,73.618Z"/><path d="M175.549,69.7V68.591h.967V69.7Zm0,6.762v-5.7h.967v5.7Z"/><path d="M181.709,75.762a3.618,3.618,0,0,1-1.034.644,2.991,2.991,0,0,1-1.066.188,2.077,2.077,0,0,1-1.444-.459,1.515,1.515,0,0,1-.5-1.174,1.568,1.568,0,0,1,.19-.766,1.587,1.587,0,0,1,.5-.555,2.385,2.385,0,0,1,.695-.318,7.054,7.054,0,0,1,.86-.144,8.817,8.817,0,0,0,1.724-.333c0-.133,0-.217,0-.253a1.064,1.064,0,0,0-.274-.832,1.615,1.615,0,0,0-1.1-.328,1.712,1.712,0,0,0-1.007.239,1.462,1.462,0,0,0-.481.847l-.945-.129a2.351,2.351,0,0,1,.424-.981,1.867,1.867,0,0,1,.854-.575,3.82,3.82,0,0,1,1.295-.2,3.414,3.414,0,0,1,1.187.172,1.564,1.564,0,0,1,.671.432,1.521,1.521,0,0,1,.3.659,5.449,5.449,0,0,1,.048.89v1.289a13.7,13.7,0,0,0,.062,1.706,2.141,2.141,0,0,0,.245.685H181.9A2.067,2.067,0,0,1,181.709,75.762Zm-.08-2.16a7.105,7.105,0,0,1-1.579.365,3.654,3.654,0,0,0-.843.193.847.847,0,0,0-.382.315.854.854,0,0,0,.159,1.1,1.257,1.257,0,0,0,.856.258,1.992,1.992,0,0,0,.994-.244,1.508,1.508,0,0,0,.639-.668,2.336,2.336,0,0,0,.156-.967Z"/><path d="M186.216,75.6l.139.854a3.531,3.531,0,0,1-.73.086,1.65,1.65,0,0,1-.816-.167.93.93,0,0,1-.409-.437,3.483,3.483,0,0,1-.118-1.141V71.513h-.709v-.752h.709V69.348l.962-.58v1.993h.972v.752h-.972v3.335a1.687,1.687,0,0,0,.051.532.4.4,0,0,0,.166.188.65.65,0,0,0,.331.07A3.163,3.163,0,0,0,186.216,75.6Z"/><path d="M191.066,74.628l1,.124a2.435,2.435,0,0,1-.876,1.358,2.964,2.964,0,0,1-3.617-.287,3.009,3.009,0,0,1-.733-2.162,3.151,3.151,0,0,1,.741-2.234,2.505,2.505,0,0,1,1.923-.8,2.441,2.441,0,0,1,1.869.778A3.1,3.1,0,0,1,192.1,73.6c0,.057,0,.143,0,.257h-4.254a2.19,2.19,0,0,0,.532,1.44,1.578,1.578,0,0,0,1.192.5,1.481,1.481,0,0,0,.908-.279A1.866,1.866,0,0,0,191.066,74.628Zm-3.174-1.564h3.185a1.932,1.932,0,0,0-.366-1.079,1.482,1.482,0,0,0-1.2-.558,1.532,1.532,0,0,0-1.12.446A1.759,1.759,0,0,0,187.892,73.064Z"/><path d="M196.979,76.465v-.72a1.773,1.773,0,0,1-1.6.849,2.237,2.237,0,0,1-1.254-.376,2.475,2.475,0,0,1-.886-1.05,3.621,3.621,0,0,1-.314-1.55,4.056,4.056,0,0,1,.284-1.55A2.252,2.252,0,0,1,194.068,71a2.293,2.293,0,0,1,1.273-.37,1.894,1.894,0,0,1,.919.218,1.917,1.917,0,0,1,.655.566V68.591h.961v7.874Zm-3.056-2.847a2.474,2.474,0,0,0,.462,1.638,1.394,1.394,0,0,0,1.091.543,1.368,1.368,0,0,0,1.077-.519A2.389,2.389,0,0,0,197,73.7a2.682,2.682,0,0,0-.452-1.719,1.387,1.387,0,0,0-1.111-.548,1.34,1.34,0,0,0-1.078.527A2.6,2.6,0,0,0,193.923,73.618Z"/><path d="M202.431,76.465V68.591h.967v7.874Z"/><path d="M204.9,69.7V68.591h.967V69.7Zm0,6.762v-5.7h.967v5.7Z"/><path d="M207.163,76.938l.94.139a.9.9,0,0,0,.328.634,1.607,1.607,0,0,0,.983.268,1.725,1.725,0,0,0,1.036-.268,1.32,1.32,0,0,0,.494-.752,6.064,6.064,0,0,0,.07-1.24,1.99,1.99,0,0,1-1.579.746,2.153,2.153,0,0,1-1.821-.849,3.27,3.27,0,0,1-.644-2.036,3.785,3.785,0,0,1,.295-1.506,2.368,2.368,0,0,1,.857-1.066,2.31,2.31,0,0,1,1.318-.376,2.044,2.044,0,0,1,1.665.816v-.687H212v4.93a4.673,4.673,0,0,1-.271,1.888,1.98,1.98,0,0,1-.86.878,2.971,2.971,0,0,1-1.447.322,2.725,2.725,0,0,1-1.649-.459A1.55,1.55,0,0,1,207.163,76.938Zm.8-3.427a2.471,2.471,0,0,0,.446,1.637,1.471,1.471,0,0,0,2.235,0,2.4,2.4,0,0,0,.451-1.608,2.337,2.337,0,0,0-.465-1.579,1.436,1.436,0,0,0-1.12-.532,1.392,1.392,0,0,0-1.095.524A2.324,2.324,0,0,0,207.963,73.511Z"/><path d="M213.458,76.465V68.591h.967v2.825a2.161,2.161,0,0,1,1.708-.784,2.3,2.3,0,0,1,1.1.25,1.469,1.469,0,0,1,.669.69,3.182,3.182,0,0,1,.2,1.278v3.615h-.967V72.85a1.49,1.49,0,0,0-.314-1.055,1.165,1.165,0,0,0-.889-.33,1.566,1.566,0,0,0-.809.223,1.258,1.258,0,0,0-.539.6,2.787,2.787,0,0,0-.161,1.053v3.121Z"/><path d="M221.687,75.6l.139.854a3.531,3.531,0,0,1-.73.086,1.657,1.657,0,0,1-.817-.167.932.932,0,0,1-.408-.437,3.455,3.455,0,0,1-.118-1.141V71.513h-.709v-.752h.709V69.348l.961-.58v1.993h.973v.752h-.973v3.335a1.647,1.647,0,0,0,.052.532.4.4,0,0,0,.166.188.648.648,0,0,0,.33.07A3.175,3.175,0,0,0,221.687,75.6Z"/></g><g class="cls-5"><path d="M474.591,76.465V68.591h1.568l1.863,5.575q.258.78.377,1.166.134-.43.418-1.263l1.886-5.478h1.4v7.874h-1v-6.59l-2.288,6.59h-.941l-2.277-6.7v6.7Z"/><path d="M487.567,74.628l1,.124a2.433,2.433,0,0,1-.875,1.358,2.965,2.965,0,0,1-3.618-.287,3.013,3.013,0,0,1-.733-2.162,3.151,3.151,0,0,1,.742-2.234,2.5,2.5,0,0,1,1.922-.8,2.438,2.438,0,0,1,1.869.778A3.094,3.094,0,0,1,488.6,73.6c0,.057,0,.143,0,.257H484.34a2.19,2.19,0,0,0,.531,1.44,1.578,1.578,0,0,0,1.192.5,1.479,1.479,0,0,0,.908-.279A1.852,1.852,0,0,0,487.567,74.628Zm-3.174-1.564h3.185a1.94,1.94,0,0,0-.365-1.079,1.482,1.482,0,0,0-1.2-.558,1.531,1.531,0,0,0-1.12.446A1.764,1.764,0,0,0,484.393,73.064Z"/><path d="M493.5,75.762a3.645,3.645,0,0,1-1.034.644,3,3,0,0,1-1.066.188,2.08,2.08,0,0,1-1.445-.459,1.515,1.515,0,0,1-.5-1.174,1.587,1.587,0,0,1,.691-1.321,2.373,2.373,0,0,1,.7-.318,7.03,7.03,0,0,1,.859-.144,8.831,8.831,0,0,0,1.725-.333c0-.133,0-.217,0-.253a1.061,1.061,0,0,0-.275-.832,1.61,1.61,0,0,0-1.1-.328,1.71,1.71,0,0,0-1.007.239,1.457,1.457,0,0,0-.481.847l-.945-.129a2.339,2.339,0,0,1,.424-.981,1.864,1.864,0,0,1,.853-.575,3.829,3.829,0,0,1,1.295-.2,3.42,3.42,0,0,1,1.188.172,1.57,1.57,0,0,1,.671.432,1.532,1.532,0,0,1,.3.659,5.483,5.483,0,0,1,.047.89v1.289a13.619,13.619,0,0,0,.063,1.706,2.139,2.139,0,0,0,.244.685H493.7A2.044,2.044,0,0,1,493.5,75.762Zm-.08-2.16a7.117,7.117,0,0,1-1.58.365,3.681,3.681,0,0,0-.843.193.847.847,0,0,0-.382.315.854.854,0,0,0,.159,1.1,1.261,1.261,0,0,0,.857.258,2,2,0,0,0,.994-.244,1.513,1.513,0,0,0,.639-.668,2.352,2.352,0,0,0,.156-.967Z"/><path d="M495.511,74.762l.957-.151a1.33,1.33,0,0,0,.448.881,1.557,1.557,0,0,0,1.028.307,1.511,1.511,0,0,0,.989-.272.811.811,0,0,0,.322-.636.589.589,0,0,0-.285-.516,4.2,4.2,0,0,0-.989-.327,8.916,8.916,0,0,1-1.473-.465,1.406,1.406,0,0,1-.835-1.308,1.462,1.462,0,0,1,.174-.706,1.579,1.579,0,0,1,.475-.54,2,2,0,0,1,.616-.282,2.919,2.919,0,0,1,.834-.115,3.3,3.3,0,0,1,1.179.193,1.6,1.6,0,0,1,.749.524,2.033,2.033,0,0,1,.334.883l-.945.129a1.033,1.033,0,0,0-.374-.687,1.363,1.363,0,0,0-.872-.247,1.585,1.585,0,0,0-.951.219.646.646,0,0,0-.286.516.53.53,0,0,0,.12.339.863.863,0,0,0,.37.258c.1.036.382.118.854.247a11.888,11.888,0,0,1,1.431.448,1.46,1.46,0,0,1,.637.508,1.417,1.417,0,0,1,.231.827,1.629,1.629,0,0,1-.282.91,1.832,1.832,0,0,1-.814.661,2.961,2.961,0,0,1-1.2.234,2.687,2.687,0,0,1-1.695-.462A2.146,2.146,0,0,1,495.511,74.762Z"/><path d="M505.136,76.465v-.838a2.089,2.089,0,0,1-1.81.967,2.3,2.3,0,0,1-.942-.194,1.561,1.561,0,0,1-.651-.486,1.821,1.821,0,0,1-.3-.717,4.824,4.824,0,0,1-.06-.9V70.761h.967v3.163a5.672,5.672,0,0,0,.059,1.021,1.013,1.013,0,0,0,.387.6,1.2,1.2,0,0,0,.731.218,1.587,1.587,0,0,0,.816-.224,1.233,1.233,0,0,0,.54-.606,3.066,3.066,0,0,0,.158-1.116V70.761H506v5.7Z"/><path d="M507.506,76.465v-5.7h.869v.864a2.391,2.391,0,0,1,.615-.8,1.076,1.076,0,0,1,.621-.193,1.878,1.878,0,0,1,.993.311l-.333.9a1.385,1.385,0,0,0-.708-.209.923.923,0,0,0-.57.19,1.038,1.038,0,0,0-.36.53,3.741,3.741,0,0,0-.16,1.128v2.986Z"/><path d="M515.083,74.628l1,.124a2.433,2.433,0,0,1-.875,1.358,2.965,2.965,0,0,1-3.618-.287,3.013,3.013,0,0,1-.734-2.162,3.152,3.152,0,0,1,.743-2.234,2.5,2.5,0,0,1,1.922-.8,2.441,2.441,0,0,1,1.869.778,3.094,3.094,0,0,1,.725,2.192c0,.057,0,.143,0,.257h-4.254a2.19,2.19,0,0,0,.532,1.44,1.578,1.578,0,0,0,1.192.5,1.476,1.476,0,0,0,.907-.279A1.853,1.853,0,0,0,515.083,74.628Zm-3.175-1.564h3.186a1.94,1.94,0,0,0-.365-1.079,1.484,1.484,0,0,0-1.2-.558,1.534,1.534,0,0,0-1.12.446A1.764,1.764,0,0,0,511.908,73.064Z"/><path d="M517.3,76.465v-5.7h.865v.8a2.012,2.012,0,0,1,1.73-.929,1.882,1.882,0,0,1,1.039.263,1.405,1.405,0,0,1,.572.736,2.047,2.047,0,0,1,1.762-1,1.734,1.734,0,0,1,1.3.47,2.008,2.008,0,0,1,.456,1.447v3.916h-.962V72.871a2.669,2.669,0,0,0-.093-.835.81.81,0,0,0-.341-.411,1.063,1.063,0,0,0-.58-.155,1.35,1.35,0,0,0-1,.4,1.76,1.76,0,0,0-.4,1.28v3.315h-.966V72.759a1.635,1.635,0,0,0-.237-.967.893.893,0,0,0-.773-.322,1.4,1.4,0,0,0-.755.215,1.211,1.211,0,0,0-.5.628,3.534,3.534,0,0,0-.156,1.193v2.959Z"/><path d="M530.364,74.628l1,.124a2.433,2.433,0,0,1-.875,1.358,2.965,2.965,0,0,1-3.618-.287,3.013,3.013,0,0,1-.733-2.162,3.151,3.151,0,0,1,.742-2.234,2.5,2.5,0,0,1,1.922-.8,2.439,2.439,0,0,1,1.869.778A3.094,3.094,0,0,1,531.4,73.6c0,.057,0,.143,0,.257h-4.254a2.19,2.19,0,0,0,.531,1.44,1.578,1.578,0,0,0,1.192.5,1.479,1.479,0,0,0,.908-.279A1.852,1.852,0,0,0,530.364,74.628Zm-3.175-1.564h3.186a1.94,1.94,0,0,0-.365-1.079,1.482,1.482,0,0,0-1.2-.558,1.535,1.535,0,0,0-1.121.446A1.773,1.773,0,0,0,527.189,73.064Z"/><path d="M532.576,76.465v-5.7h.871v.811a2.048,2.048,0,0,1,1.815-.94,2.375,2.375,0,0,1,.948.185,1.49,1.49,0,0,1,.647.486,1.854,1.854,0,0,1,.3.715,5.49,5.49,0,0,1,.054.939v3.508h-.967V73a2.649,2.649,0,0,0-.112-.884.929.929,0,0,0-.4-.466,1.264,1.264,0,0,0-.673-.175,1.572,1.572,0,0,0-1.067.391,1.937,1.937,0,0,0-.449,1.489v3.115Z"/><path d="M540.806,75.6l.139.854a3.531,3.531,0,0,1-.73.086,1.657,1.657,0,0,1-.817-.167.932.932,0,0,1-.408-.437,3.455,3.455,0,0,1-.118-1.141V71.513h-.709v-.752h.709V69.348l.961-.58v1.993h.973v.752h-.973v3.335a1.677,1.677,0,0,0,.052.532.4.4,0,0,0,.166.188.65.65,0,0,0,.331.07A3.177,3.177,0,0,0,540.806,75.6Z"/><path d="M544.447,73.613a2.94,2.94,0,0,1,.881-2.347,2.652,2.652,0,0,1,1.794-.634,2.563,2.563,0,0,1,1.923.77,2.932,2.932,0,0,1,.746,2.13,3.765,3.765,0,0,1-.33,1.733,2.326,2.326,0,0,1-.961.979,2.788,2.788,0,0,1-1.378.35,2.562,2.562,0,0,1-1.936-.768A3.067,3.067,0,0,1,544.447,73.613Zm.994,0a2.432,2.432,0,0,0,.478,1.641,1.592,1.592,0,0,0,2.4,0,2.486,2.486,0,0,0,.478-1.671,2.35,2.35,0,0,0-.481-1.6,1.592,1.592,0,0,0-2.4,0A2.421,2.421,0,0,0,545.441,73.613Z"/><path d="M551.155,76.465V71.513H550.3v-.752h.854v-.607a2.625,2.625,0,0,1,.1-.854,1.238,1.238,0,0,1,.491-.61,1.767,1.767,0,0,1,.985-.233,4.68,4.68,0,0,1,.9.1l-.145.843a3.225,3.225,0,0,0-.57-.053.846.846,0,0,0-.623.188,1.022,1.022,0,0,0-.182.7v.527h1.112v.752h-1.112v4.952Z"/><path d="M556.65,74.762l.957-.151a1.331,1.331,0,0,0,.449.881,1.557,1.557,0,0,0,1.028.307,1.509,1.509,0,0,0,.988-.272.809.809,0,0,0,.323-.636.588.588,0,0,0-.286-.516,4.183,4.183,0,0,0-.988-.327,8.969,8.969,0,0,1-1.474-.465,1.4,1.4,0,0,1-.834-1.308,1.473,1.473,0,0,1,.173-.706,1.593,1.593,0,0,1,.476-.54,1.985,1.985,0,0,1,.615-.282,2.926,2.926,0,0,1,.835-.115,3.3,3.3,0,0,1,1.179.193,1.6,1.6,0,0,1,.749.524,2.045,2.045,0,0,1,.334.883l-.945.129a1.03,1.03,0,0,0-.375-.687,1.363,1.363,0,0,0-.872-.247,1.589,1.589,0,0,0-.951.219.647.647,0,0,0-.285.516.535.535,0,0,0,.119.339.863.863,0,0,0,.37.258q.145.054.855.247a11.95,11.95,0,0,1,1.431.448,1.451,1.451,0,0,1,.636.508,1.41,1.41,0,0,1,.232.827,1.622,1.622,0,0,1-.283.91,1.829,1.829,0,0,1-.813.661,2.961,2.961,0,0,1-1.2.234,2.685,2.685,0,0,1-1.7-.462A2.151,2.151,0,0,1,556.65,74.762Z"/><path d="M566.26,74.375l.951.124a2.473,2.473,0,0,1-.8,1.539,2.328,2.328,0,0,1-1.577.556,2.447,2.447,0,0,1-1.882-.766,3.1,3.1,0,0,1-.712-2.193,3.953,3.953,0,0,1,.307-1.617,2.123,2.123,0,0,1,.931-1.039,2.757,2.757,0,0,1,1.362-.347,2.359,2.359,0,0,1,1.519.47,2.149,2.149,0,0,1,.758,1.335l-.939.145a1.557,1.557,0,0,0-.476-.865,1.228,1.228,0,0,0-.825-.29,1.506,1.506,0,0,0-1.187.523,2.491,2.491,0,0,0-.456,1.657,2.568,2.568,0,0,0,.44,1.67,1.435,1.435,0,0,0,1.15.522,1.349,1.349,0,0,0,.95-.35A1.735,1.735,0,0,0,566.26,74.375Z"/><path d="M571.76,75.762a3.659,3.659,0,0,1-1.034.644,3,3,0,0,1-1.066.188,2.08,2.08,0,0,1-1.445-.459,1.515,1.515,0,0,1-.5-1.174,1.583,1.583,0,0,1,.69-1.321,2.379,2.379,0,0,1,.7-.318,7.03,7.03,0,0,1,.859-.144,8.847,8.847,0,0,0,1.725-.333c0-.133,0-.217,0-.253a1.061,1.061,0,0,0-.275-.832,1.61,1.61,0,0,0-1.1-.328,1.708,1.708,0,0,0-1.007.239,1.457,1.457,0,0,0-.481.847l-.945-.129a2.339,2.339,0,0,1,.424-.981,1.864,1.864,0,0,1,.853-.575,3.824,3.824,0,0,1,1.295-.2,3.42,3.42,0,0,1,1.188.172,1.576,1.576,0,0,1,.671.432,1.52,1.52,0,0,1,.3.659,5.335,5.335,0,0,1,.048.89v1.289a13.619,13.619,0,0,0,.063,1.706,2.139,2.139,0,0,0,.244.685h-1.01A2.044,2.044,0,0,1,571.76,75.762Zm-.08-2.16a7.117,7.117,0,0,1-1.58.365,3.681,3.681,0,0,0-.843.193.847.847,0,0,0-.382.315.854.854,0,0,0,.159,1.1,1.259,1.259,0,0,0,.857.258,2,2,0,0,0,.994-.244,1.505,1.505,0,0,0,.638-.668,2.333,2.333,0,0,0,.157-.967Z"/><path d="M576.266,75.6l.139.854a3.531,3.531,0,0,1-.73.086,1.657,1.657,0,0,1-.817-.167.932.932,0,0,1-.408-.437,3.455,3.455,0,0,1-.118-1.141V71.513h-.709v-.752h.709V69.348l.961-.58v1.993h.973v.752h-.973v3.335a1.677,1.677,0,0,0,.052.532.4.4,0,0,0,.166.188.65.65,0,0,0,.331.07A3.177,3.177,0,0,0,576.266,75.6Z"/><path d="M579.322,75.6l.14.854a3.547,3.547,0,0,1-.731.086,1.653,1.653,0,0,1-.816-.167.932.932,0,0,1-.408-.437,3.455,3.455,0,0,1-.118-1.141V71.513h-.709v-.752h.709V69.348l.961-.58v1.993h.972v.752h-.972v3.335a1.687,1.687,0,0,0,.051.532.408.408,0,0,0,.166.188.655.655,0,0,0,.331.07A3.163,3.163,0,0,0,579.322,75.6Z"/><path d="M584.172,74.628l1,.124a2.433,2.433,0,0,1-.875,1.358,2.965,2.965,0,0,1-3.618-.287,3.009,3.009,0,0,1-.734-2.162,3.147,3.147,0,0,1,.743-2.234,2.5,2.5,0,0,1,1.921-.8,2.441,2.441,0,0,1,1.87.778A3.094,3.094,0,0,1,585.2,73.6c0,.057,0,.143,0,.257h-4.254a2.185,2.185,0,0,0,.532,1.44,1.576,1.576,0,0,0,1.192.5,1.478,1.478,0,0,0,.907-.279A1.86,1.86,0,0,0,584.172,74.628ZM581,73.064h3.186a1.932,1.932,0,0,0-.366-1.079,1.48,1.48,0,0,0-1.2-.558,1.534,1.534,0,0,0-1.12.446A1.764,1.764,0,0,0,581,73.064Z"/><path d="M586.375,76.465v-5.7h.869v.864a2.391,2.391,0,0,1,.615-.8,1.076,1.076,0,0,1,.621-.193,1.884,1.884,0,0,1,.994.311l-.333.9a1.392,1.392,0,0,0-.709-.209.923.923,0,0,0-.57.19,1.038,1.038,0,0,0-.36.53,3.773,3.773,0,0,0-.16,1.128v2.986Z"/><path d="M593.952,74.628l1,.124a2.433,2.433,0,0,1-.875,1.358,2.965,2.965,0,0,1-3.618-.287,3.013,3.013,0,0,1-.733-2.162,3.151,3.151,0,0,1,.742-2.234,2.5,2.5,0,0,1,1.922-.8,2.441,2.441,0,0,1,1.869.778,3.094,3.094,0,0,1,.725,2.192c0,.057,0,.143,0,.257h-4.254a2.19,2.19,0,0,0,.531,1.44,1.578,1.578,0,0,0,1.192.5,1.476,1.476,0,0,0,.907-.279A1.853,1.853,0,0,0,593.952,74.628Zm-3.175-1.564h3.186a1.94,1.94,0,0,0-.365-1.079,1.482,1.482,0,0,0-1.2-.558,1.534,1.534,0,0,0-1.12.446A1.773,1.773,0,0,0,590.777,73.064Z"/><path d="M599.866,76.465v-.72a1.773,1.773,0,0,1-1.6.849,2.232,2.232,0,0,1-1.254-.376,2.475,2.475,0,0,1-.886-1.05,3.621,3.621,0,0,1-.315-1.55,4.056,4.056,0,0,1,.285-1.55A2.246,2.246,0,0,1,596.955,71a2.293,2.293,0,0,1,1.273-.37,1.89,1.89,0,0,1,.918.218,1.911,1.911,0,0,1,.656.566V68.591h.961v7.874Zm-3.056-2.847a2.474,2.474,0,0,0,.462,1.638,1.392,1.392,0,0,0,1.09.543,1.366,1.366,0,0,0,1.077-.519,2.389,2.389,0,0,0,.443-1.581,2.689,2.689,0,0,0-.451-1.719,1.388,1.388,0,0,0-1.112-.548,1.338,1.338,0,0,0-1.077.527A2.6,2.6,0,0,0,596.81,73.618Z"/><path d="M605.317,76.465V68.591h.967v7.874Z"/><path d="M607.789,69.7V68.591h.967V69.7Zm0,6.762v-5.7h.967v5.7Z"/><path d="M610.05,76.938l.94.139a.9.9,0,0,0,.327.634,1.614,1.614,0,0,0,.984.268,1.725,1.725,0,0,0,1.036-.268,1.325,1.325,0,0,0,.494-.752,6.167,6.167,0,0,0,.069-1.24,1.986,1.986,0,0,1-1.578.746,2.152,2.152,0,0,1-1.821-.849,3.265,3.265,0,0,1-.645-2.036,3.786,3.786,0,0,1,.3-1.506,2.368,2.368,0,0,1,.857-1.066,2.308,2.308,0,0,1,1.318-.376,2.044,2.044,0,0,1,1.665.816v-.687h.892v4.93a4.669,4.669,0,0,1-.272,1.888,1.972,1.972,0,0,1-.859.878,2.974,2.974,0,0,1-1.447.322,2.728,2.728,0,0,1-1.65-.459A1.55,1.55,0,0,1,610.05,76.938Zm.8-3.427a2.471,2.471,0,0,0,.446,1.637,1.47,1.47,0,0,0,2.234,0,2.39,2.39,0,0,0,.451-1.608,2.342,2.342,0,0,0-.464-1.579,1.436,1.436,0,0,0-1.121-.532,1.393,1.393,0,0,0-1.095.524A2.324,2.324,0,0,0,610.85,73.511Z"/><path d="M616.344,76.465V68.591h.967v2.825a2.163,2.163,0,0,1,1.709-.784,2.3,2.3,0,0,1,1.1.25,1.464,1.464,0,0,1,.669.69,3.182,3.182,0,0,1,.2,1.278v3.615h-.967V72.85a1.49,1.49,0,0,0-.314-1.055,1.165,1.165,0,0,0-.889-.33,1.565,1.565,0,0,0-.808.223,1.253,1.253,0,0,0-.539.6,2.765,2.765,0,0,0-.162,1.053v3.121Z"/><path d="M624.573,75.6l.14.854a3.547,3.547,0,0,1-.731.086,1.653,1.653,0,0,1-.816-.167.932.932,0,0,1-.408-.437,3.455,3.455,0,0,1-.118-1.141V71.513h-.709v-.752h.709V69.348l.961-.58v1.993h.972v.752H623.6v3.335a1.687,1.687,0,0,0,.051.532.408.408,0,0,0,.166.188.655.655,0,0,0,.331.07A3.163,3.163,0,0,0,624.573,75.6Z"/></g><path class="cls-6" d="M164.417,160.289V151.7h6.211v1.014h-5.074v2.631h4.752v1.008h-4.752v2.923h5.273v1.014Z"/><path class="cls-6" d="M171.841,158.432l1.043-.164a1.454,1.454,0,0,0,.489.961,1.71,1.71,0,0,0,1.122.334,1.65,1.65,0,0,0,1.078-.3.885.885,0,0,0,.352-.695.64.64,0,0,0-.311-.562,4.568,4.568,0,0,0-1.078-.358,9.9,9.9,0,0,1-1.608-.506,1.534,1.534,0,0,1-.911-1.427,1.6,1.6,0,0,1,.19-.771,1.717,1.717,0,0,1,.519-.589,2.172,2.172,0,0,1,.67-.307,3.2,3.2,0,0,1,.912-.126,3.593,3.593,0,0,1,1.286.211,1.747,1.747,0,0,1,.817.571,2.226,2.226,0,0,1,.363.964l-1.031.141a1.123,1.123,0,0,0-.407-.75,1.488,1.488,0,0,0-.952-.27,1.724,1.724,0,0,0-1.037.24.7.7,0,0,0-.311.563.584.584,0,0,0,.129.369.933.933,0,0,0,.4.281q.159.058.932.27a12.958,12.958,0,0,1,1.562.489,1.584,1.584,0,0,1,.694.554,1.545,1.545,0,0,1,.252.9,1.769,1.769,0,0,1-.308.993,1.985,1.985,0,0,1-.888.721,3.226,3.226,0,0,1-1.312.255,2.924,2.924,0,0,1-1.849-.5A2.346,2.346,0,0,1,171.841,158.432Z"/><path class="cls-6" d="M180.565,159.346l.153.931a3.884,3.884,0,0,1-.8.094,1.8,1.8,0,0,1-.891-.182,1.016,1.016,0,0,1-.445-.477,3.771,3.771,0,0,1-.129-1.245v-3.58h-.773v-.821h.773v-1.541l1.049-.632v2.173h1.06v.821h-1.06v3.638a1.8,1.8,0,0,0,.056.58.44.44,0,0,0,.181.206.711.711,0,0,0,.361.076A3.474,3.474,0,0,0,180.565,159.346Z"/><path class="cls-6" d="M181.6,152.912V151.7h1.054v1.213Zm0,7.377v-6.223h1.054v6.223Z"/><path class="cls-6" d="M184.263,160.289v-6.223h.943v.873a2.225,2.225,0,0,1,.779-.735,2.2,2.2,0,0,1,1.108-.278,2.043,2.043,0,0,1,1.134.287,1.544,1.544,0,0,1,.624.8,2.232,2.232,0,0,1,1.921-1.09,1.9,1.9,0,0,1,1.424.512,2.194,2.194,0,0,1,.5,1.58v4.271h-1.048v-3.92a2.894,2.894,0,0,0-.1-.911.876.876,0,0,0-.372-.448,1.157,1.157,0,0,0-.633-.17,1.473,1.473,0,0,0-1.09.436,1.924,1.924,0,0,0-.433,1.4v3.615H187.96v-4.043a1.78,1.78,0,0,0-.258-1.055.977.977,0,0,0-.844-.351,1.536,1.536,0,0,0-.823.234,1.332,1.332,0,0,0-.548.686,3.866,3.866,0,0,0-.17,1.3v3.228Z"/><path class="cls-6" d="M198.319,159.521a3.9,3.9,0,0,1-1.128.7,3.274,3.274,0,0,1-1.163.205,2.262,2.262,0,0,1-1.576-.5,1.655,1.655,0,0,1-.551-1.281,1.712,1.712,0,0,1,.208-.835,1.735,1.735,0,0,1,.545-.606,2.577,2.577,0,0,1,.759-.346,7.731,7.731,0,0,1,.938-.158,9.641,9.641,0,0,0,1.88-.363c0-.145.006-.236.006-.276a1.162,1.162,0,0,0-.3-.908,1.764,1.764,0,0,0-1.2-.357,1.858,1.858,0,0,0-1.1.261,1.59,1.59,0,0,0-.525.922l-1.031-.14a2.559,2.559,0,0,1,.463-1.07,2.026,2.026,0,0,1,.932-.626,4.137,4.137,0,0,1,1.412-.22,3.74,3.74,0,0,1,1.3.187,1.708,1.708,0,0,1,.732.472,1.655,1.655,0,0,1,.328.718,5.939,5.939,0,0,1,.053.972v1.407a14.941,14.941,0,0,0,.067,1.86,2.341,2.341,0,0,0,.267.747h-1.1A2.265,2.265,0,0,1,198.319,159.521Zm-.088-2.355a7.725,7.725,0,0,1-1.722.4,4.017,4.017,0,0,0-.92.211.926.926,0,0,0-.416.343.93.93,0,0,0,.173,1.2,1.37,1.37,0,0,0,.934.282,2.169,2.169,0,0,0,1.084-.267,1.644,1.644,0,0,0,.7-.73,2.55,2.55,0,0,0,.169-1.054Z"/><path class="cls-6" d="M203.235,159.346l.153.931a3.884,3.884,0,0,1-.8.094,1.8,1.8,0,0,1-.891-.182,1.016,1.016,0,0,1-.445-.477,3.771,3.771,0,0,1-.129-1.245v-3.58h-.773v-.821h.773v-1.541l1.049-.632v2.173h1.06v.821h-1.06v3.638a1.843,1.843,0,0,0,.055.58.448.448,0,0,0,.182.206.709.709,0,0,0,.36.076A3.473,3.473,0,0,0,203.235,159.346Z"/><path class="cls-6" d="M204.272,152.912V151.7h1.055v1.213Zm0,7.377v-6.223h1.055v6.223Z"/><path class="cls-6" d="M206.54,157.178a3.207,3.207,0,0,1,.961-2.561,2.894,2.894,0,0,1,1.957-.691,2.792,2.792,0,0,1,2.1.841,3.2,3.2,0,0,1,.814,2.323,4.114,4.114,0,0,1-.36,1.889,2.552,2.552,0,0,1-1.049,1.07,3.053,3.053,0,0,1-1.5.381,2.8,2.8,0,0,1-2.112-.838A3.348,3.348,0,0,1,206.54,157.178Zm1.084,0a2.649,2.649,0,0,0,.522,1.79,1.736,1.736,0,0,0,2.619,0,2.718,2.718,0,0,0,.521-1.822,2.572,2.572,0,0,0-.524-1.749,1.738,1.738,0,0,0-2.616,0A2.635,2.635,0,0,0,207.624,157.178Z"/><path class="cls-6" d="M213.606,160.289v-6.223h.95v.885a2.237,2.237,0,0,1,1.98-1.025,2.592,2.592,0,0,1,1.034.2,1.621,1.621,0,0,1,.706.53,2.02,2.02,0,0,1,.328.78,5.923,5.923,0,0,1,.059,1.025v3.826h-1.055V156.5a2.842,2.842,0,0,0-.123-.964,1.013,1.013,0,0,0-.436-.51,1.388,1.388,0,0,0-.736-.19,1.707,1.707,0,0,0-1.163.428,2.11,2.11,0,0,0-.489,1.623v3.4Z"/><path class="cls-6" d="M223.222,157.178a3.207,3.207,0,0,1,.961-2.561,2.894,2.894,0,0,1,1.957-.691,2.79,2.79,0,0,1,2.1.841,3.2,3.2,0,0,1,.815,2.323,4.1,4.1,0,0,1-.361,1.889,2.549,2.549,0,0,1-1.048,1.07,3.053,3.053,0,0,1-1.5.381,2.8,2.8,0,0,1-2.113-.838A3.347,3.347,0,0,1,223.222,157.178Zm1.084,0a2.649,2.649,0,0,0,.521,1.79,1.736,1.736,0,0,0,2.619,0,2.712,2.712,0,0,0,.522-1.822,2.567,2.567,0,0,0-.525-1.749,1.738,1.738,0,0,0-2.616,0A2.635,2.635,0,0,0,224.306,157.178Z"/><path class="cls-6" d="M230.54,160.289v-5.4h-.932v-.821h.932V153.4a2.9,2.9,0,0,1,.111-.931,1.35,1.35,0,0,1,.537-.665,1.929,1.929,0,0,1,1.075-.255,5.177,5.177,0,0,1,.984.1l-.158.92a3.546,3.546,0,0,0-.621-.058.923.923,0,0,0-.68.2,1.108,1.108,0,0,0-.2.767v.574H232.8v.821h-1.213v5.4Z"/><path class="cls-6" d="M239.259,159.346l.152.931a3.876,3.876,0,0,1-.8.094,1.791,1.791,0,0,1-.89-.182,1.018,1.018,0,0,1-.446-.477,3.771,3.771,0,0,1-.129-1.245v-3.58h-.773v-.821h.773v-1.541l1.049-.632v2.173h1.061v.821H238.2v3.638a1.832,1.832,0,0,0,.056.58.442.442,0,0,0,.182.206.709.709,0,0,0,.36.076A3.5,3.5,0,0,0,239.259,159.346Z"/><path class="cls-6" d="M240.29,160.289V151.7h1.055v3.082a2.356,2.356,0,0,1,1.863-.855,2.519,2.519,0,0,1,1.2.272,1.606,1.606,0,0,1,.73.753,3.481,3.481,0,0,1,.219,1.4v3.943H244.3v-3.943a1.634,1.634,0,0,0-.343-1.152,1.277,1.277,0,0,0-.97-.36,1.714,1.714,0,0,0-.882.243,1.373,1.373,0,0,0-.588.659,3.014,3.014,0,0,0-.176,1.149v3.4Z"/><path class="cls-6" d="M251.224,158.285l1.089.135a2.65,2.65,0,0,1-.955,1.482,3.233,3.233,0,0,1-3.946-.313,3.288,3.288,0,0,1-.8-2.359,3.439,3.439,0,0,1,.809-2.437,2.737,2.737,0,0,1,2.1-.867,2.662,2.662,0,0,1,2.039.849,3.38,3.38,0,0,1,.791,2.391c0,.063,0,.156-.006.281H247.7a2.4,2.4,0,0,0,.58,1.571,1.728,1.728,0,0,0,1.3.545,1.613,1.613,0,0,0,.99-.3A2.027,2.027,0,0,0,251.224,158.285Zm-3.463-1.7h3.474a2.11,2.11,0,0,0-.4-1.178,1.618,1.618,0,0,0-1.307-.609,1.675,1.675,0,0,0-1.221.486A1.927,1.927,0,0,0,247.761,156.58Z"/><path class="cls-6" d="M256.55,158.432l1.043-.164a1.454,1.454,0,0,0,.489.961,1.71,1.71,0,0,0,1.122.334,1.65,1.65,0,0,0,1.078-.3.885.885,0,0,0,.352-.695.64.64,0,0,0-.311-.562,4.568,4.568,0,0,0-1.078-.358,9.9,9.9,0,0,1-1.608-.506,1.534,1.534,0,0,1-.911-1.427,1.6,1.6,0,0,1,.19-.771,1.717,1.717,0,0,1,.519-.589,2.172,2.172,0,0,1,.67-.307,3.2,3.2,0,0,1,.912-.126,3.593,3.593,0,0,1,1.286.211,1.747,1.747,0,0,1,.817.571,2.226,2.226,0,0,1,.363.964l-1.031.141a1.123,1.123,0,0,0-.407-.75,1.488,1.488,0,0,0-.952-.27,1.724,1.724,0,0,0-1.037.24.7.7,0,0,0-.311.563.584.584,0,0,0,.129.369.933.933,0,0,0,.4.281q.159.058.932.27a12.865,12.865,0,0,1,1.561.489,1.581,1.581,0,0,1,.695.554,1.545,1.545,0,0,1,.252.9,1.769,1.769,0,0,1-.308.993,1.985,1.985,0,0,1-.888.721,3.226,3.226,0,0,1-1.312.255,2.924,2.924,0,0,1-1.849-.5A2.346,2.346,0,0,1,256.55,158.432Z"/><path class="cls-6" d="M262.972,160.289V151.7h1.054v3.082a2.359,2.359,0,0,1,1.864-.855,2.519,2.519,0,0,1,1.2.272,1.6,1.6,0,0,1,.729.753,3.461,3.461,0,0,1,.22,1.4v3.943h-1.055v-3.943a1.634,1.634,0,0,0-.342-1.152,1.277,1.277,0,0,0-.97-.36,1.709,1.709,0,0,0-.882.243,1.375,1.375,0,0,0-.589.659,3.034,3.034,0,0,0-.176,1.149v3.4Z"/><path class="cls-6" d="M273.706,159.521a3.926,3.926,0,0,1-1.128.7,3.274,3.274,0,0,1-1.163.205,2.261,2.261,0,0,1-1.576-.5,1.655,1.655,0,0,1-.551-1.281,1.7,1.7,0,0,1,.208-.835,1.725,1.725,0,0,1,.545-.606,2.577,2.577,0,0,1,.759-.346,7.707,7.707,0,0,1,.937-.158,9.638,9.638,0,0,0,1.881-.363c0-.145.006-.236.006-.276a1.166,1.166,0,0,0-.3-.908,1.766,1.766,0,0,0-1.2-.357,1.864,1.864,0,0,0-1.1.261,1.589,1.589,0,0,0-.524.922l-1.031-.14a2.546,2.546,0,0,1,.463-1.07,2.022,2.022,0,0,1,.931-.626,4.146,4.146,0,0,1,1.412-.22,3.736,3.736,0,0,1,1.3.187,1.718,1.718,0,0,1,.733.472,1.666,1.666,0,0,1,.328.718,5.939,5.939,0,0,1,.053.972v1.407a14.941,14.941,0,0,0,.067,1.86,2.341,2.341,0,0,0,.267.747h-1.1A2.243,2.243,0,0,1,273.706,159.521Zm-.088-2.355a7.739,7.739,0,0,1-1.722.4,4,4,0,0,0-.92.211.92.92,0,0,0-.416.343.931.931,0,0,0,.172,1.2,1.373,1.373,0,0,0,.935.282,2.172,2.172,0,0,0,1.084-.267,1.641,1.641,0,0,0,.7-.73,2.531,2.531,0,0,0,.17-1.054Z"/><path class="cls-6" d="M276.319,162.674v-8.608h.961v.809a2.378,2.378,0,0,1,.768-.712,2.111,2.111,0,0,1,1.037-.237,2.461,2.461,0,0,1,1.406.41,2.516,2.516,0,0,1,.92,1.157,4.226,4.226,0,0,1,.311,1.638,4.169,4.169,0,0,1-.343,1.72,2.589,2.589,0,0,1-1,1.171,2.556,2.556,0,0,1-1.374.408,1.987,1.987,0,0,1-.946-.223,2.153,2.153,0,0,1-.689-.562v3.029Zm.955-5.461a2.707,2.707,0,0,0,.487,1.775,1.491,1.491,0,0,0,1.177.575,1.528,1.528,0,0,0,1.2-.595,2.823,2.823,0,0,0,.5-1.843,2.748,2.748,0,0,0-.49-1.781,1.472,1.472,0,0,0-1.169-.592,1.519,1.519,0,0,0-1.192.63A2.816,2.816,0,0,0,277.274,157.213Z"/><path class="cls-6" d="M287.253,158.285l1.09.135a2.655,2.655,0,0,1-.955,1.482,3.235,3.235,0,0,1-3.947-.313,3.288,3.288,0,0,1-.8-2.359,3.438,3.438,0,0,1,.808-2.437,2.737,2.737,0,0,1,2.1-.867,2.661,2.661,0,0,1,2.039.849,3.38,3.38,0,0,1,.791,2.391c0,.063,0,.156-.006.281h-4.641a2.4,2.4,0,0,0,.581,1.571,1.726,1.726,0,0,0,1.3.545,1.618,1.618,0,0,0,.991-.3A2.026,2.026,0,0,0,287.253,158.285Zm-3.463-1.7h3.475a2.11,2.11,0,0,0-.4-1.178,1.616,1.616,0,0,0-1.306-.609,1.676,1.676,0,0,0-1.222.486A1.927,1.927,0,0,0,283.79,156.58Z"/><path class="cls-6" d="M292.608,157.178a3.21,3.21,0,0,1,.961-2.561,2.9,2.9,0,0,1,1.957-.691,2.79,2.79,0,0,1,2.1.841,3.2,3.2,0,0,1,.814,2.323,4.114,4.114,0,0,1-.36,1.889,2.552,2.552,0,0,1-1.049,1.07,3.053,3.053,0,0,1-1.5.381,2.8,2.8,0,0,1-2.112-.838A3.348,3.348,0,0,1,292.608,157.178Zm1.084,0a2.649,2.649,0,0,0,.522,1.79,1.736,1.736,0,0,0,2.619,0,2.712,2.712,0,0,0,.521-1.822,2.567,2.567,0,0,0-.524-1.749,1.738,1.738,0,0,0-2.616,0A2.635,2.635,0,0,0,293.692,157.178Z"/><path class="cls-6" d="M299.927,160.289v-5.4H299v-.821h.932V153.4a2.9,2.9,0,0,1,.111-.931,1.348,1.348,0,0,1,.536-.665,1.931,1.931,0,0,1,1.075-.255,5.2,5.2,0,0,1,.985.1l-.158.92a3.548,3.548,0,0,0-.622-.058.922.922,0,0,0-.679.2,1.108,1.108,0,0,0-.2.767v.574h1.212v.821h-1.212v5.4Z"/><path class="cls-6" d="M305.95,157.178a3.21,3.21,0,0,1,.961-2.561,2.9,2.9,0,0,1,1.957-.691,2.79,2.79,0,0,1,2.1.841,3.2,3.2,0,0,1,.814,2.323,4.114,4.114,0,0,1-.36,1.889,2.552,2.552,0,0,1-1.049,1.07,3.053,3.053,0,0,1-1.5.381,2.8,2.8,0,0,1-2.112-.838A3.348,3.348,0,0,1,305.95,157.178Zm1.084,0a2.649,2.649,0,0,0,.522,1.79,1.736,1.736,0,0,0,2.619,0,2.718,2.718,0,0,0,.521-1.822,2.572,2.572,0,0,0-.524-1.749,1.738,1.738,0,0,0-2.616,0A2.635,2.635,0,0,0,307.034,157.178Z"/><path class="cls-6" d="M313.989,160.289h-.978V151.7h1.054v3.065a2.088,2.088,0,0,1,1.706-.838,2.612,2.612,0,0,1,1.086.231,2.223,2.223,0,0,1,.844.651,3.137,3.137,0,0,1,.519,1.01,4.173,4.173,0,0,1,.187,1.266,3.553,3.553,0,0,1-.791,2.473,2.473,2.473,0,0,1-1.9.873,1.982,1.982,0,0,1-1.729-.92Zm-.011-3.158a3.232,3.232,0,0,0,.3,1.617,1.507,1.507,0,0,0,2.543.214,2.728,2.728,0,0,0,.5-1.79,2.778,2.778,0,0,0-.483-1.8,1.472,1.472,0,0,0-1.169-.58,1.517,1.517,0,0,0-1.2.6A2.64,2.64,0,0,0,313.978,157.131Z"/><path class="cls-6" d="M318.349,162.7l.2-.9a2.158,2.158,0,0,0,.5.082.559.559,0,0,0,.48-.214,2.176,2.176,0,0,0,.159-1.07v-6.539h1.054v6.563a3.071,3.071,0,0,1-.3,1.6,1.393,1.393,0,0,1-1.265.585A3.06,3.06,0,0,1,318.349,162.7Zm1.336-9.779V151.7h1.054v1.225Z"/><path class="cls-6" d="M326.616,158.285l1.09.135a2.655,2.655,0,0,1-.955,1.482,3.233,3.233,0,0,1-3.946-.313,3.284,3.284,0,0,1-.8-2.359,3.438,3.438,0,0,1,.808-2.437,2.74,2.74,0,0,1,2.1-.867,2.661,2.661,0,0,1,2.039.849,3.375,3.375,0,0,1,.791,2.391c0,.063,0,.156-.006.281H323.1a2.392,2.392,0,0,0,.58,1.571,1.726,1.726,0,0,0,1.3.545,1.617,1.617,0,0,0,.99-.3A2.026,2.026,0,0,0,326.616,158.285Zm-3.463-1.7h3.475a2.11,2.11,0,0,0-.4-1.178,1.615,1.615,0,0,0-1.306-.609,1.676,1.676,0,0,0-1.222.486A1.927,1.927,0,0,0,323.153,156.58Z"/><path class="cls-6" d="M333.091,158.01l1.037.135a2.687,2.687,0,0,1-.87,1.678,2.532,2.532,0,0,1-1.72.607,2.676,2.676,0,0,1-2.054-.835,3.392,3.392,0,0,1-.776-2.394,4.319,4.319,0,0,1,.334-1.763,2.332,2.332,0,0,1,1.017-1.134,3.015,3.015,0,0,1,1.485-.378,2.586,2.586,0,0,1,1.658.512,2.352,2.352,0,0,1,.826,1.457l-1.025.158a1.708,1.708,0,0,0-.519-.944,1.339,1.339,0,0,0-.9-.316,1.637,1.637,0,0,0-1.295.571,2.714,2.714,0,0,0-.5,1.808,2.8,2.8,0,0,0,.48,1.822,1.566,1.566,0,0,0,1.254.569,1.477,1.477,0,0,0,1.037-.381A1.887,1.887,0,0,0,333.091,158.01Z"/><path class="cls-6" d="M337.333,159.346l.152.931a3.876,3.876,0,0,1-.8.094,1.793,1.793,0,0,1-.89-.182,1.011,1.011,0,0,1-.445-.477,3.771,3.771,0,0,1-.129-1.245v-3.58h-.774v-.821h.774v-1.541l1.048-.632v2.173h1.061v.821h-1.061v3.638a1.832,1.832,0,0,0,.056.58.442.442,0,0,0,.182.206.709.709,0,0,0,.36.076A3.487,3.487,0,0,0,337.333,159.346Z"/><path class="cls-6" d="M342.671,160.289h-.979V151.7h1.055v3.065a2.086,2.086,0,0,1,1.7-.838,2.616,2.616,0,0,1,1.087.231,2.223,2.223,0,0,1,.844.651,3.136,3.136,0,0,1,.518,1.01,4.173,4.173,0,0,1,.188,1.266,3.558,3.558,0,0,1-.791,2.473,2.474,2.474,0,0,1-1.9.873,1.982,1.982,0,0,1-1.728-.92Zm-.012-3.158a3.23,3.23,0,0,0,.305,1.617,1.507,1.507,0,0,0,2.543.214,2.728,2.728,0,0,0,.5-1.79,2.772,2.772,0,0,0-.484-1.8,1.471,1.471,0,0,0-1.169-.58,1.515,1.515,0,0,0-1.195.6A2.634,2.634,0,0,0,342.659,157.131Z"/><path class="cls-6" d="M352.433,159.521a3.926,3.926,0,0,1-1.128.7,3.277,3.277,0,0,1-1.163.205,2.265,2.265,0,0,1-1.577-.5,1.654,1.654,0,0,1-.55-1.281,1.733,1.733,0,0,1,.753-1.441,2.56,2.56,0,0,1,.758-.346,7.731,7.731,0,0,1,.938-.158,9.671,9.671,0,0,0,1.881-.363c0-.145.006-.236.006-.276a1.166,1.166,0,0,0-.3-.908,1.767,1.767,0,0,0-1.2-.357,1.86,1.86,0,0,0-1.1.261,1.589,1.589,0,0,0-.524.922l-1.032-.14a2.559,2.559,0,0,1,.463-1.07,2.031,2.031,0,0,1,.932-.626,4.142,4.142,0,0,1,1.412-.22,3.74,3.74,0,0,1,1.3.187,1.708,1.708,0,0,1,.732.472,1.643,1.643,0,0,1,.328.718,5.824,5.824,0,0,1,.053.972v1.407a14.861,14.861,0,0,0,.068,1.86,2.314,2.314,0,0,0,.266.747h-1.1A2.221,2.221,0,0,1,352.433,159.521Zm-.088-2.355a7.736,7.736,0,0,1-1.723.4,4.017,4.017,0,0,0-.92.211.926.926,0,0,0-.416.343.934.934,0,0,0,.173,1.2,1.371,1.371,0,0,0,.935.282,2.175,2.175,0,0,0,1.084-.267,1.647,1.647,0,0,0,.7-.73,2.547,2.547,0,0,0,.17-1.054Z"/><path class="cls-6" d="M354.624,158.432l1.043-.164a1.463,1.463,0,0,0,.489.961,1.71,1.71,0,0,0,1.122.334,1.648,1.648,0,0,0,1.078-.3.885.885,0,0,0,.352-.695.64.64,0,0,0-.311-.562,4.55,4.55,0,0,0-1.078-.358,9.9,9.9,0,0,1-1.608-.506,1.534,1.534,0,0,1-.911-1.427,1.6,1.6,0,0,1,.19-.771,1.717,1.717,0,0,1,.519-.589,2.168,2.168,0,0,1,.671-.307,3.189,3.189,0,0,1,.911-.126,3.593,3.593,0,0,1,1.286.211,1.742,1.742,0,0,1,.817.571,2.238,2.238,0,0,1,.364.964l-1.032.141a1.123,1.123,0,0,0-.407-.75,1.486,1.486,0,0,0-.952-.27,1.726,1.726,0,0,0-1.037.24.7.7,0,0,0-.311.563.584.584,0,0,0,.129.369.931.931,0,0,0,.405.281q.158.058.931.27a12.958,12.958,0,0,1,1.562.489,1.578,1.578,0,0,1,.694.554,1.545,1.545,0,0,1,.252.9,1.769,1.769,0,0,1-.308.993,1.988,1.988,0,0,1-.887.721,3.234,3.234,0,0,1-1.313.255,2.921,2.921,0,0,1-1.848-.5A2.342,2.342,0,0,1,354.624,158.432Z"/><path class="cls-6" d="M365.306,158.285l1.09.135a2.656,2.656,0,0,1-.956,1.482,3.233,3.233,0,0,1-3.946-.313,3.288,3.288,0,0,1-.8-2.359,3.439,3.439,0,0,1,.809-2.437,2.737,2.737,0,0,1,2.1-.867,2.662,2.662,0,0,1,2.039.849,3.38,3.38,0,0,1,.791,2.391c0,.063,0,.156-.006.281h-4.641a2.4,2.4,0,0,0,.58,1.571,1.729,1.729,0,0,0,1.3.545,1.613,1.613,0,0,0,.99-.3A2.02,2.02,0,0,0,365.306,158.285Zm-3.463-1.7h3.474a2.1,2.1,0,0,0-.4-1.178,1.618,1.618,0,0,0-1.307-.609,1.675,1.675,0,0,0-1.221.486A1.927,1.927,0,0,0,361.843,156.58Z"/><path class="cls-6" d="M371.757,160.289V159.5a1.937,1.937,0,0,1-1.74.926,2.446,2.446,0,0,1-1.369-.41,2.7,2.7,0,0,1-.966-1.146,3.951,3.951,0,0,1-.343-1.69,4.429,4.429,0,0,1,.31-1.691,2.451,2.451,0,0,1,.932-1.163,2.5,2.5,0,0,1,1.389-.4,2.075,2.075,0,0,1,1.717.855V151.7h1.048v8.59Zm-3.334-3.1a2.7,2.7,0,0,0,.5,1.787,1.521,1.521,0,0,0,1.189.592,1.492,1.492,0,0,0,1.175-.566,2.609,2.609,0,0,0,.483-1.726,2.929,2.929,0,0,0-.492-1.875,1.514,1.514,0,0,0-1.213-.6,1.459,1.459,0,0,0-1.174.574A2.831,2.831,0,0,0,368.423,157.184Z"/><path class="cls-6" d="M377.335,157.178a3.207,3.207,0,0,1,.961-2.561,2.894,2.894,0,0,1,1.957-.691,2.792,2.792,0,0,1,2.1.841,3.2,3.2,0,0,1,.814,2.323,4.114,4.114,0,0,1-.36,1.889,2.558,2.558,0,0,1-1.049,1.07,3.053,3.053,0,0,1-1.5.381,2.8,2.8,0,0,1-2.112-.838A3.348,3.348,0,0,1,377.335,157.178Zm1.084,0a2.655,2.655,0,0,0,.521,1.79,1.737,1.737,0,0,0,2.62,0,2.718,2.718,0,0,0,.521-1.822,2.572,2.572,0,0,0-.524-1.749,1.739,1.739,0,0,0-2.617,0A2.641,2.641,0,0,0,378.419,157.178Z"/><path class="cls-6" d="M384.4,160.289v-6.223h.95v.885a2.237,2.237,0,0,1,1.98-1.025,2.592,2.592,0,0,1,1.034.2,1.621,1.621,0,0,1,.706.53,2.02,2.02,0,0,1,.328.78,6.028,6.028,0,0,1,.059,1.025v3.826H388.4V156.5a2.842,2.842,0,0,0-.123-.964,1.013,1.013,0,0,0-.436-.51,1.388,1.388,0,0,0-.736-.19,1.7,1.7,0,0,0-1.163.428,2.11,2.11,0,0,0-.489,1.623v3.4Z"/><path class="cls-6" d="M398.446,160.289V159.5a1.935,1.935,0,0,1-1.74.926,2.443,2.443,0,0,1-1.368-.41,2.707,2.707,0,0,1-.967-1.146,3.966,3.966,0,0,1-.343-1.69,4.429,4.429,0,0,1,.311-1.691,2.446,2.446,0,0,1,.932-1.163,2.492,2.492,0,0,1,1.388-.4,2.075,2.075,0,0,1,1.717.855V151.7h1.049v8.59Zm-3.334-3.1a2.7,2.7,0,0,0,.5,1.787,1.522,1.522,0,0,0,1.19.592A1.49,1.49,0,0,0,397.98,159a2.6,2.6,0,0,0,.484-1.726,2.929,2.929,0,0,0-.492-1.875,1.515,1.515,0,0,0-1.213-.6,1.46,1.46,0,0,0-1.175.574A2.837,2.837,0,0,0,395.112,157.184Z"/><path class="cls-6" d="M405.144,159.521a3.926,3.926,0,0,1-1.128.7,3.277,3.277,0,0,1-1.163.205,2.265,2.265,0,0,1-1.577-.5,1.654,1.654,0,0,1-.55-1.281,1.733,1.733,0,0,1,.753-1.441,2.56,2.56,0,0,1,.758-.346,7.731,7.731,0,0,1,.938-.158,9.671,9.671,0,0,0,1.881-.363c0-.145.006-.236.006-.276a1.166,1.166,0,0,0-.3-.908,1.767,1.767,0,0,0-1.2-.357,1.86,1.86,0,0,0-1.1.261,1.6,1.6,0,0,0-.525.922l-1.031-.14a2.559,2.559,0,0,1,.463-1.07,2.031,2.031,0,0,1,.932-.626,4.142,4.142,0,0,1,1.412-.22,3.74,3.74,0,0,1,1.3.187,1.708,1.708,0,0,1,.732.472,1.655,1.655,0,0,1,.328.718,5.939,5.939,0,0,1,.053.972v1.407a15.154,15.154,0,0,0,.067,1.86,2.341,2.341,0,0,0,.267.747h-1.1A2.243,2.243,0,0,1,405.144,159.521Zm-.088-2.355a7.736,7.736,0,0,1-1.723.4,4.017,4.017,0,0,0-.92.211.926.926,0,0,0-.416.343.934.934,0,0,0,.173,1.2,1.37,1.37,0,0,0,.934.282,2.169,2.169,0,0,0,1.084-.267,1.644,1.644,0,0,0,.7-.73,2.547,2.547,0,0,0,.17-1.054Z"/><path class="cls-6" d="M410.06,159.346l.152.931a3.884,3.884,0,0,1-.8.094,1.8,1.8,0,0,1-.891-.182,1.016,1.016,0,0,1-.445-.477,3.771,3.771,0,0,1-.129-1.245v-3.58h-.773v-.821h.773v-1.541l1.049-.632v2.173h1.061v.821H409v3.638a1.832,1.832,0,0,0,.056.58.44.44,0,0,0,.181.206.711.711,0,0,0,.361.076A3.5,3.5,0,0,0,410.06,159.346Z"/><path class="cls-6" d="M415.151,159.521a3.9,3.9,0,0,1-1.128.7,3.274,3.274,0,0,1-1.163.205,2.262,2.262,0,0,1-1.576-.5,1.655,1.655,0,0,1-.551-1.281,1.712,1.712,0,0,1,.208-.835,1.735,1.735,0,0,1,.545-.606,2.577,2.577,0,0,1,.759-.346,7.731,7.731,0,0,1,.938-.158,9.641,9.641,0,0,0,1.88-.363c0-.145.006-.236.006-.276a1.166,1.166,0,0,0-.3-.908,1.768,1.768,0,0,0-1.2-.357,1.858,1.858,0,0,0-1.1.261,1.59,1.59,0,0,0-.525.922l-1.031-.14a2.559,2.559,0,0,1,.463-1.07,2.026,2.026,0,0,1,.932-.626,4.142,4.142,0,0,1,1.412-.22,3.74,3.74,0,0,1,1.3.187,1.708,1.708,0,0,1,.732.472,1.655,1.655,0,0,1,.328.718,5.939,5.939,0,0,1,.053.972v1.407a14.941,14.941,0,0,0,.067,1.86,2.341,2.341,0,0,0,.267.747h-1.1A2.265,2.265,0,0,1,415.151,159.521Zm-.088-2.355a7.725,7.725,0,0,1-1.722.4,4.017,4.017,0,0,0-.92.211.926.926,0,0,0-.416.343.93.93,0,0,0,.173,1.2,1.37,1.37,0,0,0,.934.282,2.169,2.169,0,0,0,1.084-.267,1.644,1.644,0,0,0,.7-.73,2.55,2.55,0,0,0,.169-1.054Z"/><path class="cls-6" d="M420.706,157.178a3.207,3.207,0,0,1,.961-2.561,2.894,2.894,0,0,1,1.957-.691,2.792,2.792,0,0,1,2.1.841,3.2,3.2,0,0,1,.814,2.323,4.114,4.114,0,0,1-.36,1.889,2.552,2.552,0,0,1-1.049,1.07,3.053,3.053,0,0,1-1.5.381,2.8,2.8,0,0,1-2.112-.838A3.348,3.348,0,0,1,420.706,157.178Zm1.084,0a2.649,2.649,0,0,0,.522,1.79,1.736,1.736,0,0,0,2.619,0,2.718,2.718,0,0,0,.521-1.822,2.572,2.572,0,0,0-.524-1.749,1.738,1.738,0,0,0-2.616,0A2.635,2.635,0,0,0,421.79,157.178Z"/><path class="cls-6" d="M427.772,160.289v-6.223h.95v.885a2.237,2.237,0,0,1,1.98-1.025,2.592,2.592,0,0,1,1.034.2,1.621,1.621,0,0,1,.706.53,2.036,2.036,0,0,1,.329.78,6.058,6.058,0,0,1,.058,1.025v3.826h-1.055V156.5a2.842,2.842,0,0,0-.123-.964,1.013,1.013,0,0,0-.436-.51,1.388,1.388,0,0,0-.736-.19,1.707,1.707,0,0,0-1.163.428,2.11,2.11,0,0,0-.489,1.623v3.4Z"/><path class="cls-6" d="M440.083,159.346l.152.931a3.876,3.876,0,0,1-.8.094,1.793,1.793,0,0,1-.89-.182,1.011,1.011,0,0,1-.445-.477,3.771,3.771,0,0,1-.129-1.245v-3.58H437.2v-.821h.774v-1.541l1.048-.632v2.173h1.061v.821h-1.061v3.638a1.832,1.832,0,0,0,.056.58.442.442,0,0,0,.182.206.709.709,0,0,0,.36.076A3.487,3.487,0,0,0,440.083,159.346Z"/><path class="cls-6" d="M441.114,160.289V151.7h1.055v3.082a2.356,2.356,0,0,1,1.863-.855,2.517,2.517,0,0,1,1.2.272,1.606,1.606,0,0,1,.73.753,3.478,3.478,0,0,1,.22,1.4v3.943h-1.055v-3.943a1.629,1.629,0,0,0-.343-1.152,1.275,1.275,0,0,0-.97-.36,1.708,1.708,0,0,0-.881.243,1.37,1.37,0,0,0-.589.659,3.034,3.034,0,0,0-.176,1.149v3.4Z"/><path class="cls-6" d="M452.048,158.285l1.09.135a2.66,2.66,0,0,1-.955,1.482,3.235,3.235,0,0,1-3.947-.313,3.288,3.288,0,0,1-.8-2.359,3.438,3.438,0,0,1,.808-2.437,2.737,2.737,0,0,1,2.1-.867,2.662,2.662,0,0,1,2.039.849,3.38,3.38,0,0,1,.791,2.391c0,.063,0,.156-.006.281h-4.641a2.4,2.4,0,0,0,.58,1.571,1.729,1.729,0,0,0,1.3.545,1.613,1.613,0,0,0,.99-.3A2.02,2.02,0,0,0,452.048,158.285Zm-3.463-1.7h3.475a2.11,2.11,0,0,0-.4-1.178,1.616,1.616,0,0,0-1.307-.609,1.675,1.675,0,0,0-1.221.486A1.927,1.927,0,0,0,448.585,156.58Z"/><path class="cls-6" d="M457.374,158.432l1.043-.164a1.463,1.463,0,0,0,.489.961,1.71,1.71,0,0,0,1.122.334,1.648,1.648,0,0,0,1.078-.3.885.885,0,0,0,.352-.695.64.64,0,0,0-.311-.562,4.55,4.55,0,0,0-1.078-.358,9.9,9.9,0,0,1-1.608-.506,1.534,1.534,0,0,1-.911-1.427,1.6,1.6,0,0,1,.19-.771,1.717,1.717,0,0,1,.519-.589,2.168,2.168,0,0,1,.671-.307,3.189,3.189,0,0,1,.911-.126,3.593,3.593,0,0,1,1.286.211,1.742,1.742,0,0,1,.817.571,2.238,2.238,0,0,1,.364.964l-1.032.141a1.123,1.123,0,0,0-.407-.75,1.486,1.486,0,0,0-.952-.27,1.726,1.726,0,0,0-1.037.24.7.7,0,0,0-.311.563.584.584,0,0,0,.129.369.931.931,0,0,0,.405.281q.158.058.931.27a12.958,12.958,0,0,1,1.562.489,1.578,1.578,0,0,1,.694.554,1.545,1.545,0,0,1,.252.9,1.769,1.769,0,0,1-.308.993,1.988,1.988,0,0,1-.887.721,3.234,3.234,0,0,1-1.313.255,2.921,2.921,0,0,1-1.848-.5A2.342,2.342,0,0,1,457.374,158.432Z"/><path class="cls-6" d="M467.856,158.01l1.038.135a2.693,2.693,0,0,1-.871,1.678,2.53,2.53,0,0,1-1.719.607,2.675,2.675,0,0,1-2.054-.835,3.388,3.388,0,0,1-.776-2.394,4.319,4.319,0,0,1,.334-1.763,2.325,2.325,0,0,1,1.016-1.134,3.016,3.016,0,0,1,1.486-.378,2.588,2.588,0,0,1,1.658.512,2.356,2.356,0,0,1,.826,1.457l-1.025.158a1.708,1.708,0,0,0-.519-.944,1.341,1.341,0,0,0-.9-.316,1.635,1.635,0,0,0-1.3.571,2.714,2.714,0,0,0-.5,1.808,2.8,2.8,0,0,0,.48,1.822,1.563,1.563,0,0,0,1.254.569,1.477,1.477,0,0,0,1.037-.381A1.892,1.892,0,0,0,467.856,158.01Z"/><path class="cls-6" d="M473.856,159.521a3.909,3.909,0,0,1-1.127.7,3.283,3.283,0,0,1-1.164.205,2.262,2.262,0,0,1-1.576-.5,1.655,1.655,0,0,1-.551-1.281,1.712,1.712,0,0,1,.208-.835,1.735,1.735,0,0,1,.545-.606,2.577,2.577,0,0,1,.759-.346,7.731,7.731,0,0,1,.938-.158,9.671,9.671,0,0,0,1.881-.363c0-.145,0-.236,0-.276a1.166,1.166,0,0,0-.3-.908,1.768,1.768,0,0,0-1.2-.357,1.858,1.858,0,0,0-1.1.261,1.59,1.59,0,0,0-.525.922l-1.031-.14a2.559,2.559,0,0,1,.463-1.07,2.026,2.026,0,0,1,.932-.626,4.142,4.142,0,0,1,1.412-.22,3.74,3.74,0,0,1,1.295.187,1.708,1.708,0,0,1,.732.472,1.655,1.655,0,0,1,.328.718,5.939,5.939,0,0,1,.053.972v1.407a14.941,14.941,0,0,0,.067,1.86,2.341,2.341,0,0,0,.267.747h-1.1A2.265,2.265,0,0,1,473.856,159.521Zm-.087-2.355a7.736,7.736,0,0,1-1.723.4,4.017,4.017,0,0,0-.92.211.926.926,0,0,0-.416.343.93.93,0,0,0,.173,1.2,1.37,1.37,0,0,0,.934.282,2.169,2.169,0,0,0,1.084-.267,1.644,1.644,0,0,0,.7-.73,2.547,2.547,0,0,0,.17-1.054Z"/><path class="cls-6" d="M478.772,159.346l.153.931a3.884,3.884,0,0,1-.8.094,1.8,1.8,0,0,1-.891-.182,1.016,1.016,0,0,1-.445-.477,3.771,3.771,0,0,1-.129-1.245v-3.58h-.773v-.821h.773v-1.541l1.049-.632v2.173h1.06v.821h-1.06v3.638a1.8,1.8,0,0,0,.056.58.44.44,0,0,0,.181.206.711.711,0,0,0,.361.076A3.474,3.474,0,0,0,478.772,159.346Z"/><path class="cls-6" d="M482.106,159.346l.153.931a3.884,3.884,0,0,1-.8.094,1.8,1.8,0,0,1-.891-.182,1.016,1.016,0,0,1-.445-.477,3.771,3.771,0,0,1-.129-1.245v-3.58h-.773v-.821H480v-1.541l1.049-.632v2.173h1.06v.821h-1.06v3.638a1.8,1.8,0,0,0,.056.58.44.44,0,0,0,.181.206.711.711,0,0,0,.361.076A3.474,3.474,0,0,0,482.106,159.346Z"/><path class="cls-6" d="M487.4,158.285l1.09.135a2.655,2.655,0,0,1-.955,1.482,3.233,3.233,0,0,1-3.946-.313,3.288,3.288,0,0,1-.8-2.359,3.439,3.439,0,0,1,.809-2.437,2.736,2.736,0,0,1,2.1-.867,2.661,2.661,0,0,1,2.039.849,3.375,3.375,0,0,1,.791,2.391c0,.063,0,.156,0,.281h-4.641a2.392,2.392,0,0,0,.58,1.571,1.728,1.728,0,0,0,1.3.545,1.613,1.613,0,0,0,.99-.3A2.019,2.019,0,0,0,487.4,158.285Zm-3.462-1.7h3.474a2.118,2.118,0,0,0-.4-1.178,1.618,1.618,0,0,0-1.307-.609,1.679,1.679,0,0,0-1.222.486A1.926,1.926,0,0,0,483.935,156.58Z"/><path class="cls-6" d="M489.8,160.289v-6.223h.949v.944a2.56,2.56,0,0,1,.671-.873,1.169,1.169,0,0,1,.677-.211,2.057,2.057,0,0,1,1.084.34l-.364.978a1.507,1.507,0,0,0-.773-.228,1,1,0,0,0-.621.208,1.121,1.121,0,0,0-.393.577,4.112,4.112,0,0,0-.176,1.23v3.258Z"/><path class="cls-6" d="M498.067,158.285l1.09.135a2.655,2.655,0,0,1-.955,1.482,3.233,3.233,0,0,1-3.946-.313,3.288,3.288,0,0,1-.8-2.359,3.439,3.439,0,0,1,.809-2.437,2.736,2.736,0,0,1,2.1-.867,2.661,2.661,0,0,1,2.039.849,3.375,3.375,0,0,1,.791,2.391c0,.063,0,.156,0,.281h-4.641a2.392,2.392,0,0,0,.58,1.571,1.728,1.728,0,0,0,1.3.545,1.615,1.615,0,0,0,.99-.3A2.026,2.026,0,0,0,498.067,158.285Zm-3.463-1.7h3.475a2.118,2.118,0,0,0-.4-1.178,1.618,1.618,0,0,0-1.307-.609,1.677,1.677,0,0,0-1.222.486A1.931,1.931,0,0,0,494.6,156.58Z"/><path class="cls-6" d="M504.519,160.289V159.5a1.937,1.937,0,0,1-1.741.926,2.443,2.443,0,0,1-1.368-.41,2.707,2.707,0,0,1-.967-1.146,3.966,3.966,0,0,1-.342-1.69,4.429,4.429,0,0,1,.31-1.691,2.451,2.451,0,0,1,.932-1.163,2.494,2.494,0,0,1,1.388-.4,2.075,2.075,0,0,1,1.717.855V151.7H505.5v8.59Zm-3.334-3.1a2.71,2.71,0,0,0,.5,1.787,1.522,1.522,0,0,0,1.19.592,1.493,1.493,0,0,0,1.175-.566,2.609,2.609,0,0,0,.483-1.726,2.929,2.929,0,0,0-.492-1.875,1.514,1.514,0,0,0-1.213-.6,1.461,1.461,0,0,0-1.175.574A2.837,2.837,0,0,0,501.185,157.184Z"/><path class="cls-6" d="M510.466,160.289V151.7h1.055v8.59Z"/><path class="cls-6" d="M513.161,152.912V151.7h1.055v1.213Zm0,7.377v-6.223h1.055v6.223Z"/><path class="cls-6" d="M515.628,160.805l1.025.152a.974.974,0,0,0,.358.691,1.749,1.749,0,0,0,1.072.293,1.88,1.88,0,0,0,1.131-.293,1.443,1.443,0,0,0,.539-.82,6.707,6.707,0,0,0,.076-1.353,2.169,2.169,0,0,1-1.723.814,2.349,2.349,0,0,1-1.986-.926,3.562,3.562,0,0,1-.7-2.22,4.132,4.132,0,0,1,.322-1.644,2.579,2.579,0,0,1,.935-1.163,2.527,2.527,0,0,1,1.438-.41,2.233,2.233,0,0,1,1.817.89v-.75h.972v5.379a5.089,5.089,0,0,1-.3,2.06,2.16,2.16,0,0,1-.937.958,3.254,3.254,0,0,1-1.579.351,2.979,2.979,0,0,1-1.8-.5A1.692,1.692,0,0,1,515.628,160.805Zm.873-3.739a2.7,2.7,0,0,0,.486,1.788,1.6,1.6,0,0,0,2.438,0,2.611,2.611,0,0,0,.492-1.754,2.552,2.552,0,0,0-.507-1.723,1.566,1.566,0,0,0-1.222-.58,1.522,1.522,0,0,0-1.195.571A2.537,2.537,0,0,0,516.5,157.066Z"/><path class="cls-6" d="M522.5,160.289V151.7h1.055v3.082a2.356,2.356,0,0,1,1.863-.855,2.519,2.519,0,0,1,1.2.272,1.606,1.606,0,0,1,.73.753,3.481,3.481,0,0,1,.219,1.4v3.943h-1.054v-3.943a1.629,1.629,0,0,0-.343-1.152,1.275,1.275,0,0,0-.97-.36,1.714,1.714,0,0,0-.882.243,1.373,1.373,0,0,0-.588.659,3.014,3.014,0,0,0-.176,1.149v3.4Z"/><path class="cls-6" d="M531.472,159.346l.152.931a3.876,3.876,0,0,1-.8.094,1.788,1.788,0,0,1-.89-.182,1.018,1.018,0,0,1-.446-.477,3.771,3.771,0,0,1-.129-1.245v-3.58h-.773v-.821h.773v-1.541l1.049-.632v2.173h1.061v.821h-1.061v3.638a1.832,1.832,0,0,0,.056.58.44.44,0,0,0,.181.206.713.713,0,0,0,.361.076A3.5,3.5,0,0,0,531.472,159.346Z"/><path class="cls-6" d="M535.837,160.289v-6.223h.943v.873a2.229,2.229,0,0,1,.78-.735,2.193,2.193,0,0,1,1.107-.278,2.043,2.043,0,0,1,1.134.287,1.534,1.534,0,0,1,.624.8,2.233,2.233,0,0,1,1.922-1.09,1.9,1.9,0,0,1,1.424.512,2.194,2.194,0,0,1,.5,1.58v4.271H543.22v-3.92a2.865,2.865,0,0,0-.1-.911.876.876,0,0,0-.372-.448,1.157,1.157,0,0,0-.633-.17,1.475,1.475,0,0,0-1.09.436,1.924,1.924,0,0,0-.433,1.4v3.615h-1.055v-4.043a1.78,1.78,0,0,0-.258-1.055.976.976,0,0,0-.843-.351,1.537,1.537,0,0,0-.824.234,1.326,1.326,0,0,0-.547.686,3.84,3.84,0,0,0-.17,1.3v3.228Z"/><path class="cls-6" d="M550.093,158.285l1.09.135a2.66,2.66,0,0,1-.955,1.482,3.235,3.235,0,0,1-3.947-.313,3.288,3.288,0,0,1-.8-2.359,3.439,3.439,0,0,1,.809-2.437,2.737,2.737,0,0,1,2.1-.867,2.662,2.662,0,0,1,2.039.849,3.38,3.38,0,0,1,.791,2.391c0,.063,0,.156-.006.281h-4.641a2.4,2.4,0,0,0,.58,1.571,1.729,1.729,0,0,0,1.3.545,1.613,1.613,0,0,0,.99-.3A2.02,2.02,0,0,0,550.093,158.285Zm-3.463-1.7H550.1a2.1,2.1,0,0,0-.4-1.178,1.616,1.616,0,0,0-1.307-.609,1.675,1.675,0,0,0-1.221.486A1.927,1.927,0,0,0,546.63,156.58Z"/><path class="cls-6" d="M556.567,159.521a3.9,3.9,0,0,1-1.128.7,3.274,3.274,0,0,1-1.163.205,2.262,2.262,0,0,1-1.576-.5,1.655,1.655,0,0,1-.551-1.281,1.712,1.712,0,0,1,.208-.835,1.735,1.735,0,0,1,.545-.606,2.577,2.577,0,0,1,.759-.346,7.731,7.731,0,0,1,.938-.158,9.641,9.641,0,0,0,1.88-.363c0-.145.006-.236.006-.276a1.166,1.166,0,0,0-.3-.908,1.768,1.768,0,0,0-1.2-.357,1.858,1.858,0,0,0-1.1.261,1.59,1.59,0,0,0-.525.922l-1.031-.14a2.559,2.559,0,0,1,.463-1.07,2.026,2.026,0,0,1,.932-.626,4.142,4.142,0,0,1,1.412-.22,3.74,3.74,0,0,1,1.295.187,1.708,1.708,0,0,1,.732.472,1.655,1.655,0,0,1,.328.718,5.939,5.939,0,0,1,.053.972v1.407a14.941,14.941,0,0,0,.067,1.86,2.341,2.341,0,0,0,.267.747h-1.1A2.265,2.265,0,0,1,556.567,159.521Zm-.088-2.355a7.725,7.725,0,0,1-1.722.4,4.017,4.017,0,0,0-.92.211.926.926,0,0,0-.416.343.93.93,0,0,0,.173,1.2,1.37,1.37,0,0,0,.934.282,2.169,2.169,0,0,0,1.084-.267,1.644,1.644,0,0,0,.7-.73,2.55,2.55,0,0,0,.169-1.054Z"/><path class="cls-6" d="M558.759,158.432l1.043-.164a1.454,1.454,0,0,0,.489.961,1.71,1.71,0,0,0,1.122.334,1.65,1.65,0,0,0,1.078-.3.885.885,0,0,0,.352-.695.64.64,0,0,0-.311-.562,4.568,4.568,0,0,0-1.078-.358,9.9,9.9,0,0,1-1.608-.506,1.534,1.534,0,0,1-.911-1.427,1.6,1.6,0,0,1,.19-.771,1.717,1.717,0,0,1,.519-.589,2.172,2.172,0,0,1,.67-.307,3.2,3.2,0,0,1,.912-.126,3.593,3.593,0,0,1,1.286.211,1.747,1.747,0,0,1,.817.571,2.226,2.226,0,0,1,.363.964l-1.031.141a1.123,1.123,0,0,0-.407-.75,1.488,1.488,0,0,0-.952-.27,1.724,1.724,0,0,0-1.037.24.7.7,0,0,0-.311.563.584.584,0,0,0,.129.369.933.933,0,0,0,.4.281q.159.058.932.27a12.865,12.865,0,0,1,1.561.489,1.581,1.581,0,0,1,.695.554,1.545,1.545,0,0,1,.252.9,1.769,1.769,0,0,1-.308.993,1.985,1.985,0,0,1-.888.721,3.226,3.226,0,0,1-1.312.255,2.924,2.924,0,0,1-1.849-.5A2.341,2.341,0,0,1,558.759,158.432Z"/><path class="cls-6" d="M569.259,160.289v-.914a2.28,2.28,0,0,1-1.975,1.055,2.524,2.524,0,0,1-1.028-.211,1.7,1.7,0,0,1-.709-.531,1.975,1.975,0,0,1-.325-.782,5.338,5.338,0,0,1-.065-.984v-3.856h1.055v3.452a6.167,6.167,0,0,0,.064,1.113,1.1,1.1,0,0,0,.422.653,1.31,1.31,0,0,0,.8.237,1.738,1.738,0,0,0,.891-.243,1.354,1.354,0,0,0,.589-.662,3.328,3.328,0,0,0,.172-1.216v-3.334H570.2v6.223Z"/><path class="cls-6" d="M571.843,160.289v-6.223h.949v.944a2.56,2.56,0,0,1,.671-.873,1.169,1.169,0,0,1,.677-.211,2.057,2.057,0,0,1,1.084.34l-.364.978a1.507,1.507,0,0,0-.773-.228,1,1,0,0,0-.621.208,1.121,1.121,0,0,0-.393.577,4.112,4.112,0,0,0-.176,1.23v3.258Z"/><path class="cls-6" d="M580.11,158.285l1.09.135a2.655,2.655,0,0,1-.955,1.482,3.233,3.233,0,0,1-3.946-.313,3.288,3.288,0,0,1-.8-2.359,3.439,3.439,0,0,1,.809-2.437,2.736,2.736,0,0,1,2.1-.867,2.661,2.661,0,0,1,2.039.849,3.375,3.375,0,0,1,.791,2.391c0,.063,0,.156-.006.281h-4.64a2.392,2.392,0,0,0,.58,1.571,1.728,1.728,0,0,0,1.3.545,1.615,1.615,0,0,0,.99-.3A2.026,2.026,0,0,0,580.11,158.285Zm-3.463-1.7h3.475a2.118,2.118,0,0,0-.4-1.178,1.618,1.618,0,0,0-1.307-.609,1.677,1.677,0,0,0-1.222.486A1.931,1.931,0,0,0,576.647,156.58Z"/><path class="cls-6" d="M586.562,160.289V159.5a1.937,1.937,0,0,1-1.741.926,2.443,2.443,0,0,1-1.368-.41,2.707,2.707,0,0,1-.967-1.146,3.966,3.966,0,0,1-.342-1.69,4.429,4.429,0,0,1,.31-1.691,2.451,2.451,0,0,1,.932-1.163,2.494,2.494,0,0,1,1.388-.4,2.075,2.075,0,0,1,1.717.855V151.7h1.049v8.59Zm-3.334-3.1a2.71,2.71,0,0,0,.5,1.787,1.522,1.522,0,0,0,1.19.592A1.493,1.493,0,0,0,586.1,159a2.609,2.609,0,0,0,.483-1.726,2.929,2.929,0,0,0-.492-1.875,1.515,1.515,0,0,0-1.213-.6,1.461,1.461,0,0,0-1.175.574A2.837,2.837,0,0,0,583.228,157.184Z"/></svg>