<svg id="レイヤー_1" data-name="レイヤー 1" xmlns="http://www.w3.org/2000/svg" xmlns:xlink="http://www.w3.org/1999/xlink" viewBox="0 0 718 209"><defs><style>.cls-1,.cls-3,.cls-4,.cls-8{fill:none;}.cls-2{isolation:isolate;}.cls-3,.cls-4{stroke:#000;}.cls-3,.cls-4,.cls-8{stroke-miterlimit:9.999;}.cls-3{stroke-width:0.86px;}.cls-4{stroke-width:0.43px;}.cls-5{clip-path:url(#clip-path);}.cls-6{fill-rule:evenodd;}.cls-12,.cls-7{fill:red;}.cls-8{stroke:red;stroke-width:1.72px;}.cls-9{fill:#898989;}.cls-10,.cls-11,.cls-9{stroke:#231815;stroke-width:0.413px;}.cls-10,.cls-9{stroke-miterlimit:1;}.cls-10{fill:#595757;}.cls-11{fill:#b5b5b6;stroke-miterlimit:10;}.cls-12{opacity:0.55;}</style><clipPath id="clip-path"><polygon class="cls-1" points="213.877 146.526 214.603 24.37 321.855 50.878 321.129 173.034 213.877 146.526"/></clipPath></defs><g class="cls-2"><path d="M573.282,102.137v.753H564.1v-.753h5.209a34.265,34.265,0,0,0,1.392-4.972l.866.165a47.452,47.452,0,0,1-1.465,4.807Zm-.3-5.457h-8.541v-.742h3.828V93.926h.784v2.012h3.929Zm-6.21,4.941a15.52,15.52,0,0,0-.949-4.209l.712-.185a15.391,15.391,0,0,1,1.011,4.208Z"/><path d="M578.412,96.422c-.03.557-.072,1.124-.154,1.691h4.105s-.01.248-.02.372c-.207,2.94-.413,4.075-.816,4.487a1.149,1.149,0,0,1-.877.341c-.36.02-1.031.009-1.722-.032a1.745,1.745,0,0,0-.268-.742c.733.072,1.465.072,1.723.072.237,0,.381-.01.484-.114.31-.268.506-1.278.681-3.661h-3.4a5.9,5.9,0,0,1-3.281,4.538,2.581,2.581,0,0,0-.547-.629c2.847-1.279,3.146-3.951,3.27-6.323h-3.166v-.733h4.156V93.9h.774v1.794h4.229v.733Z"/><path d="M587.494,94.173a17.481,17.481,0,0,1-.918,2.177v6.972h-.732v-5.7a11.1,11.1,0,0,1-.877,1.187,5.8,5.8,0,0,0-.444-.753,11.979,11.979,0,0,0,2.259-4.1Zm3.889,2.558a10.262,10.262,0,0,0,2.785,4.332,2.707,2.707,0,0,0-.578.609,11.609,11.609,0,0,1-2.7-4.518v3.579h1.66v.7h-1.66v1.846h-.743v-1.846h-1.681v-.7h1.681V97.227a11.9,11.9,0,0,1-2.734,4.466,3.716,3.716,0,0,0-.557-.578,10.544,10.544,0,0,0,2.827-4.384h-2.424v-.743h2.888V93.957h.743v2.031h3.073v.743Z"/></g><path class="cls-3" d="M484.854,64.788a4.816,4.816,0,1,0-4.816,4.816A4.818,4.818,0,0,0,484.854,64.788Z"/><path class="cls-3" d="M484.854,81.818a4.816,4.816,0,1,0-4.816,4.815A4.818,4.818,0,0,0,484.854,81.818Z"/><path class="cls-3" d="M484.854,98.846a4.816,4.816,0,1,0-4.816,4.815A4.818,4.818,0,0,0,484.854,98.846Z"/><path class="cls-3" d="M542.638,90.331a4.816,4.816,0,1,0-4.815,4.816A4.817,4.817,0,0,0,542.638,90.331Z"/><path class="cls-3" d="M542.638,107.361a4.816,4.816,0,1,0-4.815,4.815A4.817,4.817,0,0,0,542.638,107.361Z"/><path class="cls-3" d="M484.854,115.875a4.816,4.816,0,1,0-4.816,4.815A4.818,4.818,0,0,0,484.854,115.875Z"/><path class="cls-3" d="M484.854,132.906a4.816,4.816,0,1,0-4.816,4.815,4.818,4.818,0,0,0,4.816-4.815Z"/><path class="cls-4" d="M484.854,64.788l48.153,25.543"/><path class="cls-4" d="M484.854,64.788l48.153,42.573"/><path class="cls-4" d="M484.854,81.818l48.153,8.513"/><path class="cls-4" d="M484.854,81.818l48.153,25.543"/><path class="cls-4" d="M484.854,132.906l48.153-25.544"/><path class="cls-4" d="M484.854,132.906l48.153-42.572"/><path class="cls-4" d="M484.854,115.875l48.153-8.515"/><path class="cls-4" d="M484.854,115.875l48.153-25.544"/><path class="cls-4" d="M484.854,98.846l48.153-8.515"/><path class="cls-4" d="M484.854,98.846l48.153,8.515"/><path class="cls-3" d="M417.439,90.331a4.815,4.815,0,1,0,4.815-4.815A4.817,4.817,0,0,0,417.439,90.331Z"/><path class="cls-3" d="M417.439,107.361a4.815,4.815,0,1,0,4.815-4.816A4.817,4.817,0,0,0,417.439,107.361Z"/><path class="cls-4" d="M475.227,64.788,427.074,90.331"/><path class="cls-4" d="M475.227,64.788l-48.153,42.573"/><path class="cls-4" d="M475.227,81.818l-48.153,8.513"/><path class="cls-4" d="M475.227,81.818l-48.153,25.543"/><path class="cls-4" d="M475.227,132.906l-48.153-25.544"/><path class="cls-4" d="M475.227,132.906,427.074,90.334"/><path class="cls-4" d="M475.227,115.875l-48.153-8.515"/><path class="cls-4" d="M475.227,115.875,427.074,90.331"/><path class="cls-4" d="M475.227,98.846l-48.153-8.515"/><path class="cls-4" d="M475.227,98.846l-48.153,8.515"/><path class="cls-4" d="M542.638,90.331h11.6"/><path d="M553.387,91.581l4.66-1.25-4.66-1.248Z"/><path class="cls-4" d="M542.638,107.361h11.6"/><path d="M553.387,108.61l4.66-1.25-4.66-1.248Z"/><path class="cls-4" d="M113.109,81.818,209.294,44.8"/><path d="M208.948,46.269l3.9-2.84-4.8.509Z"/><path class="cls-4" d="M113.109,98.846h94.225"/><path d="M206.482,100.1l4.66-1.249-4.66-1.249Z"/><path class="cls-4" d="M113.109,115.875l91.272,28.951"/><path d="M203.191,145.761l4.821.218-4.066-2.6-.755,2.382Z"/><g class="cls-5"><path d="M321.561,52.5l-1.408-.348,0,.287,1.408.348Z"/><path d="M321.293,58.2l-1.946-.482,0,.567,1.946.482Z"/><path d="M321.492,64.085l-.777-.192,0,.725.777.2,0-.732Z"/><path d="M321.427,75.039l-1.009-.25-.015,2.448,1.009.249Z"/><path d="M321.39,81.18l-.662-.163-.012,1.956.663.163Z"/><path d="M321.354,87.268l-.673-.165-.009,1.6.672.166Z"/><path d="M321.318,93.3l-1.817-.442-.008,1.337,1.817.449Z"/><path d="M321.282,99.325l-.507-.126-.007,1.1.508.124.006-1.1Z"/><path d="M321,105.3l-1.175-.29,0,.836,1.176.285,0-.831Z"/><path d="M320.388,110.323l-.014,2.3.828.2.014-2.3Z"/><path d="M320.954,117.075l-1.108-.274,0,.914,1.107.274Z"/><path d="M321.111,128.249l-1.2-.3,0,.627.435.108-.006,1.034-.435-.107,0,.634,1.195.3.014-2.3Z"/><path d="M320.75,133.916l-1.946-.481-.015,2.606,1.946.481Z"/><path d="M321.005,145.954l-1.542-.38-.015,2.311,1.543.381Z"/><path d="M320.964,152.868l-.134-.034,0,.288.134.037Z"/><path d="M320.933,157.976l-.382-.095-.011,1.881.382.1.011-1.886Z"/><path d="M320.86,170.251l-1.858-.46v.038l.936.232,0,.876-.936-.232v.038l1.858.46Z"/><path d="M317.048,51.374l-1.946-.48,0,.3,1.947.482,0-.3Z"/><path d="M318.248,63.125l-1.946-.481-.007,1.05,1.947.48Z"/><path d="M318.8,69.011l-1.945-.481-.009,1.376,1.946.48Z"/><path d="M317.068,74.953l-1.946-.482,0,.461,1.946.482Z"/><path d="M317.329,80.834l-1.735-.429,0,.65,1.734.429Z"/><path d="M319.492,86.582l-1.946-.482-.012,2.048,1.946.48Z"/><path d="M319.055,92.019l-1.946-.482-.017,2.78,1.946.49Z"/><path d="M318.732,98.505l-1.951-.482-.009,1.481,1.951.482Z"/><path d="M319.825,104.586l-1.946-.481-.01,1.692,1.946.481,0-.433,0-.836Z"/><path d="M316.866,109.785l-1.951-.482v.083l.016,0-.009,1.48-.016,0v.082l1.951.484.01-1.648Z"/><path d="M319.847,116.7l-1.946-.482-.007,1.133,1.946.481v-.113l0-.914V116.7Z"/><path d="M318.21,122.592l-1.946-.48,0,.347,1.946.488,0-.355Z"/><path d="M320.346,128.688l-.435-.108-1.511-.374-.007,1.036,1.512.374.435.106Z"/><path d="M318.7,133.864l-1.946-.481-.011,1.7,1.946.481Z"/><path d="M319.461,140.679l-1.951-.482,0,.271,1.951.483Z"/><path d="M316.462,145.52l-1.946-.481-.006.929,1.946.482Z"/><path d="M318.842,152.335l-1.946-.481,0,.3,1.946.482Z"/><path d="M316.51,157.4l-1.946-.48,0,.853,1.946.481Z"/><path d="M317.768,163.887l0,.318,1.946.48,0-.309-1.946-.489Z"/><path d="M319.939,170.061l-.936-.232-1.01-.249,0,.876,1.009.25.937.232Z"/><path d="M314.736,49.54l-1.946-.482-.018,3.037,1.946.482Z"/><path d="M315.04,56l-1.951-.482-.012,1.888,1.952.482Z"/><path d="M313.563,61.21l-1.946-.481L311.6,63.29l1.946.473Z"/><path d="M316.242,68.235l-1.952-.475-.009,1.647,1.951.482.01-1.654Z"/><path d="M314.589,74.3l-1.946-.481,0,.529,1.947.481Z"/><path d="M315.6,80.073l-1.951-.482-.007,1.315,1.951.482,0-.333,0-.649,0-.333Z"/><path d="M314.954,86.194,313,85.711l0,.582,1.951.482,0-.581Z"/><path d="M313.088,90.491l-1.946-.481-.008,1.306,1.248.309,0,.272-1.248-.308-.007,1.314,1.946.481.017-2.893Z"/><path d="M314.28,97.443l-1.945-.481-.009,1.4,1.946.48Z"/><path d="M314.008,103.2l-1.946-.482-.01,1.58,1.946.481Z"/><path d="M314.93,109.39l-.015,0-1.926-.469-.009,1.473,1.926.475.015,0,.009-1.481Z"/><path d="M315.663,115.994l-1.946-.481,0,.468,1.947.481Z"/><path d="M314.107,120.429l-1.951-.483-.016,2.651,1.952.476.015-2.644Z"/><path d="M315.605,127.57l-1.952-.482,0,.929,1.951.483Z"/><path d="M313.655,132.919l-1.946-.481-.007,1.088,1.947.48.006-1.087Z"/><path d="M313.686,138.964l0,.838,1.946.481,0-.831Z"/><path d="M314.357,144.781l-1.946-.482-.008,1.368,1.946.481Z"/><path d="M313.555,150.607l-1.951-.483v.1l.662.16,0,.952-.662-.163v.1l1.951.482.007-1.148Z"/><path d="M314,156.209l-1.946-.473-.012,1.978,1.946.482.012-1.987Z"/><path d="M313.581,161.893l-1.951-.483-.014,2.237,1.951.489Z"/><path d="M314.787,168.281l-1.952-.482-.01,1.888,1.951.483.011-1.889Z"/><path d="M312.089,49.3l-1.952-.483-.011,1.995,1.951.482.012-1.994Z"/><path d="M309.757,55.232l-1.951-.483,0,.816,1.951.483Z"/><path d="M311.466,61.608l-1.951-.483,0,.733,1.951.482Z"/><path d="M311.506,67.193l-1.946-.481-.009,1.405,1.946.481Z"/><path d="M311.663,72.958l-1.946-.48-.01,1.774,1.946.482Z"/><path d="M309.008,78.468l-1.946-.482-.008,1.277,1.946.482Z"/><path d="M307.678,84.078l0,.286,1.233.3,0,.65-1.231-.31,0,.277,1.951.49.008-1.209-1.952-.489Z"/><path d="M312.382,91.625l-1.248-.308-.7-.173,0,.272.7.173,1.248.308Z"/><path d="M312.293,96.075l-1.946-.482-.019,3.151,1.946.48Z"/><path d="M310.306,102.55l-1.946-.48v.075l.425.105-.006.9-.424-.105v.076l1.947.48.006-1.05Z"/><path d="M310.4,107.975l-.012,2.069,1.946.482.012-2.063-1.946-.488Z"/><path d="M310.546,114.472l-1.946-.481-.006.975,1.946.481Z"/><path d="M311.779,120.648l-1.946-.482-.007,1.058,1.947.481Z"/><path d="M308.393,125.1l-.014,2.3,1.947.488.013-2.3-1.946-.488Z"/><path d="M310.408,132.368l-1.946-.481,0,.6,1.946.481Z"/><path d="M312.082,138.469l-1.946-.481-.007,1.043,1.947.48Z"/><path d="M311.4,144.183l-1.946-.481-.006,1.111,1.946.488Z"/><path d="M312.265,150.383l-.663-.161-1.283-.312-.006.944,1.284.317.663.164,0-.952Z"/><path d="M310.982,155.2l-1.946-.48-.014,2.523,1.946.481Z"/><path d="M311.357,161.9l-1.946-.481-.007,1.126,1.946.481Z"/><path d="M311.089,167.813l-1.946-.482-.006.99,1.946.489Z"/><path d="M306.1,47.775l-1.952-.482-.012,2.085,1.951.481.013-2.084Z"/><path d="M307.064,54.014l-1.946-.481-.011,1.911,1.946.488Z"/><path d="M306.875,60.511l-1.946-.481,0,.649,1.947.489Z"/><path d="M306.859,65.81l-1.946-.482L304.9,67.2l1.946.481.011-1.873Z"/><path d="M308.9,72.336l-1.946-.474-.01,1.647,1.946.482Z"/><path d="M306.885,78.019l-1.951-.482-.007,1.118,1.952.482Z"/><path d="M308.909,84.669l-1.233-.3-.713-.177,0,.642.715.18,1.232.309Z"/><path d="M305.941,89.391,304,88.909l-.009,1.564,1.946.481Z"/><path d="M306.932,95.483,304.986,95l-.01,1.7,1.946.474Z"/><path d="M308.784,102.25l-.425-.105-1.521-.376-.006.9,1.522.376.424.105Z"/><path d="M305.7,107.691l-1.951-.483,0,.31L305.7,108Z"/><path d="M307.06,113.149l-1.946-.481-.011,1.9,1.946.48Z"/><path d="M308.434,119.17l-1.946-.481-.014,2.357,1.945.481Z"/><path d="M306.867,124.608l-1.946-.482-.015,2.54,1.946.48Z"/><path class="cls-6" d="M302.945,130.773l1.924.475-.023.093-1.924-.475.023-.093Z"/><path d="M306.638,136.173l-1.951-.482-.018,2.947,1.951.489Z"/><path class="cls-6" d="M306.139,143.379l1.915.473-.027.108-1.915-.474Z"/><path d="M306.692,148.857l-1.951-.483-.008,1.254,1.951.482Z"/><path d="M305.975,154.308l-1.946-.473v.2l.43.106-.009,1.4-.429-.106,0,.212,1.946.481.011-1.821Z"/><path d="M305.559,160.71l-1.315-.325,0,.643,1.315.325Z"/><path d="M305.935,166.411l-1.946-.481-.008,1.247,1.946.48.008-1.246Z"/><path d="M303.72,48l-1.946-.481,0,.468,1.946.482Z"/><path class="cls-6" d="M301.247,53.43l1.9.47-.048.193-1.9-.47Z"/><path d="M302.641,59.487l-1.946-.481,0,.6,1.946.48Z"/><path d="M301.912,64.512l-1.946-.481-.012,2.024,1.946.481Z"/><path d="M304.847,71.289l-1.946-.481-.011,1.745,1.946.48Z"/><path d="M304.442,77.362l-1.951-.482-.007,1.223,1.952.483Z"/><path d="M303.294,82.2l-1.951-.483-.017,2.811,1.951.482Z"/><path d="M301.4,88.577l-1.951-.482-.006.936,1.952.483Z"/><path d="M302.083,94.224l-1.946-.481,0,.582.709.175,0,.649-.709-.178,0,.585,1.946.481Z"/><path d="M303.9,100.482,301.95,100l-.012,2.016,1.946.482Z"/><path d="M301.7,105.652l-1.946-.473-.014,2.409,1.946.474Z"/><path d="M301.453,112.1l-.007,1.224,1.946.48.007-1.216Z"/><path d="M301.791,117.975l-1.946-.482-.009,1.474,1.946.481.009-1.473Z"/><path d="M302.386,124.234l-1.946-.482,0,.393.341.085,0,.28-.341-.085,0,.393,1.947.481Z"/><path d="M302.2,129.483l-1.946-.48,0,.565.113.029-.007,1.179-.113-.029,0,.559,1.946.482Z"/><path d="M303.3,135.924l-1.946-.474-.01,1.79,1.946.482.01-1.8Z"/><path d="M304.152,141.887l-1.946-.48-.013,2.107,1.946.481Z"/><path d="M303.193,148.066l-1.946-.482-.007,1.111,1.946.481Z"/><path d="M304.458,154.145l-.43-.107-1.516-.374-.009,1.4,1.517.374.429.106.009-1.4Z"/><path d="M304.252,159.18l-1.946-.474-.018,3.045,1.946.48.006-1.2,0-.642Z"/><path d="M303.82,165.556l-1.952-.483-.011,1.912,1.952.489Z"/><path d="M300.811,46.529l-1.946-.481-.012,1.964,1.946.481Z"/><path d="M297.848,52.3l-1.946-.481,0,.793,1.947.489Z"/><path d="M300.663,59.187l-1.946-.481v.234l1.946.481Z"/><path d="M299.163,63.907l-1.946-.48v.09l-.009,1.692v.084l1.946.48.011-1.866Z"/><path d="M298.691,70l-1.946-.481-.008,1.276,1.946.482L298.691,70Z"/><path d="M300.734,76.869l-1.946-.481,0,.378,1.946.481,0-.378Z"/><path d="M300.485,82.119l-1.946-.473-.009,1.571,1.946.48Z"/><path d="M298.971,87.357l-1.946-.48v.052l.176.044-.012,2.07L297.013,89v.059l1.946.482.012-2.183Z"/><path d="M300.842,94.5l-.709-.175-1.237-.306,0,.642,1.238.31.709.178,0-.649Z"/><path d="M299.857,99.711l-1.951-.482-.009,1.564,1.951.482Z"/><path d="M298.824,105.349l-1.946-.474-.01,1.594,1.946.474Z"/><path d="M300.1,111.572l-1.945-.48-.01,1.616,1.946.481Z"/><path d="M297.307,117.078l-1.946-.48-.007,1.049,1.947.481Z"/><path d="M300.779,124.229l-.341-.084-1.6-.4,0,.28,1.6.4.341.084,0-.28Z"/><path d="M298.412,129.109l-.006,1.186,1.837.454.114.028.007-1.178-.114-.029Z"/><path d="M298.215,134.432l-1.946-.481-.014,2.266,1.946.482Z"/><path d="M298.265,140.8l-1.945-.481-.009,1.383,1.946.48Z"/><path d="M297.59,146.2l-1.951-.483,0,.265.968.239-.009,1.533-.968-.235v.268l1.951.482.012-2.069Z"/><path d="M298.591,152.189l-1.946-.482,0,.824.032.008-.005.762-.031-.007-.005.823,1.946.481.014-2.409Z"/><path d="M296.819,158.174l-.008,1.389,1.951.475.008-1.375-1.951-.489Z"/><path d="M297.45,163.647l-1.952-.475-.014,2.575,1.951.476.015-2.576Z"/><path d="M294.663,45.7l-1.946-.482,0,.59,1.947.481Z"/><path d="M293.444,51.116l-.006.974,1.946.481.006-.966Z"/><path d="M293.629,56.556l-1.946-.481,0,.622,1.288.324,0,.762-1.288-.318,0,.627,1.946.481Z"/><path d="M295.27,63.029l-.01,1.707,1.946.473.01-1.692Z"/><path d="M295.28,69.243l-1.952-.483-.006,1.11,1.951.483.007-1.11Z"/><path d="M294.249,75.3l0,.309,1.946.49,0-.311Z"/><path d="M294.6,80.762l-1.946-.481-.009,1.382,1.946.481Z"/><path d="M297.2,86.973l-.176-.043-1.77-.438-.012,2.07,1.77.438.175.043Z"/><path d="M293.023,92.31l-.007,1.156,1.946.481.007-1.148Z"/><path d="M293.446,97.832,291.5,97.35l-.013,2.153,1.946.482Z"/><path d="M294.293,104.471l-1.2-.3-.007,1.111,1.2.3Z"/><path d="M294.143,110.486l-1.946-.481,0,.839,1.946.481Z"/><path d="M293.686,115.881l-1.946-.482-.01,1.648,1.946.48.01-1.646Z"/><path d="M295.114,122.475l-1.946-.481-.006,1,1.946.48Z"/><path d="M293.922,127.566l-1.946-.482-.012,2.04,1.946.488Z"/><path d="M295.081,133.989l-1.946-.481-.009,1.6,1.946.48Z"/><path d="M294.387,140.034l-1.952-.482,0,1,1.951.475Z"/><path d="M296.605,146.221l-.967-.239-.979-.242-.009,1.54.978.239.968.235.009-1.533Z"/><path d="M296.672,152.537l-.031-.008-1.915-.474,0,.764,1.915.473.031.008.005-.763Z"/><path d="M295.963,157.417l-1.946-.474-.014,2.47,1.946.481Z"/><path d="M293.614,163.651l-1.061-.262,0,.68,1.062.262,0-.68Z"/><path d="M292.221,44.974l-1.951-.483,0,.831,1.951.482Z"/><path d="M291.272,50.232l-1.816-.442-.01,1.662,1.817.449Z"/><path d="M291.022,56.532l0,.771.657.162,1.289.318,0-.762L291.68,56.7Z"/><path d="M291.569,62.3l-1.951-.482-.008,1.329,1.951.483Z"/><path d="M292.976,68.786l-1.946-.481-.006.884,1.947.481,0-.884Z"/><path d="M292.147,74.058l-1.946-.48-.011,1.752,1.946.481Z"/><path d="M292.6,80.094l-1.946-.481-.01,1.73,1.946.481Z"/><path d="M288.94,85.862v.212l1.945.48v-.2Z"/><path d="M291.76,91.166l-1.941-.48L289.8,93.5l1.941.48Z"/><path d="M290.131,97.489l-1.951-.482-.007,1.2,1.951.481Z"/><path d="M293.09,103.728l-1.946-.481-.012,2.009,1.946.481,0-.453.007-1.11,0-.446Z"/><path d="M291.932,110.227l-1.946-.481,0,.265,1.946.48Z"/><path d="M290.5,115.358l-1.946-.481L288.549,116l1.946.481Z"/><path d="M289.714,121.42l-1.253-.309,0,.43,1.253.31Z"/><path d="M290.494,127.058l-1.946-.48-.007,1.367,1.945.481Z"/><path d="M292.367,132.88l-1.946-.474-.014,2.463,1.945.481.015-2.47Z"/><path d="M292.016,139.647l-1.946-.48,0,.6,1.946.481Z"/><path d="M292.254,144.828l-1.946-.481-.012,2.176,1.946.481Z"/><path d="M291.645,151.38l-1.946-.48,0,.6,1.946.481Z"/><path d="M290.159,156.286l-1.946-.481-.011,1.881,1.946.481Z"/><path d="M292.555,163.139l-1.952-.482-.006,1.179,1.952.482v-.249l0-.68v-.25Z"/><path d="M287.4,42.784l-1.946-.481-.017,2.879,1.946.48Z"/><path d="M289.456,49.593l-1.951-.482-.012,2.047,1.951.483v-.189l.01-1.663Z"/><path d="M287.915,55.2l-1.946-.473-.011,1.881,1.946.48Z"/><path d="M286.291,60.658l-1.78-.432L284.5,62.22l1.78.44Z"/><path d="M288.9,67.339l-1.946-.481-.01,1.768,1.946.481Z"/><path d="M286.066,72.45l-1.951-.483,0,.551.6.147,0,.862-.6-.147,0,.551,1.951.483Z"/><path d="M284.359,78.762l0,.317,1.631.41v-.318Z"/><path d="M288.079,85.059l-1.946-.481-.007,1.39,1.945.481Z"/><path d="M289.351,90.813l-1.945-.474-.014,2.327,1.946.481Z"/><path d="M287.2,96.493l-1.946-.482-.01,1.746,1.946.481Z"/><path d="M287.788,102.758l-1.946-.481-.008,1.329,1.946.481Z"/><path d="M286.282,108.475l-1.542-.381-.006.974,1.543.381,0-.974Z"/><path d="M286.945,114.555l-1.951-.482-.006.966,1.951.484Z"/><path d="M288.467,120.114l-1.951-.483-.014,2.433,1.951.482.006-1.005,0-.43Z"/><path d="M285.355,125.7l-1.946-.481-.009,1.549,1.946.481Z"/><path d="M288.048,132.214l-1.951-.483-.011,1.678,1.952.481Z"/><path d="M286.741,138.379,284.8,137.9l0,.529,1.947.474Z"/><path d="M286.571,143.581l-1.946-.48-.012,1.858,1.946.48Z"/><path d="M285.582,149.433l-1.946-.482-.008,1.489,1.946.488Z"/><path d="M287.058,155.731l-1.947-.473L285.1,156.7l1.946.482.008-1.451Z"/><path d="M288.632,162.163l-1.946-.481-.007,1.194,1.946.481Z"/><path d="M283.421,42.072l-1.946-.48-.013,2.289,1.945.48Z"/><path d="M282.914,48.105l-1.946-.481-.01,1.8,1.946.473Z"/><path d="M283.031,54.5l-1.273-.315,0,.887,1.273.32,0-.892Z"/><path d="M284.512,60.044l-1.946-.48-.014,2.357,1.946.48V62.22l.012-1.995v-.181Z"/><path d="M281.314,65.208l-.014,2.274,1.947.481.013-2.267-1.946-.488Z"/><path d="M284.706,72.666l-.6-.147-1.356-.336,0,.861,1.356.336.6.147Z"/><path d="M284.365,77.711l-1.946-.481-.014,2.425,1.946.481.007-1.056v-.318l.006-1.051Z"/><path d="M280.716,82.173l-.006,1.034.527.131-.008,1.451-.529-.131,0,1.035,1.946.481.021-3.513-1.946-.488Z"/><path d="M284.711,90.082,282.76,89.6l-.009,1.5,1.952.49Z"/><path d="M283.61,95.756l-1.946-.482-.009,1.444,1.946.481.009-1.443Z"/><path d="M285.14,100.862l-1.946-.481-.023,3.807,1.946.481Z"/><path d="M284.741,107.777l-1.941-.48-.009,1.617,1.941.479v-.325l.006-.974,0-.317Z"/><path d="M283.812,113.221l-1.945-.48-.013,2.092,1.946.481.012-2.093Z"/><path d="M281.617,118.807l-1.946-.482-.009,1.663,1.946.481.009-1.662Z"/><path d="M281.137,123.8l-.019,3.263,1.951.483.019-3.256Z"/><path d="M283,130.868l-1.946-.482-.011,1.874,1.946.481Z"/><path d="M281.366,136.728l-.41-.1-.006,1.171.409.1Z"/><path d="M283.918,143.31l-1.946-.48-.007,1.087,1.947.481Z"/><path d="M279.933,147.524l-.015,2.515,1.946.488.015-2.515Z"/><path d="M284.3,154.82l-1.946-.481-.011,1.912,1.946.48Z"/><path d="M283.015,161.011l-1.946-.481,0,.725,1.947.481Z"/><path d="M280.479,41.829l-1.946-.48-.008,1.314,1.946.481.008-1.315Z"/><path d="M279.765,47.773l-1.941-.479-.006.906,1.941.48.006-.907Z"/><path d="M281.759,54.046l-1.951-.483-.007,1.172,1.951.474v-.133l0-.887v-.143Z"/><path d="M278.9,59.4l-1.946-.48,0,.876,1.946.48Z"/><path d="M278.482,64.75l-1.946-.473v.106l.6.149-.009,1.571-.606-.152v.1l1.946.481Z"/><path d="M280.827,71.238l-1.946-.481-.011,1.8,1.946.481Z"/><path d="M279.5,76.789l-1.946-.481-.012,1.866,1.946.481Z"/><path d="M281.237,83.338l-.528-.131-1.418-.35-.008,1.45,1.418.351.528.131.008-1.451Z"/><path d="M276.4,88.241l-.006,1.08,1.946.481.006-1.073-1.946-.488Z"/><path d="M279.721,95.151l-1.946-.482,0,.733,1.947.481Z"/><path d="M278.049,99.98,276.1,99.5l0,.3,1.139.281-.009,1.481-1.138-.282,0,.3,1.946.481.012-2.07Z"/><path d="M278.719,105.85l-1.952-.483v.477l.036.008-.01,1.541-.036-.008,0,.467,1.952.483.014-2.485Z"/><path d="M281.147,112.494l-1.951-.482-.014,2.221,1.952.482Z"/><path d="M277.7,117.891l-1.946-.481-.009,1.556,1.946.482Z"/><path d="M280.464,124.367l-1.945-.481-.011,1.791,1.946.48Z"/><path d="M280.013,130.674l-1.941-.48,0,.786,1.941.48Z"/><path d="M280.958,136.337l-1.945-.481L279,137.6l1.946.488,0-.294.007-1.171,0-.287Z"/><path d="M278.1,142.214l-1.946-.481,0,.408,1.946.481Z"/><path d="M279.176,147.648l-1.946-.481-.012,1.9,1.946.481Z"/><path d="M281.206,153.074l-1.946-.481-.023,3.875,1.946.481.023-3.875Z"/><path d="M278.9,159.614l-1.946-.481-.009,1.473,1.946.481Z"/><path d="M275.426,39.983,273.48,39.5l-.015,2.508,1.946.482Z"/><path d="M275.012,45.925l-1.946-.481,0,.234.595.147-.01,1.784-.6-.147,0,.226,1.946.481.014-2.244Z"/><path d="M276.03,52.456l-1.945-.481-.01,1.511,1.946.481Z"/><path d="M275.426,58.276l-1.579-.391-.008,1.405,1.578.391Z"/><path d="M277.14,64.532l-.6-.15-1.341-.331-.009,1.563,1.34.337.606.153.009-1.572Z"/><path d="M276.607,70.551l-1.946-.482-.007,1.095,1.946.482Z"/><path d="M274.985,75.65l-1.952-.483,0,.734.046.011,0,.445-.047-.011,0,.733,1.952.482Z"/><path d="M276.877,82.661l-1.946-.481,0,.649,1.947.482Z"/><path d="M274.889,87.609l-1.941-.48-.011,1.6,1.942.479Z"/><path d="M276.932,94.386l-1.946-.482,0,.884,1.945.474Z"/><path d="M277.24,100.075l-1.139-.281-.807-.2-.009,1.481.808.2,1.138.281Z"/><path d="M276.8,105.852l-.036-.008-1.91-.472-.009,1.541,1.91.472.036.008Z"/><path d="M276.132,111.27l-1.946-.481-.013,2.2,1.946.481Z"/><path d="M275.419,117.729l-1.946-.482,0,.756,1.946.481Z"/><path d="M276.834,123.073l-1.946-.482-.016,2.592,1.946.481Z"/><path d="M273.2,128.9l-.006.959,1.946.481.006-.952Z"/><path d="M275.2,135.408l-1.946-.482,0,.764,1.946.481Z"/><path d="M273.551,139.978l-1.946-.481-.006.725.218.054-.007,1.186-.217-.054,0,.718,1.946.481.017-2.629Z"/><path d="M275.233,147.382l0,.476,1.951.482,0-.468Z"/><path d="M275.558,152.735l-1.952-.483-.009,1.761,1.951.482.01-1.76Z"/><path d="M274.359,158.341l-1.952-.482-.01,1.775,1.952.49Z"/><path d="M273.045,40.272l-1.946-.48,0,.754,1.947.489Z"/><path d="M273.659,45.826l-.595-.147-1.351-.335-.01,1.784,1.35.333.6.147Z"/><path d="M273.03,52.2l-1.946-.481,0,.551,1.947.482Z"/><path d="M273.848,57.81l-1.946-.482-.01,1.557,1.946.481v-.075l.008-1.4V57.81Z"/><path d="M270.839,62.559l-.015,2.387,1.951.482.015-2.379Z"/><path d="M270.483,69.242l-1.946-.482,0,.68,1.946.482Z"/><path d="M273.076,75.912l-.046-.012-1.9-.461,0,.437,1.9.47.047.012Z"/><path d="M272.759,81.356l-1.946-.474-.007,1.217,1.946.481Z"/><path d="M270.524,86.757l-1.946-.48-.007,1.14,1.946.488Z"/><path d="M272.439,93.328l-1.946-.481,0,.779,1.946.48Z"/><path d="M271.38,98.854l-1.946-.481-.006,1.02,1.946.488Z"/><path d="M270.562,103.9l-1.946-.473-.014,2.341,1.946.481Z"/><path d="M272.167,110.275l-1.946-.481-.013,2.22,1.946.482Z"/><path d="M271.119,115.659l-1.946-.481-.017,2.765,1.946.481Z"/><path d="M271.182,122.476,269.237,122l-.006.99,1.945.481Z"/><path d="M271.934,128.645l-1.946-.482-.006.847,1.946.481Z"/><path d="M268.565,133.813l0,.672,1.946.481,0-.665Z"/><path d="M271.817,140.275l-.217-.053-1.734-.429-.006,1.185,1.733.429.218.054Z"/><path d="M270.4,145.985l-1.8-.444-.006.892,1.8.443Z"/><path d="M270.114,151.286l-1.951-.483-.012,1.972,1.951.482.012-1.971Z"/><path d="M272.409,156.716l-1.946-.481-.023,3.853,1.947.48Z"/><path d="M266.777,38.64l-1.946-.481-.006.929,1.946.474Z"/><path d="M267.046,44.91l-1.134-.28,0,.347,1.134.28Z"/><path d="M268.154,50.418l-1.946-.481L266.2,51.63l1.946.481Z"/><path d="M266.509,56.654v.234l1.946.482v-.227Z"/><path d="M266.872,61.9l-1.946-.481-.01,1.768,1.946.481Z"/><path d="M267.481,68.56l-1.812-.448,0,.559,1.812.448Z"/><path d="M267.635,73.969l-1.946-.48-.009,1.646,1.946.481Z"/><path d="M269.151,80.563,267.2,80.08l0,1.036,1.951.482Z"/><path d="M267.44,85.746l-1.946-.482v.257l.564.139-.007,1.134-.563-.139,0,.264,1.946.481.009-1.654Z"/><path d="M268.174,92.38l-1.946-.481,0,.567,1.946.48Z"/><path d="M267.948,98.043,266,97.563l-.006.959,1.946.481Z"/><path d="M268.152,103.866l-1.951-.482-.008,1.231,1.952.482.007-1.231Z"/><path d="M264.124,108.257l-.014,2.281,1.947.481.013-2.274-1.946-.488Z"/><path d="M268.4,115.13l-1.952-.482-.014,2.478,1.951.481.015-2.477Z"/><path d="M268.86,121.517l-1.946-.482-.01,1.753,1.946.489Z"/><path d="M268.011,127.51l-1.946-.481-.007,1.171,1.946.489Z"/><path d="M266.687,133.052l-1.946-.481-.007,1.262,1.946.473Z"/><path d="M269.183,139.617l-1.946-.481-.007,1.194,1.946.481Z"/><path d="M268.61,145.4l-1.946-.474-.007,1.163,1.946.482v-.136l0-.892V145.4Z"/><path d="M267.627,151.187l-1.946-.482-.006.938,1.946.488Z"/><path d="M266.763,157.047l-1.522-.376,0,.619,1.522.377,0-.62Z"/><path d="M263.866,37.474,261.92,37l-.011,1.8,1.946.489Z"/><path d="M265.918,43.655l-1.946-.481-.014,2.282,1.946.48.006-.959,0-.348.006-.974Z"/><path d="M263.8,49.206l-1.951-.483-.012,1.972,1.951.482.012-1.971Z"/><path d="M265.113,56.15l-1.952-.482,0,.559,1.952.482,0-.559Z"/><path d="M264.459,61.632l-1.946-.481-.007,1.095,1.946.482Z"/><path d="M265.671,67.659l-1.945-.481-.009,1.466,1.946.48,0-.453,0-.559,0-.453Z"/><path d="M264.146,73.213l-1.946-.481-.009,1.428,1.946.481Z"/><path d="M264.279,79.615l-1.946-.481,0,.522,1.947.473Z"/><path d="M266.057,85.661l-.564-.139-1.382-.343-.007,1.134,1.382.342.564.139Z"/><path d="M264.249,89.957l-1.952-.482-.02,3.467,1.951.482Z"/><path d="M262.679,96.628l-1.945-.482-.007,1.179,1.946.482Z"/><path d="M262.282,102.476l-.564-.14-.007,1.11.565.141Z"/><path d="M263.841,108.709l-1.946-.482-.007,1.239,1.946.481Z"/><path d="M262.465,114.345l-1.946-.48-.006,1.11,1.945.488Z"/><path d="M262.6,120.234l-1.951-.482-.008,1.231,1.952.483.007-1.232Z"/><path d="M262.064,126.048l-1.946-.481-.007,1.163,1.946.482Z"/><path d="M264.561,132.42l-1.951-.483-.009,1.481,1.951.483Z"/><path d="M261.918,137.519l-1.951-.482v.317l1.449.359-.007,1.155-1.449-.358,0,.325,1.951.482.011-1.8Z"/><path d="M265.37,144.635l-1.946-.482-.007,1.1,1.946.48Z"/><path d="M262.924,148.9l-1.946-.481-.007,1.072.409.1-.006,1.027-.409-.1-.006,1.08,1.946.474.019-3.173Z"/><path d="M265.246,155.787l-1.946-.481-.014,2.387,1.946.481.006-.884,0-.619Z"/><path d="M260.179,36.836l-1.946-.482-.007,1.27,1.946.481.007-1.269Z"/><path d="M261.552,43.06l-1.952-.482-.007,1.322,1.951.482.008-1.322Z"/><path d="M260.919,49.3l-1.946-.48,0,.362,1.947.481,0-.363Z"/><path d="M258.477,53.762l-1.946-.482-.012,2.048,1.946.48Z"/><path d="M262.242,61.266l-1.946-.481,0,.726,1.946.48Z"/><path d="M258.591,65.887l-1.807-.447-.008,1.518,1.807.439Z"/><path d="M259.888,72.736l-1.946-.474,0,.273,1.946.48,0-.279Z"/><path d="M260.524,78.294l-1.946-.481-.008,1.307,1.946.481Z"/><path d="M258.942,83.7,257,83.218l0,.614.859.209,0,.31-.859-.213,0,.62,1.946.481Z"/><path d="M259.645,90.068l-1.946-.482-.006.975,1.946.481Z"/><path d="M259.779,95.427l-1.946-.481,0,.589.217.053,0,.975-.217-.055,0,.59,1.946.482.013-2.153Z"/><path d="M261.719,102.238l-1.946-.48-.008,1.306,1.946.489v-.106l.007-1.111v-.1Z"/><path d="M259.258,107.115l-.013,2.161,1.947.48.012-2.153Z"/><path d="M260.415,113.142l-1.946-.48-.015,2.5,1.946.481Z"/><path d="M258.712,119.72l-1.273-.315,0,.337,1.273.31Z"/><path d="M260.019,125.73l-1.946-.481-.006.793,1.947.474Z"/><path d="M258.5,130.537l-1.946-.481-.013,2.244,1.946.48Z"/><path d="M261.415,137.712l-1.45-.358-.5-.122-.007,1.155.5.123,1.449.358Z"/><path d="M259.892,142.683l-1.946-.482-.014,2.29,1.946.481.014-2.289Z"/><path d="M261.38,149.6l-.409-.1-1.543-.381,0,1.027,1.542.382.409.1.006-1.028Z"/><path d="M260.222,155.181l-1.946-.481-.007,1.126,1.946.473Z"/><path d="M257.971,35.941l-1.946-.481-.012,1.965,1.946.488Z"/><path d="M256.116,42l-1.951-.482,0,.748,1.951.482Z"/><path d="M255.947,47.8,254,47.314l-.006.907,1.946.488.006-.914Z"/><path d="M254.811,53.143l-.823-.2-.009,1.47.823.2Z"/><path d="M254.841,59.369l-1.946-.482-.005.87,1.946.48,0-.868Z"/><path d="M256.785,65.342l-1.946-.482-.01,1.708,1.946.481v-.091l.009-1.518v-.1Z"/><path class="cls-6" d="M254.452,71.422l.488.121-.052.207-.488-.121Z"/><path d="M257.084,77.149l-1.946-.482-.011,1.9,1.946.481Z"/><path d="M257.851,84.041l-.859-.209-1.087-.265v.3l1.086.268.859.213Z"/><path d="M257.246,89.831l-1.951-.483,0,.265,1.952.482Z"/><path d="M258.047,95.589l-.218-.054-1.728-.427-.006.967,1.729.434.217.054.006-.974Z"/><path d="M254.889,100.058l-1.951-.482-.014,2.289,1.952.482Z"/><path d="M258.048,106.808l-1.946-.481-.013,2.183,1.946.474Z"/><path d="M256.824,112.83l-1.945-.481-.008,1.36,1.946.481Z"/><path d="M257.441,119.012l-1.946-.481-.007,1.126,1.946.481,0-.4,0-.337Z"/><path d="M255.916,124.475l-.008,1.269,1.946.48.008-1.261Z"/><path d="M255.571,130.094l-1.946-.481-.01,1.685,1.946.48Z"/><path d="M255.411,136.152l-.008,1.307,1.946.481.008-1.3-1.946-.488Z"/><path d="M254.117,141.96l-1.915-.473,0,.884,1.915.481,0-.892Z"/><path d="M254.882,147.481,252.936,147l0,.362.425.105-.007,1.323-.425-.1,0,.355,1.946.488.012-2.047Z"/><path d="M254.667,154.025l-1.812-.448,0,.68,1.812.448Z"/><path d="M252.2,34.8l-1.723-.42-.009,1.376,1.723.426Z"/><path d="M250.771,40.426l-.274-.068-.008,1.269.274.068Z"/><path d="M252.744,46.814l-1.946-.481-.008,1.284,1.946.481.008-1.284Z"/><path d="M253.992,52.222l-1.946-.481-.017,2.909,1.946.48,0-.718.009-1.469,0-.721Z"/><path d="M252.09,58.243l-1.946-.482-.01,1.768,1.946.482Z"/><path d="M253.677,65.148l-1.946-.48,0,.559,1.946.48Z"/><path d="M254.405,70.836l-1.946-.482-.008,1.369,1.946.48,0-.574V71.41Z"/><path d="M254.265,77l-1.946-.481-.006.8,1.947.488Z"/><path d="M251.156,81.933l-1.946-.482-.007,1.217,1.946.481Z"/><path d="M253.71,88.284l-1.946-.482-.009,1.61,1.946.473Z"/><path d="M251.9,93.093l-1.946-.481-.017,2.917,1.945.48Z"/><path d="M251.761,99.671l-1.946-.481-.008,1.519,1.945.481Z"/><path d="M250.69,105.406l-.627-.155-.008,1.352.627.155Z"/><path d="M251.6,111.691l-1.952-.483-.006,1.058,1.952.482Z"/><path d="M251.463,116.71l-1.946-.481L249.5,119l1.946.481Z"/><path d="M253.388,124.122l-1.946-.481,0,.725,1.946.489Z"/><path d="M252.167,129.049l-1.946-.481-.013,2.093,1.946.48.013-2.092Z"/><path d="M253.793,134.518l-1.946-.473-.023,3.761,1.947.482.022-3.77Z"/><path d="M252.2,141.2l-1.945-.48-.009,1.457,1.946.482,0-.287,0-.884V141.2Z"/><path d="M253.359,147.468l-.425-.1-1.521-.376-.008,1.322,1.521.376.425.1.008-1.322Z"/><path d="M252.859,152.958l-1.946-.481L250.9,154.4l1.946.481,0-.619,0-.681,0-.619Z"/><path d="M250.482,34.1l-1.946-.48-.012,1.941,1.946.473,0-.279.008-1.376,0-.279Z"/><path d="M250.5,40.184l-1.946-.48-.009,1.609,1.946.48v-.166l.008-1.269v-.174Z"/><path d="M248.433,45.635l-1.946-.48-.009,1.518,1.946.473Z"/><path d="M247.706,51.939l-1.951-.482,0,.377,1.951.483Z"/><path d="M248.451,57.374l-1.946-.482-.01,1.7,1.946.482Z"/><path d="M247.578,63.134l-1.946-.482-.01,1.572,1.946.481Z"/><path d="M247.573,69.162l-1.952-.482-.007,1.337,1.951.482Z"/><path d="M246.773,73.814l-1.946-.474,0,.642,1.05.26L245.86,76.4l-1.05-.261,0,.658,1.946.481.021-3.467Z"/><path d="M248.473,81.58l-1.951-.483,0,.605,1.951.482Z"/><path d="M249.743,87.7l-1.946-.481,0,.823,1.946.482Z"/><path d="M249.76,93.631l-1.946-.48,0,.785,1.946.481Z"/><path d="M248.52,99.052l-1.946-.482-.007,1.157,1.946.481Z"/><path d="M250.064,105.138l-1.951-.483-.009,1.579,1.951.483V106.6l.008-1.352v-.113Z"/><path d="M246.931,109.856l-.014,2.417,1.951.482.015-2.41-1.951-.489Z"/><path d="M249.174,117.264l-1.946-.482,0,.53,1.946.481Z"/><path d="M249.921,123.094l-1.951-.482-.006,1.065,1.951.483Z"/><path d="M247.093,128.112l-1.946-.482-.009,1.451,1.946.488Z"/><path d="M249.077,134.428l-1.951-.475-.01,1.617,1.951.482Z"/><path d="M247.853,140.542l-1.946-.482,0,.635,1.947.481Z"/><path d="M249.122,145.907l-1.945-.481-.014,2.342,1.946.488Z"/><path d="M247.491,151.823l-1.946-.473-.01,1.526,1.946.48Z"/><path d="M245.262,32.52l-1.946-.481-.016,2.524,1.946.48Z"/><path d="M243.8,38.727l-1.946-.482,0,.387.072.017,0,.454-.072-.018,0,.385,1.946.481Z"/><path d="M245.65,45.545l-1.946-.481v.325l1.946.481Z"/><path d="M245.019,50.624l-1.946-.48-.01,1.676,1.946.481Z"/><path d="M246.345,55.983,244.4,55.5l-.021,3.437,1.946.481.021-3.437Z"/><path d="M244.156,62.281,242.21,61.8l-.009,1.587,1.946.481Z"/><path d="M242.835,68.256l-1.951-.482v.068l.715.177,0,.672-.715-.177v.068l1.952.49,0-.816Z"/><path d="M245.873,74.242l-1.05-.26-.9-.222-.013,2.161.9.221,1.05.261Z"/><path d="M243.72,79.868l-.009,1.677,1.946.481.009-1.67-1.946-.488Z"/><path d="M244.3,86.683v.151l1.946.481v-.144Z"/><path d="M245.48,91.7l-1.946-.481-.016,2.538,1.946.481Z"/><path d="M243.753,97.026l-1.946-.481-.017,2.848,1.946.489Z"/><path d="M244.487,104.289l-1.946-.473,0,.5,1.947.481,0-.513Z"/><path d="M245.444,109.821l-1.94-.472-.012,1.737,1.942.479Z"/><path d="M244.313,115.238l-1.863-.461-.013,2.176,1.863.468Z"/><path d="M245.071,122.068l-1.951-.483,0,.725,1.951.483Z"/><path d="M242.536,127.334l-1.946-.481,0,.763,1.947.481Z"/><path d="M244.955,133.667l-1.945-.481L243,134.3l1.946.481.006-1.118Z"/><path d="M243.757,139.11l-1.946-.481-.009,1.458,1.946.48Z"/><path d="M246.037,146.071l-1.946-.482,0,.507,1.947.48Z"/><path d="M242.556,151.049l-1.946-.48,0,.649,1.947.474Z"/><path d="M241.756,31.866l-1.951-.482-.013,2.1,1.952.483.012-2.1Z"/><path d="M241.928,38.649l-.072-.018-1.874-.463,0,.453,1.873.463.073.018Z"/><path d="M240.018,43.51l-1.946-.481-.01,1.6,1.946.481Z"/><path d="M240.117,49.549l-1.946-.481-.009,1.405,1.946.481Z"/><path d="M240.11,55.032l-1.739-.43-.013,2.251,1.738.43Z"/><path d="M240.21,61.722l-1.946-.482-.005.764,1.946.48Z"/><path d="M241.6,68.019l-.715-.178-1.231-.3,0,.673,1.232.305.715.176,0-.672Z"/><path d="M240.333,73.319l-1.946-.473,0,.219.436.107-.006.824-.435-.107v.219l1.946.481.008-1.27Z"/><path class="cls-6" d="M240.089,79.7l1.9.47-.049.2-1.9-.47.049-.2Z"/><path d="M240.563,85.14l-1.951-.475-.009,1.383,1.952.482.008-1.39Z"/><path d="M241.729,90.519l-1.946-.48-.018,3.036,1.946.481Z"/><path d="M239.192,97l-1.952-.483,0,.643,1.952.482Z"/><path d="M239.727,102.8l-1.946-.481-.006,1.134,1.945.48Z"/><path d="M238.688,108.507l-1.951-.483-.006,1.036,1.951.482Z"/><path d="M242.451,114.6l-1.946-.481-.015,2.539,1.946.487v-.188l.014-2.175Z"/><path d="M239.91,119.952l-1.945-.481-.015,2.4,1.946.481Z"/><path d="M239.505,126.177l-1.945-.481,0,.468.213.053,0,.642-.212-.052,0,.467,1.946.482.009-1.579Z"/><path d="M238.7,132.175l-1.946-.482-.006,1.013,1.946.481Z"/><path d="M240.768,138.753l-1.946-.474,0,.695,1.945.481,0-.7Z"/><path d="M239.505,144.566l-1.946-.474,0,.265,1.946.48Z"/><path d="M239.907,150.207l-1.946-.482-.007,1.028,1.947.48.006-1.026Z"/><path d="M235.507,30.609l-1.946-.481-.009,1.526,1.946.481Z"/><path d="M237.577,37.309l-1.946-.481-.006.982,1.946.481Z"/><path d="M237.039,43.2l-1.946-.481,0,.755,1.947.48Z"/><path d="M235.825,48.571l-1.946-.48v.1l1.041.262-.006,1.034-1.041-.261v.1l1.946.481Z"/><path d="M238.374,54.119l-1.946-.482-.02,3.234,1.947.473,0-.491.013-2.251,0-.483Z"/><path d="M235.819,60.1l-.011,1.829,1.946.48.011-1.82Z"/><path d="M238.737,67.2l-1.946-.481-.006.9,1.947.48,0-.9Z"/><path d="M238.82,73.172l-.434-.107-1.512-.374,0,.824,1.512.374.434.107Z"/><path d="M237.563,78.074l-1.952-.482-.013,2.213,1.951.49Z"/><path d="M235.36,82.356l-1.946-.482-.006.93.43.107-.015,2.529-.43-.105,0,.928,1.946.482.026-4.389Z"/><path d="M236.027,89.617l-1.946-.481-.012,2.024,1.946.481Z"/><path d="M235.137,95.532l-1.946-.481-.01,1.586,1.946.482Z"/><path d="M233.7,101.1l-.009,1.557,1.946.481.009-1.549Z"/><path d="M236.3,107.751l-1.946-.481-.008,1.382,1.946.474Z"/><path d="M237.35,113.775l-1.951-.483-.01,1.669,1.952.483.009-1.669Z"/><path d="M236.623,120.138l-1.951-.482,0,.408,1.952.483Z"/><path d="M237.769,126.216l-.212-.053-1.739-.43,0,.643,1.739.43.213.052Z"/><path d="M234.66,131.229l-1.946-.481-.006.914,1.947.481,0-.914Z"/><path d="M237.713,137.261l-1.945-.481-.013,2.176,1.946.473Z"/><path d="M235.184,143.358l-1.946-.473,0,.559,1.946.473Z"/><path d="M234.615,148.4l-1.946-.481-.012,2.017,1.946.488Z"/><path d="M233.364,30.193l-1.946-.482-.008,1.3,1.946.481Z"/><path d="M234.729,35.939l-1.946-.48-.014,2.3,1.946.482Z"/><path d="M231.982,41.963l-1.951-.482,0,.725,1.951.482Z"/><path d="M232.973,47.965,232.967,49l.905.227,1.041.261.006-1.035-1.041-.26-.9-.228Z"/><path d="M232.412,53.349l-1.946-.481-.011,1.821,1.946.48Z"/><path d="M232.328,59.623l-1.946-.482-.007,1.058,1.947.481Z"/><path d="M232.113,64.539l-1.951-.482,0,.333.108.027-.014,2.273-.108-.027,0,.332,1.952.483.018-2.939Z"/><path d="M233.721,71.269l-1.946-.481-.013,2.1,1.946.48Z"/><path d="M233.641,77.755l-1.951-.482-.006.922,1.951.482Z"/><path d="M233.838,82.911l-.43-.107-1.516-.374-.015,2.531,1.516.374.429.106Z"/><path d="M233.5,88.9l-1.946-.482-.013,2.221,1.946.482Z"/><path d="M231.847,94.311,229.9,93.83l-.014,2.395,1.946.48Z"/><path d="M231.01,100.882l-1.946-.481,0,.672,1.946.482Z"/><path d="M233.368,106.972l-1.951-.482-.009,1.481,1.952.482Z"/><path d="M232.474,112.736l-1.952-.483-.008,1.345,1.952.475Z"/><path d="M231.311,118.3l-1.946-.474-.009,1.436,1.946.48Z"/><path d="M233.144,124.6l-1.945-.481-.01,1.579,1.946.48Z"/><path d="M232.334,129.26l-1.946-.482-.006.96.114.028-.011,1.775-.113-.027-.006.951,1.947.481.021-3.686Z"/><path d="M231.7,135.877l-1.946-.482-.012,1.98,1.946.481Z"/><path d="M232.286,141.711l-1.946-.482-.015,2.426,1.946.473Z"/><path d="M232.14,147.9l-1.946-.481-.01,1.8,1.946.482Z"/><path d="M229.348,29,227.4,28.53l-.011,1.685,1.946.473Z"/><path d="M229.906,35.572,227.96,35.1l0,.649,1.947.481Z"/><path d="M229.609,40.93l-1.951-.474-.01,1.609,1.952.482Z"/><path class="cls-6" d="M227.3,47.016l1.915.474-.032.129-1.915-.474.032-.129Z"/><path d="M229.9,51.978,227.95,51.5l-.02,3.316,1.946.481Z"/><path d="M228.9,57.875l-1.946-.481-.017,2.856,1.946.489.017-2.864Z"/><path d="M230.268,64.417l-.109-.027-1.842-.456-.014,2.274,1.843.455.108.027Z"/><path d="M230.513,71.134l-1.951-.482-.005.793,1.952.482,0-.793Z"/><path d="M227.9,76.29l-1.879-.464-.006,1.012,1.879.464Z"/><path d="M227.183,81.962l-1.946-.481-.006,1.141,1.945.481Z"/><path d="M228.668,88.494l-1.946-.473,0,.627,1.947.481Z"/><path d="M227.386,93.208l-1.952-.482-.014,2.395,1.951.482.015-2.395Z"/><path d="M227.351,99.925l-1.946-.481,0,.242.269.066v.288l-.269-.067,0,.249,1.947.481,0-.778Z"/><path d="M230.53,106.574l-1.946-.481,0,.876,1.946.481Z"/><path d="M227.982,111.542l-1.946-.481-.009,1.5,1.946.482Z"/><path d="M228.33,117.589l-1.713-.423-.009,1.405,1.713.423Z"/><path d="M229.572,123.971l-1.946-.481-.007,1.081,1.947.48.006-1.08Z"/><path d="M230.5,129.767l-.114-.028-1.831-.453-.012,1.775,1.833.453.113.028.011-1.775Z"/><path d="M229.509,135.438l-1.946-.481-.01,1.768,1.946.481Z"/><path d="M229.451,140.795l-1.946-.481-.017,2.841,1.946.48.017-2.84Z"/><path d="M226.78,147.064l0,.808,1.951.482,0-.8-1.952-.49Z"/><path d="M224.583,27.652l-1.946-.481,0,.385h.005l-.007,1.269h0l0,.392,1.946.482.012-2.047Z"/><path d="M227.262,33.05l-1.952-.483-.026,4.4,1.951.482.027-4.4Z"/><path d="M225.048,39.16l-1.951-.482-.018,2.908,1.952.482.017-2.908Z"/><path d="M224.032,44.477,222.086,44l-.022,3.58,1.946.481Z"/><path d="M224.325,51.759l-1.946-.481-.006,1,1.946.481Z"/><path d="M223.417,57.284l-1.952-.483-.007,1.33,1.951.482Z"/><path d="M224.851,63.637l-1.946-.481,0,.31.057.014,0,.536L222.9,64l0,.317,1.946.481.007-1.163Z"/><path d="M224.45,68.2l-1.951-.483-.021,3.664,1.951.483Z"/><path d="M226.022,75.108l-1.946-.482-.015,2.448,1.946.481,0-.717.006-1.013,0-.717Z"/><path d="M223.527,81.346l-1.945-.481,0,.567,1.946.48Z"/><path d="M223.818,87.409l-.921-.228,0,.408.921.228Z"/><path d="M224.72,93.412l-1.946-.481,0,.672,1.947.489,0-.68Z"/><path d="M225.672,99.752l-.269-.066-1.676-.415,0,.287,1.677.415.269.066Z"/><path d="M226.177,105.573l-1.946-.481,0,.718,1.946.48,0-.717Z"/><path d="M225.176,110.909l-1.946-.481-.008,1.383,1.946.48Z"/><path d="M226.617,117.075l-1.951-.482-.01,1.586,1.951.483v-.091l.009-1.406v-.09Z"/><path d="M221.959,121.855l0,.433.543.132,0,.688-.543-.135,0,.423,1.946.489.009-1.541-1.946-.489Z"/><path d="M223.68,128.047l-1.951-.482-.012,1.844,1.951.489Z"/><path d="M224.714,134.677l-1.946-.481-.006.914,1.947.489,0-.922Z"/><path d="M223.194,139.978l-1.946-.481-.008,1.39,1.946.481Z"/><path d="M224.168,146.225l-1.952-.482-.007,1.2,1.951.49.008-1.209Z"/><path d="M222.639,27.557h-.005l-1.941-.48-.007,1.27,1.94.479h0Z"/><path d="M221.314,32.518l-1.946-.481-.006.975.145.035,0,.567-.145-.036-.006.982,1.946.481.015-2.523Z"/><path d="M222.9,39.408l-1.946-.481-.008,1.353,1.945.481Z"/><path d="M221.277,44.008l-1.951-.483-.019,3.173,1.951.482Z"/><path d="M219.732,50.109l-1.951-.482-.012,2.032,1.951.482Z"/><path d="M220.843,56.807l-1.946-.481-.006,1.02,1.946.48Z"/><path d="M222.96,63.48l-.057-.015L221.008,63l0,.536L222.9,64l.058.015,0-.537Z"/><path d="M221.922,68.073l-1.952-.483-.016,2.668,1.951.481.017-2.666Z"/><path d="M220.745,74.159l-1.946-.481-.01,1.738,1.946.481Z"/><path d="M220.79,80.488l-1.945-.482v.024l.325.08,0,.883-.326-.08v.023l1.946.481,0-.929Z"/><path d="M222.9,86.343l-1.946-.482-.013,2.085,1.946.482,0-.838,0-.409,0-.838Z"/><path d="M220.8,92.61l-1.951-.483,0,.348,1.951.482Z"/><path d="M222.519,98.307l-1.946-.481-.009,1.616,1.946.482Z"/><path d="M219.705,103.452l-1.946-.481-.01,1.768,1.946.481Z"/><path d="M222.706,110.586l-1.946-.481,0,.8,1.946.481Z"/><path class="cls-6" d="M218.44,115.8l1.925.476-.021.086-1.926-.476Z"/><path d="M222.5,122.42l-.543-.132-1.4-.342,0,.681,1.4.346.543.134Z"/><path d="M221.442,127.794l-1.946-.481-.007,1.238,1.946.49Z"/><path d="M221.3,133.955l-1.952-.483,0,.673,1.952.482,0-.672Z"/><path d="M220.407,138.848l-1.946-.482-.013,2.267,1.946.48Z"/><path d="M220.306,145.473l-1.76-.428,0,.793,1.76.428Z"/><path d="M218.366,27l-1.945-.481,0,.272,1.947.48Z"/><path d="M219.507,33.047l-.144-.036-1.8-.445,0,.567,1.8.445.145.036Z"/><path d="M219.217,38.165l-1.946-.481-.012,2.017,1.946.481Z"/><path d="M218.453,43.847l-1.946-.481-.013,2.1,1.946.481Z"/><path d="M216.838,49.537l-1.951-.482-.01,1.745,1.951.482Z"/><path d="M217.358,55.348l-1.946-.482L215.4,57.08l1.946.473Z"/><path d="M219.286,62.436l-1.946-.482,0,.809,1.946.481Z"/><path d="M216.454,67.024l-1.81-.448-.013,2.062,1.811.448Z"/><path d="M217.289,73.025l-1.951-.482-.013,2.3,1.951.482Z"/><path d="M219.17,80.11l-.325-.081-1.62-.4-.006.885,1.62.4.326.081,0-.884Z"/><path d="M216.607,84.954l-1.946-.481-.011,1.745,1.946.48Z"/><path d="M215.571,90.893l-1.071-.265-.007,1.186,1.072.265Z"/><path d="M216.524,97.234l-1.952-.483,0,.809,1.952.482,0-.808Z"/><path d="M215.327,102.264l-.9-.221-.011,1.979.9.222Z"/><path d="M216.686,109.1l-1.946-.48,0,.8,1.947.481Z"/><path d="M216.238,114.813l-.006.982,1.951.482.006-.975Z"/><path d="M217.864,120.185l-1.946-.481-.017,2.863,1.946.481.017-2.863Z"/><path d="M214.7,126.383l0,.725,1.946.482,0-.718Z"/><path d="M216.553,132.36l-1.946-.482L214.6,133.4l1.946.474.009-1.518Z"/><path d="M218.27,139.071l-1.946-.481-.005.778,1.947.481Z"/><path d="M218.547,144.867l-1.946-.481-.007,1.148,1.946.488v-.182l0-.793v-.18Z"/><path d="M321.856,50.876,214.6,24.368l-.727,122.157,107.252,26.507.727-122.156m-7.119-1.336,6.831,1.688-.007,1.27,0,.287-.067,11.3,0,.731-.061,10.222-.015,2.447-.022,3.694-.012,1.957-.024,4.132-.009,1.6-.027,4.428-.008,1.344-.028,4.683-.006,1.1-.06,10.106-.014,2.3-.092,15.417-.014,2.3-.091,15.41-.014,2.312-.027,4.6,0,.291-.028,4.816-.011,1.886-.062,10.389-.006.952-.008,1.345-48.461-11.978-1.946-.481-56.271-13.907.251-42.159.012-1.979.061-10.229.007-1.186.13-21.989.013-2.062.248-41.714L285.457,42.3l1.946.48,25.388,6.275,1.946.481Z"/></g><path class="cls-4" d="M325.791,57.114l88.068,31.92"/><path d="M412.632,89.918l4.807.413-3.956-2.762-.851,2.349Z"/><path class="cls-4" d="M326.083,127.226l87.636-19.057"/><path d="M413.152,109.571l4.289-2.21-4.82-.231.531,2.441Z"/><g class="cls-2"><path d="M550.854,75.527H547.2V74.9h3.651Zm-.278,6.488H548.3v.474h-.65V79.034h2.93Zm-.011-5.117h-2.909V76.29h2.909Zm-2.909.753h2.909v.62h-2.909Zm2.878-3.486h-2.826v-.618h2.826Zm-2.238,5.5V81.4h1.62V79.663Zm2.351,2.022a4.158,4.158,0,0,0,.816-2.259l.619.155a4.377,4.377,0,0,1-.877,2.465ZM554.3,76.9a10.944,10.944,0,0,0-1.063-.66,4.064,4.064,0,0,1-1.878,1.867,2.445,2.445,0,0,0-.453-.536,3.494,3.494,0,0,0,1.712-1.639,12.887,12.887,0,0,0-1.341-.558l.382-.536c.381.124.794.3,1.206.475a6.821,6.821,0,0,0,.238-1.022H551.37v-.66h4.92s0,.226-.01.32c-.092,2.424-.2,3.322-.454,3.62a.733.733,0,0,1-.608.3,9.505,9.505,0,0,1-1.207-.01,1.666,1.666,0,0,0-.2-.691c.464.041.9.041,1.063.041s.269-.01.33-.1c.176-.185.269-.908.351-2.816h-1.744a8.243,8.243,0,0,1-.319,1.331,11.2,11.2,0,0,1,1.186.681Zm.144,4.952c.268,0,.32-.144.351-1.176a1.819,1.819,0,0,0,.64.3c-.073,1.237-.259,1.547-.909,1.547h-1.144c-.764,0-.949-.207-.949-.97V79.075h.712v2.476c0,.258.041.3.339.3Zm-1.382-4.157a7.291,7.291,0,0,1,1.835,1.341l-.474.5a8.024,8.024,0,0,0-1.8-1.393Zm2.558,1.547a7.056,7.056,0,0,1,1.165,2.455l-.67.279A7.58,7.58,0,0,0,555,79.488Z"/><path d="M560.678,75.527h-3.157V74.9h3.157Zm-.238,6.478h-1.919v.484h-.608V79.034h2.527Zm-.01-5.107h-2.486V76.29h2.486Zm-2.486.753h2.486v.62h-2.486Zm2.465-3.486h-2.424v-.618h2.424Zm-1.888,5.5v1.723h1.291V79.663Zm8.056-1.588a8.539,8.539,0,0,1-1.134,2.372c.186.846.444,1.33.794,1.362.176.01.3-.527.362-1.372a2.376,2.376,0,0,0,.5.4c-.187,1.413-.527,1.815-.877,1.806-.609-.032-1.011-.579-1.279-1.538a7.405,7.405,0,0,1-1.682,1.455,2.811,2.811,0,0,0-.433-.433,6.025,6.025,0,0,0,1.021-.764h-2.156v.557h-.608V77.951h2.826V81.3a7.183,7.183,0,0,0,.866-.97,24.46,24.46,0,0,1-.278-3.022h-3.961v-.64h3.93c-.03-1.052-.041-2.207-.052-3.466h.671c-.011,1.269,0,2.435.031,3.466h1.743v.64h-1.722c.03.825.082,1.567.165,2.186a8.68,8.68,0,0,0,.69-1.732Zm-2.413-3.157h-3.352V74.31h1.34V73.195h.712V74.31h1.3Zm-2.651,1.713a5.334,5.334,0,0,0-.288-1.5l.556-.124a5.22,5.22,0,0,1,.32,1.485Zm.175,1.888v.845h1.568v-.845Zm1.568,2.279v-.877h-1.568V80.8Zm-.464-4.28a10.741,10.741,0,0,0,.351-1.558l.66.134c-.165.536-.32,1.155-.464,1.547Zm3.527-.764a6.388,6.388,0,0,0-1.02-1.847l.577-.237a6.61,6.61,0,0,1,1.073,1.806Z"/><path d="M569.037,79.158a9.043,9.043,0,0,1-.732,2.619,2.745,2.745,0,0,0-.6-.288,7.4,7.4,0,0,0,.671-2.455Zm1.888-2.672a8.794,8.794,0,0,1,1.021,2.094l-.609.289a4.018,4.018,0,0,0-.195-.6l-.9.062v4.291h-.691v-4.25c-.619.031-1.187.062-1.682.082l-.061-.69c.206,0,.443-.011.68-.021.227-.268.464-.589.692-.919a8.963,8.963,0,0,0-1.352-1.485l.392-.495c.1.083.207.175.309.268a13.868,13.868,0,0,0,.918-1.919l.681.259a18.448,18.448,0,0,1-1.176,2.073,7.218,7.218,0,0,1,.63.711c.423-.649.814-1.32,1.1-1.877l.66.289a30.048,30.048,0,0,1-2.136,3.064c.517-.021,1.084-.041,1.65-.072-.154-.31-.33-.629-.5-.909Zm.267,2.507a8.9,8.9,0,0,1,.692,1.981l-.609.206a10.179,10.179,0,0,0-.66-2Zm3.642-3.652v1.548h2.218v.691h-5.044v-.691h2.053V75.341h-2.373v-.7h2.373V73.186h.773V74.64h2.444v.7Zm-2.5,3.363h4.425v3.858h-.742v-.485H573.05v.516h-.712Zm.712.692v1.99h2.971V79.4Z"/><path d="M583.925,79.333a10.258,10.258,0,0,0,3.723,2.249,3.443,3.443,0,0,0-.526.64,11.456,11.456,0,0,1-3.837-2.62v3.011h-.794v-2.96a10.265,10.265,0,0,1-3.837,2.61,3.531,3.531,0,0,0-.516-.629,9.32,9.32,0,0,0,3.714-2.3H578.4v-.712h4.1v-.866h-3.1V73.681h7.045v4.074h-3.156v.866h4.1v.712ZM580.17,75.4h2.321V74.351H580.17Zm2.321,1.692V76.032H580.17V77.1Zm3.136-2.744h-2.342V75.4h2.342Zm0,1.681h-2.342V77.1h2.342Z"/></g><g class="cls-2"><path class="cls-7" d="M242.788,203.484c.445,0,.506-.276.566-1.962a3.387,3.387,0,0,0,1.035.482c-.132,2-.421,2.528-1.505,2.528h-1.6c-1.179,0-1.492-.349-1.492-1.529v-3.948H237.8c-.229,2.564-.8,4.5-3.853,5.513a3.172,3.172,0,0,0-.7-.963c2.769-.842,3.166-2.419,3.359-4.55H233.53v-1.073h4.731v-4.465h1.132v4.465h4.828v1.073h-3.3V203c0,.4.072.481.506.481Zm-6.983-6.079a12.971,12.971,0,0,0-1.336-2.962l1.011-.373a11.485,11.485,0,0,1,1.409,2.913Zm7.609-3.034a26.326,26.326,0,0,1-1.649,2.985l-.963-.373a16.46,16.46,0,0,0,1.445-3.033Z"/><path class="cls-7" d="M256.223,201.294H251.48v2.01c0,.614-.157.927-.65,1.095a8.307,8.307,0,0,1-2.252.169,6.074,6.074,0,0,0-.469-1.084c.843.037,1.685.037,1.926.025s.3-.061.3-.241v-1.974h-4.7v-1.036h4.7v-.83h.566a9.418,9.418,0,0,0,1.36-.9h-4.574v-.974h5.646l.241-.061.722.542a10.8,10.8,0,0,1-2.817,2.071v.156h4.743Zm-9.33-3.07h-1.048v-2.757h1.734a7.589,7.589,0,0,0-.939-1.385l.963-.434a7.407,7.407,0,0,1,1.12,1.614l-.433.205h2.227a8.952,8.952,0,0,0-.843-1.65l.975-.361a7.151,7.151,0,0,1,.976,1.782l-.591.229h2.035a12.746,12.746,0,0,0,1.168-1.878l1.18.373c-.35.517-.747,1.047-1.12,1.505h1.745v2.757h-1.107v-1.77h-8.042Z"/><path class="cls-7" d="M261.23,201.763a14.035,14.035,0,0,1-2.841,2.6,7.5,7.5,0,0,0-1.023-.782,9.344,9.344,0,0,0,2.709-2.239Zm6.249-.241a9.148,9.148,0,0,0-.71-.89c-1.084.048-2.192.084-3.263.108v3.828h-1.18v-3.792c-1.734.06-3.347.1-4.611.12l-.12-1.131c.734,0,1.613-.012,2.576-.025.3-.217.614-.457.939-.71a17.2,17.2,0,0,0-2.625-1.926l.771-.71c.229.132.47.277.71.433a18.616,18.616,0,0,0,1.361-1.529c-1.06.06-2.107.1-3.094.108a4.138,4.138,0,0,0-.265-1,59.594,59.594,0,0,0,8.764-.746l.795.951a42.551,42.551,0,0,1-4.779.59l.1.048a23.3,23.3,0,0,1-2.023,2.143,12.827,12.827,0,0,1,1.168.9,27.937,27.937,0,0,0,2.817-2.77l1.084.591a41.623,41.623,0,0,1-4.046,3.6c1.277-.025,2.625-.049,3.973-.085-.385-.361-.77-.71-1.131-1.024l.915-.589a19.131,19.131,0,0,1,2.889,2.841Zm-2.047-.241a22.2,22.2,0,0,1,2.925,2.336l-1,.723a19.641,19.641,0,0,0-2.853-2.433Z"/><path class="cls-7" d="M273.979,204.268l-1.023-.964c2.252-.83,3.311-1.866,3.311-5.056v-.481h-3.179v1.805a11.032,11.032,0,0,0,.06,1.168h-1.335c.011-.169.06-.662.06-1.168v-1.805h-1.18c-.566,0-1.06.023-1.253.047V196.5a7.491,7.491,0,0,0,1.253.1h1.18v-1.385a6.481,6.481,0,0,0-.073-.963h1.361a6.465,6.465,0,0,0-.073.963V196.6h3.179v-1.4a8.57,8.57,0,0,0-.06-1.048h1.36a7.9,7.9,0,0,0-.072,1.048v1.4h1.131a7.87,7.87,0,0,0,1.205-.073V197.8c-.193-.025-.615-.036-1.192-.036H277.5v.409C277.5,201.281,276.8,203,273.979,204.268Z"/><path class="cls-7" d="M286.03,196.911a14.839,14.839,0,0,0,3.347-2.865l1.012.963a20.282,20.282,0,0,1-3.239,2.637v5a9.086,9.086,0,0,0,.084,1.421h-1.493a14,14,0,0,0,.072-1.421v-4.19a24.533,24.533,0,0,1-4.442,1.866l-.59-1.191A19.867,19.867,0,0,0,286.03,196.911Z"/><path class="cls-7" d="M293.072,195.72a8.634,8.634,0,0,0-.108-1.349h1.481c-.036.4-.1.915-.1,1.349V197.6a39.068,39.068,0,0,1,5.092,1.925l-.529,1.3a33.677,33.677,0,0,0-4.563-1.866c.011,1.661.011,3.323.011,3.72,0,.374.036,1.108.085,1.541h-1.469a12.787,12.787,0,0,0,.1-1.541Zm5.562.926-.842.374a10.9,10.9,0,0,0-1.06-1.842l.807-.35A14.84,14.84,0,0,1,298.634,196.646Zm1.554-.673-.831.409a12.022,12.022,0,0,0-1.108-1.806l.807-.374A18.144,18.144,0,0,1,300.188,195.973Z"/></g><g class="cls-2"><path class="cls-7" d="M273.958,34.331l-.83-.565a12.272,12.272,0,0,0,2.3-3.143l.843.409A17.2,17.2,0,0,1,273.958,34.331Zm4.889-7.308v1.241h3.178a9.268,9.268,0,0,0,.987-.061v1c-.325-.023-.686-.036-.975-.036h-3.19v5.839c0,.626-.3.951-1.036.951a15.876,15.876,0,0,1-1.709-.084l-.084-.951a8.381,8.381,0,0,0,1.384.133c.325,0,.47-.133.47-.458v-5.43h-3.335a9.376,9.376,0,0,0-1.036.049V28.191a6.838,6.838,0,0,0,1.023.073h3.348V27.023a4.487,4.487,0,0,0-.085-.855h1.132A7.913,7.913,0,0,0,278.847,27.023Zm4.538,6.754-.89.494a19.51,19.51,0,0,0-2.011-3.2l.819-.445A24.585,24.585,0,0,1,283.385,33.777Z"/><path class="cls-7" d="M286.7,27.385h6.466c.264,0,.7,0,1.059-.025-.024.3-.024.638-.024.94v5.934c0,.386.012,1.325.024,1.457h-1.035c0-.084.012-.373.012-.7h-6.574c.012.314.012.6.024.7h-1.035c.012-.156.036-1.047.036-1.468V28.3c0-.278,0-.651-.024-.94C286.093,27.372,286.418,27.385,286.7,27.385Zm-.072,6.669h6.585V28.336h-6.585Z"/><path class="cls-7" d="M301.01,27.493c-.085.168-.181.337-.277.505H304a2.317,2.317,0,0,0,.783-.108l.794.482a3.841,3.841,0,0,0-.277.638,11.758,11.758,0,0,1-2.13,4.153,10.714,10.714,0,0,1-4.792,3.275l-.879-.794a9.654,9.654,0,0,0,4.816-3.023,9.77,9.77,0,0,0,1.914-3.756h-4.057a11.609,11.609,0,0,1-3.058,2.962l-.831-.614a10.089,10.089,0,0,0,3.781-4.069,4.552,4.552,0,0,0,.373-.963l1.108.373C301.347,26.867,301.13,27.276,301.01,27.493Zm4.755.132-.65.289a13.655,13.655,0,0,0-.975-1.661l.638-.277A17.11,17.11,0,0,1,305.765,27.625Zm1.348-.493-.65.289a12.559,12.559,0,0,0-1-1.65l.638-.277A17.083,17.083,0,0,1,307.113,27.132Z"/><path class="cls-7" d="M316.227,30.165a8.321,8.321,0,0,1-1.758,3.42,8.718,8.718,0,0,1-4.31,2.516l-.747-.855a8.034,8.034,0,0,0,4.238-2.2,6.165,6.165,0,0,0,1.433-2.661H308.69c-.289,0-.747.013-1.18.036V29.407a11.428,11.428,0,0,0,1.18.072h6.345a1.6,1.6,0,0,0,.662-.1l.686.433A2.059,2.059,0,0,0,316.227,30.165Zm-6.55-3.467h4.732a7.379,7.379,0,0,0,1.1-.06v1c-.289-.025-.7-.036-1.108-.036h-4.719c-.373,0-.759.011-1.083.036v-1A7.405,7.405,0,0,0,309.677,26.7Z"/><path class="cls-7" d="M322.209,27.745c-.349,1.132-1.541,4.828-2.143,6.394,1.77-.169,4.081-.422,5.406-.6A17.19,17.19,0,0,0,324,31.068l.9-.409a33.936,33.936,0,0,1,2.673,4.9l-1.012.458c-.156-.434-.385-.988-.662-1.578-1.854.241-5.887.687-7.5.832-.3.023-.651.083-1,.131l-.18-1.119c.361.012.771,0,1.12-.012l.6-.037c.675-1.661,1.9-5.513,2.24-6.693a7.762,7.762,0,0,0,.229-1.156l1.2.241C322.5,26.927,322.366,27.24,322.209,27.745Z"/></g><g class="cls-2"><path d="M145.272,88.821a8.188,8.188,0,0,1-2.29,3.889,8.336,8.336,0,0,0,3.27,1.423,2.6,2.6,0,0,0-.515.7,8.532,8.532,0,0,1-3.373-1.6,9.663,9.663,0,0,1-3.167,1.578,2.81,2.81,0,0,0-.444-.69,8.764,8.764,0,0,0,3.012-1.413,8.842,8.842,0,0,1-2.011-3.332h-.681a10.255,10.255,0,0,1-1.33,5.415,3.065,3.065,0,0,0-.65-.453c1.124-1.6,1.238-3.868,1.238-5.5V86.057h7.509V86.8h-6.757v1.847h5.509l.155-.042Zm-4.713.557a7.321,7.321,0,0,0,1.815,2.826,7.145,7.145,0,0,0,1.888-2.826Z"/><path d="M152.094,89.873c-.154.278-.319.557-.5.825v3.229c0,.413-.093.639-.371.753a4.263,4.263,0,0,1-1.475.133,2.21,2.21,0,0,0-.237-.69c.526.021,1.021.01,1.176.01s.2-.051.2-.206v-2.3a11.587,11.587,0,0,1-3.229,2.609,4.424,4.424,0,0,0-.526-.556,10.121,10.121,0,0,0,2.9-2.125c-.96.144-1.888.267-2.631.371l-.1-.692c.258-.02.547-.061.867-.092v-4.59h1.01c.135-.362.289-.825.372-1.156l.856.125c-.145.35-.3.732-.454,1.031h1.65v3.167Zm-3.249-2.713v.877h2.043V87.16Zm2.043,1.465h-2.043V89.5h2.043Zm-2.043,2.435c.578-.073,1.2-.156,1.816-.238.072-.1.154-.217.227-.32v-.423h-2.043Zm7.87-2.414H155.6v5.188c0,.475-.124.7-.434.836a5.068,5.068,0,0,1-1.67.134,3.868,3.868,0,0,0-.279-.733c.629.032,1.207.021,1.382.011s.248-.062.248-.248V88.646h-2.858v-.722h2.858V85.448h.753v2.476h1.113Zm-3.228,3.682a8.725,8.725,0,0,0-1.011-2.372l.66-.259a8.64,8.64,0,0,1,1.052,2.342Z"/><path d="M160.844,90.11a1.094,1.094,0,1,1-1.094-1.093A1.088,1.088,0,0,1,160.844,90.11Z"/><path d="M167.789,89.172h-5v-.66h1.2V87.294h-1.031v-.649h1.031V85.5h.7v1.145h1.331V85.5h.712v1.145h1.042v.649h-1.042v1.218h1.062Zm-.6,4.848c0,.371-.072.557-.33.67a3.654,3.654,0,0,1-1.29.114,2.21,2.21,0,0,0-.216-.64c.454.021.846.011.959.011s.165-.052.165-.165v-.918H164.23v1.732h-.711V89.853h3.672Zm-2.961-3.559v.722h2.249v-.722Zm2.249,2.032v-.722H164.23v.722Zm-1.8-3.981h1.331V87.294h-1.331Zm6.829-.486a12.237,12.237,0,0,1-1.2,4.137,5.151,5.151,0,0,0,1.971,2.012,2.745,2.745,0,0,0-.547.649,5.447,5.447,0,0,1-1.857-1.949,6.642,6.642,0,0,1-2.2,1.96,2.63,2.63,0,0,0-.454-.65,5.44,5.44,0,0,0,2.249-2.053,15.192,15.192,0,0,1-.908-2.858,7.436,7.436,0,0,1-.66,1.28,4.209,4.209,0,0,0-.526-.629,11.726,11.726,0,0,0,1.434-4.529l.742.114c-.1.608-.216,1.217-.361,1.8h3v.721Zm-2.527.073a13.748,13.748,0,0,0,.928,3.249,12.447,12.447,0,0,0,.856-3.322h-1.764Z"/><path d="M176.189,88.264h2.269v.7h-2.269v1.722h1.856v3.868h-.753v-.381h-2.939v.443h-.722v-3.93h1.805V88.966h-2.342v-.7h2.342V86.706c-.65.1-1.331.186-1.96.248a2.319,2.319,0,0,0-.217-.619,22.582,22.582,0,0,0,4.405-.846l.588.577a13.341,13.341,0,0,1-2.063.506Zm1.1,3.115h-2.939v2.1h2.939Zm4.054,2.589c.382,0,.444-.392.5-1.929a2.06,2.06,0,0,0,.692.341c-.083,1.7-.269,2.29-1.125,2.29h-1.351c-.867,0-1.114-.279-1.114-1.32V85.521h.753v7.838c0,.516.072.609.444.609Z"/><path d="M191.6,94.082c.4,0,.474-.259.525-1.733a2.229,2.229,0,0,0,.7.34c-.093,1.661-.3,2.1-1.166,2.1H190.18c-.908,0-1.166-.247-1.166-1.113V90.038h-1.9c-.2,2.249-.711,3.93-3.28,4.775a2.413,2.413,0,0,0-.474-.649c2.4-.722,2.785-2.177,2.95-4.126h-2.744v-.732h4.146V85.4h.764v3.91h4.239v.732h-2.929v3.631c0,.341.083.413.474.413Zm-5.963-5.364a11.056,11.056,0,0,0-1.217-2.558l.691-.259a10.04,10.04,0,0,1,1.248,2.528Zm6.293-2.641a21.857,21.857,0,0,1-1.434,2.61l-.64-.258a15.292,15.292,0,0,0,1.3-2.641Z"/></g><g class="cls-2"><path class="cls-7" d="M456.005,196.394h-4.8V195.5h4.8Zm-.493,7.512H452.73v.506h-.987v-4.046h3.769Zm-3.744-6.766h3.78v.867h-3.78Zm0,1.6h3.78v.879h-3.78Zm3.792-3.949h-3.72v-.878h3.72Zm-2.83,6.478V203h1.782V201.27Zm9.656-2.6h-2.6v5.888h-1.132v-5.888h-2.684v-1.107h2.684v-4.009h1.132v4.009h2.6Z"/><path class="cls-7" d="M474.146,202.582H471.5v1.975h-1.155v-1.975h-2.987c-.312.758-1.13,1.481-3.021,2a4.111,4.111,0,0,0-.71-.83,4.19,4.19,0,0,0,2.432-1.168h-2.6v-.9h2.949v-.915h-1.541v-4.5h1.265a6.742,6.742,0,0,0-.53-1h-.469a7.94,7.94,0,0,1-1.06,1.24,6.264,6.264,0,0,0-.9-.626,6.6,6.6,0,0,0,1.806-2.42l1.036.277c-.1.217-.205.41-.314.626h2.913v.879a5.463,5.463,0,0,0,1.1-1.782l1.084.241a6.27,6.27,0,0,1-.3.662h3.587v.9h-2.046a6.809,6.809,0,0,1,.482.662l-.735.338h1.156v4.5H471.5v.915h2.648ZM466,197.537h5.755v-.565H466Zm0,1.252h5.755v-.59H466Zm0,1.276h5.755v-.6H466Zm.747-4.8a6.5,6.5,0,0,1,.4.722l-.758.278h2.5a6.146,6.146,0,0,0-.867-.47,2.942,2.942,0,0,0,.566-.53Zm3.6,6.417v-.915h-2.806v.915Zm-.409-6.417a5.968,5.968,0,0,1-.843,1H471.5a6.573,6.573,0,0,0-.722-1Z"/><path class="cls-7" d="M485.584,200.933a6.569,6.569,0,0,1-1.385,1.9c.3.518.651.794,1.035.794.326,0,.447-.265.506-1.275a2.649,2.649,0,0,0,.747.493c-.169,1.348-.482,1.733-1.324,1.733a2.012,2.012,0,0,1-1.7-1.119,8.85,8.85,0,0,1-1.962,1.1,4.652,4.652,0,0,0-.6-.723,7.335,7.335,0,0,0,2.156-1.2,10.848,10.848,0,0,1-.6-2.143h-1.638c-.024.2-.047.4-.072.59a11.319,11.319,0,0,1,1.541,1.132l-.59.77a11.044,11.044,0,0,0-1.143-.939,4.221,4.221,0,0,1-1.577,2.5,2.579,2.579,0,0,0-.662-.734,4.219,4.219,0,0,0,1.5-3.323h-.806v-.6l-.409.578c-.145-.373-.446-1.024-.735-1.589v5.683h-1.012v-5.07a12.058,12.058,0,0,1-1.155,2.842,6.434,6.434,0,0,0-.517-.939,14.157,14.157,0,0,0,1.576-4.31h-1.324v-1.023h1.42v-2.54h1.012v2.54h1.192v1.023h-1.192v.518c.3.433,1,1.577,1.239,2h3.2a45.759,45.759,0,0,1-.362-6.068h.988c-.013.7,0,1.385.011,2.047l.386-.53c.084.06.156.121.24.181a12.871,12.871,0,0,0,.675-1.614l.866.326c-.337.589-.7,1.264-.987,1.746a4.593,4.593,0,0,1,.422.445c.264-.458.506-.9.685-1.288l.8.373c-.493.818-1.107,1.782-1.661,2.528l1.024-.072c-.085-.2-.169-.409-.265-.59l.649-.265a6.252,6.252,0,0,1,.687,1.758l-.687.313a4.45,4.45,0,0,0-.12-.482c-.422.048-.831.084-1.216.133a5.767,5.767,0,0,1,1.12.818l-.253.241h.964v.891h-2.842a10.78,10.78,0,0,0,.373,1.42,5.692,5.692,0,0,0,.843-1.324Zm-6.309-2.974c.253-.325.506-.711.771-1.12a8.356,8.356,0,0,0-1.24-1.18l.445-.614c.085.06.157.121.241.193a17.056,17.056,0,0,0,.674-1.626l.855.338c-.325.59-.674,1.264-.975,1.745.156.145.3.3.422.434.264-.458.5-.9.685-1.288l.795.373c-.517.867-1.168,1.89-1.758,2.684l.927-.059c-.072-.23-.168-.458-.253-.663l.651-.229a6.313,6.313,0,0,1,.614,1.758l-.7.289a3.31,3.31,0,0,0-.084-.4c-.831.1-1.614.18-2.325.241l-.156-.856Zm4.178-.156c.217-.278.445-.615.674-.964a8.783,8.783,0,0,0-1.168-1.132,32.288,32.288,0,0,0,.313,3.889h1.361a6.331,6.331,0,0,0-.807-.59l.506-.469-1.084.12-.168-.831Z"/><path class="cls-7" d="M491.855,204.268l-1.023-.964c2.252-.83,3.312-1.866,3.312-5.056v-.481h-3.179v1.805a10.761,10.761,0,0,0,.06,1.168h-1.337c.013-.169.061-.662.061-1.168v-1.805h-1.18c-.566,0-1.059.023-1.252.047V196.5a7.487,7.487,0,0,0,1.252.1h1.18v-1.385a6.615,6.615,0,0,0-.072-.963h1.36a6.506,6.506,0,0,0-.072.963V196.6h3.179v-1.4a8.308,8.308,0,0,0-.061-1.048h1.36a7.9,7.9,0,0,0-.072,1.048v1.4H496.5a7.844,7.844,0,0,0,1.2-.073V197.8c-.192-.025-.614-.036-1.192-.036h-1.144v.409C495.371,201.281,494.673,203,491.855,204.268Z"/><path class="cls-7" d="M503.906,196.911a14.839,14.839,0,0,0,3.347-2.865l1.012.963a20.282,20.282,0,0,1-3.239,2.637v5a9.086,9.086,0,0,0,.084,1.421h-1.493a14,14,0,0,0,.072-1.421v-4.19a24.5,24.5,0,0,1-4.442,1.866l-.59-1.191A19.867,19.867,0,0,0,503.906,196.911Z"/><path class="cls-7" d="M510.948,195.72a8.634,8.634,0,0,0-.108-1.349h1.481c-.036.4-.1.915-.1,1.349V197.6a39.123,39.123,0,0,1,5.092,1.925l-.53,1.3a33.612,33.612,0,0,0-4.562-1.866c.011,1.661.011,3.323.011,3.72,0,.374.036,1.108.085,1.541h-1.468a13,13,0,0,0,.095-1.541Zm5.563.926-.843.374a10.966,10.966,0,0,0-1.06-1.842l.807-.35A15.1,15.1,0,0,1,516.511,196.646Zm1.552-.673-.831.409a11.858,11.858,0,0,0-1.107-1.806l.807-.374A17.954,17.954,0,0,1,518.063,195.973Z"/></g><g class="cls-2"><path class="cls-7" d="M422.813,49.222h7.21a10.946,10.946,0,0,0,1.1-.06v1.155c-.361-.036-.77-.06-1.1-.06h-7.21c-.434,0-.856.036-1.265.06V49.162C421.957,49.186,422.379,49.222,422.813,49.222Zm.962-5.972h5.153a11.875,11.875,0,0,0,1.192-.048v1.084c-.337-.024-.8-.036-1.192-.036h-5.153c-.421,0-.818.023-1.192.036V43.2C422.969,43.227,423.378,43.25,423.775,43.25Z"/><path class="cls-7" d="M439.715,45.683c-.1.818-.446,3.2-.614,4.309h1.179c.265,0,.7-.012.951-.036v.976c-.216-.013-.662-.025-.915-.025h-6.6c-.373,0-.651.012-1,.036v-1c.289.025.637.048,1,.048h4.358c.181-1.011.529-3.358.566-4.045h-3.829c-.349,0-.662.025-.962.036V44.972a8.228,8.228,0,0,0,.951.072h3.659a2.07,2.07,0,0,0,.6-.084l.735.35A2.65,2.65,0,0,0,439.715,45.683Z"/><path class="cls-7" d="M444.879,45.887h6.6c.6,0,1.035-.036,1.3-.06v1.18c-.24-.013-.746-.061-1.288-.061h-6.609c-.662,0-1.3.025-1.674.061v-1.18C443.566,45.851,444.205,45.887,444.879,45.887Z"/><path class="cls-7" d="M463.454,45.6a8.3,8.3,0,0,1-1.758,3.42,8.724,8.724,0,0,1-4.31,2.515l-.746-.854a8.034,8.034,0,0,0,4.238-2.2,6.163,6.163,0,0,0,1.433-2.662h-6.394c-.288,0-.746.013-1.18.037V44.84a11.444,11.444,0,0,0,1.18.072h6.345a1.583,1.583,0,0,0,.662-.1l.686.434A2.1,2.1,0,0,0,463.454,45.6Zm-6.55-3.467h4.732a7.369,7.369,0,0,0,1.095-.061v1c-.289-.024-.7-.036-1.107-.036H456.9c-.373,0-.758.012-1.083.036v-1A7.405,7.405,0,0,0,456.9,42.131Z"/><path class="cls-7" d="M466.645,47.765a21.55,21.55,0,0,0,.361-4.839,4.364,4.364,0,0,0-.085-.879h1.107c-.011.144-.059.505-.059.866a26.341,26.341,0,0,1-.373,5.117,6.734,6.734,0,0,1-2.144,3.311l-.9-.614A5.72,5.72,0,0,0,466.645,47.765Zm3.5,2.347V42.9a5.573,5.573,0,0,0-.072-.89h1.108a7.439,7.439,0,0,0-.048.89v6.947a9.251,9.251,0,0,0,3.515-2.961l.566.818a11.958,11.958,0,0,1-4.106,3.335,2.636,2.636,0,0,0-.409.276l-.638-.529A2.87,2.87,0,0,0,470.147,50.112Z"/><path class="cls-7" d="M481.957,42.456v.771h1.987a2.9,2.9,0,0,0,.758-.073l.626.6c-.217.228-.481.506-.674.723a14.779,14.779,0,0,1-2.72,2.5c0,.988-.013,2.432-.013,3.239,0,.422.036.951.06,1.325h-1.095c.036-.35.072-.9.072-1.325,0-.7.013-1.806.013-2.624a19.216,19.216,0,0,1-4.07,1.674l-.578-.892a15.007,15.007,0,0,0,4.876-2.047,10.087,10.087,0,0,0,2.444-2.2h-5c-.42,0-1.107.024-1.48.049V43.166c.385.048,1.06.061,1.457.061h2.359v-.771a7.084,7.084,0,0,0-.06-1.06h1.107A7.124,7.124,0,0,0,481.957,42.456Zm1.036,5.116.626-.71a27.616,27.616,0,0,1,2.9,1.745l-.626.82A21.2,21.2,0,0,0,482.993,47.572Z"/><path class="cls-7" d="M489.938,47.428l-.915.337a21.38,21.38,0,0,0-1.071-2.708l.891-.35C489.084,45.225,489.71,46.8,489.938,47.428Zm5.875-2.046a9.426,9.426,0,0,1-1.709,3.7,9.161,9.161,0,0,1-3.924,2.865l-.8-.806a8.1,8.1,0,0,0,3.913-2.565,8.263,8.263,0,0,0,1.661-4.117l1.035.325C495.91,45.032,495.862,45.225,495.813,45.382Zm-3.226,1.324-.891.313a22.766,22.766,0,0,0-.938-2.613l.878-.3C491.841,44.587,492.431,46.176,492.587,46.706Z"/><path class="cls-7" d="M498.884,42.974a7.626,7.626,0,0,0-.1-1.252h1.18c-.036.373-.084.89-.084,1.252v1.962a38.4,38.4,0,0,1,5.14,1.987l-.409,1.022a31.548,31.548,0,0,0-4.731-1.937c.012,1.8.012,3.623.012,3.972,0,.374.024,1.024.072,1.421H498.8a10.634,10.634,0,0,0,.085-1.421Z"/><path class="cls-7" d="M515.8,43.575a11.559,11.559,0,0,1-1.336,4.491,8.478,8.478,0,0,1-4.564,3.395l-.818-.83a7.647,7.647,0,0,0,4.479-3.059,9.263,9.263,0,0,0,1.143-4.033h-6.645v2.408c0,.181.012.482.036.771H507a6.177,6.177,0,0,0,.049-.771V43.383a5.95,5.95,0,0,0-.049-.807c.325.025.771.036,1.288.036h6.177a3.608,3.608,0,0,0,.758-.072l.734.47A4.954,4.954,0,0,0,515.8,43.575Z"/><path class="cls-7" d="M519.409,45.887h6.6c.6,0,1.035-.036,1.3-.06v1.18c-.241-.013-.746-.061-1.288-.061h-6.61c-.662,0-1.3.025-1.674.061v-1.18C518.1,45.851,518.735,45.887,519.409,45.887Z"/><path class="cls-7" d="M534.036,42.637a5.656,5.656,0,0,1-.289.505h3.263a2,2,0,0,0,.782-.121l.807.495a3.785,3.785,0,0,0-.277.637,11.692,11.692,0,0,1-2.143,4.142,10.56,10.56,0,0,1-4.791,3.274l-.867-.782a9.736,9.736,0,0,0,4.8-3.022,9.906,9.906,0,0,0,1.926-3.756h-4.069a12.194,12.194,0,0,1-3.058,2.962l-.831-.626a9.937,9.937,0,0,0,3.781-4.07,4.136,4.136,0,0,0,.373-.951l1.119.362A9.094,9.094,0,0,0,534.036,42.637Z"/></g><line class="cls-8" x1="128.347" y1="185.481" x2="402.205" y2="185.481"/><polygon class="cls-7" points="131.755 190.478 113.109 185.481 131.755 180.483 131.755 190.478"/><polygon class="cls-7" points="398.797 190.478 417.443 185.481 398.797 180.483 398.797 190.478"/><line class="cls-8" x1="442.307" y1="185.481" x2="527.4" y2="185.481"/><polygon class="cls-7" points="445.715 190.478 427.069 185.481 445.715 180.483 445.715 190.478"/><polygon class="cls-7" points="523.992 190.478 542.638 185.481 523.992 180.483 523.992 190.478"/><path class="cls-7" d="M381.528,13.485v.941H370.053v-.941h1.754V7.451h.966v6.034h2.837V5.091h-5.067V4.163H381.1v.928H376.59v3.43h4.023v.941H376.59v4.023Z"/><path class="cls-7" d="M385.493,5.259c-.064,1.457-.154,4.5-.154,6.421,0,1.419.89,1.921,2.114,1.921a5.371,5.371,0,0,0,4.616-2.669l.735.877a6.48,6.48,0,0,1-5.389,2.849c-1.857,0-3.134-.773-3.134-2.875,0-1.908.129-5.171.129-6.524a6.85,6.85,0,0,0-.1-1.316l1.3.014A11.2,11.2,0,0,0,385.493,5.259Z"/><path class="cls-7" d="M399.54,5.22c-.877.774-2.733,2.244-3.687,3.043-.774.658-.788.864.039,1.56,1.172.954,3.455,2.8,4.821,4.165l-.915.851c-.271-.31-.568-.632-.89-.942-.9-.928-2.862-2.6-4.061-3.6-1.225-1.019-1.071-1.572.09-2.553.967-.812,2.927-2.359,3.8-3.249a6.134,6.134,0,0,0,.736-.864l.954.851C400.159,4.7,399.759,5.04,399.54,5.22Z"/><path class="cls-7" d="M407.1,6.136h-4.564V5.349H407.1Zm-.348,8.11H403.9v.593h-.812V10.52h3.662Zm-.013-6.395H403.1V7.09h3.636Zm-3.636.941h3.636v.773H403.1Zm3.6-4.358h-3.533V3.66H406.7Zm-2.8,6.872v2.166h2.025V11.306Zm2.94,2.527a5.2,5.2,0,0,0,1.018-2.823l.775.193a5.468,5.468,0,0,1-1.1,3.081Zm4.564-5.982a12.8,12.8,0,0,0-1.328-.826,5.065,5.065,0,0,1-2.347,2.334,3.073,3.073,0,0,0-.567-.671,4.374,4.374,0,0,0,2.141-2.049,15.993,15.993,0,0,0-1.676-.7l.476-.671c.478.156.994.375,1.509.594a8.66,8.66,0,0,0,.3-1.277h-2.166V3.763h6.15s0,.284-.013.4c-.116,3.029-.245,4.151-.568,4.525a.916.916,0,0,1-.76.375,12.281,12.281,0,0,1-1.508-.013,2.1,2.1,0,0,0-.245-.864c.58.051,1.121.051,1.328.051s.335-.012.412-.129c.22-.232.335-1.134.438-3.52H410.8a10.479,10.479,0,0,1-.4,1.664,13.841,13.841,0,0,1,1.484.851Zm.181,6.188c.335,0,.4-.18.438-1.47a2.28,2.28,0,0,0,.8.374c-.091,1.547-.322,1.935-1.135,1.935H410.26c-.954,0-1.186-.259-1.186-1.213V10.571h.89v3.094c0,.323.051.374.425.374Zm-1.728-5.2a9.074,9.074,0,0,1,2.295,1.677l-.592.631a10.049,10.049,0,0,0-2.257-1.741Zm3.2,1.934a8.846,8.846,0,0,1,1.457,3.069l-.838.348a9.481,9.481,0,0,0-1.393-3.107Z"/><path class="cls-7" d="M419.383,6.136h-3.945V5.349h3.945Zm-.3,8.1h-2.4v.607h-.761V10.52h3.159Zm-.013-6.381h-3.107V7.09h3.107Zm-3.107.941h3.107v.773h-3.107Zm3.081-4.358h-3.029V3.66h3.029Zm-2.359,6.872v2.153H418.3V11.306Zm10.07-1.986a10.7,10.7,0,0,1-1.418,2.966c.231,1.057.554,1.663.992,1.7.22.013.374-.658.451-1.715a3.054,3.054,0,0,0,.619.5c-.232,1.767-.657,2.27-1.095,2.257-.761-.039-1.264-.721-1.6-1.921a9.264,9.264,0,0,1-2.1,1.818,3.455,3.455,0,0,0-.541-.541,7.474,7.474,0,0,0,1.277-.954h-2.695v.7h-.76V9.166h3.532v4.19a8.875,8.875,0,0,0,1.083-1.212,30.385,30.385,0,0,1-.348-3.778H419.2v-.8h4.912c-.038-1.314-.051-2.758-.064-4.332h.838c-.013,1.586,0,3.043.039,4.332h2.178v.8h-2.153c.039,1.031.1,1.96.207,2.734a10.8,10.8,0,0,0,.863-2.166ZM423.74,5.375h-4.19V4.614h1.677V3.222h.889V4.614h1.624Zm-3.313,2.141a6.6,6.6,0,0,0-.362-1.87l.7-.155a6.516,6.516,0,0,1,.4,1.857Zm.219,2.359v1.057h1.959V9.875Zm1.959,2.85v-1.1h-1.959v1.1Zm-.58-5.352a13.254,13.254,0,0,0,.439-1.946l.825.167c-.206.671-.4,1.444-.58,1.934Zm4.411-.954a8.013,8.013,0,0,0-1.277-2.308l.722-.3a8.264,8.264,0,0,1,1.341,2.257Z"/><path class="cls-7" d="M429.511,5.452c.838-.09,3.275-.335,5.647-.528,1.4-.116,2.617-.194,3.482-.233V5.723a10.772,10.772,0,0,0-2.528.207,4.535,4.535,0,0,0-2.952,4.087c0,2.514,2.347,3.313,4.448,3.39l-.374,1.071c-2.385-.09-5.106-1.367-5.106-4.243a5.24,5.24,0,0,1,2.411-4.357c-1.379.154-4.667.464-6.06.761l-.116-1.122C428.854,5.5,429.266,5.478,429.511,5.452ZM437.84,9.1l-.657.308a12,12,0,0,0-1.058-1.817l.658-.284A15.33,15.33,0,0,1,437.84,9.1Zm1.47-.555-.67.322a12.077,12.077,0,0,0-1.083-1.806l.631-.295A16.621,16.621,0,0,1,439.31,8.547Z"/><path class="cls-7" d="M445.221,3.854l1.1-.142a9.742,9.742,0,0,0,.309,1.534,14.338,14.338,0,0,0,2.644-.58l.141.928a18.473,18.473,0,0,1-2.54.515c.091.324.193.62.284.89.09.245.194.517.3.774a14.192,14.192,0,0,0,2.579-.554l.155.967a19.866,19.866,0,0,1-2.333.463,12.716,12.716,0,0,0,.9,1.6,3.959,3.959,0,0,0,.476.554l-.528.787a23.709,23.709,0,0,0-2.823-.413l.09-.786c.683.077,1.521.168,1.934.218A13.573,13.573,0,0,1,446.9,8.753a37.346,37.346,0,0,1-5.673.025l-.051-.966a28.91,28.91,0,0,0,5.35.064c-.09-.231-.18-.451-.257-.67q-.194-.542-.349-1.006a30.8,30.8,0,0,1-4.436-.091l-.064-.94a25.832,25.832,0,0,0,4.255.154,2.978,2.978,0,0,1-.09-.322C445.479,4.614,445.35,4.215,445.221,3.854ZM442.5,12.041c0,1.07.954,1.6,2.979,1.6a14.567,14.567,0,0,0,3.069-.271l-.039,1.031a19.591,19.591,0,0,1-3.017.219c-2.527,0-3.946-.747-3.959-2.4a3.758,3.758,0,0,1,.5-1.844l1.006.206A2.5,2.5,0,0,0,442.5,12.041Z"/><path class="cls-7" d="M454.111,4.55c.67,0,3.74-.1,4.422-.168a3.07,3.07,0,0,0,.7-.1l.594.747c-.232.168-.49.336-.722.53-.645.489-2.4,1.985-3.4,2.823a5.463,5.463,0,0,1,1.792-.271c2.141,0,3.675,1.289,3.675,3.031,0,2.075-1.7,3.416-4.435,3.416-1.754,0-2.824-.761-2.824-1.83a1.811,1.811,0,0,1,1.986-1.677,2.5,2.5,0,0,1,2.63,2.282,2.265,2.265,0,0,0,1.612-2.2c0-1.263-1.212-2.217-2.889-2.217-2.153,0-3.3.915-4.938,2.578l-.735-.76c1.071-.877,2.721-2.256,3.468-2.888.723-.594,2.334-1.947,2.992-2.527-.683.025-3.262.141-3.946.18-.283.013-.58.038-.851.077L453.2,4.5A7.649,7.649,0,0,0,454.111,4.55Zm2.45,9.1a6.563,6.563,0,0,0,1.044-.077,1.759,1.759,0,0,0-1.727-1.754.942.942,0,0,0-1.032.825C454.846,13.266,455.556,13.652,456.561,13.652Z"/><path class="cls-7" d="M468.441,5.155c-.012.349,0,.813,0,1.316,1.02-.026,2.657-.09,3.818-.233l.038.968c-1.148.116-2.8.193-3.856.206v.1c0,.85.065,2.1.13,3.222a10.226,10.226,0,0,1,4.01,2.193l-.619.979a9.14,9.14,0,0,0-3.353-2.139c.013.334.027.631.027.863,0,1.057-.646,1.96-2.361,1.96-1.779,0-3.093-.568-3.093-2.037,0-1.161,1.018-2.115,3.249-2.115a7.619,7.619,0,0,1,1.1.078c-.051-1.045-.1-2.231-.1-3,0-.748,0-1.806-.013-2.361a6.537,6.537,0,0,0-.1-1.276h1.224C468.493,4.15,468.455,4.769,468.441,5.155Zm-2.268,8.472c.941,0,1.4-.439,1.4-1.328,0-.206-.013-.49-.013-.825a5.937,5.937,0,0,0-1.263-.129c-1.328,0-2.089.464-2.089,1.173S464.935,13.627,466.173,13.627Z"/><path class="cls-7" d="M479.666,7.851a12.085,12.085,0,0,0-3.52.644c-.4.129-.774.271-1.083.4l-.335-1.2a7.91,7.91,0,0,0,1.185-.193,17.093,17.093,0,0,1,3.856-.618c1.831,0,3.2,1.018,3.2,2.862,0,2.8-2.515,4.371-5.855,4.873l-.58-.979c3.134-.387,5.338-1.625,5.338-3.933A1.952,1.952,0,0,0,479.666,7.851ZM481.935,4.5l-.155.993c-1.431-.091-4.036-.348-5.493-.606l.168-.98A34.759,34.759,0,0,0,481.935,4.5Z"/><path class="cls-7" d="M487.331,5.169a29.922,29.922,0,0,0-.644,4.937,14.221,14.221,0,0,0,.116,1.806c.218-.58.528-1.353.748-1.883l.541.413a26.378,26.378,0,0,0-.915,2.888,2.524,2.524,0,0,0-.065.58c.013.143.026.322.038.451l-.927.065a16.218,16.218,0,0,1-.478-4.139,36.393,36.393,0,0,1,.58-5.17,5.606,5.606,0,0,0,.091-.916l1.147.1C487.5,4.523,487.383,4.937,487.331,5.169Zm3,6.562c0,.593.426,1.161,2.18,1.161a14.224,14.224,0,0,0,3.2-.335l.026,1.083a17.54,17.54,0,0,1-3.223.27c-2.166,0-3.134-.722-3.134-1.933a6.928,6.928,0,0,1,.22-1.522l.928.09A4.509,4.509,0,0,0,490.335,11.731Zm4.99-6.447V6.329a30.446,30.446,0,0,1-5.3,0V5.3A22.081,22.081,0,0,0,495.325,5.284Z"/><path class="cls-7" d="M496.866,11.848l.838-.736a24.231,24.231,0,0,1,2.888,2.863l-.877.748A21.477,21.477,0,0,0,496.866,11.848Z"/><path class="cls-7" d="M508.512,4.369c-.051.271-.1.607-.155.98a25.8,25.8,0,0,0,4.526-.554l.013.954a41.231,41.231,0,0,1-4.642.489c-.065.5-.1,1.045-.142,1.586a8.265,8.265,0,0,1,2.166-.322c.168,0,.323,0,.478.014.013-.039.025-.078.038-.129a3.628,3.628,0,0,0,.143-.748l1.018.257c-.078.181-.193.529-.258.735,0,.014-.013.026-.013.052a3.152,3.152,0,0,1,2.566,3.03c0,1.856-1.225,3.455-4.217,3.933l-.554-.865c2.334-.245,3.778-1.443,3.778-3.12a2.332,2.332,0,0,0-1.857-2.2,10.723,10.723,0,0,1-2.875,4.19q.154.563.31,1.045l-.929.284c-.077-.219-.141-.464-.206-.722a4.436,4.436,0,0,1-2.192.709,1.458,1.458,0,0,1-1.522-1.624c0-1.664,1.445-3.353,3.224-4.178.025-.644.09-1.29.142-1.9-.271.012-.529.012-.787.012-.554,0-1.56-.051-2.088-.089l-.027-.968a17.685,17.685,0,0,0,2.128.168c.3,0,.58,0,.877-.013.038-.374.077-.709.1-.993a5.579,5.579,0,0,0,.026-.619l1.083.026A4.372,4.372,0,0,0,508.512,4.369Zm-2.811,8.6a3.228,3.228,0,0,0,1.779-.683,15.7,15.7,0,0,1-.309-2.927V9.127a4.067,4.067,0,0,0-2.2,3.043C504.967,12.7,505.211,12.969,505.7,12.969Zm2.592-1.354a8.543,8.543,0,0,0,2.192-3.3h-.219a6.283,6.283,0,0,0-2.179.414c-.013.18-.013.347-.013.528A13.821,13.821,0,0,0,508.293,11.615Z"/><path class="cls-7" d="M517.789,9.862a6.184,6.184,0,0,1,4.2-1.573c1.973,0,3.288,1.186,3.288,2.694,0,2.309-2.037,3.869-6.834,3.469l-.308-1.057c4.074.5,6.059-.67,6.059-2.437,0-1.031-.954-1.767-2.269-1.767a5.053,5.053,0,0,0-4,1.728,2.029,2.029,0,0,0-.387.644l-.954-.231a46.171,46.171,0,0,0,.658-5.235l1.083.141C518.15,7.115,517.931,9.037,517.789,9.862ZM523.6,4.885l-.245.993c-1.225-.168-4.023-.735-5-1.006l.258-.98A35.269,35.269,0,0,0,523.6,4.885Z"/><path class="cls-7" d="M531.76,4.7c-.078.374-.195,1.135-.336,1.844.606-.051,1.147-.09,1.457-.09,1.147,0,2.089.438,2.089,2.179a12.244,12.244,0,0,1-.748,4.655,1.816,1.816,0,0,1-1.882,1.083,7.082,7.082,0,0,1-1.522-.193l-.168-1.071a6.307,6.307,0,0,0,1.586.258,1.064,1.064,0,0,0,1.122-.658,10.909,10.909,0,0,0,.619-3.945c0-1.186-.554-1.406-1.367-1.406-.309,0-.825.039-1.392.091A26.53,26.53,0,0,1,528.51,14.4l-1.057-.412a20.664,20.664,0,0,0,2.721-6.434c-.684.064-1.3.141-1.638.18-.3.039-.825.1-1.161.155l-.1-1.121c.4.025.735.012,1.148,0s1.186-.078,1.96-.142a13.505,13.505,0,0,0,.335-2.812l1.2.129C531.862,4.176,531.811,4.459,531.76,4.7Zm6.949,5.223L537.7,10.4a15.156,15.156,0,0,0-2.295-4.667l.942-.425A22.95,22.95,0,0,1,538.709,9.927Z"/><path class="cls-7" d="M542.235,5.349c-.051,1.444-.155,4.5-.155,6.422,0,1.417.89,1.92,2.114,1.92a5.354,5.354,0,0,0,4.617-2.669l.735.877a6.475,6.475,0,0,1-5.377,2.85c-1.856,0-3.147-.774-3.147-2.876,0-1.908.143-5.183.143-6.524a6.77,6.77,0,0,0-.116-1.315l1.3.013A11.025,11.025,0,0,0,542.235,5.349Zm4.925,1.8L546.4,7.5a15.887,15.887,0,0,0-1.211-2.089l.735-.309A20.935,20.935,0,0,1,547.16,7.154Zm1.7-.7-.748.361a13.416,13.416,0,0,0-1.25-2.037l.722-.336A17.365,17.365,0,0,1,548.862,6.458Z"/><path class="cls-7" d="M558.771,5.026c-.065.285-.129.581-.207.89a4.018,4.018,0,0,1,3.482,4.14c0,2.565-1.844,4.126-4.6,4.512l-.606-.916c2.694-.231,4.19-1.65,4.19-3.635a3.131,3.131,0,0,0-2.708-3.224,16.707,16.707,0,0,1-1.881,4.384,7.875,7.875,0,0,0,.8.9l-.812.671a9.123,9.123,0,0,1-.606-.748,3.493,3.493,0,0,1-2.552,1.612c-.981,0-1.793-.812-1.793-2.321a5.4,5.4,0,0,1,1.986-4c-.142-.4-.271-.8-.387-1.187a8.68,8.68,0,0,0-.426-1.16l1.071-.347c.064.36.167.786.258,1.147.077.3.193.645.309,1.006a6.5,6.5,0,0,1,3.314-.916c.077-.322.154-.632.206-.942a7.653,7.653,0,0,0,.077-.979l1.109.1C558.9,4.344,558.822,4.782,558.771,5.026Zm-5.4,7.57c.632,0,1.316-.646,1.883-1.407-.1-.154-.193-.322-.3-.489a14.6,14.6,0,0,1-1.16-2.475,4.378,4.378,0,0,0-1.393,2.991C552.4,12.066,552.788,12.6,553.368,12.6Zm2.476-2.283a16.7,16.7,0,0,0,1.509-3.584,5.733,5.733,0,0,0-2.773.889,14.58,14.58,0,0,0,1.006,2.27C555.663,10.029,555.754,10.171,555.844,10.313Z"/><path class="cls-7" d="M575.218,11.332h-5.2v2.514c0,.567-.154.851-.618.993a9.649,9.649,0,0,1-2.373.154,4.137,4.137,0,0,0-.4-.915c.979.026,1.856.026,2.1.013.271-.013.335-.077.335-.271V11.332H563.91v-.89h5.157V9.514h.491a10.854,10.854,0,0,0,1.818-1.135h-5.325V7.528h6.292l.193-.051.619.463a11.52,11.52,0,0,1-3.134,2.18v.322h5.2ZM565.07,8.2h-.915V5.349h1.973a10.728,10.728,0,0,0-1.083-1.612l.8-.361a8.649,8.649,0,0,1,1.238,1.754l-.438.219h2.63a7.6,7.6,0,0,0-.955-1.882l.839-.31A7.934,7.934,0,0,1,570.2,5.13l-.555.219h2.283a13.981,13.981,0,0,0,1.38-2.05l.993.335c-.4.581-.877,1.2-1.316,1.715h2V8.2h-.927v-2H565.07Z"/><path class="cls-7" d="M580.253,7.36c-1.135.491-2.3.967-3.224,1.328l-.373-.786c.876-.271,2.179-.748,3.455-1.251Zm.709-2.708h-4V3.866h4.887V8.108c0,.426-.1.645-.413.774A5.5,5.5,0,0,1,579.776,9a3.564,3.564,0,0,0-.245-.709c.568.013,1.083.013,1.238,0s.193-.052.193-.193Zm-2.952.117A7.119,7.119,0,0,1,579.7,5.98l-.515.62a6.626,6.626,0,0,0-1.676-1.264Zm4.912,3.907c-.181.347-.374.709-.554,1.018h4.2V15.02H585.6v-.5h-6.253v.5h-.942V9.694h3.018a11.321,11.321,0,0,0,.5-1.212Zm2.682,1.766h-6.253v1.25H585.6Zm0,3.314v-1.3h-6.253v1.3Zm-3.236-6.1c.928-.3,2.281-.773,3.623-1.251l.142.709c-1.187.451-2.438.916-3.417,1.277Zm5.222.451c0,.452-.1.67-.439.813a5.883,5.883,0,0,1-1.741.129,2.794,2.794,0,0,0-.27-.761c.606.025,1.16.025,1.34.025.156-.012.208-.051.208-.206V4.652h-4.024V3.866h4.926Zm-2.875-1.534a6.164,6.164,0,0,0-1.7-1.225l.5-.58a7.134,7.134,0,0,1,1.727,1.173Z"/><path class="cls-7" d="M594.855,3.854l1.1-.142a15.365,15.365,0,0,0,.593,2.2,16.514,16.514,0,0,0,2.875-.632l.116,1.006a19.157,19.157,0,0,1-2.669.529,13.664,13.664,0,0,0,1.445,2.656c.18.245.374.464.567.683l-.529.723a28.955,28.955,0,0,0-3.108-.349l.078-.864c.722.065,1.676.143,2.14.194a17.268,17.268,0,0,1-1.56-2.94,33.188,33.188,0,0,1-5.415-.026l-.026-1.031a26.962,26.962,0,0,0,5.093.155c-.155-.478-.283-.865-.374-1.161C595.088,4.588,594.972,4.188,594.855,3.854Zm-3.016,7.917c0,1.224,1.121,1.765,3.03,1.779a14.377,14.377,0,0,0,3.326-.322l-.051,1.031a18.82,18.82,0,0,1-3.327.283c-2.45-.013-4-.9-4-2.656a5.028,5.028,0,0,1,.619-2.14l1,.232A3.322,3.322,0,0,0,591.839,11.771Z"/><path class="cls-7" d="M609.83,4.988c-.013.593-.013,1.238-.025,1.8.515-.038,1.006-.064,1.43-.09.336-.026.7-.052,1.006-.064V7.645c-.206-.014-.7,0-1.018,0-.387.012-.877.038-1.445.077a19.141,19.141,0,0,1-.179,2.694c-.117.567-.4.735-.994.735a12.9,12.9,0,0,1-1.7-.18l.027-.89a6.6,6.6,0,0,0,1.289.168c.309,0,.451-.052.49-.349.064-.425.115-1.3.142-2.114-1.329.1-2.837.258-4.126.387-.013,1.328-.013,2.669,0,3.172.038,1.392.064,1.883,2.295,1.883a24.581,24.581,0,0,0,3.829-.31l-.038,1.1c-.865.09-2.438.206-3.74.206-2.978,0-3.262-.684-3.327-2.734-.013-.554-.013-1.921-.013-3.21-.567.065-1.043.116-1.379.155-.4.051-.955.129-1.3.18l-.116-1.057a12.7,12.7,0,0,0,1.34-.077c.323-.026.838-.078,1.457-.129.013-.865.013-1.574.013-1.792a7.77,7.77,0,0,0-.077-1.1h1.122c-.026.3-.052.645-.052,1.045,0,.426,0,1.058-.012,1.74,1.263-.116,2.758-.258,4.138-.374V5.026a7.233,7.233,0,0,0-.064-.966h1.1C609.856,4.279,609.843,4.717,609.83,4.988Z"/><path class="cls-7" d="M614.518,5.375c.838-.091,3.275-.335,5.647-.528,1.405-.13,2.618-.2,3.481-.233V5.646a10.773,10.773,0,0,0-2.527.206,4.534,4.534,0,0,0-2.952,4.075c0,2.526,2.347,3.326,4.448,3.4l-.374,1.07c-2.386-.089-5.105-1.366-5.105-4.242A5.234,5.234,0,0,1,619.547,5.8c-1.38.154-4.668.464-6.061.761l-.116-1.123C613.86,5.427,614.272,5.4,614.518,5.375Z"/><path class="cls-7" d="M629.223,4.588c-.013.309-.039.812-.052,1.392a17.106,17.106,0,0,0,2.656-.515l.026,1.006a23.722,23.722,0,0,1-2.707.451c-.013.606-.027,1.225-.027,1.741v.451a9.774,9.774,0,0,1,2.837-.477c1.883,0,3.236,1.018,3.236,2.566s-.979,2.553-2.746,2.979a9.66,9.66,0,0,1-1.6.179l-.362-1.044A6.656,6.656,0,0,0,632,13.228c1.135-.22,2.166-.826,2.166-2.012,0-1.1-.993-1.69-2.218-1.69a8.453,8.453,0,0,0-2.81.5c.025,1.1.051,2.244.051,2.8,0,1.2-.438,1.586-1.134,1.586-1.006,0-2.683-.992-2.683-2.14,0-1.07,1.341-2.192,2.824-2.824V8.714c0-.516,0-1.121.013-1.689-.361.026-.683.038-.954.038A14.075,14.075,0,0,1,625.6,7l-.026-.979a12.127,12.127,0,0,0,1.651.1c.3,0,.631-.014.992-.039,0-.671.012-1.237.012-1.47a6.766,6.766,0,0,0-.064-.916h1.148A8.02,8.02,0,0,0,629.223,4.588Zm-1.445,8.729c.3,0,.478-.206.478-.631,0-.464-.027-1.341-.039-2.283-1.057.491-1.844,1.239-1.844,1.819S627.275,13.317,627.778,13.317Zm8.485-6.3-.529.825A16.315,16.315,0,0,0,632.846,5.9l.464-.773A23.393,23.393,0,0,1,636.263,7.013Z"/><path class="cls-7" d="M642.161,3.854l1.1-.142a9.852,9.852,0,0,0,.308,1.534,14.32,14.32,0,0,0,2.644-.58l.142.928a18.535,18.535,0,0,1-2.54.515c.09.324.193.62.284.89.09.245.193.517.3.774a14.231,14.231,0,0,0,2.579-.554l.154.967a19.824,19.824,0,0,1-2.333.463,12.842,12.842,0,0,0,.9,1.6,3.9,3.9,0,0,0,.477.554l-.528.787a23.727,23.727,0,0,0-2.824-.413l.09-.786c.684.077,1.522.168,1.935.218a13.359,13.359,0,0,1-1.006-1.856,37.36,37.36,0,0,1-5.674.025l-.052-.966a28.932,28.932,0,0,0,5.352.064c-.091-.231-.181-.451-.258-.67q-.193-.542-.349-1.006a30.784,30.784,0,0,1-4.435-.091l-.065-.94a25.832,25.832,0,0,0,4.255.154,3.226,3.226,0,0,1-.09-.322C642.419,4.614,642.29,4.215,642.161,3.854Zm-2.721,8.187c0,1.07.955,1.6,2.979,1.6a14.561,14.561,0,0,0,3.069-.271l-.039,1.031a19.578,19.578,0,0,1-3.016.219c-2.528,0-3.947-.747-3.959-2.4a3.737,3.737,0,0,1,.5-1.844l1,.206A2.5,2.5,0,0,0,639.44,12.041Z"/><path class="cls-7" d="M654.88,4.627c0,.168-.013.451-.013.786a31.794,31.794,0,0,0,3.494-.348l-.012.942c-1.019.116-2.245.231-3.482.3V8.108a32.09,32.09,0,0,0,3.6-.348l-.014.968c-1.212.154-2.347.257-3.571.295.026.671.064,1.368.091,1.987a10.252,10.252,0,0,1,3.764,2.011l-.592.916a9.487,9.487,0,0,0-3.122-1.948c.014.323.027.593.027.8,0,.89-.594,1.8-2.27,1.8-1.856,0-2.862-.657-2.862-1.9,0-1.173,1.122-1.972,2.979-1.972a7.472,7.472,0,0,1,1.083.077c-.013-.58-.04-1.2-.052-1.753h-.735c-.877,0-2.3-.077-3.223-.181l-.013-.967a23.8,23.8,0,0,0,3.249.245h.7V6.342h-.567c-.9,0-2.488-.129-3.3-.219l-.012-.954a23.508,23.508,0,0,0,3.3.283h.593V4.537a6.768,6.768,0,0,0-.052-.774h1.1A6.6,6.6,0,0,0,654.88,4.627Zm-2.218,9.064c.735,0,1.367-.232,1.367-1.122,0-.218-.012-.528-.012-.863a5.687,5.687,0,0,0-1.251-.129c-1.225,0-1.9.477-1.9,1.069S651.386,13.691,652.662,13.691Z"/><path class="cls-7" d="M667.148,4.6c0,.193-.012.489-.012.837h.193c1.573,0,3.159.013,3.778.013l-.012.954c-.723-.039-1.9-.064-3.779-.064h-.18c0,.735.012,1.534.026,2.128a3.128,3.128,0,0,1,.412,1.65c0,1.74-.85,3.674-3.855,4.577l-.864-.851c1.715-.387,2.9-1.109,3.417-2.283a1.81,1.81,0,0,1-1.122.349,2.052,2.052,0,0,1-2.114-2.153,2.249,2.249,0,0,1,2.269-2.243,2.566,2.566,0,0,1,.864.141c0-.386,0-.851-.013-1.3-1.96.013-4.152.1-5.763.22l-.027-.993c1.432-.025,3.856-.1,5.778-.129,0-.361-.014-.67-.027-.85-.013-.336-.064-.71-.077-.813h1.173C667.188,3.931,667.162,4.434,667.148,4.6Zm-1.831,6.42c.761,0,1.251-.606,1.135-1.831a1.155,1.155,0,0,0-1.147-.812A1.314,1.314,0,0,0,664,9.746,1.241,1.241,0,0,0,665.317,11.022Z"/><path class="cls-7" d="M674.825,12.814a1.966,1.966,0,1,1-1.972-1.96A1.964,1.964,0,0,1,674.825,12.814Zm-.657,0a1.309,1.309,0,1,0-1.315,1.316A1.309,1.309,0,0,0,674.168,12.814Z"/><line class="cls-8" x1="365.551" y1="11.31" x2="339.786" y2="21.494"/><polygon class="cls-7" points="340.719 17.364 329.867 25.416 343.291 23.87 340.719 17.364"/><line class="cls-8" x1="479.471" y1="16.381" x2="479.452" y2="27.096"/><polygon class="cls-7" points="475.959 24.704 479.433 37.763 482.954 24.717 475.959 24.704"/><polygon class="cls-9" points="37.769 85.052 37.769 120.089 70.929 136.773 70.929 101.736 37.769 85.052"/><polygon class="cls-10" points="70.929 101.736 70.929 136.773 102.629 115.709 102.629 80.672 70.929 101.736"/><polygon class="cls-11" points="37.769 85.052 70.929 101.736 102.629 80.672 69.469 63.988 37.769 85.052"/><g class="cls-2"><path d="M63.719,148.548V152.3h-.712v-3.528c-.609.186-1.2.372-1.7.527l-.206-.733c.526-.144,1.186-.32,1.908-.547v-2.3h-.939a8.154,8.154,0,0,1-.454,1.527,3.718,3.718,0,0,0-.588-.341,12.082,12.082,0,0,0,.712-3.434l.671.113c-.052.464-.124.938-.2,1.393h.795v-2.094h.712v2.094h1.052v.742H63.719v2.1l1.2-.371.1.681Zm6.745-3.951s0,.3-.01.392c-.227,4.672-.454,6.272-.866,6.787a.888.888,0,0,1-.712.392,6.336,6.336,0,0,1-1.176,0,1.649,1.649,0,0,0-.217-.753c.465.041.877.052,1.083.052a.438.438,0,0,0,.382-.176c.33-.36.557-1.888.763-5.972h-.5c-.515,2.7-1.65,5.446-3.362,6.808a2.346,2.346,0,0,0-.64-.465c1.692-1.217,2.806-3.754,3.342-6.343H67.71a10.022,10.022,0,0,1-2.537,4.672,2.5,2.5,0,0,0-.609-.443,8.711,8.711,0,0,0,2.486-4.229h-.887a8.447,8.447,0,0,1-1.176,1.959,5.134,5.134,0,0,0-.588-.443,8.814,8.814,0,0,0,1.806-3.961l.7.145a14.9,14.9,0,0,1-.454,1.578Z"/><path d="M74.347,143.132a17.481,17.481,0,0,1-.918,2.177v6.972H72.7v-5.7a10.965,10.965,0,0,1-.876,1.187,5.737,5.737,0,0,0-.444-.753,11.984,11.984,0,0,0,2.259-4.1Zm3.889,2.558a10.262,10.262,0,0,0,2.785,4.332,2.708,2.708,0,0,0-.578.609,11.609,11.609,0,0,1-2.7-4.518v3.579H79.4v.7h-1.66v1.846H77v-1.846H75.316v-.7H77v-3.506a11.893,11.893,0,0,1-2.734,4.465,3.747,3.747,0,0,0-.556-.577,10.569,10.569,0,0,0,2.826-4.384H74.11v-.743H77v-2.032h.743v2.032h3.073v.743Z"/></g><polygon class="cls-12" points="111.663 69.493 117.758 67.052 116.269 65.886 122.078 58.466 119.869 56.736 114.06 64.156 112.57 62.99 111.663 69.493"/><polygon class="cls-12" points="104.338 63.757 110.433 61.317 108.943 60.151 114.753 52.73 112.544 51.001 106.734 58.421 105.245 57.255 104.338 63.757"/><polygon class="cls-12" points="97.012 58.022 103.108 55.581 101.618 54.415 107.428 46.995 105.219 45.265 99.409 52.685 97.92 51.519 97.012 58.022"/><g class="cls-2"><path d="M117.345,49.329a9.614,9.614,0,0,0,1.351-2.114l.722.206a11.554,11.554,0,0,1-1.34,2.238Zm1.238-2.31h-.722V40.624h2.981v5.869h-2.259Zm0-5.7v1.8h1.547v-1.8ZM120.13,45.8V43.79h-1.547V45.8Zm.97,1.63a13.34,13.34,0,0,1,.257,2.021l-.753.113a12.112,12.112,0,0,0-.216-2.052Zm2.661-6.138a2.949,2.949,0,0,1-2.372,2.548,2.189,2.189,0,0,0-.413-.577,2.4,2.4,0,0,0,2.032-1.971H121.3v-.681h5.064s-.01.2-.02.3c-.093,1.485-.186,2.095-.413,2.331a.772.772,0,0,1-.6.237,8.516,8.516,0,0,1-1.156-.009,1.591,1.591,0,0,0-.206-.629c.454.041.877.051,1.032.051a.4.4,0,0,0,.319-.093c.124-.134.207-.536.279-1.506Zm2.311,5.529H121.6V43.986h4.477Zm-.754-2.208h-3v1.569h3ZM123.3,47.339a11.625,11.625,0,0,1,.67,2.032l-.753.175a12.725,12.725,0,0,0-.629-2.063Zm2.063-.206a14.93,14.93,0,0,1,1.341,2.155l-.733.33a13.814,13.814,0,0,0-1.289-2.2Z"/><path d="M128.768,46.926v.949h-.723V40.819h3.363v6.107Zm0-5.415V43.46H130.7V41.511Zm1.929,4.7V44.162h-1.929v2.052Zm6.023,2.373c0,.484-.1.722-.433.856a6.5,6.5,0,0,1-1.774.134,2.63,2.63,0,0,0-.289-.743c.671.02,1.32.011,1.485.011.2-.011.269-.073.269-.258v-2.27h-3.043a5.26,5.26,0,0,1-1.919,3.353,2.978,2.978,0,0,0-.567-.526c1.733-1.331,1.908-3.27,1.908-4.869V40.624h4.363Zm-.742-2.971v-1.8H133.1v.464a12.248,12.248,0,0,1-.062,1.341Zm-2.878-4.27v1.763h2.878V41.346Z"/></g><path class="cls-7" d="M577.353,124.121v1.067h-13.01v-1.067h7.382a48.174,48.174,0,0,0,1.973-7.046l1.229.235a67.527,67.527,0,0,1-2.076,6.811Zm-.424-7.732h-12.1v-1.053h5.424v-2.851h1.11v2.851h5.57Zm-8.8,7a22.014,22.014,0,0,0-1.345-5.964l1.009-.264a21.94,21.94,0,0,1,1.433,5.964Z"/><path class="cls-7" d="M582.866,112.836a24.376,24.376,0,0,1-1.3,3.085V125.8h-1.038v-8.084a15.538,15.538,0,0,1-1.242,1.68,8.02,8.02,0,0,0-.629-1.066,17,17,0,0,0,3.2-5.8Zm5.511,3.626a14.559,14.559,0,0,0,3.947,6.139,3.832,3.832,0,0,0-.819.863,16.464,16.464,0,0,1-3.829-6.4v5.073h2.353v.993h-2.353v2.617h-1.053v-2.617H584.24v-.993h2.383v-4.971a16.833,16.833,0,0,1-3.874,6.33,5.183,5.183,0,0,0-.789-.819,14.971,14.971,0,0,0,4-6.212H582.53v-1.053h4.093v-2.88h1.053v2.88h4.355v1.053Z"/><path class="cls-7" d="M598.89,114.839a35.85,35.85,0,0,0,4.458-.453l-.015,1.082a42.6,42.6,0,0,1-4.854.409,11.6,11.6,0,0,1-1.315,2.266,4.184,4.184,0,0,1,2.032-.541,1.887,1.887,0,0,1,1.959,1.315c.994-.482,1.886-.833,2.646-1.184.438-.19.789-.35,1.2-.57l.482,1.1a12.392,12.392,0,0,0-1.3.468c-.819.306-1.857.73-2.967,1.256.015.848.029,2.091.043,2.807h-1.125c.029-.556.044-1.506.044-2.28-1.36.716-2.31,1.491-2.31,2.456,0,1.139,1.14,1.315,2.646,1.315a26.2,26.2,0,0,0,3.991-.35l-.029,1.169a34.418,34.418,0,0,1-4.006.263c-2.09,0-3.772-.453-3.772-2.237,0-1.725,1.741-2.807,3.45-3.7a1.221,1.221,0,0,0-1.33-.907,3.851,3.851,0,0,0-2.514,1.068,19.112,19.112,0,0,0-1.33,1.52l-.994-.731a15.417,15.417,0,0,0,3.376-4.473h-.643c-.628,0-1.593-.029-2.4-.088v-1.1a21.489,21.489,0,0,0,2.471.161c.307,0,.644,0,.965-.015a7.46,7.46,0,0,0,.365-1.827l1.2.1A15.03,15.03,0,0,1,598.89,114.839Z"/><path class="cls-7" d="M620.087,124.121v1.067h-13.01v-1.067h1.988V117.28h1.1v6.841h3.216v-9.516h-5.745v-1.052H619.6v1.052h-5.116v3.888h4.562v1.068h-4.562v4.56Z"/><path class="cls-7" d="M624.577,114.8c-.073,1.652-.176,5.1-.176,7.28,0,1.608,1.009,2.178,2.4,2.178a6.092,6.092,0,0,0,5.233-3.026l.833.994a7.348,7.348,0,0,1-6.11,3.23c-2.106,0-3.552-.877-3.552-3.26,0-2.163.146-5.861.146-7.4a7.77,7.77,0,0,0-.117-1.491l1.476.014A12.939,12.939,0,0,0,624.577,114.8Z"/><path class="cls-7" d="M640.5,114.751c-.994.877-3.1,2.544-4.181,3.45-.877.745-.891.98.044,1.769,1.33,1.082,3.918,3.172,5.467,4.721l-1.037.965c-.308-.35-.644-.716-1.009-1.067-1.023-1.053-3.245-2.952-4.6-4.078-1.389-1.156-1.214-1.783.1-2.895,1.1-.921,3.319-2.675,4.313-3.683a6.884,6.884,0,0,0,.833-.98l1.082.965C641.2,114.167,640.746,114.547,640.5,114.751Z"/><path class="cls-7" d="M648.363,115.789h-4.472V114.9h4.472Zm-.336,9.18h-2.718v.687h-.863v-4.9h3.581Zm-.014-7.236h-3.524v-.862h3.524Zm-3.524,1.068h3.524v.877h-3.524Zm3.494-4.942h-3.435v-.877h3.435Zm-2.674,7.792v2.441h1.827v-2.441Zm11.416-2.252a12.147,12.147,0,0,1-1.608,3.363c.263,1.2.628,1.885,1.125,1.929.249.015.424-.745.512-1.944a3.414,3.414,0,0,0,.7.57c-.264,2-.746,2.573-1.243,2.559-.862-.044-1.433-.819-1.813-2.179a10.493,10.493,0,0,1-2.382,2.062,4.046,4.046,0,0,0-.614-.614,8.6,8.6,0,0,0,1.448-1.082H649.8v.79h-.862v-5.628h4v4.751a10.266,10.266,0,0,0,1.229-1.375,34.328,34.328,0,0,1-.395-4.283h-5.613v-.906h5.57c-.044-1.491-.059-3.129-.074-4.912h.95c-.014,1.8,0,3.45.044,4.912h2.47v.906h-2.44c.044,1.169.116,2.222.233,3.1a12.232,12.232,0,0,0,.98-2.456Zm-3.42-4.472h-4.751v-.863h1.9v-1.579h1.008v1.579H653.3Zm-3.757,2.427a7.512,7.512,0,0,0-.41-2.121l.79-.174a7.394,7.394,0,0,1,.453,2.1Zm.248,2.674v1.2h2.222v-1.2Zm2.222,3.231v-1.242H649.8v1.242Zm-.658-6.067a15.057,15.057,0,0,0,.5-2.207l.936.19c-.234.761-.453,1.638-.658,2.193Zm5-1.082a9.009,9.009,0,0,0-1.447-2.616l.818-.336a9.313,9.313,0,0,1,1.521,2.558Z"/><path class="cls-7" d="M665.176,119.458s-.015.336-.015.468c-.175,3.639-.321,4.97-.716,5.424a1.155,1.155,0,0,1-.935.409,14.241,14.241,0,0,1-1.783,0,2.2,2.2,0,0,0-.308-.95c.717.073,1.4.073,1.667.073a.589.589,0,0,0,.5-.161c.263-.292.409-1.4.541-4.283h-2.4a8.434,8.434,0,0,1-2.544,5.409,2.781,2.781,0,0,0-.745-.746c1.988-1.579,2.338-4.561,2.485-7.206h-1.594v-4.751h5.745V117.9h-3.1c-.03.51-.074,1.037-.131,1.563Zm-4.838-2.528h3.713v-2.807h-3.713Zm7.279,5.335h-1.053v-8.04h1.053Zm3.582-9.5v11.621c0,.73-.2,1.066-.658,1.257a9.341,9.341,0,0,1-2.631.19,4.317,4.317,0,0,0-.395-1.1c1.023.044,1.944.03,2.222.015.263,0,.38-.088.38-.365V112.764Z"/></svg>